  0
SECTION
2
HEADER
9
$ACADVER
1
AC1009
  0
ENDSEC
  0
SECTION
2
TABLES
  0
TABLE
  2
LAYER
70
9
  0
LAYER
2
BOARD_OUTLINE
70
0
62
1
6
CONTINUOUS
  0
LAYER
2
2DLINES_1
70
0
62
2
6
CONTINUOUS
  0
LAYER
2
TEXT_1
70
0
62
3
6
CONTINUOUS
  0
LAYER
2
COMP_OUTLINE_TOP
70
0
62
4
6
CONTINUOUS
  0
LAYER
2
PADLAYER_TOP
70
0
62
5
6
CONTINUOUS
  0
LAYER
2
PADLAYER_BOTTOM
70
0
62
6
6
CONTINUOUS
  0
LAYER
2
TOOL_TOP
70
0
62
7
6
CONTINUOUS
  0
LAYER
2
TOOLCODE_TOP
70
0
62
8
6
CONTINUOUS
  0
LAYER
2
TEXT_ALL
70
0
62
9
6
CONTINUOUS
  0
ENDTAB
  0
ENDSEC
  0
SECTION
2
BLOCKS
  0
ENDSEC
  0
SECTION
2
ENTITIES
  0
POLYLINE
 5
1
  8
BOARD_OUTLINE
 66
1
 40
0.500000
 41
0.500000
  0
VERTEX
 5
2
  8
BOARD_OUTLINE
 10
0.00000
 20
38.00000
  0
VERTEX
 5
3
  8
BOARD_OUTLINE
 10
0.00000
 20
2.00000
  0
SEQEND
  8
BOARD_OUTLINE
  0
POLYLINE
 5
4
  8
BOARD_OUTLINE
 66
1
 70
1
 40
0.250000
 41
0.250000
  0
VERTEX
 5
5
  8
BOARD_OUTLINE
 10
-0.12500
 20
38.00000
 42
1.0
  0
VERTEX
 5
6
  8
BOARD_OUTLINE
 10
0.12500
 20
38.00000
 42
1.0
  0
SEQEND
  8
BOARD_OUTLINE
  0
POLYLINE
 5
7
  8
BOARD_OUTLINE
 66
1
 70
1
 40
0.250000
 41
0.250000
  0
VERTEX
 5
8
  8
BOARD_OUTLINE
 10
-0.12500
 20
2.00000
 42
1.0
  0
VERTEX
 5
9
  8
BOARD_OUTLINE
 10
0.12500
 20
2.00000
 42
1.0
  0
SEQEND
  8
BOARD_OUTLINE
  0
POLYLINE
 5
A
  8
BOARD_OUTLINE
 66
1
 40
0.500000
 41
0.500000
  0
VERTEX
 5
B
  8
BOARD_OUTLINE
 10
0.00000
 20
2.00000
  0
VERTEX
 5
C
  8
BOARD_OUTLINE
 10
2.00000
 20
0.00000
  0
SEQEND
  8
BOARD_OUTLINE
  0
POLYLINE
 5
D
  8
BOARD_OUTLINE
 66
1
 70
1
 40
0.250000
 41
0.250000
  0
VERTEX
 5
E
  8
BOARD_OUTLINE
 10
-0.12500
 20
2.00000
 42
1.0
  0
VERTEX
 5
F
  8
BOARD_OUTLINE
 10
0.12500
 20
2.00000
 42
1.0
  0
SEQEND
  8
BOARD_OUTLINE
  0
POLYLINE
 5
10
  8
BOARD_OUTLINE
 66
1
 70
1
 40
0.250000
 41
0.250000
  0
VERTEX
 5
11
  8
BOARD_OUTLINE
 10
1.87500
 20
0.00000
 42
1.0
  0
VERTEX
 5
12
  8
BOARD_OUTLINE
 10
2.12500
 20
0.00000
 42
1.0
  0
SEQEND
  8
BOARD_OUTLINE
  0
POLYLINE
 5
13
  8
BOARD_OUTLINE
 66
1
 40
0.500000
 41
0.500000
  0
VERTEX
 5
14
  8
BOARD_OUTLINE
 10
2.00000
 20
0.00000
  0
VERTEX
 5
15
  8
BOARD_OUTLINE
 10
88.00000
 20
0.00000
  0
SEQEND
  8
BOARD_OUTLINE
  0
POLYLINE
 5
16
  8
BOARD_OUTLINE
 66
1
 70
1
 40
0.250000
 41
0.250000
  0
VERTEX
 5
17
  8
BOARD_OUTLINE
 10
1.87500
 20
0.00000
 42
1.0
  0
VERTEX
 5
18
  8
BOARD_OUTLINE
 10
2.12500
 20
0.00000
 42
1.0
  0
SEQEND
  8
BOARD_OUTLINE
  0
POLYLINE
 5
19
  8
BOARD_OUTLINE
 66
1
 70
1
 40
0.250000
 41
0.250000
  0
VERTEX
 5
1A
  8
BOARD_OUTLINE
 10
87.87500
 20
0.00000
 42
1.0
  0
VERTEX
 5
1B
  8
BOARD_OUTLINE
 10
88.12500
 20
0.00000
 42
1.0
  0
SEQEND
  8
BOARD_OUTLINE
  0
POLYLINE
 5
1C
  8
BOARD_OUTLINE
 66
1
 40
0.500000
 41
0.500000
  0
VERTEX
 5
1D
  8
BOARD_OUTLINE
 10
88.00000
 20
0.00000
  0
VERTEX
 5
1E
  8
BOARD_OUTLINE
 10
90.00000
 20
2.00000
  0
SEQEND
  8
BOARD_OUTLINE
  0
POLYLINE
 5
1F
  8
BOARD_OUTLINE
 66
1
 70
1
 40
0.250000
 41
0.250000
  0
VERTEX
 5
20
  8
BOARD_OUTLINE
 10
87.87500
 20
0.00000
 42
1.0
  0
VERTEX
 5
21
  8
BOARD_OUTLINE
 10
88.12500
 20
0.00000
 42
1.0
  0
SEQEND
  8
BOARD_OUTLINE
  0
POLYLINE
 5
22
  8
BOARD_OUTLINE
 66
1
 70
1
 40
0.250000
 41
0.250000
  0
VERTEX
 5
23
  8
BOARD_OUTLINE
 10
89.87500
 20
2.00000
 42
1.0
  0
VERTEX
 5
24
  8
BOARD_OUTLINE
 10
90.12500
 20
2.00000
 42
1.0
  0
SEQEND
  8
BOARD_OUTLINE
  0
POLYLINE
 5
25
  8
BOARD_OUTLINE
 66
1
 40
0.500000
 41
0.500000
  0
VERTEX
 5
26
  8
BOARD_OUTLINE
 10
90.00000
 20
2.00000
  0
VERTEX
 5
27
  8
BOARD_OUTLINE
 10
90.00000
 20
10.75000
  0
SEQEND
  8
BOARD_OUTLINE
  0
POLYLINE
 5
28
  8
BOARD_OUTLINE
 66
1
 70
1
 40
0.250000
 41
0.250000
  0
VERTEX
 5
29
  8
BOARD_OUTLINE
 10
89.87500
 20
2.00000
 42
1.0
  0
VERTEX
 5
2A
  8
BOARD_OUTLINE
 10
90.12500
 20
2.00000
 42
1.0
  0
SEQEND
  8
BOARD_OUTLINE
  0
POLYLINE
 5
2B
  8
BOARD_OUTLINE
 66
1
 70
1
 40
0.250000
 41
0.250000
  0
VERTEX
 5
2C
  8
BOARD_OUTLINE
 10
89.87500
 20
10.75000
 42
1.0
  0
VERTEX
 5
2D
  8
BOARD_OUTLINE
 10
90.12500
 20
10.75000
 42
1.0
  0
SEQEND
  8
BOARD_OUTLINE
  0
POLYLINE
 5
2E
  8
BOARD_OUTLINE
 66
1
 40
0.500000
 41
0.500000
  0
VERTEX
 5
2F
  8
BOARD_OUTLINE
 10
90.00000
 20
10.75000
  0
VERTEX
 5
30
  8
BOARD_OUTLINE
 10
92.00000
 20
12.75000
  0
SEQEND
  8
BOARD_OUTLINE
  0
POLYLINE
 5
31
  8
BOARD_OUTLINE
 66
1
 70
1
 40
0.250000
 41
0.250000
  0
VERTEX
 5
32
  8
BOARD_OUTLINE
 10
89.87500
 20
10.75000
 42
1.0
  0
VERTEX
 5
33
  8
BOARD_OUTLINE
 10
90.12500
 20
10.75000
 42
1.0
  0
SEQEND
  8
BOARD_OUTLINE
  0
POLYLINE
 5
34
  8
BOARD_OUTLINE
 66
1
 70
1
 40
0.250000
 41
0.250000
  0
VERTEX
 5
35
  8
BOARD_OUTLINE
 10
91.87500
 20
12.75000
 42
1.0
  0
VERTEX
 5
36
  8
BOARD_OUTLINE
 10
92.12500
 20
12.75000
 42
1.0
  0
SEQEND
  8
BOARD_OUTLINE
  0
POLYLINE
 5
37
  8
BOARD_OUTLINE
 66
1
 40
0.500000
 41
0.500000
  0
VERTEX
 5
38
  8
BOARD_OUTLINE
 10
92.00000
 20
12.75000
  0
VERTEX
 5
39
  8
BOARD_OUTLINE
 10
124.25000
 20
12.75000
  0
SEQEND
  8
BOARD_OUTLINE
  0
POLYLINE
 5
3A
  8
BOARD_OUTLINE
 66
1
 70
1
 40
0.250000
 41
0.250000
  0
VERTEX
 5
3B
  8
BOARD_OUTLINE
 10
91.87500
 20
12.75000
 42
1.0
  0
VERTEX
 5
3C
  8
BOARD_OUTLINE
 10
92.12500
 20
12.75000
 42
1.0
  0
SEQEND
  8
BOARD_OUTLINE
  0
POLYLINE
 5
3D
  8
BOARD_OUTLINE
 66
1
 70
1
 40
0.250000
 41
0.250000
  0
VERTEX
 5
3E
  8
BOARD_OUTLINE
 10
124.12500
 20
12.75000
 42
1.0
  0
VERTEX
 5
3F
  8
BOARD_OUTLINE
 10
124.37500
 20
12.75000
 42
1.0
  0
SEQEND
  8
BOARD_OUTLINE
  0
POLYLINE
 5
40
  8
BOARD_OUTLINE
 66
1
 40
0.500000
 41
0.500000
  0
VERTEX
 5
41
  8
BOARD_OUTLINE
 10
124.25000
 20
12.75000
  0
VERTEX
 5
42
  8
BOARD_OUTLINE
 10
126.25000
 20
14.75000
  0
SEQEND
  8
BOARD_OUTLINE
  0
POLYLINE
 5
43
  8
BOARD_OUTLINE
 66
1
 70
1
 40
0.250000
 41
0.250000
  0
VERTEX
 5
44
  8
BOARD_OUTLINE
 10
124.12500
 20
12.75000
 42
1.0
  0
VERTEX
 5
45
  8
BOARD_OUTLINE
 10
124.37500
 20
12.75000
 42
1.0
  0
SEQEND
  8
BOARD_OUTLINE
  0
POLYLINE
 5
46
  8
BOARD_OUTLINE
 66
1
 70
1
 40
0.250000
 41
0.250000
  0
VERTEX
 5
47
  8
BOARD_OUTLINE
 10
126.12500
 20
14.75000
 42
1.0
  0
VERTEX
 5
48
  8
BOARD_OUTLINE
 10
126.37500
 20
14.75000
 42
1.0
  0
SEQEND
  8
BOARD_OUTLINE
  0
POLYLINE
 5
49
  8
BOARD_OUTLINE
 66
1
 40
0.500000
 41
0.500000
  0
VERTEX
 5
4A
  8
BOARD_OUTLINE
 10
126.25000
 20
14.75000
  0
VERTEX
 5
4B
  8
BOARD_OUTLINE
 10
126.25000
 20
55.00000
  0
SEQEND
  8
BOARD_OUTLINE
  0
POLYLINE
 5
4C
  8
BOARD_OUTLINE
 66
1
 70
1
 40
0.250000
 41
0.250000
  0
VERTEX
 5
4D
  8
BOARD_OUTLINE
 10
126.12500
 20
14.75000
 42
1.0
  0
VERTEX
 5
4E
  8
BOARD_OUTLINE
 10
126.37500
 20
14.75000
 42
1.0
  0
SEQEND
  8
BOARD_OUTLINE
  0
POLYLINE
 5
4F
  8
BOARD_OUTLINE
 66
1
 70
1
 40
0.250000
 41
0.250000
  0
VERTEX
 5
50
  8
BOARD_OUTLINE
 10
126.12500
 20
55.00000
 42
1.0
  0
VERTEX
 5
51
  8
BOARD_OUTLINE
 10
126.37500
 20
55.00000
 42
1.0
  0
SEQEND
  8
BOARD_OUTLINE
  0
POLYLINE
 5
52
  8
BOARD_OUTLINE
 66
1
 40
0.500000
 41
0.500000
  0
VERTEX
 5
53
  8
BOARD_OUTLINE
 10
126.25000
 20
55.00000
  0
VERTEX
 5
54
  8
BOARD_OUTLINE
 10
124.25000
 20
57.00000
  0
SEQEND
  8
BOARD_OUTLINE
  0
POLYLINE
 5
55
  8
BOARD_OUTLINE
 66
1
 70
1
 40
0.250000
 41
0.250000
  0
VERTEX
 5
56
  8
BOARD_OUTLINE
 10
126.12500
 20
55.00000
 42
1.0
  0
VERTEX
 5
57
  8
BOARD_OUTLINE
 10
126.37500
 20
55.00000
 42
1.0
  0
SEQEND
  8
BOARD_OUTLINE
  0
POLYLINE
 5
58
  8
BOARD_OUTLINE
 66
1
 70
1
 40
0.250000
 41
0.250000
  0
VERTEX
 5
59
  8
BOARD_OUTLINE
 10
124.12500
 20
57.00000
 42
1.0
  0
VERTEX
 5
5A
  8
BOARD_OUTLINE
 10
124.37500
 20
57.00000
 42
1.0
  0
SEQEND
  8
BOARD_OUTLINE
  0
POLYLINE
 5
5B
  8
BOARD_OUTLINE
 66
1
 40
0.500000
 41
0.500000
  0
VERTEX
 5
5C
  8
BOARD_OUTLINE
 10
124.25000
 20
57.00000
  0
VERTEX
 5
5D
  8
BOARD_OUTLINE
 10
47.00000
 20
57.00000
  0
SEQEND
  8
BOARD_OUTLINE
  0
POLYLINE
 5
5E
  8
BOARD_OUTLINE
 66
1
 70
1
 40
0.250000
 41
0.250000
  0
VERTEX
 5
5F
  8
BOARD_OUTLINE
 10
124.12500
 20
57.00000
 42
1.0
  0
VERTEX
 5
60
  8
BOARD_OUTLINE
 10
124.37500
 20
57.00000
 42
1.0
  0
SEQEND
  8
BOARD_OUTLINE
  0
POLYLINE
 5
61
  8
BOARD_OUTLINE
 66
1
 70
1
 40
0.250000
 41
0.250000
  0
VERTEX
 5
62
  8
BOARD_OUTLINE
 10
46.87500
 20
57.00000
 42
1.0
  0
VERTEX
 5
63
  8
BOARD_OUTLINE
 10
47.12500
 20
57.00000
 42
1.0
  0
SEQEND
  8
BOARD_OUTLINE
  0
POLYLINE
 5
64
  8
BOARD_OUTLINE
 66
1
 40
0.500000
 41
0.500000
  0
VERTEX
 5
65
  8
BOARD_OUTLINE
 10
47.00000
 20
57.00000
  0
VERTEX
 5
66
  8
BOARD_OUTLINE
 10
45.00000
 20
55.00000
  0
SEQEND
  8
BOARD_OUTLINE
  0
POLYLINE
 5
67
  8
BOARD_OUTLINE
 66
1
 70
1
 40
0.250000
 41
0.250000
  0
VERTEX
 5
68
  8
BOARD_OUTLINE
 10
46.87500
 20
57.00000
 42
1.0
  0
VERTEX
 5
69
  8
BOARD_OUTLINE
 10
47.12500
 20
57.00000
 42
1.0
  0
SEQEND
  8
BOARD_OUTLINE
  0
POLYLINE
 5
6A
  8
BOARD_OUTLINE
 66
1
 70
1
 40
0.250000
 41
0.250000
  0
VERTEX
 5
6B
  8
BOARD_OUTLINE
 10
44.87500
 20
55.00000
 42
1.0
  0
VERTEX
 5
6C
  8
BOARD_OUTLINE
 10
45.12500
 20
55.00000
 42
1.0
  0
SEQEND
  8
BOARD_OUTLINE
  0
POLYLINE
 5
6D
  8
BOARD_OUTLINE
 66
1
 40
0.500000
 41
0.500000
  0
VERTEX
 5
6E
  8
BOARD_OUTLINE
 10
45.00000
 20
55.00000
  0
VERTEX
 5
6F
  8
BOARD_OUTLINE
 10
45.00000
 20
42.00000
  0
SEQEND
  8
BOARD_OUTLINE
  0
POLYLINE
 5
70
  8
BOARD_OUTLINE
 66
1
 70
1
 40
0.250000
 41
0.250000
  0
VERTEX
 5
71
  8
BOARD_OUTLINE
 10
44.87500
 20
55.00000
 42
1.0
  0
VERTEX
 5
72
  8
BOARD_OUTLINE
 10
45.12500
 20
55.00000
 42
1.0
  0
SEQEND
  8
BOARD_OUTLINE
  0
POLYLINE
 5
73
  8
BOARD_OUTLINE
 66
1
 70
1
 40
0.250000
 41
0.250000
  0
VERTEX
 5
74
  8
BOARD_OUTLINE
 10
44.87500
 20
42.00000
 42
1.0
  0
VERTEX
 5
75
  8
BOARD_OUTLINE
 10
45.12500
 20
42.00000
 42
1.0
  0
SEQEND
  8
BOARD_OUTLINE
  0
POLYLINE
 5
76
  8
BOARD_OUTLINE
 66
1
 40
0.500000
 41
0.500000
  0
VERTEX
 5
77
  8
BOARD_OUTLINE
 10
45.00000
 20
42.00000
  0
VERTEX
 5
78
  8
BOARD_OUTLINE
 10
43.00000
 20
40.00000
  0
SEQEND
  8
BOARD_OUTLINE
  0
POLYLINE
 5
79
  8
BOARD_OUTLINE
 66
1
 70
1
 40
0.250000
 41
0.250000
  0
VERTEX
 5
7A
  8
BOARD_OUTLINE
 10
44.87500
 20
42.00000
 42
1.0
  0
VERTEX
 5
7B
  8
BOARD_OUTLINE
 10
45.12500
 20
42.00000
 42
1.0
  0
SEQEND
  8
BOARD_OUTLINE
  0
POLYLINE
 5
7C
  8
BOARD_OUTLINE
 66
1
 70
1
 40
0.250000
 41
0.250000
  0
VERTEX
 5
7D
  8
BOARD_OUTLINE
 10
42.87500
 20
40.00000
 42
1.0
  0
VERTEX
 5
7E
  8
BOARD_OUTLINE
 10
43.12500
 20
40.00000
 42
1.0
  0
SEQEND
  8
BOARD_OUTLINE
  0
POLYLINE
 5
7F
  8
BOARD_OUTLINE
 66
1
 40
0.500000
 41
0.500000
  0
VERTEX
 5
80
  8
BOARD_OUTLINE
 10
43.00000
 20
40.00000
  0
VERTEX
 5
81
  8
BOARD_OUTLINE
 10
2.00000
 20
40.00000
  0
SEQEND
  8
BOARD_OUTLINE
  0
POLYLINE
 5
82
  8
BOARD_OUTLINE
 66
1
 70
1
 40
0.250000
 41
0.250000
  0
VERTEX
 5
83
  8
BOARD_OUTLINE
 10
42.87500
 20
40.00000
 42
1.0
  0
VERTEX
 5
84
  8
BOARD_OUTLINE
 10
43.12500
 20
40.00000
 42
1.0
  0
SEQEND
  8
BOARD_OUTLINE
  0
POLYLINE
 5
85
  8
BOARD_OUTLINE
 66
1
 70
1
 40
0.250000
 41
0.250000
  0
VERTEX
 5
86
  8
BOARD_OUTLINE
 10
1.87500
 20
40.00000
 42
1.0
  0
VERTEX
 5
87
  8
BOARD_OUTLINE
 10
2.12500
 20
40.00000
 42
1.0
  0
SEQEND
  8
BOARD_OUTLINE
  0
POLYLINE
 5
88
  8
BOARD_OUTLINE
 66
1
 40
0.500000
 41
0.500000
  0
VERTEX
 5
89
  8
BOARD_OUTLINE
 10
2.00000
 20
40.00000
  0
VERTEX
 5
8A
  8
BOARD_OUTLINE
 10
0.00000
 20
38.00000
  0
SEQEND
  8
BOARD_OUTLINE
  0
POLYLINE
 5
8B
  8
BOARD_OUTLINE
 66
1
 70
1
 40
0.250000
 41
0.250000
  0
VERTEX
 5
8C
  8
BOARD_OUTLINE
 10
1.87500
 20
40.00000
 42
1.0
  0
VERTEX
 5
8D
  8
BOARD_OUTLINE
 10
2.12500
 20
40.00000
 42
1.0
  0
SEQEND
  8
BOARD_OUTLINE
  0
POLYLINE
 5
8E
  8
BOARD_OUTLINE
 66
1
 70
1
 40
0.250000
 41
0.250000
  0
VERTEX
 5
8F
  8
BOARD_OUTLINE
 10
-0.12500
 20
38.00000
 42
1.0
  0
VERTEX
 5
90
  8
BOARD_OUTLINE
 10
0.12500
 20
38.00000
 42
1.0
  0
SEQEND
  8
BOARD_OUTLINE
  0
POLYLINE
 5
91
  8
2DLINES_1
 66
1
 40
0.500000
 41
0.500000
  0
VERTEX
 5
92
  8
2DLINES_1
 10
70.00000
 20
7.00000
 42
1.000000
  0
VERTEX
 5
93
  8
2DLINES_1
 10
83.00000
 20
7.00000
 42
1.000000
  0
VERTEX
 5
94
  8
2DLINES_1
 10
70.00000
 20
7.00000
  0
SEQEND
  8
2DLINES_1
  0
POLYLINE
 5
95
  8
2DLINES_1
 66
1
 40
0.500000
 41
0.500000
  0
VERTEX
 5
96
  8
2DLINES_1
 10
73.00000
 20
7.00000
 42
1.000000
  0
VERTEX
 5
97
  8
2DLINES_1
 10
80.00000
 20
7.00000
 42
1.000000
  0
VERTEX
 5
98
  8
2DLINES_1
 10
73.00000
 20
7.00000
  0
SEQEND
  8
2DLINES_1
  0
POLYLINE
 5
99
  8
2DLINES_1
 66
1
 40
0.250000
 41
0.250000
  0
VERTEX
 5
9A
  8
2DLINES_1
 10
5.75000
 20
10.85000
  0
VERTEX
 5
9B
  8
2DLINES_1
 10
7.25000
 20
10.85000
  0
SEQEND
  8
2DLINES_1
  0
POLYLINE
 5
9C
  8
2DLINES_1
 66
1
 70
1
 40
0.125000
 41
0.125000
  0
VERTEX
 5
9D
  8
2DLINES_1
 10
5.68750
 20
10.85000
 42
1.0
  0
VERTEX
 5
9E
  8
2DLINES_1
 10
5.81250
 20
10.85000
 42
1.0
  0
SEQEND
  8
2DLINES_1
  0
POLYLINE
 5
9F
  8
2DLINES_1
 66
1
 70
1
 40
0.125000
 41
0.125000
  0
VERTEX
 5
A0
  8
2DLINES_1
 10
7.18750
 20
10.85000
 42
1.0
  0
VERTEX
 5
A1
  8
2DLINES_1
 10
7.31250
 20
10.85000
 42
1.0
  0
SEQEND
  8
2DLINES_1
  0
POLYLINE
 5
A2
  8
2DLINES_1
 66
1
 40
0.250000
 41
0.250000
  0
VERTEX
 5
A3
  8
2DLINES_1
 10
7.75000
 20
10.85000
  0
VERTEX
 5
A4
  8
2DLINES_1
 10
9.25000
 20
10.85000
  0
SEQEND
  8
2DLINES_1
  0
POLYLINE
 5
A5
  8
2DLINES_1
 66
1
 70
1
 40
0.125000
 41
0.125000
  0
VERTEX
 5
A6
  8
2DLINES_1
 10
7.68750
 20
10.85000
 42
1.0
  0
VERTEX
 5
A7
  8
2DLINES_1
 10
7.81250
 20
10.85000
 42
1.0
  0
SEQEND
  8
2DLINES_1
  0
POLYLINE
 5
A8
  8
2DLINES_1
 66
1
 70
1
 40
0.125000
 41
0.125000
  0
VERTEX
 5
A9
  8
2DLINES_1
 10
9.18750
 20
10.85000
 42
1.0
  0
VERTEX
 5
AA
  8
2DLINES_1
 10
9.31250
 20
10.85000
 42
1.0
  0
SEQEND
  8
2DLINES_1
  0
POLYLINE
 5
AB
  8
2DLINES_1
 66
1
 40
0.250000
 41
0.250000
  0
VERTEX
 5
AC
  8
2DLINES_1
 10
9.75000
 20
10.85000
  0
VERTEX
 5
AD
  8
2DLINES_1
 10
12.25000
 20
10.85000
  0
SEQEND
  8
2DLINES_1
  0
POLYLINE
 5
AE
  8
2DLINES_1
 66
1
 70
1
 40
0.125000
 41
0.125000
  0
VERTEX
 5
AF
  8
2DLINES_1
 10
9.68750
 20
10.85000
 42
1.0
  0
VERTEX
 5
B0
  8
2DLINES_1
 10
9.81250
 20
10.85000
 42
1.0
  0
SEQEND
  8
2DLINES_1
  0
POLYLINE
 5
B1
  8
2DLINES_1
 66
1
 70
1
 40
0.125000
 41
0.125000
  0
VERTEX
 5
B2
  8
2DLINES_1
 10
12.18750
 20
10.85000
 42
1.0
  0
VERTEX
 5
B3
  8
2DLINES_1
 10
12.31250
 20
10.85000
 42
1.0
  0
SEQEND
  8
2DLINES_1
  0
POLYLINE
 5
B4
  8
2DLINES_1
 66
1
 40
0.250000
 41
0.250000
  0
VERTEX
 5
B5
  8
2DLINES_1
 10
5.75000
 20
10.85000
  0
VERTEX
 5
B6
  8
2DLINES_1
 10
7.95000
 20
4.35000
  0
SEQEND
  8
2DLINES_1
  0
POLYLINE
 5
B7
  8
2DLINES_1
 66
1
 70
1
 40
0.125000
 41
0.125000
  0
VERTEX
 5
B8
  8
2DLINES_1
 10
5.68750
 20
10.85000
 42
1.0
  0
VERTEX
 5
B9
  8
2DLINES_1
 10
5.81250
 20
10.85000
 42
1.0
  0
SEQEND
  8
2DLINES_1
  0
POLYLINE
 5
BA
  8
2DLINES_1
 66
1
 70
1
 40
0.125000
 41
0.125000
  0
VERTEX
 5
BB
  8
2DLINES_1
 10
7.88750
 20
4.35000
 42
1.0
  0
VERTEX
 5
BC
  8
2DLINES_1
 10
8.01250
 20
4.35000
 42
1.0
  0
SEQEND
  8
2DLINES_1
  0
POLYLINE
 5
BD
  8
2DLINES_1
 66
1
 40
0.250000
 41
0.250000
  0
VERTEX
 5
BE
  8
2DLINES_1
 10
7.25000
 20
10.85000
  0
VERTEX
 5
BF
  8
2DLINES_1
 10
8.75000
 20
6.45000
  0
SEQEND
  8
2DLINES_1
  0
POLYLINE
 5
C0
  8
2DLINES_1
 66
1
 70
1
 40
0.125000
 41
0.125000
  0
VERTEX
 5
C1
  8
2DLINES_1
 10
7.18750
 20
10.85000
 42
1.0
  0
VERTEX
 5
C2
  8
2DLINES_1
 10
7.31250
 20
10.85000
 42
1.0
  0
SEQEND
  8
2DLINES_1
  0
POLYLINE
 5
C3
  8
2DLINES_1
 66
1
 70
1
 40
0.125000
 41
0.125000
  0
VERTEX
 5
C4
  8
2DLINES_1
 10
8.68750
 20
6.45000
 42
1.0
  0
VERTEX
 5
C5
  8
2DLINES_1
 10
8.81250
 20
6.45000
 42
1.0
  0
SEQEND
  8
2DLINES_1
  0
POLYLINE
 5
C6
  8
2DLINES_1
 66
1
 40
0.250000
 41
0.250000
  0
VERTEX
 5
C7
  8
2DLINES_1
 10
7.75000
 20
10.85000
  0
VERTEX
 5
C8
  8
2DLINES_1
 10
9.95000
 20
4.35000
  0
SEQEND
  8
2DLINES_1
  0
POLYLINE
 5
C9
  8
2DLINES_1
 66
1
 70
1
 40
0.125000
 41
0.125000
  0
VERTEX
 5
CA
  8
2DLINES_1
 10
7.68750
 20
10.85000
 42
1.0
  0
VERTEX
 5
CB
  8
2DLINES_1
 10
7.81250
 20
10.85000
 42
1.0
  0
SEQEND
  8
2DLINES_1
  0
POLYLINE
 5
CC
  8
2DLINES_1
 66
1
 70
1
 40
0.125000
 41
0.125000
  0
VERTEX
 5
CD
  8
2DLINES_1
 10
9.88750
 20
4.35000
 42
1.0
  0
VERTEX
 5
CE
  8
2DLINES_1
 10
10.01250
 20
4.35000
 42
1.0
  0
SEQEND
  8
2DLINES_1
  0
POLYLINE
 5
CF
  8
2DLINES_1
 66
1
 40
0.250000
 41
0.250000
  0
VERTEX
 5
D0
  8
2DLINES_1
 10
9.25000
 20
10.85000
  0
VERTEX
 5
D1
  8
2DLINES_1
 10
10.75000
 20
6.45000
  0
SEQEND
  8
2DLINES_1
  0
POLYLINE
 5
D2
  8
2DLINES_1
 66
1
 70
1
 40
0.125000
 41
0.125000
  0
VERTEX
 5
D3
  8
2DLINES_1
 10
9.18750
 20
10.85000
 42
1.0
  0
VERTEX
 5
D4
  8
2DLINES_1
 10
9.31250
 20
10.85000
 42
1.0
  0
SEQEND
  8
2DLINES_1
  0
POLYLINE
 5
D5
  8
2DLINES_1
 66
1
 70
1
 40
0.125000
 41
0.125000
  0
VERTEX
 5
D6
  8
2DLINES_1
 10
10.68750
 20
6.45000
 42
1.0
  0
VERTEX
 5
D7
  8
2DLINES_1
 10
10.81250
 20
6.45000
 42
1.0
  0
SEQEND
  8
2DLINES_1
  0
POLYLINE
 5
D8
  8
2DLINES_1
 66
1
 40
0.250000
 41
0.250000
  0
VERTEX
 5
D9
  8
2DLINES_1
 10
9.75000
 20
10.85000
  0
VERTEX
 5
DA
  8
2DLINES_1
 10
10.95000
 20
7.25000
  0
SEQEND
  8
2DLINES_1
  0
POLYLINE
 5
DB
  8
2DLINES_1
 66
1
 70
1
 40
0.125000
 41
0.125000
  0
VERTEX
 5
DC
  8
2DLINES_1
 10
9.68750
 20
10.85000
 42
1.0
  0
VERTEX
 5
DD
  8
2DLINES_1
 10
9.81250
 20
10.85000
 42
1.0
  0
SEQEND
  8
2DLINES_1
  0
POLYLINE
 5
DE
  8
2DLINES_1
 66
1
 70
1
 40
0.125000
 41
0.125000
  0
VERTEX
 5
DF
  8
2DLINES_1
 10
10.88750
 20
7.25000
 42
1.0
  0
VERTEX
 5
E0
  8
2DLINES_1
 10
11.01250
 20
7.25000
 42
1.0
  0
SEQEND
  8
2DLINES_1
  0
POLYLINE
 5
E1
  8
2DLINES_1
 66
1
 40
0.250000
 41
0.250000
  0
VERTEX
 5
E2
  8
2DLINES_1
 10
9.75000
 20
10.85000
  0
VERTEX
 5
E3
  8
2DLINES_1
 10
10.95000
 20
7.25000
  0
SEQEND
  8
2DLINES_1
  0
POLYLINE
 5
E4
  8
2DLINES_1
 66
1
 70
1
 40
0.125000
 41
0.125000
  0
VERTEX
 5
E5
  8
2DLINES_1
 10
9.68750
 20
10.85000
 42
1.0
  0
VERTEX
 5
E6
  8
2DLINES_1
 10
9.81250
 20
10.85000
 42
1.0
  0
SEQEND
  8
2DLINES_1
  0
POLYLINE
 5
E7
  8
2DLINES_1
 66
1
 70
1
 40
0.125000
 41
0.125000
  0
VERTEX
 5
E8
  8
2DLINES_1
 10
10.88750
 20
7.25000
 42
1.0
  0
VERTEX
 5
E9
  8
2DLINES_1
 10
11.01250
 20
7.25000
 42
1.0
  0
SEQEND
  8
2DLINES_1
  0
POLYLINE
 5
EA
  8
2DLINES_1
 66
1
 40
0.250000
 41
0.250000
  0
VERTEX
 5
EB
  8
2DLINES_1
 10
10.95000
 20
7.25000
  0
VERTEX
 5
EC
  8
2DLINES_1
 10
12.25000
 20
10.85000
  0
SEQEND
  8
2DLINES_1
  0
POLYLINE
 5
ED
  8
2DLINES_1
 66
1
 70
1
 40
0.125000
 41
0.125000
  0
VERTEX
 5
EE
  8
2DLINES_1
 10
10.88750
 20
7.25000
 42
1.0
  0
VERTEX
 5
EF
  8
2DLINES_1
 10
11.01250
 20
7.25000
 42
1.0
  0
SEQEND
  8
2DLINES_1
  0
POLYLINE
 5
F0
  8
2DLINES_1
 66
1
 70
1
 40
0.125000
 41
0.125000
  0
VERTEX
 5
F1
  8
2DLINES_1
 10
12.18750
 20
10.85000
 42
1.0
  0
VERTEX
 5
F2
  8
2DLINES_1
 10
12.31250
 20
10.85000
 42
1.0
  0
SEQEND
  8
2DLINES_1
  0
POLYLINE
 5
F3
  8
2DLINES_1
 66
1
 40
0.250000
 41
0.250000
  0
VERTEX
 5
F4
  8
2DLINES_1
 10
12.25000
 20
10.85000
  0
VERTEX
 5
F5
  8
2DLINES_1
 10
9.75000
 20
10.85000
  0
SEQEND
  8
2DLINES_1
  0
POLYLINE
 5
F6
  8
2DLINES_1
 66
1
 70
1
 40
0.125000
 41
0.125000
  0
VERTEX
 5
F7
  8
2DLINES_1
 10
12.18750
 20
10.85000
 42
1.0
  0
VERTEX
 5
F8
  8
2DLINES_1
 10
12.31250
 20
10.85000
 42
1.0
  0
SEQEND
  8
2DLINES_1
  0
POLYLINE
 5
F9
  8
2DLINES_1
 66
1
 70
1
 40
0.125000
 41
0.125000
  0
VERTEX
 5
FA
  8
2DLINES_1
 10
9.68750
 20
10.85000
 42
1.0
  0
VERTEX
 5
FB
  8
2DLINES_1
 10
9.81250
 20
10.85000
 42
1.0
  0
SEQEND
  8
2DLINES_1
  0
POLYLINE
 5
FC
  8
2DLINES_1
 66
1
 40
0.250000
 41
0.250000
  0
VERTEX
 5
FD
  8
2DLINES_1
 10
9.95000
 20
4.35000
  0
VERTEX
 5
FE
  8
2DLINES_1
 10
10.75000
 20
6.45000
  0
SEQEND
  8
2DLINES_1
  0
POLYLINE
 5
FF
  8
2DLINES_1
 66
1
 70
1
 40
0.125000
 41
0.125000
  0
VERTEX
 5
100
  8
2DLINES_1
 10
9.88750
 20
4.35000
 42
1.0
  0
VERTEX
 5
101
  8
2DLINES_1
 10
10.01250
 20
4.35000
 42
1.0
  0
SEQEND
  8
2DLINES_1
  0
POLYLINE
 5
102
  8
2DLINES_1
 66
1
 70
1
 40
0.125000
 41
0.125000
  0
VERTEX
 5
103
  8
2DLINES_1
 10
10.68750
 20
6.45000
 42
1.0
  0
VERTEX
 5
104
  8
2DLINES_1
 10
10.81250
 20
6.45000
 42
1.0
  0
SEQEND
  8
2DLINES_1
  0
POLYLINE
 5
105
  8
2DLINES_1
 66
1
 40
0.250000
 41
0.250000
  0
VERTEX
 5
106
  8
2DLINES_1
 10
7.95000
 20
4.35000
  0
VERTEX
 5
107
  8
2DLINES_1
 10
8.75000
 20
6.45000
  0
SEQEND
  8
2DLINES_1
  0
POLYLINE
 5
108
  8
2DLINES_1
 66
1
 70
1
 40
0.125000
 41
0.125000
  0
VERTEX
 5
109
  8
2DLINES_1
 10
7.88750
 20
4.35000
 42
1.0
  0
VERTEX
 5
10A
  8
2DLINES_1
 10
8.01250
 20
4.35000
 42
1.0
  0
SEQEND
  8
2DLINES_1
  0
POLYLINE
 5
10B
  8
2DLINES_1
 66
1
 70
1
 40
0.125000
 41
0.125000
  0
VERTEX
 5
10C
  8
2DLINES_1
 10
8.68750
 20
6.45000
 42
1.0
  0
VERTEX
 5
10D
  8
2DLINES_1
 10
8.81250
 20
6.45000
 42
1.0
  0
SEQEND
  8
2DLINES_1
  0
POLYLINE
 5
10E
  8
2DLINES_1
 66
1
 40
0.250000
 41
0.250000
  0
VERTEX
 5
10F
  8
2DLINES_1
 10
13.25000
 20
4.35000
  0
VERTEX
 5
110
  8
2DLINES_1
 10
35.75000
 20
4.35000
  0
SEQEND
  8
2DLINES_1
  0
POLYLINE
 5
111
  8
2DLINES_1
 66
1
 70
1
 40
0.125000
 41
0.125000
  0
VERTEX
 5
112
  8
2DLINES_1
 10
13.18750
 20
4.35000
 42
1.0
  0
VERTEX
 5
113
  8
2DLINES_1
 10
13.31250
 20
4.35000
 42
1.0
  0
SEQEND
  8
2DLINES_1
  0
POLYLINE
 5
114
  8
2DLINES_1
 66
1
 70
1
 40
0.125000
 41
0.125000
  0
VERTEX
 5
115
  8
2DLINES_1
 10
35.68750
 20
4.35000
 42
1.0
  0
VERTEX
 5
116
  8
2DLINES_1
 10
35.81250
 20
4.35000
 42
1.0
  0
SEQEND
  8
2DLINES_1
  0
POLYLINE
 5
117
  8
2DLINES_1
 66
1
 40
0.250000
 41
0.250000
  0
VERTEX
 5
118
  8
2DLINES_1
 10
35.75000
 20
4.35000
  0
VERTEX
 5
119
  8
2DLINES_1
 10
35.75000
 20
5.85000
  0
SEQEND
  8
2DLINES_1
  0
POLYLINE
 5
11A
  8
2DLINES_1
 66
1
 70
1
 40
0.125000
 41
0.125000
  0
VERTEX
 5
11B
  8
2DLINES_1
 10
35.68750
 20
4.35000
 42
1.0
  0
VERTEX
 5
11C
  8
2DLINES_1
 10
35.81250
 20
4.35000
 42
1.0
  0
SEQEND
  8
2DLINES_1
  0
POLYLINE
 5
11D
  8
2DLINES_1
 66
1
 70
1
 40
0.125000
 41
0.125000
  0
VERTEX
 5
11E
  8
2DLINES_1
 10
35.68750
 20
5.85000
 42
1.0
  0
VERTEX
 5
11F
  8
2DLINES_1
 10
35.81250
 20
5.85000
 42
1.0
  0
SEQEND
  8
2DLINES_1
  0
POLYLINE
 5
120
  8
2DLINES_1
 66
1
 40
0.250000
 41
0.250000
  0
VERTEX
 5
121
  8
2DLINES_1
 10
35.75000
 20
5.85000
  0
VERTEX
 5
122
  8
2DLINES_1
 10
13.25000
 20
5.85000
  0
SEQEND
  8
2DLINES_1
  0
POLYLINE
 5
123
  8
2DLINES_1
 66
1
 70
1
 40
0.125000
 41
0.125000
  0
VERTEX
 5
124
  8
2DLINES_1
 10
35.68750
 20
5.85000
 42
1.0
  0
VERTEX
 5
125
  8
2DLINES_1
 10
35.81250
 20
5.85000
 42
1.0
  0
SEQEND
  8
2DLINES_1
  0
POLYLINE
 5
126
  8
2DLINES_1
 66
1
 70
1
 40
0.125000
 41
0.125000
  0
VERTEX
 5
127
  8
2DLINES_1
 10
13.18750
 20
5.85000
 42
1.0
  0
VERTEX
 5
128
  8
2DLINES_1
 10
13.31250
 20
5.85000
 42
1.0
  0
SEQEND
  8
2DLINES_1
  0
POLYLINE
 5
129
  8
2DLINES_1
 66
1
 40
0.250000
 41
0.250000
  0
VERTEX
 5
12A
  8
2DLINES_1
 10
13.25000
 20
5.85000
  0
VERTEX
 5
12B
  8
2DLINES_1
 10
13.25000
 20
4.35000
  0
SEQEND
  8
2DLINES_1
  0
POLYLINE
 5
12C
  8
2DLINES_1
 66
1
 70
1
 40
0.125000
 41
0.125000
  0
VERTEX
 5
12D
  8
2DLINES_1
 10
13.18750
 20
5.85000
 42
1.0
  0
VERTEX
 5
12E
  8
2DLINES_1
 10
13.31250
 20
5.85000
 42
1.0
  0
SEQEND
  8
2DLINES_1
  0
POLYLINE
 5
12F
  8
2DLINES_1
 66
1
 70
1
 40
0.125000
 41
0.125000
  0
VERTEX
 5
130
  8
2DLINES_1
 10
13.18750
 20
4.35000
 42
1.0
  0
VERTEX
 5
131
  8
2DLINES_1
 10
13.31250
 20
4.35000
 42
1.0
  0
SEQEND
  8
2DLINES_1
  0
POLYLINE
 5
132
  8
2DLINES_1
 66
1
 40
0.250000
 41
0.250000
  0
VERTEX
 5
133
  8
2DLINES_1
 10
13.50000
 20
5.60000
  0
VERTEX
 5
134
  8
2DLINES_1
 10
35.50000
 20
5.60000
  0
SEQEND
  8
2DLINES_1
  0
POLYLINE
 5
135
  8
2DLINES_1
 66
1
 70
1
 40
0.125000
 41
0.125000
  0
VERTEX
 5
136
  8
2DLINES_1
 10
13.43750
 20
5.60000
 42
1.0
  0
VERTEX
 5
137
  8
2DLINES_1
 10
13.56250
 20
5.60000
 42
1.0
  0
SEQEND
  8
2DLINES_1
  0
POLYLINE
 5
138
  8
2DLINES_1
 66
1
 70
1
 40
0.125000
 41
0.125000
  0
VERTEX
 5
139
  8
2DLINES_1
 10
35.43750
 20
5.60000
 42
1.0
  0
VERTEX
 5
13A
  8
2DLINES_1
 10
35.56250
 20
5.60000
 42
1.0
  0
SEQEND
  8
2DLINES_1
  0
POLYLINE
 5
13B
  8
2DLINES_1
 66
1
 40
0.250000
 41
0.250000
  0
VERTEX
 5
13C
  8
2DLINES_1
 10
35.50000
 20
5.60000
  0
VERTEX
 5
13D
  8
2DLINES_1
 10
35.50000
 20
4.60000
  0
SEQEND
  8
2DLINES_1
  0
POLYLINE
 5
13E
  8
2DLINES_1
 66
1
 70
1
 40
0.125000
 41
0.125000
  0
VERTEX
 5
13F
  8
2DLINES_1
 10
35.43750
 20
5.60000
 42
1.0
  0
VERTEX
 5
140
  8
2DLINES_1
 10
35.56250
 20
5.60000
 42
1.0
  0
SEQEND
  8
2DLINES_1
  0
POLYLINE
 5
141
  8
2DLINES_1
 66
1
 70
1
 40
0.125000
 41
0.125000
  0
VERTEX
 5
142
  8
2DLINES_1
 10
35.43750
 20
4.60000
 42
1.0
  0
VERTEX
 5
143
  8
2DLINES_1
 10
35.56250
 20
4.60000
 42
1.0
  0
SEQEND
  8
2DLINES_1
  0
POLYLINE
 5
144
  8
2DLINES_1
 66
1
 40
0.250000
 41
0.250000
  0
VERTEX
 5
145
  8
2DLINES_1
 10
35.50000
 20
4.60000
  0
VERTEX
 5
146
  8
2DLINES_1
 10
13.50000
 20
4.60000
  0
SEQEND
  8
2DLINES_1
  0
POLYLINE
 5
147
  8
2DLINES_1
 66
1
 70
1
 40
0.125000
 41
0.125000
  0
VERTEX
 5
148
  8
2DLINES_1
 10
35.43750
 20
4.60000
 42
1.0
  0
VERTEX
 5
149
  8
2DLINES_1
 10
35.56250
 20
4.60000
 42
1.0
  0
SEQEND
  8
2DLINES_1
  0
POLYLINE
 5
14A
  8
2DLINES_1
 66
1
 70
1
 40
0.125000
 41
0.125000
  0
VERTEX
 5
14B
  8
2DLINES_1
 10
13.43750
 20
4.60000
 42
1.0
  0
VERTEX
 5
14C
  8
2DLINES_1
 10
13.56250
 20
4.60000
 42
1.0
  0
SEQEND
  8
2DLINES_1
  0
POLYLINE
 5
14D
  8
2DLINES_1
 66
1
 40
0.250000
 41
0.250000
  0
VERTEX
 5
14E
  8
2DLINES_1
 10
13.50000
 20
4.60000
  0
VERTEX
 5
14F
  8
2DLINES_1
 10
13.50000
 20
5.60000
  0
SEQEND
  8
2DLINES_1
  0
POLYLINE
 5
150
  8
2DLINES_1
 66
1
 70
1
 40
0.125000
 41
0.125000
  0
VERTEX
 5
151
  8
2DLINES_1
 10
13.43750
 20
4.60000
 42
1.0
  0
VERTEX
 5
152
  8
2DLINES_1
 10
13.56250
 20
4.60000
 42
1.0
  0
SEQEND
  8
2DLINES_1
  0
POLYLINE
 5
153
  8
2DLINES_1
 66
1
 70
1
 40
0.125000
 41
0.125000
  0
VERTEX
 5
154
  8
2DLINES_1
 10
13.43750
 20
5.60000
 42
1.0
  0
VERTEX
 5
155
  8
2DLINES_1
 10
13.56250
 20
5.60000
 42
1.0
  0
SEQEND
  8
2DLINES_1
  0
POLYLINE
 5
156
  8
2DLINES_1
 66
1
 40
0.250000
 41
0.250000
  0
VERTEX
 5
157
  8
2DLINES_1
 10
13.75000
 20
5.35000
  0
VERTEX
 5
158
  8
2DLINES_1
 10
35.25000
 20
5.35000
  0
SEQEND
  8
2DLINES_1
  0
POLYLINE
 5
159
  8
2DLINES_1
 66
1
 70
1
 40
0.125000
 41
0.125000
  0
VERTEX
 5
15A
  8
2DLINES_1
 10
13.68750
 20
5.35000
 42
1.0
  0
VERTEX
 5
15B
  8
2DLINES_1
 10
13.81250
 20
5.35000
 42
1.0
  0
SEQEND
  8
2DLINES_1
  0
POLYLINE
 5
15C
  8
2DLINES_1
 66
1
 70
1
 40
0.125000
 41
0.125000
  0
VERTEX
 5
15D
  8
2DLINES_1
 10
35.18750
 20
5.35000
 42
1.0
  0
VERTEX
 5
15E
  8
2DLINES_1
 10
35.31250
 20
5.35000
 42
1.0
  0
SEQEND
  8
2DLINES_1
  0
POLYLINE
 5
15F
  8
2DLINES_1
 66
1
 40
0.250000
 41
0.250000
  0
VERTEX
 5
160
  8
2DLINES_1
 10
35.25000
 20
5.35000
  0
VERTEX
 5
161
  8
2DLINES_1
 10
35.25000
 20
4.85000
  0
SEQEND
  8
2DLINES_1
  0
POLYLINE
 5
162
  8
2DLINES_1
 66
1
 70
1
 40
0.125000
 41
0.125000
  0
VERTEX
 5
163
  8
2DLINES_1
 10
35.18750
 20
5.35000
 42
1.0
  0
VERTEX
 5
164
  8
2DLINES_1
 10
35.31250
 20
5.35000
 42
1.0
  0
SEQEND
  8
2DLINES_1
  0
POLYLINE
 5
165
  8
2DLINES_1
 66
1
 70
1
 40
0.125000
 41
0.125000
  0
VERTEX
 5
166
  8
2DLINES_1
 10
35.18750
 20
4.85000
 42
1.0
  0
VERTEX
 5
167
  8
2DLINES_1
 10
35.31250
 20
4.85000
 42
1.0
  0
SEQEND
  8
2DLINES_1
  0
POLYLINE
 5
168
  8
2DLINES_1
 66
1
 40
0.250000
 41
0.250000
  0
VERTEX
 5
169
  8
2DLINES_1
 10
35.25000
 20
4.85000
  0
VERTEX
 5
16A
  8
2DLINES_1
 10
13.75000
 20
4.85000
  0
SEQEND
  8
2DLINES_1
  0
POLYLINE
 5
16B
  8
2DLINES_1
 66
1
 70
1
 40
0.125000
 41
0.125000
  0
VERTEX
 5
16C
  8
2DLINES_1
 10
35.18750
 20
4.85000
 42
1.0
  0
VERTEX
 5
16D
  8
2DLINES_1
 10
35.31250
 20
4.85000
 42
1.0
  0
SEQEND
  8
2DLINES_1
  0
POLYLINE
 5
16E
  8
2DLINES_1
 66
1
 70
1
 40
0.125000
 41
0.125000
  0
VERTEX
 5
16F
  8
2DLINES_1
 10
13.68750
 20
4.85000
 42
1.0
  0
VERTEX
 5
170
  8
2DLINES_1
 10
13.81250
 20
4.85000
 42
1.0
  0
SEQEND
  8
2DLINES_1
  0
POLYLINE
 5
171
  8
2DLINES_1
 66
1
 40
0.250000
 41
0.250000
  0
VERTEX
 5
172
  8
2DLINES_1
 10
13.75000
 20
4.85000
  0
VERTEX
 5
173
  8
2DLINES_1
 10
13.75000
 20
5.35000
  0
SEQEND
  8
2DLINES_1
  0
POLYLINE
 5
174
  8
2DLINES_1
 66
1
 70
1
 40
0.125000
 41
0.125000
  0
VERTEX
 5
175
  8
2DLINES_1
 10
13.68750
 20
4.85000
 42
1.0
  0
VERTEX
 5
176
  8
2DLINES_1
 10
13.81250
 20
4.85000
 42
1.0
  0
SEQEND
  8
2DLINES_1
  0
POLYLINE
 5
177
  8
2DLINES_1
 66
1
 70
1
 40
0.125000
 41
0.125000
  0
VERTEX
 5
178
  8
2DLINES_1
 10
13.68750
 20
5.35000
 42
1.0
  0
VERTEX
 5
179
  8
2DLINES_1
 10
13.81250
 20
5.35000
 42
1.0
  0
SEQEND
  8
2DLINES_1
  0
POLYLINE
 5
17A
  8
2DLINES_1
 66
1
 40
0.250000
 41
0.250000
  0
VERTEX
 5
17B
  8
2DLINES_1
 10
13.45000
 20
5.80000
  0
VERTEX
 5
17C
  8
2DLINES_1
 10
35.65000
 20
5.80000
  0
SEQEND
  8
2DLINES_1
  0
POLYLINE
 5
17D
  8
2DLINES_1
 66
1
 70
1
 40
0.125000
 41
0.125000
  0
VERTEX
 5
17E
  8
2DLINES_1
 10
13.38750
 20
5.80000
 42
1.0
  0
VERTEX
 5
17F
  8
2DLINES_1
 10
13.51250
 20
5.80000
 42
1.0
  0
SEQEND
  8
2DLINES_1
  0
POLYLINE
 5
180
  8
2DLINES_1
 66
1
 70
1
 40
0.125000
 41
0.125000
  0
VERTEX
 5
181
  8
2DLINES_1
 10
35.58750
 20
5.80000
 42
1.0
  0
VERTEX
 5
182
  8
2DLINES_1
 10
35.71250
 20
5.80000
 42
1.0
  0
SEQEND
  8
2DLINES_1
  0
POLYLINE
 5
183
  8
2DLINES_1
 66
1
 40
0.250000
 41
0.250000
  0
VERTEX
 5
184
  8
2DLINES_1
 10
35.65000
 20
5.80000
  0
VERTEX
 5
185
  8
2DLINES_1
 10
35.65000
 20
4.40000
  0
SEQEND
  8
2DLINES_1
  0
POLYLINE
 5
186
  8
2DLINES_1
 66
1
 70
1
 40
0.125000
 41
0.125000
  0
VERTEX
 5
187
  8
2DLINES_1
 10
35.58750
 20
5.80000
 42
1.0
  0
VERTEX
 5
188
  8
2DLINES_1
 10
35.71250
 20
5.80000
 42
1.0
  0
SEQEND
  8
2DLINES_1
  0
POLYLINE
 5
189
  8
2DLINES_1
 66
1
 70
1
 40
0.125000
 41
0.125000
  0
VERTEX
 5
18A
  8
2DLINES_1
 10
35.58750
 20
4.40000
 42
1.0
  0
VERTEX
 5
18B
  8
2DLINES_1
 10
35.71250
 20
4.40000
 42
1.0
  0
SEQEND
  8
2DLINES_1
  0
POLYLINE
 5
18C
  8
2DLINES_1
 66
1
 40
0.250000
 41
0.250000
  0
VERTEX
 5
18D
  8
2DLINES_1
 10
35.65000
 20
4.40000
  0
VERTEX
 5
18E
  8
2DLINES_1
 10
13.45000
 20
4.40000
  0
SEQEND
  8
2DLINES_1
  0
POLYLINE
 5
18F
  8
2DLINES_1
 66
1
 70
1
 40
0.125000
 41
0.125000
  0
VERTEX
 5
190
  8
2DLINES_1
 10
35.58750
 20
4.40000
 42
1.0
  0
VERTEX
 5
191
  8
2DLINES_1
 10
35.71250
 20
4.40000
 42
1.0
  0
SEQEND
  8
2DLINES_1
  0
POLYLINE
 5
192
  8
2DLINES_1
 66
1
 70
1
 40
0.125000
 41
0.125000
  0
VERTEX
 5
193
  8
2DLINES_1
 10
13.38750
 20
4.40000
 42
1.0
  0
VERTEX
 5
194
  8
2DLINES_1
 10
13.51250
 20
4.40000
 42
1.0
  0
SEQEND
  8
2DLINES_1
  0
POLYLINE
 5
195
  8
2DLINES_1
 66
1
 40
0.250000
 41
0.250000
  0
VERTEX
 5
196
  8
2DLINES_1
 10
13.45000
 20
4.40000
  0
VERTEX
 5
197
  8
2DLINES_1
 10
13.45000
 20
5.80000
  0
SEQEND
  8
2DLINES_1
  0
POLYLINE
 5
198
  8
2DLINES_1
 66
1
 70
1
 40
0.125000
 41
0.125000
  0
VERTEX
 5
199
  8
2DLINES_1
 10
13.38750
 20
4.40000
 42
1.0
  0
VERTEX
 5
19A
  8
2DLINES_1
 10
13.51250
 20
4.40000
 42
1.0
  0
SEQEND
  8
2DLINES_1
  0
POLYLINE
 5
19B
  8
2DLINES_1
 66
1
 70
1
 40
0.125000
 41
0.125000
  0
VERTEX
 5
19C
  8
2DLINES_1
 10
13.38750
 20
5.80000
 42
1.0
  0
VERTEX
 5
19D
  8
2DLINES_1
 10
13.51250
 20
5.80000
 42
1.0
  0
SEQEND
  8
2DLINES_1
  0
POLYLINE
 5
19E
  8
2DLINES_1
 66
1
 40
0.250000
 41
0.250000
  0
VERTEX
 5
19F
  8
2DLINES_1
 10
13.65000
 20
5.50000
  0
VERTEX
 5
1A0
  8
2DLINES_1
 10
35.45000
 20
5.50000
  0
SEQEND
  8
2DLINES_1
  0
POLYLINE
 5
1A1
  8
2DLINES_1
 66
1
 70
1
 40
0.125000
 41
0.125000
  0
VERTEX
 5
1A2
  8
2DLINES_1
 10
13.58750
 20
5.50000
 42
1.0
  0
VERTEX
 5
1A3
  8
2DLINES_1
 10
13.71250
 20
5.50000
 42
1.0
  0
SEQEND
  8
2DLINES_1
  0
POLYLINE
 5
1A4
  8
2DLINES_1
 66
1
 70
1
 40
0.125000
 41
0.125000
  0
VERTEX
 5
1A5
  8
2DLINES_1
 10
35.38750
 20
5.50000
 42
1.0
  0
VERTEX
 5
1A6
  8
2DLINES_1
 10
35.51250
 20
5.50000
 42
1.0
  0
SEQEND
  8
2DLINES_1
  0
POLYLINE
 5
1A7
  8
2DLINES_1
 66
1
 40
0.250000
 41
0.250000
  0
VERTEX
 5
1A8
  8
2DLINES_1
 10
35.45000
 20
5.50000
  0
VERTEX
 5
1A9
  8
2DLINES_1
 10
35.45000
 20
4.70000
  0
SEQEND
  8
2DLINES_1
  0
POLYLINE
 5
1AA
  8
2DLINES_1
 66
1
 70
1
 40
0.125000
 41
0.125000
  0
VERTEX
 5
1AB
  8
2DLINES_1
 10
35.38750
 20
5.50000
 42
1.0
  0
VERTEX
 5
1AC
  8
2DLINES_1
 10
35.51250
 20
5.50000
 42
1.0
  0
SEQEND
  8
2DLINES_1
  0
POLYLINE
 5
1AD
  8
2DLINES_1
 66
1
 70
1
 40
0.125000
 41
0.125000
  0
VERTEX
 5
1AE
  8
2DLINES_1
 10
35.38750
 20
4.70000
 42
1.0
  0
VERTEX
 5
1AF
  8
2DLINES_1
 10
35.51250
 20
4.70000
 42
1.0
  0
SEQEND
  8
2DLINES_1
  0
POLYLINE
 5
1B0
  8
2DLINES_1
 66
1
 40
0.250000
 41
0.250000
  0
VERTEX
 5
1B1
  8
2DLINES_1
 10
35.45000
 20
4.70000
  0
VERTEX
 5
1B2
  8
2DLINES_1
 10
13.65000
 20
4.70000
  0
SEQEND
  8
2DLINES_1
  0
POLYLINE
 5
1B3
  8
2DLINES_1
 66
1
 70
1
 40
0.125000
 41
0.125000
  0
VERTEX
 5
1B4
  8
2DLINES_1
 10
35.38750
 20
4.70000
 42
1.0
  0
VERTEX
 5
1B5
  8
2DLINES_1
 10
35.51250
 20
4.70000
 42
1.0
  0
SEQEND
  8
2DLINES_1
  0
POLYLINE
 5
1B6
  8
2DLINES_1
 66
1
 70
1
 40
0.125000
 41
0.125000
  0
VERTEX
 5
1B7
  8
2DLINES_1
 10
13.58750
 20
4.70000
 42
1.0
  0
VERTEX
 5
1B8
  8
2DLINES_1
 10
13.71250
 20
4.70000
 42
1.0
  0
SEQEND
  8
2DLINES_1
  0
POLYLINE
 5
1B9
  8
2DLINES_1
 66
1
 40
0.250000
 41
0.250000
  0
VERTEX
 5
1BA
  8
2DLINES_1
 10
13.65000
 20
4.70000
  0
VERTEX
 5
1BB
  8
2DLINES_1
 10
13.65000
 20
5.50000
  0
SEQEND
  8
2DLINES_1
  0
POLYLINE
 5
1BC
  8
2DLINES_1
 66
1
 70
1
 40
0.125000
 41
0.125000
  0
VERTEX
 5
1BD
  8
2DLINES_1
 10
13.58750
 20
4.70000
 42
1.0
  0
VERTEX
 5
1BE
  8
2DLINES_1
 10
13.71250
 20
4.70000
 42
1.0
  0
SEQEND
  8
2DLINES_1
  0
POLYLINE
 5
1BF
  8
2DLINES_1
 66
1
 70
1
 40
0.125000
 41
0.125000
  0
VERTEX
 5
1C0
  8
2DLINES_1
 10
13.58750
 20
5.50000
 42
1.0
  0
VERTEX
 5
1C1
  8
2DLINES_1
 10
13.71250
 20
5.50000
 42
1.0
  0
SEQEND
  8
2DLINES_1
  0
POLYLINE
 5
1C2
  8
2DLINES_1
 66
1
 40
0.250000
 41
0.250000
  0
VERTEX
 5
1C3
  8
2DLINES_1
 10
13.85000
 20
5.30000
  0
VERTEX
 5
1C4
  8
2DLINES_1
 10
35.15000
 20
5.30000
  0
SEQEND
  8
2DLINES_1
  0
POLYLINE
 5
1C5
  8
2DLINES_1
 66
1
 70
1
 40
0.125000
 41
0.125000
  0
VERTEX
 5
1C6
  8
2DLINES_1
 10
13.78750
 20
5.30000
 42
1.0
  0
VERTEX
 5
1C7
  8
2DLINES_1
 10
13.91250
 20
5.30000
 42
1.0
  0
SEQEND
  8
2DLINES_1
  0
POLYLINE
 5
1C8
  8
2DLINES_1
 66
1
 70
1
 40
0.125000
 41
0.125000
  0
VERTEX
 5
1C9
  8
2DLINES_1
 10
35.08750
 20
5.30000
 42
1.0
  0
VERTEX
 5
1CA
  8
2DLINES_1
 10
35.21250
 20
5.30000
 42
1.0
  0
SEQEND
  8
2DLINES_1
  0
POLYLINE
 5
1CB
  8
2DLINES_1
 66
1
 40
0.250000
 41
0.250000
  0
VERTEX
 5
1CC
  8
2DLINES_1
 10
35.15000
 20
5.30000
  0
VERTEX
 5
1CD
  8
2DLINES_1
 10
35.15000
 20
4.90000
  0
SEQEND
  8
2DLINES_1
  0
POLYLINE
 5
1CE
  8
2DLINES_1
 66
1
 70
1
 40
0.125000
 41
0.125000
  0
VERTEX
 5
1CF
  8
2DLINES_1
 10
35.08750
 20
5.30000
 42
1.0
  0
VERTEX
 5
1D0
  8
2DLINES_1
 10
35.21250
 20
5.30000
 42
1.0
  0
SEQEND
  8
2DLINES_1
  0
POLYLINE
 5
1D1
  8
2DLINES_1
 66
1
 70
1
 40
0.125000
 41
0.125000
  0
VERTEX
 5
1D2
  8
2DLINES_1
 10
35.08750
 20
4.90000
 42
1.0
  0
VERTEX
 5
1D3
  8
2DLINES_1
 10
35.21250
 20
4.90000
 42
1.0
  0
SEQEND
  8
2DLINES_1
  0
POLYLINE
 5
1D4
  8
2DLINES_1
 66
1
 40
0.250000
 41
0.250000
  0
VERTEX
 5
1D5
  8
2DLINES_1
 10
35.15000
 20
4.90000
  0
VERTEX
 5
1D6
  8
2DLINES_1
 10
13.85000
 20
4.90000
  0
SEQEND
  8
2DLINES_1
  0
POLYLINE
 5
1D7
  8
2DLINES_1
 66
1
 70
1
 40
0.125000
 41
0.125000
  0
VERTEX
 5
1D8
  8
2DLINES_1
 10
35.08750
 20
4.90000
 42
1.0
  0
VERTEX
 5
1D9
  8
2DLINES_1
 10
35.21250
 20
4.90000
 42
1.0
  0
SEQEND
  8
2DLINES_1
  0
POLYLINE
 5
1DA
  8
2DLINES_1
 66
1
 70
1
 40
0.125000
 41
0.125000
  0
VERTEX
 5
1DB
  8
2DLINES_1
 10
13.78750
 20
4.90000
 42
1.0
  0
VERTEX
 5
1DC
  8
2DLINES_1
 10
13.91250
 20
4.90000
 42
1.0
  0
SEQEND
  8
2DLINES_1
  0
POLYLINE
 5
1DD
  8
2DLINES_1
 66
1
 40
0.250000
 41
0.250000
  0
VERTEX
 5
1DE
  8
2DLINES_1
 10
13.85000
 20
4.90000
  0
VERTEX
 5
1DF
  8
2DLINES_1
 10
13.85000
 20
5.30000
  0
SEQEND
  8
2DLINES_1
  0
POLYLINE
 5
1E0
  8
2DLINES_1
 66
1
 70
1
 40
0.125000
 41
0.125000
  0
VERTEX
 5
1E1
  8
2DLINES_1
 10
13.78750
 20
4.90000
 42
1.0
  0
VERTEX
 5
1E2
  8
2DLINES_1
 10
13.91250
 20
4.90000
 42
1.0
  0
SEQEND
  8
2DLINES_1
  0
POLYLINE
 5
1E3
  8
2DLINES_1
 66
1
 70
1
 40
0.125000
 41
0.125000
  0
VERTEX
 5
1E4
  8
2DLINES_1
 10
13.78750
 20
5.30000
 42
1.0
  0
VERTEX
 5
1E5
  8
2DLINES_1
 10
13.91250
 20
5.30000
 42
1.0
  0
SEQEND
  8
2DLINES_1
  0
POLYLINE
 5
1E6
  8
2DLINES_1
 66
1
 40
0.250000
 41
0.250000
  0
VERTEX
 5
1E7
  8
2DLINES_1
 10
35.05000
 20
5.20000
  0
VERTEX
 5
1E8
  8
2DLINES_1
 10
13.95000
 20
5.20000
  0
SEQEND
  8
2DLINES_1
  0
POLYLINE
 5
1E9
  8
2DLINES_1
 66
1
 70
1
 40
0.125000
 41
0.125000
  0
VERTEX
 5
1EA
  8
2DLINES_1
 10
34.98750
 20
5.20000
 42
1.0
  0
VERTEX
 5
1EB
  8
2DLINES_1
 10
35.11250
 20
5.20000
 42
1.0
  0
SEQEND
  8
2DLINES_1
  0
POLYLINE
 5
1EC
  8
2DLINES_1
 66
1
 70
1
 40
0.125000
 41
0.125000
  0
VERTEX
 5
1ED
  8
2DLINES_1
 10
13.88750
 20
5.20000
 42
1.0
  0
VERTEX
 5
1EE
  8
2DLINES_1
 10
14.01250
 20
5.20000
 42
1.0
  0
SEQEND
  8
2DLINES_1
  0
POLYLINE
 5
1EF
  8
2DLINES_1
 66
1
 40
0.250000
 41
0.250000
  0
VERTEX
 5
1F0
  8
2DLINES_1
 10
13.95000
 20
5.20000
  0
VERTEX
 5
1F1
  8
2DLINES_1
 10
13.95000
 20
5.00000
  0
SEQEND
  8
2DLINES_1
  0
POLYLINE
 5
1F2
  8
2DLINES_1
 66
1
 70
1
 40
0.125000
 41
0.125000
  0
VERTEX
 5
1F3
  8
2DLINES_1
 10
13.88750
 20
5.20000
 42
1.0
  0
VERTEX
 5
1F4
  8
2DLINES_1
 10
14.01250
 20
5.20000
 42
1.0
  0
SEQEND
  8
2DLINES_1
  0
POLYLINE
 5
1F5
  8
2DLINES_1
 66
1
 70
1
 40
0.125000
 41
0.125000
  0
VERTEX
 5
1F6
  8
2DLINES_1
 10
13.88750
 20
5.00000
 42
1.0
  0
VERTEX
 5
1F7
  8
2DLINES_1
 10
14.01250
 20
5.00000
 42
1.0
  0
SEQEND
  8
2DLINES_1
  0
POLYLINE
 5
1F8
  8
2DLINES_1
 66
1
 40
0.250000
 41
0.250000
  0
VERTEX
 5
1F9
  8
2DLINES_1
 10
13.95000
 20
5.00000
  0
VERTEX
 5
1FA
  8
2DLINES_1
 10
35.05000
 20
5.00000
  0
SEQEND
  8
2DLINES_1
  0
POLYLINE
 5
1FB
  8
2DLINES_1
 66
1
 70
1
 40
0.125000
 41
0.125000
  0
VERTEX
 5
1FC
  8
2DLINES_1
 10
13.88750
 20
5.00000
 42
1.0
  0
VERTEX
 5
1FD
  8
2DLINES_1
 10
14.01250
 20
5.00000
 42
1.0
  0
SEQEND
  8
2DLINES_1
  0
POLYLINE
 5
1FE
  8
2DLINES_1
 66
1
 70
1
 40
0.125000
 41
0.125000
  0
VERTEX
 5
1FF
  8
2DLINES_1
 10
34.98750
 20
5.00000
 42
1.0
  0
VERTEX
 5
200
  8
2DLINES_1
 10
35.11250
 20
5.00000
 42
1.0
  0
SEQEND
  8
2DLINES_1
  0
POLYLINE
 5
201
  8
2DLINES_1
 66
1
 40
0.250000
 41
0.250000
  0
VERTEX
 5
202
  8
2DLINES_1
 10
35.05000
 20
5.00000
  0
VERTEX
 5
203
  8
2DLINES_1
 10
35.05000
 20
5.20000
  0
SEQEND
  8
2DLINES_1
  0
POLYLINE
 5
204
  8
2DLINES_1
 66
1
 70
1
 40
0.125000
 41
0.125000
  0
VERTEX
 5
205
  8
2DLINES_1
 10
34.98750
 20
5.00000
 42
1.0
  0
VERTEX
 5
206
  8
2DLINES_1
 10
35.11250
 20
5.00000
 42
1.0
  0
SEQEND
  8
2DLINES_1
  0
POLYLINE
 5
207
  8
2DLINES_1
 66
1
 70
1
 40
0.125000
 41
0.125000
  0
VERTEX
 5
208
  8
2DLINES_1
 10
34.98750
 20
5.20000
 42
1.0
  0
VERTEX
 5
209
  8
2DLINES_1
 10
35.11250
 20
5.20000
 42
1.0
  0
SEQEND
  8
2DLINES_1
  0
POLYLINE
 5
20A
  8
2DLINES_1
 66
1
 40
0.250000
 41
0.250000
  0
VERTEX
 5
20B
  8
2DLINES_1
 10
9.90000
 20
10.70000
  0
VERTEX
 5
20C
  8
2DLINES_1
 10
12.10000
 20
10.70000
  0
SEQEND
  8
2DLINES_1
  0
POLYLINE
 5
20D
  8
2DLINES_1
 66
1
 70
1
 40
0.125000
 41
0.125000
  0
VERTEX
 5
20E
  8
2DLINES_1
 10
9.83750
 20
10.70000
 42
1.0
  0
VERTEX
 5
20F
  8
2DLINES_1
 10
9.96250
 20
10.70000
 42
1.0
  0
SEQEND
  8
2DLINES_1
  0
POLYLINE
 5
210
  8
2DLINES_1
 66
1
 70
1
 40
0.125000
 41
0.125000
  0
VERTEX
 5
211
  8
2DLINES_1
 10
12.03750
 20
10.70000
 42
1.0
  0
VERTEX
 5
212
  8
2DLINES_1
 10
12.16250
 20
10.70000
 42
1.0
  0
SEQEND
  8
2DLINES_1
  0
POLYLINE
 5
213
  8
2DLINES_1
 66
1
 40
0.250000
 41
0.250000
  0
VERTEX
 5
214
  8
2DLINES_1
 10
9.90000
 20
10.50000
  0
VERTEX
 5
215
  8
2DLINES_1
 10
12.10000
 20
10.50000
  0
SEQEND
  8
2DLINES_1
  0
POLYLINE
 5
216
  8
2DLINES_1
 66
1
 70
1
 40
0.125000
 41
0.125000
  0
VERTEX
 5
217
  8
2DLINES_1
 10
9.83750
 20
10.50000
 42
1.0
  0
VERTEX
 5
218
  8
2DLINES_1
 10
9.96250
 20
10.50000
 42
1.0
  0
SEQEND
  8
2DLINES_1
  0
POLYLINE
 5
219
  8
2DLINES_1
 66
1
 70
1
 40
0.125000
 41
0.125000
  0
VERTEX
 5
21A
  8
2DLINES_1
 10
12.03750
 20
10.50000
 42
1.0
  0
VERTEX
 5
21B
  8
2DLINES_1
 10
12.16250
 20
10.50000
 42
1.0
  0
SEQEND
  8
2DLINES_1
  0
POLYLINE
 5
21C
  8
2DLINES_1
 66
1
 40
0.250000
 41
0.250000
  0
VERTEX
 5
21D
  8
2DLINES_1
 10
10.00000
 20
10.30000
  0
VERTEX
 5
21E
  8
2DLINES_1
 10
12.00000
 20
10.30000
  0
SEQEND
  8
2DLINES_1
  0
POLYLINE
 5
21F
  8
2DLINES_1
 66
1
 70
1
 40
0.125000
 41
0.125000
  0
VERTEX
 5
220
  8
2DLINES_1
 10
9.93750
 20
10.30000
 42
1.0
  0
VERTEX
 5
221
  8
2DLINES_1
 10
10.06250
 20
10.30000
 42
1.0
  0
SEQEND
  8
2DLINES_1
  0
POLYLINE
 5
222
  8
2DLINES_1
 66
1
 70
1
 40
0.125000
 41
0.125000
  0
VERTEX
 5
223
  8
2DLINES_1
 10
11.93750
 20
10.30000
 42
1.0
  0
VERTEX
 5
224
  8
2DLINES_1
 10
12.06250
 20
10.30000
 42
1.0
  0
SEQEND
  8
2DLINES_1
  0
POLYLINE
 5
225
  8
2DLINES_1
 66
1
 40
0.250000
 41
0.250000
  0
VERTEX
 5
226
  8
2DLINES_1
 10
10.10000
 20
10.10000
  0
VERTEX
 5
227
  8
2DLINES_1
 10
11.90000
 20
10.10000
  0
SEQEND
  8
2DLINES_1
  0
POLYLINE
 5
228
  8
2DLINES_1
 66
1
 70
1
 40
0.125000
 41
0.125000
  0
VERTEX
 5
229
  8
2DLINES_1
 10
10.03750
 20
10.10000
 42
1.0
  0
VERTEX
 5
22A
  8
2DLINES_1
 10
10.16250
 20
10.10000
 42
1.0
  0
SEQEND
  8
2DLINES_1
  0
POLYLINE
 5
22B
  8
2DLINES_1
 66
1
 70
1
 40
0.125000
 41
0.125000
  0
VERTEX
 5
22C
  8
2DLINES_1
 10
11.83750
 20
10.10000
 42
1.0
  0
VERTEX
 5
22D
  8
2DLINES_1
 10
11.96250
 20
10.10000
 42
1.0
  0
SEQEND
  8
2DLINES_1
  0
POLYLINE
 5
22E
  8
2DLINES_1
 66
1
 40
0.250000
 41
0.250000
  0
VERTEX
 5
22F
  8
2DLINES_1
 10
10.10000
 20
9.90000
  0
VERTEX
 5
230
  8
2DLINES_1
 10
11.90000
 20
9.90000
  0
SEQEND
  8
2DLINES_1
  0
POLYLINE
 5
231
  8
2DLINES_1
 66
1
 70
1
 40
0.125000
 41
0.125000
  0
VERTEX
 5
232
  8
2DLINES_1
 10
10.03750
 20
9.90000
 42
1.0
  0
VERTEX
 5
233
  8
2DLINES_1
 10
10.16250
 20
9.90000
 42
1.0
  0
SEQEND
  8
2DLINES_1
  0
POLYLINE
 5
234
  8
2DLINES_1
 66
1
 70
1
 40
0.125000
 41
0.125000
  0
VERTEX
 5
235
  8
2DLINES_1
 10
11.83750
 20
9.90000
 42
1.0
  0
VERTEX
 5
236
  8
2DLINES_1
 10
11.96250
 20
9.90000
 42
1.0
  0
SEQEND
  8
2DLINES_1
  0
POLYLINE
 5
237
  8
2DLINES_1
 66
1
 40
0.250000
 41
0.250000
  0
VERTEX
 5
238
  8
2DLINES_1
 10
10.20000
 20
9.70000
  0
VERTEX
 5
239
  8
2DLINES_1
 10
11.80000
 20
9.70000
  0
SEQEND
  8
2DLINES_1
  0
POLYLINE
 5
23A
  8
2DLINES_1
 66
1
 70
1
 40
0.125000
 41
0.125000
  0
VERTEX
 5
23B
  8
2DLINES_1
 10
10.13750
 20
9.70000
 42
1.0
  0
VERTEX
 5
23C
  8
2DLINES_1
 10
10.26250
 20
9.70000
 42
1.0
  0
SEQEND
  8
2DLINES_1
  0
POLYLINE
 5
23D
  8
2DLINES_1
 66
1
 70
1
 40
0.125000
 41
0.125000
  0
VERTEX
 5
23E
  8
2DLINES_1
 10
11.73750
 20
9.70000
 42
1.0
  0
VERTEX
 5
23F
  8
2DLINES_1
 10
11.86250
 20
9.70000
 42
1.0
  0
SEQEND
  8
2DLINES_1
  0
POLYLINE
 5
240
  8
2DLINES_1
 66
1
 40
0.250000
 41
0.250000
  0
VERTEX
 5
241
  8
2DLINES_1
 10
10.30000
 20
9.50000
  0
VERTEX
 5
242
  8
2DLINES_1
 10
11.70000
 20
9.50000
  0
SEQEND
  8
2DLINES_1
  0
POLYLINE
 5
243
  8
2DLINES_1
 66
1
 70
1
 40
0.125000
 41
0.125000
  0
VERTEX
 5
244
  8
2DLINES_1
 10
10.23750
 20
9.50000
 42
1.0
  0
VERTEX
 5
245
  8
2DLINES_1
 10
10.36250
 20
9.50000
 42
1.0
  0
SEQEND
  8
2DLINES_1
  0
POLYLINE
 5
246
  8
2DLINES_1
 66
1
 70
1
 40
0.125000
 41
0.125000
  0
VERTEX
 5
247
  8
2DLINES_1
 10
11.63750
 20
9.50000
 42
1.0
  0
VERTEX
 5
248
  8
2DLINES_1
 10
11.76250
 20
9.50000
 42
1.0
  0
SEQEND
  8
2DLINES_1
  0
POLYLINE
 5
249
  8
2DLINES_1
 66
1
 40
0.250000
 41
0.250000
  0
VERTEX
 5
24A
  8
2DLINES_1
 10
10.40000
 20
9.30000
  0
VERTEX
 5
24B
  8
2DLINES_1
 10
11.60000
 20
9.30000
  0
SEQEND
  8
2DLINES_1
  0
POLYLINE
 5
24C
  8
2DLINES_1
 66
1
 70
1
 40
0.125000
 41
0.125000
  0
VERTEX
 5
24D
  8
2DLINES_1
 10
10.33750
 20
9.30000
 42
1.0
  0
VERTEX
 5
24E
  8
2DLINES_1
 10
10.46250
 20
9.30000
 42
1.0
  0
SEQEND
  8
2DLINES_1
  0
POLYLINE
 5
24F
  8
2DLINES_1
 66
1
 70
1
 40
0.125000
 41
0.125000
  0
VERTEX
 5
250
  8
2DLINES_1
 10
11.53750
 20
9.30000
 42
1.0
  0
VERTEX
 5
251
  8
2DLINES_1
 10
11.66250
 20
9.30000
 42
1.0
  0
SEQEND
  8
2DLINES_1
  0
POLYLINE
 5
252
  8
2DLINES_1
 66
1
 40
0.250000
 41
0.250000
  0
VERTEX
 5
253
  8
2DLINES_1
 10
10.40000
 20
9.10000
  0
VERTEX
 5
254
  8
2DLINES_1
 10
11.50000
 20
9.10000
  0
SEQEND
  8
2DLINES_1
  0
POLYLINE
 5
255
  8
2DLINES_1
 66
1
 70
1
 40
0.125000
 41
0.125000
  0
VERTEX
 5
256
  8
2DLINES_1
 10
10.33750
 20
9.10000
 42
1.0
  0
VERTEX
 5
257
  8
2DLINES_1
 10
10.46250
 20
9.10000
 42
1.0
  0
SEQEND
  8
2DLINES_1
  0
POLYLINE
 5
258
  8
2DLINES_1
 66
1
 70
1
 40
0.125000
 41
0.125000
  0
VERTEX
 5
259
  8
2DLINES_1
 10
11.43750
 20
9.10000
 42
1.0
  0
VERTEX
 5
25A
  8
2DLINES_1
 10
11.56250
 20
9.10000
 42
1.0
  0
SEQEND
  8
2DLINES_1
  0
POLYLINE
 5
25B
  8
2DLINES_1
 66
1
 40
0.250000
 41
0.250000
  0
VERTEX
 5
25C
  8
2DLINES_1
 10
10.50000
 20
8.90000
  0
VERTEX
 5
25D
  8
2DLINES_1
 10
11.40000
 20
8.90000
  0
SEQEND
  8
2DLINES_1
  0
POLYLINE
 5
25E
  8
2DLINES_1
 66
1
 70
1
 40
0.125000
 41
0.125000
  0
VERTEX
 5
25F
  8
2DLINES_1
 10
10.43750
 20
8.90000
 42
1.0
  0
VERTEX
 5
260
  8
2DLINES_1
 10
10.56250
 20
8.90000
 42
1.0
  0
SEQEND
  8
2DLINES_1
  0
POLYLINE
 5
261
  8
2DLINES_1
 66
1
 70
1
 40
0.125000
 41
0.125000
  0
VERTEX
 5
262
  8
2DLINES_1
 10
11.33750
 20
8.90000
 42
1.0
  0
VERTEX
 5
263
  8
2DLINES_1
 10
11.46250
 20
8.90000
 42
1.0
  0
SEQEND
  8
2DLINES_1
  0
POLYLINE
 5
264
  8
2DLINES_1
 66
1
 40
0.250000
 41
0.250000
  0
VERTEX
 5
265
  8
2DLINES_1
 10
10.50000
 20
8.70000
  0
VERTEX
 5
266
  8
2DLINES_1
 10
11.40000
 20
8.70000
  0
SEQEND
  8
2DLINES_1
  0
POLYLINE
 5
267
  8
2DLINES_1
 66
1
 70
1
 40
0.125000
 41
0.125000
  0
VERTEX
 5
268
  8
2DLINES_1
 10
10.43750
 20
8.70000
 42
1.0
  0
VERTEX
 5
269
  8
2DLINES_1
 10
10.56250
 20
8.70000
 42
1.0
  0
SEQEND
  8
2DLINES_1
  0
POLYLINE
 5
26A
  8
2DLINES_1
 66
1
 70
1
 40
0.125000
 41
0.125000
  0
VERTEX
 5
26B
  8
2DLINES_1
 10
11.33750
 20
8.70000
 42
1.0
  0
VERTEX
 5
26C
  8
2DLINES_1
 10
11.46250
 20
8.70000
 42
1.0
  0
SEQEND
  8
2DLINES_1
  0
POLYLINE
 5
26D
  8
2DLINES_1
 66
1
 40
0.250000
 41
0.250000
  0
VERTEX
 5
26E
  8
2DLINES_1
 10
10.60000
 20
8.50000
  0
VERTEX
 5
26F
  8
2DLINES_1
 10
11.30000
 20
8.50000
  0
SEQEND
  8
2DLINES_1
  0
POLYLINE
 5
270
  8
2DLINES_1
 66
1
 70
1
 40
0.125000
 41
0.125000
  0
VERTEX
 5
271
  8
2DLINES_1
 10
10.53750
 20
8.50000
 42
1.0
  0
VERTEX
 5
272
  8
2DLINES_1
 10
10.66250
 20
8.50000
 42
1.0
  0
SEQEND
  8
2DLINES_1
  0
POLYLINE
 5
273
  8
2DLINES_1
 66
1
 70
1
 40
0.125000
 41
0.125000
  0
VERTEX
 5
274
  8
2DLINES_1
 10
11.23750
 20
8.50000
 42
1.0
  0
VERTEX
 5
275
  8
2DLINES_1
 10
11.36250
 20
8.50000
 42
1.0
  0
SEQEND
  8
2DLINES_1
  0
POLYLINE
 5
276
  8
2DLINES_1
 66
1
 40
0.250000
 41
0.250000
  0
VERTEX
 5
277
  8
2DLINES_1
 10
10.60000
 20
8.30000
  0
VERTEX
 5
278
  8
2DLINES_1
 10
11.30000
 20
8.30000
  0
SEQEND
  8
2DLINES_1
  0
POLYLINE
 5
279
  8
2DLINES_1
 66
1
 70
1
 40
0.125000
 41
0.125000
  0
VERTEX
 5
27A
  8
2DLINES_1
 10
10.53750
 20
8.30000
 42
1.0
  0
VERTEX
 5
27B
  8
2DLINES_1
 10
10.66250
 20
8.30000
 42
1.0
  0
SEQEND
  8
2DLINES_1
  0
POLYLINE
 5
27C
  8
2DLINES_1
 66
1
 70
1
 40
0.125000
 41
0.125000
  0
VERTEX
 5
27D
  8
2DLINES_1
 10
11.23750
 20
8.30000
 42
1.0
  0
VERTEX
 5
27E
  8
2DLINES_1
 10
11.36250
 20
8.30000
 42
1.0
  0
SEQEND
  8
2DLINES_1
  0
POLYLINE
 5
27F
  8
2DLINES_1
 66
1
 40
0.250000
 41
0.250000
  0
VERTEX
 5
280
  8
2DLINES_1
 10
10.70000
 20
8.10000
  0
VERTEX
 5
281
  8
2DLINES_1
 10
11.20000
 20
8.10000
  0
SEQEND
  8
2DLINES_1
  0
POLYLINE
 5
282
  8
2DLINES_1
 66
1
 70
1
 40
0.125000
 41
0.125000
  0
VERTEX
 5
283
  8
2DLINES_1
 10
10.63750
 20
8.10000
 42
1.0
  0
VERTEX
 5
284
  8
2DLINES_1
 10
10.76250
 20
8.10000
 42
1.0
  0
SEQEND
  8
2DLINES_1
  0
POLYLINE
 5
285
  8
2DLINES_1
 66
1
 70
1
 40
0.125000
 41
0.125000
  0
VERTEX
 5
286
  8
2DLINES_1
 10
11.13750
 20
8.10000
 42
1.0
  0
VERTEX
 5
287
  8
2DLINES_1
 10
11.26250
 20
8.10000
 42
1.0
  0
SEQEND
  8
2DLINES_1
  0
POLYLINE
 5
288
  8
2DLINES_1
 66
1
 40
0.250000
 41
0.250000
  0
VERTEX
 5
289
  8
2DLINES_1
 10
10.80000
 20
7.90000
  0
VERTEX
 5
28A
  8
2DLINES_1
 10
11.10000
 20
7.90000
  0
SEQEND
  8
2DLINES_1
  0
POLYLINE
 5
28B
  8
2DLINES_1
 66
1
 70
1
 40
0.125000
 41
0.125000
  0
VERTEX
 5
28C
  8
2DLINES_1
 10
10.73750
 20
7.90000
 42
1.0
  0
VERTEX
 5
28D
  8
2DLINES_1
 10
10.86250
 20
7.90000
 42
1.0
  0
SEQEND
  8
2DLINES_1
  0
POLYLINE
 5
28E
  8
2DLINES_1
 66
1
 70
1
 40
0.125000
 41
0.125000
  0
VERTEX
 5
28F
  8
2DLINES_1
 10
11.03750
 20
7.90000
 42
1.0
  0
VERTEX
 5
290
  8
2DLINES_1
 10
11.16250
 20
7.90000
 42
1.0
  0
SEQEND
  8
2DLINES_1
  0
POLYLINE
 5
291
  8
2DLINES_1
 66
1
 40
0.250000
 41
0.250000
  0
VERTEX
 5
292
  8
2DLINES_1
 10
10.80000
 20
7.70000
  0
VERTEX
 5
293
  8
2DLINES_1
 10
11.10000
 20
7.70000
  0
SEQEND
  8
2DLINES_1
  0
POLYLINE
 5
294
  8
2DLINES_1
 66
1
 70
1
 40
0.125000
 41
0.125000
  0
VERTEX
 5
295
  8
2DLINES_1
 10
10.73750
 20
7.70000
 42
1.0
  0
VERTEX
 5
296
  8
2DLINES_1
 10
10.86250
 20
7.70000
 42
1.0
  0
SEQEND
  8
2DLINES_1
  0
POLYLINE
 5
297
  8
2DLINES_1
 66
1
 70
1
 40
0.125000
 41
0.125000
  0
VERTEX
 5
298
  8
2DLINES_1
 10
11.03750
 20
7.70000
 42
1.0
  0
VERTEX
 5
299
  8
2DLINES_1
 10
11.16250
 20
7.70000
 42
1.0
  0
SEQEND
  8
2DLINES_1
  0
TEXT
  8
TEXT_1
 10
10.25000
 20
30.00000
 40
1.071435
  1
+VIN
 73
 1
 11
10.25000
 21
30.00000
  0
TEXT
  8
TEXT_1
 10
10.25000
 20
19.00000
 40
1.071435
  1
-VIN
 73
 1
 11
10.25000
 21
19.00000
  0
TEXT
  8
TEXT_1
 10
108.75000
 20
46.75000
 40
1.071435
  1
+5V
 73
 1
 11
108.75000
 21
46.75000
  0
TEXT
  8
TEXT_1
 10
116.75000
 20
46.75000
 40
1.071435
  1
GND
 73
 1
 11
116.75000
 21
46.75000
  0
TEXT
  8
TEXT_1
 10
13.25000
 20
9.10000
 40
1.785725
  1
WOOJIN
 73
 1
 11
13.25000
 21
9.10000
  0
TEXT
  8
TEXT_1
 10
13.25000
 20
6.60000
 40
1.785725
  1
CCP-POWER1 A0
 73
 1
 11
13.25000
 21
6.60000
  0
POLYLINE
 5
29A
  8
COMP_OUTLINE_TOP
 66
1
 40
0.500000
 41
0.500000
  0
VERTEX
 5
29B
  8
COMP_OUTLINE_TOP
 10
50.15001
 20
10.40000
  0
VERTEX
 5
29C
  8
COMP_OUTLINE_TOP
 10
77.85001
 20
10.40000
  0
SEQEND
  8
COMP_OUTLINE_TOP
  0
POLYLINE
 5
29D
  8
COMP_OUTLINE_TOP
 66
1
 70
1
 40
0.250000
 41
0.250000
  0
VERTEX
 5
29E
  8
COMP_OUTLINE_TOP
 10
50.02501
 20
10.40000
 42
1.0
  0
VERTEX
 5
29F
  8
COMP_OUTLINE_TOP
 10
50.27501
 20
10.40000
 42
1.0
  0
SEQEND
  8
COMP_OUTLINE_TOP
  0
POLYLINE
 5
2A0
  8
COMP_OUTLINE_TOP
 66
1
 70
1
 40
0.250000
 41
0.250000
  0
VERTEX
 5
2A1
  8
COMP_OUTLINE_TOP
 10
77.72501
 20
10.40000
 42
1.0
  0
VERTEX
 5
2A2
  8
COMP_OUTLINE_TOP
 10
77.97501
 20
10.40000
 42
1.0
  0
SEQEND
  8
COMP_OUTLINE_TOP
  0
POLYLINE
 5
2A3
  8
COMP_OUTLINE_TOP
 66
1
 40
0.500000
 41
0.500000
  0
VERTEX
 5
2A4
  8
COMP_OUTLINE_TOP
 10
77.85001
 20
10.40000
  0
VERTEX
 5
2A5
  8
COMP_OUTLINE_TOP
 10
77.84999
 20
48.60000
  0
SEQEND
  8
COMP_OUTLINE_TOP
  0
POLYLINE
 5
2A6
  8
COMP_OUTLINE_TOP
 66
1
 70
1
 40
0.250000
 41
0.250000
  0
VERTEX
 5
2A7
  8
COMP_OUTLINE_TOP
 10
77.72501
 20
10.40000
 42
1.0
  0
VERTEX
 5
2A8
  8
COMP_OUTLINE_TOP
 10
77.97501
 20
10.40000
 42
1.0
  0
SEQEND
  8
COMP_OUTLINE_TOP
  0
POLYLINE
 5
2A9
  8
COMP_OUTLINE_TOP
 66
1
 70
1
 40
0.250000
 41
0.250000
  0
VERTEX
 5
2AA
  8
COMP_OUTLINE_TOP
 10
77.72499
 20
48.60000
 42
1.0
  0
VERTEX
 5
2AB
  8
COMP_OUTLINE_TOP
 10
77.97499
 20
48.60000
 42
1.0
  0
SEQEND
  8
COMP_OUTLINE_TOP
  0
POLYLINE
 5
2AC
  8
COMP_OUTLINE_TOP
 66
1
 40
0.500000
 41
0.500000
  0
VERTEX
 5
2AD
  8
COMP_OUTLINE_TOP
 10
77.84999
 20
48.60000
  0
VERTEX
 5
2AE
  8
COMP_OUTLINE_TOP
 10
50.14999
 20
48.60000
  0
SEQEND
  8
COMP_OUTLINE_TOP
  0
POLYLINE
 5
2AF
  8
COMP_OUTLINE_TOP
 66
1
 70
1
 40
0.250000
 41
0.250000
  0
VERTEX
 5
2B0
  8
COMP_OUTLINE_TOP
 10
77.72499
 20
48.60000
 42
1.0
  0
VERTEX
 5
2B1
  8
COMP_OUTLINE_TOP
 10
77.97499
 20
48.60000
 42
1.0
  0
SEQEND
  8
COMP_OUTLINE_TOP
  0
POLYLINE
 5
2B2
  8
COMP_OUTLINE_TOP
 66
1
 70
1
 40
0.250000
 41
0.250000
  0
VERTEX
 5
2B3
  8
COMP_OUTLINE_TOP
 10
50.02499
 20
48.60000
 42
1.0
  0
VERTEX
 5
2B4
  8
COMP_OUTLINE_TOP
 10
50.27499
 20
48.60000
 42
1.0
  0
SEQEND
  8
COMP_OUTLINE_TOP
  0
POLYLINE
 5
2B5
  8
COMP_OUTLINE_TOP
 66
1
 40
0.500000
 41
0.500000
  0
VERTEX
 5
2B6
  8
COMP_OUTLINE_TOP
 10
50.14999
 20
48.60000
  0
VERTEX
 5
2B7
  8
COMP_OUTLINE_TOP
 10
50.15001
 20
10.40000
  0
SEQEND
  8
COMP_OUTLINE_TOP
  0
POLYLINE
 5
2B8
  8
COMP_OUTLINE_TOP
 66
1
 70
1
 40
0.250000
 41
0.250000
  0
VERTEX
 5
2B9
  8
COMP_OUTLINE_TOP
 10
50.02499
 20
48.60000
 42
1.0
  0
VERTEX
 5
2BA
  8
COMP_OUTLINE_TOP
 10
50.27499
 20
48.60000
 42
1.0
  0
SEQEND
  8
COMP_OUTLINE_TOP
  0
POLYLINE
 5
2BB
  8
COMP_OUTLINE_TOP
 66
1
 70
1
 40
0.250000
 41
0.250000
  0
VERTEX
 5
2BC
  8
COMP_OUTLINE_TOP
 10
50.02501
 20
10.40000
 42
1.0
  0
VERTEX
 5
2BD
  8
COMP_OUTLINE_TOP
 10
50.27501
 20
10.40000
 42
1.0
  0
SEQEND
  8
COMP_OUTLINE_TOP
  0
POLYLINE
 5
2BE
  8
COMP_OUTLINE_TOP
 66
1
 40
0.500000
 41
0.500000
  0
VERTEX
 5
2BF
  8
COMP_OUTLINE_TOP
 10
77.30001
 20
10.40000
  0
VERTEX
 5
2C0
  8
COMP_OUTLINE_TOP
 10
50.70001
 20
10.40000
  0
SEQEND
  8
COMP_OUTLINE_TOP
  0
POLYLINE
 5
2C1
  8
COMP_OUTLINE_TOP
 66
1
 70
1
 40
0.250000
 41
0.250000
  0
VERTEX
 5
2C2
  8
COMP_OUTLINE_TOP
 10
77.17501
 20
10.40000
 42
1.0
  0
VERTEX
 5
2C3
  8
COMP_OUTLINE_TOP
 10
77.42501
 20
10.40000
 42
1.0
  0
SEQEND
  8
COMP_OUTLINE_TOP
  0
POLYLINE
 5
2C4
  8
COMP_OUTLINE_TOP
 66
1
 70
1
 40
0.250000
 41
0.250000
  0
VERTEX
 5
2C5
  8
COMP_OUTLINE_TOP
 10
50.57501
 20
10.40000
 42
1.0
  0
VERTEX
 5
2C6
  8
COMP_OUTLINE_TOP
 10
50.82501
 20
10.40000
 42
1.0
  0
SEQEND
  8
COMP_OUTLINE_TOP
  0
POLYLINE
 5
2C7
  8
COMP_OUTLINE_TOP
 66
1
 40
0.500000
 41
0.500000
  0
VERTEX
 5
2C8
  8
COMP_OUTLINE_TOP
 10
50.70001
 20
10.40000
  0
VERTEX
 5
2C9
  8
COMP_OUTLINE_TOP
 10
50.70001
 20
6.20000
  0
SEQEND
  8
COMP_OUTLINE_TOP
  0
POLYLINE
 5
2CA
  8
COMP_OUTLINE_TOP
 66
1
 70
1
 40
0.250000
 41
0.250000
  0
VERTEX
 5
2CB
  8
COMP_OUTLINE_TOP
 10
50.57501
 20
10.40000
 42
1.0
  0
VERTEX
 5
2CC
  8
COMP_OUTLINE_TOP
 10
50.82501
 20
10.40000
 42
1.0
  0
SEQEND
  8
COMP_OUTLINE_TOP
  0
POLYLINE
 5
2CD
  8
COMP_OUTLINE_TOP
 66
1
 70
1
 40
0.250000
 41
0.250000
  0
VERTEX
 5
2CE
  8
COMP_OUTLINE_TOP
 10
50.57501
 20
6.20000
 42
1.0
  0
VERTEX
 5
2CF
  8
COMP_OUTLINE_TOP
 10
50.82501
 20
6.20000
 42
1.0
  0
SEQEND
  8
COMP_OUTLINE_TOP
  0
POLYLINE
 5
2D0
  8
COMP_OUTLINE_TOP
 66
1
 40
0.500000
 41
0.500000
  0
VERTEX
 5
2D1
  8
COMP_OUTLINE_TOP
 10
50.70001
 20
6.20000
  0
VERTEX
 5
2D2
  8
COMP_OUTLINE_TOP
 10
51.70001
 20
5.20000
  0
SEQEND
  8
COMP_OUTLINE_TOP
  0
POLYLINE
 5
2D3
  8
COMP_OUTLINE_TOP
 66
1
 70
1
 40
0.250000
 41
0.250000
  0
VERTEX
 5
2D4
  8
COMP_OUTLINE_TOP
 10
50.57501
 20
6.20000
 42
1.0
  0
VERTEX
 5
2D5
  8
COMP_OUTLINE_TOP
 10
50.82501
 20
6.20000
 42
1.0
  0
SEQEND
  8
COMP_OUTLINE_TOP
  0
POLYLINE
 5
2D6
  8
COMP_OUTLINE_TOP
 66
1
 70
1
 40
0.250000
 41
0.250000
  0
VERTEX
 5
2D7
  8
COMP_OUTLINE_TOP
 10
51.57501
 20
5.20000
 42
1.0
  0
VERTEX
 5
2D8
  8
COMP_OUTLINE_TOP
 10
51.82501
 20
5.20000
 42
1.0
  0
SEQEND
  8
COMP_OUTLINE_TOP
  0
POLYLINE
 5
2D9
  8
COMP_OUTLINE_TOP
 66
1
 40
0.500000
 41
0.500000
  0
VERTEX
 5
2DA
  8
COMP_OUTLINE_TOP
 10
51.70001
 20
5.20000
  0
VERTEX
 5
2DB
  8
COMP_OUTLINE_TOP
 10
76.30001
 20
5.20000
  0
SEQEND
  8
COMP_OUTLINE_TOP
  0
POLYLINE
 5
2DC
  8
COMP_OUTLINE_TOP
 66
1
 70
1
 40
0.250000
 41
0.250000
  0
VERTEX
 5
2DD
  8
COMP_OUTLINE_TOP
 10
51.57501
 20
5.20000
 42
1.0
  0
VERTEX
 5
2DE
  8
COMP_OUTLINE_TOP
 10
51.82501
 20
5.20000
 42
1.0
  0
SEQEND
  8
COMP_OUTLINE_TOP
  0
POLYLINE
 5
2DF
  8
COMP_OUTLINE_TOP
 66
1
 70
1
 40
0.250000
 41
0.250000
  0
VERTEX
 5
2E0
  8
COMP_OUTLINE_TOP
 10
76.17501
 20
5.20000
 42
1.0
  0
VERTEX
 5
2E1
  8
COMP_OUTLINE_TOP
 10
76.42501
 20
5.20000
 42
1.0
  0
SEQEND
  8
COMP_OUTLINE_TOP
  0
POLYLINE
 5
2E2
  8
COMP_OUTLINE_TOP
 66
1
 40
0.500000
 41
0.500000
  0
VERTEX
 5
2E3
  8
COMP_OUTLINE_TOP
 10
76.30001
 20
5.20000
  0
VERTEX
 5
2E4
  8
COMP_OUTLINE_TOP
 10
77.30001
 20
6.20001
  0
SEQEND
  8
COMP_OUTLINE_TOP
  0
POLYLINE
 5
2E5
  8
COMP_OUTLINE_TOP
 66
1
 70
1
 40
0.250000
 41
0.250000
  0
VERTEX
 5
2E6
  8
COMP_OUTLINE_TOP
 10
76.17501
 20
5.20000
 42
1.0
  0
VERTEX
 5
2E7
  8
COMP_OUTLINE_TOP
 10
76.42501
 20
5.20000
 42
1.0
  0
SEQEND
  8
COMP_OUTLINE_TOP
  0
POLYLINE
 5
2E8
  8
COMP_OUTLINE_TOP
 66
1
 70
1
 40
0.250000
 41
0.250000
  0
VERTEX
 5
2E9
  8
COMP_OUTLINE_TOP
 10
77.17501
 20
6.20001
 42
1.0
  0
VERTEX
 5
2EA
  8
COMP_OUTLINE_TOP
 10
77.42501
 20
6.20001
 42
1.0
  0
SEQEND
  8
COMP_OUTLINE_TOP
  0
POLYLINE
 5
2EB
  8
COMP_OUTLINE_TOP
 66
1
 40
0.500000
 41
0.500000
  0
VERTEX
 5
2EC
  8
COMP_OUTLINE_TOP
 10
77.30001
 20
6.20001
  0
VERTEX
 5
2ED
  8
COMP_OUTLINE_TOP
 10
77.30001
 20
10.40000
  0
SEQEND
  8
COMP_OUTLINE_TOP
  0
POLYLINE
 5
2EE
  8
COMP_OUTLINE_TOP
 66
1
 70
1
 40
0.250000
 41
0.250000
  0
VERTEX
 5
2EF
  8
COMP_OUTLINE_TOP
 10
77.17501
 20
6.20001
 42
1.0
  0
VERTEX
 5
2F0
  8
COMP_OUTLINE_TOP
 10
77.42501
 20
6.20001
 42
1.0
  0
SEQEND
  8
COMP_OUTLINE_TOP
  0
POLYLINE
 5
2F1
  8
COMP_OUTLINE_TOP
 66
1
 70
1
 40
0.250000
 41
0.250000
  0
VERTEX
 5
2F2
  8
COMP_OUTLINE_TOP
 10
77.17501
 20
10.40000
 42
1.0
  0
VERTEX
 5
2F3
  8
COMP_OUTLINE_TOP
 10
77.42501
 20
10.40000
 42
1.0
  0
SEQEND
  8
COMP_OUTLINE_TOP
  0
POLYLINE
 5
2F4
  8
COMP_OUTLINE_TOP
 66
1
 40
0.500000
 41
0.500000
  0
VERTEX
 5
2F5
  8
COMP_OUTLINE_TOP
 10
50.69999
 20
48.60000
  0
VERTEX
 5
2F6
  8
COMP_OUTLINE_TOP
 10
77.29999
 20
48.60000
  0
SEQEND
  8
COMP_OUTLINE_TOP
  0
POLYLINE
 5
2F7
  8
COMP_OUTLINE_TOP
 66
1
 70
1
 40
0.250000
 41
0.250000
  0
VERTEX
 5
2F8
  8
COMP_OUTLINE_TOP
 10
50.57499
 20
48.60000
 42
1.0
  0
VERTEX
 5
2F9
  8
COMP_OUTLINE_TOP
 10
50.82499
 20
48.60000
 42
1.0
  0
SEQEND
  8
COMP_OUTLINE_TOP
  0
POLYLINE
 5
2FA
  8
COMP_OUTLINE_TOP
 66
1
 70
1
 40
0.250000
 41
0.250000
  0
VERTEX
 5
2FB
  8
COMP_OUTLINE_TOP
 10
77.17499
 20
48.60000
 42
1.0
  0
VERTEX
 5
2FC
  8
COMP_OUTLINE_TOP
 10
77.42499
 20
48.60000
 42
1.0
  0
SEQEND
  8
COMP_OUTLINE_TOP
  0
POLYLINE
 5
2FD
  8
COMP_OUTLINE_TOP
 66
1
 40
0.500000
 41
0.500000
  0
VERTEX
 5
2FE
  8
COMP_OUTLINE_TOP
 10
77.29999
 20
48.60000
  0
VERTEX
 5
2FF
  8
COMP_OUTLINE_TOP
 10
77.29999
 20
52.80000
  0
SEQEND
  8
COMP_OUTLINE_TOP
  0
POLYLINE
 5
300
  8
COMP_OUTLINE_TOP
 66
1
 70
1
 40
0.250000
 41
0.250000
  0
VERTEX
 5
301
  8
COMP_OUTLINE_TOP
 10
77.17499
 20
48.60000
 42
1.0
  0
VERTEX
 5
302
  8
COMP_OUTLINE_TOP
 10
77.42499
 20
48.60000
 42
1.0
  0
SEQEND
  8
COMP_OUTLINE_TOP
  0
POLYLINE
 5
303
  8
COMP_OUTLINE_TOP
 66
1
 70
1
 40
0.250000
 41
0.250000
  0
VERTEX
 5
304
  8
COMP_OUTLINE_TOP
 10
77.17499
 20
52.80000
 42
1.0
  0
VERTEX
 5
305
  8
COMP_OUTLINE_TOP
 10
77.42499
 20
52.80000
 42
1.0
  0
SEQEND
  8
COMP_OUTLINE_TOP
  0
POLYLINE
 5
306
  8
COMP_OUTLINE_TOP
 66
1
 40
0.500000
 41
0.500000
  0
VERTEX
 5
307
  8
COMP_OUTLINE_TOP
 10
77.29999
 20
52.80000
  0
VERTEX
 5
308
  8
COMP_OUTLINE_TOP
 10
76.29999
 20
53.80000
  0
SEQEND
  8
COMP_OUTLINE_TOP
  0
POLYLINE
 5
309
  8
COMP_OUTLINE_TOP
 66
1
 70
1
 40
0.250000
 41
0.250000
  0
VERTEX
 5
30A
  8
COMP_OUTLINE_TOP
 10
77.17499
 20
52.80000
 42
1.0
  0
VERTEX
 5
30B
  8
COMP_OUTLINE_TOP
 10
77.42499
 20
52.80000
 42
1.0
  0
SEQEND
  8
COMP_OUTLINE_TOP
  0
POLYLINE
 5
30C
  8
COMP_OUTLINE_TOP
 66
1
 70
1
 40
0.250000
 41
0.250000
  0
VERTEX
 5
30D
  8
COMP_OUTLINE_TOP
 10
76.17499
 20
53.80000
 42
1.0
  0
VERTEX
 5
30E
  8
COMP_OUTLINE_TOP
 10
76.42499
 20
53.80000
 42
1.0
  0
SEQEND
  8
COMP_OUTLINE_TOP
  0
POLYLINE
 5
30F
  8
COMP_OUTLINE_TOP
 66
1
 40
0.500000
 41
0.500000
  0
VERTEX
 5
310
  8
COMP_OUTLINE_TOP
 10
76.29999
 20
53.80000
  0
VERTEX
 5
311
  8
COMP_OUTLINE_TOP
 10
51.69999
 20
53.80000
  0
SEQEND
  8
COMP_OUTLINE_TOP
  0
POLYLINE
 5
312
  8
COMP_OUTLINE_TOP
 66
1
 70
1
 40
0.250000
 41
0.250000
  0
VERTEX
 5
313
  8
COMP_OUTLINE_TOP
 10
76.17499
 20
53.80000
 42
1.0
  0
VERTEX
 5
314
  8
COMP_OUTLINE_TOP
 10
76.42499
 20
53.80000
 42
1.0
  0
SEQEND
  8
COMP_OUTLINE_TOP
  0
POLYLINE
 5
315
  8
COMP_OUTLINE_TOP
 66
1
 70
1
 40
0.250000
 41
0.250000
  0
VERTEX
 5
316
  8
COMP_OUTLINE_TOP
 10
51.57499
 20
53.80000
 42
1.0
  0
VERTEX
 5
317
  8
COMP_OUTLINE_TOP
 10
51.82499
 20
53.80000
 42
1.0
  0
SEQEND
  8
COMP_OUTLINE_TOP
  0
POLYLINE
 5
318
  8
COMP_OUTLINE_TOP
 66
1
 40
0.500000
 41
0.500000
  0
VERTEX
 5
319
  8
COMP_OUTLINE_TOP
 10
51.69999
 20
53.80000
  0
VERTEX
 5
31A
  8
COMP_OUTLINE_TOP
 10
50.69999
 20
52.79999
  0
SEQEND
  8
COMP_OUTLINE_TOP
  0
POLYLINE
 5
31B
  8
COMP_OUTLINE_TOP
 66
1
 70
1
 40
0.250000
 41
0.250000
  0
VERTEX
 5
31C
  8
COMP_OUTLINE_TOP
 10
51.57499
 20
53.80000
 42
1.0
  0
VERTEX
 5
31D
  8
COMP_OUTLINE_TOP
 10
51.82499
 20
53.80000
 42
1.0
  0
SEQEND
  8
COMP_OUTLINE_TOP
  0
POLYLINE
 5
31E
  8
COMP_OUTLINE_TOP
 66
1
 70
1
 40
0.250000
 41
0.250000
  0
VERTEX
 5
31F
  8
COMP_OUTLINE_TOP
 10
50.57499
 20
52.79999
 42
1.0
  0
VERTEX
 5
320
  8
COMP_OUTLINE_TOP
 10
50.82499
 20
52.79999
 42
1.0
  0
SEQEND
  8
COMP_OUTLINE_TOP
  0
POLYLINE
 5
321
  8
COMP_OUTLINE_TOP
 66
1
 40
0.500000
 41
0.500000
  0
VERTEX
 5
322
  8
COMP_OUTLINE_TOP
 10
50.69999
 20
52.79999
  0
VERTEX
 5
323
  8
COMP_OUTLINE_TOP
 10
50.69999
 20
48.60000
  0
SEQEND
  8
COMP_OUTLINE_TOP
  0
POLYLINE
 5
324
  8
COMP_OUTLINE_TOP
 66
1
 70
1
 40
0.250000
 41
0.250000
  0
VERTEX
 5
325
  8
COMP_OUTLINE_TOP
 10
50.57499
 20
52.79999
 42
1.0
  0
VERTEX
 5
326
  8
COMP_OUTLINE_TOP
 10
50.82499
 20
52.79999
 42
1.0
  0
SEQEND
  8
COMP_OUTLINE_TOP
  0
POLYLINE
 5
327
  8
COMP_OUTLINE_TOP
 66
1
 70
1
 40
0.250000
 41
0.250000
  0
VERTEX
 5
328
  8
COMP_OUTLINE_TOP
 10
50.57499
 20
48.60000
 42
1.0
  0
VERTEX
 5
329
  8
COMP_OUTLINE_TOP
 10
50.82499
 20
48.60000
 42
1.0
  0
SEQEND
  8
COMP_OUTLINE_TOP
  0
POLYLINE
 5
32A
  8
COMP_OUTLINE_TOP
 66
1
 40
0.500000
 41
0.500000
  0
VERTEX
 5
32B
  8
COMP_OUTLINE_TOP
 10
51.24999
 20
45.50000
 42
0.432480
  0
VERTEX
 5
32C
  8
COMP_OUTLINE_TOP
 10
53.25361
 20
47.38317
 42
0.015491
  0
SEQEND
  8
COMP_OUTLINE_TOP
  0
POLYLINE
 5
32D
  8
COMP_OUTLINE_TOP
 66
1
 70
1
 40
0.250000
 41
0.250000
  0
VERTEX
 5
32E
  8
COMP_OUTLINE_TOP
 10
51.12499
 20
45.50000
 42
1.0
  0
VERTEX
 5
32F
  8
COMP_OUTLINE_TOP
 10
51.37499
 20
45.50000
 42
1.0
  0
SEQEND
  8
COMP_OUTLINE_TOP
  0
POLYLINE
 5
330
  8
COMP_OUTLINE_TOP
 66
1
 70
1
 40
0.250000
 41
0.250000
  0
VERTEX
 5
331
  8
COMP_OUTLINE_TOP
 10
53.12861
 20
47.38317
 42
1.0
  0
VERTEX
 5
332
  8
COMP_OUTLINE_TOP
 10
53.37861
 20
47.38317
 42
1.0
  0
SEQEND
  8
COMP_OUTLINE_TOP
  0
POLYLINE
 5
333
  8
COMP_OUTLINE_TOP
 66
1
 40
0.500000
 41
0.500000
  0
VERTEX
 5
334
  8
COMP_OUTLINE_TOP
 10
53.25361
 20
47.38317
 42
0.015491
  0
VERTEX
 5
335
  8
COMP_OUTLINE_TOP
 10
53.24999
 20
47.50000
  0
SEQEND
  8
COMP_OUTLINE_TOP
  0
POLYLINE
 5
336
  8
COMP_OUTLINE_TOP
 66
1
 70
1
 40
0.250000
 41
0.250000
  0
VERTEX
 5
337
  8
COMP_OUTLINE_TOP
 10
53.12861
 20
47.38317
 42
1.0
  0
VERTEX
 5
338
  8
COMP_OUTLINE_TOP
 10
53.37861
 20
47.38317
 42
1.0
  0
SEQEND
  8
COMP_OUTLINE_TOP
  0
POLYLINE
 5
339
  8
COMP_OUTLINE_TOP
 66
1
 70
1
 40
0.250000
 41
0.250000
  0
VERTEX
 5
33A
  8
COMP_OUTLINE_TOP
 10
53.12499
 20
47.50000
 42
1.0
  0
VERTEX
 5
33B
  8
COMP_OUTLINE_TOP
 10
53.37499
 20
47.50000
 42
1.0
  0
SEQEND
  8
COMP_OUTLINE_TOP
  0
POLYLINE
 5
33C
  8
COMP_OUTLINE_TOP
 66
1
 40
0.500000
 41
0.500000
  0
VERTEX
 5
33D
  8
COMP_OUTLINE_TOP
 10
53.24999
 20
47.50000
  0
VERTEX
 5
33E
  8
COMP_OUTLINE_TOP
 10
74.75000
 20
47.50000
 42
0.010472
  0
SEQEND
  8
COMP_OUTLINE_TOP
  0
POLYLINE
 5
33F
  8
COMP_OUTLINE_TOP
 66
1
 70
1
 40
0.250000
 41
0.250000
  0
VERTEX
 5
340
  8
COMP_OUTLINE_TOP
 10
53.12499
 20
47.50000
 42
1.0
  0
VERTEX
 5
341
  8
COMP_OUTLINE_TOP
 10
53.37499
 20
47.50000
 42
1.0
  0
SEQEND
  8
COMP_OUTLINE_TOP
  0
POLYLINE
 5
342
  8
COMP_OUTLINE_TOP
 66
1
 70
1
 40
0.250000
 41
0.250000
  0
VERTEX
 5
343
  8
COMP_OUTLINE_TOP
 10
74.62500
 20
47.50000
 42
1.0
  0
VERTEX
 5
344
  8
COMP_OUTLINE_TOP
 10
74.87500
 20
47.50000
 42
1.0
  0
SEQEND
  8
COMP_OUTLINE_TOP
  0
POLYLINE
 5
345
  8
COMP_OUTLINE_TOP
 66
1
 40
0.500000
 41
0.500000
  0
VERTEX
 5
346
  8
COMP_OUTLINE_TOP
 10
74.75000
 20
47.50000
 42
0.010472
  0
VERTEX
 5
347
  8
COMP_OUTLINE_TOP
 10
74.74831
 20
47.41955
 42
0.426536
  0
SEQEND
  8
COMP_OUTLINE_TOP
  0
POLYLINE
 5
348
  8
COMP_OUTLINE_TOP
 66
1
 70
1
 40
0.250000
 41
0.250000
  0
VERTEX
 5
349
  8
COMP_OUTLINE_TOP
 10
74.62500
 20
47.50000
 42
1.0
  0
VERTEX
 5
34A
  8
COMP_OUTLINE_TOP
 10
74.87500
 20
47.50000
 42
1.0
  0
SEQEND
  8
COMP_OUTLINE_TOP
  0
POLYLINE
 5
34B
  8
COMP_OUTLINE_TOP
 66
1
 70
1
 40
0.250000
 41
0.250000
  0
VERTEX
 5
34C
  8
COMP_OUTLINE_TOP
 10
74.62331
 20
47.41955
 42
1.0
  0
VERTEX
 5
34D
  8
COMP_OUTLINE_TOP
 10
74.87331
 20
47.41955
 42
1.0
  0
SEQEND
  8
COMP_OUTLINE_TOP
  0
POLYLINE
 5
34E
  8
COMP_OUTLINE_TOP
 66
1
 40
0.500000
 41
0.500000
  0
VERTEX
 5
34F
  8
COMP_OUTLINE_TOP
 10
74.74831
 20
47.41955
 42
0.426536
  0
VERTEX
 5
350
  8
COMP_OUTLINE_TOP
 10
76.74999
 20
45.50000
  0
SEQEND
  8
COMP_OUTLINE_TOP
  0
POLYLINE
 5
351
  8
COMP_OUTLINE_TOP
 66
1
 70
1
 40
0.250000
 41
0.250000
  0
VERTEX
 5
352
  8
COMP_OUTLINE_TOP
 10
74.62331
 20
47.41955
 42
1.0
  0
VERTEX
 5
353
  8
COMP_OUTLINE_TOP
 10
74.87331
 20
47.41955
 42
1.0
  0
SEQEND
  8
COMP_OUTLINE_TOP
  0
POLYLINE
 5
354
  8
COMP_OUTLINE_TOP
 66
1
 70
1
 40
0.250000
 41
0.250000
  0
VERTEX
 5
355
  8
COMP_OUTLINE_TOP
 10
76.62499
 20
45.50000
 42
1.0
  0
VERTEX
 5
356
  8
COMP_OUTLINE_TOP
 10
76.87499
 20
45.50000
 42
1.0
  0
SEQEND
  8
COMP_OUTLINE_TOP
  0
POLYLINE
 5
357
  8
COMP_OUTLINE_TOP
 66
1
 40
0.500000
 41
0.500000
  0
VERTEX
 5
358
  8
COMP_OUTLINE_TOP
 10
76.74999
 20
45.50000
  0
VERTEX
 5
359
  8
COMP_OUTLINE_TOP
 10
76.75001
 20
13.50000
 42
0.420362
  0
SEQEND
  8
COMP_OUTLINE_TOP
  0
POLYLINE
 5
35A
  8
COMP_OUTLINE_TOP
 66
1
 70
1
 40
0.250000
 41
0.250000
  0
VERTEX
 5
35B
  8
COMP_OUTLINE_TOP
 10
76.62499
 20
45.50000
 42
1.0
  0
VERTEX
 5
35C
  8
COMP_OUTLINE_TOP
 10
76.87499
 20
45.50000
 42
1.0
  0
SEQEND
  8
COMP_OUTLINE_TOP
  0
POLYLINE
 5
35D
  8
COMP_OUTLINE_TOP
 66
1
 70
1
 40
0.250000
 41
0.250000
  0
VERTEX
 5
35E
  8
COMP_OUTLINE_TOP
 10
76.62501
 20
13.50000
 42
1.0
  0
VERTEX
 5
35F
  8
COMP_OUTLINE_TOP
 10
76.87501
 20
13.50000
 42
1.0
  0
SEQEND
  8
COMP_OUTLINE_TOP
  0
POLYLINE
 5
360
  8
COMP_OUTLINE_TOP
 66
1
 40
0.500000
 41
0.500000
  0
VERTEX
 5
361
  8
COMP_OUTLINE_TOP
 10
76.75001
 20
13.50000
 42
0.420362
  0
VERTEX
 5
362
  8
COMP_OUTLINE_TOP
 10
74.74958
 20
11.54104
  0
SEQEND
  8
COMP_OUTLINE_TOP
  0
POLYLINE
 5
363
  8
COMP_OUTLINE_TOP
 66
1
 70
1
 40
0.250000
 41
0.250000
  0
VERTEX
 5
364
  8
COMP_OUTLINE_TOP
 10
76.62501
 20
13.50000
 42
1.0
  0
VERTEX
 5
365
  8
COMP_OUTLINE_TOP
 10
76.87501
 20
13.50000
 42
1.0
  0
SEQEND
  8
COMP_OUTLINE_TOP
  0
POLYLINE
 5
366
  8
COMP_OUTLINE_TOP
 66
1
 70
1
 40
0.250000
 41
0.250000
  0
VERTEX
 5
367
  8
COMP_OUTLINE_TOP
 10
74.62458
 20
11.54104
 42
1.0
  0
VERTEX
 5
368
  8
COMP_OUTLINE_TOP
 10
74.87458
 20
11.54104
 42
1.0
  0
SEQEND
  8
COMP_OUTLINE_TOP
  0
POLYLINE
 5
369
  8
COMP_OUTLINE_TOP
 66
1
 40
0.500000
 41
0.500000
  0
VERTEX
 5
36A
  8
COMP_OUTLINE_TOP
 10
74.74958
 20
11.54104
  0
VERTEX
 5
36B
  8
COMP_OUTLINE_TOP
 10
74.75001
 20
11.50000
  0
SEQEND
  8
COMP_OUTLINE_TOP
  0
POLYLINE
 5
36C
  8
COMP_OUTLINE_TOP
 66
1
 70
1
 40
0.250000
 41
0.250000
  0
VERTEX
 5
36D
  8
COMP_OUTLINE_TOP
 10
74.62458
 20
11.54104
 42
1.0
  0
VERTEX
 5
36E
  8
COMP_OUTLINE_TOP
 10
74.87458
 20
11.54104
 42
1.0
  0
SEQEND
  8
COMP_OUTLINE_TOP
  0
POLYLINE
 5
36F
  8
COMP_OUTLINE_TOP
 66
1
 70
1
 40
0.250000
 41
0.250000
  0
VERTEX
 5
370
  8
COMP_OUTLINE_TOP
 10
74.62501
 20
11.50000
 42
1.0
  0
VERTEX
 5
371
  8
COMP_OUTLINE_TOP
 10
74.87501
 20
11.50000
 42
1.0
  0
SEQEND
  8
COMP_OUTLINE_TOP
  0
POLYLINE
 5
372
  8
COMP_OUTLINE_TOP
 66
1
 40
0.500000
 41
0.500000
  0
VERTEX
 5
373
  8
COMP_OUTLINE_TOP
 10
74.75001
 20
11.50000
  0
VERTEX
 5
374
  8
COMP_OUTLINE_TOP
 10
53.25000
 20
11.50000
 42
0.010472
  0
SEQEND
  8
COMP_OUTLINE_TOP
  0
POLYLINE
 5
375
  8
COMP_OUTLINE_TOP
 66
1
 70
1
 40
0.250000
 41
0.250000
  0
VERTEX
 5
376
  8
COMP_OUTLINE_TOP
 10
74.62501
 20
11.50000
 42
1.0
  0
VERTEX
 5
377
  8
COMP_OUTLINE_TOP
 10
74.87501
 20
11.50000
 42
1.0
  0
SEQEND
  8
COMP_OUTLINE_TOP
  0
POLYLINE
 5
378
  8
COMP_OUTLINE_TOP
 66
1
 70
1
 40
0.250000
 41
0.250000
  0
VERTEX
 5
379
  8
COMP_OUTLINE_TOP
 10
53.12500
 20
11.50000
 42
1.0
  0
VERTEX
 5
37A
  8
COMP_OUTLINE_TOP
 10
53.37500
 20
11.50000
 42
1.0
  0
SEQEND
  8
COMP_OUTLINE_TOP
  0
POLYLINE
 5
37B
  8
COMP_OUTLINE_TOP
 66
1
 40
0.500000
 41
0.500000
  0
VERTEX
 5
37C
  8
COMP_OUTLINE_TOP
 10
53.25000
 20
11.50000
 42
0.010472
  0
VERTEX
 5
37D
  8
COMP_OUTLINE_TOP
 10
53.25169
 20
11.58045
 42
0.426536
  0
SEQEND
  8
COMP_OUTLINE_TOP
  0
POLYLINE
 5
37E
  8
COMP_OUTLINE_TOP
 66
1
 70
1
 40
0.250000
 41
0.250000
  0
VERTEX
 5
37F
  8
COMP_OUTLINE_TOP
 10
53.12500
 20
11.50000
 42
1.0
  0
VERTEX
 5
380
  8
COMP_OUTLINE_TOP
 10
53.37500
 20
11.50000
 42
1.0
  0
SEQEND
  8
COMP_OUTLINE_TOP
  0
POLYLINE
 5
381
  8
COMP_OUTLINE_TOP
 66
1
 70
1
 40
0.250000
 41
0.250000
  0
VERTEX
 5
382
  8
COMP_OUTLINE_TOP
 10
53.12669
 20
11.58045
 42
1.0
  0
VERTEX
 5
383
  8
COMP_OUTLINE_TOP
 10
53.37669
 20
11.58045
 42
1.0
  0
SEQEND
  8
COMP_OUTLINE_TOP
  0
POLYLINE
 5
384
  8
COMP_OUTLINE_TOP
 66
1
 40
0.500000
 41
0.500000
  0
VERTEX
 5
385
  8
COMP_OUTLINE_TOP
 10
53.25169
 20
11.58045
 42
0.426536
  0
VERTEX
 5
386
  8
COMP_OUTLINE_TOP
 10
51.25001
 20
13.50000
  0
SEQEND
  8
COMP_OUTLINE_TOP
  0
POLYLINE
 5
387
  8
COMP_OUTLINE_TOP
 66
1
 70
1
 40
0.250000
 41
0.250000
  0
VERTEX
 5
388
  8
COMP_OUTLINE_TOP
 10
53.12669
 20
11.58045
 42
1.0
  0
VERTEX
 5
389
  8
COMP_OUTLINE_TOP
 10
53.37669
 20
11.58045
 42
1.0
  0
SEQEND
  8
COMP_OUTLINE_TOP
  0
POLYLINE
 5
38A
  8
COMP_OUTLINE_TOP
 66
1
 70
1
 40
0.250000
 41
0.250000
  0
VERTEX
 5
38B
  8
COMP_OUTLINE_TOP
 10
51.12501
 20
13.50000
 42
1.0
  0
VERTEX
 5
38C
  8
COMP_OUTLINE_TOP
 10
51.37501
 20
13.50000
 42
1.0
  0
SEQEND
  8
COMP_OUTLINE_TOP
  0
POLYLINE
 5
38D
  8
COMP_OUTLINE_TOP
 66
1
 40
0.500000
 41
0.500000
  0
VERTEX
 5
38E
  8
COMP_OUTLINE_TOP
 10
51.25001
 20
13.50000
  0
VERTEX
 5
38F
  8
COMP_OUTLINE_TOP
 10
51.24999
 20
45.50000
  0
SEQEND
  8
COMP_OUTLINE_TOP
  0
POLYLINE
 5
390
  8
COMP_OUTLINE_TOP
 66
1
 70
1
 40
0.250000
 41
0.250000
  0
VERTEX
 5
391
  8
COMP_OUTLINE_TOP
 10
51.12501
 20
13.50000
 42
1.0
  0
VERTEX
 5
392
  8
COMP_OUTLINE_TOP
 10
51.37501
 20
13.50000
 42
1.0
  0
SEQEND
  8
COMP_OUTLINE_TOP
  0
POLYLINE
 5
393
  8
COMP_OUTLINE_TOP
 66
1
 70
1
 40
0.250000
 41
0.250000
  0
VERTEX
 5
394
  8
COMP_OUTLINE_TOP
 10
51.12499
 20
45.50000
 42
1.0
  0
VERTEX
 5
395
  8
COMP_OUTLINE_TOP
 10
51.37499
 20
45.50000
 42
1.0
  0
SEQEND
  8
COMP_OUTLINE_TOP
  0
POLYLINE
 5
396
  8
PADLAYER_TOP
 66
1
 70
1
 40
2.000000
 41
2.000000
  0
VERTEX
 5
397
  8
PADLAYER_TOP
 10
69.37500
 20
42.87500
 42
1.0
  0
VERTEX
 5
398
  8
PADLAYER_TOP
 10
71.37500
 20
42.87500
 42
1.0
  0
SEQEND
  8
PADLAYER_TOP
  0
POLYLINE
 5
399
  8
PADLAYER_BOTTOM
 66
1
 70
1
 40
2.000000
 41
2.000000
  0
VERTEX
 5
39A
  8
PADLAYER_BOTTOM
 10
69.37500
 20
42.87500
 42
1.0
  0
VERTEX
 5
39B
  8
PADLAYER_BOTTOM
 10
71.37500
 20
42.87500
 42
1.0
  0
SEQEND
  8
PADLAYER_BOTTOM
  0
POLYLINE
 5
39C
  8
TOOL_TOP
 66
1
 40
0.500000
 41
0.500000
  0
VERTEX
 5
39D
  8
TOOL_TOP
 10
69.12500
 20
42.87500
 42
1.000000
  0
VERTEX
 5
39E
  8
TOOL_TOP
 10
71.62500
 20
42.87500
 42
1.000000
  0
VERTEX
 5
39F
  8
TOOL_TOP
 10
69.12500
 20
42.87500
  0
SEQEND
  8
TOOL_TOP
  0
TEXT
  8
TOOLCODE_TOP
 10
69.06250
 20
42.25000
 40
1.250000
  1
T00
  0
POLYLINE
 5
3A0
  8
PADLAYER_TOP
 66
1
 70
1
 40
3.000000
 41
3.000000
  0
VERTEX
 5
3A1
  8
PADLAYER_TOP
 10
62.49999
 20
51.77500
 42
1.0
  0
VERTEX
 5
3A2
  8
PADLAYER_TOP
 10
65.49999
 20
51.77500
 42
1.0
  0
SEQEND
  8
PADLAYER_TOP
  0
POLYLINE
 5
3A3
  8
PADLAYER_BOTTOM
 66
1
 70
1
 40
3.000000
 41
3.000000
  0
VERTEX
 5
3A4
  8
PADLAYER_BOTTOM
 10
62.49999
 20
51.77500
 42
1.0
  0
VERTEX
 5
3A5
  8
PADLAYER_BOTTOM
 10
65.49999
 20
51.77500
 42
1.0
  0
SEQEND
  8
PADLAYER_BOTTOM
  0
POLYLINE
 5
3A6
  8
TOOL_TOP
 66
1
 40
0.500000
 41
0.500000
  0
VERTEX
 5
3A7
  8
TOOL_TOP
 10
60.49999
 20
51.77500
 42
1.000000
  0
VERTEX
 5
3A8
  8
TOOL_TOP
 10
67.49999
 20
51.77500
 42
1.000000
  0
VERTEX
 5
3A9
  8
TOOL_TOP
 10
60.49999
 20
51.77500
  0
SEQEND
  8
TOOL_TOP
  0
TEXT
  8
TOOLCODE_TOP
 10
60.32499
 20
50.02500
 40
3.500000
  1
T00
  0
POLYLINE
 5
3AA
  8
PADLAYER_TOP
 66
1
 70
1
 40
2.000000
 41
2.000000
  0
VERTEX
 5
3AB
  8
PADLAYER_TOP
 10
69.37500
 20
39.17500
 42
1.0
  0
VERTEX
 5
3AC
  8
PADLAYER_TOP
 10
71.37500
 20
39.17500
 42
1.0
  0
SEQEND
  8
PADLAYER_TOP
  0
POLYLINE
 5
3AD
  8
PADLAYER_BOTTOM
 66
1
 70
1
 40
2.000000
 41
2.000000
  0
VERTEX
 5
3AE
  8
PADLAYER_BOTTOM
 10
69.37500
 20
39.17500
 42
1.0
  0
VERTEX
 5
3AF
  8
PADLAYER_BOTTOM
 10
71.37500
 20
39.17500
 42
1.0
  0
SEQEND
  8
PADLAYER_BOTTOM
  0
POLYLINE
 5
3B0
  8
TOOL_TOP
 66
1
 40
0.500000
 41
0.500000
  0
VERTEX
 5
3B1
  8
TOOL_TOP
 10
69.12500
 20
39.17500
 42
1.000000
  0
VERTEX
 5
3B2
  8
TOOL_TOP
 10
71.62500
 20
39.17500
 42
1.000000
  0
VERTEX
 5
3B3
  8
TOOL_TOP
 10
69.12500
 20
39.17500
  0
SEQEND
  8
TOOL_TOP
  0
TEXT
  8
TOOLCODE_TOP
 10
69.06250
 20
38.55000
 40
1.250000
  1
T00
  0
POLYLINE
 5
3B4
  8
PADLAYER_TOP
 66
1
 70
1
 40
2.000000
 41
2.000000
  0
VERTEX
 5
3B5
  8
PADLAYER_TOP
 10
69.37500
 20
32.87500
 42
1.0
  0
VERTEX
 5
3B6
  8
PADLAYER_TOP
 10
71.37500
 20
32.87500
 42
1.0
  0
SEQEND
  8
PADLAYER_TOP
  0
POLYLINE
 5
3B7
  8
PADLAYER_BOTTOM
 66
1
 70
1
 40
2.000000
 41
2.000000
  0
VERTEX
 5
3B8
  8
PADLAYER_BOTTOM
 10
69.37500
 20
32.87500
 42
1.0
  0
VERTEX
 5
3B9
  8
PADLAYER_BOTTOM
 10
71.37500
 20
32.87500
 42
1.0
  0
SEQEND
  8
PADLAYER_BOTTOM
  0
POLYLINE
 5
3BA
  8
TOOL_TOP
 66
1
 40
0.500000
 41
0.500000
  0
VERTEX
 5
3BB
  8
TOOL_TOP
 10
69.12500
 20
32.87500
 42
1.000000
  0
VERTEX
 5
3BC
  8
TOOL_TOP
 10
71.62500
 20
32.87500
 42
1.000000
  0
VERTEX
 5
3BD
  8
TOOL_TOP
 10
69.12500
 20
32.87500
  0
SEQEND
  8
TOOL_TOP
  0
TEXT
  8
TOOLCODE_TOP
 10
69.06250
 20
32.25000
 40
1.250000
  1
T00
  0
POLYLINE
 5
3BE
  8
PADLAYER_TOP
 66
1
 70
1
 40
2.000000
 41
2.000000
  0
VERTEX
 5
3BF
  8
PADLAYER_TOP
 10
69.37500
 20
29.17500
 42
1.0
  0
VERTEX
 5
3C0
  8
PADLAYER_TOP
 10
71.37500
 20
29.17500
 42
1.0
  0
SEQEND
  8
PADLAYER_TOP
  0
POLYLINE
 5
3C1
  8
PADLAYER_BOTTOM
 66
1
 70
1
 40
2.000000
 41
2.000000
  0
VERTEX
 5
3C2
  8
PADLAYER_BOTTOM
 10
69.37500
 20
29.17500
 42
1.0
  0
VERTEX
 5
3C3
  8
PADLAYER_BOTTOM
 10
71.37500
 20
29.17500
 42
1.0
  0
SEQEND
  8
PADLAYER_BOTTOM
  0
POLYLINE
 5
3C4
  8
TOOL_TOP
 66
1
 40
0.500000
 41
0.500000
  0
VERTEX
 5
3C5
  8
TOOL_TOP
 10
69.12500
 20
29.17500
 42
1.000000
  0
VERTEX
 5
3C6
  8
TOOL_TOP
 10
71.62500
 20
29.17500
 42
1.000000
  0
VERTEX
 5
3C7
  8
TOOL_TOP
 10
69.12500
 20
29.17500
  0
SEQEND
  8
TOOL_TOP
  0
TEXT
  8
TOOLCODE_TOP
 10
69.06250
 20
28.55000
 40
1.250000
  1
T00
  0
POLYLINE
 5
3C8
  8
PADLAYER_TOP
 66
1
 70
1
 40
0.750000
 41
0.750000
  0
VERTEX
 5
3C9
  8
PADLAYER_TOP
 10
70.00000
 20
24.52500
 42
1.0
  0
VERTEX
 5
3CA
  8
PADLAYER_TOP
 10
70.75000
 20
24.52500
 42
1.0
  0
SEQEND
  8
PADLAYER_TOP
  0
POLYLINE
 5
3CB
  8
PADLAYER_BOTTOM
 66
1
 70
1
 40
0.750000
 41
0.750000
  0
VERTEX
 5
3CC
  8
PADLAYER_BOTTOM
 10
70.00000
 20
24.52500
 42
1.0
  0
VERTEX
 5
3CD
  8
PADLAYER_BOTTOM
 10
70.75000
 20
24.52500
 42
1.0
  0
SEQEND
  8
PADLAYER_BOTTOM
  0
POLYLINE
 5
3CE
  8
TOOL_TOP
 66
1
 40
0.500000
 41
0.500000
  0
VERTEX
 5
3CF
  8
TOOL_TOP
 10
69.82500
 20
24.52500
 42
1.000000
  0
VERTEX
 5
3D0
  8
TOOL_TOP
 10
70.92500
 20
24.52500
 42
1.000000
  0
VERTEX
 5
3D1
  8
TOOL_TOP
 10
69.82500
 20
24.52500
  0
SEQEND
  8
TOOL_TOP
  0
TEXT
  8
TOOLCODE_TOP
 10
69.79750
 20
24.25000
 40
0.550000
  1
T00
  0
POLYLINE
 5
3D2
  8
PADLAYER_TOP
 66
1
 70
1
 40
0.750000
 41
0.750000
  0
VERTEX
 5
3D3
  8
PADLAYER_TOP
 10
70.00000
 20
22.52500
 42
1.0
  0
VERTEX
 5
3D4
  8
PADLAYER_TOP
 10
70.75000
 20
22.52500
 42
1.0
  0
SEQEND
  8
PADLAYER_TOP
  0
POLYLINE
 5
3D5
  8
PADLAYER_BOTTOM
 66
1
 70
1
 40
0.750000
 41
0.750000
  0
VERTEX
 5
3D6
  8
PADLAYER_BOTTOM
 10
70.00000
 20
22.52500
 42
1.0
  0
VERTEX
 5
3D7
  8
PADLAYER_BOTTOM
 10
70.75000
 20
22.52500
 42
1.0
  0
SEQEND
  8
PADLAYER_BOTTOM
  0
POLYLINE
 5
3D8
  8
TOOL_TOP
 66
1
 40
0.500000
 41
0.500000
  0
VERTEX
 5
3D9
  8
TOOL_TOP
 10
69.82500
 20
22.52500
 42
1.000000
  0
VERTEX
 5
3DA
  8
TOOL_TOP
 10
70.92500
 20
22.52500
 42
1.000000
  0
VERTEX
 5
3DB
  8
TOOL_TOP
 10
69.82500
 20
22.52500
  0
SEQEND
  8
TOOL_TOP
  0
TEXT
  8
TOOLCODE_TOP
 10
69.79750
 20
22.25000
 40
0.550000
  1
T00
  0
POLYLINE
 5
3DC
  8
PADLAYER_TOP
 66
1
 70
1
 40
0.750000
 41
0.750000
  0
VERTEX
 5
3DD
  8
PADLAYER_TOP
 10
70.00000
 20
20.52500
 42
1.0
  0
VERTEX
 5
3DE
  8
PADLAYER_TOP
 10
70.75000
 20
20.52500
 42
1.0
  0
SEQEND
  8
PADLAYER_TOP
  0
POLYLINE
 5
3DF
  8
PADLAYER_BOTTOM
 66
1
 70
1
 40
0.750000
 41
0.750000
  0
VERTEX
 5
3E0
  8
PADLAYER_BOTTOM
 10
70.00000
 20
20.52500
 42
1.0
  0
VERTEX
 5
3E1
  8
PADLAYER_BOTTOM
 10
70.75000
 20
20.52500
 42
1.0
  0
SEQEND
  8
PADLAYER_BOTTOM
  0
POLYLINE
 5
3E2
  8
TOOL_TOP
 66
1
 40
0.500000
 41
0.500000
  0
VERTEX
 5
3E3
  8
TOOL_TOP
 10
69.82500
 20
20.52500
 42
1.000000
  0
VERTEX
 5
3E4
  8
TOOL_TOP
 10
70.92500
 20
20.52500
 42
1.000000
  0
VERTEX
 5
3E5
  8
TOOL_TOP
 10
69.82500
 20
20.52500
  0
SEQEND
  8
TOOL_TOP
  0
TEXT
  8
TOOLCODE_TOP
 10
69.79750
 20
20.25000
 40
0.550000
  1
T00
  0
POLYLINE
 5
3E6
  8
PADLAYER_TOP
 66
1
 70
1
 40
0.750000
 41
0.750000
  0
VERTEX
 5
3E7
  8
PADLAYER_TOP
 10
70.00000
 20
18.52500
 42
1.0
  0
VERTEX
 5
3E8
  8
PADLAYER_TOP
 10
70.75000
 20
18.52500
 42
1.0
  0
SEQEND
  8
PADLAYER_TOP
  0
POLYLINE
 5
3E9
  8
PADLAYER_BOTTOM
 66
1
 70
1
 40
0.750000
 41
0.750000
  0
VERTEX
 5
3EA
  8
PADLAYER_BOTTOM
 10
70.00000
 20
18.52500
 42
1.0
  0
VERTEX
 5
3EB
  8
PADLAYER_BOTTOM
 10
70.75000
 20
18.52500
 42
1.0
  0
SEQEND
  8
PADLAYER_BOTTOM
  0
POLYLINE
 5
3EC
  8
TOOL_TOP
 66
1
 40
0.500000
 41
0.500000
  0
VERTEX
 5
3ED
  8
TOOL_TOP
 10
69.82500
 20
18.52500
 42
1.000000
  0
VERTEX
 5
3EE
  8
TOOL_TOP
 10
70.92500
 20
18.52500
 42
1.000000
  0
VERTEX
 5
3EF
  8
TOOL_TOP
 10
69.82500
 20
18.52500
  0
SEQEND
  8
TOOL_TOP
  0
TEXT
  8
TOOLCODE_TOP
 10
69.79750
 20
18.25000
 40
0.550000
  1
T00
  0
POLYLINE
 5
3F0
  8
PADLAYER_TOP
 66
1
 70
1
 40
0.750000
 41
0.750000
  0
VERTEX
 5
3F1
  8
PADLAYER_TOP
 10
70.00000
 20
16.52500
 42
1.0
  0
VERTEX
 5
3F2
  8
PADLAYER_TOP
 10
70.75000
 20
16.52500
 42
1.0
  0
SEQEND
  8
PADLAYER_TOP
  0
POLYLINE
 5
3F3
  8
PADLAYER_BOTTOM
 66
1
 70
1
 40
0.750000
 41
0.750000
  0
VERTEX
 5
3F4
  8
PADLAYER_BOTTOM
 10
70.00000
 20
16.52500
 42
1.0
  0
VERTEX
 5
3F5
  8
PADLAYER_BOTTOM
 10
70.75000
 20
16.52500
 42
1.0
  0
SEQEND
  8
PADLAYER_BOTTOM
  0
POLYLINE
 5
3F6
  8
TOOL_TOP
 66
1
 40
0.500000
 41
0.500000
  0
VERTEX
 5
3F7
  8
TOOL_TOP
 10
69.82500
 20
16.52500
 42
1.000000
  0
VERTEX
 5
3F8
  8
TOOL_TOP
 10
70.92500
 20
16.52500
 42
1.000000
  0
VERTEX
 5
3F9
  8
TOOL_TOP
 10
69.82500
 20
16.52500
  0
SEQEND
  8
TOOL_TOP
  0
TEXT
  8
TOOLCODE_TOP
 10
69.79750
 20
16.25000
 40
0.550000
  1
T00
  0
POLYLINE
 5
3FA
  8
PADLAYER_TOP
 66
1
 70
1
 40
0.750000
 41
0.750000
  0
VERTEX
 5
3FB
  8
PADLAYER_TOP
 10
70.00000
 20
14.52500
 42
1.0
  0
VERTEX
 5
3FC
  8
PADLAYER_TOP
 10
70.75000
 20
14.52500
 42
1.0
  0
SEQEND
  8
PADLAYER_TOP
  0
POLYLINE
 5
3FD
  8
PADLAYER_BOTTOM
 66
1
 70
1
 40
0.750000
 41
0.750000
  0
VERTEX
 5
3FE
  8
PADLAYER_BOTTOM
 10
70.00000
 20
14.52500
 42
1.0
  0
VERTEX
 5
3FF
  8
PADLAYER_BOTTOM
 10
70.75000
 20
14.52500
 42
1.0
  0
SEQEND
  8
PADLAYER_BOTTOM
  0
POLYLINE
 5
400
  8
TOOL_TOP
 66
1
 40
0.500000
 41
0.500000
  0
VERTEX
 5
401
  8
TOOL_TOP
 10
69.82500
 20
14.52500
 42
1.000000
  0
VERTEX
 5
402
  8
TOOL_TOP
 10
70.92500
 20
14.52500
 42
1.000000
  0
VERTEX
 5
403
  8
TOOL_TOP
 10
69.82500
 20
14.52500
  0
SEQEND
  8
TOOL_TOP
  0
TEXT
  8
TOOLCODE_TOP
 10
69.79750
 20
14.25000
 40
0.550000
  1
T00
  0
POLYLINE
 5
404
  8
PADLAYER_TOP
 66
1
 70
1
 40
2.000000
 41
2.000000
  0
VERTEX
 5
405
  8
PADLAYER_TOP
 10
56.62500
 20
42.87500
 42
1.0
  0
VERTEX
 5
406
  8
PADLAYER_TOP
 10
58.62500
 20
42.87500
 42
1.0
  0
SEQEND
  8
PADLAYER_TOP
  0
POLYLINE
 5
407
  8
PADLAYER_BOTTOM
 66
1
 70
1
 40
2.000000
 41
2.000000
  0
VERTEX
 5
408
  8
PADLAYER_BOTTOM
 10
56.62500
 20
42.87500
 42
1.0
  0
VERTEX
 5
409
  8
PADLAYER_BOTTOM
 10
58.62500
 20
42.87500
 42
1.0
  0
SEQEND
  8
PADLAYER_BOTTOM
  0
POLYLINE
 5
40A
  8
TOOL_TOP
 66
1
 40
0.500000
 41
0.500000
  0
VERTEX
 5
40B
  8
TOOL_TOP
 10
56.37500
 20
42.87500
 42
1.000000
  0
VERTEX
 5
40C
  8
TOOL_TOP
 10
58.87500
 20
42.87500
 42
1.000000
  0
VERTEX
 5
40D
  8
TOOL_TOP
 10
56.37500
 20
42.87500
  0
SEQEND
  8
TOOL_TOP
  0
TEXT
  8
TOOLCODE_TOP
 10
56.31250
 20
42.25000
 40
1.250000
  1
T00
  0
POLYLINE
 5
40E
  8
PADLAYER_TOP
 66
1
 70
1
 40
2.000000
 41
2.000000
  0
VERTEX
 5
40F
  8
PADLAYER_TOP
 10
56.62500
 20
39.17500
 42
1.0
  0
VERTEX
 5
410
  8
PADLAYER_TOP
 10
58.62500
 20
39.17500
 42
1.0
  0
SEQEND
  8
PADLAYER_TOP
  0
POLYLINE
 5
411
  8
PADLAYER_BOTTOM
 66
1
 70
1
 40
2.000000
 41
2.000000
  0
VERTEX
 5
412
  8
PADLAYER_BOTTOM
 10
56.62500
 20
39.17500
 42
1.0
  0
VERTEX
 5
413
  8
PADLAYER_BOTTOM
 10
58.62500
 20
39.17500
 42
1.0
  0
SEQEND
  8
PADLAYER_BOTTOM
  0
POLYLINE
 5
414
  8
TOOL_TOP
 66
1
 40
0.500000
 41
0.500000
  0
VERTEX
 5
415
  8
TOOL_TOP
 10
56.37500
 20
39.17500
 42
1.000000
  0
VERTEX
 5
416
  8
TOOL_TOP
 10
58.87500
 20
39.17500
 42
1.000000
  0
VERTEX
 5
417
  8
TOOL_TOP
 10
56.37500
 20
39.17500
  0
SEQEND
  8
TOOL_TOP
  0
TEXT
  8
TOOLCODE_TOP
 10
56.31250
 20
38.55000
 40
1.250000
  1
T00
  0
POLYLINE
 5
418
  8
PADLAYER_TOP
 66
1
 70
1
 40
2.000000
 41
2.000000
  0
VERTEX
 5
419
  8
PADLAYER_TOP
 10
56.62500
 20
32.87500
 42
1.0
  0
VERTEX
 5
41A
  8
PADLAYER_TOP
 10
58.62500
 20
32.87500
 42
1.0
  0
SEQEND
  8
PADLAYER_TOP
  0
POLYLINE
 5
41B
  8
PADLAYER_BOTTOM
 66
1
 70
1
 40
2.000000
 41
2.000000
  0
VERTEX
 5
41C
  8
PADLAYER_BOTTOM
 10
56.62500
 20
32.87500
 42
1.0
  0
VERTEX
 5
41D
  8
PADLAYER_BOTTOM
 10
58.62500
 20
32.87500
 42
1.0
  0
SEQEND
  8
PADLAYER_BOTTOM
  0
POLYLINE
 5
41E
  8
TOOL_TOP
 66
1
 40
0.500000
 41
0.500000
  0
VERTEX
 5
41F
  8
TOOL_TOP
 10
56.37500
 20
32.87500
 42
1.000000
  0
VERTEX
 5
420
  8
TOOL_TOP
 10
58.87500
 20
32.87500
 42
1.000000
  0
VERTEX
 5
421
  8
TOOL_TOP
 10
56.37500
 20
32.87500
  0
SEQEND
  8
TOOL_TOP
  0
TEXT
  8
TOOLCODE_TOP
 10
56.31250
 20
32.25000
 40
1.250000
  1
T00
  0
POLYLINE
 5
422
  8
PADLAYER_TOP
 66
1
 70
1
 40
2.000000
 41
2.000000
  0
VERTEX
 5
423
  8
PADLAYER_TOP
 10
56.62500
 20
29.17500
 42
1.0
  0
VERTEX
 5
424
  8
PADLAYER_TOP
 10
58.62500
 20
29.17500
 42
1.0
  0
SEQEND
  8
PADLAYER_TOP
  0
POLYLINE
 5
425
  8
PADLAYER_BOTTOM
 66
1
 70
1
 40
2.000000
 41
2.000000
  0
VERTEX
 5
426
  8
PADLAYER_BOTTOM
 10
56.62500
 20
29.17500
 42
1.0
  0
VERTEX
 5
427
  8
PADLAYER_BOTTOM
 10
58.62500
 20
29.17500
 42
1.0
  0
SEQEND
  8
PADLAYER_BOTTOM
  0
POLYLINE
 5
428
  8
TOOL_TOP
 66
1
 40
0.500000
 41
0.500000
  0
VERTEX
 5
429
  8
TOOL_TOP
 10
56.37500
 20
29.17500
 42
1.000000
  0
VERTEX
 5
42A
  8
TOOL_TOP
 10
58.87500
 20
29.17500
 42
1.000000
  0
VERTEX
 5
42B
  8
TOOL_TOP
 10
56.37500
 20
29.17500
  0
SEQEND
  8
TOOL_TOP
  0
TEXT
  8
TOOLCODE_TOP
 10
56.31250
 20
28.55000
 40
1.250000
  1
T00
  0
POLYLINE
 5
42C
  8
PADLAYER_TOP
 66
1
 70
1
 40
0.750000
 41
0.750000
  0
VERTEX
 5
42D
  8
PADLAYER_TOP
 10
57.25000
 20
24.52500
 42
1.0
  0
VERTEX
 5
42E
  8
PADLAYER_TOP
 10
58.00000
 20
24.52500
 42
1.0
  0
SEQEND
  8
PADLAYER_TOP
  0
POLYLINE
 5
42F
  8
PADLAYER_BOTTOM
 66
1
 70
1
 40
0.750000
 41
0.750000
  0
VERTEX
 5
430
  8
PADLAYER_BOTTOM
 10
57.25000
 20
24.52500
 42
1.0
  0
VERTEX
 5
431
  8
PADLAYER_BOTTOM
 10
58.00000
 20
24.52500
 42
1.0
  0
SEQEND
  8
PADLAYER_BOTTOM
  0
POLYLINE
 5
432
  8
TOOL_TOP
 66
1
 40
0.500000
 41
0.500000
  0
VERTEX
 5
433
  8
TOOL_TOP
 10
57.07500
 20
24.52500
 42
1.000000
  0
VERTEX
 5
434
  8
TOOL_TOP
 10
58.17500
 20
24.52500
 42
1.000000
  0
VERTEX
 5
435
  8
TOOL_TOP
 10
57.07500
 20
24.52500
  0
SEQEND
  8
TOOL_TOP
  0
TEXT
  8
TOOLCODE_TOP
 10
57.04750
 20
24.25000
 40
0.550000
  1
T00
  0
POLYLINE
 5
436
  8
PADLAYER_TOP
 66
1
 70
1
 40
0.750000
 41
0.750000
  0
VERTEX
 5
437
  8
PADLAYER_TOP
 10
57.25000
 20
22.52500
 42
1.0
  0
VERTEX
 5
438
  8
PADLAYER_TOP
 10
58.00000
 20
22.52500
 42
1.0
  0
SEQEND
  8
PADLAYER_TOP
  0
POLYLINE
 5
439
  8
PADLAYER_BOTTOM
 66
1
 70
1
 40
0.750000
 41
0.750000
  0
VERTEX
 5
43A
  8
PADLAYER_BOTTOM
 10
57.25000
 20
22.52500
 42
1.0
  0
VERTEX
 5
43B
  8
PADLAYER_BOTTOM
 10
58.00000
 20
22.52500
 42
1.0
  0
SEQEND
  8
PADLAYER_BOTTOM
  0
POLYLINE
 5
43C
  8
TOOL_TOP
 66
1
 40
0.500000
 41
0.500000
  0
VERTEX
 5
43D
  8
TOOL_TOP
 10
57.07500
 20
22.52500
 42
1.000000
  0
VERTEX
 5
43E
  8
TOOL_TOP
 10
58.17500
 20
22.52500
 42
1.000000
  0
VERTEX
 5
43F
  8
TOOL_TOP
 10
57.07500
 20
22.52500
  0
SEQEND
  8
TOOL_TOP
  0
TEXT
  8
TOOLCODE_TOP
 10
57.04750
 20
22.25000
 40
0.550000
  1
T00
  0
POLYLINE
 5
440
  8
PADLAYER_TOP
 66
1
 70
1
 40
0.750000
 41
0.750000
  0
VERTEX
 5
441
  8
PADLAYER_TOP
 10
57.25000
 20
20.52500
 42
1.0
  0
VERTEX
 5
442
  8
PADLAYER_TOP
 10
58.00000
 20
20.52500
 42
1.0
  0
SEQEND
  8
PADLAYER_TOP
  0
POLYLINE
 5
443
  8
PADLAYER_BOTTOM
 66
1
 70
1
 40
0.750000
 41
0.750000
  0
VERTEX
 5
444
  8
PADLAYER_BOTTOM
 10
57.25000
 20
20.52500
 42
1.0
  0
VERTEX
 5
445
  8
PADLAYER_BOTTOM
 10
58.00000
 20
20.52500
 42
1.0
  0
SEQEND
  8
PADLAYER_BOTTOM
  0
POLYLINE
 5
446
  8
TOOL_TOP
 66
1
 40
0.500000
 41
0.500000
  0
VERTEX
 5
447
  8
TOOL_TOP
 10
57.07500
 20
20.52500
 42
1.000000
  0
VERTEX
 5
448
  8
TOOL_TOP
 10
58.17500
 20
20.52500
 42
1.000000
  0
VERTEX
 5
449
  8
TOOL_TOP
 10
57.07500
 20
20.52500
  0
SEQEND
  8
TOOL_TOP
  0
TEXT
  8
TOOLCODE_TOP
 10
57.04750
 20
20.25000
 40
0.550000
  1
T00
  0
POLYLINE
 5
44A
  8
PADLAYER_TOP
 66
1
 70
1
 40
0.750000
 41
0.750000
  0
VERTEX
 5
44B
  8
PADLAYER_TOP
 10
57.25000
 20
18.52500
 42
1.0
  0
VERTEX
 5
44C
  8
PADLAYER_TOP
 10
58.00000
 20
18.52500
 42
1.0
  0
SEQEND
  8
PADLAYER_TOP
  0
POLYLINE
 5
44D
  8
PADLAYER_BOTTOM
 66
1
 70
1
 40
0.750000
 41
0.750000
  0
VERTEX
 5
44E
  8
PADLAYER_BOTTOM
 10
57.25000
 20
18.52500
 42
1.0
  0
VERTEX
 5
44F
  8
PADLAYER_BOTTOM
 10
58.00000
 20
18.52500
 42
1.0
  0
SEQEND
  8
PADLAYER_BOTTOM
  0
POLYLINE
 5
450
  8
TOOL_TOP
 66
1
 40
0.500000
 41
0.500000
  0
VERTEX
 5
451
  8
TOOL_TOP
 10
57.07500
 20
18.52500
 42
1.000000
  0
VERTEX
 5
452
  8
TOOL_TOP
 10
58.17500
 20
18.52500
 42
1.000000
  0
VERTEX
 5
453
  8
TOOL_TOP
 10
57.07500
 20
18.52500
  0
SEQEND
  8
TOOL_TOP
  0
TEXT
  8
TOOLCODE_TOP
 10
57.04750
 20
18.25000
 40
0.550000
  1
T00
  0
POLYLINE
 5
454
  8
PADLAYER_TOP
 66
1
 70
1
 40
0.750000
 41
0.750000
  0
VERTEX
 5
455
  8
PADLAYER_TOP
 10
57.25000
 20
16.52500
 42
1.0
  0
VERTEX
 5
456
  8
PADLAYER_TOP
 10
58.00000
 20
16.52500
 42
1.0
  0
SEQEND
  8
PADLAYER_TOP
  0
POLYLINE
 5
457
  8
PADLAYER_BOTTOM
 66
1
 70
1
 40
0.750000
 41
0.750000
  0
VERTEX
 5
458
  8
PADLAYER_BOTTOM
 10
57.25000
 20
16.52500
 42
1.0
  0
VERTEX
 5
459
  8
PADLAYER_BOTTOM
 10
58.00000
 20
16.52500
 42
1.0
  0
SEQEND
  8
PADLAYER_BOTTOM
  0
POLYLINE
 5
45A
  8
TOOL_TOP
 66
1
 40
0.500000
 41
0.500000
  0
VERTEX
 5
45B
  8
TOOL_TOP
 10
57.07500
 20
16.52500
 42
1.000000
  0
VERTEX
 5
45C
  8
TOOL_TOP
 10
58.17500
 20
16.52500
 42
1.000000
  0
VERTEX
 5
45D
  8
TOOL_TOP
 10
57.07500
 20
16.52500
  0
SEQEND
  8
TOOL_TOP
  0
TEXT
  8
TOOLCODE_TOP
 10
57.04750
 20
16.25000
 40
0.550000
  1
T00
  0
POLYLINE
 5
45E
  8
PADLAYER_TOP
 66
1
 70
1
 40
0.750000
 41
0.750000
  0
VERTEX
 5
45F
  8
PADLAYER_TOP
 10
57.25000
 20
14.52500
 42
1.0
  0
VERTEX
 5
460
  8
PADLAYER_TOP
 10
58.00000
 20
14.52500
 42
1.0
  0
SEQEND
  8
PADLAYER_TOP
  0
POLYLINE
 5
461
  8
PADLAYER_BOTTOM
 66
1
 70
1
 40
0.750000
 41
0.750000
  0
VERTEX
 5
462
  8
PADLAYER_BOTTOM
 10
57.25000
 20
14.52500
 42
1.0
  0
VERTEX
 5
463
  8
PADLAYER_BOTTOM
 10
58.00000
 20
14.52500
 42
1.0
  0
SEQEND
  8
PADLAYER_BOTTOM
  0
POLYLINE
 5
464
  8
TOOL_TOP
 66
1
 40
0.500000
 41
0.500000
  0
VERTEX
 5
465
  8
TOOL_TOP
 10
57.07500
 20
14.52500
 42
1.000000
  0
VERTEX
 5
466
  8
TOOL_TOP
 10
58.17500
 20
14.52500
 42
1.000000
  0
VERTEX
 5
467
  8
TOOL_TOP
 10
57.07500
 20
14.52500
  0
SEQEND
  8
TOOL_TOP
  0
TEXT
  8
TOOLCODE_TOP
 10
57.04750
 20
14.25000
 40
0.550000
  1
T00
  0
POLYLINE
 5
468
  8
PADLAYER_TOP
 66
1
 70
1
 40
3.000000
 41
3.000000
  0
VERTEX
 5
469
  8
PADLAYER_TOP
 10
62.50001
 20
7.22500
 42
1.0
  0
VERTEX
 5
46A
  8
PADLAYER_TOP
 10
65.50001
 20
7.22500
 42
1.0
  0
SEQEND
  8
PADLAYER_TOP
  0
POLYLINE
 5
46B
  8
PADLAYER_BOTTOM
 66
1
 70
1
 40
3.000000
 41
3.000000
  0
VERTEX
 5
46C
  8
PADLAYER_BOTTOM
 10
62.50001
 20
7.22500
 42
1.0
  0
VERTEX
 5
46D
  8
PADLAYER_BOTTOM
 10
65.50001
 20
7.22500
 42
1.0
  0
SEQEND
  8
PADLAYER_BOTTOM
  0
POLYLINE
 5
46E
  8
TOOL_TOP
 66
1
 40
0.500000
 41
0.500000
  0
VERTEX
 5
46F
  8
TOOL_TOP
 10
60.50001
 20
7.22500
 42
1.000000
  0
VERTEX
 5
470
  8
TOOL_TOP
 10
67.50001
 20
7.22500
 42
1.000000
  0
VERTEX
 5
471
  8
TOOL_TOP
 10
60.50001
 20
7.22500
  0
SEQEND
  8
TOOL_TOP
  0
TEXT
  8
TOOLCODE_TOP
 10
60.32501
 20
5.47500
 40
3.500000
  1
T00
  0
TEXT
  8
TEXT_ALL
 10
62.00000
 20
28.25000
 40
2.142869
  1
PRM
 73
 1
 11
62.00000
 21
28.25000
  50
0.000037
  0
TEXT
  8
TEXT_ALL
 10
72.00000
 20
30.50000
 40
1.428580
  1
+OUT
 73
 1
 11
72.00000
 21
30.50000
  50
0.000037
  0
TEXT
  8
TEXT_ALL
 10
72.00000
 20
40.50000
 40
1.428580
  1
-OUT
 73
 1
 11
72.00000
 21
40.50000
  50
0.000037
  0
TEXT
  8
TEXT_ALL
 10
72.25001
 20
13.75000
 40
1.428580
  1
VH
 73
 1
 11
72.25001
 21
13.75000
  50
0.000037
  0
TEXT
  8
TEXT_ALL
 10
72.25000
 20
15.75000
 40
1.428580
  1
SC
 73
 1
 11
72.25000
 21
15.75000
  50
0.000037
  0
TEXT
  8
TEXT_ALL
 10
72.25000
 20
17.75000
 40
1.428580
  1
SG
 73
 1
 11
72.25000
 21
17.75000
  50
0.000037
  0
TEXT
  8
TEXT_ALL
 10
72.25000
 20
19.75000
 40
1.428580
  1
OS
 73
 1
 11
72.25000
 21
19.75000
  50
0.000037
  0
TEXT
  8
TEXT_ALL
 10
72.25000
 20
21.75000
 40
1.428580
  1
NC
 73
 1
 11
72.25000
 21
21.75000
  50
0.000037
  0
TEXT
  8
TEXT_ALL
 10
72.25000
 20
23.75000
 40
1.428580
  1
CD
 73
 1
 11
72.25000
 21
23.75000
  50
0.000037
  0
TEXT
  8
TEXT_ALL
 10
53.50001
 20
13.75000
 40
1.428580
  1
VC
 73
 1
 11
53.50001
 21
13.75000
  50
0.000037
  0
TEXT
  8
TEXT_ALL
 10
53.50000
 20
15.75000
 40
1.428580
  1
PC
 73
 1
 11
53.50000
 21
15.75000
  50
0.000037
  0
TEXT
  8
TEXT_ALL
 10
53.50000
 20
17.75000
 40
1.428580
  1
TM
 73
 1
 11
53.50000
 21
17.75000
  50
0.000037
  0
TEXT
  8
TEXT_ALL
 10
53.50000
 20
19.75000
 40
1.428580
  1
IL
 73
 1
 11
53.50000
 21
19.75000
  50
0.000037
  0
TEXT
  8
TEXT_ALL
 10
53.50000
 20
21.75000
 40
1.428580
  1
NC
 73
 1
 11
53.50000
 21
21.75000
  50
0.000037
  0
TEXT
  8
TEXT_ALL
 10
53.50000
 20
23.75000
 40
1.428580
  1
PR
 73
 1
 11
53.50000
 21
23.75000
  50
0.000037
  0
TEXT
  8
TEXT_ALL
 10
52.75000
 20
30.25000
 40
1.428580
  1
+IN
 73
 1
 11
52.75000
 21
30.25000
  50
0.000037
  0
TEXT
  8
TEXT_ALL
 10
52.75000
 20
40.25000
 40
1.428580
  1
-IN
 73
 1
 11
52.75000
 21
40.25000
  50
0.000037
  0
TEXT
  8
TEXT_1
 10
59.74999
 20
45.50000
 40
1.428580
  1
VICOR-MD1
 73
 1
 11
59.74999
 21
45.50000
  50
0.000039
  0
POLYLINE
 5
472
  8
COMP_OUTLINE_TOP
 66
1
 40
0.500000
 41
0.500000
  0
VERTEX
 5
473
  8
COMP_OUTLINE_TOP
 10
80.15001
 20
10.40000
  0
VERTEX
 5
474
  8
COMP_OUTLINE_TOP
 10
107.85001
 20
10.40000
  0
SEQEND
  8
COMP_OUTLINE_TOP
  0
POLYLINE
 5
475
  8
COMP_OUTLINE_TOP
 66
1
 70
1
 40
0.250000
 41
0.250000
  0
VERTEX
 5
476
  8
COMP_OUTLINE_TOP
 10
80.02501
 20
10.40000
 42
1.0
  0
VERTEX
 5
477
  8
COMP_OUTLINE_TOP
 10
80.27501
 20
10.40000
 42
1.0
  0
SEQEND
  8
COMP_OUTLINE_TOP
  0
POLYLINE
 5
478
  8
COMP_OUTLINE_TOP
 66
1
 70
1
 40
0.250000
 41
0.250000
  0
VERTEX
 5
479
  8
COMP_OUTLINE_TOP
 10
107.72501
 20
10.40000
 42
1.0
  0
VERTEX
 5
47A
  8
COMP_OUTLINE_TOP
 10
107.97501
 20
10.40000
 42
1.0
  0
SEQEND
  8
COMP_OUTLINE_TOP
  0
POLYLINE
 5
47B
  8
COMP_OUTLINE_TOP
 66
1
 40
0.500000
 41
0.500000
  0
VERTEX
 5
47C
  8
COMP_OUTLINE_TOP
 10
107.85001
 20
10.40000
  0
VERTEX
 5
47D
  8
COMP_OUTLINE_TOP
 10
107.84999
 20
48.60000
  0
SEQEND
  8
COMP_OUTLINE_TOP
  0
POLYLINE
 5
47E
  8
COMP_OUTLINE_TOP
 66
1
 70
1
 40
0.250000
 41
0.250000
  0
VERTEX
 5
47F
  8
COMP_OUTLINE_TOP
 10
107.72501
 20
10.40000
 42
1.0
  0
VERTEX
 5
480
  8
COMP_OUTLINE_TOP
 10
107.97501
 20
10.40000
 42
1.0
  0
SEQEND
  8
COMP_OUTLINE_TOP
  0
POLYLINE
 5
481
  8
COMP_OUTLINE_TOP
 66
1
 70
1
 40
0.250000
 41
0.250000
  0
VERTEX
 5
482
  8
COMP_OUTLINE_TOP
 10
107.72499
 20
48.60000
 42
1.0
  0
VERTEX
 5
483
  8
COMP_OUTLINE_TOP
 10
107.97499
 20
48.60000
 42
1.0
  0
SEQEND
  8
COMP_OUTLINE_TOP
  0
POLYLINE
 5
484
  8
COMP_OUTLINE_TOP
 66
1
 40
0.500000
 41
0.500000
  0
VERTEX
 5
485
  8
COMP_OUTLINE_TOP
 10
107.84999
 20
48.60000
  0
VERTEX
 5
486
  8
COMP_OUTLINE_TOP
 10
80.14999
 20
48.60000
  0
SEQEND
  8
COMP_OUTLINE_TOP
  0
POLYLINE
 5
487
  8
COMP_OUTLINE_TOP
 66
1
 70
1
 40
0.250000
 41
0.250000
  0
VERTEX
 5
488
  8
COMP_OUTLINE_TOP
 10
107.72499
 20
48.60000
 42
1.0
  0
VERTEX
 5
489
  8
COMP_OUTLINE_TOP
 10
107.97499
 20
48.60000
 42
1.0
  0
SEQEND
  8
COMP_OUTLINE_TOP
  0
POLYLINE
 5
48A
  8
COMP_OUTLINE_TOP
 66
1
 70
1
 40
0.250000
 41
0.250000
  0
VERTEX
 5
48B
  8
COMP_OUTLINE_TOP
 10
80.02499
 20
48.60000
 42
1.0
  0
VERTEX
 5
48C
  8
COMP_OUTLINE_TOP
 10
80.27499
 20
48.60000
 42
1.0
  0
SEQEND
  8
COMP_OUTLINE_TOP
  0
POLYLINE
 5
48D
  8
COMP_OUTLINE_TOP
 66
1
 40
0.500000
 41
0.500000
  0
VERTEX
 5
48E
  8
COMP_OUTLINE_TOP
 10
80.14999
 20
48.60000
  0
VERTEX
 5
48F
  8
COMP_OUTLINE_TOP
 10
80.15001
 20
10.40000
  0
SEQEND
  8
COMP_OUTLINE_TOP
  0
POLYLINE
 5
490
  8
COMP_OUTLINE_TOP
 66
1
 70
1
 40
0.250000
 41
0.250000
  0
VERTEX
 5
491
  8
COMP_OUTLINE_TOP
 10
80.02499
 20
48.60000
 42
1.0
  0
VERTEX
 5
492
  8
COMP_OUTLINE_TOP
 10
80.27499
 20
48.60000
 42
1.0
  0
SEQEND
  8
COMP_OUTLINE_TOP
  0
POLYLINE
 5
493
  8
COMP_OUTLINE_TOP
 66
1
 70
1
 40
0.250000
 41
0.250000
  0
VERTEX
 5
494
  8
COMP_OUTLINE_TOP
 10
80.02501
 20
10.40000
 42
1.0
  0
VERTEX
 5
495
  8
COMP_OUTLINE_TOP
 10
80.27501
 20
10.40000
 42
1.0
  0
SEQEND
  8
COMP_OUTLINE_TOP
  0
POLYLINE
 5
496
  8
COMP_OUTLINE_TOP
 66
1
 40
0.500000
 41
0.500000
  0
VERTEX
 5
497
  8
COMP_OUTLINE_TOP
 10
107.30001
 20
10.40000
  0
VERTEX
 5
498
  8
COMP_OUTLINE_TOP
 10
80.70001
 20
10.40000
  0
SEQEND
  8
COMP_OUTLINE_TOP
  0
POLYLINE
 5
499
  8
COMP_OUTLINE_TOP
 66
1
 70
1
 40
0.250000
 41
0.250000
  0
VERTEX
 5
49A
  8
COMP_OUTLINE_TOP
 10
107.17501
 20
10.40000
 42
1.0
  0
VERTEX
 5
49B
  8
COMP_OUTLINE_TOP
 10
107.42501
 20
10.40000
 42
1.0
  0
SEQEND
  8
COMP_OUTLINE_TOP
  0
POLYLINE
 5
49C
  8
COMP_OUTLINE_TOP
 66
1
 70
1
 40
0.250000
 41
0.250000
  0
VERTEX
 5
49D
  8
COMP_OUTLINE_TOP
 10
80.57501
 20
10.40000
 42
1.0
  0
VERTEX
 5
49E
  8
COMP_OUTLINE_TOP
 10
80.82501
 20
10.40000
 42
1.0
  0
SEQEND
  8
COMP_OUTLINE_TOP
  0
POLYLINE
 5
49F
  8
COMP_OUTLINE_TOP
 66
1
 40
0.500000
 41
0.500000
  0
VERTEX
 5
4A0
  8
COMP_OUTLINE_TOP
 10
80.70001
 20
10.40000
  0
VERTEX
 5
4A1
  8
COMP_OUTLINE_TOP
 10
80.70001
 20
6.20000
  0
SEQEND
  8
COMP_OUTLINE_TOP
  0
POLYLINE
 5
4A2
  8
COMP_OUTLINE_TOP
 66
1
 70
1
 40
0.250000
 41
0.250000
  0
VERTEX
 5
4A3
  8
COMP_OUTLINE_TOP
 10
80.57501
 20
10.40000
 42
1.0
  0
VERTEX
 5
4A4
  8
COMP_OUTLINE_TOP
 10
80.82501
 20
10.40000
 42
1.0
  0
SEQEND
  8
COMP_OUTLINE_TOP
  0
POLYLINE
 5
4A5
  8
COMP_OUTLINE_TOP
 66
1
 70
1
 40
0.250000
 41
0.250000
  0
VERTEX
 5
4A6
  8
COMP_OUTLINE_TOP
 10
80.57501
 20
6.20000
 42
1.0
  0
VERTEX
 5
4A7
  8
COMP_OUTLINE_TOP
 10
80.82501
 20
6.20000
 42
1.0
  0
SEQEND
  8
COMP_OUTLINE_TOP
  0
POLYLINE
 5
4A8
  8
COMP_OUTLINE_TOP
 66
1
 40
0.500000
 41
0.500000
  0
VERTEX
 5
4A9
  8
COMP_OUTLINE_TOP
 10
80.70001
 20
6.20000
  0
VERTEX
 5
4AA
  8
COMP_OUTLINE_TOP
 10
81.70001
 20
5.20000
  0
SEQEND
  8
COMP_OUTLINE_TOP
  0
POLYLINE
 5
4AB
  8
COMP_OUTLINE_TOP
 66
1
 70
1
 40
0.250000
 41
0.250000
  0
VERTEX
 5
4AC
  8
COMP_OUTLINE_TOP
 10
80.57501
 20
6.20000
 42
1.0
  0
VERTEX
 5
4AD
  8
COMP_OUTLINE_TOP
 10
80.82501
 20
6.20000
 42
1.0
  0
SEQEND
  8
COMP_OUTLINE_TOP
  0
POLYLINE
 5
4AE
  8
COMP_OUTLINE_TOP
 66
1
 70
1
 40
0.250000
 41
0.250000
  0
VERTEX
 5
4AF
  8
COMP_OUTLINE_TOP
 10
81.57501
 20
5.20000
 42
1.0
  0
VERTEX
 5
4B0
  8
COMP_OUTLINE_TOP
 10
81.82501
 20
5.20000
 42
1.0
  0
SEQEND
  8
COMP_OUTLINE_TOP
  0
POLYLINE
 5
4B1
  8
COMP_OUTLINE_TOP
 66
1
 40
0.500000
 41
0.500000
  0
VERTEX
 5
4B2
  8
COMP_OUTLINE_TOP
 10
81.70001
 20
5.20000
  0
VERTEX
 5
4B3
  8
COMP_OUTLINE_TOP
 10
106.30001
 20
5.20000
  0
SEQEND
  8
COMP_OUTLINE_TOP
  0
POLYLINE
 5
4B4
  8
COMP_OUTLINE_TOP
 66
1
 70
1
 40
0.250000
 41
0.250000
  0
VERTEX
 5
4B5
  8
COMP_OUTLINE_TOP
 10
81.57501
 20
5.20000
 42
1.0
  0
VERTEX
 5
4B6
  8
COMP_OUTLINE_TOP
 10
81.82501
 20
5.20000
 42
1.0
  0
SEQEND
  8
COMP_OUTLINE_TOP
  0
POLYLINE
 5
4B7
  8
COMP_OUTLINE_TOP
 66
1
 70
1
 40
0.250000
 41
0.250000
  0
VERTEX
 5
4B8
  8
COMP_OUTLINE_TOP
 10
106.17501
 20
5.20000
 42
1.0
  0
VERTEX
 5
4B9
  8
COMP_OUTLINE_TOP
 10
106.42501
 20
5.20000
 42
1.0
  0
SEQEND
  8
COMP_OUTLINE_TOP
  0
POLYLINE
 5
4BA
  8
COMP_OUTLINE_TOP
 66
1
 40
0.500000
 41
0.500000
  0
VERTEX
 5
4BB
  8
COMP_OUTLINE_TOP
 10
106.30001
 20
5.20000
  0
VERTEX
 5
4BC
  8
COMP_OUTLINE_TOP
 10
107.30001
 20
6.20001
  0
SEQEND
  8
COMP_OUTLINE_TOP
  0
POLYLINE
 5
4BD
  8
COMP_OUTLINE_TOP
 66
1
 70
1
 40
0.250000
 41
0.250000
  0
VERTEX
 5
4BE
  8
COMP_OUTLINE_TOP
 10
106.17501
 20
5.20000
 42
1.0
  0
VERTEX
 5
4BF
  8
COMP_OUTLINE_TOP
 10
106.42501
 20
5.20000
 42
1.0
  0
SEQEND
  8
COMP_OUTLINE_TOP
  0
POLYLINE
 5
4C0
  8
COMP_OUTLINE_TOP
 66
1
 70
1
 40
0.250000
 41
0.250000
  0
VERTEX
 5
4C1
  8
COMP_OUTLINE_TOP
 10
107.17501
 20
6.20001
 42
1.0
  0
VERTEX
 5
4C2
  8
COMP_OUTLINE_TOP
 10
107.42501
 20
6.20001
 42
1.0
  0
SEQEND
  8
COMP_OUTLINE_TOP
  0
POLYLINE
 5
4C3
  8
COMP_OUTLINE_TOP
 66
1
 40
0.500000
 41
0.500000
  0
VERTEX
 5
4C4
  8
COMP_OUTLINE_TOP
 10
107.30001
 20
6.20001
  0
VERTEX
 5
4C5
  8
COMP_OUTLINE_TOP
 10
107.30001
 20
10.40000
  0
SEQEND
  8
COMP_OUTLINE_TOP
  0
POLYLINE
 5
4C6
  8
COMP_OUTLINE_TOP
 66
1
 70
1
 40
0.250000
 41
0.250000
  0
VERTEX
 5
4C7
  8
COMP_OUTLINE_TOP
 10
107.17501
 20
6.20001
 42
1.0
  0
VERTEX
 5
4C8
  8
COMP_OUTLINE_TOP
 10
107.42501
 20
6.20001
 42
1.0
  0
SEQEND
  8
COMP_OUTLINE_TOP
  0
POLYLINE
 5
4C9
  8
COMP_OUTLINE_TOP
 66
1
 70
1
 40
0.250000
 41
0.250000
  0
VERTEX
 5
4CA
  8
COMP_OUTLINE_TOP
 10
107.17501
 20
10.40000
 42
1.0
  0
VERTEX
 5
4CB
  8
COMP_OUTLINE_TOP
 10
107.42501
 20
10.40000
 42
1.0
  0
SEQEND
  8
COMP_OUTLINE_TOP
  0
POLYLINE
 5
4CC
  8
COMP_OUTLINE_TOP
 66
1
 40
0.500000
 41
0.500000
  0
VERTEX
 5
4CD
  8
COMP_OUTLINE_TOP
 10
80.69999
 20
48.60000
  0
VERTEX
 5
4CE
  8
COMP_OUTLINE_TOP
 10
107.29999
 20
48.60000
  0
SEQEND
  8
COMP_OUTLINE_TOP
  0
POLYLINE
 5
4CF
  8
COMP_OUTLINE_TOP
 66
1
 70
1
 40
0.250000
 41
0.250000
  0
VERTEX
 5
4D0
  8
COMP_OUTLINE_TOP
 10
80.57499
 20
48.60000
 42
1.0
  0
VERTEX
 5
4D1
  8
COMP_OUTLINE_TOP
 10
80.82499
 20
48.60000
 42
1.0
  0
SEQEND
  8
COMP_OUTLINE_TOP
  0
POLYLINE
 5
4D2
  8
COMP_OUTLINE_TOP
 66
1
 70
1
 40
0.250000
 41
0.250000
  0
VERTEX
 5
4D3
  8
COMP_OUTLINE_TOP
 10
107.17499
 20
48.60000
 42
1.0
  0
VERTEX
 5
4D4
  8
COMP_OUTLINE_TOP
 10
107.42499
 20
48.60000
 42
1.0
  0
SEQEND
  8
COMP_OUTLINE_TOP
  0
POLYLINE
 5
4D5
  8
COMP_OUTLINE_TOP
 66
1
 40
0.500000
 41
0.500000
  0
VERTEX
 5
4D6
  8
COMP_OUTLINE_TOP
 10
107.29999
 20
48.60000
  0
VERTEX
 5
4D7
  8
COMP_OUTLINE_TOP
 10
107.29999
 20
52.80000
  0
SEQEND
  8
COMP_OUTLINE_TOP
  0
POLYLINE
 5
4D8
  8
COMP_OUTLINE_TOP
 66
1
 70
1
 40
0.250000
 41
0.250000
  0
VERTEX
 5
4D9
  8
COMP_OUTLINE_TOP
 10
107.17499
 20
48.60000
 42
1.0
  0
VERTEX
 5
4DA
  8
COMP_OUTLINE_TOP
 10
107.42499
 20
48.60000
 42
1.0
  0
SEQEND
  8
COMP_OUTLINE_TOP
  0
POLYLINE
 5
4DB
  8
COMP_OUTLINE_TOP
 66
1
 70
1
 40
0.250000
 41
0.250000
  0
VERTEX
 5
4DC
  8
COMP_OUTLINE_TOP
 10
107.17499
 20
52.80000
 42
1.0
  0
VERTEX
 5
4DD
  8
COMP_OUTLINE_TOP
 10
107.42499
 20
52.80000
 42
1.0
  0
SEQEND
  8
COMP_OUTLINE_TOP
  0
POLYLINE
 5
4DE
  8
COMP_OUTLINE_TOP
 66
1
 40
0.500000
 41
0.500000
  0
VERTEX
 5
4DF
  8
COMP_OUTLINE_TOP
 10
107.29999
 20
52.80000
  0
VERTEX
 5
4E0
  8
COMP_OUTLINE_TOP
 10
106.29999
 20
53.80000
  0
SEQEND
  8
COMP_OUTLINE_TOP
  0
POLYLINE
 5
4E1
  8
COMP_OUTLINE_TOP
 66
1
 70
1
 40
0.250000
 41
0.250000
  0
VERTEX
 5
4E2
  8
COMP_OUTLINE_TOP
 10
107.17499
 20
52.80000
 42
1.0
  0
VERTEX
 5
4E3
  8
COMP_OUTLINE_TOP
 10
107.42499
 20
52.80000
 42
1.0
  0
SEQEND
  8
COMP_OUTLINE_TOP
  0
POLYLINE
 5
4E4
  8
COMP_OUTLINE_TOP
 66
1
 70
1
 40
0.250000
 41
0.250000
  0
VERTEX
 5
4E5
  8
COMP_OUTLINE_TOP
 10
106.17499
 20
53.80000
 42
1.0
  0
VERTEX
 5
4E6
  8
COMP_OUTLINE_TOP
 10
106.42499
 20
53.80000
 42
1.0
  0
SEQEND
  8
COMP_OUTLINE_TOP
  0
POLYLINE
 5
4E7
  8
COMP_OUTLINE_TOP
 66
1
 40
0.500000
 41
0.500000
  0
VERTEX
 5
4E8
  8
COMP_OUTLINE_TOP
 10
106.29999
 20
53.80000
  0
VERTEX
 5
4E9
  8
COMP_OUTLINE_TOP
 10
81.69999
 20
53.80000
  0
SEQEND
  8
COMP_OUTLINE_TOP
  0
POLYLINE
 5
4EA
  8
COMP_OUTLINE_TOP
 66
1
 70
1
 40
0.250000
 41
0.250000
  0
VERTEX
 5
4EB
  8
COMP_OUTLINE_TOP
 10
106.17499
 20
53.80000
 42
1.0
  0
VERTEX
 5
4EC
  8
COMP_OUTLINE_TOP
 10
106.42499
 20
53.80000
 42
1.0
  0
SEQEND
  8
COMP_OUTLINE_TOP
  0
POLYLINE
 5
4ED
  8
COMP_OUTLINE_TOP
 66
1
 70
1
 40
0.250000
 41
0.250000
  0
VERTEX
 5
4EE
  8
COMP_OUTLINE_TOP
 10
81.57499
 20
53.80000
 42
1.0
  0
VERTEX
 5
4EF
  8
COMP_OUTLINE_TOP
 10
81.82499
 20
53.80000
 42
1.0
  0
SEQEND
  8
COMP_OUTLINE_TOP
  0
POLYLINE
 5
4F0
  8
COMP_OUTLINE_TOP
 66
1
 40
0.500000
 41
0.500000
  0
VERTEX
 5
4F1
  8
COMP_OUTLINE_TOP
 10
81.69999
 20
53.80000
  0
VERTEX
 5
4F2
  8
COMP_OUTLINE_TOP
 10
80.69999
 20
52.79999
  0
SEQEND
  8
COMP_OUTLINE_TOP
  0
POLYLINE
 5
4F3
  8
COMP_OUTLINE_TOP
 66
1
 70
1
 40
0.250000
 41
0.250000
  0
VERTEX
 5
4F4
  8
COMP_OUTLINE_TOP
 10
81.57499
 20
53.80000
 42
1.0
  0
VERTEX
 5
4F5
  8
COMP_OUTLINE_TOP
 10
81.82499
 20
53.80000
 42
1.0
  0
SEQEND
  8
COMP_OUTLINE_TOP
  0
POLYLINE
 5
4F6
  8
COMP_OUTLINE_TOP
 66
1
 70
1
 40
0.250000
 41
0.250000
  0
VERTEX
 5
4F7
  8
COMP_OUTLINE_TOP
 10
80.57499
 20
52.79999
 42
1.0
  0
VERTEX
 5
4F8
  8
COMP_OUTLINE_TOP
 10
80.82499
 20
52.79999
 42
1.0
  0
SEQEND
  8
COMP_OUTLINE_TOP
  0
POLYLINE
 5
4F9
  8
COMP_OUTLINE_TOP
 66
1
 40
0.500000
 41
0.500000
  0
VERTEX
 5
4FA
  8
COMP_OUTLINE_TOP
 10
80.69999
 20
52.79999
  0
VERTEX
 5
4FB
  8
COMP_OUTLINE_TOP
 10
80.69999
 20
48.60000
  0
SEQEND
  8
COMP_OUTLINE_TOP
  0
POLYLINE
 5
4FC
  8
COMP_OUTLINE_TOP
 66
1
 70
1
 40
0.250000
 41
0.250000
  0
VERTEX
 5
4FD
  8
COMP_OUTLINE_TOP
 10
80.57499
 20
52.79999
 42
1.0
  0
VERTEX
 5
4FE
  8
COMP_OUTLINE_TOP
 10
80.82499
 20
52.79999
 42
1.0
  0
SEQEND
  8
COMP_OUTLINE_TOP
  0
POLYLINE
 5
4FF
  8
COMP_OUTLINE_TOP
 66
1
 70
1
 40
0.250000
 41
0.250000
  0
VERTEX
 5
500
  8
COMP_OUTLINE_TOP
 10
80.57499
 20
48.60000
 42
1.0
  0
VERTEX
 5
501
  8
COMP_OUTLINE_TOP
 10
80.82499
 20
48.60000
 42
1.0
  0
SEQEND
  8
COMP_OUTLINE_TOP
  0
POLYLINE
 5
502
  8
COMP_OUTLINE_TOP
 66
1
 40
0.500000
 41
0.500000
  0
VERTEX
 5
503
  8
COMP_OUTLINE_TOP
 10
81.24999
 20
45.50000
 42
0.432480
  0
VERTEX
 5
504
  8
COMP_OUTLINE_TOP
 10
83.25361
 20
47.38317
 42
0.015491
  0
SEQEND
  8
COMP_OUTLINE_TOP
  0
POLYLINE
 5
505
  8
COMP_OUTLINE_TOP
 66
1
 70
1
 40
0.250000
 41
0.250000
  0
VERTEX
 5
506
  8
COMP_OUTLINE_TOP
 10
81.12499
 20
45.50000
 42
1.0
  0
VERTEX
 5
507
  8
COMP_OUTLINE_TOP
 10
81.37499
 20
45.50000
 42
1.0
  0
SEQEND
  8
COMP_OUTLINE_TOP
  0
POLYLINE
 5
508
  8
COMP_OUTLINE_TOP
 66
1
 70
1
 40
0.250000
 41
0.250000
  0
VERTEX
 5
509
  8
COMP_OUTLINE_TOP
 10
83.12861
 20
47.38317
 42
1.0
  0
VERTEX
 5
50A
  8
COMP_OUTLINE_TOP
 10
83.37861
 20
47.38317
 42
1.0
  0
SEQEND
  8
COMP_OUTLINE_TOP
  0
POLYLINE
 5
50B
  8
COMP_OUTLINE_TOP
 66
1
 40
0.500000
 41
0.500000
  0
VERTEX
 5
50C
  8
COMP_OUTLINE_TOP
 10
83.25361
 20
47.38317
 42
0.015491
  0
VERTEX
 5
50D
  8
COMP_OUTLINE_TOP
 10
83.24999
 20
47.50000
  0
SEQEND
  8
COMP_OUTLINE_TOP
  0
POLYLINE
 5
50E
  8
COMP_OUTLINE_TOP
 66
1
 70
1
 40
0.250000
 41
0.250000
  0
VERTEX
 5
50F
  8
COMP_OUTLINE_TOP
 10
83.12861
 20
47.38317
 42
1.0
  0
VERTEX
 5
510
  8
COMP_OUTLINE_TOP
 10
83.37861
 20
47.38317
 42
1.0
  0
SEQEND
  8
COMP_OUTLINE_TOP
  0
POLYLINE
 5
511
  8
COMP_OUTLINE_TOP
 66
1
 70
1
 40
0.250000
 41
0.250000
  0
VERTEX
 5
512
  8
COMP_OUTLINE_TOP
 10
83.12499
 20
47.50000
 42
1.0
  0
VERTEX
 5
513
  8
COMP_OUTLINE_TOP
 10
83.37499
 20
47.50000
 42
1.0
  0
SEQEND
  8
COMP_OUTLINE_TOP
  0
POLYLINE
 5
514
  8
COMP_OUTLINE_TOP
 66
1
 40
0.500000
 41
0.500000
  0
VERTEX
 5
515
  8
COMP_OUTLINE_TOP
 10
83.24999
 20
47.50000
  0
VERTEX
 5
516
  8
COMP_OUTLINE_TOP
 10
104.75000
 20
47.50000
 42
0.010472
  0
SEQEND
  8
COMP_OUTLINE_TOP
  0
POLYLINE
 5
517
  8
COMP_OUTLINE_TOP
 66
1
 70
1
 40
0.250000
 41
0.250000
  0
VERTEX
 5
518
  8
COMP_OUTLINE_TOP
 10
83.12499
 20
47.50000
 42
1.0
  0
VERTEX
 5
519
  8
COMP_OUTLINE_TOP
 10
83.37499
 20
47.50000
 42
1.0
  0
SEQEND
  8
COMP_OUTLINE_TOP
  0
POLYLINE
 5
51A
  8
COMP_OUTLINE_TOP
 66
1
 70
1
 40
0.250000
 41
0.250000
  0
VERTEX
 5
51B
  8
COMP_OUTLINE_TOP
 10
104.62500
 20
47.50000
 42
1.0
  0
VERTEX
 5
51C
  8
COMP_OUTLINE_TOP
 10
104.87500
 20
47.50000
 42
1.0
  0
SEQEND
  8
COMP_OUTLINE_TOP
  0
POLYLINE
 5
51D
  8
COMP_OUTLINE_TOP
 66
1
 40
0.500000
 41
0.500000
  0
VERTEX
 5
51E
  8
COMP_OUTLINE_TOP
 10
104.75000
 20
47.50000
 42
0.010472
  0
VERTEX
 5
51F
  8
COMP_OUTLINE_TOP
 10
104.74831
 20
47.41955
 42
0.426536
  0
SEQEND
  8
COMP_OUTLINE_TOP
  0
POLYLINE
 5
520
  8
COMP_OUTLINE_TOP
 66
1
 70
1
 40
0.250000
 41
0.250000
  0
VERTEX
 5
521
  8
COMP_OUTLINE_TOP
 10
104.62500
 20
47.50000
 42
1.0
  0
VERTEX
 5
522
  8
COMP_OUTLINE_TOP
 10
104.87500
 20
47.50000
 42
1.0
  0
SEQEND
  8
COMP_OUTLINE_TOP
  0
POLYLINE
 5
523
  8
COMP_OUTLINE_TOP
 66
1
 70
1
 40
0.250000
 41
0.250000
  0
VERTEX
 5
524
  8
COMP_OUTLINE_TOP
 10
104.62331
 20
47.41955
 42
1.0
  0
VERTEX
 5
525
  8
COMP_OUTLINE_TOP
 10
104.87331
 20
47.41955
 42
1.0
  0
SEQEND
  8
COMP_OUTLINE_TOP
  0
POLYLINE
 5
526
  8
COMP_OUTLINE_TOP
 66
1
 40
0.500000
 41
0.500000
  0
VERTEX
 5
527
  8
COMP_OUTLINE_TOP
 10
104.74831
 20
47.41955
 42
0.426536
  0
VERTEX
 5
528
  8
COMP_OUTLINE_TOP
 10
106.74999
 20
45.50000
  0
SEQEND
  8
COMP_OUTLINE_TOP
  0
POLYLINE
 5
529
  8
COMP_OUTLINE_TOP
 66
1
 70
1
 40
0.250000
 41
0.250000
  0
VERTEX
 5
52A
  8
COMP_OUTLINE_TOP
 10
104.62331
 20
47.41955
 42
1.0
  0
VERTEX
 5
52B
  8
COMP_OUTLINE_TOP
 10
104.87331
 20
47.41955
 42
1.0
  0
SEQEND
  8
COMP_OUTLINE_TOP
  0
POLYLINE
 5
52C
  8
COMP_OUTLINE_TOP
 66
1
 70
1
 40
0.250000
 41
0.250000
  0
VERTEX
 5
52D
  8
COMP_OUTLINE_TOP
 10
106.62499
 20
45.50000
 42
1.0
  0
VERTEX
 5
52E
  8
COMP_OUTLINE_TOP
 10
106.87499
 20
45.50000
 42
1.0
  0
SEQEND
  8
COMP_OUTLINE_TOP
  0
POLYLINE
 5
52F
  8
COMP_OUTLINE_TOP
 66
1
 40
0.500000
 41
0.500000
  0
VERTEX
 5
530
  8
COMP_OUTLINE_TOP
 10
106.74999
 20
45.50000
  0
VERTEX
 5
531
  8
COMP_OUTLINE_TOP
 10
106.75001
 20
13.50000
 42
0.420362
  0
SEQEND
  8
COMP_OUTLINE_TOP
  0
POLYLINE
 5
532
  8
COMP_OUTLINE_TOP
 66
1
 70
1
 40
0.250000
 41
0.250000
  0
VERTEX
 5
533
  8
COMP_OUTLINE_TOP
 10
106.62499
 20
45.50000
 42
1.0
  0
VERTEX
 5
534
  8
COMP_OUTLINE_TOP
 10
106.87499
 20
45.50000
 42
1.0
  0
SEQEND
  8
COMP_OUTLINE_TOP
  0
POLYLINE
 5
535
  8
COMP_OUTLINE_TOP
 66
1
 70
1
 40
0.250000
 41
0.250000
  0
VERTEX
 5
536
  8
COMP_OUTLINE_TOP
 10
106.62501
 20
13.50000
 42
1.0
  0
VERTEX
 5
537
  8
COMP_OUTLINE_TOP
 10
106.87501
 20
13.50000
 42
1.0
  0
SEQEND
  8
COMP_OUTLINE_TOP
  0
POLYLINE
 5
538
  8
COMP_OUTLINE_TOP
 66
1
 40
0.500000
 41
0.500000
  0
VERTEX
 5
539
  8
COMP_OUTLINE_TOP
 10
106.75001
 20
13.50000
 42
0.420362
  0
VERTEX
 5
53A
  8
COMP_OUTLINE_TOP
 10
104.74958
 20
11.54104
  0
SEQEND
  8
COMP_OUTLINE_TOP
  0
POLYLINE
 5
53B
  8
COMP_OUTLINE_TOP
 66
1
 70
1
 40
0.250000
 41
0.250000
  0
VERTEX
 5
53C
  8
COMP_OUTLINE_TOP
 10
106.62501
 20
13.50000
 42
1.0
  0
VERTEX
 5
53D
  8
COMP_OUTLINE_TOP
 10
106.87501
 20
13.50000
 42
1.0
  0
SEQEND
  8
COMP_OUTLINE_TOP
  0
POLYLINE
 5
53E
  8
COMP_OUTLINE_TOP
 66
1
 70
1
 40
0.250000
 41
0.250000
  0
VERTEX
 5
53F
  8
COMP_OUTLINE_TOP
 10
104.62458
 20
11.54104
 42
1.0
  0
VERTEX
 5
540
  8
COMP_OUTLINE_TOP
 10
104.87458
 20
11.54104
 42
1.0
  0
SEQEND
  8
COMP_OUTLINE_TOP
  0
POLYLINE
 5
541
  8
COMP_OUTLINE_TOP
 66
1
 40
0.500000
 41
0.500000
  0
VERTEX
 5
542
  8
COMP_OUTLINE_TOP
 10
104.74958
 20
11.54104
  0
VERTEX
 5
543
  8
COMP_OUTLINE_TOP
 10
104.75001
 20
11.50000
  0
SEQEND
  8
COMP_OUTLINE_TOP
  0
POLYLINE
 5
544
  8
COMP_OUTLINE_TOP
 66
1
 70
1
 40
0.250000
 41
0.250000
  0
VERTEX
 5
545
  8
COMP_OUTLINE_TOP
 10
104.62458
 20
11.54104
 42
1.0
  0
VERTEX
 5
546
  8
COMP_OUTLINE_TOP
 10
104.87458
 20
11.54104
 42
1.0
  0
SEQEND
  8
COMP_OUTLINE_TOP
  0
POLYLINE
 5
547
  8
COMP_OUTLINE_TOP
 66
1
 70
1
 40
0.250000
 41
0.250000
  0
VERTEX
 5
548
  8
COMP_OUTLINE_TOP
 10
104.62501
 20
11.50000
 42
1.0
  0
VERTEX
 5
549
  8
COMP_OUTLINE_TOP
 10
104.87501
 20
11.50000
 42
1.0
  0
SEQEND
  8
COMP_OUTLINE_TOP
  0
POLYLINE
 5
54A
  8
COMP_OUTLINE_TOP
 66
1
 40
0.500000
 41
0.500000
  0
VERTEX
 5
54B
  8
COMP_OUTLINE_TOP
 10
104.75001
 20
11.50000
  0
VERTEX
 5
54C
  8
COMP_OUTLINE_TOP
 10
83.25000
 20
11.50000
 42
0.010472
  0
SEQEND
  8
COMP_OUTLINE_TOP
  0
POLYLINE
 5
54D
  8
COMP_OUTLINE_TOP
 66
1
 70
1
 40
0.250000
 41
0.250000
  0
VERTEX
 5
54E
  8
COMP_OUTLINE_TOP
 10
104.62501
 20
11.50000
 42
1.0
  0
VERTEX
 5
54F
  8
COMP_OUTLINE_TOP
 10
104.87501
 20
11.50000
 42
1.0
  0
SEQEND
  8
COMP_OUTLINE_TOP
  0
POLYLINE
 5
550
  8
COMP_OUTLINE_TOP
 66
1
 70
1
 40
0.250000
 41
0.250000
  0
VERTEX
 5
551
  8
COMP_OUTLINE_TOP
 10
83.12500
 20
11.50000
 42
1.0
  0
VERTEX
 5
552
  8
COMP_OUTLINE_TOP
 10
83.37500
 20
11.50000
 42
1.0
  0
SEQEND
  8
COMP_OUTLINE_TOP
  0
POLYLINE
 5
553
  8
COMP_OUTLINE_TOP
 66
1
 40
0.500000
 41
0.500000
  0
VERTEX
 5
554
  8
COMP_OUTLINE_TOP
 10
83.25000
 20
11.50000
 42
0.010472
  0
VERTEX
 5
555
  8
COMP_OUTLINE_TOP
 10
83.25169
 20
11.58045
 42
0.426536
  0
SEQEND
  8
COMP_OUTLINE_TOP
  0
POLYLINE
 5
556
  8
COMP_OUTLINE_TOP
 66
1
 70
1
 40
0.250000
 41
0.250000
  0
VERTEX
 5
557
  8
COMP_OUTLINE_TOP
 10
83.12500
 20
11.50000
 42
1.0
  0
VERTEX
 5
558
  8
COMP_OUTLINE_TOP
 10
83.37500
 20
11.50000
 42
1.0
  0
SEQEND
  8
COMP_OUTLINE_TOP
  0
POLYLINE
 5
559
  8
COMP_OUTLINE_TOP
 66
1
 70
1
 40
0.250000
 41
0.250000
  0
VERTEX
 5
55A
  8
COMP_OUTLINE_TOP
 10
83.12669
 20
11.58045
 42
1.0
  0
VERTEX
 5
55B
  8
COMP_OUTLINE_TOP
 10
83.37669
 20
11.58045
 42
1.0
  0
SEQEND
  8
COMP_OUTLINE_TOP
  0
POLYLINE
 5
55C
  8
COMP_OUTLINE_TOP
 66
1
 40
0.500000
 41
0.500000
  0
VERTEX
 5
55D
  8
COMP_OUTLINE_TOP
 10
83.25169
 20
11.58045
 42
0.426536
  0
VERTEX
 5
55E
  8
COMP_OUTLINE_TOP
 10
81.25001
 20
13.50000
  0
SEQEND
  8
COMP_OUTLINE_TOP
  0
POLYLINE
 5
55F
  8
COMP_OUTLINE_TOP
 66
1
 70
1
 40
0.250000
 41
0.250000
  0
VERTEX
 5
560
  8
COMP_OUTLINE_TOP
 10
83.12669
 20
11.58045
 42
1.0
  0
VERTEX
 5
561
  8
COMP_OUTLINE_TOP
 10
83.37669
 20
11.58045
 42
1.0
  0
SEQEND
  8
COMP_OUTLINE_TOP
  0
POLYLINE
 5
562
  8
COMP_OUTLINE_TOP
 66
1
 70
1
 40
0.250000
 41
0.250000
  0
VERTEX
 5
563
  8
COMP_OUTLINE_TOP
 10
81.12501
 20
13.50000
 42
1.0
  0
VERTEX
 5
564
  8
COMP_OUTLINE_TOP
 10
81.37501
 20
13.50000
 42
1.0
  0
SEQEND
  8
COMP_OUTLINE_TOP
  0
POLYLINE
 5
565
  8
COMP_OUTLINE_TOP
 66
1
 40
0.500000
 41
0.500000
  0
VERTEX
 5
566
  8
COMP_OUTLINE_TOP
 10
81.25001
 20
13.50000
  0
VERTEX
 5
567
  8
COMP_OUTLINE_TOP
 10
81.24999
 20
45.50000
  0
SEQEND
  8
COMP_OUTLINE_TOP
  0
POLYLINE
 5
568
  8
COMP_OUTLINE_TOP
 66
1
 70
1
 40
0.250000
 41
0.250000
  0
VERTEX
 5
569
  8
COMP_OUTLINE_TOP
 10
81.12501
 20
13.50000
 42
1.0
  0
VERTEX
 5
56A
  8
COMP_OUTLINE_TOP
 10
81.37501
 20
13.50000
 42
1.0
  0
SEQEND
  8
COMP_OUTLINE_TOP
  0
POLYLINE
 5
56B
  8
COMP_OUTLINE_TOP
 66
1
 70
1
 40
0.250000
 41
0.250000
  0
VERTEX
 5
56C
  8
COMP_OUTLINE_TOP
 10
81.12499
 20
45.50000
 42
1.0
  0
VERTEX
 5
56D
  8
COMP_OUTLINE_TOP
 10
81.37499
 20
45.50000
 42
1.0
  0
SEQEND
  8
COMP_OUTLINE_TOP
  0
POLYLINE
 5
56E
  8
PADLAYER_TOP
 66
1
 70
1
 40
3.000000
 41
3.000000
  0
VERTEX
 5
56F
  8
PADLAYER_TOP
 10
92.49999
 20
51.77500
 42
1.0
  0
VERTEX
 5
570
  8
PADLAYER_TOP
 10
95.49999
 20
51.77500
 42
1.0
  0
SEQEND
  8
PADLAYER_TOP
  0
POLYLINE
 5
571
  8
PADLAYER_BOTTOM
 66
1
 70
1
 40
3.000000
 41
3.000000
  0
VERTEX
 5
572
  8
PADLAYER_BOTTOM
 10
92.49999
 20
51.77500
 42
1.0
  0
VERTEX
 5
573
  8
PADLAYER_BOTTOM
 10
95.49999
 20
51.77500
 42
1.0
  0
SEQEND
  8
PADLAYER_BOTTOM
  0
POLYLINE
 5
574
  8
TOOL_TOP
 66
1
 40
0.500000
 41
0.500000
  0
VERTEX
 5
575
  8
TOOL_TOP
 10
90.49999
 20
51.77500
 42
1.000000
  0
VERTEX
 5
576
  8
TOOL_TOP
 10
97.49999
 20
51.77500
 42
1.000000
  0
VERTEX
 5
577
  8
TOOL_TOP
 10
90.49999
 20
51.77500
  0
SEQEND
  8
TOOL_TOP
  0
TEXT
  8
TOOLCODE_TOP
 10
90.32499
 20
50.02500
 40
3.500000
  1
T00
  0
POLYLINE
 5
578
  8
PADLAYER_TOP
 66
1
 70
1
 40
1.900000
 41
1.900000
  0
VERTEX
 5
579
  8
PADLAYER_TOP
 10
99.42500
 20
15.62500
 42
1.0
  0
VERTEX
 5
57A
  8
PADLAYER_TOP
 10
101.32500
 20
15.62500
 42
1.0
  0
SEQEND
  8
PADLAYER_TOP
  0
POLYLINE
 5
57B
  8
PADLAYER_BOTTOM
 66
1
 70
1
 40
1.900000
 41
1.900000
  0
VERTEX
 5
57C
  8
PADLAYER_BOTTOM
 10
99.42500
 20
15.62500
 42
1.0
  0
VERTEX
 5
57D
  8
PADLAYER_BOTTOM
 10
101.32500
 20
15.62500
 42
1.0
  0
SEQEND
  8
PADLAYER_BOTTOM
  0
POLYLINE
 5
57E
  8
TOOL_TOP
 66
1
 40
0.500000
 41
0.500000
  0
VERTEX
 5
57F
  8
TOOL_TOP
 10
99.12500
 20
15.62500
 42
1.000000
  0
VERTEX
 5
580
  8
TOOL_TOP
 10
101.62500
 20
15.62500
 42
1.000000
  0
VERTEX
 5
581
  8
TOOL_TOP
 10
99.12500
 20
15.62500
  0
SEQEND
  8
TOOL_TOP
  0
TEXT
  8
TOOLCODE_TOP
 10
99.06250
 20
15.00000
 40
1.250000
  1
T00
  0
POLYLINE
 5
582
  8
PADLAYER_TOP
 66
1
 70
1
 40
0.750000
 41
0.750000
  0
VERTEX
 5
583
  8
PADLAYER_TOP
 10
87.25000
 20
27.47500
 42
1.0
  0
VERTEX
 5
584
  8
PADLAYER_TOP
 10
88.00000
 20
27.47500
 42
1.0
  0
SEQEND
  8
PADLAYER_TOP
  0
POLYLINE
 5
585
  8
PADLAYER_BOTTOM
 66
1
 70
1
 40
0.750000
 41
0.750000
  0
VERTEX
 5
586
  8
PADLAYER_BOTTOM
 10
87.25000
 20
27.47500
 42
1.0
  0
VERTEX
 5
587
  8
PADLAYER_BOTTOM
 10
88.00000
 20
27.47500
 42
1.0
  0
SEQEND
  8
PADLAYER_BOTTOM
  0
POLYLINE
 5
588
  8
TOOL_TOP
 66
1
 40
0.500000
 41
0.500000
  0
VERTEX
 5
589
  8
TOOL_TOP
 10
87.07500
 20
27.47500
 42
1.000000
  0
VERTEX
 5
58A
  8
TOOL_TOP
 10
88.17500
 20
27.47500
 42
1.000000
  0
VERTEX
 5
58B
  8
TOOL_TOP
 10
87.07500
 20
27.47500
  0
SEQEND
  8
TOOL_TOP
  0
TEXT
  8
TOOLCODE_TOP
 10
87.04750
 20
27.20000
 40
0.550000
  1
T00
  0
POLYLINE
 5
58C
  8
PADLAYER_TOP
 66
1
 70
1
 40
3.000000
 41
3.000000
  0
VERTEX
 5
58D
  8
PADLAYER_TOP
 10
92.50001
 20
7.22500
 42
1.0
  0
VERTEX
 5
58E
  8
PADLAYER_TOP
 10
95.50001
 20
7.22500
 42
1.0
  0
SEQEND
  8
PADLAYER_TOP
  0
POLYLINE
 5
58F
  8
PADLAYER_BOTTOM
 66
1
 70
1
 40
3.000000
 41
3.000000
  0
VERTEX
 5
590
  8
PADLAYER_BOTTOM
 10
92.50001
 20
7.22500
 42
1.0
  0
VERTEX
 5
591
  8
PADLAYER_BOTTOM
 10
95.50001
 20
7.22500
 42
1.0
  0
SEQEND
  8
PADLAYER_BOTTOM
  0
POLYLINE
 5
592
  8
TOOL_TOP
 66
1
 40
0.500000
 41
0.500000
  0
VERTEX
 5
593
  8
TOOL_TOP
 10
90.50001
 20
7.22500
 42
1.000000
  0
VERTEX
 5
594
  8
TOOL_TOP
 10
97.50001
 20
7.22500
 42
1.000000
  0
VERTEX
 5
595
  8
TOOL_TOP
 10
90.50001
 20
7.22500
  0
SEQEND
  8
TOOL_TOP
  0
TEXT
  8
TOOLCODE_TOP
 10
90.32501
 20
5.47500
 40
3.500000
  1
T00
  0
POLYLINE
 5
596
  8
PADLAYER_TOP
 66
1
 70
1
 40
1.850000
 41
1.850000
  0
VERTEX
 5
597
  8
PADLAYER_TOP
 10
99.45000
 20
19.32500
 42
1.0
  0
VERTEX
 5
598
  8
PADLAYER_TOP
 10
101.30000
 20
19.32500
 42
1.0
  0
SEQEND
  8
PADLAYER_TOP
  0
POLYLINE
 5
599
  8
PADLAYER_BOTTOM
 66
1
 70
1
 40
1.850000
 41
1.850000
  0
VERTEX
 5
59A
  8
PADLAYER_BOTTOM
 10
99.45000
 20
19.32500
 42
1.0
  0
VERTEX
 5
59B
  8
PADLAYER_BOTTOM
 10
101.30000
 20
19.32500
 42
1.0
  0
SEQEND
  8
PADLAYER_BOTTOM
  0
POLYLINE
 5
59C
  8
TOOL_TOP
 66
1
 40
0.500000
 41
0.500000
  0
VERTEX
 5
59D
  8
TOOL_TOP
 10
99.12500
 20
19.32500
 42
1.000000
  0
VERTEX
 5
59E
  8
TOOL_TOP
 10
101.62500
 20
19.32500
 42
1.000000
  0
VERTEX
 5
59F
  8
TOOL_TOP
 10
99.12500
 20
19.32500
  0
SEQEND
  8
TOOL_TOP
  0
TEXT
  8
TOOLCODE_TOP
 10
99.06250
 20
18.70000
 40
1.250000
  1
T00
  0
POLYLINE
 5
5A0
  8
PADLAYER_TOP
 66
1
 70
1
 40
1.850000
 41
1.850000
  0
VERTEX
 5
5A1
  8
PADLAYER_TOP
 10
99.45000
 20
23.62500
 42
1.0
  0
VERTEX
 5
5A2
  8
PADLAYER_TOP
 10
101.30000
 20
23.62500
 42
1.0
  0
SEQEND
  8
PADLAYER_TOP
  0
POLYLINE
 5
5A3
  8
PADLAYER_BOTTOM
 66
1
 70
1
 40
1.850000
 41
1.850000
  0
VERTEX
 5
5A4
  8
PADLAYER_BOTTOM
 10
99.45000
 20
23.62500
 42
1.0
  0
VERTEX
 5
5A5
  8
PADLAYER_BOTTOM
 10
101.30000
 20
23.62500
 42
1.0
  0
SEQEND
  8
PADLAYER_BOTTOM
  0
POLYLINE
 5
5A6
  8
TOOL_TOP
 66
1
 40
0.500000
 41
0.500000
  0
VERTEX
 5
5A7
  8
TOOL_TOP
 10
99.12500
 20
23.62500
 42
1.000000
  0
VERTEX
 5
5A8
  8
TOOL_TOP
 10
101.62500
 20
23.62500
 42
1.000000
  0
VERTEX
 5
5A9
  8
TOOL_TOP
 10
99.12500
 20
23.62500
  0
SEQEND
  8
TOOL_TOP
  0
TEXT
  8
TOOLCODE_TOP
 10
99.06250
 20
23.00000
 40
1.250000
  1
T00
  0
POLYLINE
 5
5AA
  8
PADLAYER_TOP
 66
1
 70
1
 40
1.850000
 41
1.850000
  0
VERTEX
 5
5AB
  8
PADLAYER_TOP
 10
99.45000
 20
27.32500
 42
1.0
  0
VERTEX
 5
5AC
  8
PADLAYER_TOP
 10
101.30000
 20
27.32500
 42
1.0
  0
SEQEND
  8
PADLAYER_TOP
  0
POLYLINE
 5
5AD
  8
PADLAYER_BOTTOM
 66
1
 70
1
 40
1.850000
 41
1.850000
  0
VERTEX
 5
5AE
  8
PADLAYER_BOTTOM
 10
99.45000
 20
27.32500
 42
1.0
  0
VERTEX
 5
5AF
  8
PADLAYER_BOTTOM
 10
101.30000
 20
27.32500
 42
1.0
  0
SEQEND
  8
PADLAYER_BOTTOM
  0
POLYLINE
 5
5B0
  8
TOOL_TOP
 66
1
 40
0.500000
 41
0.500000
  0
VERTEX
 5
5B1
  8
TOOL_TOP
 10
99.12500
 20
27.32500
 42
1.000000
  0
VERTEX
 5
5B2
  8
TOOL_TOP
 10
101.62500
 20
27.32500
 42
1.000000
  0
VERTEX
 5
5B3
  8
TOOL_TOP
 10
99.12500
 20
27.32500
  0
SEQEND
  8
TOOL_TOP
  0
TEXT
  8
TOOLCODE_TOP
 10
99.06250
 20
26.70000
 40
1.250000
  1
T00
  0
POLYLINE
 5
5B4
  8
PADLAYER_TOP
 66
1
 70
1
 40
1.850000
 41
1.850000
  0
VERTEX
 5
5B5
  8
PADLAYER_TOP
 10
99.45000
 20
31.62500
 42
1.0
  0
VERTEX
 5
5B6
  8
PADLAYER_TOP
 10
101.30000
 20
31.62500
 42
1.0
  0
SEQEND
  8
PADLAYER_TOP
  0
POLYLINE
 5
5B7
  8
PADLAYER_BOTTOM
 66
1
 70
1
 40
1.850000
 41
1.850000
  0
VERTEX
 5
5B8
  8
PADLAYER_BOTTOM
 10
99.45000
 20
31.62500
 42
1.0
  0
VERTEX
 5
5B9
  8
PADLAYER_BOTTOM
 10
101.30000
 20
31.62500
 42
1.0
  0
SEQEND
  8
PADLAYER_BOTTOM
  0
POLYLINE
 5
5BA
  8
TOOL_TOP
 66
1
 40
0.500000
 41
0.500000
  0
VERTEX
 5
5BB
  8
TOOL_TOP
 10
99.12500
 20
31.62500
 42
1.000000
  0
VERTEX
 5
5BC
  8
TOOL_TOP
 10
101.62500
 20
31.62500
 42
1.000000
  0
VERTEX
 5
5BD
  8
TOOL_TOP
 10
99.12500
 20
31.62500
  0
SEQEND
  8
TOOL_TOP
  0
TEXT
  8
TOOLCODE_TOP
 10
99.06250
 20
31.00000
 40
1.250000
  1
T00
  0
POLYLINE
 5
5BE
  8
PADLAYER_TOP
 66
1
 70
1
 40
1.850000
 41
1.850000
  0
VERTEX
 5
5BF
  8
PADLAYER_TOP
 10
99.45000
 20
35.32500
 42
1.0
  0
VERTEX
 5
5C0
  8
PADLAYER_TOP
 10
101.30000
 20
35.32500
 42
1.0
  0
SEQEND
  8
PADLAYER_TOP
  0
POLYLINE
 5
5C1
  8
PADLAYER_BOTTOM
 66
1
 70
1
 40
1.850000
 41
1.850000
  0
VERTEX
 5
5C2
  8
PADLAYER_BOTTOM
 10
99.45000
 20
35.32500
 42
1.0
  0
VERTEX
 5
5C3
  8
PADLAYER_BOTTOM
 10
101.30000
 20
35.32500
 42
1.0
  0
SEQEND
  8
PADLAYER_BOTTOM
  0
POLYLINE
 5
5C4
  8
TOOL_TOP
 66
1
 40
0.500000
 41
0.500000
  0
VERTEX
 5
5C5
  8
TOOL_TOP
 10
99.12500
 20
35.32500
 42
1.000000
  0
VERTEX
 5
5C6
  8
TOOL_TOP
 10
101.62500
 20
35.32500
 42
1.000000
  0
VERTEX
 5
5C7
  8
TOOL_TOP
 10
99.12500
 20
35.32500
  0
SEQEND
  8
TOOL_TOP
  0
TEXT
  8
TOOLCODE_TOP
 10
99.06250
 20
34.70000
 40
1.250000
  1
T00
  0
POLYLINE
 5
5C8
  8
PADLAYER_TOP
 66
1
 70
1
 40
1.850000
 41
1.850000
  0
VERTEX
 5
5C9
  8
PADLAYER_TOP
 10
99.45000
 20
39.62500
 42
1.0
  0
VERTEX
 5
5CA
  8
PADLAYER_TOP
 10
101.30000
 20
39.62500
 42
1.0
  0
SEQEND
  8
PADLAYER_TOP
  0
POLYLINE
 5
5CB
  8
PADLAYER_BOTTOM
 66
1
 70
1
 40
1.850000
 41
1.850000
  0
VERTEX
 5
5CC
  8
PADLAYER_BOTTOM
 10
99.45000
 20
39.62500
 42
1.0
  0
VERTEX
 5
5CD
  8
PADLAYER_BOTTOM
 10
101.30000
 20
39.62500
 42
1.0
  0
SEQEND
  8
PADLAYER_BOTTOM
  0
POLYLINE
 5
5CE
  8
TOOL_TOP
 66
1
 40
0.500000
 41
0.500000
  0
VERTEX
 5
5CF
  8
TOOL_TOP
 10
99.12500
 20
39.62500
 42
1.000000
  0
VERTEX
 5
5D0
  8
TOOL_TOP
 10
101.62500
 20
39.62500
 42
1.000000
  0
VERTEX
 5
5D1
  8
TOOL_TOP
 10
99.12500
 20
39.62500
  0
SEQEND
  8
TOOL_TOP
  0
TEXT
  8
TOOLCODE_TOP
 10
99.06250
 20
39.00000
 40
1.250000
  1
T00
  0
POLYLINE
 5
5D2
  8
PADLAYER_TOP
 66
1
 70
1
 40
1.850000
 41
1.850000
  0
VERTEX
 5
5D3
  8
PADLAYER_TOP
 10
99.45000
 20
43.32500
 42
1.0
  0
VERTEX
 5
5D4
  8
PADLAYER_TOP
 10
101.30000
 20
43.32500
 42
1.0
  0
SEQEND
  8
PADLAYER_TOP
  0
POLYLINE
 5
5D5
  8
PADLAYER_BOTTOM
 66
1
 70
1
 40
1.850000
 41
1.850000
  0
VERTEX
 5
5D6
  8
PADLAYER_BOTTOM
 10
99.45000
 20
43.32500
 42
1.0
  0
VERTEX
 5
5D7
  8
PADLAYER_BOTTOM
 10
101.30000
 20
43.32500
 42
1.0
  0
SEQEND
  8
PADLAYER_BOTTOM
  0
POLYLINE
 5
5D8
  8
TOOL_TOP
 66
1
 40
0.500000
 41
0.500000
  0
VERTEX
 5
5D9
  8
TOOL_TOP
 10
99.12500
 20
43.32500
 42
1.000000
  0
VERTEX
 5
5DA
  8
TOOL_TOP
 10
101.62500
 20
43.32500
 42
1.000000
  0
VERTEX
 5
5DB
  8
TOOL_TOP
 10
99.12500
 20
43.32500
  0
SEQEND
  8
TOOL_TOP
  0
TEXT
  8
TOOLCODE_TOP
 10
99.06250
 20
42.70000
 40
1.250000
  1
T00
  0
POLYLINE
 5
5DC
  8
PADLAYER_TOP
 66
1
 70
1
 40
2.000000
 41
2.000000
  0
VERTEX
 5
5DD
  8
PADLAYER_TOP
 10
86.62500
 20
15.62500
 42
1.0
  0
VERTEX
 5
5DE
  8
PADLAYER_TOP
 10
88.62500
 20
15.62500
 42
1.0
  0
SEQEND
  8
PADLAYER_TOP
  0
POLYLINE
 5
5DF
  8
PADLAYER_BOTTOM
 66
1
 70
1
 40
2.000000
 41
2.000000
  0
VERTEX
 5
5E0
  8
PADLAYER_BOTTOM
 10
86.62500
 20
15.62500
 42
1.0
  0
VERTEX
 5
5E1
  8
PADLAYER_BOTTOM
 10
88.62500
 20
15.62500
 42
1.0
  0
SEQEND
  8
PADLAYER_BOTTOM
  0
POLYLINE
 5
5E2
  8
TOOL_TOP
 66
1
 40
0.500000
 41
0.500000
  0
VERTEX
 5
5E3
  8
TOOL_TOP
 10
86.37500
 20
15.62500
 42
1.000000
  0
VERTEX
 5
5E4
  8
TOOL_TOP
 10
88.87500
 20
15.62500
 42
1.000000
  0
VERTEX
 5
5E5
  8
TOOL_TOP
 10
86.37500
 20
15.62500
  0
SEQEND
  8
TOOL_TOP
  0
TEXT
  8
TOOLCODE_TOP
 10
86.31250
 20
15.00000
 40
1.250000
  1
T00
  0
POLYLINE
 5
5E6
  8
PADLAYER_TOP
 66
1
 70
1
 40
2.000000
 41
2.000000
  0
VERTEX
 5
5E7
  8
PADLAYER_TOP
 10
86.62500
 20
19.32500
 42
1.0
  0
VERTEX
 5
5E8
  8
PADLAYER_TOP
 10
88.62500
 20
19.32500
 42
1.0
  0
SEQEND
  8
PADLAYER_TOP
  0
POLYLINE
 5
5E9
  8
PADLAYER_BOTTOM
 66
1
 70
1
 40
2.000000
 41
2.000000
  0
VERTEX
 5
5EA
  8
PADLAYER_BOTTOM
 10
86.62500
 20
19.32500
 42
1.0
  0
VERTEX
 5
5EB
  8
PADLAYER_BOTTOM
 10
88.62500
 20
19.32500
 42
1.0
  0
SEQEND
  8
PADLAYER_BOTTOM
  0
POLYLINE
 5
5EC
  8
TOOL_TOP
 66
1
 40
0.500000
 41
0.500000
  0
VERTEX
 5
5ED
  8
TOOL_TOP
 10
86.37500
 20
19.32500
 42
1.000000
  0
VERTEX
 5
5EE
  8
TOOL_TOP
 10
88.87500
 20
19.32500
 42
1.000000
  0
VERTEX
 5
5EF
  8
TOOL_TOP
 10
86.37500
 20
19.32500
  0
SEQEND
  8
TOOL_TOP
  0
TEXT
  8
TOOLCODE_TOP
 10
86.31250
 20
18.70000
 40
1.250000
  1
T00
  0
POLYLINE
 5
5F0
  8
PADLAYER_TOP
 66
1
 70
1
 40
2.000000
 41
2.000000
  0
VERTEX
 5
5F1
  8
PADLAYER_TOP
 10
86.62500
 20
39.62500
 42
1.0
  0
VERTEX
 5
5F2
  8
PADLAYER_TOP
 10
88.62500
 20
39.62500
 42
1.0
  0
SEQEND
  8
PADLAYER_TOP
  0
POLYLINE
 5
5F3
  8
PADLAYER_BOTTOM
 66
1
 70
1
 40
2.000000
 41
2.000000
  0
VERTEX
 5
5F4
  8
PADLAYER_BOTTOM
 10
86.62500
 20
39.62500
 42
1.0
  0
VERTEX
 5
5F5
  8
PADLAYER_BOTTOM
 10
88.62500
 20
39.62500
 42
1.0
  0
SEQEND
  8
PADLAYER_BOTTOM
  0
POLYLINE
 5
5F6
  8
TOOL_TOP
 66
1
 40
0.500000
 41
0.500000
  0
VERTEX
 5
5F7
  8
TOOL_TOP
 10
86.37500
 20
39.62500
 42
1.000000
  0
VERTEX
 5
5F8
  8
TOOL_TOP
 10
88.87500
 20
39.62500
 42
1.000000
  0
VERTEX
 5
5F9
  8
TOOL_TOP
 10
86.37500
 20
39.62500
  0
SEQEND
  8
TOOL_TOP
  0
TEXT
  8
TOOLCODE_TOP
 10
86.31250
 20
39.00000
 40
1.250000
  1
T00
  0
POLYLINE
 5
5FA
  8
PADLAYER_TOP
 66
1
 70
1
 40
2.000000
 41
2.000000
  0
VERTEX
 5
5FB
  8
PADLAYER_TOP
 10
86.62500
 20
43.32500
 42
1.0
  0
VERTEX
 5
5FC
  8
PADLAYER_TOP
 10
88.62500
 20
43.32500
 42
1.0
  0
SEQEND
  8
PADLAYER_TOP
  0
POLYLINE
 5
5FD
  8
PADLAYER_BOTTOM
 66
1
 70
1
 40
2.000000
 41
2.000000
  0
VERTEX
 5
5FE
  8
PADLAYER_BOTTOM
 10
86.62500
 20
43.32500
 42
1.0
  0
VERTEX
 5
5FF
  8
PADLAYER_BOTTOM
 10
88.62500
 20
43.32500
 42
1.0
  0
SEQEND
  8
PADLAYER_BOTTOM
  0
POLYLINE
 5
600
  8
TOOL_TOP
 66
1
 40
0.500000
 41
0.500000
  0
VERTEX
 5
601
  8
TOOL_TOP
 10
86.37500
 20
43.32500
 42
1.000000
  0
VERTEX
 5
602
  8
TOOL_TOP
 10
88.87500
 20
43.32500
 42
1.000000
  0
VERTEX
 5
603
  8
TOOL_TOP
 10
86.37500
 20
43.32500
  0
SEQEND
  8
TOOL_TOP
  0
TEXT
  8
TOOLCODE_TOP
 10
86.31250
 20
42.70000
 40
1.250000
  1
T00
  0
POLYLINE
 5
604
  8
PADLAYER_TOP
 66
1
 70
1
 40
0.750000
 41
0.750000
  0
VERTEX
 5
605
  8
PADLAYER_TOP
 10
87.25000
 20
29.47500
 42
1.0
  0
VERTEX
 5
606
  8
PADLAYER_TOP
 10
88.00000
 20
29.47500
 42
1.0
  0
SEQEND
  8
PADLAYER_TOP
  0
POLYLINE
 5
607
  8
PADLAYER_BOTTOM
 66
1
 70
1
 40
0.750000
 41
0.750000
  0
VERTEX
 5
608
  8
PADLAYER_BOTTOM
 10
87.25000
 20
29.47500
 42
1.0
  0
VERTEX
 5
609
  8
PADLAYER_BOTTOM
 10
88.00000
 20
29.47500
 42
1.0
  0
SEQEND
  8
PADLAYER_BOTTOM
  0
POLYLINE
 5
60A
  8
TOOL_TOP
 66
1
 40
0.500000
 41
0.500000
  0
VERTEX
 5
60B
  8
TOOL_TOP
 10
87.07500
 20
29.47500
 42
1.000000
  0
VERTEX
 5
60C
  8
TOOL_TOP
 10
88.17500
 20
29.47500
 42
1.000000
  0
VERTEX
 5
60D
  8
TOOL_TOP
 10
87.07500
 20
29.47500
  0
SEQEND
  8
TOOL_TOP
  0
TEXT
  8
TOOLCODE_TOP
 10
87.04750
 20
29.20000
 40
0.550000
  1
T00
  0
POLYLINE
 5
60E
  8
PADLAYER_TOP
 66
1
 70
1
 40
0.750000
 41
0.750000
  0
VERTEX
 5
60F
  8
PADLAYER_TOP
 10
87.25000
 20
31.47500
 42
1.0
  0
VERTEX
 5
610
  8
PADLAYER_TOP
 10
88.00000
 20
31.47500
 42
1.0
  0
SEQEND
  8
PADLAYER_TOP
  0
POLYLINE
 5
611
  8
PADLAYER_BOTTOM
 66
1
 70
1
 40
0.750000
 41
0.750000
  0
VERTEX
 5
612
  8
PADLAYER_BOTTOM
 10
87.25000
 20
31.47500
 42
1.0
  0
VERTEX
 5
613
  8
PADLAYER_BOTTOM
 10
88.00000
 20
31.47500
 42
1.0
  0
SEQEND
  8
PADLAYER_BOTTOM
  0
POLYLINE
 5
614
  8
TOOL_TOP
 66
1
 40
0.500000
 41
0.500000
  0
VERTEX
 5
615
  8
TOOL_TOP
 10
87.07500
 20
31.47500
 42
1.000000
  0
VERTEX
 5
616
  8
TOOL_TOP
 10
88.17500
 20
31.47500
 42
1.000000
  0
VERTEX
 5
617
  8
TOOL_TOP
 10
87.07500
 20
31.47500
  0
SEQEND
  8
TOOL_TOP
  0
TEXT
  8
TOOLCODE_TOP
 10
87.04750
 20
31.20000
 40
0.550000
  1
T00
  0
TEXT
  8
TEXT_ALL
 10
91.75000
 20
28.00000
 40
2.142869
  1
VTM
 73
 1
 11
91.75000
 21
28.00000
  50
0.000037
  0
TEXT
  8
TEXT_ALL
 10
101.87500
 20
40.87500
 40
1.428580
  1
-OUT
 73
 1
 11
101.87500
 21
40.87500
  50
0.000037
  0
TEXT
  8
TEXT_ALL
 10
101.87500
 20
33.12500
 40
1.428580
  1
+OUT
 73
 1
 11
101.87500
 21
33.12500
  50
0.000037
  0
TEXT
  8
TEXT_ALL
 10
101.87500
 20
17.12500
 40
1.428580
  1
+OUT
 73
 1
 11
101.87500
 21
17.12500
  50
0.000037
  0
TEXT
  8
TEXT_ALL
 10
101.87500
 20
24.87500
 40
1.428580
  1
-OUT
 73
 1
 11
101.87500
 21
24.87500
  50
0.000037
  0
TEXT
  8
TEXT_ALL
 10
83.72500
 20
26.62500
 40
1.428580
  1
TM
 73
 1
 11
83.72500
 21
26.62500
  50
0.000037
  0
TEXT
  8
TEXT_ALL
 10
83.72500
 20
28.62500
 40
1.428580
  1
VC
 73
 1
 11
83.72500
 21
28.62500
  50
0.000037
  0
TEXT
  8
TEXT_ALL
 10
83.72500
 20
30.62500
 40
1.428580
  1
PC
 73
 1
 11
83.72500
 21
30.62500
  50
0.000037
  0
TEXT
  8
TEXT_ALL
 10
82.62500
 20
16.87500
 40
1.428580
  1
+IN
 73
 1
 11
82.62500
 21
16.87500
  50
0.000037
  0
TEXT
  8
TEXT_ALL
 10
82.62500
 20
40.87500
 40
1.428580
  1
-IN
 73
 1
 11
82.62500
 21
40.87500
  50
0.000037
  0
TEXT
  8
TEXT_1
 10
89.49999
 20
45.50000
 40
1.428580
  1
VICOR-MD2
 73
 1
 11
89.49999
 21
45.50000
  50
0.000039
  0
POLYLINE
 5
618
  8
COMP_OUTLINE_TOP
 66
1
 40
0.254000
 41
0.254000
  0
VERTEX
 5
619
  8
COMP_OUTLINE_TOP
 10
76.50000
 20
6.00000
 42
1.000000
  0
VERTEX
 5
61A
  8
COMP_OUTLINE_TOP
 10
79.50000
 20
6.00000
 42
1.000000
  0
VERTEX
 5
61B
  8
COMP_OUTLINE_TOP
 10
76.50000
 20
6.00000
  0
SEQEND
  8
COMP_OUTLINE_TOP
  0
POLYLINE
 5
61C
  8
PADLAYER_TOP
 66
1
 70
1
 40
1.250000
 41
1.250000
  0
VERTEX
 5
61D
  8
PADLAYER_TOP
 10
77.37500
 20
6.00000
 42
1.0
  0
VERTEX
 5
61E
  8
PADLAYER_TOP
 10
78.62500
 20
6.00000
 42
1.0
  0
SEQEND
  8
PADLAYER_TOP
  0
POLYLINE
 5
61F
  8
PADLAYER_BOTTOM
 66
1
 70
1
 40
1.250000
 41
1.250000
  0
VERTEX
 5
620
  8
PADLAYER_BOTTOM
 10
77.37500
 20
6.00000
 42
1.0
  0
VERTEX
 5
621
  8
PADLAYER_BOTTOM
 10
78.62500
 20
6.00000
 42
1.0
  0
SEQEND
  8
PADLAYER_BOTTOM
  0
POLYLINE
 5
622
  8
TOOL_TOP
 66
1
 40
0.254000
 41
0.254000
  0
VERTEX
 5
623
  8
TOOL_TOP
 10
77.25000
 20
6.00000
 42
1.000000
  0
VERTEX
 5
624
  8
TOOL_TOP
 10
78.75000
 20
6.00000
 42
1.000000
  0
VERTEX
 5
625
  8
TOOL_TOP
 10
77.25000
 20
6.00000
  0
SEQEND
  8
TOOL_TOP
  0
TEXT
  8
TOOLCODE_TOP
 10
77.21250
 20
5.62500
 40
0.750000
  1
T00
  0
TEXT
  8
TEXT_1
 10
86.25000
 20
2.00000
 40
1.428580
  1
L1
 73
 1
 11
86.25000
 21
2.00000
  0
POLYLINE
 5
626
  8
COMP_OUTLINE_TOP
 66
1
 40
0.254000
 41
0.254000
  0
VERTEX
 5
627
  8
COMP_OUTLINE_TOP
 10
73.75000
 20
6.00000
 42
1.000000
  0
VERTEX
 5
628
  8
COMP_OUTLINE_TOP
 10
76.75000
 20
6.00000
 42
1.000000
  0
VERTEX
 5
629
  8
COMP_OUTLINE_TOP
 10
73.75000
 20
6.00000
  0
SEQEND
  8
COMP_OUTLINE_TOP
  0
POLYLINE
 5
62A
  8
PADLAYER_TOP
 66
1
 70
1
 40
1.250000
 41
1.250000
  0
VERTEX
 5
62B
  8
PADLAYER_TOP
 10
74.62500
 20
6.00000
 42
1.0
  0
VERTEX
 5
62C
  8
PADLAYER_TOP
 10
75.87500
 20
6.00000
 42
1.0
  0
SEQEND
  8
PADLAYER_TOP
  0
POLYLINE
 5
62D
  8
PADLAYER_BOTTOM
 66
1
 70
1
 40
1.250000
 41
1.250000
  0
VERTEX
 5
62E
  8
PADLAYER_BOTTOM
 10
74.62500
 20
6.00000
 42
1.0
  0
VERTEX
 5
62F
  8
PADLAYER_BOTTOM
 10
75.87500
 20
6.00000
 42
1.0
  0
SEQEND
  8
PADLAYER_BOTTOM
  0
POLYLINE
 5
630
  8
TOOL_TOP
 66
1
 40
0.254000
 41
0.254000
  0
VERTEX
 5
631
  8
TOOL_TOP
 10
74.50000
 20
6.00000
 42
1.000000
  0
VERTEX
 5
632
  8
TOOL_TOP
 10
76.00000
 20
6.00000
 42
1.000000
  0
VERTEX
 5
633
  8
TOOL_TOP
 10
74.50000
 20
6.00000
  0
SEQEND
  8
TOOL_TOP
  0
TEXT
  8
TOOLCODE_TOP
 10
74.46250
 20
5.62500
 40
0.750000
  1
T00
  0
POLYLINE
 5
634
  8
COMP_OUTLINE_TOP
 66
1
 40
0.254000
 41
0.254000
  0
VERTEX
 5
635
  8
COMP_OUTLINE_TOP
 10
82.00000
 20
3.25000
 42
1.000000
  0
VERTEX
 5
636
  8
COMP_OUTLINE_TOP
 10
85.00000
 20
3.25000
 42
1.000000
  0
VERTEX
 5
637
  8
COMP_OUTLINE_TOP
 10
82.00000
 20
3.25000
  0
SEQEND
  8
COMP_OUTLINE_TOP
  0
POLYLINE
 5
638
  8
PADLAYER_TOP
 66
1
 70
1
 40
1.250000
 41
1.250000
  0
VERTEX
 5
639
  8
PADLAYER_TOP
 10
82.87500
 20
3.25000
 42
1.0
  0
VERTEX
 5
63A
  8
PADLAYER_TOP
 10
84.12500
 20
3.25000
 42
1.0
  0
SEQEND
  8
PADLAYER_TOP
  0
POLYLINE
 5
63B
  8
PADLAYER_BOTTOM
 66
1
 70
1
 40
1.250000
 41
1.250000
  0
VERTEX
 5
63C
  8
PADLAYER_BOTTOM
 10
82.87500
 20
3.25000
 42
1.0
  0
VERTEX
 5
63D
  8
PADLAYER_BOTTOM
 10
84.12500
 20
3.25000
 42
1.0
  0
SEQEND
  8
PADLAYER_BOTTOM
  0
POLYLINE
 5
63E
  8
TOOL_TOP
 66
1
 40
0.254000
 41
0.254000
  0
VERTEX
 5
63F
  8
TOOL_TOP
 10
82.75000
 20
3.25000
 42
1.000000
  0
VERTEX
 5
640
  8
TOOL_TOP
 10
84.25000
 20
3.25000
 42
1.000000
  0
VERTEX
 5
641
  8
TOOL_TOP
 10
82.75000
 20
3.25000
  0
SEQEND
  8
TOOL_TOP
  0
TEXT
  8
TOOLCODE_TOP
 10
82.71250
 20
2.87500
 40
0.750000
  1
T00
  0
POLYLINE
 5
642
  8
PADLAYER_TOP
 66
1
 70
1
 40
4.000000
 41
4.000000
  0
VERTEX
 5
643
  8
PADLAYER_TOP
 10
3.50000
 20
30.25000
 42
1.0
  0
VERTEX
 5
644
  8
PADLAYER_TOP
 10
7.50000
 20
30.25000
 42
1.0
  0
SEQEND
  8
PADLAYER_TOP
  0
POLYLINE
 5
645
  8
PADLAYER_BOTTOM
 66
1
 70
1
 40
4.000000
 41
4.000000
  0
VERTEX
 5
646
  8
PADLAYER_BOTTOM
 10
3.50000
 20
30.25000
 42
1.0
  0
VERTEX
 5
647
  8
PADLAYER_BOTTOM
 10
7.50000
 20
30.25000
 42
1.0
  0
SEQEND
  8
PADLAYER_BOTTOM
  0
POLYLINE
 5
648
  8
TOOL_TOP
 66
1
 40
0.254000
 41
0.254000
  0
VERTEX
 5
649
  8
TOOL_TOP
 10
3.40000
 20
30.25000
 42
1.000000
  0
VERTEX
 5
64A
  8
TOOL_TOP
 10
7.60000
 20
30.25000
 42
1.000000
  0
VERTEX
 5
64B
  8
TOOL_TOP
 10
3.40000
 20
30.25000
  0
SEQEND
  8
TOOL_TOP
  0
TEXT
  8
TOOLCODE_TOP
 10
3.29500
 20
29.20000
 40
2.100000
  1
T00
  0
POLYLINE
 5
64C
  8
PADLAYER_TOP
 66
1
 70
1
 40
4.000000
 41
4.000000
  0
VERTEX
 5
64D
  8
PADLAYER_TOP
 10
3.50000
 20
19.50000
 42
1.0
  0
VERTEX
 5
64E
  8
PADLAYER_TOP
 10
7.50000
 20
19.50000
 42
1.0
  0
SEQEND
  8
PADLAYER_TOP
  0
POLYLINE
 5
64F
  8
PADLAYER_BOTTOM
 66
1
 70
1
 40
4.000000
 41
4.000000
  0
VERTEX
 5
650
  8
PADLAYER_BOTTOM
 10
3.50000
 20
19.50000
 42
1.0
  0
VERTEX
 5
651
  8
PADLAYER_BOTTOM
 10
7.50000
 20
19.50000
 42
1.0
  0
SEQEND
  8
PADLAYER_BOTTOM
  0
POLYLINE
 5
652
  8
TOOL_TOP
 66
1
 40
0.254000
 41
0.254000
  0
VERTEX
 5
653
  8
TOOL_TOP
 10
3.40000
 20
19.50000
 42
1.000000
  0
VERTEX
 5
654
  8
TOOL_TOP
 10
7.60000
 20
19.50000
 42
1.000000
  0
VERTEX
 5
655
  8
TOOL_TOP
 10
3.40000
 20
19.50000
  0
SEQEND
  8
TOOL_TOP
  0
TEXT
  8
TOOLCODE_TOP
 10
3.29500
 20
18.45000
 40
2.100000
  1
T00
  0
POLYLINE
 5
656
  8
PADLAYER_TOP
 66
1
 70
1
 40
4.000000
 41
4.000000
  0
VERTEX
 5
657
  8
PADLAYER_TOP
 10
106.00000
 20
52.25000
 42
1.0
  0
VERTEX
 5
658
  8
PADLAYER_TOP
 10
110.00000
 20
52.25000
 42
1.0
  0
SEQEND
  8
PADLAYER_TOP
  0
POLYLINE
 5
659
  8
PADLAYER_BOTTOM
 66
1
 70
1
 40
4.000000
 41
4.000000
  0
VERTEX
 5
65A
  8
PADLAYER_BOTTOM
 10
106.00000
 20
52.25000
 42
1.0
  0
VERTEX
 5
65B
  8
PADLAYER_BOTTOM
 10
110.00000
 20
52.25000
 42
1.0
  0
SEQEND
  8
PADLAYER_BOTTOM
  0
POLYLINE
 5
65C
  8
TOOL_TOP
 66
1
 40
0.254000
 41
0.254000
  0
VERTEX
 5
65D
  8
TOOL_TOP
 10
105.90000
 20
52.25000
 42
1.000000
  0
VERTEX
 5
65E
  8
TOOL_TOP
 10
110.10000
 20
52.25000
 42
1.000000
  0
VERTEX
 5
65F
  8
TOOL_TOP
 10
105.90000
 20
52.25000
  0
SEQEND
  8
TOOL_TOP
  0
TEXT
  8
TOOLCODE_TOP
 10
105.79500
 20
51.20000
 40
2.100000
  1
T00
  0
POLYLINE
 5
660
  8
PADLAYER_TOP
 66
1
 70
1
 40
4.000000
 41
4.000000
  0
VERTEX
 5
661
  8
PADLAYER_TOP
 10
118.00000
 20
52.25000
 42
1.0
  0
VERTEX
 5
662
  8
PADLAYER_TOP
 10
122.00000
 20
52.25000
 42
1.0
  0
SEQEND
  8
PADLAYER_TOP
  0
POLYLINE
 5
663
  8
PADLAYER_BOTTOM
 66
1
 70
1
 40
4.000000
 41
4.000000
  0
VERTEX
 5
664
  8
PADLAYER_BOTTOM
 10
118.00000
 20
52.25000
 42
1.0
  0
VERTEX
 5
665
  8
PADLAYER_BOTTOM
 10
122.00000
 20
52.25000
 42
1.0
  0
SEQEND
  8
PADLAYER_BOTTOM
  0
POLYLINE
 5
666
  8
TOOL_TOP
 66
1
 40
0.254000
 41
0.254000
  0
VERTEX
 5
667
  8
TOOL_TOP
 10
117.90000
 20
52.25000
 42
1.000000
  0
VERTEX
 5
668
  8
TOOL_TOP
 10
122.10000
 20
52.25000
 42
1.000000
  0
VERTEX
 5
669
  8
TOOL_TOP
 10
117.90000
 20
52.25000
  0
SEQEND
  8
TOOL_TOP
  0
TEXT
  8
TOOLCODE_TOP
 10
117.79500
 20
51.20000
 40
2.100000
  1
T00
  0
POLYLINE
 5
66A
  8
COMP_OUTLINE_TOP
 66
1
 40
0.254000
 41
0.254000
  0
VERTEX
 5
66B
  8
COMP_OUTLINE_TOP
 10
44.25000
 20
12.75000
  0
VERTEX
 5
66C
  8
COMP_OUTLINE_TOP
 10
46.75000
 20
12.75000
 42
-0.333333
  0
SEQEND
  8
COMP_OUTLINE_TOP
  0
POLYLINE
 5
66D
  8
COMP_OUTLINE_TOP
 66
1
 70
1
 40
0.127000
 41
0.127000
  0
VERTEX
 5
66E
  8
COMP_OUTLINE_TOP
 10
44.18650
 20
12.75000
 42
1.0
  0
VERTEX
 5
66F
  8
COMP_OUTLINE_TOP
 10
44.31350
 20
12.75000
 42
1.0
  0
SEQEND
  8
COMP_OUTLINE_TOP
  0
POLYLINE
 5
670
  8
COMP_OUTLINE_TOP
 66
1
 70
1
 40
0.127000
 41
0.127000
  0
VERTEX
 5
671
  8
COMP_OUTLINE_TOP
 10
46.68650
 20
12.75000
 42
1.0
  0
VERTEX
 5
672
  8
COMP_OUTLINE_TOP
 10
46.81350
 20
12.75000
 42
1.0
  0
SEQEND
  8
COMP_OUTLINE_TOP
  0
POLYLINE
 5
673
  8
COMP_OUTLINE_TOP
 66
1
 40
0.254000
 41
0.254000
  0
VERTEX
 5
674
  8
COMP_OUTLINE_TOP
 10
46.75000
 20
12.75000
 42
-0.333333
  0
VERTEX
 5
675
  8
COMP_OUTLINE_TOP
 10
47.50000
 20
11.75000
 42
-0.333333
  0
SEQEND
  8
COMP_OUTLINE_TOP
  0
POLYLINE
 5
676
  8
COMP_OUTLINE_TOP
 66
1
 70
1
 40
0.127000
 41
0.127000
  0
VERTEX
 5
677
  8
COMP_OUTLINE_TOP
 10
46.68650
 20
12.75000
 42
1.0
  0
VERTEX
 5
678
  8
COMP_OUTLINE_TOP
 10
46.81350
 20
12.75000
 42
1.0
  0
SEQEND
  8
COMP_OUTLINE_TOP
  0
POLYLINE
 5
679
  8
COMP_OUTLINE_TOP
 66
1
 70
1
 40
0.127000
 41
0.127000
  0
VERTEX
 5
67A
  8
COMP_OUTLINE_TOP
 10
47.43650
 20
11.75000
 42
1.0
  0
VERTEX
 5
67B
  8
COMP_OUTLINE_TOP
 10
47.56350
 20
11.75000
 42
1.0
  0
SEQEND
  8
COMP_OUTLINE_TOP
  0
POLYLINE
 5
67C
  8
COMP_OUTLINE_TOP
 66
1
 40
0.254000
 41
0.254000
  0
VERTEX
 5
67D
  8
COMP_OUTLINE_TOP
 10
47.50000
 20
11.75000
 42
-0.333333
  0
VERTEX
 5
67E
  8
COMP_OUTLINE_TOP
 10
46.75000
 20
10.75000
  0
SEQEND
  8
COMP_OUTLINE_TOP
  0
POLYLINE
 5
67F
  8
COMP_OUTLINE_TOP
 66
1
 70
1
 40
0.127000
 41
0.127000
  0
VERTEX
 5
680
  8
COMP_OUTLINE_TOP
 10
47.43650
 20
11.75000
 42
1.0
  0
VERTEX
 5
681
  8
COMP_OUTLINE_TOP
 10
47.56350
 20
11.75000
 42
1.0
  0
SEQEND
  8
COMP_OUTLINE_TOP
  0
POLYLINE
 5
682
  8
COMP_OUTLINE_TOP
 66
1
 70
1
 40
0.127000
 41
0.127000
  0
VERTEX
 5
683
  8
COMP_OUTLINE_TOP
 10
46.68650
 20
10.75000
 42
1.0
  0
VERTEX
 5
684
  8
COMP_OUTLINE_TOP
 10
46.81350
 20
10.75000
 42
1.0
  0
SEQEND
  8
COMP_OUTLINE_TOP
  0
POLYLINE
 5
685
  8
COMP_OUTLINE_TOP
 66
1
 40
0.254000
 41
0.254000
  0
VERTEX
 5
686
  8
COMP_OUTLINE_TOP
 10
46.75000
 20
10.75000
  0
VERTEX
 5
687
  8
COMP_OUTLINE_TOP
 10
44.25000
 20
10.75000
 42
-0.333333
  0
SEQEND
  8
COMP_OUTLINE_TOP
  0
POLYLINE
 5
688
  8
COMP_OUTLINE_TOP
 66
1
 70
1
 40
0.127000
 41
0.127000
  0
VERTEX
 5
689
  8
COMP_OUTLINE_TOP
 10
46.68650
 20
10.75000
 42
1.0
  0
VERTEX
 5
68A
  8
COMP_OUTLINE_TOP
 10
46.81350
 20
10.75000
 42
1.0
  0
SEQEND
  8
COMP_OUTLINE_TOP
  0
POLYLINE
 5
68B
  8
COMP_OUTLINE_TOP
 66
1
 70
1
 40
0.127000
 41
0.127000
  0
VERTEX
 5
68C
  8
COMP_OUTLINE_TOP
 10
44.18650
 20
10.75000
 42
1.0
  0
VERTEX
 5
68D
  8
COMP_OUTLINE_TOP
 10
44.31350
 20
10.75000
 42
1.0
  0
SEQEND
  8
COMP_OUTLINE_TOP
  0
POLYLINE
 5
68E
  8
COMP_OUTLINE_TOP
 66
1
 40
0.254000
 41
0.254000
  0
VERTEX
 5
68F
  8
COMP_OUTLINE_TOP
 10
44.25000
 20
10.75000
 42
-0.333333
  0
VERTEX
 5
690
  8
COMP_OUTLINE_TOP
 10
43.50000
 20
11.75000
 42
-0.333333
  0
SEQEND
  8
COMP_OUTLINE_TOP
  0
POLYLINE
 5
691
  8
COMP_OUTLINE_TOP
 66
1
 70
1
 40
0.127000
 41
0.127000
  0
VERTEX
 5
692
  8
COMP_OUTLINE_TOP
 10
44.18650
 20
10.75000
 42
1.0
  0
VERTEX
 5
693
  8
COMP_OUTLINE_TOP
 10
44.31350
 20
10.75000
 42
1.0
  0
SEQEND
  8
COMP_OUTLINE_TOP
  0
POLYLINE
 5
694
  8
COMP_OUTLINE_TOP
 66
1
 70
1
 40
0.127000
 41
0.127000
  0
VERTEX
 5
695
  8
COMP_OUTLINE_TOP
 10
43.43650
 20
11.75000
 42
1.0
  0
VERTEX
 5
696
  8
COMP_OUTLINE_TOP
 10
43.56350
 20
11.75000
 42
1.0
  0
SEQEND
  8
COMP_OUTLINE_TOP
  0
POLYLINE
 5
697
  8
COMP_OUTLINE_TOP
 66
1
 40
0.254000
 41
0.254000
  0
VERTEX
 5
698
  8
COMP_OUTLINE_TOP
 10
43.50000
 20
11.75000
 42
-0.333333
  0
VERTEX
 5
699
  8
COMP_OUTLINE_TOP
 10
44.25000
 20
12.75000
  0
SEQEND
  8
COMP_OUTLINE_TOP
  0
POLYLINE
 5
69A
  8
COMP_OUTLINE_TOP
 66
1
 70
1
 40
0.127000
 41
0.127000
  0
VERTEX
 5
69B
  8
COMP_OUTLINE_TOP
 10
43.43650
 20
11.75000
 42
1.0
  0
VERTEX
 5
69C
  8
COMP_OUTLINE_TOP
 10
43.56350
 20
11.75000
 42
1.0
  0
SEQEND
  8
COMP_OUTLINE_TOP
  0
POLYLINE
 5
69D
  8
COMP_OUTLINE_TOP
 66
1
 70
1
 40
0.127000
 41
0.127000
  0
VERTEX
 5
69E
  8
COMP_OUTLINE_TOP
 10
44.18650
 20
12.75000
 42
1.0
  0
VERTEX
 5
69F
  8
COMP_OUTLINE_TOP
 10
44.31350
 20
12.75000
 42
1.0
  0
SEQEND
  8
COMP_OUTLINE_TOP
  0
POLYLINE
 5
6A0
  8
PADLAYER_TOP
 66
1
 70
1
 40
0.650000
 41
0.650000
  0
VERTEX
 5
6A1
  8
PADLAYER_TOP
 10
42.17500
 20
11.75000
 42
1.0
  0
VERTEX
 5
6A2
  8
PADLAYER_TOP
 10
42.82500
 20
11.75000
 42
1.0
  0
SEQEND
  8
PADLAYER_TOP
  0
POLYLINE
 5
6A3
  8
PADLAYER_BOTTOM
 66
1
 70
1
 40
0.650000
 41
0.650000
  0
VERTEX
 5
6A4
  8
PADLAYER_BOTTOM
 10
42.17500
 20
11.75000
 42
1.0
  0
VERTEX
 5
6A5
  8
PADLAYER_BOTTOM
 10
42.82500
 20
11.75000
 42
1.0
  0
SEQEND
  8
PADLAYER_BOTTOM
  0
POLYLINE
 5
6A6
  8
TOOL_TOP
 66
1
 40
0.254000
 41
0.254000
  0
VERTEX
 5
6A7
  8
TOOL_TOP
 10
42.10000
 20
11.75000
 42
1.000000
  0
VERTEX
 5
6A8
  8
TOOL_TOP
 10
42.90000
 20
11.75000
 42
1.000000
  0
VERTEX
 5
6A9
  8
TOOL_TOP
 10
42.10000
 20
11.75000
  0
SEQEND
  8
TOOL_TOP
  0
TEXT
  8
TOOLCODE_TOP
 10
42.08000
 20
11.55000
 40
0.400000
  1
T00
  0
POLYLINE
 5
6AA
  8
PADLAYER_TOP
 66
1
 70
1
 40
0.650000
 41
0.650000
  0
VERTEX
 5
6AB
  8
PADLAYER_TOP
 10
48.17500
 20
11.75000
 42
1.0
  0
VERTEX
 5
6AC
  8
PADLAYER_TOP
 10
48.82500
 20
11.75000
 42
1.0
  0
SEQEND
  8
PADLAYER_TOP
  0
POLYLINE
 5
6AD
  8
PADLAYER_BOTTOM
 66
1
 70
1
 40
0.650000
 41
0.650000
  0
VERTEX
 5
6AE
  8
PADLAYER_BOTTOM
 10
48.17500
 20
11.75000
 42
1.0
  0
VERTEX
 5
6AF
  8
PADLAYER_BOTTOM
 10
48.82500
 20
11.75000
 42
1.0
  0
SEQEND
  8
PADLAYER_BOTTOM
  0
POLYLINE
 5
6B0
  8
TOOL_TOP
 66
1
 40
0.254000
 41
0.254000
  0
VERTEX
 5
6B1
  8
TOOL_TOP
 10
48.10000
 20
11.75000
 42
1.000000
  0
VERTEX
 5
6B2
  8
TOOL_TOP
 10
48.90000
 20
11.75000
 42
1.000000
  0
VERTEX
 5
6B3
  8
TOOL_TOP
 10
48.10000
 20
11.75000
  0
SEQEND
  8
TOOL_TOP
  0
TEXT
  8
TOOLCODE_TOP
 10
48.08000
 20
11.55000
 40
0.400000
  1
T00
  0
TEXT
  8
TEXT_1
 10
39.00000
 20
11.00000
 40
1.428580
  1
R5
 73
 1
 11
39.00000
 21
11.00000
  0
POLYLINE
 5
6B4
  8
COMP_OUTLINE_TOP
 66
1
 40
0.254000
 41
0.254000
  0
VERTEX
 5
6B5
  8
COMP_OUTLINE_TOP
 10
44.25000
 20
10.50000
  0
VERTEX
 5
6B6
  8
COMP_OUTLINE_TOP
 10
46.75000
 20
10.50000
 42
-0.333333
  0
SEQEND
  8
COMP_OUTLINE_TOP
  0
POLYLINE
 5
6B7
  8
COMP_OUTLINE_TOP
 66
1
 70
1
 40
0.127000
 41
0.127000
  0
VERTEX
 5
6B8
  8
COMP_OUTLINE_TOP
 10
44.18650
 20
10.50000
 42
1.0
  0
VERTEX
 5
6B9
  8
COMP_OUTLINE_TOP
 10
44.31350
 20
10.50000
 42
1.0
  0
SEQEND
  8
COMP_OUTLINE_TOP
  0
POLYLINE
 5
6BA
  8
COMP_OUTLINE_TOP
 66
1
 70
1
 40
0.127000
 41
0.127000
  0
VERTEX
 5
6BB
  8
COMP_OUTLINE_TOP
 10
46.68650
 20
10.50000
 42
1.0
  0
VERTEX
 5
6BC
  8
COMP_OUTLINE_TOP
 10
46.81350
 20
10.50000
 42
1.0
  0
SEQEND
  8
COMP_OUTLINE_TOP
  0
POLYLINE
 5
6BD
  8
COMP_OUTLINE_TOP
 66
1
 40
0.254000
 41
0.254000
  0
VERTEX
 5
6BE
  8
COMP_OUTLINE_TOP
 10
46.75000
 20
10.50000
 42
-0.333333
  0
VERTEX
 5
6BF
  8
COMP_OUTLINE_TOP
 10
47.50000
 20
9.50000
 42
-0.333333
  0
SEQEND
  8
COMP_OUTLINE_TOP
  0
POLYLINE
 5
6C0
  8
COMP_OUTLINE_TOP
 66
1
 70
1
 40
0.127000
 41
0.127000
  0
VERTEX
 5
6C1
  8
COMP_OUTLINE_TOP
 10
46.68650
 20
10.50000
 42
1.0
  0
VERTEX
 5
6C2
  8
COMP_OUTLINE_TOP
 10
46.81350
 20
10.50000
 42
1.0
  0
SEQEND
  8
COMP_OUTLINE_TOP
  0
POLYLINE
 5
6C3
  8
COMP_OUTLINE_TOP
 66
1
 70
1
 40
0.127000
 41
0.127000
  0
VERTEX
 5
6C4
  8
COMP_OUTLINE_TOP
 10
47.43650
 20
9.50000
 42
1.0
  0
VERTEX
 5
6C5
  8
COMP_OUTLINE_TOP
 10
47.56350
 20
9.50000
 42
1.0
  0
SEQEND
  8
COMP_OUTLINE_TOP
  0
POLYLINE
 5
6C6
  8
COMP_OUTLINE_TOP
 66
1
 40
0.254000
 41
0.254000
  0
VERTEX
 5
6C7
  8
COMP_OUTLINE_TOP
 10
47.50000
 20
9.50000
 42
-0.333333
  0
VERTEX
 5
6C8
  8
COMP_OUTLINE_TOP
 10
46.75000
 20
8.50000
  0
SEQEND
  8
COMP_OUTLINE_TOP
  0
POLYLINE
 5
6C9
  8
COMP_OUTLINE_TOP
 66
1
 70
1
 40
0.127000
 41
0.127000
  0
VERTEX
 5
6CA
  8
COMP_OUTLINE_TOP
 10
47.43650
 20
9.50000
 42
1.0
  0
VERTEX
 5
6CB
  8
COMP_OUTLINE_TOP
 10
47.56350
 20
9.50000
 42
1.0
  0
SEQEND
  8
COMP_OUTLINE_TOP
  0
POLYLINE
 5
6CC
  8
COMP_OUTLINE_TOP
 66
1
 70
1
 40
0.127000
 41
0.127000
  0
VERTEX
 5
6CD
  8
COMP_OUTLINE_TOP
 10
46.68650
 20
8.50000
 42
1.0
  0
VERTEX
 5
6CE
  8
COMP_OUTLINE_TOP
 10
46.81350
 20
8.50000
 42
1.0
  0
SEQEND
  8
COMP_OUTLINE_TOP
  0
POLYLINE
 5
6CF
  8
COMP_OUTLINE_TOP
 66
1
 40
0.254000
 41
0.254000
  0
VERTEX
 5
6D0
  8
COMP_OUTLINE_TOP
 10
46.75000
 20
8.50000
  0
VERTEX
 5
6D1
  8
COMP_OUTLINE_TOP
 10
44.25000
 20
8.50000
 42
-0.333333
  0
SEQEND
  8
COMP_OUTLINE_TOP
  0
POLYLINE
 5
6D2
  8
COMP_OUTLINE_TOP
 66
1
 70
1
 40
0.127000
 41
0.127000
  0
VERTEX
 5
6D3
  8
COMP_OUTLINE_TOP
 10
46.68650
 20
8.50000
 42
1.0
  0
VERTEX
 5
6D4
  8
COMP_OUTLINE_TOP
 10
46.81350
 20
8.50000
 42
1.0
  0
SEQEND
  8
COMP_OUTLINE_TOP
  0
POLYLINE
 5
6D5
  8
COMP_OUTLINE_TOP
 66
1
 70
1
 40
0.127000
 41
0.127000
  0
VERTEX
 5
6D6
  8
COMP_OUTLINE_TOP
 10
44.18650
 20
8.50000
 42
1.0
  0
VERTEX
 5
6D7
  8
COMP_OUTLINE_TOP
 10
44.31350
 20
8.50000
 42
1.0
  0
SEQEND
  8
COMP_OUTLINE_TOP
  0
POLYLINE
 5
6D8
  8
COMP_OUTLINE_TOP
 66
1
 40
0.254000
 41
0.254000
  0
VERTEX
 5
6D9
  8
COMP_OUTLINE_TOP
 10
44.25000
 20
8.50000
 42
-0.333333
  0
VERTEX
 5
6DA
  8
COMP_OUTLINE_TOP
 10
43.50000
 20
9.50000
 42
-0.333333
  0
SEQEND
  8
COMP_OUTLINE_TOP
  0
POLYLINE
 5
6DB
  8
COMP_OUTLINE_TOP
 66
1
 70
1
 40
0.127000
 41
0.127000
  0
VERTEX
 5
6DC
  8
COMP_OUTLINE_TOP
 10
44.18650
 20
8.50000
 42
1.0
  0
VERTEX
 5
6DD
  8
COMP_OUTLINE_TOP
 10
44.31350
 20
8.50000
 42
1.0
  0
SEQEND
  8
COMP_OUTLINE_TOP
  0
POLYLINE
 5
6DE
  8
COMP_OUTLINE_TOP
 66
1
 70
1
 40
0.127000
 41
0.127000
  0
VERTEX
 5
6DF
  8
COMP_OUTLINE_TOP
 10
43.43650
 20
9.50000
 42
1.0
  0
VERTEX
 5
6E0
  8
COMP_OUTLINE_TOP
 10
43.56350
 20
9.50000
 42
1.0
  0
SEQEND
  8
COMP_OUTLINE_TOP
  0
POLYLINE
 5
6E1
  8
COMP_OUTLINE_TOP
 66
1
 40
0.254000
 41
0.254000
  0
VERTEX
 5
6E2
  8
COMP_OUTLINE_TOP
 10
43.50000
 20
9.50000
 42
-0.333333
  0
VERTEX
 5
6E3
  8
COMP_OUTLINE_TOP
 10
44.25000
 20
10.50000
  0
SEQEND
  8
COMP_OUTLINE_TOP
  0
POLYLINE
 5
6E4
  8
COMP_OUTLINE_TOP
 66
1
 70
1
 40
0.127000
 41
0.127000
  0
VERTEX
 5
6E5
  8
COMP_OUTLINE_TOP
 10
43.43650
 20
9.50000
 42
1.0
  0
VERTEX
 5
6E6
  8
COMP_OUTLINE_TOP
 10
43.56350
 20
9.50000
 42
1.0
  0
SEQEND
  8
COMP_OUTLINE_TOP
  0
POLYLINE
 5
6E7
  8
COMP_OUTLINE_TOP
 66
1
 70
1
 40
0.127000
 41
0.127000
  0
VERTEX
 5
6E8
  8
COMP_OUTLINE_TOP
 10
44.18650
 20
10.50000
 42
1.0
  0
VERTEX
 5
6E9
  8
COMP_OUTLINE_TOP
 10
44.31350
 20
10.50000
 42
1.0
  0
SEQEND
  8
COMP_OUTLINE_TOP
  0
POLYLINE
 5
6EA
  8
PADLAYER_TOP
 66
1
 70
1
 40
0.650000
 41
0.650000
  0
VERTEX
 5
6EB
  8
PADLAYER_TOP
 10
42.17500
 20
9.50000
 42
1.0
  0
VERTEX
 5
6EC
  8
PADLAYER_TOP
 10
42.82500
 20
9.50000
 42
1.0
  0
SEQEND
  8
PADLAYER_TOP
  0
POLYLINE
 5
6ED
  8
PADLAYER_BOTTOM
 66
1
 70
1
 40
0.650000
 41
0.650000
  0
VERTEX
 5
6EE
  8
PADLAYER_BOTTOM
 10
42.17500
 20
9.50000
 42
1.0
  0
VERTEX
 5
6EF
  8
PADLAYER_BOTTOM
 10
42.82500
 20
9.50000
 42
1.0
  0
SEQEND
  8
PADLAYER_BOTTOM
  0
POLYLINE
 5
6F0
  8
TOOL_TOP
 66
1
 40
0.254000
 41
0.254000
  0
VERTEX
 5
6F1
  8
TOOL_TOP
 10
42.10000
 20
9.50000
 42
1.000000
  0
VERTEX
 5
6F2
  8
TOOL_TOP
 10
42.90000
 20
9.50000
 42
1.000000
  0
VERTEX
 5
6F3
  8
TOOL_TOP
 10
42.10000
 20
9.50000
  0
SEQEND
  8
TOOL_TOP
  0
TEXT
  8
TOOLCODE_TOP
 10
42.08000
 20
9.30000
 40
0.400000
  1
T00
  0
POLYLINE
 5
6F4
  8
PADLAYER_TOP
 66
1
 70
1
 40
0.650000
 41
0.650000
  0
VERTEX
 5
6F5
  8
PADLAYER_TOP
 10
48.17500
 20
9.50000
 42
1.0
  0
VERTEX
 5
6F6
  8
PADLAYER_TOP
 10
48.82500
 20
9.50000
 42
1.0
  0
SEQEND
  8
PADLAYER_TOP
  0
POLYLINE
 5
6F7
  8
PADLAYER_BOTTOM
 66
1
 70
1
 40
0.650000
 41
0.650000
  0
VERTEX
 5
6F8
  8
PADLAYER_BOTTOM
 10
48.17500
 20
9.50000
 42
1.0
  0
VERTEX
 5
6F9
  8
PADLAYER_BOTTOM
 10
48.82500
 20
9.50000
 42
1.0
  0
SEQEND
  8
PADLAYER_BOTTOM
  0
POLYLINE
 5
6FA
  8
TOOL_TOP
 66
1
 40
0.254000
 41
0.254000
  0
VERTEX
 5
6FB
  8
TOOL_TOP
 10
48.10000
 20
9.50000
 42
1.000000
  0
VERTEX
 5
6FC
  8
TOOL_TOP
 10
48.90000
 20
9.50000
 42
1.000000
  0
VERTEX
 5
6FD
  8
TOOL_TOP
 10
48.10000
 20
9.50000
  0
SEQEND
  8
TOOL_TOP
  0
TEXT
  8
TOOLCODE_TOP
 10
48.08000
 20
9.30000
 40
0.400000
  1
T00
  0
TEXT
  8
TEXT_1
 10
39.00000
 20
8.75000
 40
1.428580
  1
R6
 73
 1
 11
39.00000
 21
8.75000
  0
POLYLINE
 5
6FE
  8
COMP_OUTLINE_TOP
 66
1
 40
0.254000
 41
0.254000
  0
VERTEX
 5
6FF
  8
COMP_OUTLINE_TOP
 10
44.25000
 20
8.25000
  0
VERTEX
 5
700
  8
COMP_OUTLINE_TOP
 10
46.75000
 20
8.25000
 42
-0.333333
  0
SEQEND
  8
COMP_OUTLINE_TOP
  0
POLYLINE
 5
701
  8
COMP_OUTLINE_TOP
 66
1
 70
1
 40
0.127000
 41
0.127000
  0
VERTEX
 5
702
  8
COMP_OUTLINE_TOP
 10
44.18650
 20
8.25000
 42
1.0
  0
VERTEX
 5
703
  8
COMP_OUTLINE_TOP
 10
44.31350
 20
8.25000
 42
1.0
  0
SEQEND
  8
COMP_OUTLINE_TOP
  0
POLYLINE
 5
704
  8
COMP_OUTLINE_TOP
 66
1
 70
1
 40
0.127000
 41
0.127000
  0
VERTEX
 5
705
  8
COMP_OUTLINE_TOP
 10
46.68650
 20
8.25000
 42
1.0
  0
VERTEX
 5
706
  8
COMP_OUTLINE_TOP
 10
46.81350
 20
8.25000
 42
1.0
  0
SEQEND
  8
COMP_OUTLINE_TOP
  0
POLYLINE
 5
707
  8
COMP_OUTLINE_TOP
 66
1
 40
0.254000
 41
0.254000
  0
VERTEX
 5
708
  8
COMP_OUTLINE_TOP
 10
46.75000
 20
8.25000
 42
-0.333333
  0
VERTEX
 5
709
  8
COMP_OUTLINE_TOP
 10
47.50000
 20
7.25000
 42
-0.333333
  0
SEQEND
  8
COMP_OUTLINE_TOP
  0
POLYLINE
 5
70A
  8
COMP_OUTLINE_TOP
 66
1
 70
1
 40
0.127000
 41
0.127000
  0
VERTEX
 5
70B
  8
COMP_OUTLINE_TOP
 10
46.68650
 20
8.25000
 42
1.0
  0
VERTEX
 5
70C
  8
COMP_OUTLINE_TOP
 10
46.81350
 20
8.25000
 42
1.0
  0
SEQEND
  8
COMP_OUTLINE_TOP
  0
POLYLINE
 5
70D
  8
COMP_OUTLINE_TOP
 66
1
 70
1
 40
0.127000
 41
0.127000
  0
VERTEX
 5
70E
  8
COMP_OUTLINE_TOP
 10
47.43650
 20
7.25000
 42
1.0
  0
VERTEX
 5
70F
  8
COMP_OUTLINE_TOP
 10
47.56350
 20
7.25000
 42
1.0
  0
SEQEND
  8
COMP_OUTLINE_TOP
  0
POLYLINE
 5
710
  8
COMP_OUTLINE_TOP
 66
1
 40
0.254000
 41
0.254000
  0
VERTEX
 5
711
  8
COMP_OUTLINE_TOP
 10
47.50000
 20
7.25000
 42
-0.333333
  0
VERTEX
 5
712
  8
COMP_OUTLINE_TOP
 10
46.75000
 20
6.25000
  0
SEQEND
  8
COMP_OUTLINE_TOP
  0
POLYLINE
 5
713
  8
COMP_OUTLINE_TOP
 66
1
 70
1
 40
0.127000
 41
0.127000
  0
VERTEX
 5
714
  8
COMP_OUTLINE_TOP
 10
47.43650
 20
7.25000
 42
1.0
  0
VERTEX
 5
715
  8
COMP_OUTLINE_TOP
 10
47.56350
 20
7.25000
 42
1.0
  0
SEQEND
  8
COMP_OUTLINE_TOP
  0
POLYLINE
 5
716
  8
COMP_OUTLINE_TOP
 66
1
 70
1
 40
0.127000
 41
0.127000
  0
VERTEX
 5
717
  8
COMP_OUTLINE_TOP
 10
46.68650
 20
6.25000
 42
1.0
  0
VERTEX
 5
718
  8
COMP_OUTLINE_TOP
 10
46.81350
 20
6.25000
 42
1.0
  0
SEQEND
  8
COMP_OUTLINE_TOP
  0
POLYLINE
 5
719
  8
COMP_OUTLINE_TOP
 66
1
 40
0.254000
 41
0.254000
  0
VERTEX
 5
71A
  8
COMP_OUTLINE_TOP
 10
46.75000
 20
6.25000
  0
VERTEX
 5
71B
  8
COMP_OUTLINE_TOP
 10
44.25000
 20
6.25000
 42
-0.333333
  0
SEQEND
  8
COMP_OUTLINE_TOP
  0
POLYLINE
 5
71C
  8
COMP_OUTLINE_TOP
 66
1
 70
1
 40
0.127000
 41
0.127000
  0
VERTEX
 5
71D
  8
COMP_OUTLINE_TOP
 10
46.68650
 20
6.25000
 42
1.0
  0
VERTEX
 5
71E
  8
COMP_OUTLINE_TOP
 10
46.81350
 20
6.25000
 42
1.0
  0
SEQEND
  8
COMP_OUTLINE_TOP
  0
POLYLINE
 5
71F
  8
COMP_OUTLINE_TOP
 66
1
 70
1
 40
0.127000
 41
0.127000
  0
VERTEX
 5
720
  8
COMP_OUTLINE_TOP
 10
44.18650
 20
6.25000
 42
1.0
  0
VERTEX
 5
721
  8
COMP_OUTLINE_TOP
 10
44.31350
 20
6.25000
 42
1.0
  0
SEQEND
  8
COMP_OUTLINE_TOP
  0
POLYLINE
 5
722
  8
COMP_OUTLINE_TOP
 66
1
 40
0.254000
 41
0.254000
  0
VERTEX
 5
723
  8
COMP_OUTLINE_TOP
 10
44.25000
 20
6.25000
 42
-0.333333
  0
VERTEX
 5
724
  8
COMP_OUTLINE_TOP
 10
43.50000
 20
7.25000
 42
-0.333333
  0
SEQEND
  8
COMP_OUTLINE_TOP
  0
POLYLINE
 5
725
  8
COMP_OUTLINE_TOP
 66
1
 70
1
 40
0.127000
 41
0.127000
  0
VERTEX
 5
726
  8
COMP_OUTLINE_TOP
 10
44.18650
 20
6.25000
 42
1.0
  0
VERTEX
 5
727
  8
COMP_OUTLINE_TOP
 10
44.31350
 20
6.25000
 42
1.0
  0
SEQEND
  8
COMP_OUTLINE_TOP
  0
POLYLINE
 5
728
  8
COMP_OUTLINE_TOP
 66
1
 70
1
 40
0.127000
 41
0.127000
  0
VERTEX
 5
729
  8
COMP_OUTLINE_TOP
 10
43.43650
 20
7.25000
 42
1.0
  0
VERTEX
 5
72A
  8
COMP_OUTLINE_TOP
 10
43.56350
 20
7.25000
 42
1.0
  0
SEQEND
  8
COMP_OUTLINE_TOP
  0
POLYLINE
 5
72B
  8
COMP_OUTLINE_TOP
 66
1
 40
0.254000
 41
0.254000
  0
VERTEX
 5
72C
  8
COMP_OUTLINE_TOP
 10
43.50000
 20
7.25000
 42
-0.333333
  0
VERTEX
 5
72D
  8
COMP_OUTLINE_TOP
 10
44.25000
 20
8.25000
  0
SEQEND
  8
COMP_OUTLINE_TOP
  0
POLYLINE
 5
72E
  8
COMP_OUTLINE_TOP
 66
1
 70
1
 40
0.127000
 41
0.127000
  0
VERTEX
 5
72F
  8
COMP_OUTLINE_TOP
 10
43.43650
 20
7.25000
 42
1.0
  0
VERTEX
 5
730
  8
COMP_OUTLINE_TOP
 10
43.56350
 20
7.25000
 42
1.0
  0
SEQEND
  8
COMP_OUTLINE_TOP
  0
POLYLINE
 5
731
  8
COMP_OUTLINE_TOP
 66
1
 70
1
 40
0.127000
 41
0.127000
  0
VERTEX
 5
732
  8
COMP_OUTLINE_TOP
 10
44.18650
 20
8.25000
 42
1.0
  0
VERTEX
 5
733
  8
COMP_OUTLINE_TOP
 10
44.31350
 20
8.25000
 42
1.0
  0
SEQEND
  8
COMP_OUTLINE_TOP
  0
POLYLINE
 5
734
  8
PADLAYER_TOP
 66
1
 70
1
 40
0.650000
 41
0.650000
  0
VERTEX
 5
735
  8
PADLAYER_TOP
 10
42.17500
 20
7.25000
 42
1.0
  0
VERTEX
 5
736
  8
PADLAYER_TOP
 10
42.82500
 20
7.25000
 42
1.0
  0
SEQEND
  8
PADLAYER_TOP
  0
POLYLINE
 5
737
  8
PADLAYER_BOTTOM
 66
1
 70
1
 40
0.650000
 41
0.650000
  0
VERTEX
 5
738
  8
PADLAYER_BOTTOM
 10
42.17500
 20
7.25000
 42
1.0
  0
VERTEX
 5
739
  8
PADLAYER_BOTTOM
 10
42.82500
 20
7.25000
 42
1.0
  0
SEQEND
  8
PADLAYER_BOTTOM
  0
POLYLINE
 5
73A
  8
TOOL_TOP
 66
1
 40
0.254000
 41
0.254000
  0
VERTEX
 5
73B
  8
TOOL_TOP
 10
42.10000
 20
7.25000
 42
1.000000
  0
VERTEX
 5
73C
  8
TOOL_TOP
 10
42.90000
 20
7.25000
 42
1.000000
  0
VERTEX
 5
73D
  8
TOOL_TOP
 10
42.10000
 20
7.25000
  0
SEQEND
  8
TOOL_TOP
  0
TEXT
  8
TOOLCODE_TOP
 10
42.08000
 20
7.05000
 40
0.400000
  1
T00
  0
POLYLINE
 5
73E
  8
PADLAYER_TOP
 66
1
 70
1
 40
0.650000
 41
0.650000
  0
VERTEX
 5
73F
  8
PADLAYER_TOP
 10
48.17500
 20
7.25000
 42
1.0
  0
VERTEX
 5
740
  8
PADLAYER_TOP
 10
48.82500
 20
7.25000
 42
1.0
  0
SEQEND
  8
PADLAYER_TOP
  0
POLYLINE
 5
741
  8
PADLAYER_BOTTOM
 66
1
 70
1
 40
0.650000
 41
0.650000
  0
VERTEX
 5
742
  8
PADLAYER_BOTTOM
 10
48.17500
 20
7.25000
 42
1.0
  0
VERTEX
 5
743
  8
PADLAYER_BOTTOM
 10
48.82500
 20
7.25000
 42
1.0
  0
SEQEND
  8
PADLAYER_BOTTOM
  0
POLYLINE
 5
744
  8
TOOL_TOP
 66
1
 40
0.254000
 41
0.254000
  0
VERTEX
 5
745
  8
TOOL_TOP
 10
48.10000
 20
7.25000
 42
1.000000
  0
VERTEX
 5
746
  8
TOOL_TOP
 10
48.90000
 20
7.25000
 42
1.000000
  0
VERTEX
 5
747
  8
TOOL_TOP
 10
48.10000
 20
7.25000
  0
SEQEND
  8
TOOL_TOP
  0
TEXT
  8
TOOLCODE_TOP
 10
48.08000
 20
7.05000
 40
0.400000
  1
T00
  0
TEXT
  8
TEXT_1
 10
39.00000
 20
6.50000
 40
1.428580
  1
R7
 73
 1
 11
39.00000
 21
6.50000
  0
POLYLINE
 5
748
  8
COMP_OUTLINE_TOP
 66
1
 40
0.254000
 41
0.254000
  0
VERTEX
 5
749
  8
COMP_OUTLINE_TOP
 10
44.25000
 20
6.00000
  0
VERTEX
 5
74A
  8
COMP_OUTLINE_TOP
 10
46.75000
 20
6.00000
 42
-0.333333
  0
SEQEND
  8
COMP_OUTLINE_TOP
  0
POLYLINE
 5
74B
  8
COMP_OUTLINE_TOP
 66
1
 70
1
 40
0.127000
 41
0.127000
  0
VERTEX
 5
74C
  8
COMP_OUTLINE_TOP
 10
44.18650
 20
6.00000
 42
1.0
  0
VERTEX
 5
74D
  8
COMP_OUTLINE_TOP
 10
44.31350
 20
6.00000
 42
1.0
  0
SEQEND
  8
COMP_OUTLINE_TOP
  0
POLYLINE
 5
74E
  8
COMP_OUTLINE_TOP
 66
1
 70
1
 40
0.127000
 41
0.127000
  0
VERTEX
 5
74F
  8
COMP_OUTLINE_TOP
 10
46.68650
 20
6.00000
 42
1.0
  0
VERTEX
 5
750
  8
COMP_OUTLINE_TOP
 10
46.81350
 20
6.00000
 42
1.0
  0
SEQEND
  8
COMP_OUTLINE_TOP
  0
POLYLINE
 5
751
  8
COMP_OUTLINE_TOP
 66
1
 40
0.254000
 41
0.254000
  0
VERTEX
 5
752
  8
COMP_OUTLINE_TOP
 10
46.75000
 20
6.00000
 42
-0.333333
  0
VERTEX
 5
753
  8
COMP_OUTLINE_TOP
 10
47.50000
 20
5.00000
 42
-0.333333
  0
SEQEND
  8
COMP_OUTLINE_TOP
  0
POLYLINE
 5
754
  8
COMP_OUTLINE_TOP
 66
1
 70
1
 40
0.127000
 41
0.127000
  0
VERTEX
 5
755
  8
COMP_OUTLINE_TOP
 10
46.68650
 20
6.00000
 42
1.0
  0
VERTEX
 5
756
  8
COMP_OUTLINE_TOP
 10
46.81350
 20
6.00000
 42
1.0
  0
SEQEND
  8
COMP_OUTLINE_TOP
  0
POLYLINE
 5
757
  8
COMP_OUTLINE_TOP
 66
1
 70
1
 40
0.127000
 41
0.127000
  0
VERTEX
 5
758
  8
COMP_OUTLINE_TOP
 10
47.43650
 20
5.00000
 42
1.0
  0
VERTEX
 5
759
  8
COMP_OUTLINE_TOP
 10
47.56350
 20
5.00000
 42
1.0
  0
SEQEND
  8
COMP_OUTLINE_TOP
  0
POLYLINE
 5
75A
  8
COMP_OUTLINE_TOP
 66
1
 40
0.254000
 41
0.254000
  0
VERTEX
 5
75B
  8
COMP_OUTLINE_TOP
 10
47.50000
 20
5.00000
 42
-0.333333
  0
VERTEX
 5
75C
  8
COMP_OUTLINE_TOP
 10
46.75000
 20
4.00000
  0
SEQEND
  8
COMP_OUTLINE_TOP
  0
POLYLINE
 5
75D
  8
COMP_OUTLINE_TOP
 66
1
 70
1
 40
0.127000
 41
0.127000
  0
VERTEX
 5
75E
  8
COMP_OUTLINE_TOP
 10
47.43650
 20
5.00000
 42
1.0
  0
VERTEX
 5
75F
  8
COMP_OUTLINE_TOP
 10
47.56350
 20
5.00000
 42
1.0
  0
SEQEND
  8
COMP_OUTLINE_TOP
  0
POLYLINE
 5
760
  8
COMP_OUTLINE_TOP
 66
1
 70
1
 40
0.127000
 41
0.127000
  0
VERTEX
 5
761
  8
COMP_OUTLINE_TOP
 10
46.68650
 20
4.00000
 42
1.0
  0
VERTEX
 5
762
  8
COMP_OUTLINE_TOP
 10
46.81350
 20
4.00000
 42
1.0
  0
SEQEND
  8
COMP_OUTLINE_TOP
  0
POLYLINE
 5
763
  8
COMP_OUTLINE_TOP
 66
1
 40
0.254000
 41
0.254000
  0
VERTEX
 5
764
  8
COMP_OUTLINE_TOP
 10
46.75000
 20
4.00000
  0
VERTEX
 5
765
  8
COMP_OUTLINE_TOP
 10
44.25000
 20
4.00000
 42
-0.333333
  0
SEQEND
  8
COMP_OUTLINE_TOP
  0
POLYLINE
 5
766
  8
COMP_OUTLINE_TOP
 66
1
 70
1
 40
0.127000
 41
0.127000
  0
VERTEX
 5
767
  8
COMP_OUTLINE_TOP
 10
46.68650
 20
4.00000
 42
1.0
  0
VERTEX
 5
768
  8
COMP_OUTLINE_TOP
 10
46.81350
 20
4.00000
 42
1.0
  0
SEQEND
  8
COMP_OUTLINE_TOP
  0
POLYLINE
 5
769
  8
COMP_OUTLINE_TOP
 66
1
 70
1
 40
0.127000
 41
0.127000
  0
VERTEX
 5
76A
  8
COMP_OUTLINE_TOP
 10
44.18650
 20
4.00000
 42
1.0
  0
VERTEX
 5
76B
  8
COMP_OUTLINE_TOP
 10
44.31350
 20
4.00000
 42
1.0
  0
SEQEND
  8
COMP_OUTLINE_TOP
  0
POLYLINE
 5
76C
  8
COMP_OUTLINE_TOP
 66
1
 40
0.254000
 41
0.254000
  0
VERTEX
 5
76D
  8
COMP_OUTLINE_TOP
 10
44.25000
 20
4.00000
 42
-0.333333
  0
VERTEX
 5
76E
  8
COMP_OUTLINE_TOP
 10
43.50000
 20
5.00000
 42
-0.333333
  0
SEQEND
  8
COMP_OUTLINE_TOP
  0
POLYLINE
 5
76F
  8
COMP_OUTLINE_TOP
 66
1
 70
1
 40
0.127000
 41
0.127000
  0
VERTEX
 5
770
  8
COMP_OUTLINE_TOP
 10
44.18650
 20
4.00000
 42
1.0
  0
VERTEX
 5
771
  8
COMP_OUTLINE_TOP
 10
44.31350
 20
4.00000
 42
1.0
  0
SEQEND
  8
COMP_OUTLINE_TOP
  0
POLYLINE
 5
772
  8
COMP_OUTLINE_TOP
 66
1
 70
1
 40
0.127000
 41
0.127000
  0
VERTEX
 5
773
  8
COMP_OUTLINE_TOP
 10
43.43650
 20
5.00000
 42
1.0
  0
VERTEX
 5
774
  8
COMP_OUTLINE_TOP
 10
43.56350
 20
5.00000
 42
1.0
  0
SEQEND
  8
COMP_OUTLINE_TOP
  0
POLYLINE
 5
775
  8
COMP_OUTLINE_TOP
 66
1
 40
0.254000
 41
0.254000
  0
VERTEX
 5
776
  8
COMP_OUTLINE_TOP
 10
43.50000
 20
5.00000
 42
-0.333333
  0
VERTEX
 5
777
  8
COMP_OUTLINE_TOP
 10
44.25000
 20
6.00000
  0
SEQEND
  8
COMP_OUTLINE_TOP
  0
POLYLINE
 5
778
  8
COMP_OUTLINE_TOP
 66
1
 70
1
 40
0.127000
 41
0.127000
  0
VERTEX
 5
779
  8
COMP_OUTLINE_TOP
 10
43.43650
 20
5.00000
 42
1.0
  0
VERTEX
 5
77A
  8
COMP_OUTLINE_TOP
 10
43.56350
 20
5.00000
 42
1.0
  0
SEQEND
  8
COMP_OUTLINE_TOP
  0
POLYLINE
 5
77B
  8
COMP_OUTLINE_TOP
 66
1
 70
1
 40
0.127000
 41
0.127000
  0
VERTEX
 5
77C
  8
COMP_OUTLINE_TOP
 10
44.18650
 20
6.00000
 42
1.0
  0
VERTEX
 5
77D
  8
COMP_OUTLINE_TOP
 10
44.31350
 20
6.00000
 42
1.0
  0
SEQEND
  8
COMP_OUTLINE_TOP
  0
POLYLINE
 5
77E
  8
PADLAYER_TOP
 66
1
 70
1
 40
0.650000
 41
0.650000
  0
VERTEX
 5
77F
  8
PADLAYER_TOP
 10
42.17500
 20
5.00000
 42
1.0
  0
VERTEX
 5
780
  8
PADLAYER_TOP
 10
42.82500
 20
5.00000
 42
1.0
  0
SEQEND
  8
PADLAYER_TOP
  0
POLYLINE
 5
781
  8
PADLAYER_BOTTOM
 66
1
 70
1
 40
0.650000
 41
0.650000
  0
VERTEX
 5
782
  8
PADLAYER_BOTTOM
 10
42.17500
 20
5.00000
 42
1.0
  0
VERTEX
 5
783
  8
PADLAYER_BOTTOM
 10
42.82500
 20
5.00000
 42
1.0
  0
SEQEND
  8
PADLAYER_BOTTOM
  0
POLYLINE
 5
784
  8
TOOL_TOP
 66
1
 40
0.254000
 41
0.254000
  0
VERTEX
 5
785
  8
TOOL_TOP
 10
42.10000
 20
5.00000
 42
1.000000
  0
VERTEX
 5
786
  8
TOOL_TOP
 10
42.90000
 20
5.00000
 42
1.000000
  0
VERTEX
 5
787
  8
TOOL_TOP
 10
42.10000
 20
5.00000
  0
SEQEND
  8
TOOL_TOP
  0
TEXT
  8
TOOLCODE_TOP
 10
42.08000
 20
4.80000
 40
0.400000
  1
T00
  0
POLYLINE
 5
788
  8
PADLAYER_TOP
 66
1
 70
1
 40
0.650000
 41
0.650000
  0
VERTEX
 5
789
  8
PADLAYER_TOP
 10
48.17500
 20
5.00000
 42
1.0
  0
VERTEX
 5
78A
  8
PADLAYER_TOP
 10
48.82500
 20
5.00000
 42
1.0
  0
SEQEND
  8
PADLAYER_TOP
  0
POLYLINE
 5
78B
  8
PADLAYER_BOTTOM
 66
1
 70
1
 40
0.650000
 41
0.650000
  0
VERTEX
 5
78C
  8
PADLAYER_BOTTOM
 10
48.17500
 20
5.00000
 42
1.0
  0
VERTEX
 5
78D
  8
PADLAYER_BOTTOM
 10
48.82500
 20
5.00000
 42
1.0
  0
SEQEND
  8
PADLAYER_BOTTOM
  0
POLYLINE
 5
78E
  8
TOOL_TOP
 66
1
 40
0.254000
 41
0.254000
  0
VERTEX
 5
78F
  8
TOOL_TOP
 10
48.10000
 20
5.00000
 42
1.000000
  0
VERTEX
 5
790
  8
TOOL_TOP
 10
48.90000
 20
5.00000
 42
1.000000
  0
VERTEX
 5
791
  8
TOOL_TOP
 10
48.10000
 20
5.00000
  0
SEQEND
  8
TOOL_TOP
  0
TEXT
  8
TOOLCODE_TOP
 10
48.08000
 20
4.80000
 40
0.400000
  1
T00
  0
TEXT
  8
TEXT_1
 10
39.00000
 20
4.25000
 40
1.428580
  1
R8
 73
 1
 11
39.00000
 21
4.25000
  0
ENDSEC
  0
EOF
