  0
SECTION
2
HEADER
9
$ACADVER
1
AC1009
  0
ENDSEC
  0
SECTION
2
TABLES
  0
TABLE
  2
LAYER
70
9
  0
LAYER
2
BOARD_OUTLINE
70
0
62
1
6
CONTINUOUS
  0
LAYER
2
2DLINES_1
70
0
62
2
6
CONTINUOUS
  0
LAYER
2
TEXT_1
70
0
62
3
6
CONTINUOUS
  0
LAYER
2
COMP_OUTLINE_TOP
70
0
62
4
6
CONTINUOUS
  0
LAYER
2
PADLAYER_TOP
70
0
62
5
6
CONTINUOUS
  0
LAYER
2
PADLAYER_BOTTOM
70
0
62
6
6
CONTINUOUS
  0
LAYER
2
TOOL_TOP
70
0
62
7
6
CONTINUOUS
  0
LAYER
2
TOOLCODE_TOP
70
0
62
8
6
CONTINUOUS
  0
LAYER
2
TEXT_ALL
70
0
62
9
6
CONTINUOUS
  0
ENDTAB
  0
ENDSEC
  0
SECTION
2
BLOCKS
  0
ENDSEC
  0
SECTION
2
ENTITIES
  0
POLYLINE
 5
1
  8
BOARD_OUTLINE
 66
1
 40
0.500000
 41
0.500000
  0
VERTEX
 5
2
  8
BOARD_OUTLINE
 10
0.00000
 20
54.00000
  0
VERTEX
 5
3
  8
BOARD_OUTLINE
 10
2.00000
 20
56.00000
  0
SEQEND
  8
BOARD_OUTLINE
  0
POLYLINE
 5
4
  8
BOARD_OUTLINE
 66
1
 70
1
 40
0.250000
 41
0.250000
  0
VERTEX
 5
5
  8
BOARD_OUTLINE
 10
-0.12500
 20
54.00000
 42
1.0
  0
VERTEX
 5
6
  8
BOARD_OUTLINE
 10
0.12500
 20
54.00000
 42
1.0
  0
SEQEND
  8
BOARD_OUTLINE
  0
POLYLINE
 5
7
  8
BOARD_OUTLINE
 66
1
 70
1
 40
0.250000
 41
0.250000
  0
VERTEX
 5
8
  8
BOARD_OUTLINE
 10
1.87500
 20
56.00000
 42
1.0
  0
VERTEX
 5
9
  8
BOARD_OUTLINE
 10
2.12500
 20
56.00000
 42
1.0
  0
SEQEND
  8
BOARD_OUTLINE
  0
POLYLINE
 5
A
  8
BOARD_OUTLINE
 66
1
 40
0.500000
 41
0.500000
  0
VERTEX
 5
B
  8
BOARD_OUTLINE
 10
2.00000
 20
56.00000
  0
VERTEX
 5
C
  8
BOARD_OUTLINE
 10
17.25000
 20
56.00000
  0
SEQEND
  8
BOARD_OUTLINE
  0
POLYLINE
 5
D
  8
BOARD_OUTLINE
 66
1
 70
1
 40
0.250000
 41
0.250000
  0
VERTEX
 5
E
  8
BOARD_OUTLINE
 10
1.87500
 20
56.00000
 42
1.0
  0
VERTEX
 5
F
  8
BOARD_OUTLINE
 10
2.12500
 20
56.00000
 42
1.0
  0
SEQEND
  8
BOARD_OUTLINE
  0
POLYLINE
 5
10
  8
BOARD_OUTLINE
 66
1
 70
1
 40
0.250000
 41
0.250000
  0
VERTEX
 5
11
  8
BOARD_OUTLINE
 10
17.12500
 20
56.00000
 42
1.0
  0
VERTEX
 5
12
  8
BOARD_OUTLINE
 10
17.37500
 20
56.00000
 42
1.0
  0
SEQEND
  8
BOARD_OUTLINE
  0
POLYLINE
 5
13
  8
BOARD_OUTLINE
 66
1
 40
0.500000
 41
0.500000
  0
VERTEX
 5
14
  8
BOARD_OUTLINE
 10
17.25000
 20
56.00000
  0
VERTEX
 5
15
  8
BOARD_OUTLINE
 10
27.25000
 20
66.00000
  0
SEQEND
  8
BOARD_OUTLINE
  0
POLYLINE
 5
16
  8
BOARD_OUTLINE
 66
1
 70
1
 40
0.250000
 41
0.250000
  0
VERTEX
 5
17
  8
BOARD_OUTLINE
 10
17.12500
 20
56.00000
 42
1.0
  0
VERTEX
 5
18
  8
BOARD_OUTLINE
 10
17.37500
 20
56.00000
 42
1.0
  0
SEQEND
  8
BOARD_OUTLINE
  0
POLYLINE
 5
19
  8
BOARD_OUTLINE
 66
1
 70
1
 40
0.250000
 41
0.250000
  0
VERTEX
 5
1A
  8
BOARD_OUTLINE
 10
27.12500
 20
66.00000
 42
1.0
  0
VERTEX
 5
1B
  8
BOARD_OUTLINE
 10
27.37500
 20
66.00000
 42
1.0
  0
SEQEND
  8
BOARD_OUTLINE
  0
POLYLINE
 5
1C
  8
BOARD_OUTLINE
 66
1
 40
0.500000
 41
0.500000
  0
VERTEX
 5
1D
  8
BOARD_OUTLINE
 10
27.25000
 20
66.00000
  0
VERTEX
 5
1E
  8
BOARD_OUTLINE
 10
74.75000
 20
66.00000
  0
SEQEND
  8
BOARD_OUTLINE
  0
POLYLINE
 5
1F
  8
BOARD_OUTLINE
 66
1
 70
1
 40
0.250000
 41
0.250000
  0
VERTEX
 5
20
  8
BOARD_OUTLINE
 10
27.12500
 20
66.00000
 42
1.0
  0
VERTEX
 5
21
  8
BOARD_OUTLINE
 10
27.37500
 20
66.00000
 42
1.0
  0
SEQEND
  8
BOARD_OUTLINE
  0
POLYLINE
 5
22
  8
BOARD_OUTLINE
 66
1
 70
1
 40
0.250000
 41
0.250000
  0
VERTEX
 5
23
  8
BOARD_OUTLINE
 10
74.62500
 20
66.00000
 42
1.0
  0
VERTEX
 5
24
  8
BOARD_OUTLINE
 10
74.87500
 20
66.00000
 42
1.0
  0
SEQEND
  8
BOARD_OUTLINE
  0
POLYLINE
 5
25
  8
BOARD_OUTLINE
 66
1
 40
0.500000
 41
0.500000
  0
VERTEX
 5
26
  8
BOARD_OUTLINE
 10
74.75000
 20
66.00000
  0
VERTEX
 5
27
  8
BOARD_OUTLINE
 10
84.75000
 20
56.00000
  0
SEQEND
  8
BOARD_OUTLINE
  0
POLYLINE
 5
28
  8
BOARD_OUTLINE
 66
1
 70
1
 40
0.250000
 41
0.250000
  0
VERTEX
 5
29
  8
BOARD_OUTLINE
 10
74.62500
 20
66.00000
 42
1.0
  0
VERTEX
 5
2A
  8
BOARD_OUTLINE
 10
74.87500
 20
66.00000
 42
1.0
  0
SEQEND
  8
BOARD_OUTLINE
  0
POLYLINE
 5
2B
  8
BOARD_OUTLINE
 66
1
 70
1
 40
0.250000
 41
0.250000
  0
VERTEX
 5
2C
  8
BOARD_OUTLINE
 10
84.62500
 20
56.00000
 42
1.0
  0
VERTEX
 5
2D
  8
BOARD_OUTLINE
 10
84.87500
 20
56.00000
 42
1.0
  0
SEQEND
  8
BOARD_OUTLINE
  0
POLYLINE
 5
2E
  8
BOARD_OUTLINE
 66
1
 40
0.500000
 41
0.500000
  0
VERTEX
 5
2F
  8
BOARD_OUTLINE
 10
84.75000
 20
56.00000
  0
VERTEX
 5
30
  8
BOARD_OUTLINE
 10
100.00000
 20
56.00000
  0
SEQEND
  8
BOARD_OUTLINE
  0
POLYLINE
 5
31
  8
BOARD_OUTLINE
 66
1
 70
1
 40
0.250000
 41
0.250000
  0
VERTEX
 5
32
  8
BOARD_OUTLINE
 10
84.62500
 20
56.00000
 42
1.0
  0
VERTEX
 5
33
  8
BOARD_OUTLINE
 10
84.87500
 20
56.00000
 42
1.0
  0
SEQEND
  8
BOARD_OUTLINE
  0
POLYLINE
 5
34
  8
BOARD_OUTLINE
 66
1
 70
1
 40
0.250000
 41
0.250000
  0
VERTEX
 5
35
  8
BOARD_OUTLINE
 10
99.87500
 20
56.00000
 42
1.0
  0
VERTEX
 5
36
  8
BOARD_OUTLINE
 10
100.12500
 20
56.00000
 42
1.0
  0
SEQEND
  8
BOARD_OUTLINE
  0
POLYLINE
 5
37
  8
BOARD_OUTLINE
 66
1
 40
0.500000
 41
0.500000
  0
VERTEX
 5
38
  8
BOARD_OUTLINE
 10
100.00000
 20
56.00000
  0
VERTEX
 5
39
  8
BOARD_OUTLINE
 10
102.00000
 20
54.00000
  0
SEQEND
  8
BOARD_OUTLINE
  0
POLYLINE
 5
3A
  8
BOARD_OUTLINE
 66
1
 70
1
 40
0.250000
 41
0.250000
  0
VERTEX
 5
3B
  8
BOARD_OUTLINE
 10
99.87500
 20
56.00000
 42
1.0
  0
VERTEX
 5
3C
  8
BOARD_OUTLINE
 10
100.12500
 20
56.00000
 42
1.0
  0
SEQEND
  8
BOARD_OUTLINE
  0
POLYLINE
 5
3D
  8
BOARD_OUTLINE
 66
1
 70
1
 40
0.250000
 41
0.250000
  0
VERTEX
 5
3E
  8
BOARD_OUTLINE
 10
101.87500
 20
54.00000
 42
1.0
  0
VERTEX
 5
3F
  8
BOARD_OUTLINE
 10
102.12500
 20
54.00000
 42
1.0
  0
SEQEND
  8
BOARD_OUTLINE
  0
POLYLINE
 5
40
  8
BOARD_OUTLINE
 66
1
 40
0.500000
 41
0.500000
  0
VERTEX
 5
41
  8
BOARD_OUTLINE
 10
102.00000
 20
54.00000
  0
VERTEX
 5
42
  8
BOARD_OUTLINE
 10
102.00000
 20
12.00000
  0
SEQEND
  8
BOARD_OUTLINE
  0
POLYLINE
 5
43
  8
BOARD_OUTLINE
 66
1
 70
1
 40
0.250000
 41
0.250000
  0
VERTEX
 5
44
  8
BOARD_OUTLINE
 10
101.87500
 20
54.00000
 42
1.0
  0
VERTEX
 5
45
  8
BOARD_OUTLINE
 10
102.12500
 20
54.00000
 42
1.0
  0
SEQEND
  8
BOARD_OUTLINE
  0
POLYLINE
 5
46
  8
BOARD_OUTLINE
 66
1
 70
1
 40
0.250000
 41
0.250000
  0
VERTEX
 5
47
  8
BOARD_OUTLINE
 10
101.87500
 20
12.00000
 42
1.0
  0
VERTEX
 5
48
  8
BOARD_OUTLINE
 10
102.12500
 20
12.00000
 42
1.0
  0
SEQEND
  8
BOARD_OUTLINE
  0
POLYLINE
 5
49
  8
BOARD_OUTLINE
 66
1
 40
0.500000
 41
0.500000
  0
VERTEX
 5
4A
  8
BOARD_OUTLINE
 10
102.00000
 20
12.00000
  0
VERTEX
 5
4B
  8
BOARD_OUTLINE
 10
100.00000
 20
10.00000
  0
SEQEND
  8
BOARD_OUTLINE
  0
POLYLINE
 5
4C
  8
BOARD_OUTLINE
 66
1
 70
1
 40
0.250000
 41
0.250000
  0
VERTEX
 5
4D
  8
BOARD_OUTLINE
 10
101.87500
 20
12.00000
 42
1.0
  0
VERTEX
 5
4E
  8
BOARD_OUTLINE
 10
102.12500
 20
12.00000
 42
1.0
  0
SEQEND
  8
BOARD_OUTLINE
  0
POLYLINE
 5
4F
  8
BOARD_OUTLINE
 66
1
 70
1
 40
0.250000
 41
0.250000
  0
VERTEX
 5
50
  8
BOARD_OUTLINE
 10
99.87500
 20
10.00000
 42
1.0
  0
VERTEX
 5
51
  8
BOARD_OUTLINE
 10
100.12500
 20
10.00000
 42
1.0
  0
SEQEND
  8
BOARD_OUTLINE
  0
POLYLINE
 5
52
  8
BOARD_OUTLINE
 66
1
 40
0.500000
 41
0.500000
  0
VERTEX
 5
53
  8
BOARD_OUTLINE
 10
100.00000
 20
10.00000
  0
VERTEX
 5
54
  8
BOARD_OUTLINE
 10
85.50000
 20
10.00000
  0
SEQEND
  8
BOARD_OUTLINE
  0
POLYLINE
 5
55
  8
BOARD_OUTLINE
 66
1
 70
1
 40
0.250000
 41
0.250000
  0
VERTEX
 5
56
  8
BOARD_OUTLINE
 10
99.87500
 20
10.00000
 42
1.0
  0
VERTEX
 5
57
  8
BOARD_OUTLINE
 10
100.12500
 20
10.00000
 42
1.0
  0
SEQEND
  8
BOARD_OUTLINE
  0
POLYLINE
 5
58
  8
BOARD_OUTLINE
 66
1
 70
1
 40
0.250000
 41
0.250000
  0
VERTEX
 5
59
  8
BOARD_OUTLINE
 10
85.37500
 20
10.00000
 42
1.0
  0
VERTEX
 5
5A
  8
BOARD_OUTLINE
 10
85.62500
 20
10.00000
 42
1.0
  0
SEQEND
  8
BOARD_OUTLINE
  0
POLYLINE
 5
5B
  8
BOARD_OUTLINE
 66
1
 40
0.500000
 41
0.500000
  0
VERTEX
 5
5C
  8
BOARD_OUTLINE
 10
85.50000
 20
10.00000
  0
VERTEX
 5
5D
  8
BOARD_OUTLINE
 10
75.50000
 20
0.00000
  0
SEQEND
  8
BOARD_OUTLINE
  0
POLYLINE
 5
5E
  8
BOARD_OUTLINE
 66
1
 70
1
 40
0.250000
 41
0.250000
  0
VERTEX
 5
5F
  8
BOARD_OUTLINE
 10
85.37500
 20
10.00000
 42
1.0
  0
VERTEX
 5
60
  8
BOARD_OUTLINE
 10
85.62500
 20
10.00000
 42
1.0
  0
SEQEND
  8
BOARD_OUTLINE
  0
POLYLINE
 5
61
  8
BOARD_OUTLINE
 66
1
 70
1
 40
0.250000
 41
0.250000
  0
VERTEX
 5
62
  8
BOARD_OUTLINE
 10
75.37500
 20
0.00000
 42
1.0
  0
VERTEX
 5
63
  8
BOARD_OUTLINE
 10
75.62500
 20
0.00000
 42
1.0
  0
SEQEND
  8
BOARD_OUTLINE
  0
POLYLINE
 5
64
  8
BOARD_OUTLINE
 66
1
 40
0.500000
 41
0.500000
  0
VERTEX
 5
65
  8
BOARD_OUTLINE
 10
75.50000
 20
0.00000
  0
VERTEX
 5
66
  8
BOARD_OUTLINE
 10
26.50000
 20
0.00000
  0
SEQEND
  8
BOARD_OUTLINE
  0
POLYLINE
 5
67
  8
BOARD_OUTLINE
 66
1
 70
1
 40
0.250000
 41
0.250000
  0
VERTEX
 5
68
  8
BOARD_OUTLINE
 10
75.37500
 20
0.00000
 42
1.0
  0
VERTEX
 5
69
  8
BOARD_OUTLINE
 10
75.62500
 20
0.00000
 42
1.0
  0
SEQEND
  8
BOARD_OUTLINE
  0
POLYLINE
 5
6A
  8
BOARD_OUTLINE
 66
1
 70
1
 40
0.250000
 41
0.250000
  0
VERTEX
 5
6B
  8
BOARD_OUTLINE
 10
26.37500
 20
0.00000
 42
1.0
  0
VERTEX
 5
6C
  8
BOARD_OUTLINE
 10
26.62500
 20
0.00000
 42
1.0
  0
SEQEND
  8
BOARD_OUTLINE
  0
POLYLINE
 5
6D
  8
BOARD_OUTLINE
 66
1
 40
0.500000
 41
0.500000
  0
VERTEX
 5
6E
  8
BOARD_OUTLINE
 10
26.50000
 20
0.00000
  0
VERTEX
 5
6F
  8
BOARD_OUTLINE
 10
16.50000
 20
10.00000
  0
SEQEND
  8
BOARD_OUTLINE
  0
POLYLINE
 5
70
  8
BOARD_OUTLINE
 66
1
 70
1
 40
0.250000
 41
0.250000
  0
VERTEX
 5
71
  8
BOARD_OUTLINE
 10
26.37500
 20
0.00000
 42
1.0
  0
VERTEX
 5
72
  8
BOARD_OUTLINE
 10
26.62500
 20
0.00000
 42
1.0
  0
SEQEND
  8
BOARD_OUTLINE
  0
POLYLINE
 5
73
  8
BOARD_OUTLINE
 66
1
 70
1
 40
0.250000
 41
0.250000
  0
VERTEX
 5
74
  8
BOARD_OUTLINE
 10
16.37500
 20
10.00000
 42
1.0
  0
VERTEX
 5
75
  8
BOARD_OUTLINE
 10
16.62500
 20
10.00000
 42
1.0
  0
SEQEND
  8
BOARD_OUTLINE
  0
POLYLINE
 5
76
  8
BOARD_OUTLINE
 66
1
 40
0.500000
 41
0.500000
  0
VERTEX
 5
77
  8
BOARD_OUTLINE
 10
16.50000
 20
10.00000
  0
VERTEX
 5
78
  8
BOARD_OUTLINE
 10
2.00000
 20
10.00000
  0
SEQEND
  8
BOARD_OUTLINE
  0
POLYLINE
 5
79
  8
BOARD_OUTLINE
 66
1
 70
1
 40
0.250000
 41
0.250000
  0
VERTEX
 5
7A
  8
BOARD_OUTLINE
 10
16.37500
 20
10.00000
 42
1.0
  0
VERTEX
 5
7B
  8
BOARD_OUTLINE
 10
16.62500
 20
10.00000
 42
1.0
  0
SEQEND
  8
BOARD_OUTLINE
  0
POLYLINE
 5
7C
  8
BOARD_OUTLINE
 66
1
 70
1
 40
0.250000
 41
0.250000
  0
VERTEX
 5
7D
  8
BOARD_OUTLINE
 10
1.87500
 20
10.00000
 42
1.0
  0
VERTEX
 5
7E
  8
BOARD_OUTLINE
 10
2.12500
 20
10.00000
 42
1.0
  0
SEQEND
  8
BOARD_OUTLINE
  0
POLYLINE
 5
7F
  8
BOARD_OUTLINE
 66
1
 40
0.500000
 41
0.500000
  0
VERTEX
 5
80
  8
BOARD_OUTLINE
 10
2.00000
 20
10.00000
  0
VERTEX
 5
81
  8
BOARD_OUTLINE
 10
0.00000
 20
12.00000
  0
SEQEND
  8
BOARD_OUTLINE
  0
POLYLINE
 5
82
  8
BOARD_OUTLINE
 66
1
 70
1
 40
0.250000
 41
0.250000
  0
VERTEX
 5
83
  8
BOARD_OUTLINE
 10
1.87500
 20
10.00000
 42
1.0
  0
VERTEX
 5
84
  8
BOARD_OUTLINE
 10
2.12500
 20
10.00000
 42
1.0
  0
SEQEND
  8
BOARD_OUTLINE
  0
POLYLINE
 5
85
  8
BOARD_OUTLINE
 66
1
 70
1
 40
0.250000
 41
0.250000
  0
VERTEX
 5
86
  8
BOARD_OUTLINE
 10
-0.12500
 20
12.00000
 42
1.0
  0
VERTEX
 5
87
  8
BOARD_OUTLINE
 10
0.12500
 20
12.00000
 42
1.0
  0
SEQEND
  8
BOARD_OUTLINE
  0
POLYLINE
 5
88
  8
BOARD_OUTLINE
 66
1
 40
0.500000
 41
0.500000
  0
VERTEX
 5
89
  8
BOARD_OUTLINE
 10
0.00000
 20
12.00000
  0
VERTEX
 5
8A
  8
BOARD_OUTLINE
 10
0.00000
 20
54.00000
  0
SEQEND
  8
BOARD_OUTLINE
  0
POLYLINE
 5
8B
  8
BOARD_OUTLINE
 66
1
 70
1
 40
0.250000
 41
0.250000
  0
VERTEX
 5
8C
  8
BOARD_OUTLINE
 10
-0.12500
 20
12.00000
 42
1.0
  0
VERTEX
 5
8D
  8
BOARD_OUTLINE
 10
0.12500
 20
12.00000
 42
1.0
  0
SEQEND
  8
BOARD_OUTLINE
  0
POLYLINE
 5
8E
  8
BOARD_OUTLINE
 66
1
 70
1
 40
0.250000
 41
0.250000
  0
VERTEX
 5
8F
  8
BOARD_OUTLINE
 10
-0.12500
 20
54.00000
 42
1.0
  0
VERTEX
 5
90
  8
BOARD_OUTLINE
 10
0.12500
 20
54.00000
 42
1.0
  0
SEQEND
  8
BOARD_OUTLINE
  0
POLYLINE
 5
91
  8
2DLINES_1
 66
1
 40
0.250000
 41
0.250000
  0
VERTEX
 5
92
  8
2DLINES_1
 10
2.00000
 20
45.25000
  0
VERTEX
 5
93
  8
2DLINES_1
 10
10.00000
 20
45.25000
  0
SEQEND
  8
2DLINES_1
  0
POLYLINE
 5
94
  8
2DLINES_1
 66
1
 70
1
 40
0.125000
 41
0.125000
  0
VERTEX
 5
95
  8
2DLINES_1
 10
1.93750
 20
45.25000
 42
1.0
  0
VERTEX
 5
96
  8
2DLINES_1
 10
2.06250
 20
45.25000
 42
1.0
  0
SEQEND
  8
2DLINES_1
  0
POLYLINE
 5
97
  8
2DLINES_1
 66
1
 70
1
 40
0.125000
 41
0.125000
  0
VERTEX
 5
98
  8
2DLINES_1
 10
9.93750
 20
45.25000
 42
1.0
  0
VERTEX
 5
99
  8
2DLINES_1
 10
10.06250
 20
45.25000
 42
1.0
  0
SEQEND
  8
2DLINES_1
  0
POLYLINE
 5
9A
  8
2DLINES_1
 66
1
 40
0.250000
 41
0.250000
  0
VERTEX
 5
9B
  8
2DLINES_1
 10
10.00000
 20
45.25000
  0
VERTEX
 5
9C
  8
2DLINES_1
 10
10.00000
 20
53.75000
  0
SEQEND
  8
2DLINES_1
  0
POLYLINE
 5
9D
  8
2DLINES_1
 66
1
 70
1
 40
0.125000
 41
0.125000
  0
VERTEX
 5
9E
  8
2DLINES_1
 10
9.93750
 20
45.25000
 42
1.0
  0
VERTEX
 5
9F
  8
2DLINES_1
 10
10.06250
 20
45.25000
 42
1.0
  0
SEQEND
  8
2DLINES_1
  0
POLYLINE
 5
A0
  8
2DLINES_1
 66
1
 70
1
 40
0.125000
 41
0.125000
  0
VERTEX
 5
A1
  8
2DLINES_1
 10
9.93750
 20
53.75000
 42
1.0
  0
VERTEX
 5
A2
  8
2DLINES_1
 10
10.06250
 20
53.75000
 42
1.0
  0
SEQEND
  8
2DLINES_1
  0
POLYLINE
 5
A3
  8
2DLINES_1
 66
1
 40
0.250000
 41
0.250000
  0
VERTEX
 5
A4
  8
2DLINES_1
 10
10.00000
 20
53.75000
  0
VERTEX
 5
A5
  8
2DLINES_1
 10
2.00000
 20
53.75000
  0
SEQEND
  8
2DLINES_1
  0
POLYLINE
 5
A6
  8
2DLINES_1
 66
1
 70
1
 40
0.125000
 41
0.125000
  0
VERTEX
 5
A7
  8
2DLINES_1
 10
9.93750
 20
53.75000
 42
1.0
  0
VERTEX
 5
A8
  8
2DLINES_1
 10
10.06250
 20
53.75000
 42
1.0
  0
SEQEND
  8
2DLINES_1
  0
POLYLINE
 5
A9
  8
2DLINES_1
 66
1
 70
1
 40
0.125000
 41
0.125000
  0
VERTEX
 5
AA
  8
2DLINES_1
 10
1.93750
 20
53.75000
 42
1.0
  0
VERTEX
 5
AB
  8
2DLINES_1
 10
2.06250
 20
53.75000
 42
1.0
  0
SEQEND
  8
2DLINES_1
  0
POLYLINE
 5
AC
  8
2DLINES_1
 66
1
 40
0.250000
 41
0.250000
  0
VERTEX
 5
AD
  8
2DLINES_1
 10
2.00000
 20
53.75000
  0
VERTEX
 5
AE
  8
2DLINES_1
 10
2.00000
 20
45.25000
  0
SEQEND
  8
2DLINES_1
  0
POLYLINE
 5
AF
  8
2DLINES_1
 66
1
 70
1
 40
0.125000
 41
0.125000
  0
VERTEX
 5
B0
  8
2DLINES_1
 10
1.93750
 20
53.75000
 42
1.0
  0
VERTEX
 5
B1
  8
2DLINES_1
 10
2.06250
 20
53.75000
 42
1.0
  0
SEQEND
  8
2DLINES_1
  0
POLYLINE
 5
B2
  8
2DLINES_1
 66
1
 70
1
 40
0.125000
 41
0.125000
  0
VERTEX
 5
B3
  8
2DLINES_1
 10
1.93750
 20
45.25000
 42
1.0
  0
VERTEX
 5
B4
  8
2DLINES_1
 10
2.06250
 20
45.25000
 42
1.0
  0
SEQEND
  8
2DLINES_1
  0
POLYLINE
 5
B5
  8
2DLINES_1
 66
1
 40
0.250000
 41
0.250000
  0
VERTEX
 5
B6
  8
2DLINES_1
 10
2.00000
 20
12.25000
  0
VERTEX
 5
B7
  8
2DLINES_1
 10
10.00000
 20
12.25000
  0
SEQEND
  8
2DLINES_1
  0
POLYLINE
 5
B8
  8
2DLINES_1
 66
1
 70
1
 40
0.125000
 41
0.125000
  0
VERTEX
 5
B9
  8
2DLINES_1
 10
1.93750
 20
12.25000
 42
1.0
  0
VERTEX
 5
BA
  8
2DLINES_1
 10
2.06250
 20
12.25000
 42
1.0
  0
SEQEND
  8
2DLINES_1
  0
POLYLINE
 5
BB
  8
2DLINES_1
 66
1
 70
1
 40
0.125000
 41
0.125000
  0
VERTEX
 5
BC
  8
2DLINES_1
 10
9.93750
 20
12.25000
 42
1.0
  0
VERTEX
 5
BD
  8
2DLINES_1
 10
10.06250
 20
12.25000
 42
1.0
  0
SEQEND
  8
2DLINES_1
  0
POLYLINE
 5
BE
  8
2DLINES_1
 66
1
 40
0.250000
 41
0.250000
  0
VERTEX
 5
BF
  8
2DLINES_1
 10
10.00000
 20
12.25000
  0
VERTEX
 5
C0
  8
2DLINES_1
 10
10.00000
 20
20.75000
  0
SEQEND
  8
2DLINES_1
  0
POLYLINE
 5
C1
  8
2DLINES_1
 66
1
 70
1
 40
0.125000
 41
0.125000
  0
VERTEX
 5
C2
  8
2DLINES_1
 10
9.93750
 20
12.25000
 42
1.0
  0
VERTEX
 5
C3
  8
2DLINES_1
 10
10.06250
 20
12.25000
 42
1.0
  0
SEQEND
  8
2DLINES_1
  0
POLYLINE
 5
C4
  8
2DLINES_1
 66
1
 70
1
 40
0.125000
 41
0.125000
  0
VERTEX
 5
C5
  8
2DLINES_1
 10
9.93750
 20
20.75000
 42
1.0
  0
VERTEX
 5
C6
  8
2DLINES_1
 10
10.06250
 20
20.75000
 42
1.0
  0
SEQEND
  8
2DLINES_1
  0
POLYLINE
 5
C7
  8
2DLINES_1
 66
1
 40
0.250000
 41
0.250000
  0
VERTEX
 5
C8
  8
2DLINES_1
 10
10.00000
 20
20.75000
  0
VERTEX
 5
C9
  8
2DLINES_1
 10
2.00000
 20
20.75000
  0
SEQEND
  8
2DLINES_1
  0
POLYLINE
 5
CA
  8
2DLINES_1
 66
1
 70
1
 40
0.125000
 41
0.125000
  0
VERTEX
 5
CB
  8
2DLINES_1
 10
9.93750
 20
20.75000
 42
1.0
  0
VERTEX
 5
CC
  8
2DLINES_1
 10
10.06250
 20
20.75000
 42
1.0
  0
SEQEND
  8
2DLINES_1
  0
POLYLINE
 5
CD
  8
2DLINES_1
 66
1
 70
1
 40
0.125000
 41
0.125000
  0
VERTEX
 5
CE
  8
2DLINES_1
 10
1.93750
 20
20.75000
 42
1.0
  0
VERTEX
 5
CF
  8
2DLINES_1
 10
2.06250
 20
20.75000
 42
1.0
  0
SEQEND
  8
2DLINES_1
  0
POLYLINE
 5
D0
  8
2DLINES_1
 66
1
 40
0.250000
 41
0.250000
  0
VERTEX
 5
D1
  8
2DLINES_1
 10
2.00000
 20
20.75000
  0
VERTEX
 5
D2
  8
2DLINES_1
 10
2.00000
 20
12.25000
  0
SEQEND
  8
2DLINES_1
  0
POLYLINE
 5
D3
  8
2DLINES_1
 66
1
 70
1
 40
0.125000
 41
0.125000
  0
VERTEX
 5
D4
  8
2DLINES_1
 10
1.93750
 20
20.75000
 42
1.0
  0
VERTEX
 5
D5
  8
2DLINES_1
 10
2.06250
 20
20.75000
 42
1.0
  0
SEQEND
  8
2DLINES_1
  0
POLYLINE
 5
D6
  8
2DLINES_1
 66
1
 70
1
 40
0.125000
 41
0.125000
  0
VERTEX
 5
D7
  8
2DLINES_1
 10
1.93750
 20
12.25000
 42
1.0
  0
VERTEX
 5
D8
  8
2DLINES_1
 10
2.06250
 20
12.25000
 42
1.0
  0
SEQEND
  8
2DLINES_1
  0
POLYLINE
 5
D9
  8
2DLINES_1
 66
1
 40
0.250000
 41
0.250000
  0
VERTEX
 5
DA
  8
2DLINES_1
 10
92.00000
 20
45.25000
  0
VERTEX
 5
DB
  8
2DLINES_1
 10
100.00000
 20
45.25000
  0
SEQEND
  8
2DLINES_1
  0
POLYLINE
 5
DC
  8
2DLINES_1
 66
1
 70
1
 40
0.125000
 41
0.125000
  0
VERTEX
 5
DD
  8
2DLINES_1
 10
91.93750
 20
45.25000
 42
1.0
  0
VERTEX
 5
DE
  8
2DLINES_1
 10
92.06250
 20
45.25000
 42
1.0
  0
SEQEND
  8
2DLINES_1
  0
POLYLINE
 5
DF
  8
2DLINES_1
 66
1
 70
1
 40
0.125000
 41
0.125000
  0
VERTEX
 5
E0
  8
2DLINES_1
 10
99.93750
 20
45.25000
 42
1.0
  0
VERTEX
 5
E1
  8
2DLINES_1
 10
100.06250
 20
45.25000
 42
1.0
  0
SEQEND
  8
2DLINES_1
  0
POLYLINE
 5
E2
  8
2DLINES_1
 66
1
 40
0.250000
 41
0.250000
  0
VERTEX
 5
E3
  8
2DLINES_1
 10
100.00000
 20
45.25000
  0
VERTEX
 5
E4
  8
2DLINES_1
 10
100.00000
 20
53.75000
  0
SEQEND
  8
2DLINES_1
  0
POLYLINE
 5
E5
  8
2DLINES_1
 66
1
 70
1
 40
0.125000
 41
0.125000
  0
VERTEX
 5
E6
  8
2DLINES_1
 10
99.93750
 20
45.25000
 42
1.0
  0
VERTEX
 5
E7
  8
2DLINES_1
 10
100.06250
 20
45.25000
 42
1.0
  0
SEQEND
  8
2DLINES_1
  0
POLYLINE
 5
E8
  8
2DLINES_1
 66
1
 70
1
 40
0.125000
 41
0.125000
  0
VERTEX
 5
E9
  8
2DLINES_1
 10
99.93750
 20
53.75000
 42
1.0
  0
VERTEX
 5
EA
  8
2DLINES_1
 10
100.06250
 20
53.75000
 42
1.0
  0
SEQEND
  8
2DLINES_1
  0
POLYLINE
 5
EB
  8
2DLINES_1
 66
1
 40
0.250000
 41
0.250000
  0
VERTEX
 5
EC
  8
2DLINES_1
 10
100.00000
 20
53.75000
  0
VERTEX
 5
ED
  8
2DLINES_1
 10
92.00000
 20
53.75000
  0
SEQEND
  8
2DLINES_1
  0
POLYLINE
 5
EE
  8
2DLINES_1
 66
1
 70
1
 40
0.125000
 41
0.125000
  0
VERTEX
 5
EF
  8
2DLINES_1
 10
99.93750
 20
53.75000
 42
1.0
  0
VERTEX
 5
F0
  8
2DLINES_1
 10
100.06250
 20
53.75000
 42
1.0
  0
SEQEND
  8
2DLINES_1
  0
POLYLINE
 5
F1
  8
2DLINES_1
 66
1
 70
1
 40
0.125000
 41
0.125000
  0
VERTEX
 5
F2
  8
2DLINES_1
 10
91.93750
 20
53.75000
 42
1.0
  0
VERTEX
 5
F3
  8
2DLINES_1
 10
92.06250
 20
53.75000
 42
1.0
  0
SEQEND
  8
2DLINES_1
  0
POLYLINE
 5
F4
  8
2DLINES_1
 66
1
 40
0.250000
 41
0.250000
  0
VERTEX
 5
F5
  8
2DLINES_1
 10
92.00000
 20
53.75000
  0
VERTEX
 5
F6
  8
2DLINES_1
 10
92.00000
 20
45.25000
  0
SEQEND
  8
2DLINES_1
  0
POLYLINE
 5
F7
  8
2DLINES_1
 66
1
 70
1
 40
0.125000
 41
0.125000
  0
VERTEX
 5
F8
  8
2DLINES_1
 10
91.93750
 20
53.75000
 42
1.0
  0
VERTEX
 5
F9
  8
2DLINES_1
 10
92.06250
 20
53.75000
 42
1.0
  0
SEQEND
  8
2DLINES_1
  0
POLYLINE
 5
FA
  8
2DLINES_1
 66
1
 70
1
 40
0.125000
 41
0.125000
  0
VERTEX
 5
FB
  8
2DLINES_1
 10
91.93750
 20
45.25000
 42
1.0
  0
VERTEX
 5
FC
  8
2DLINES_1
 10
92.06250
 20
45.25000
 42
1.0
  0
SEQEND
  8
2DLINES_1
  0
POLYLINE
 5
FD
  8
2DLINES_1
 66
1
 40
0.250000
 41
0.250000
  0
VERTEX
 5
FE
  8
2DLINES_1
 10
92.00000
 20
12.25000
  0
VERTEX
 5
FF
  8
2DLINES_1
 10
100.00000
 20
12.25000
  0
SEQEND
  8
2DLINES_1
  0
POLYLINE
 5
100
  8
2DLINES_1
 66
1
 70
1
 40
0.125000
 41
0.125000
  0
VERTEX
 5
101
  8
2DLINES_1
 10
91.93750
 20
12.25000
 42
1.0
  0
VERTEX
 5
102
  8
2DLINES_1
 10
92.06250
 20
12.25000
 42
1.0
  0
SEQEND
  8
2DLINES_1
  0
POLYLINE
 5
103
  8
2DLINES_1
 66
1
 70
1
 40
0.125000
 41
0.125000
  0
VERTEX
 5
104
  8
2DLINES_1
 10
99.93750
 20
12.25000
 42
1.0
  0
VERTEX
 5
105
  8
2DLINES_1
 10
100.06250
 20
12.25000
 42
1.0
  0
SEQEND
  8
2DLINES_1
  0
POLYLINE
 5
106
  8
2DLINES_1
 66
1
 40
0.250000
 41
0.250000
  0
VERTEX
 5
107
  8
2DLINES_1
 10
100.00000
 20
12.25000
  0
VERTEX
 5
108
  8
2DLINES_1
 10
100.00000
 20
20.75000
  0
SEQEND
  8
2DLINES_1
  0
POLYLINE
 5
109
  8
2DLINES_1
 66
1
 70
1
 40
0.125000
 41
0.125000
  0
VERTEX
 5
10A
  8
2DLINES_1
 10
99.93750
 20
12.25000
 42
1.0
  0
VERTEX
 5
10B
  8
2DLINES_1
 10
100.06250
 20
12.25000
 42
1.0
  0
SEQEND
  8
2DLINES_1
  0
POLYLINE
 5
10C
  8
2DLINES_1
 66
1
 70
1
 40
0.125000
 41
0.125000
  0
VERTEX
 5
10D
  8
2DLINES_1
 10
99.93750
 20
20.75000
 42
1.0
  0
VERTEX
 5
10E
  8
2DLINES_1
 10
100.06250
 20
20.75000
 42
1.0
  0
SEQEND
  8
2DLINES_1
  0
POLYLINE
 5
10F
  8
2DLINES_1
 66
1
 40
0.250000
 41
0.250000
  0
VERTEX
 5
110
  8
2DLINES_1
 10
100.00000
 20
20.75000
  0
VERTEX
 5
111
  8
2DLINES_1
 10
92.00000
 20
20.75000
  0
SEQEND
  8
2DLINES_1
  0
POLYLINE
 5
112
  8
2DLINES_1
 66
1
 70
1
 40
0.125000
 41
0.125000
  0
VERTEX
 5
113
  8
2DLINES_1
 10
99.93750
 20
20.75000
 42
1.0
  0
VERTEX
 5
114
  8
2DLINES_1
 10
100.06250
 20
20.75000
 42
1.0
  0
SEQEND
  8
2DLINES_1
  0
POLYLINE
 5
115
  8
2DLINES_1
 66
1
 70
1
 40
0.125000
 41
0.125000
  0
VERTEX
 5
116
  8
2DLINES_1
 10
91.93750
 20
20.75000
 42
1.0
  0
VERTEX
 5
117
  8
2DLINES_1
 10
92.06250
 20
20.75000
 42
1.0
  0
SEQEND
  8
2DLINES_1
  0
POLYLINE
 5
118
  8
2DLINES_1
 66
1
 40
0.250000
 41
0.250000
  0
VERTEX
 5
119
  8
2DLINES_1
 10
92.00000
 20
20.75000
  0
VERTEX
 5
11A
  8
2DLINES_1
 10
92.00000
 20
12.25000
  0
SEQEND
  8
2DLINES_1
  0
POLYLINE
 5
11B
  8
2DLINES_1
 66
1
 70
1
 40
0.125000
 41
0.125000
  0
VERTEX
 5
11C
  8
2DLINES_1
 10
91.93750
 20
20.75000
 42
1.0
  0
VERTEX
 5
11D
  8
2DLINES_1
 10
92.06250
 20
20.75000
 42
1.0
  0
SEQEND
  8
2DLINES_1
  0
POLYLINE
 5
11E
  8
2DLINES_1
 66
1
 70
1
 40
0.125000
 41
0.125000
  0
VERTEX
 5
11F
  8
2DLINES_1
 10
91.93750
 20
12.25000
 42
1.0
  0
VERTEX
 5
120
  8
2DLINES_1
 10
92.06250
 20
12.25000
 42
1.0
  0
SEQEND
  8
2DLINES_1
  0
POLYLINE
 5
121
  8
2DLINES_1
 66
1
 40
0.250000
 41
0.250000
  0
VERTEX
 5
122
  8
2DLINES_1
 10
10.00000
 20
53.75000
  0
VERTEX
 5
123
  8
2DLINES_1
 10
2.00000
 20
53.75000
  0
SEQEND
  8
2DLINES_1
  0
POLYLINE
 5
124
  8
2DLINES_1
 66
1
 70
1
 40
0.125000
 41
0.125000
  0
VERTEX
 5
125
  8
2DLINES_1
 10
9.93750
 20
53.75000
 42
1.0
  0
VERTEX
 5
126
  8
2DLINES_1
 10
10.06250
 20
53.75000
 42
1.0
  0
SEQEND
  8
2DLINES_1
  0
POLYLINE
 5
127
  8
2DLINES_1
 66
1
 70
1
 40
0.125000
 41
0.125000
  0
VERTEX
 5
128
  8
2DLINES_1
 10
1.93750
 20
53.75000
 42
1.0
  0
VERTEX
 5
129
  8
2DLINES_1
 10
2.06250
 20
53.75000
 42
1.0
  0
SEQEND
  8
2DLINES_1
  0
POLYLINE
 5
12A
  8
2DLINES_1
 66
1
 40
0.250000
 41
0.250000
  0
VERTEX
 5
12B
  8
2DLINES_1
 10
2.00000
 20
53.75000
  0
VERTEX
 5
12C
  8
2DLINES_1
 10
2.00000
 20
45.25000
  0
SEQEND
  8
2DLINES_1
  0
POLYLINE
 5
12D
  8
2DLINES_1
 66
1
 70
1
 40
0.125000
 41
0.125000
  0
VERTEX
 5
12E
  8
2DLINES_1
 10
1.93750
 20
53.75000
 42
1.0
  0
VERTEX
 5
12F
  8
2DLINES_1
 10
2.06250
 20
53.75000
 42
1.0
  0
SEQEND
  8
2DLINES_1
  0
POLYLINE
 5
130
  8
2DLINES_1
 66
1
 70
1
 40
0.125000
 41
0.125000
  0
VERTEX
 5
131
  8
2DLINES_1
 10
1.93750
 20
45.25000
 42
1.0
  0
VERTEX
 5
132
  8
2DLINES_1
 10
2.06250
 20
45.25000
 42
1.0
  0
SEQEND
  8
2DLINES_1
  0
POLYLINE
 5
133
  8
2DLINES_1
 66
1
 40
0.250000
 41
0.250000
  0
VERTEX
 5
134
  8
2DLINES_1
 10
2.00000
 20
45.25000
  0
VERTEX
 5
135
  8
2DLINES_1
 10
10.00000
 20
45.25000
  0
SEQEND
  8
2DLINES_1
  0
POLYLINE
 5
136
  8
2DLINES_1
 66
1
 70
1
 40
0.125000
 41
0.125000
  0
VERTEX
 5
137
  8
2DLINES_1
 10
1.93750
 20
45.25000
 42
1.0
  0
VERTEX
 5
138
  8
2DLINES_1
 10
2.06250
 20
45.25000
 42
1.0
  0
SEQEND
  8
2DLINES_1
  0
POLYLINE
 5
139
  8
2DLINES_1
 66
1
 70
1
 40
0.125000
 41
0.125000
  0
VERTEX
 5
13A
  8
2DLINES_1
 10
9.93750
 20
45.25000
 42
1.0
  0
VERTEX
 5
13B
  8
2DLINES_1
 10
10.06250
 20
45.25000
 42
1.0
  0
SEQEND
  8
2DLINES_1
  0
POLYLINE
 5
13C
  8
2DLINES_1
 66
1
 40
0.250000
 41
0.250000
  0
VERTEX
 5
13D
  8
2DLINES_1
 10
10.00000
 20
45.25000
  0
VERTEX
 5
13E
  8
2DLINES_1
 10
10.00000
 20
53.75000
  0
SEQEND
  8
2DLINES_1
  0
POLYLINE
 5
13F
  8
2DLINES_1
 66
1
 70
1
 40
0.125000
 41
0.125000
  0
VERTEX
 5
140
  8
2DLINES_1
 10
9.93750
 20
45.25000
 42
1.0
  0
VERTEX
 5
141
  8
2DLINES_1
 10
10.06250
 20
45.25000
 42
1.0
  0
SEQEND
  8
2DLINES_1
  0
POLYLINE
 5
142
  8
2DLINES_1
 66
1
 70
1
 40
0.125000
 41
0.125000
  0
VERTEX
 5
143
  8
2DLINES_1
 10
9.93750
 20
53.75000
 42
1.0
  0
VERTEX
 5
144
  8
2DLINES_1
 10
10.06250
 20
53.75000
 42
1.0
  0
SEQEND
  8
2DLINES_1
  0
POLYLINE
 5
145
  8
2DLINES_1
 66
1
 40
0.250000
 41
0.250000
  0
VERTEX
 5
146
  8
2DLINES_1
 10
10.00000
 20
20.75000
  0
VERTEX
 5
147
  8
2DLINES_1
 10
2.00000
 20
20.75000
  0
SEQEND
  8
2DLINES_1
  0
POLYLINE
 5
148
  8
2DLINES_1
 66
1
 70
1
 40
0.125000
 41
0.125000
  0
VERTEX
 5
149
  8
2DLINES_1
 10
9.93750
 20
20.75000
 42
1.0
  0
VERTEX
 5
14A
  8
2DLINES_1
 10
10.06250
 20
20.75000
 42
1.0
  0
SEQEND
  8
2DLINES_1
  0
POLYLINE
 5
14B
  8
2DLINES_1
 66
1
 70
1
 40
0.125000
 41
0.125000
  0
VERTEX
 5
14C
  8
2DLINES_1
 10
1.93750
 20
20.75000
 42
1.0
  0
VERTEX
 5
14D
  8
2DLINES_1
 10
2.06250
 20
20.75000
 42
1.0
  0
SEQEND
  8
2DLINES_1
  0
POLYLINE
 5
14E
  8
2DLINES_1
 66
1
 40
0.250000
 41
0.250000
  0
VERTEX
 5
14F
  8
2DLINES_1
 10
2.00000
 20
20.75000
  0
VERTEX
 5
150
  8
2DLINES_1
 10
2.00000
 20
12.25000
  0
SEQEND
  8
2DLINES_1
  0
POLYLINE
 5
151
  8
2DLINES_1
 66
1
 70
1
 40
0.125000
 41
0.125000
  0
VERTEX
 5
152
  8
2DLINES_1
 10
1.93750
 20
20.75000
 42
1.0
  0
VERTEX
 5
153
  8
2DLINES_1
 10
2.06250
 20
20.75000
 42
1.0
  0
SEQEND
  8
2DLINES_1
  0
POLYLINE
 5
154
  8
2DLINES_1
 66
1
 70
1
 40
0.125000
 41
0.125000
  0
VERTEX
 5
155
  8
2DLINES_1
 10
1.93750
 20
12.25000
 42
1.0
  0
VERTEX
 5
156
  8
2DLINES_1
 10
2.06250
 20
12.25000
 42
1.0
  0
SEQEND
  8
2DLINES_1
  0
POLYLINE
 5
157
  8
2DLINES_1
 66
1
 40
0.250000
 41
0.250000
  0
VERTEX
 5
158
  8
2DLINES_1
 10
2.00000
 20
12.25000
  0
VERTEX
 5
159
  8
2DLINES_1
 10
10.00000
 20
12.25000
  0
SEQEND
  8
2DLINES_1
  0
POLYLINE
 5
15A
  8
2DLINES_1
 66
1
 70
1
 40
0.125000
 41
0.125000
  0
VERTEX
 5
15B
  8
2DLINES_1
 10
1.93750
 20
12.25000
 42
1.0
  0
VERTEX
 5
15C
  8
2DLINES_1
 10
2.06250
 20
12.25000
 42
1.0
  0
SEQEND
  8
2DLINES_1
  0
POLYLINE
 5
15D
  8
2DLINES_1
 66
1
 70
1
 40
0.125000
 41
0.125000
  0
VERTEX
 5
15E
  8
2DLINES_1
 10
9.93750
 20
12.25000
 42
1.0
  0
VERTEX
 5
15F
  8
2DLINES_1
 10
10.06250
 20
12.25000
 42
1.0
  0
SEQEND
  8
2DLINES_1
  0
POLYLINE
 5
160
  8
2DLINES_1
 66
1
 40
0.250000
 41
0.250000
  0
VERTEX
 5
161
  8
2DLINES_1
 10
10.00000
 20
12.25000
  0
VERTEX
 5
162
  8
2DLINES_1
 10
10.00000
 20
20.75000
  0
SEQEND
  8
2DLINES_1
  0
POLYLINE
 5
163
  8
2DLINES_1
 66
1
 70
1
 40
0.125000
 41
0.125000
  0
VERTEX
 5
164
  8
2DLINES_1
 10
9.93750
 20
12.25000
 42
1.0
  0
VERTEX
 5
165
  8
2DLINES_1
 10
10.06250
 20
12.25000
 42
1.0
  0
SEQEND
  8
2DLINES_1
  0
POLYLINE
 5
166
  8
2DLINES_1
 66
1
 70
1
 40
0.125000
 41
0.125000
  0
VERTEX
 5
167
  8
2DLINES_1
 10
9.93750
 20
20.75000
 42
1.0
  0
VERTEX
 5
168
  8
2DLINES_1
 10
10.06250
 20
20.75000
 42
1.0
  0
SEQEND
  8
2DLINES_1
  0
POLYLINE
 5
169
  8
2DLINES_1
 66
1
 40
0.250000
 41
0.250000
  0
VERTEX
 5
16A
  8
2DLINES_1
 10
100.00000
 20
53.75000
  0
VERTEX
 5
16B
  8
2DLINES_1
 10
92.00000
 20
53.75000
  0
SEQEND
  8
2DLINES_1
  0
POLYLINE
 5
16C
  8
2DLINES_1
 66
1
 70
1
 40
0.125000
 41
0.125000
  0
VERTEX
 5
16D
  8
2DLINES_1
 10
99.93750
 20
53.75000
 42
1.0
  0
VERTEX
 5
16E
  8
2DLINES_1
 10
100.06250
 20
53.75000
 42
1.0
  0
SEQEND
  8
2DLINES_1
  0
POLYLINE
 5
16F
  8
2DLINES_1
 66
1
 70
1
 40
0.125000
 41
0.125000
  0
VERTEX
 5
170
  8
2DLINES_1
 10
91.93750
 20
53.75000
 42
1.0
  0
VERTEX
 5
171
  8
2DLINES_1
 10
92.06250
 20
53.75000
 42
1.0
  0
SEQEND
  8
2DLINES_1
  0
POLYLINE
 5
172
  8
2DLINES_1
 66
1
 40
0.250000
 41
0.250000
  0
VERTEX
 5
173
  8
2DLINES_1
 10
92.00000
 20
53.75000
  0
VERTEX
 5
174
  8
2DLINES_1
 10
92.00000
 20
45.25000
  0
SEQEND
  8
2DLINES_1
  0
POLYLINE
 5
175
  8
2DLINES_1
 66
1
 70
1
 40
0.125000
 41
0.125000
  0
VERTEX
 5
176
  8
2DLINES_1
 10
91.93750
 20
53.75000
 42
1.0
  0
VERTEX
 5
177
  8
2DLINES_1
 10
92.06250
 20
53.75000
 42
1.0
  0
SEQEND
  8
2DLINES_1
  0
POLYLINE
 5
178
  8
2DLINES_1
 66
1
 70
1
 40
0.125000
 41
0.125000
  0
VERTEX
 5
179
  8
2DLINES_1
 10
91.93750
 20
45.25000
 42
1.0
  0
VERTEX
 5
17A
  8
2DLINES_1
 10
92.06250
 20
45.25000
 42
1.0
  0
SEQEND
  8
2DLINES_1
  0
POLYLINE
 5
17B
  8
2DLINES_1
 66
1
 40
0.250000
 41
0.250000
  0
VERTEX
 5
17C
  8
2DLINES_1
 10
92.00000
 20
45.25000
  0
VERTEX
 5
17D
  8
2DLINES_1
 10
100.00000
 20
45.25000
  0
SEQEND
  8
2DLINES_1
  0
POLYLINE
 5
17E
  8
2DLINES_1
 66
1
 70
1
 40
0.125000
 41
0.125000
  0
VERTEX
 5
17F
  8
2DLINES_1
 10
91.93750
 20
45.25000
 42
1.0
  0
VERTEX
 5
180
  8
2DLINES_1
 10
92.06250
 20
45.25000
 42
1.0
  0
SEQEND
  8
2DLINES_1
  0
POLYLINE
 5
181
  8
2DLINES_1
 66
1
 70
1
 40
0.125000
 41
0.125000
  0
VERTEX
 5
182
  8
2DLINES_1
 10
99.93750
 20
45.25000
 42
1.0
  0
VERTEX
 5
183
  8
2DLINES_1
 10
100.06250
 20
45.25000
 42
1.0
  0
SEQEND
  8
2DLINES_1
  0
POLYLINE
 5
184
  8
2DLINES_1
 66
1
 40
0.250000
 41
0.250000
  0
VERTEX
 5
185
  8
2DLINES_1
 10
100.00000
 20
45.25000
  0
VERTEX
 5
186
  8
2DLINES_1
 10
100.00000
 20
53.75000
  0
SEQEND
  8
2DLINES_1
  0
POLYLINE
 5
187
  8
2DLINES_1
 66
1
 70
1
 40
0.125000
 41
0.125000
  0
VERTEX
 5
188
  8
2DLINES_1
 10
99.93750
 20
45.25000
 42
1.0
  0
VERTEX
 5
189
  8
2DLINES_1
 10
100.06250
 20
45.25000
 42
1.0
  0
SEQEND
  8
2DLINES_1
  0
POLYLINE
 5
18A
  8
2DLINES_1
 66
1
 70
1
 40
0.125000
 41
0.125000
  0
VERTEX
 5
18B
  8
2DLINES_1
 10
99.93750
 20
53.75000
 42
1.0
  0
VERTEX
 5
18C
  8
2DLINES_1
 10
100.06250
 20
53.75000
 42
1.0
  0
SEQEND
  8
2DLINES_1
  0
POLYLINE
 5
18D
  8
2DLINES_1
 66
1
 40
0.250000
 41
0.250000
  0
VERTEX
 5
18E
  8
2DLINES_1
 10
100.00000
 20
20.75000
  0
VERTEX
 5
18F
  8
2DLINES_1
 10
92.00000
 20
20.75000
  0
SEQEND
  8
2DLINES_1
  0
POLYLINE
 5
190
  8
2DLINES_1
 66
1
 70
1
 40
0.125000
 41
0.125000
  0
VERTEX
 5
191
  8
2DLINES_1
 10
99.93750
 20
20.75000
 42
1.0
  0
VERTEX
 5
192
  8
2DLINES_1
 10
100.06250
 20
20.75000
 42
1.0
  0
SEQEND
  8
2DLINES_1
  0
POLYLINE
 5
193
  8
2DLINES_1
 66
1
 70
1
 40
0.125000
 41
0.125000
  0
VERTEX
 5
194
  8
2DLINES_1
 10
91.93750
 20
20.75000
 42
1.0
  0
VERTEX
 5
195
  8
2DLINES_1
 10
92.06250
 20
20.75000
 42
1.0
  0
SEQEND
  8
2DLINES_1
  0
POLYLINE
 5
196
  8
2DLINES_1
 66
1
 40
0.250000
 41
0.250000
  0
VERTEX
 5
197
  8
2DLINES_1
 10
92.00000
 20
20.75000
  0
VERTEX
 5
198
  8
2DLINES_1
 10
92.00000
 20
12.25000
  0
SEQEND
  8
2DLINES_1
  0
POLYLINE
 5
199
  8
2DLINES_1
 66
1
 70
1
 40
0.125000
 41
0.125000
  0
VERTEX
 5
19A
  8
2DLINES_1
 10
91.93750
 20
20.75000
 42
1.0
  0
VERTEX
 5
19B
  8
2DLINES_1
 10
92.06250
 20
20.75000
 42
1.0
  0
SEQEND
  8
2DLINES_1
  0
POLYLINE
 5
19C
  8
2DLINES_1
 66
1
 70
1
 40
0.125000
 41
0.125000
  0
VERTEX
 5
19D
  8
2DLINES_1
 10
91.93750
 20
12.25000
 42
1.0
  0
VERTEX
 5
19E
  8
2DLINES_1
 10
92.06250
 20
12.25000
 42
1.0
  0
SEQEND
  8
2DLINES_1
  0
POLYLINE
 5
19F
  8
2DLINES_1
 66
1
 40
0.250000
 41
0.250000
  0
VERTEX
 5
1A0
  8
2DLINES_1
 10
92.00000
 20
12.25000
  0
VERTEX
 5
1A1
  8
2DLINES_1
 10
100.00000
 20
12.25000
  0
SEQEND
  8
2DLINES_1
  0
POLYLINE
 5
1A2
  8
2DLINES_1
 66
1
 70
1
 40
0.125000
 41
0.125000
  0
VERTEX
 5
1A3
  8
2DLINES_1
 10
91.93750
 20
12.25000
 42
1.0
  0
VERTEX
 5
1A4
  8
2DLINES_1
 10
92.06250
 20
12.25000
 42
1.0
  0
SEQEND
  8
2DLINES_1
  0
POLYLINE
 5
1A5
  8
2DLINES_1
 66
1
 70
1
 40
0.125000
 41
0.125000
  0
VERTEX
 5
1A6
  8
2DLINES_1
 10
99.93750
 20
12.25000
 42
1.0
  0
VERTEX
 5
1A7
  8
2DLINES_1
 10
100.06250
 20
12.25000
 42
1.0
  0
SEQEND
  8
2DLINES_1
  0
POLYLINE
 5
1A8
  8
2DLINES_1
 66
1
 40
0.250000
 41
0.250000
  0
VERTEX
 5
1A9
  8
2DLINES_1
 10
100.00000
 20
12.25000
  0
VERTEX
 5
1AA
  8
2DLINES_1
 10
100.00000
 20
20.75000
  0
SEQEND
  8
2DLINES_1
  0
POLYLINE
 5
1AB
  8
2DLINES_1
 66
1
 70
1
 40
0.125000
 41
0.125000
  0
VERTEX
 5
1AC
  8
2DLINES_1
 10
99.93750
 20
12.25000
 42
1.0
  0
VERTEX
 5
1AD
  8
2DLINES_1
 10
100.06250
 20
12.25000
 42
1.0
  0
SEQEND
  8
2DLINES_1
  0
POLYLINE
 5
1AE
  8
2DLINES_1
 66
1
 70
1
 40
0.125000
 41
0.125000
  0
VERTEX
 5
1AF
  8
2DLINES_1
 10
99.93750
 20
20.75000
 42
1.0
  0
VERTEX
 5
1B0
  8
2DLINES_1
 10
100.06250
 20
20.75000
 42
1.0
  0
SEQEND
  8
2DLINES_1
  0
POLYLINE
 5
1B1
  8
2DLINES_1
 66
1
 40
0.250000
 41
0.250000
  0
VERTEX
 5
1B2
  8
2DLINES_1
 10
13.15000
 20
19.00000
  0
VERTEX
 5
1B3
  8
2DLINES_1
 10
17.55000
 20
20.50000
  0
SEQEND
  8
2DLINES_1
  0
POLYLINE
 5
1B4
  8
2DLINES_1
 66
1
 70
1
 40
0.125000
 41
0.125000
  0
VERTEX
 5
1B5
  8
2DLINES_1
 10
13.08750
 20
19.00000
 42
1.0
  0
VERTEX
 5
1B6
  8
2DLINES_1
 10
13.21250
 20
19.00000
 42
1.0
  0
SEQEND
  8
2DLINES_1
  0
POLYLINE
 5
1B7
  8
2DLINES_1
 66
1
 70
1
 40
0.125000
 41
0.125000
  0
VERTEX
 5
1B8
  8
2DLINES_1
 10
17.48750
 20
20.50000
 42
1.0
  0
VERTEX
 5
1B9
  8
2DLINES_1
 10
17.61250
 20
20.50000
 42
1.0
  0
SEQEND
  8
2DLINES_1
  0
POLYLINE
 5
1BA
  8
2DLINES_1
 66
1
 40
0.250000
 41
0.250000
  0
VERTEX
 5
1BB
  8
2DLINES_1
 10
13.15000
 20
21.00000
  0
VERTEX
 5
1BC
  8
2DLINES_1
 10
17.55000
 20
22.50000
  0
SEQEND
  8
2DLINES_1
  0
POLYLINE
 5
1BD
  8
2DLINES_1
 66
1
 70
1
 40
0.125000
 41
0.125000
  0
VERTEX
 5
1BE
  8
2DLINES_1
 10
13.08750
 20
21.00000
 42
1.0
  0
VERTEX
 5
1BF
  8
2DLINES_1
 10
13.21250
 20
21.00000
 42
1.0
  0
SEQEND
  8
2DLINES_1
  0
POLYLINE
 5
1C0
  8
2DLINES_1
 66
1
 70
1
 40
0.125000
 41
0.125000
  0
VERTEX
 5
1C1
  8
2DLINES_1
 10
17.48750
 20
22.50000
 42
1.0
  0
VERTEX
 5
1C2
  8
2DLINES_1
 10
17.61250
 20
22.50000
 42
1.0
  0
SEQEND
  8
2DLINES_1
  0
POLYLINE
 5
1C3
  8
2DLINES_1
 66
1
 40
0.250000
 41
0.250000
  0
VERTEX
 5
1C4
  8
2DLINES_1
 10
13.15000
 20
21.50000
  0
VERTEX
 5
1C5
  8
2DLINES_1
 10
16.75000
 20
22.70000
  0
SEQEND
  8
2DLINES_1
  0
POLYLINE
 5
1C6
  8
2DLINES_1
 66
1
 70
1
 40
0.125000
 41
0.125000
  0
VERTEX
 5
1C7
  8
2DLINES_1
 10
13.08750
 20
21.50000
 42
1.0
  0
VERTEX
 5
1C8
  8
2DLINES_1
 10
13.21250
 20
21.50000
 42
1.0
  0
SEQEND
  8
2DLINES_1
  0
POLYLINE
 5
1C9
  8
2DLINES_1
 66
1
 70
1
 40
0.125000
 41
0.125000
  0
VERTEX
 5
1CA
  8
2DLINES_1
 10
16.68750
 20
22.70000
 42
1.0
  0
VERTEX
 5
1CB
  8
2DLINES_1
 10
16.81250
 20
22.70000
 42
1.0
  0
SEQEND
  8
2DLINES_1
  0
POLYLINE
 5
1CC
  8
2DLINES_1
 66
1
 40
0.250000
 41
0.250000
  0
VERTEX
 5
1CD
  8
2DLINES_1
 10
19.65000
 20
19.70000
  0
VERTEX
 5
1CE
  8
2DLINES_1
 10
17.55000
 20
20.50000
  0
SEQEND
  8
2DLINES_1
  0
POLYLINE
 5
1CF
  8
2DLINES_1
 66
1
 70
1
 40
0.125000
 41
0.125000
  0
VERTEX
 5
1D0
  8
2DLINES_1
 10
19.58750
 20
19.70000
 42
1.0
  0
VERTEX
 5
1D1
  8
2DLINES_1
 10
19.71250
 20
19.70000
 42
1.0
  0
SEQEND
  8
2DLINES_1
  0
POLYLINE
 5
1D2
  8
2DLINES_1
 66
1
 70
1
 40
0.125000
 41
0.125000
  0
VERTEX
 5
1D3
  8
2DLINES_1
 10
17.48750
 20
20.50000
 42
1.0
  0
VERTEX
 5
1D4
  8
2DLINES_1
 10
17.61250
 20
20.50000
 42
1.0
  0
SEQEND
  8
2DLINES_1
  0
POLYLINE
 5
1D5
  8
2DLINES_1
 66
1
 40
0.250000
 41
0.250000
  0
VERTEX
 5
1D6
  8
2DLINES_1
 10
19.65000
 20
21.70000
  0
VERTEX
 5
1D7
  8
2DLINES_1
 10
17.55000
 20
22.50000
  0
SEQEND
  8
2DLINES_1
  0
POLYLINE
 5
1D8
  8
2DLINES_1
 66
1
 70
1
 40
0.125000
 41
0.125000
  0
VERTEX
 5
1D9
  8
2DLINES_1
 10
19.58750
 20
21.70000
 42
1.0
  0
VERTEX
 5
1DA
  8
2DLINES_1
 10
19.71250
 20
21.70000
 42
1.0
  0
SEQEND
  8
2DLINES_1
  0
POLYLINE
 5
1DB
  8
2DLINES_1
 66
1
 70
1
 40
0.125000
 41
0.125000
  0
VERTEX
 5
1DC
  8
2DLINES_1
 10
17.48750
 20
22.50000
 42
1.0
  0
VERTEX
 5
1DD
  8
2DLINES_1
 10
17.61250
 20
22.50000
 42
1.0
  0
SEQEND
  8
2DLINES_1
  0
POLYLINE
 5
1DE
  8
2DLINES_1
 66
1
 40
0.250000
 41
0.250000
  0
VERTEX
 5
1DF
  8
2DLINES_1
 10
13.15000
 20
21.50000
  0
VERTEX
 5
1E0
  8
2DLINES_1
 10
16.75000
 20
22.70000
  0
SEQEND
  8
2DLINES_1
  0
POLYLINE
 5
1E1
  8
2DLINES_1
 66
1
 70
1
 40
0.125000
 41
0.125000
  0
VERTEX
 5
1E2
  8
2DLINES_1
 10
13.08750
 20
21.50000
 42
1.0
  0
VERTEX
 5
1E3
  8
2DLINES_1
 10
13.21250
 20
21.50000
 42
1.0
  0
SEQEND
  8
2DLINES_1
  0
POLYLINE
 5
1E4
  8
2DLINES_1
 66
1
 70
1
 40
0.125000
 41
0.125000
  0
VERTEX
 5
1E5
  8
2DLINES_1
 10
16.68750
 20
22.70000
 42
1.0
  0
VERTEX
 5
1E6
  8
2DLINES_1
 10
16.81250
 20
22.70000
 42
1.0
  0
SEQEND
  8
2DLINES_1
  0
POLYLINE
 5
1E7
  8
2DLINES_1
 66
1
 40
0.250000
 41
0.250000
  0
VERTEX
 5
1E8
  8
2DLINES_1
 10
16.75000
 20
22.70000
  0
VERTEX
 5
1E9
  8
2DLINES_1
 10
13.15000
 20
24.00000
  0
SEQEND
  8
2DLINES_1
  0
POLYLINE
 5
1EA
  8
2DLINES_1
 66
1
 70
1
 40
0.125000
 41
0.125000
  0
VERTEX
 5
1EB
  8
2DLINES_1
 10
16.68750
 20
22.70000
 42
1.0
  0
VERTEX
 5
1EC
  8
2DLINES_1
 10
16.81250
 20
22.70000
 42
1.0
  0
SEQEND
  8
2DLINES_1
  0
POLYLINE
 5
1ED
  8
2DLINES_1
 66
1
 70
1
 40
0.125000
 41
0.125000
  0
VERTEX
 5
1EE
  8
2DLINES_1
 10
13.08750
 20
24.00000
 42
1.0
  0
VERTEX
 5
1EF
  8
2DLINES_1
 10
13.21250
 20
24.00000
 42
1.0
  0
SEQEND
  8
2DLINES_1
  0
POLYLINE
 5
1F0
  8
2DLINES_1
 66
1
 40
0.250000
 41
0.250000
  0
VERTEX
 5
1F1
  8
2DLINES_1
 10
13.15000
 20
24.00000
  0
VERTEX
 5
1F2
  8
2DLINES_1
 10
13.15000
 20
21.50000
  0
SEQEND
  8
2DLINES_1
  0
POLYLINE
 5
1F3
  8
2DLINES_1
 66
1
 70
1
 40
0.125000
 41
0.125000
  0
VERTEX
 5
1F4
  8
2DLINES_1
 10
13.08750
 20
24.00000
 42
1.0
  0
VERTEX
 5
1F5
  8
2DLINES_1
 10
13.21250
 20
24.00000
 42
1.0
  0
SEQEND
  8
2DLINES_1
  0
POLYLINE
 5
1F6
  8
2DLINES_1
 66
1
 70
1
 40
0.125000
 41
0.125000
  0
VERTEX
 5
1F7
  8
2DLINES_1
 10
13.08750
 20
21.50000
 42
1.0
  0
VERTEX
 5
1F8
  8
2DLINES_1
 10
13.21250
 20
21.50000
 42
1.0
  0
SEQEND
  8
2DLINES_1
  0
POLYLINE
 5
1F9
  8
2DLINES_1
 66
1
 40
0.250000
 41
0.250000
  0
VERTEX
 5
1FA
  8
2DLINES_1
 10
13.15000
 20
19.50000
  0
VERTEX
 5
1FB
  8
2DLINES_1
 10
19.65000
 20
21.70000
  0
SEQEND
  8
2DLINES_1
  0
POLYLINE
 5
1FC
  8
2DLINES_1
 66
1
 70
1
 40
0.125000
 41
0.125000
  0
VERTEX
 5
1FD
  8
2DLINES_1
 10
13.08750
 20
19.50000
 42
1.0
  0
VERTEX
 5
1FE
  8
2DLINES_1
 10
13.21250
 20
19.50000
 42
1.0
  0
SEQEND
  8
2DLINES_1
  0
POLYLINE
 5
1FF
  8
2DLINES_1
 66
1
 70
1
 40
0.125000
 41
0.125000
  0
VERTEX
 5
200
  8
2DLINES_1
 10
19.58750
 20
21.70000
 42
1.0
  0
VERTEX
 5
201
  8
2DLINES_1
 10
19.71250
 20
21.70000
 42
1.0
  0
SEQEND
  8
2DLINES_1
  0
POLYLINE
 5
202
  8
2DLINES_1
 66
1
 40
0.250000
 41
0.250000
  0
VERTEX
 5
203
  8
2DLINES_1
 10
13.15000
 20
17.50000
  0
VERTEX
 5
204
  8
2DLINES_1
 10
19.65000
 20
19.70000
  0
SEQEND
  8
2DLINES_1
  0
POLYLINE
 5
205
  8
2DLINES_1
 66
1
 70
1
 40
0.125000
 41
0.125000
  0
VERTEX
 5
206
  8
2DLINES_1
 10
13.08750
 20
17.50000
 42
1.0
  0
VERTEX
 5
207
  8
2DLINES_1
 10
13.21250
 20
17.50000
 42
1.0
  0
SEQEND
  8
2DLINES_1
  0
POLYLINE
 5
208
  8
2DLINES_1
 66
1
 70
1
 40
0.125000
 41
0.125000
  0
VERTEX
 5
209
  8
2DLINES_1
 10
19.58750
 20
19.70000
 42
1.0
  0
VERTEX
 5
20A
  8
2DLINES_1
 10
19.71250
 20
19.70000
 42
1.0
  0
SEQEND
  8
2DLINES_1
  0
POLYLINE
 5
20B
  8
2DLINES_1
 66
1
 40
0.250000
 41
0.250000
  0
VERTEX
 5
20C
  8
2DLINES_1
 10
13.15000
 20
21.50000
  0
VERTEX
 5
20D
  8
2DLINES_1
 10
13.15000
 20
24.00000
  0
SEQEND
  8
2DLINES_1
  0
POLYLINE
 5
20E
  8
2DLINES_1
 66
1
 70
1
 40
0.125000
 41
0.125000
  0
VERTEX
 5
20F
  8
2DLINES_1
 10
13.08750
 20
21.50000
 42
1.0
  0
VERTEX
 5
210
  8
2DLINES_1
 10
13.21250
 20
21.50000
 42
1.0
  0
SEQEND
  8
2DLINES_1
  0
POLYLINE
 5
211
  8
2DLINES_1
 66
1
 70
1
 40
0.125000
 41
0.125000
  0
VERTEX
 5
212
  8
2DLINES_1
 10
13.08750
 20
24.00000
 42
1.0
  0
VERTEX
 5
213
  8
2DLINES_1
 10
13.21250
 20
24.00000
 42
1.0
  0
SEQEND
  8
2DLINES_1
  0
POLYLINE
 5
214
  8
2DLINES_1
 66
1
 40
0.250000
 41
0.250000
  0
VERTEX
 5
215
  8
2DLINES_1
 10
13.15000
 20
19.50000
  0
VERTEX
 5
216
  8
2DLINES_1
 10
13.15000
 20
21.00000
  0
SEQEND
  8
2DLINES_1
  0
POLYLINE
 5
217
  8
2DLINES_1
 66
1
 70
1
 40
0.125000
 41
0.125000
  0
VERTEX
 5
218
  8
2DLINES_1
 10
13.08750
 20
19.50000
 42
1.0
  0
VERTEX
 5
219
  8
2DLINES_1
 10
13.21250
 20
19.50000
 42
1.0
  0
SEQEND
  8
2DLINES_1
  0
POLYLINE
 5
21A
  8
2DLINES_1
 66
1
 70
1
 40
0.125000
 41
0.125000
  0
VERTEX
 5
21B
  8
2DLINES_1
 10
13.08750
 20
21.00000
 42
1.0
  0
VERTEX
 5
21C
  8
2DLINES_1
 10
13.21250
 20
21.00000
 42
1.0
  0
SEQEND
  8
2DLINES_1
  0
POLYLINE
 5
21D
  8
2DLINES_1
 66
1
 40
0.250000
 41
0.250000
  0
VERTEX
 5
21E
  8
2DLINES_1
 10
13.15000
 20
17.50000
  0
VERTEX
 5
21F
  8
2DLINES_1
 10
13.15000
 20
19.00000
  0
SEQEND
  8
2DLINES_1
  0
POLYLINE
 5
220
  8
2DLINES_1
 66
1
 70
1
 40
0.125000
 41
0.125000
  0
VERTEX
 5
221
  8
2DLINES_1
 10
13.08750
 20
17.50000
 42
1.0
  0
VERTEX
 5
222
  8
2DLINES_1
 10
13.21250
 20
17.50000
 42
1.0
  0
SEQEND
  8
2DLINES_1
  0
POLYLINE
 5
223
  8
2DLINES_1
 66
1
 70
1
 40
0.125000
 41
0.125000
  0
VERTEX
 5
224
  8
2DLINES_1
 10
13.08750
 20
19.00000
 42
1.0
  0
VERTEX
 5
225
  8
2DLINES_1
 10
13.21250
 20
19.00000
 42
1.0
  0
SEQEND
  8
2DLINES_1
  0
POLYLINE
 5
226
  8
2DLINES_1
 66
1
 40
0.250000
 41
0.250000
  0
VERTEX
 5
227
  8
2DLINES_1
 10
13.30000
 20
21.65000
  0
VERTEX
 5
228
  8
2DLINES_1
 10
13.30000
 20
23.85000
  0
SEQEND
  8
2DLINES_1
  0
POLYLINE
 5
229
  8
2DLINES_1
 66
1
 70
1
 40
0.125000
 41
0.125000
  0
VERTEX
 5
22A
  8
2DLINES_1
 10
13.23750
 20
21.65000
 42
1.0
  0
VERTEX
 5
22B
  8
2DLINES_1
 10
13.36250
 20
21.65000
 42
1.0
  0
SEQEND
  8
2DLINES_1
  0
POLYLINE
 5
22C
  8
2DLINES_1
 66
1
 70
1
 40
0.125000
 41
0.125000
  0
VERTEX
 5
22D
  8
2DLINES_1
 10
13.23750
 20
23.85000
 42
1.0
  0
VERTEX
 5
22E
  8
2DLINES_1
 10
13.36250
 20
23.85000
 42
1.0
  0
SEQEND
  8
2DLINES_1
  0
POLYLINE
 5
22F
  8
2DLINES_1
 66
1
 40
0.250000
 41
0.250000
  0
VERTEX
 5
230
  8
2DLINES_1
 10
13.50000
 20
21.65000
  0
VERTEX
 5
231
  8
2DLINES_1
 10
13.50000
 20
23.85000
  0
SEQEND
  8
2DLINES_1
  0
POLYLINE
 5
232
  8
2DLINES_1
 66
1
 70
1
 40
0.125000
 41
0.125000
  0
VERTEX
 5
233
  8
2DLINES_1
 10
13.43750
 20
21.65000
 42
1.0
  0
VERTEX
 5
234
  8
2DLINES_1
 10
13.56250
 20
21.65000
 42
1.0
  0
SEQEND
  8
2DLINES_1
  0
POLYLINE
 5
235
  8
2DLINES_1
 66
1
 70
1
 40
0.125000
 41
0.125000
  0
VERTEX
 5
236
  8
2DLINES_1
 10
13.43750
 20
23.85000
 42
1.0
  0
VERTEX
 5
237
  8
2DLINES_1
 10
13.56250
 20
23.85000
 42
1.0
  0
SEQEND
  8
2DLINES_1
  0
POLYLINE
 5
238
  8
2DLINES_1
 66
1
 40
0.250000
 41
0.250000
  0
VERTEX
 5
239
  8
2DLINES_1
 10
13.70000
 20
21.75000
  0
VERTEX
 5
23A
  8
2DLINES_1
 10
13.70000
 20
23.75000
  0
SEQEND
  8
2DLINES_1
  0
POLYLINE
 5
23B
  8
2DLINES_1
 66
1
 70
1
 40
0.125000
 41
0.125000
  0
VERTEX
 5
23C
  8
2DLINES_1
 10
13.63750
 20
21.75000
 42
1.0
  0
VERTEX
 5
23D
  8
2DLINES_1
 10
13.76250
 20
21.75000
 42
1.0
  0
SEQEND
  8
2DLINES_1
  0
POLYLINE
 5
23E
  8
2DLINES_1
 66
1
 70
1
 40
0.125000
 41
0.125000
  0
VERTEX
 5
23F
  8
2DLINES_1
 10
13.63750
 20
23.75000
 42
1.0
  0
VERTEX
 5
240
  8
2DLINES_1
 10
13.76250
 20
23.75000
 42
1.0
  0
SEQEND
  8
2DLINES_1
  0
POLYLINE
 5
241
  8
2DLINES_1
 66
1
 40
0.250000
 41
0.250000
  0
VERTEX
 5
242
  8
2DLINES_1
 10
13.90000
 20
21.85000
  0
VERTEX
 5
243
  8
2DLINES_1
 10
13.90000
 20
23.65000
  0
SEQEND
  8
2DLINES_1
  0
POLYLINE
 5
244
  8
2DLINES_1
 66
1
 70
1
 40
0.125000
 41
0.125000
  0
VERTEX
 5
245
  8
2DLINES_1
 10
13.83750
 20
21.85000
 42
1.0
  0
VERTEX
 5
246
  8
2DLINES_1
 10
13.96250
 20
21.85000
 42
1.0
  0
SEQEND
  8
2DLINES_1
  0
POLYLINE
 5
247
  8
2DLINES_1
 66
1
 70
1
 40
0.125000
 41
0.125000
  0
VERTEX
 5
248
  8
2DLINES_1
 10
13.83750
 20
23.65000
 42
1.0
  0
VERTEX
 5
249
  8
2DLINES_1
 10
13.96250
 20
23.65000
 42
1.0
  0
SEQEND
  8
2DLINES_1
  0
POLYLINE
 5
24A
  8
2DLINES_1
 66
1
 40
0.250000
 41
0.250000
  0
VERTEX
 5
24B
  8
2DLINES_1
 10
14.10000
 20
21.85000
  0
VERTEX
 5
24C
  8
2DLINES_1
 10
14.10000
 20
23.65000
  0
SEQEND
  8
2DLINES_1
  0
POLYLINE
 5
24D
  8
2DLINES_1
 66
1
 70
1
 40
0.125000
 41
0.125000
  0
VERTEX
 5
24E
  8
2DLINES_1
 10
14.03750
 20
21.85000
 42
1.0
  0
VERTEX
 5
24F
  8
2DLINES_1
 10
14.16250
 20
21.85000
 42
1.0
  0
SEQEND
  8
2DLINES_1
  0
POLYLINE
 5
250
  8
2DLINES_1
 66
1
 70
1
 40
0.125000
 41
0.125000
  0
VERTEX
 5
251
  8
2DLINES_1
 10
14.03750
 20
23.65000
 42
1.0
  0
VERTEX
 5
252
  8
2DLINES_1
 10
14.16250
 20
23.65000
 42
1.0
  0
SEQEND
  8
2DLINES_1
  0
POLYLINE
 5
253
  8
2DLINES_1
 66
1
 40
0.250000
 41
0.250000
  0
VERTEX
 5
254
  8
2DLINES_1
 10
14.30000
 20
21.95000
  0
VERTEX
 5
255
  8
2DLINES_1
 10
14.30000
 20
23.55000
  0
SEQEND
  8
2DLINES_1
  0
POLYLINE
 5
256
  8
2DLINES_1
 66
1
 70
1
 40
0.125000
 41
0.125000
  0
VERTEX
 5
257
  8
2DLINES_1
 10
14.23750
 20
21.95000
 42
1.0
  0
VERTEX
 5
258
  8
2DLINES_1
 10
14.36250
 20
21.95000
 42
1.0
  0
SEQEND
  8
2DLINES_1
  0
POLYLINE
 5
259
  8
2DLINES_1
 66
1
 70
1
 40
0.125000
 41
0.125000
  0
VERTEX
 5
25A
  8
2DLINES_1
 10
14.23750
 20
23.55000
 42
1.0
  0
VERTEX
 5
25B
  8
2DLINES_1
 10
14.36250
 20
23.55000
 42
1.0
  0
SEQEND
  8
2DLINES_1
  0
POLYLINE
 5
25C
  8
2DLINES_1
 66
1
 40
0.250000
 41
0.250000
  0
VERTEX
 5
25D
  8
2DLINES_1
 10
14.50000
 20
22.05000
  0
VERTEX
 5
25E
  8
2DLINES_1
 10
14.50000
 20
23.45000
  0
SEQEND
  8
2DLINES_1
  0
POLYLINE
 5
25F
  8
2DLINES_1
 66
1
 70
1
 40
0.125000
 41
0.125000
  0
VERTEX
 5
260
  8
2DLINES_1
 10
14.43750
 20
22.05000
 42
1.0
  0
VERTEX
 5
261
  8
2DLINES_1
 10
14.56250
 20
22.05000
 42
1.0
  0
SEQEND
  8
2DLINES_1
  0
POLYLINE
 5
262
  8
2DLINES_1
 66
1
 70
1
 40
0.125000
 41
0.125000
  0
VERTEX
 5
263
  8
2DLINES_1
 10
14.43750
 20
23.45000
 42
1.0
  0
VERTEX
 5
264
  8
2DLINES_1
 10
14.56250
 20
23.45000
 42
1.0
  0
SEQEND
  8
2DLINES_1
  0
POLYLINE
 5
265
  8
2DLINES_1
 66
1
 40
0.250000
 41
0.250000
  0
VERTEX
 5
266
  8
2DLINES_1
 10
14.70000
 20
22.15000
  0
VERTEX
 5
267
  8
2DLINES_1
 10
14.70000
 20
23.35000
  0
SEQEND
  8
2DLINES_1
  0
POLYLINE
 5
268
  8
2DLINES_1
 66
1
 70
1
 40
0.125000
 41
0.125000
  0
VERTEX
 5
269
  8
2DLINES_1
 10
14.63750
 20
22.15000
 42
1.0
  0
VERTEX
 5
26A
  8
2DLINES_1
 10
14.76250
 20
22.15000
 42
1.0
  0
SEQEND
  8
2DLINES_1
  0
POLYLINE
 5
26B
  8
2DLINES_1
 66
1
 70
1
 40
0.125000
 41
0.125000
  0
VERTEX
 5
26C
  8
2DLINES_1
 10
14.63750
 20
23.35000
 42
1.0
  0
VERTEX
 5
26D
  8
2DLINES_1
 10
14.76250
 20
23.35000
 42
1.0
  0
SEQEND
  8
2DLINES_1
  0
POLYLINE
 5
26E
  8
2DLINES_1
 66
1
 40
0.250000
 41
0.250000
  0
VERTEX
 5
26F
  8
2DLINES_1
 10
14.90000
 20
22.15000
  0
VERTEX
 5
270
  8
2DLINES_1
 10
14.90000
 20
23.25000
  0
SEQEND
  8
2DLINES_1
  0
POLYLINE
 5
271
  8
2DLINES_1
 66
1
 70
1
 40
0.125000
 41
0.125000
  0
VERTEX
 5
272
  8
2DLINES_1
 10
14.83750
 20
22.15000
 42
1.0
  0
VERTEX
 5
273
  8
2DLINES_1
 10
14.96250
 20
22.15000
 42
1.0
  0
SEQEND
  8
2DLINES_1
  0
POLYLINE
 5
274
  8
2DLINES_1
 66
1
 70
1
 40
0.125000
 41
0.125000
  0
VERTEX
 5
275
  8
2DLINES_1
 10
14.83750
 20
23.25000
 42
1.0
  0
VERTEX
 5
276
  8
2DLINES_1
 10
14.96250
 20
23.25000
 42
1.0
  0
SEQEND
  8
2DLINES_1
  0
POLYLINE
 5
277
  8
2DLINES_1
 66
1
 40
0.250000
 41
0.250000
  0
VERTEX
 5
278
  8
2DLINES_1
 10
15.10000
 20
22.25000
  0
VERTEX
 5
279
  8
2DLINES_1
 10
15.10000
 20
23.15000
  0
SEQEND
  8
2DLINES_1
  0
POLYLINE
 5
27A
  8
2DLINES_1
 66
1
 70
1
 40
0.125000
 41
0.125000
  0
VERTEX
 5
27B
  8
2DLINES_1
 10
15.03750
 20
22.25000
 42
1.0
  0
VERTEX
 5
27C
  8
2DLINES_1
 10
15.16250
 20
22.25000
 42
1.0
  0
SEQEND
  8
2DLINES_1
  0
POLYLINE
 5
27D
  8
2DLINES_1
 66
1
 70
1
 40
0.125000
 41
0.125000
  0
VERTEX
 5
27E
  8
2DLINES_1
 10
15.03750
 20
23.15000
 42
1.0
  0
VERTEX
 5
27F
  8
2DLINES_1
 10
15.16250
 20
23.15000
 42
1.0
  0
SEQEND
  8
2DLINES_1
  0
POLYLINE
 5
280
  8
2DLINES_1
 66
1
 40
0.250000
 41
0.250000
  0
VERTEX
 5
281
  8
2DLINES_1
 10
15.30000
 20
22.25000
  0
VERTEX
 5
282
  8
2DLINES_1
 10
15.30000
 20
23.15000
  0
SEQEND
  8
2DLINES_1
  0
POLYLINE
 5
283
  8
2DLINES_1
 66
1
 70
1
 40
0.125000
 41
0.125000
  0
VERTEX
 5
284
  8
2DLINES_1
 10
15.23750
 20
22.25000
 42
1.0
  0
VERTEX
 5
285
  8
2DLINES_1
 10
15.36250
 20
22.25000
 42
1.0
  0
SEQEND
  8
2DLINES_1
  0
POLYLINE
 5
286
  8
2DLINES_1
 66
1
 70
1
 40
0.125000
 41
0.125000
  0
VERTEX
 5
287
  8
2DLINES_1
 10
15.23750
 20
23.15000
 42
1.0
  0
VERTEX
 5
288
  8
2DLINES_1
 10
15.36250
 20
23.15000
 42
1.0
  0
SEQEND
  8
2DLINES_1
  0
POLYLINE
 5
289
  8
2DLINES_1
 66
1
 40
0.250000
 41
0.250000
  0
VERTEX
 5
28A
  8
2DLINES_1
 10
15.50000
 20
22.35000
  0
VERTEX
 5
28B
  8
2DLINES_1
 10
15.50000
 20
23.05000
  0
SEQEND
  8
2DLINES_1
  0
POLYLINE
 5
28C
  8
2DLINES_1
 66
1
 70
1
 40
0.125000
 41
0.125000
  0
VERTEX
 5
28D
  8
2DLINES_1
 10
15.43750
 20
22.35000
 42
1.0
  0
VERTEX
 5
28E
  8
2DLINES_1
 10
15.56250
 20
22.35000
 42
1.0
  0
SEQEND
  8
2DLINES_1
  0
POLYLINE
 5
28F
  8
2DLINES_1
 66
1
 70
1
 40
0.125000
 41
0.125000
  0
VERTEX
 5
290
  8
2DLINES_1
 10
15.43750
 20
23.05000
 42
1.0
  0
VERTEX
 5
291
  8
2DLINES_1
 10
15.56250
 20
23.05000
 42
1.0
  0
SEQEND
  8
2DLINES_1
  0
POLYLINE
 5
292
  8
2DLINES_1
 66
1
 40
0.250000
 41
0.250000
  0
VERTEX
 5
293
  8
2DLINES_1
 10
15.70000
 20
22.35000
  0
VERTEX
 5
294
  8
2DLINES_1
 10
15.70000
 20
23.05000
  0
SEQEND
  8
2DLINES_1
  0
POLYLINE
 5
295
  8
2DLINES_1
 66
1
 70
1
 40
0.125000
 41
0.125000
  0
VERTEX
 5
296
  8
2DLINES_1
 10
15.63750
 20
22.35000
 42
1.0
  0
VERTEX
 5
297
  8
2DLINES_1
 10
15.76250
 20
22.35000
 42
1.0
  0
SEQEND
  8
2DLINES_1
  0
POLYLINE
 5
298
  8
2DLINES_1
 66
1
 70
1
 40
0.125000
 41
0.125000
  0
VERTEX
 5
299
  8
2DLINES_1
 10
15.63750
 20
23.05000
 42
1.0
  0
VERTEX
 5
29A
  8
2DLINES_1
 10
15.76250
 20
23.05000
 42
1.0
  0
SEQEND
  8
2DLINES_1
  0
POLYLINE
 5
29B
  8
2DLINES_1
 66
1
 40
0.250000
 41
0.250000
  0
VERTEX
 5
29C
  8
2DLINES_1
 10
15.90000
 20
22.45000
  0
VERTEX
 5
29D
  8
2DLINES_1
 10
15.90000
 20
22.95000
  0
SEQEND
  8
2DLINES_1
  0
POLYLINE
 5
29E
  8
2DLINES_1
 66
1
 70
1
 40
0.125000
 41
0.125000
  0
VERTEX
 5
29F
  8
2DLINES_1
 10
15.83750
 20
22.45000
 42
1.0
  0
VERTEX
 5
2A0
  8
2DLINES_1
 10
15.96250
 20
22.45000
 42
1.0
  0
SEQEND
  8
2DLINES_1
  0
POLYLINE
 5
2A1
  8
2DLINES_1
 66
1
 70
1
 40
0.125000
 41
0.125000
  0
VERTEX
 5
2A2
  8
2DLINES_1
 10
15.83750
 20
22.95000
 42
1.0
  0
VERTEX
 5
2A3
  8
2DLINES_1
 10
15.96250
 20
22.95000
 42
1.0
  0
SEQEND
  8
2DLINES_1
  0
POLYLINE
 5
2A4
  8
2DLINES_1
 66
1
 40
0.250000
 41
0.250000
  0
VERTEX
 5
2A5
  8
2DLINES_1
 10
16.10000
 20
22.55000
  0
VERTEX
 5
2A6
  8
2DLINES_1
 10
16.10000
 20
22.85000
  0
SEQEND
  8
2DLINES_1
  0
POLYLINE
 5
2A7
  8
2DLINES_1
 66
1
 70
1
 40
0.125000
 41
0.125000
  0
VERTEX
 5
2A8
  8
2DLINES_1
 10
16.03750
 20
22.55000
 42
1.0
  0
VERTEX
 5
2A9
  8
2DLINES_1
 10
16.16250
 20
22.55000
 42
1.0
  0
SEQEND
  8
2DLINES_1
  0
POLYLINE
 5
2AA
  8
2DLINES_1
 66
1
 70
1
 40
0.125000
 41
0.125000
  0
VERTEX
 5
2AB
  8
2DLINES_1
 10
16.03750
 20
22.85000
 42
1.0
  0
VERTEX
 5
2AC
  8
2DLINES_1
 10
16.16250
 20
22.85000
 42
1.0
  0
SEQEND
  8
2DLINES_1
  0
POLYLINE
 5
2AD
  8
2DLINES_1
 66
1
 40
0.250000
 41
0.250000
  0
VERTEX
 5
2AE
  8
2DLINES_1
 10
16.30000
 20
22.55000
  0
VERTEX
 5
2AF
  8
2DLINES_1
 10
16.30000
 20
22.85000
  0
SEQEND
  8
2DLINES_1
  0
POLYLINE
 5
2B0
  8
2DLINES_1
 66
1
 70
1
 40
0.125000
 41
0.125000
  0
VERTEX
 5
2B1
  8
2DLINES_1
 10
16.23750
 20
22.55000
 42
1.0
  0
VERTEX
 5
2B2
  8
2DLINES_1
 10
16.36250
 20
22.55000
 42
1.0
  0
SEQEND
  8
2DLINES_1
  0
POLYLINE
 5
2B3
  8
2DLINES_1
 66
1
 70
1
 40
0.125000
 41
0.125000
  0
VERTEX
 5
2B4
  8
2DLINES_1
 10
16.23750
 20
22.85000
 42
1.0
  0
VERTEX
 5
2B5
  8
2DLINES_1
 10
16.36250
 20
22.85000
 42
1.0
  0
SEQEND
  8
2DLINES_1
  0
POLYLINE
 5
2B6
  8
2DLINES_1
 66
1
 40
0.250000
 41
0.250000
  0
VERTEX
 5
2B7
  8
2DLINES_1
 10
18.40000
 20
25.25000
  0
VERTEX
 5
2B8
  8
2DLINES_1
 10
18.40000
 20
47.25000
  0
SEQEND
  8
2DLINES_1
  0
POLYLINE
 5
2B9
  8
2DLINES_1
 66
1
 70
1
 40
0.125000
 41
0.125000
  0
VERTEX
 5
2BA
  8
2DLINES_1
 10
18.33750
 20
25.25000
 42
1.0
  0
VERTEX
 5
2BB
  8
2DLINES_1
 10
18.46250
 20
25.25000
 42
1.0
  0
SEQEND
  8
2DLINES_1
  0
POLYLINE
 5
2BC
  8
2DLINES_1
 66
1
 70
1
 40
0.125000
 41
0.125000
  0
VERTEX
 5
2BD
  8
2DLINES_1
 10
18.33750
 20
47.25000
 42
1.0
  0
VERTEX
 5
2BE
  8
2DLINES_1
 10
18.46250
 20
47.25000
 42
1.0
  0
SEQEND
  8
2DLINES_1
  0
POLYLINE
 5
2BF
  8
2DLINES_1
 66
1
 40
0.250000
 41
0.250000
  0
VERTEX
 5
2C0
  8
2DLINES_1
 10
18.40000
 20
47.25000
  0
VERTEX
 5
2C1
  8
2DLINES_1
 10
19.40000
 20
47.25000
  0
SEQEND
  8
2DLINES_1
  0
POLYLINE
 5
2C2
  8
2DLINES_1
 66
1
 70
1
 40
0.125000
 41
0.125000
  0
VERTEX
 5
2C3
  8
2DLINES_1
 10
18.33750
 20
47.25000
 42
1.0
  0
VERTEX
 5
2C4
  8
2DLINES_1
 10
18.46250
 20
47.25000
 42
1.0
  0
SEQEND
  8
2DLINES_1
  0
POLYLINE
 5
2C5
  8
2DLINES_1
 66
1
 70
1
 40
0.125000
 41
0.125000
  0
VERTEX
 5
2C6
  8
2DLINES_1
 10
19.33750
 20
47.25000
 42
1.0
  0
VERTEX
 5
2C7
  8
2DLINES_1
 10
19.46250
 20
47.25000
 42
1.0
  0
SEQEND
  8
2DLINES_1
  0
POLYLINE
 5
2C8
  8
2DLINES_1
 66
1
 40
0.250000
 41
0.250000
  0
VERTEX
 5
2C9
  8
2DLINES_1
 10
19.40000
 20
47.25000
  0
VERTEX
 5
2CA
  8
2DLINES_1
 10
19.40000
 20
25.25000
  0
SEQEND
  8
2DLINES_1
  0
POLYLINE
 5
2CB
  8
2DLINES_1
 66
1
 70
1
 40
0.125000
 41
0.125000
  0
VERTEX
 5
2CC
  8
2DLINES_1
 10
19.33750
 20
47.25000
 42
1.0
  0
VERTEX
 5
2CD
  8
2DLINES_1
 10
19.46250
 20
47.25000
 42
1.0
  0
SEQEND
  8
2DLINES_1
  0
POLYLINE
 5
2CE
  8
2DLINES_1
 66
1
 70
1
 40
0.125000
 41
0.125000
  0
VERTEX
 5
2CF
  8
2DLINES_1
 10
19.33750
 20
25.25000
 42
1.0
  0
VERTEX
 5
2D0
  8
2DLINES_1
 10
19.46250
 20
25.25000
 42
1.0
  0
SEQEND
  8
2DLINES_1
  0
POLYLINE
 5
2D1
  8
2DLINES_1
 66
1
 40
0.250000
 41
0.250000
  0
VERTEX
 5
2D2
  8
2DLINES_1
 10
19.40000
 20
25.25000
  0
VERTEX
 5
2D3
  8
2DLINES_1
 10
18.40000
 20
25.25000
  0
SEQEND
  8
2DLINES_1
  0
POLYLINE
 5
2D4
  8
2DLINES_1
 66
1
 70
1
 40
0.125000
 41
0.125000
  0
VERTEX
 5
2D5
  8
2DLINES_1
 10
19.33750
 20
25.25000
 42
1.0
  0
VERTEX
 5
2D6
  8
2DLINES_1
 10
19.46250
 20
25.25000
 42
1.0
  0
SEQEND
  8
2DLINES_1
  0
POLYLINE
 5
2D7
  8
2DLINES_1
 66
1
 70
1
 40
0.125000
 41
0.125000
  0
VERTEX
 5
2D8
  8
2DLINES_1
 10
18.33750
 20
25.25000
 42
1.0
  0
VERTEX
 5
2D9
  8
2DLINES_1
 10
18.46250
 20
25.25000
 42
1.0
  0
SEQEND
  8
2DLINES_1
  0
POLYLINE
 5
2DA
  8
2DLINES_1
 66
1
 40
0.250000
 41
0.250000
  0
VERTEX
 5
2DB
  8
2DLINES_1
 10
18.65000
 20
25.50000
  0
VERTEX
 5
2DC
  8
2DLINES_1
 10
18.65000
 20
47.00000
  0
SEQEND
  8
2DLINES_1
  0
POLYLINE
 5
2DD
  8
2DLINES_1
 66
1
 70
1
 40
0.125000
 41
0.125000
  0
VERTEX
 5
2DE
  8
2DLINES_1
 10
18.58750
 20
25.50000
 42
1.0
  0
VERTEX
 5
2DF
  8
2DLINES_1
 10
18.71250
 20
25.50000
 42
1.0
  0
SEQEND
  8
2DLINES_1
  0
POLYLINE
 5
2E0
  8
2DLINES_1
 66
1
 70
1
 40
0.125000
 41
0.125000
  0
VERTEX
 5
2E1
  8
2DLINES_1
 10
18.58750
 20
47.00000
 42
1.0
  0
VERTEX
 5
2E2
  8
2DLINES_1
 10
18.71250
 20
47.00000
 42
1.0
  0
SEQEND
  8
2DLINES_1
  0
POLYLINE
 5
2E3
  8
2DLINES_1
 66
1
 40
0.250000
 41
0.250000
  0
VERTEX
 5
2E4
  8
2DLINES_1
 10
18.65000
 20
47.00000
  0
VERTEX
 5
2E5
  8
2DLINES_1
 10
19.15000
 20
47.00000
  0
SEQEND
  8
2DLINES_1
  0
POLYLINE
 5
2E6
  8
2DLINES_1
 66
1
 70
1
 40
0.125000
 41
0.125000
  0
VERTEX
 5
2E7
  8
2DLINES_1
 10
18.58750
 20
47.00000
 42
1.0
  0
VERTEX
 5
2E8
  8
2DLINES_1
 10
18.71250
 20
47.00000
 42
1.0
  0
SEQEND
  8
2DLINES_1
  0
POLYLINE
 5
2E9
  8
2DLINES_1
 66
1
 70
1
 40
0.125000
 41
0.125000
  0
VERTEX
 5
2EA
  8
2DLINES_1
 10
19.08750
 20
47.00000
 42
1.0
  0
VERTEX
 5
2EB
  8
2DLINES_1
 10
19.21250
 20
47.00000
 42
1.0
  0
SEQEND
  8
2DLINES_1
  0
POLYLINE
 5
2EC
  8
2DLINES_1
 66
1
 40
0.250000
 41
0.250000
  0
VERTEX
 5
2ED
  8
2DLINES_1
 10
19.15000
 20
47.00000
  0
VERTEX
 5
2EE
  8
2DLINES_1
 10
19.15000
 20
25.50000
  0
SEQEND
  8
2DLINES_1
  0
POLYLINE
 5
2EF
  8
2DLINES_1
 66
1
 70
1
 40
0.125000
 41
0.125000
  0
VERTEX
 5
2F0
  8
2DLINES_1
 10
19.08750
 20
47.00000
 42
1.0
  0
VERTEX
 5
2F1
  8
2DLINES_1
 10
19.21250
 20
47.00000
 42
1.0
  0
SEQEND
  8
2DLINES_1
  0
POLYLINE
 5
2F2
  8
2DLINES_1
 66
1
 70
1
 40
0.125000
 41
0.125000
  0
VERTEX
 5
2F3
  8
2DLINES_1
 10
19.08750
 20
25.50000
 42
1.0
  0
VERTEX
 5
2F4
  8
2DLINES_1
 10
19.21250
 20
25.50000
 42
1.0
  0
SEQEND
  8
2DLINES_1
  0
POLYLINE
 5
2F5
  8
2DLINES_1
 66
1
 40
0.250000
 41
0.250000
  0
VERTEX
 5
2F6
  8
2DLINES_1
 10
19.15000
 20
25.50000
  0
VERTEX
 5
2F7
  8
2DLINES_1
 10
18.65000
 20
25.50000
  0
SEQEND
  8
2DLINES_1
  0
POLYLINE
 5
2F8
  8
2DLINES_1
 66
1
 70
1
 40
0.125000
 41
0.125000
  0
VERTEX
 5
2F9
  8
2DLINES_1
 10
19.08750
 20
25.50000
 42
1.0
  0
VERTEX
 5
2FA
  8
2DLINES_1
 10
19.21250
 20
25.50000
 42
1.0
  0
SEQEND
  8
2DLINES_1
  0
POLYLINE
 5
2FB
  8
2DLINES_1
 66
1
 70
1
 40
0.125000
 41
0.125000
  0
VERTEX
 5
2FC
  8
2DLINES_1
 10
18.58750
 20
25.50000
 42
1.0
  0
VERTEX
 5
2FD
  8
2DLINES_1
 10
18.71250
 20
25.50000
 42
1.0
  0
SEQEND
  8
2DLINES_1
  0
POLYLINE
 5
2FE
  8
2DLINES_1
 66
1
 40
0.250000
 41
0.250000
  0
VERTEX
 5
2FF
  8
2DLINES_1
 10
18.20000
 20
25.20000
  0
VERTEX
 5
300
  8
2DLINES_1
 10
18.20000
 20
47.40000
  0
SEQEND
  8
2DLINES_1
  0
POLYLINE
 5
301
  8
2DLINES_1
 66
1
 70
1
 40
0.125000
 41
0.125000
  0
VERTEX
 5
302
  8
2DLINES_1
 10
18.13750
 20
25.20000
 42
1.0
  0
VERTEX
 5
303
  8
2DLINES_1
 10
18.26250
 20
25.20000
 42
1.0
  0
SEQEND
  8
2DLINES_1
  0
POLYLINE
 5
304
  8
2DLINES_1
 66
1
 70
1
 40
0.125000
 41
0.125000
  0
VERTEX
 5
305
  8
2DLINES_1
 10
18.13750
 20
47.40000
 42
1.0
  0
VERTEX
 5
306
  8
2DLINES_1
 10
18.26250
 20
47.40000
 42
1.0
  0
SEQEND
  8
2DLINES_1
  0
POLYLINE
 5
307
  8
2DLINES_1
 66
1
 40
0.250000
 41
0.250000
  0
VERTEX
 5
308
  8
2DLINES_1
 10
18.20000
 20
47.40000
  0
VERTEX
 5
309
  8
2DLINES_1
 10
19.60000
 20
47.40000
  0
SEQEND
  8
2DLINES_1
  0
POLYLINE
 5
30A
  8
2DLINES_1
 66
1
 70
1
 40
0.125000
 41
0.125000
  0
VERTEX
 5
30B
  8
2DLINES_1
 10
18.13750
 20
47.40000
 42
1.0
  0
VERTEX
 5
30C
  8
2DLINES_1
 10
18.26250
 20
47.40000
 42
1.0
  0
SEQEND
  8
2DLINES_1
  0
POLYLINE
 5
30D
  8
2DLINES_1
 66
1
 70
1
 40
0.125000
 41
0.125000
  0
VERTEX
 5
30E
  8
2DLINES_1
 10
19.53750
 20
47.40000
 42
1.0
  0
VERTEX
 5
30F
  8
2DLINES_1
 10
19.66250
 20
47.40000
 42
1.0
  0
SEQEND
  8
2DLINES_1
  0
POLYLINE
 5
310
  8
2DLINES_1
 66
1
 40
0.250000
 41
0.250000
  0
VERTEX
 5
311
  8
2DLINES_1
 10
19.60000
 20
47.40000
  0
VERTEX
 5
312
  8
2DLINES_1
 10
19.60000
 20
25.20000
  0
SEQEND
  8
2DLINES_1
  0
POLYLINE
 5
313
  8
2DLINES_1
 66
1
 70
1
 40
0.125000
 41
0.125000
  0
VERTEX
 5
314
  8
2DLINES_1
 10
19.53750
 20
47.40000
 42
1.0
  0
VERTEX
 5
315
  8
2DLINES_1
 10
19.66250
 20
47.40000
 42
1.0
  0
SEQEND
  8
2DLINES_1
  0
POLYLINE
 5
316
  8
2DLINES_1
 66
1
 70
1
 40
0.125000
 41
0.125000
  0
VERTEX
 5
317
  8
2DLINES_1
 10
19.53750
 20
25.20000
 42
1.0
  0
VERTEX
 5
318
  8
2DLINES_1
 10
19.66250
 20
25.20000
 42
1.0
  0
SEQEND
  8
2DLINES_1
  0
POLYLINE
 5
319
  8
2DLINES_1
 66
1
 40
0.250000
 41
0.250000
  0
VERTEX
 5
31A
  8
2DLINES_1
 10
19.60000
 20
25.20000
  0
VERTEX
 5
31B
  8
2DLINES_1
 10
18.20000
 20
25.20000
  0
SEQEND
  8
2DLINES_1
  0
POLYLINE
 5
31C
  8
2DLINES_1
 66
1
 70
1
 40
0.125000
 41
0.125000
  0
VERTEX
 5
31D
  8
2DLINES_1
 10
19.53750
 20
25.20000
 42
1.0
  0
VERTEX
 5
31E
  8
2DLINES_1
 10
19.66250
 20
25.20000
 42
1.0
  0
SEQEND
  8
2DLINES_1
  0
POLYLINE
 5
31F
  8
2DLINES_1
 66
1
 70
1
 40
0.125000
 41
0.125000
  0
VERTEX
 5
320
  8
2DLINES_1
 10
18.13750
 20
25.20000
 42
1.0
  0
VERTEX
 5
321
  8
2DLINES_1
 10
18.26250
 20
25.20000
 42
1.0
  0
SEQEND
  8
2DLINES_1
  0
POLYLINE
 5
322
  8
2DLINES_1
 66
1
 40
0.250000
 41
0.250000
  0
VERTEX
 5
323
  8
2DLINES_1
 10
18.50000
 20
25.40000
  0
VERTEX
 5
324
  8
2DLINES_1
 10
18.50000
 20
47.20000
  0
SEQEND
  8
2DLINES_1
  0
POLYLINE
 5
325
  8
2DLINES_1
 66
1
 70
1
 40
0.125000
 41
0.125000
  0
VERTEX
 5
326
  8
2DLINES_1
 10
18.43750
 20
25.40000
 42
1.0
  0
VERTEX
 5
327
  8
2DLINES_1
 10
18.56250
 20
25.40000
 42
1.0
  0
SEQEND
  8
2DLINES_1
  0
POLYLINE
 5
328
  8
2DLINES_1
 66
1
 70
1
 40
0.125000
 41
0.125000
  0
VERTEX
 5
329
  8
2DLINES_1
 10
18.43750
 20
47.20000
 42
1.0
  0
VERTEX
 5
32A
  8
2DLINES_1
 10
18.56250
 20
47.20000
 42
1.0
  0
SEQEND
  8
2DLINES_1
  0
POLYLINE
 5
32B
  8
2DLINES_1
 66
1
 40
0.250000
 41
0.250000
  0
VERTEX
 5
32C
  8
2DLINES_1
 10
18.50000
 20
47.20000
  0
VERTEX
 5
32D
  8
2DLINES_1
 10
19.30000
 20
47.20000
  0
SEQEND
  8
2DLINES_1
  0
POLYLINE
 5
32E
  8
2DLINES_1
 66
1
 70
1
 40
0.125000
 41
0.125000
  0
VERTEX
 5
32F
  8
2DLINES_1
 10
18.43750
 20
47.20000
 42
1.0
  0
VERTEX
 5
330
  8
2DLINES_1
 10
18.56250
 20
47.20000
 42
1.0
  0
SEQEND
  8
2DLINES_1
  0
POLYLINE
 5
331
  8
2DLINES_1
 66
1
 70
1
 40
0.125000
 41
0.125000
  0
VERTEX
 5
332
  8
2DLINES_1
 10
19.23750
 20
47.20000
 42
1.0
  0
VERTEX
 5
333
  8
2DLINES_1
 10
19.36250
 20
47.20000
 42
1.0
  0
SEQEND
  8
2DLINES_1
  0
POLYLINE
 5
334
  8
2DLINES_1
 66
1
 40
0.250000
 41
0.250000
  0
VERTEX
 5
335
  8
2DLINES_1
 10
19.30000
 20
47.20000
  0
VERTEX
 5
336
  8
2DLINES_1
 10
19.30000
 20
25.40000
  0
SEQEND
  8
2DLINES_1
  0
POLYLINE
 5
337
  8
2DLINES_1
 66
1
 70
1
 40
0.125000
 41
0.125000
  0
VERTEX
 5
338
  8
2DLINES_1
 10
19.23750
 20
47.20000
 42
1.0
  0
VERTEX
 5
339
  8
2DLINES_1
 10
19.36250
 20
47.20000
 42
1.0
  0
SEQEND
  8
2DLINES_1
  0
POLYLINE
 5
33A
  8
2DLINES_1
 66
1
 70
1
 40
0.125000
 41
0.125000
  0
VERTEX
 5
33B
  8
2DLINES_1
 10
19.23750
 20
25.40000
 42
1.0
  0
VERTEX
 5
33C
  8
2DLINES_1
 10
19.36250
 20
25.40000
 42
1.0
  0
SEQEND
  8
2DLINES_1
  0
POLYLINE
 5
33D
  8
2DLINES_1
 66
1
 40
0.250000
 41
0.250000
  0
VERTEX
 5
33E
  8
2DLINES_1
 10
19.30000
 20
25.40000
  0
VERTEX
 5
33F
  8
2DLINES_1
 10
18.50000
 20
25.40000
  0
SEQEND
  8
2DLINES_1
  0
POLYLINE
 5
340
  8
2DLINES_1
 66
1
 70
1
 40
0.125000
 41
0.125000
  0
VERTEX
 5
341
  8
2DLINES_1
 10
19.23750
 20
25.40000
 42
1.0
  0
VERTEX
 5
342
  8
2DLINES_1
 10
19.36250
 20
25.40000
 42
1.0
  0
SEQEND
  8
2DLINES_1
  0
POLYLINE
 5
343
  8
2DLINES_1
 66
1
 70
1
 40
0.125000
 41
0.125000
  0
VERTEX
 5
344
  8
2DLINES_1
 10
18.43750
 20
25.40000
 42
1.0
  0
VERTEX
 5
345
  8
2DLINES_1
 10
18.56250
 20
25.40000
 42
1.0
  0
SEQEND
  8
2DLINES_1
  0
POLYLINE
 5
346
  8
2DLINES_1
 66
1
 40
0.250000
 41
0.250000
  0
VERTEX
 5
347
  8
2DLINES_1
 10
18.70000
 20
25.60000
  0
VERTEX
 5
348
  8
2DLINES_1
 10
18.70000
 20
46.90000
  0
SEQEND
  8
2DLINES_1
  0
POLYLINE
 5
349
  8
2DLINES_1
 66
1
 70
1
 40
0.125000
 41
0.125000
  0
VERTEX
 5
34A
  8
2DLINES_1
 10
18.63750
 20
25.60000
 42
1.0
  0
VERTEX
 5
34B
  8
2DLINES_1
 10
18.76250
 20
25.60000
 42
1.0
  0
SEQEND
  8
2DLINES_1
  0
POLYLINE
 5
34C
  8
2DLINES_1
 66
1
 70
1
 40
0.125000
 41
0.125000
  0
VERTEX
 5
34D
  8
2DLINES_1
 10
18.63750
 20
46.90000
 42
1.0
  0
VERTEX
 5
34E
  8
2DLINES_1
 10
18.76250
 20
46.90000
 42
1.0
  0
SEQEND
  8
2DLINES_1
  0
POLYLINE
 5
34F
  8
2DLINES_1
 66
1
 40
0.250000
 41
0.250000
  0
VERTEX
 5
350
  8
2DLINES_1
 10
18.70000
 20
46.90000
  0
VERTEX
 5
351
  8
2DLINES_1
 10
19.10000
 20
46.90000
  0
SEQEND
  8
2DLINES_1
  0
POLYLINE
 5
352
  8
2DLINES_1
 66
1
 70
1
 40
0.125000
 41
0.125000
  0
VERTEX
 5
353
  8
2DLINES_1
 10
18.63750
 20
46.90000
 42
1.0
  0
VERTEX
 5
354
  8
2DLINES_1
 10
18.76250
 20
46.90000
 42
1.0
  0
SEQEND
  8
2DLINES_1
  0
POLYLINE
 5
355
  8
2DLINES_1
 66
1
 70
1
 40
0.125000
 41
0.125000
  0
VERTEX
 5
356
  8
2DLINES_1
 10
19.03750
 20
46.90000
 42
1.0
  0
VERTEX
 5
357
  8
2DLINES_1
 10
19.16250
 20
46.90000
 42
1.0
  0
SEQEND
  8
2DLINES_1
  0
POLYLINE
 5
358
  8
2DLINES_1
 66
1
 40
0.250000
 41
0.250000
  0
VERTEX
 5
359
  8
2DLINES_1
 10
19.10000
 20
46.90000
  0
VERTEX
 5
35A
  8
2DLINES_1
 10
19.10000
 20
25.60000
  0
SEQEND
  8
2DLINES_1
  0
POLYLINE
 5
35B
  8
2DLINES_1
 66
1
 70
1
 40
0.125000
 41
0.125000
  0
VERTEX
 5
35C
  8
2DLINES_1
 10
19.03750
 20
46.90000
 42
1.0
  0
VERTEX
 5
35D
  8
2DLINES_1
 10
19.16250
 20
46.90000
 42
1.0
  0
SEQEND
  8
2DLINES_1
  0
POLYLINE
 5
35E
  8
2DLINES_1
 66
1
 70
1
 40
0.125000
 41
0.125000
  0
VERTEX
 5
35F
  8
2DLINES_1
 10
19.03750
 20
25.60000
 42
1.0
  0
VERTEX
 5
360
  8
2DLINES_1
 10
19.16250
 20
25.60000
 42
1.0
  0
SEQEND
  8
2DLINES_1
  0
POLYLINE
 5
361
  8
2DLINES_1
 66
1
 40
0.250000
 41
0.250000
  0
VERTEX
 5
362
  8
2DLINES_1
 10
19.10000
 20
25.60000
  0
VERTEX
 5
363
  8
2DLINES_1
 10
18.70000
 20
25.60000
  0
SEQEND
  8
2DLINES_1
  0
POLYLINE
 5
364
  8
2DLINES_1
 66
1
 70
1
 40
0.125000
 41
0.125000
  0
VERTEX
 5
365
  8
2DLINES_1
 10
19.03750
 20
25.60000
 42
1.0
  0
VERTEX
 5
366
  8
2DLINES_1
 10
19.16250
 20
25.60000
 42
1.0
  0
SEQEND
  8
2DLINES_1
  0
POLYLINE
 5
367
  8
2DLINES_1
 66
1
 70
1
 40
0.125000
 41
0.125000
  0
VERTEX
 5
368
  8
2DLINES_1
 10
18.63750
 20
25.60000
 42
1.0
  0
VERTEX
 5
369
  8
2DLINES_1
 10
18.76250
 20
25.60000
 42
1.0
  0
SEQEND
  8
2DLINES_1
  0
POLYLINE
 5
36A
  8
2DLINES_1
 66
1
 40
0.250000
 41
0.250000
  0
VERTEX
 5
36B
  8
2DLINES_1
 10
18.80000
 20
46.80000
  0
VERTEX
 5
36C
  8
2DLINES_1
 10
18.80000
 20
25.70000
  0
SEQEND
  8
2DLINES_1
  0
POLYLINE
 5
36D
  8
2DLINES_1
 66
1
 70
1
 40
0.125000
 41
0.125000
  0
VERTEX
 5
36E
  8
2DLINES_1
 10
18.73750
 20
46.80000
 42
1.0
  0
VERTEX
 5
36F
  8
2DLINES_1
 10
18.86250
 20
46.80000
 42
1.0
  0
SEQEND
  8
2DLINES_1
  0
POLYLINE
 5
370
  8
2DLINES_1
 66
1
 70
1
 40
0.125000
 41
0.125000
  0
VERTEX
 5
371
  8
2DLINES_1
 10
18.73750
 20
25.70000
 42
1.0
  0
VERTEX
 5
372
  8
2DLINES_1
 10
18.86250
 20
25.70000
 42
1.0
  0
SEQEND
  8
2DLINES_1
  0
POLYLINE
 5
373
  8
2DLINES_1
 66
1
 40
0.250000
 41
0.250000
  0
VERTEX
 5
374
  8
2DLINES_1
 10
18.80000
 20
25.70000
  0
VERTEX
 5
375
  8
2DLINES_1
 10
19.00000
 20
25.70000
  0
SEQEND
  8
2DLINES_1
  0
POLYLINE
 5
376
  8
2DLINES_1
 66
1
 70
1
 40
0.125000
 41
0.125000
  0
VERTEX
 5
377
  8
2DLINES_1
 10
18.73750
 20
25.70000
 42
1.0
  0
VERTEX
 5
378
  8
2DLINES_1
 10
18.86250
 20
25.70000
 42
1.0
  0
SEQEND
  8
2DLINES_1
  0
POLYLINE
 5
379
  8
2DLINES_1
 66
1
 70
1
 40
0.125000
 41
0.125000
  0
VERTEX
 5
37A
  8
2DLINES_1
 10
18.93750
 20
25.70000
 42
1.0
  0
VERTEX
 5
37B
  8
2DLINES_1
 10
19.06250
 20
25.70000
 42
1.0
  0
SEQEND
  8
2DLINES_1
  0
POLYLINE
 5
37C
  8
2DLINES_1
 66
1
 40
0.250000
 41
0.250000
  0
VERTEX
 5
37D
  8
2DLINES_1
 10
19.00000
 20
25.70000
  0
VERTEX
 5
37E
  8
2DLINES_1
 10
19.00000
 20
46.80000
  0
SEQEND
  8
2DLINES_1
  0
POLYLINE
 5
37F
  8
2DLINES_1
 66
1
 70
1
 40
0.125000
 41
0.125000
  0
VERTEX
 5
380
  8
2DLINES_1
 10
18.93750
 20
25.70000
 42
1.0
  0
VERTEX
 5
381
  8
2DLINES_1
 10
19.06250
 20
25.70000
 42
1.0
  0
SEQEND
  8
2DLINES_1
  0
POLYLINE
 5
382
  8
2DLINES_1
 66
1
 70
1
 40
0.125000
 41
0.125000
  0
VERTEX
 5
383
  8
2DLINES_1
 10
18.93750
 20
46.80000
 42
1.0
  0
VERTEX
 5
384
  8
2DLINES_1
 10
19.06250
 20
46.80000
 42
1.0
  0
SEQEND
  8
2DLINES_1
  0
POLYLINE
 5
385
  8
2DLINES_1
 66
1
 40
0.250000
 41
0.250000
  0
VERTEX
 5
386
  8
2DLINES_1
 10
19.00000
 20
46.80000
  0
VERTEX
 5
387
  8
2DLINES_1
 10
18.80000
 20
46.80000
  0
SEQEND
  8
2DLINES_1
  0
POLYLINE
 5
388
  8
2DLINES_1
 66
1
 70
1
 40
0.125000
 41
0.125000
  0
VERTEX
 5
389
  8
2DLINES_1
 10
18.93750
 20
46.80000
 42
1.0
  0
VERTEX
 5
38A
  8
2DLINES_1
 10
19.06250
 20
46.80000
 42
1.0
  0
SEQEND
  8
2DLINES_1
  0
POLYLINE
 5
38B
  8
2DLINES_1
 66
1
 70
1
 40
0.125000
 41
0.125000
  0
VERTEX
 5
38C
  8
2DLINES_1
 10
18.73750
 20
46.80000
 42
1.0
  0
VERTEX
 5
38D
  8
2DLINES_1
 10
18.86250
 20
46.80000
 42
1.0
  0
SEQEND
  8
2DLINES_1
  0
POLYLINE
 5
38E
  8
2DLINES_1
 66
1
 40
0.250000
 41
0.250000
  0
VERTEX
 5
38F
  8
2DLINES_1
 10
19.65000
 20
25.00000
  0
VERTEX
 5
390
  8
2DLINES_1
 10
19.65000
 20
47.50000
  0
SEQEND
  8
2DLINES_1
  0
POLYLINE
 5
391
  8
2DLINES_1
 66
1
 70
1
 40
0.125000
 41
0.125000
  0
VERTEX
 5
392
  8
2DLINES_1
 10
19.58750
 20
25.00000
 42
1.0
  0
VERTEX
 5
393
  8
2DLINES_1
 10
19.71250
 20
25.00000
 42
1.0
  0
SEQEND
  8
2DLINES_1
  0
POLYLINE
 5
394
  8
2DLINES_1
 66
1
 70
1
 40
0.125000
 41
0.125000
  0
VERTEX
 5
395
  8
2DLINES_1
 10
19.58750
 20
47.50000
 42
1.0
  0
VERTEX
 5
396
  8
2DLINES_1
 10
19.71250
 20
47.50000
 42
1.0
  0
SEQEND
  8
2DLINES_1
  0
POLYLINE
 5
397
  8
2DLINES_1
 66
1
 40
0.250000
 41
0.250000
  0
VERTEX
 5
398
  8
2DLINES_1
 10
19.65000
 20
47.50000
  0
VERTEX
 5
399
  8
2DLINES_1
 10
18.15000
 20
47.50000
  0
SEQEND
  8
2DLINES_1
  0
POLYLINE
 5
39A
  8
2DLINES_1
 66
1
 70
1
 40
0.125000
 41
0.125000
  0
VERTEX
 5
39B
  8
2DLINES_1
 10
19.58750
 20
47.50000
 42
1.0
  0
VERTEX
 5
39C
  8
2DLINES_1
 10
19.71250
 20
47.50000
 42
1.0
  0
SEQEND
  8
2DLINES_1
  0
POLYLINE
 5
39D
  8
2DLINES_1
 66
1
 70
1
 40
0.125000
 41
0.125000
  0
VERTEX
 5
39E
  8
2DLINES_1
 10
18.08750
 20
47.50000
 42
1.0
  0
VERTEX
 5
39F
  8
2DLINES_1
 10
18.21250
 20
47.50000
 42
1.0
  0
SEQEND
  8
2DLINES_1
  0
POLYLINE
 5
3A0
  8
2DLINES_1
 66
1
 40
0.250000
 41
0.250000
  0
VERTEX
 5
3A1
  8
2DLINES_1
 10
18.15000
 20
47.50000
  0
VERTEX
 5
3A2
  8
2DLINES_1
 10
18.15000
 20
25.00000
  0
SEQEND
  8
2DLINES_1
  0
POLYLINE
 5
3A3
  8
2DLINES_1
 66
1
 70
1
 40
0.125000
 41
0.125000
  0
VERTEX
 5
3A4
  8
2DLINES_1
 10
18.08750
 20
47.50000
 42
1.0
  0
VERTEX
 5
3A5
  8
2DLINES_1
 10
18.21250
 20
47.50000
 42
1.0
  0
SEQEND
  8
2DLINES_1
  0
POLYLINE
 5
3A6
  8
2DLINES_1
 66
1
 70
1
 40
0.125000
 41
0.125000
  0
VERTEX
 5
3A7
  8
2DLINES_1
 10
18.08750
 20
25.00000
 42
1.0
  0
VERTEX
 5
3A8
  8
2DLINES_1
 10
18.21250
 20
25.00000
 42
1.0
  0
SEQEND
  8
2DLINES_1
  0
POLYLINE
 5
3A9
  8
2DLINES_1
 66
1
 40
0.250000
 41
0.250000
  0
VERTEX
 5
3AA
  8
2DLINES_1
 10
18.15000
 20
25.00000
  0
VERTEX
 5
3AB
  8
2DLINES_1
 10
19.65000
 20
25.00000
  0
SEQEND
  8
2DLINES_1
  0
POLYLINE
 5
3AC
  8
2DLINES_1
 66
1
 70
1
 40
0.125000
 41
0.125000
  0
VERTEX
 5
3AD
  8
2DLINES_1
 10
18.08750
 20
25.00000
 42
1.0
  0
VERTEX
 5
3AE
  8
2DLINES_1
 10
18.21250
 20
25.00000
 42
1.0
  0
SEQEND
  8
2DLINES_1
  0
POLYLINE
 5
3AF
  8
2DLINES_1
 66
1
 70
1
 40
0.125000
 41
0.125000
  0
VERTEX
 5
3B0
  8
2DLINES_1
 10
19.58750
 20
25.00000
 42
1.0
  0
VERTEX
 5
3B1
  8
2DLINES_1
 10
19.71250
 20
25.00000
 42
1.0
  0
SEQEND
  8
2DLINES_1
  0
TEXT
  8
TEXT_1
 10
14.90000
 20
25.00000
 40
1.785725
  1
WOOJIN
 73
 1
 11
14.90000
 21
25.00000
  50
89.999982
  0
TEXT
  8
TEXT_1
 10
17.40000
 20
25.00000
 40
1.785725
  1
FDI_SDI-POWER2 A0
 73
 1
 11
17.40000
 21
25.00000
  50
89.999982
  0
TEXT
  8
TEXT_1
 10
93.25000
 20
21.50000
 40
1.428580
  1
+Vout
 73
 1
 11
93.25000
 21
21.50000
  0
TEXT
  8
TEXT_1
 10
93.25000
 20
43.00000
 40
1.428580
  1
-Vout
 73
 1
 11
93.25000
 21
43.00000
  0
TEXT
  8
TEXT_1
 10
4.00000
 20
21.50000
 40
1.428580
  1
+Vin
 73
 1
 11
4.00000
 21
21.50000
  0
TEXT
  8
TEXT_1
 10
4.00000
 20
43.00000
 40
1.428580
  1
-Vin
 73
 1
 11
4.00000
 21
43.00000
  0
POLYLINE
 5
3B2
  8
COMP_OUTLINE_TOP
 66
1
 40
0.300000
 41
0.300000
  0
VERTEX
 5
3B3
  8
COMP_OUTLINE_TOP
 10
77.95000
 20
4.69999
 42
0.414214
  0
VERTEX
 5
3B4
  8
COMP_OUTLINE_TOP
 10
79.95000
 20
6.69999
  0
SEQEND
  8
COMP_OUTLINE_TOP
  0
POLYLINE
 5
3B5
  8
COMP_OUTLINE_TOP
 66
1
 70
1
 40
0.150000
 41
0.150000
  0
VERTEX
 5
3B6
  8
COMP_OUTLINE_TOP
 10
77.87500
 20
4.69999
 42
1.0
  0
VERTEX
 5
3B7
  8
COMP_OUTLINE_TOP
 10
78.02500
 20
4.69999
 42
1.0
  0
SEQEND
  8
COMP_OUTLINE_TOP
  0
POLYLINE
 5
3B8
  8
COMP_OUTLINE_TOP
 66
1
 70
1
 40
0.150000
 41
0.150000
  0
VERTEX
 5
3B9
  8
COMP_OUTLINE_TOP
 10
79.87500
 20
6.69999
 42
1.0
  0
VERTEX
 5
3BA
  8
COMP_OUTLINE_TOP
 10
80.02500
 20
6.69999
 42
1.0
  0
SEQEND
  8
COMP_OUTLINE_TOP
  0
POLYLINE
 5
3BB
  8
COMP_OUTLINE_TOP
 66
1
 40
0.300000
 41
0.300000
  0
VERTEX
 5
3BC
  8
COMP_OUTLINE_TOP
 10
79.95000
 20
6.69999
  0
VERTEX
 5
3BD
  8
COMP_OUTLINE_TOP
 10
79.95002
 20
58.59999
 42
0.414214
  0
SEQEND
  8
COMP_OUTLINE_TOP
  0
POLYLINE
 5
3BE
  8
COMP_OUTLINE_TOP
 66
1
 70
1
 40
0.150000
 41
0.150000
  0
VERTEX
 5
3BF
  8
COMP_OUTLINE_TOP
 10
79.87500
 20
6.69999
 42
1.0
  0
VERTEX
 5
3C0
  8
COMP_OUTLINE_TOP
 10
80.02500
 20
6.69999
 42
1.0
  0
SEQEND
  8
COMP_OUTLINE_TOP
  0
POLYLINE
 5
3C1
  8
COMP_OUTLINE_TOP
 66
1
 70
1
 40
0.150000
 41
0.150000
  0
VERTEX
 5
3C2
  8
COMP_OUTLINE_TOP
 10
79.87502
 20
58.59999
 42
1.0
  0
VERTEX
 5
3C3
  8
COMP_OUTLINE_TOP
 10
80.02502
 20
58.59999
 42
1.0
  0
SEQEND
  8
COMP_OUTLINE_TOP
  0
POLYLINE
 5
3C4
  8
COMP_OUTLINE_TOP
 66
1
 40
0.300000
 41
0.300000
  0
VERTEX
 5
3C5
  8
COMP_OUTLINE_TOP
 10
79.95002
 20
58.59999
 42
0.414214
  0
VERTEX
 5
3C6
  8
COMP_OUTLINE_TOP
 10
77.95002
 20
60.59999
  0
SEQEND
  8
COMP_OUTLINE_TOP
  0
POLYLINE
 5
3C7
  8
COMP_OUTLINE_TOP
 66
1
 70
1
 40
0.150000
 41
0.150000
  0
VERTEX
 5
3C8
  8
COMP_OUTLINE_TOP
 10
79.87502
 20
58.59999
 42
1.0
  0
VERTEX
 5
3C9
  8
COMP_OUTLINE_TOP
 10
80.02502
 20
58.59999
 42
1.0
  0
SEQEND
  8
COMP_OUTLINE_TOP
  0
POLYLINE
 5
3CA
  8
COMP_OUTLINE_TOP
 66
1
 70
1
 40
0.150000
 41
0.150000
  0
VERTEX
 5
3CB
  8
COMP_OUTLINE_TOP
 10
77.87502
 20
60.59999
 42
1.0
  0
VERTEX
 5
3CC
  8
COMP_OUTLINE_TOP
 10
78.02502
 20
60.59999
 42
1.0
  0
SEQEND
  8
COMP_OUTLINE_TOP
  0
POLYLINE
 5
3CD
  8
COMP_OUTLINE_TOP
 66
1
 40
0.300000
 41
0.300000
  0
VERTEX
 5
3CE
  8
COMP_OUTLINE_TOP
 10
77.95002
 20
60.59999
  0
VERTEX
 5
3CF
  8
COMP_OUTLINE_TOP
 10
24.05002
 20
60.60001
 42
0.414214
  0
SEQEND
  8
COMP_OUTLINE_TOP
  0
POLYLINE
 5
3D0
  8
COMP_OUTLINE_TOP
 66
1
 70
1
 40
0.150000
 41
0.150000
  0
VERTEX
 5
3D1
  8
COMP_OUTLINE_TOP
 10
77.87502
 20
60.59999
 42
1.0
  0
VERTEX
 5
3D2
  8
COMP_OUTLINE_TOP
 10
78.02502
 20
60.59999
 42
1.0
  0
SEQEND
  8
COMP_OUTLINE_TOP
  0
POLYLINE
 5
3D3
  8
COMP_OUTLINE_TOP
 66
1
 70
1
 40
0.150000
 41
0.150000
  0
VERTEX
 5
3D4
  8
COMP_OUTLINE_TOP
 10
23.97502
 20
60.60001
 42
1.0
  0
VERTEX
 5
3D5
  8
COMP_OUTLINE_TOP
 10
24.12502
 20
60.60001
 42
1.0
  0
SEQEND
  8
COMP_OUTLINE_TOP
  0
POLYLINE
 5
3D6
  8
COMP_OUTLINE_TOP
 66
1
 40
0.300000
 41
0.300000
  0
VERTEX
 5
3D7
  8
COMP_OUTLINE_TOP
 10
24.05002
 20
60.60001
 42
0.414214
  0
VERTEX
 5
3D8
  8
COMP_OUTLINE_TOP
 10
22.05002
 20
58.60001
  0
SEQEND
  8
COMP_OUTLINE_TOP
  0
POLYLINE
 5
3D9
  8
COMP_OUTLINE_TOP
 66
1
 70
1
 40
0.150000
 41
0.150000
  0
VERTEX
 5
3DA
  8
COMP_OUTLINE_TOP
 10
23.97502
 20
60.60001
 42
1.0
  0
VERTEX
 5
3DB
  8
COMP_OUTLINE_TOP
 10
24.12502
 20
60.60001
 42
1.0
  0
SEQEND
  8
COMP_OUTLINE_TOP
  0
POLYLINE
 5
3DC
  8
COMP_OUTLINE_TOP
 66
1
 70
1
 40
0.150000
 41
0.150000
  0
VERTEX
 5
3DD
  8
COMP_OUTLINE_TOP
 10
21.97502
 20
58.60001
 42
1.0
  0
VERTEX
 5
3DE
  8
COMP_OUTLINE_TOP
 10
22.12502
 20
58.60001
 42
1.0
  0
SEQEND
  8
COMP_OUTLINE_TOP
  0
POLYLINE
 5
3DF
  8
COMP_OUTLINE_TOP
 66
1
 40
0.300000
 41
0.300000
  0
VERTEX
 5
3E0
  8
COMP_OUTLINE_TOP
 10
22.05002
 20
58.60001
  0
VERTEX
 5
3E1
  8
COMP_OUTLINE_TOP
 10
22.05000
 20
6.70001
 42
0.414214
  0
SEQEND
  8
COMP_OUTLINE_TOP
  0
POLYLINE
 5
3E2
  8
COMP_OUTLINE_TOP
 66
1
 70
1
 40
0.150000
 41
0.150000
  0
VERTEX
 5
3E3
  8
COMP_OUTLINE_TOP
 10
21.97502
 20
58.60001
 42
1.0
  0
VERTEX
 5
3E4
  8
COMP_OUTLINE_TOP
 10
22.12502
 20
58.60001
 42
1.0
  0
SEQEND
  8
COMP_OUTLINE_TOP
  0
POLYLINE
 5
3E5
  8
COMP_OUTLINE_TOP
 66
1
 70
1
 40
0.150000
 41
0.150000
  0
VERTEX
 5
3E6
  8
COMP_OUTLINE_TOP
 10
21.97500
 20
6.70001
 42
1.0
  0
VERTEX
 5
3E7
  8
COMP_OUTLINE_TOP
 10
22.12500
 20
6.70001
 42
1.0
  0
SEQEND
  8
COMP_OUTLINE_TOP
  0
POLYLINE
 5
3E8
  8
COMP_OUTLINE_TOP
 66
1
 40
0.300000
 41
0.300000
  0
VERTEX
 5
3E9
  8
COMP_OUTLINE_TOP
 10
22.05000
 20
6.70001
 42
0.414214
  0
VERTEX
 5
3EA
  8
COMP_OUTLINE_TOP
 10
24.05000
 20
4.70001
  0
SEQEND
  8
COMP_OUTLINE_TOP
  0
POLYLINE
 5
3EB
  8
COMP_OUTLINE_TOP
 66
1
 70
1
 40
0.150000
 41
0.150000
  0
VERTEX
 5
3EC
  8
COMP_OUTLINE_TOP
 10
21.97500
 20
6.70001
 42
1.0
  0
VERTEX
 5
3ED
  8
COMP_OUTLINE_TOP
 10
22.12500
 20
6.70001
 42
1.0
  0
SEQEND
  8
COMP_OUTLINE_TOP
  0
POLYLINE
 5
3EE
  8
COMP_OUTLINE_TOP
 66
1
 70
1
 40
0.150000
 41
0.150000
  0
VERTEX
 5
3EF
  8
COMP_OUTLINE_TOP
 10
23.97500
 20
4.70001
 42
1.0
  0
VERTEX
 5
3F0
  8
COMP_OUTLINE_TOP
 10
24.12500
 20
4.70001
 42
1.0
  0
SEQEND
  8
COMP_OUTLINE_TOP
  0
POLYLINE
 5
3F1
  8
COMP_OUTLINE_TOP
 66
1
 40
0.300000
 41
0.300000
  0
VERTEX
 5
3F2
  8
COMP_OUTLINE_TOP
 10
24.05000
 20
4.70001
  0
VERTEX
 5
3F3
  8
COMP_OUTLINE_TOP
 10
77.95000
 20
4.69999
  0
SEQEND
  8
COMP_OUTLINE_TOP
  0
POLYLINE
 5
3F4
  8
COMP_OUTLINE_TOP
 66
1
 70
1
 40
0.150000
 41
0.150000
  0
VERTEX
 5
3F5
  8
COMP_OUTLINE_TOP
 10
23.97500
 20
4.70001
 42
1.0
  0
VERTEX
 5
3F6
  8
COMP_OUTLINE_TOP
 10
24.12500
 20
4.70001
 42
1.0
  0
SEQEND
  8
COMP_OUTLINE_TOP
  0
POLYLINE
 5
3F7
  8
COMP_OUTLINE_TOP
 66
1
 70
1
 40
0.150000
 41
0.150000
  0
VERTEX
 5
3F8
  8
COMP_OUTLINE_TOP
 10
77.87500
 20
4.69999
 42
1.0
  0
VERTEX
 5
3F9
  8
COMP_OUTLINE_TOP
 10
78.02500
 20
4.69999
 42
1.0
  0
SEQEND
  8
COMP_OUTLINE_TOP
  0
POLYLINE
 5
3FA
  8
COMP_OUTLINE_TOP
 66
1
 40
0.300000
 41
0.300000
  0
VERTEX
 5
3FB
  8
COMP_OUTLINE_TOP
 10
21.95000
 20
10.50001
  0
VERTEX
 5
3FC
  8
COMP_OUTLINE_TOP
 10
79.95000
 20
10.49999
  0
SEQEND
  8
COMP_OUTLINE_TOP
  0
POLYLINE
 5
3FD
  8
COMP_OUTLINE_TOP
 66
1
 70
1
 40
0.150000
 41
0.150000
  0
VERTEX
 5
3FE
  8
COMP_OUTLINE_TOP
 10
21.87500
 20
10.50001
 42
1.0
  0
VERTEX
 5
3FF
  8
COMP_OUTLINE_TOP
 10
22.02500
 20
10.50001
 42
1.0
  0
SEQEND
  8
COMP_OUTLINE_TOP
  0
POLYLINE
 5
400
  8
COMP_OUTLINE_TOP
 66
1
 70
1
 40
0.150000
 41
0.150000
  0
VERTEX
 5
401
  8
COMP_OUTLINE_TOP
 10
79.87500
 20
10.49999
 42
1.0
  0
VERTEX
 5
402
  8
COMP_OUTLINE_TOP
 10
80.02500
 20
10.49999
 42
1.0
  0
SEQEND
  8
COMP_OUTLINE_TOP
  0
POLYLINE
 5
403
  8
COMP_OUTLINE_TOP
 66
1
 40
0.300000
 41
0.300000
  0
VERTEX
 5
404
  8
COMP_OUTLINE_TOP
 10
21.95002
 20
54.70001
  0
VERTEX
 5
405
  8
COMP_OUTLINE_TOP
 10
79.95002
 20
54.69999
  0
SEQEND
  8
COMP_OUTLINE_TOP
  0
POLYLINE
 5
406
  8
COMP_OUTLINE_TOP
 66
1
 70
1
 40
0.150000
 41
0.150000
  0
VERTEX
 5
407
  8
COMP_OUTLINE_TOP
 10
21.87502
 20
54.70001
 42
1.0
  0
VERTEX
 5
408
  8
COMP_OUTLINE_TOP
 10
22.02502
 20
54.70001
 42
1.0
  0
SEQEND
  8
COMP_OUTLINE_TOP
  0
POLYLINE
 5
409
  8
COMP_OUTLINE_TOP
 66
1
 70
1
 40
0.150000
 41
0.150000
  0
VERTEX
 5
40A
  8
COMP_OUTLINE_TOP
 10
79.87502
 20
54.69999
 42
1.0
  0
VERTEX
 5
40B
  8
COMP_OUTLINE_TOP
 10
80.02502
 20
54.69999
 42
1.0
  0
SEQEND
  8
COMP_OUTLINE_TOP
  0
POLYLINE
 5
40C
  8
PADLAYER_TOP
 66
1
 70
1
 40
2.000000
 41
2.000000
  0
VERTEX
 5
40D
  8
PADLAYER_TOP
 10
74.13000
 20
25.37999
 42
1.0
  0
VERTEX
 5
40E
  8
PADLAYER_TOP
 10
76.13000
 20
25.37999
 42
1.0
  0
SEQEND
  8
PADLAYER_TOP
  0
POLYLINE
 5
40F
  8
PADLAYER_BOTTOM
 66
1
 70
1
 40
2.000000
 41
2.000000
  0
VERTEX
 5
410
  8
PADLAYER_BOTTOM
 10
74.13000
 20
25.37999
 42
1.0
  0
VERTEX
 5
411
  8
PADLAYER_BOTTOM
 10
76.13000
 20
25.37999
 42
1.0
  0
SEQEND
  8
PADLAYER_BOTTOM
  0
POLYLINE
 5
412
  8
TOOL_TOP
 66
1
 40
0.300000
 41
0.300000
  0
VERTEX
 5
413
  8
TOOL_TOP
 10
73.88000
 20
25.37999
 42
1.000000
  0
VERTEX
 5
414
  8
TOOL_TOP
 10
76.38000
 20
25.37999
 42
1.000000
  0
VERTEX
 5
415
  8
TOOL_TOP
 10
73.88000
 20
25.37999
  0
SEQEND
  8
TOOL_TOP
  0
TEXT
  8
TOOLCODE_TOP
 10
73.81750
 20
24.75499
 40
1.250000
  1
T00
  0
POLYLINE
 5
416
  8
PADLAYER_TOP
 66
1
 70
1
 40
3.750000
 41
3.750000
  0
VERTEX
 5
417
  8
PADLAYER_TOP
 10
73.25500
 20
15.21999
 42
1.0
  0
VERTEX
 5
418
  8
PADLAYER_TOP
 10
77.00500
 20
15.21999
 42
1.0
  0
SEQEND
  8
PADLAYER_TOP
  0
POLYLINE
 5
419
  8
PADLAYER_BOTTOM
 66
1
 70
1
 40
3.750000
 41
3.750000
  0
VERTEX
 5
41A
  8
PADLAYER_BOTTOM
 10
73.25500
 20
15.21999
 42
1.0
  0
VERTEX
 5
41B
  8
PADLAYER_BOTTOM
 10
77.00500
 20
15.21999
 42
1.0
  0
SEQEND
  8
PADLAYER_BOTTOM
  0
POLYLINE
 5
41C
  8
TOOL_TOP
 66
1
 40
0.300000
 41
0.300000
  0
VERTEX
 5
41D
  8
TOOL_TOP
 10
72.88000
 20
15.21999
 42
1.000000
  0
VERTEX
 5
41E
  8
TOOL_TOP
 10
77.38000
 20
15.21999
 42
1.000000
  0
VERTEX
 5
41F
  8
TOOL_TOP
 10
72.88000
 20
15.21999
  0
SEQEND
  8
TOOL_TOP
  0
TEXT
  8
TOOLCODE_TOP
 10
72.76750
 20
14.09499
 40
2.250000
  1
T00
  0
POLYLINE
 5
420
  8
PADLAYER_TOP
 66
1
 70
1
 40
2.000000
 41
2.000000
  0
VERTEX
 5
421
  8
PADLAYER_TOP
 10
74.13001
 20
32.99999
 42
1.0
  0
VERTEX
 5
422
  8
PADLAYER_TOP
 10
76.13001
 20
32.99999
 42
1.0
  0
SEQEND
  8
PADLAYER_TOP
  0
POLYLINE
 5
423
  8
PADLAYER_BOTTOM
 66
1
 70
1
 40
2.000000
 41
2.000000
  0
VERTEX
 5
424
  8
PADLAYER_BOTTOM
 10
74.13001
 20
32.99999
 42
1.0
  0
VERTEX
 5
425
  8
PADLAYER_BOTTOM
 10
76.13001
 20
32.99999
 42
1.0
  0
SEQEND
  8
PADLAYER_BOTTOM
  0
POLYLINE
 5
426
  8
TOOL_TOP
 66
1
 40
0.300000
 41
0.300000
  0
VERTEX
 5
427
  8
TOOL_TOP
 10
73.88001
 20
32.99999
 42
1.000000
  0
VERTEX
 5
428
  8
TOOL_TOP
 10
76.38001
 20
32.99999
 42
1.000000
  0
VERTEX
 5
429
  8
TOOL_TOP
 10
73.88001
 20
32.99999
  0
SEQEND
  8
TOOL_TOP
  0
TEXT
  8
TOOLCODE_TOP
 10
73.81751
 20
32.37499
 40
1.250000
  1
T00
  0
POLYLINE
 5
42A
  8
PADLAYER_TOP
 66
1
 70
1
 40
3.750000
 41
3.750000
  0
VERTEX
 5
42B
  8
PADLAYER_TOP
 10
73.25501
 20
50.77999
 42
1.0
  0
VERTEX
 5
42C
  8
PADLAYER_TOP
 10
77.00501
 20
50.77999
 42
1.0
  0
SEQEND
  8
PADLAYER_TOP
  0
POLYLINE
 5
42D
  8
PADLAYER_BOTTOM
 66
1
 70
1
 40
3.750000
 41
3.750000
  0
VERTEX
 5
42E
  8
PADLAYER_BOTTOM
 10
73.25501
 20
50.77999
 42
1.0
  0
VERTEX
 5
42F
  8
PADLAYER_BOTTOM
 10
77.00501
 20
50.77999
 42
1.0
  0
SEQEND
  8
PADLAYER_BOTTOM
  0
POLYLINE
 5
430
  8
TOOL_TOP
 66
1
 40
0.300000
 41
0.300000
  0
VERTEX
 5
431
  8
TOOL_TOP
 10
72.88001
 20
50.77999
 42
1.000000
  0
VERTEX
 5
432
  8
TOOL_TOP
 10
77.38001
 20
50.77999
 42
1.000000
  0
VERTEX
 5
433
  8
TOOL_TOP
 10
72.88001
 20
50.77999
  0
SEQEND
  8
TOOL_TOP
  0
TEXT
  8
TOOLCODE_TOP
 10
72.76751
 20
49.65499
 40
2.250000
  1
T00
  0
POLYLINE
 5
434
  8
PADLAYER_TOP
 66
1
 70
1
 40
2.000000
 41
2.000000
  0
VERTEX
 5
435
  8
PADLAYER_TOP
 10
74.13001
 20
40.61999
 42
1.0
  0
VERTEX
 5
436
  8
PADLAYER_TOP
 10
76.13001
 20
40.61999
 42
1.0
  0
SEQEND
  8
PADLAYER_TOP
  0
POLYLINE
 5
437
  8
PADLAYER_BOTTOM
 66
1
 70
1
 40
2.000000
 41
2.000000
  0
VERTEX
 5
438
  8
PADLAYER_BOTTOM
 10
74.13001
 20
40.61999
 42
1.0
  0
VERTEX
 5
439
  8
PADLAYER_BOTTOM
 10
76.13001
 20
40.61999
 42
1.0
  0
SEQEND
  8
PADLAYER_BOTTOM
  0
POLYLINE
 5
43A
  8
TOOL_TOP
 66
1
 40
0.300000
 41
0.300000
  0
VERTEX
 5
43B
  8
TOOL_TOP
 10
73.88001
 20
40.61999
 42
1.000000
  0
VERTEX
 5
43C
  8
TOOL_TOP
 10
76.38001
 20
40.61999
 42
1.000000
  0
VERTEX
 5
43D
  8
TOOL_TOP
 10
73.88001
 20
40.61999
  0
SEQEND
  8
TOOL_TOP
  0
TEXT
  8
TOOLCODE_TOP
 10
73.81751
 20
39.99499
 40
1.250000
  1
T00
  0
POLYLINE
 5
43E
  8
PADLAYER_TOP
 66
1
 70
1
 40
2.000000
 41
2.000000
  0
VERTEX
 5
43F
  8
PADLAYER_TOP
 10
25.87000
 20
15.22001
 42
1.0
  0
VERTEX
 5
440
  8
PADLAYER_TOP
 10
27.87000
 20
15.22001
 42
1.0
  0
SEQEND
  8
PADLAYER_TOP
  0
POLYLINE
 5
441
  8
PADLAYER_BOTTOM
 66
1
 70
1
 40
2.000000
 41
2.000000
  0
VERTEX
 5
442
  8
PADLAYER_BOTTOM
 10
25.87000
 20
15.22001
 42
1.0
  0
VERTEX
 5
443
  8
PADLAYER_BOTTOM
 10
27.87000
 20
15.22001
 42
1.0
  0
SEQEND
  8
PADLAYER_BOTTOM
  0
POLYLINE
 5
444
  8
TOOL_TOP
 66
1
 40
0.300000
 41
0.300000
  0
VERTEX
 5
445
  8
TOOL_TOP
 10
25.62000
 20
15.22001
 42
1.000000
  0
VERTEX
 5
446
  8
TOOL_TOP
 10
28.12000
 20
15.22001
 42
1.000000
  0
VERTEX
 5
447
  8
TOOL_TOP
 10
25.62000
 20
15.22001
  0
SEQEND
  8
TOOL_TOP
  0
TEXT
  8
TOOLCODE_TOP
 10
25.55750
 20
14.59501
 40
1.250000
  1
T00
  0
POLYLINE
 5
448
  8
PADLAYER_TOP
 66
1
 70
1
 40
2.000000
 41
2.000000
  0
VERTEX
 5
449
  8
PADLAYER_TOP
 10
25.87001
 20
25.38001
 42
1.0
  0
VERTEX
 5
44A
  8
PADLAYER_TOP
 10
27.87001
 20
25.38001
 42
1.0
  0
SEQEND
  8
PADLAYER_TOP
  0
POLYLINE
 5
44B
  8
PADLAYER_BOTTOM
 66
1
 70
1
 40
2.000000
 41
2.000000
  0
VERTEX
 5
44C
  8
PADLAYER_BOTTOM
 10
25.87001
 20
25.38001
 42
1.0
  0
VERTEX
 5
44D
  8
PADLAYER_BOTTOM
 10
27.87001
 20
25.38001
 42
1.0
  0
SEQEND
  8
PADLAYER_BOTTOM
  0
POLYLINE
 5
44E
  8
TOOL_TOP
 66
1
 40
0.300000
 41
0.300000
  0
VERTEX
 5
44F
  8
TOOL_TOP
 10
25.62001
 20
25.38001
 42
1.000000
  0
VERTEX
 5
450
  8
TOOL_TOP
 10
28.12001
 20
25.38001
 42
1.000000
  0
VERTEX
 5
451
  8
TOOL_TOP
 10
25.62001
 20
25.38001
  0
SEQEND
  8
TOOL_TOP
  0
TEXT
  8
TOOLCODE_TOP
 10
25.55751
 20
24.75501
 40
1.250000
  1
T00
  0
POLYLINE
 5
452
  8
PADLAYER_TOP
 66
1
 70
1
 40
2.000000
 41
2.000000
  0
VERTEX
 5
453
  8
PADLAYER_TOP
 10
25.87001
 20
40.62001
 42
1.0
  0
VERTEX
 5
454
  8
PADLAYER_TOP
 10
27.87001
 20
40.62001
 42
1.0
  0
SEQEND
  8
PADLAYER_TOP
  0
POLYLINE
 5
455
  8
PADLAYER_BOTTOM
 66
1
 70
1
 40
2.000000
 41
2.000000
  0
VERTEX
 5
456
  8
PADLAYER_BOTTOM
 10
25.87001
 20
40.62001
 42
1.0
  0
VERTEX
 5
457
  8
PADLAYER_BOTTOM
 10
27.87001
 20
40.62001
 42
1.0
  0
SEQEND
  8
PADLAYER_BOTTOM
  0
POLYLINE
 5
458
  8
TOOL_TOP
 66
1
 40
0.300000
 41
0.300000
  0
VERTEX
 5
459
  8
TOOL_TOP
 10
25.62001
 20
40.62001
 42
1.000000
  0
VERTEX
 5
45A
  8
TOOL_TOP
 10
28.12001
 20
40.62001
 42
1.000000
  0
VERTEX
 5
45B
  8
TOOL_TOP
 10
25.62001
 20
40.62001
  0
SEQEND
  8
TOOL_TOP
  0
TEXT
  8
TOOLCODE_TOP
 10
25.55751
 20
39.99501
 40
1.250000
  1
T00
  0
POLYLINE
 5
45C
  8
PADLAYER_TOP
 66
1
 70
1
 40
2.000000
 41
2.000000
  0
VERTEX
 5
45D
  8
PADLAYER_TOP
 10
25.87001
 20
50.78001
 42
1.0
  0
VERTEX
 5
45E
  8
PADLAYER_TOP
 10
27.87001
 20
50.78001
 42
1.0
  0
SEQEND
  8
PADLAYER_TOP
  0
POLYLINE
 5
45F
  8
PADLAYER_BOTTOM
 66
1
 70
1
 40
2.000000
 41
2.000000
  0
VERTEX
 5
460
  8
PADLAYER_BOTTOM
 10
25.87001
 20
50.78001
 42
1.0
  0
VERTEX
 5
461
  8
PADLAYER_BOTTOM
 10
27.87001
 20
50.78001
 42
1.0
  0
SEQEND
  8
PADLAYER_BOTTOM
  0
POLYLINE
 5
462
  8
TOOL_TOP
 66
1
 40
0.300000
 41
0.300000
  0
VERTEX
 5
463
  8
TOOL_TOP
 10
25.62001
 20
50.78001
 42
1.000000
  0
VERTEX
 5
464
  8
TOOL_TOP
 10
28.12001
 20
50.78001
 42
1.000000
  0
VERTEX
 5
465
  8
TOOL_TOP
 10
25.62001
 20
50.78001
  0
SEQEND
  8
TOOL_TOP
  0
TEXT
  8
TOOLCODE_TOP
 10
25.55751
 20
50.15501
 40
1.250000
  1
T00
  0
POLYLINE
 5
466
  8
PADLAYER_TOP
 66
1
 70
1
 40
3.000000
 41
3.000000
  0
VERTEX
 5
467
  8
PADLAYER_TOP
 10
66.00000
 20
7.24999
 42
1.0
  0
VERTEX
 5
468
  8
PADLAYER_TOP
 10
69.00000
 20
7.24999
 42
1.0
  0
SEQEND
  8
PADLAYER_TOP
  0
POLYLINE
 5
469
  8
PADLAYER_BOTTOM
 66
1
 70
1
 40
3.000000
 41
3.000000
  0
VERTEX
 5
46A
  8
PADLAYER_BOTTOM
 10
66.00000
 20
7.24999
 42
1.0
  0
VERTEX
 5
46B
  8
PADLAYER_BOTTOM
 10
69.00000
 20
7.24999
 42
1.0
  0
SEQEND
  8
PADLAYER_BOTTOM
  0
POLYLINE
 5
46C
  8
TOOL_TOP
 66
1
 40
0.300000
 41
0.300000
  0
VERTEX
 5
46D
  8
TOOL_TOP
 10
64.00000
 20
7.24999
 42
1.000000
  0
VERTEX
 5
46E
  8
TOOL_TOP
 10
71.00000
 20
7.24999
 42
1.000000
  0
VERTEX
 5
46F
  8
TOOL_TOP
 10
64.00000
 20
7.24999
  0
SEQEND
  8
TOOL_TOP
  0
TEXT
  8
TOOLCODE_TOP
 10
63.82500
 20
5.49999
 40
3.500000
  1
T00
  0
POLYLINE
 5
470
  8
PADLAYER_TOP
 66
1
 70
1
 40
3.000000
 41
3.000000
  0
VERTEX
 5
471
  8
PADLAYER_TOP
 10
49.50000
 20
7.25000
 42
1.0
  0
VERTEX
 5
472
  8
PADLAYER_TOP
 10
52.50000
 20
7.25000
 42
1.0
  0
SEQEND
  8
PADLAYER_TOP
  0
POLYLINE
 5
473
  8
PADLAYER_BOTTOM
 66
1
 70
1
 40
3.000000
 41
3.000000
  0
VERTEX
 5
474
  8
PADLAYER_BOTTOM
 10
49.50000
 20
7.25000
 42
1.0
  0
VERTEX
 5
475
  8
PADLAYER_BOTTOM
 10
52.50000
 20
7.25000
 42
1.0
  0
SEQEND
  8
PADLAYER_BOTTOM
  0
POLYLINE
 5
476
  8
TOOL_TOP
 66
1
 40
0.300000
 41
0.300000
  0
VERTEX
 5
477
  8
TOOL_TOP
 10
47.50000
 20
7.25000
 42
1.000000
  0
VERTEX
 5
478
  8
TOOL_TOP
 10
54.50000
 20
7.25000
 42
1.000000
  0
VERTEX
 5
479
  8
TOOL_TOP
 10
47.50000
 20
7.25000
  0
SEQEND
  8
TOOL_TOP
  0
TEXT
  8
TOOLCODE_TOP
 10
47.32500
 20
5.50000
 40
3.500000
  1
T00
  0
POLYLINE
 5
47A
  8
PADLAYER_TOP
 66
1
 70
1
 40
3.000000
 41
3.000000
  0
VERTEX
 5
47B
  8
PADLAYER_TOP
 10
33.00000
 20
7.25001
 42
1.0
  0
VERTEX
 5
47C
  8
PADLAYER_TOP
 10
36.00000
 20
7.25001
 42
1.0
  0
SEQEND
  8
PADLAYER_TOP
  0
POLYLINE
 5
47D
  8
PADLAYER_BOTTOM
 66
1
 70
1
 40
3.000000
 41
3.000000
  0
VERTEX
 5
47E
  8
PADLAYER_BOTTOM
 10
33.00000
 20
7.25001
 42
1.0
  0
VERTEX
 5
47F
  8
PADLAYER_BOTTOM
 10
36.00000
 20
7.25001
 42
1.0
  0
SEQEND
  8
PADLAYER_BOTTOM
  0
POLYLINE
 5
480
  8
TOOL_TOP
 66
1
 40
0.300000
 41
0.300000
  0
VERTEX
 5
481
  8
TOOL_TOP
 10
31.00000
 20
7.25001
 42
1.000000
  0
VERTEX
 5
482
  8
TOOL_TOP
 10
38.00000
 20
7.25001
 42
1.000000
  0
VERTEX
 5
483
  8
TOOL_TOP
 10
31.00000
 20
7.25001
  0
SEQEND
  8
TOOL_TOP
  0
TEXT
  8
TOOLCODE_TOP
 10
30.82500
 20
5.50001
 40
3.500000
  1
T00
  0
POLYLINE
 5
484
  8
PADLAYER_TOP
 66
1
 70
1
 40
3.000000
 41
3.000000
  0
VERTEX
 5
485
  8
PADLAYER_TOP
 10
33.00002
 20
58.05000
 42
1.0
  0
VERTEX
 5
486
  8
PADLAYER_TOP
 10
36.00002
 20
58.05000
 42
1.0
  0
SEQEND
  8
PADLAYER_TOP
  0
POLYLINE
 5
487
  8
PADLAYER_BOTTOM
 66
1
 70
1
 40
3.000000
 41
3.000000
  0
VERTEX
 5
488
  8
PADLAYER_BOTTOM
 10
33.00002
 20
58.05000
 42
1.0
  0
VERTEX
 5
489
  8
PADLAYER_BOTTOM
 10
36.00002
 20
58.05000
 42
1.0
  0
SEQEND
  8
PADLAYER_BOTTOM
  0
POLYLINE
 5
48A
  8
TOOL_TOP
 66
1
 40
0.300000
 41
0.300000
  0
VERTEX
 5
48B
  8
TOOL_TOP
 10
31.00002
 20
58.05000
 42
1.000000
  0
VERTEX
 5
48C
  8
TOOL_TOP
 10
38.00002
 20
58.05000
 42
1.000000
  0
VERTEX
 5
48D
  8
TOOL_TOP
 10
31.00002
 20
58.05000
  0
SEQEND
  8
TOOL_TOP
  0
TEXT
  8
TOOLCODE_TOP
 10
30.82502
 20
56.30000
 40
3.500000
  1
T00
  0
POLYLINE
 5
48E
  8
PADLAYER_TOP
 66
1
 70
1
 40
3.000000
 41
3.000000
  0
VERTEX
 5
48F
  8
PADLAYER_TOP
 10
49.50002
 20
58.05000
 42
1.0
  0
VERTEX
 5
490
  8
PADLAYER_TOP
 10
52.50002
 20
58.05000
 42
1.0
  0
SEQEND
  8
PADLAYER_TOP
  0
POLYLINE
 5
491
  8
PADLAYER_BOTTOM
 66
1
 70
1
 40
3.000000
 41
3.000000
  0
VERTEX
 5
492
  8
PADLAYER_BOTTOM
 10
49.50002
 20
58.05000
 42
1.0
  0
VERTEX
 5
493
  8
PADLAYER_BOTTOM
 10
52.50002
 20
58.05000
 42
1.0
  0
SEQEND
  8
PADLAYER_BOTTOM
  0
POLYLINE
 5
494
  8
TOOL_TOP
 66
1
 40
0.300000
 41
0.300000
  0
VERTEX
 5
495
  8
TOOL_TOP
 10
47.50002
 20
58.05000
 42
1.000000
  0
VERTEX
 5
496
  8
TOOL_TOP
 10
54.50002
 20
58.05000
 42
1.000000
  0
VERTEX
 5
497
  8
TOOL_TOP
 10
47.50002
 20
58.05000
  0
SEQEND
  8
TOOL_TOP
  0
TEXT
  8
TOOLCODE_TOP
 10
47.32502
 20
56.30000
 40
3.500000
  1
T00
  0
POLYLINE
 5
498
  8
PADLAYER_TOP
 66
1
 70
1
 40
3.000000
 41
3.000000
  0
VERTEX
 5
499
  8
PADLAYER_TOP
 10
66.00002
 20
58.04999
 42
1.0
  0
VERTEX
 5
49A
  8
PADLAYER_TOP
 10
69.00002
 20
58.04999
 42
1.0
  0
SEQEND
  8
PADLAYER_TOP
  0
POLYLINE
 5
49B
  8
PADLAYER_BOTTOM
 66
1
 70
1
 40
3.000000
 41
3.000000
  0
VERTEX
 5
49C
  8
PADLAYER_BOTTOM
 10
66.00002
 20
58.04999
 42
1.0
  0
VERTEX
 5
49D
  8
PADLAYER_BOTTOM
 10
69.00002
 20
58.04999
 42
1.0
  0
SEQEND
  8
PADLAYER_BOTTOM
  0
POLYLINE
 5
49E
  8
TOOL_TOP
 66
1
 40
0.300000
 41
0.300000
  0
VERTEX
 5
49F
  8
TOOL_TOP
 10
64.00002
 20
58.04999
 42
1.000000
  0
VERTEX
 5
4A0
  8
TOOL_TOP
 10
71.00002
 20
58.04999
 42
1.000000
  0
VERTEX
 5
4A1
  8
TOOL_TOP
 10
64.00002
 20
58.04999
  0
SEQEND
  8
TOOL_TOP
  0
TEXT
  8
TOOLCODE_TOP
 10
63.82502
 20
56.29999
 40
3.500000
  1
T00
  0
TEXT
  8
TEXT_ALL
 10
70.70000
 20
11.82499
 40
1.785725
  1
+Vout
 73
 1
 11
70.70000
 21
11.82499
  50
89.999982
  0
TEXT
  8
TEXT_ALL
 10
67.70001
 20
27.57500
 40
1.785725
  1
S-CONTROL
 73
 1
 11
67.70001
 21
27.57500
  50
89.999982
  0
TEXT
  8
TEXT_ALL
 10
32.70000
 20
20.32501
 40
1.785725
  1
P-CONTROL
 73
 1
 11
32.70000
 21
20.32501
  50
89.999982
  0
TEXT
  8
TEXT_ALL
 10
70.45001
 20
47.32499
 40
1.785725
  1
-Vout
 73
 1
 11
70.45001
 21
47.32499
  50
89.999982
  0
TEXT
  8
TEXT_ALL
 10
32.70000
 20
13.07501
 40
1.785725
  1
+Vin
 73
 1
 11
32.70000
 21
13.07501
  50
89.999982
  0
TEXT
  8
TEXT_ALL
 10
32.70001
 20
48.57501
 40
1.785725
  1
-Vin
 73
 1
 11
32.70001
 21
48.57501
  50
89.999982
  0
TEXT
  8
TEXT_ALL
 10
32.70001
 20
39.32501
 40
1.785725
  1
PR
 73
 1
 11
32.70001
 21
39.32501
  50
89.999982
  0
TEXT
  8
TEXT_ALL
 10
70.70001
 20
39.32499
 40
1.785725
  1
-S
 73
 1
 11
70.70001
 21
39.32499
  50
89.999982
  0
TEXT
  8
TEXT_ALL
 10
70.70001
 20
23.82499
 40
1.785725
  1
+S
 73
 1
 11
70.70001
 21
23.82499
  50
89.999982
  0
TEXT
  8
TEXT_1
 10
46.25002
 20
62.50000
 40
1.785725
  1
VICOR-MD
 73
 1
 11
46.25002
 21
62.50000
  50
359.999983
  0
SOLID
 5
4A2
  8
PADLAYER_TOP
 10
10.00000
 20
45.50000
 11
10.00000
 21
53.50000
 12
2.00000
 22
45.50000
 13
2.00000
 23
53.50000
  0
SOLID
 5
4A3
  8
PADLAYER_BOTTOM
 10
10.00000
 20
45.50000
 11
10.00000
 21
53.50000
 12
2.00000
 22
45.50000
 13
2.00000
 23
53.50000
  0
POLYLINE
 5
4A4
  8
TOOL_TOP
 66
1
 40
0.300000
 41
0.300000
  0
VERTEX
 5
4A5
  8
TOOL_TOP
 10
4.25000
 20
49.50000
 42
1.000000
  0
VERTEX
 5
4A6
  8
TOOL_TOP
 10
7.75000
 20
49.50000
 42
1.000000
  0
VERTEX
 5
4A7
  8
TOOL_TOP
 10
4.25000
 20
49.50000
  0
SEQEND
  8
TOOL_TOP
  0
TEXT
  8
TOOLCODE_TOP
 10
4.16250
 20
48.62500
 40
1.750000
  1
T00
  0
SOLID
 5
4A8
  8
PADLAYER_TOP
 10
10.00000
 20
12.50000
 11
10.00000
 21
20.50000
 12
2.00000
 22
12.50000
 13
2.00000
 23
20.50000
  0
SOLID
 5
4A9
  8
PADLAYER_BOTTOM
 10
10.00000
 20
12.50000
 11
10.00000
 21
20.50000
 12
2.00000
 22
12.50000
 13
2.00000
 23
20.50000
  0
POLYLINE
 5
4AA
  8
TOOL_TOP
 66
1
 40
0.300000
 41
0.300000
  0
VERTEX
 5
4AB
  8
TOOL_TOP
 10
4.25000
 20
16.50000
 42
1.000000
  0
VERTEX
 5
4AC
  8
TOOL_TOP
 10
7.75000
 20
16.50000
 42
1.000000
  0
VERTEX
 5
4AD
  8
TOOL_TOP
 10
4.25000
 20
16.50000
  0
SEQEND
  8
TOOL_TOP
  0
TEXT
  8
TOOLCODE_TOP
 10
4.16250
 20
15.62500
 40
1.750000
  1
T00
  0
SOLID
 5
4AE
  8
PADLAYER_TOP
 10
100.00000
 20
45.50000
 11
100.00000
 21
53.50000
 12
92.00000
 22
45.50000
 13
92.00000
 23
53.50000
  0
SOLID
 5
4AF
  8
PADLAYER_BOTTOM
 10
100.00000
 20
45.50000
 11
100.00000
 21
53.50000
 12
92.00000
 22
45.50000
 13
92.00000
 23
53.50000
  0
POLYLINE
 5
4B0
  8
TOOL_TOP
 66
1
 40
0.300000
 41
0.300000
  0
VERTEX
 5
4B1
  8
TOOL_TOP
 10
94.25000
 20
49.50000
 42
1.000000
  0
VERTEX
 5
4B2
  8
TOOL_TOP
 10
97.75000
 20
49.50000
 42
1.000000
  0
VERTEX
 5
4B3
  8
TOOL_TOP
 10
94.25000
 20
49.50000
  0
SEQEND
  8
TOOL_TOP
  0
TEXT
  8
TOOLCODE_TOP
 10
94.16250
 20
48.62500
 40
1.750000
  1
T00
  0
SOLID
 5
4B4
  8
PADLAYER_TOP
 10
100.00000
 20
12.50000
 11
100.00000
 21
20.50000
 12
92.00000
 22
12.50000
 13
92.00000
 23
20.50000
  0
SOLID
 5
4B5
  8
PADLAYER_BOTTOM
 10
100.00000
 20
12.50000
 11
100.00000
 21
20.50000
 12
92.00000
 22
12.50000
 13
92.00000
 23
20.50000
  0
POLYLINE
 5
4B6
  8
TOOL_TOP
 66
1
 40
0.300000
 41
0.300000
  0
VERTEX
 5
4B7
  8
TOOL_TOP
 10
94.25000
 20
16.50000
 42
1.000000
  0
VERTEX
 5
4B8
  8
TOOL_TOP
 10
97.75000
 20
16.50000
 42
1.000000
  0
VERTEX
 5
4B9
  8
TOOL_TOP
 10
94.25000
 20
16.50000
  0
SEQEND
  8
TOOL_TOP
  0
TEXT
  8
TOOLCODE_TOP
 10
94.16250
 20
15.62500
 40
1.750000
  1
T00
  0
ENDSEC
  0
EOF
