M48
;FILE_FORMAT=2:4
INCH
;TYPE=PLATED
T01C0.012
T02C0.016
T03C0.024
T04C0.031
T05C0.035
T06C0.039
T07C0.043
T08C0.051
T09C0.059
T10C0.110
T13C0.126
;TYPE=NON_PLATED
T11C0.118
T12C0.126
%
T01
X+050651Y+084474
X+049549
X+050651Y+085026
X+049549
X+050100Y+083923
Y+085577
Y+084750
T02
X+044500Y+034625
X+044625Y+037500
X+043625Y+041000
Y+042500
X+043875Y+043625
X+044750Y+048700
X+044000Y+049375
X+043600Y+065100
Y+064500
Y+066900
X+044800Y+067800
X+044700Y+071100
X+043800Y+079000
X+044100Y+078600
X+044400Y+079000
X+043500Y+078600
X+043200Y+079000
X+042900Y+078600
X+042600Y+079000
X+044700Y+078600
X+042200Y+080700
X+044500Y+083600
X+043000
X+043700
X+043000Y+081600
X+042200Y+082900
X+044800Y+084500
X+044500Y+085200
X+044000
X+043000
X+042200
X+044600Y+089200
X+043000
X+043800
X+043000Y+087400
X+043800
X+047750Y+034625
X+045250Y+038625
X+045750Y+036875
X+047250Y+038625
X+046750Y+036875
X+046250Y+038625
X+045250Y+040375
X+047250
X+047000Y+041000
X+046250Y+040375
Y+043625
X+047250
X+045750Y+046750
X+047500
Y+047500
X+045750
X+047750Y+050125
X+047250
X+046750
X+045250Y+048700
X+045750
X+046250
X+045800Y+059600
X+046300Y+064500
X+045900Y+065100
X+046100Y+063700
X+046200Y+067000
X+046100Y+066500
X+046400Y+068700
Y+068100
X+045200Y+067000
X+047300Y+071600
X+047000Y+070000
X+047100Y+072200
Y+074800
X+047200Y+074000
X+047700
X+047100Y+072800
Y+075300
X+047700Y+076000
X+046300Y+076700
X+045600Y+076300
X+047100Y+079100
X+047758
X+047443Y+078800
X+046300
X+045600Y+079000
X+045300Y+078600
X+046000Y+083000
Y+082200
Y+083800
X+046400Y+082800
X+046700Y+083200
X+047000Y+082500
X+047700Y+082100
Y+082600
Y+085450
X+045600Y+086200
Y+085400
Y+084900
Y+084400
X+047300Y+085400
X+047400Y+084400
X+045400Y+087400
X+046200
X+047300Y+089000
X+046000Y+091125
X+047750Y+090750
Y+091500
X+048875Y+041000
Y+041500
X+048500Y+040125
X+048875Y+042500
X+048500Y+043625
X+048250Y+050125
X+049900Y+048700
X+049750Y+053250
X+049000Y+051500
X+050400Y+063700
X+049300
X+048500Y+071600
X+048300Y+070000
X+050300Y+071600
X+050400Y+070000
X+049900Y+069200
X+048600Y+069300
X+049300Y+071700
X+048200Y+074000
X+050600Y+073900
X+049300
Y+072800
X+048200Y+076000
X+050100
X+050700
X+049300
X+050300Y+079100
X+049358
X+048700
X+049043Y+078800
X+049700
X+050643
X+049800Y+082050
X+050600
X+048800Y+086500
X+050200Y+087350
X+050500Y+087750
X+048500Y+087500
Y+089600
X+049000Y+088700
X+050250Y+091125
X+048500Y+091500
Y+090750
X+053125Y+038625
X+053625Y+040625
X+053600Y+046100
X+053200Y+046900
X+052500Y+045500
X+052800Y+047700
X+052500Y+050100
X+053500
X+053000Y+050500
Y+053250
X+052600Y+064900
X+051400
X+053800Y+063700
X+053300Y+069700
Y+071000
X+051400Y+072200
X+051500Y+074800
X+051400Y+072800
X+051500Y+075400
Y+076000
X+051300Y+078800
X+052100Y+079100
X+052400Y+078800
X+053600Y+078500
X+053200Y+078700
X+053800Y+082350
X+053200Y+084450
X+051700Y+087950
X+052600Y+090950
X+053200Y+111600
X+053700Y+111900
X+055875Y+036750
X+054625
X+055250
Y+040750
X+056000
X+054500
X+056500Y+040250
X+056000Y+042625
X+056750
X+055250
X+054500
X+054700Y+043300
X+055200
X+055800
X+056000Y+046100
X+055100Y+046000
X+054800Y+045500
X+056600Y+046500
Y+047700
X+056300Y+048400
X+055500
X+055900Y+049900
X+056500
X+056800Y+052500
X+056200
X+055400Y+063800
X+055900Y+068600
X+056500Y+068000
X+056800Y+067700
X+056200Y+068300
X+055300Y+071800
Y+069200
Y+071300
X+055200Y+072200
X+054800Y+072400
X+054700Y+072800
X+054900Y+077700
X+055400Y+077200
X+056000Y+076800
X+056300Y+076500
X+055000Y+077300
X+054400Y+077700
X+056300Y+077100
X+054500Y+083250
X+054400Y+082400
X+055400Y+083600
X+055300Y+085750
X+054600Y+085800
X+055300Y+088250
X+054700Y+089250
X+054500Y+092150
X+055100
X+056200Y+101000
X+056000Y+106900
X+056500Y+107500
X+056700Y+106400
X+056200Y+109300
X+056500Y+111400
X+055400Y+112400
X+057500Y+038375
X+057700Y+048400
X+057500Y+052500
X+058100Y+052000
X+059600Y+055200
Y+056000
Y+056800
Y+058400
Y+059200
Y+057600
X+059800Y+061400
Y+063900
X+059500Y+063600
X+059200Y+068500
X+057900
X+058000Y+067400
X+058300Y+067100
X+057400
X+059800Y+067700
X+059500Y+068000
X+057400Y+070400
X+059200Y+071800
X+059400Y+070200
X+059200Y+071100
X+059800Y+071500
X+059200Y+072600
X+057400Y+072200
X+059800Y+072900
Y+072200
X+058000Y+075300
X+058600
X+059200
X+059800
X+058200Y+079900
X+057900Y+080200
Y+095500
X+058600Y+094600
X+058200Y+094300
X+058500Y+094000
X+058200Y+093700
X+059400Y+095500
X+057200Y+097900
X+059600Y+103400
X+058000Y+107500
X+059000
X+057500Y+109800
X+059000Y+109300
X+058000Y+111400
X+059000Y+111200
X+059700Y+112500
X+060375Y+038250
X+062625
Y+037375
X+060375
X+062250Y+039750
Y+043750
X+060375Y+044375
X+062625
X+060200Y+047300
X+061100
X+061300Y+050700
X+062200Y+052800
X+060900Y+054600
X+061900Y+059200
X+062800Y+060300
X+062100Y+061900
X+060300Y+061100
X+061200Y+060500
X+061500Y+060200
X+060900Y+060800
X+062500Y+066600
X+060600Y+066800
X+061200
X+061500Y+066500
X+061800Y+066800
X+062100Y+066200
X+060900Y+068500
X+061900Y+070800
X+060600Y+072900
X+061900Y+072400
X+062000Y+073000
X+060400Y+075300
X+061000
X+061600
X+062200
X+061900Y+076800
X+061600Y+077100
X+061300Y+077400
X+061000Y+077700
X+062200Y+076500
X+062700Y+076200
X+060400Y+079300
X+060700Y+079600
X+060600Y+080600
X+062400Y+081500
X+060600Y+081700
X+062008Y+085500
X+062400Y+085800
X+062795Y+086100
X+061614Y+085200
X+061220Y+084900
X+062600Y+090800
X+060600
X+062205Y+091700
X+061811Y+092000
X+061417Y+092300
X+061024Y+092600
X+062400Y+094300
Y+093300
X+060600Y+094600
X+061000Y+094300
X+060300Y+094000
X+061700Y+097800
Y+098700
X+062300Y+097300
X+061700Y+101000
Y+100200
Y+099400
Y+101800
X+062700Y+100900
Y+099900
X+062800Y+103000
X+061900Y+109500
X+062300Y+109800
X+065750Y+042750
X+065200Y+048700
X+064500Y+051700
X+065500
X+065100Y+052300
X+063300Y+051900
X+065600Y+056500
X+064900
X+064000Y+056300
X+064300Y+056700
X+065400Y+057500
Y+059200
X+064200
Y+057500
Y+058500
X+065400
X+064600Y+062400
X+064400Y+062000
X+063500Y+061900
Y+067600
X+063600Y+070800
Y+071300
Y+071800
X+065300
X+063600Y+072500
X+064300Y+072200
X+065100
Y+075900
X+064300
X+063500Y+075600
X+065400Y+079500
X+065800Y+079300
X+064500Y+080000
X+063600Y+080100
X+064000Y+079600
X+064500Y+083700
Y+081700
X+063583Y+086700
X+063189Y+086400
X+063900Y+084600
X+064600Y+087800
X+063780Y+090800
X+063386Y+091100
X+065100Y+095800
X+064300Y+094300
X+064200Y+093300
X+063200Y+093800
X+065600Y+098800
Y+099700
X+065300Y+100000
X+065600Y+100300
X+065300Y+100600
X+065600Y+100900
X+065300Y+101200
X+065600Y+101500
X+064100Y+103300
X+064700Y+104600
X+063800Y+102900
X+065400Y+102700
X+065000Y+110700
X+064200
Y+112500
X+064400Y+113600
X+063700Y+115000
X+067000Y+043250
X+068000Y+043625
X+066300Y+044300
X+066500Y+046300
X+066300Y+045300
X+067000Y+051700
X+068000
X+067000Y+052300
X+066800Y+056300
X+066300Y+056500
X+066700Y+054200
X+068800Y+057300
X+066800Y+057600
X+066300Y+059200
X+067100Y+061100
X+066900Y+061500
X+067900Y+060300
X+068300Y+063400
X+067000Y+068500
X+066700Y+067500
X+067300Y+069500
X+067900Y+071500
X+067600Y+070500
X+068200Y+072500
X+066400Y+073200
X+068500Y+073400
Y+074200
X+068200Y+074500
X+067900Y+074800
X+067300Y+075400
X+067000Y+075700
X+066700Y+076000
X+067500Y+079500
X+068100Y+078500
X+067800Y+080000
X+066900Y+083700
X+068600Y+083100
X+066400Y+086100
X+068100Y+085800
X+068700Y+091700
X+068400Y+091400
X+068600Y+096600
X+067600Y+096800
Y+097800
Y+100700
Y+099500
Y+102300
X+068700Y+106100
X+066200Y+110700
X+067000
X+068200
X+068400Y+113600
X+066400
X+066200Y+112500
X+068200
X+069375Y+041750
X+071000Y+071000
X+070100Y+073000
X+071400Y+074000
X+070800
X+070200Y+076000
X+070500Y+077500
X+070800Y+077000
X+071100Y+076500
X+071700Y+075500
X+071100Y+086700
X+069300Y+086400
X+071400Y+085200
X+070500Y+084600
X+069900Y+092000
X+069600Y+091100
X+070800Y+090800
X+071700Y+092300
Y+096600
X+069600
X+070400
X+071200Y+098700
X+069700Y+098800
X+069800Y+101400
X+071200
X+070600Y+100100
X+071800Y+103500
X+070400
X+071700Y+106000
X+071100Y+105700
X+070758Y+106000
X+070100
X+070443Y+105700
X+069400
X+070200Y+110700
X+071000
X+070400Y+113600
X+070200Y+112500
X+070900Y+115100
Y+114300
X+073125Y+035750
X+073500Y+053575
X+073625Y+056700
Y+055700
Y+054700
X+074500Y+059700
X+072400Y+062000
X+073300Y+061300
X+073600Y+061000
X+073900Y+060700
X+074200Y+060400
X+072400Y+065500
X+072700Y+064500
X+073000Y+064000
X+073300Y+064500
X+073600Y+065500
X+073900Y+066500
X+074200Y+067000
X+073700Y+067500
X+072300Y+068500
X+073400
X+073700Y+071500
Y+070500
Y+069500
X+073500Y+073500
X+072900Y+073000
X+073700Y+072500
X+072600Y+079000
X+072300Y+092600
X+074400Y+097600
Y+096600
X+072800
X+073600
X+074400Y+098400
X+073300Y+098800
X+074400Y+101100
Y+099900
Y+099300
X+073300Y+101500
X+072400Y+100100
X+074400Y+102800
X+072500Y+103500
X+073600
X+072700Y+105700
X+072358Y+106000
X+074300Y+105400
X+074200Y+110700
X+072200
X+073000
X+074400Y+113600
X+074200Y+112500
X+072900Y+113600
X+072200Y+112400
Y+115500
Y+115000
X+076625Y+041250
X+077625Y+041375
X+075500Y+083500
X+076000Y+085500
Y+089500
Y+087500
X+076100Y+091500
X+075700Y+094500
X+076000Y+094900
Y+093500
X+076300Y+097700
X+076200Y+099200
X+075700Y+105200
X+042300Y+083950
X+044000Y+087000
X+047000Y+042125
X+046750Y+053875
X+046250Y+050875
X+046750
X+047750
X+046100Y+065900
X+047600Y+069000
X+045300Y+075000
X+050750Y+053875
X+050500Y+050900
X+048200Y+069000
X+049100Y+075100
X+052000Y+053875
X+051500Y+050900
X+052500
X+052800Y+083850
X+053600
X+053800Y+078100
X+053200Y+075000
X+053500Y+087150
X+056100Y+045000
X+054600
X+055500
X+055800Y+048000
X+055200Y+051000
X+056000
X+055600Y+068900
X+056500Y+063000
X+054300Y+078100
X+056200Y+099000
X+057700Y+045100
X+059600Y+047900
X+057300Y+051000
X+058300Y+075000
X+058900
X+059500
X+060375Y+045125
X+062625
X+060600Y+047900
X+061800Y+059900
X+060700Y+075000
X+061300
X+061900
X+062700Y+075100
X+063976Y+087000
X+064600Y+090000
X+065600Y+101900
X+063900Y+105000
X+066800Y+057000
X+066900Y+080900
X+067600Y+075100
Y+105100
X+066500Y+105000
X+070700Y+069000
X+070400Y+072000
X+070200Y+087000
X+072700Y+063000
X+072300Y+069000
X+072600Y+072000
X+073200Y+075000
X+072900Y+078000
X+074400Y+102100
X+076200Y+060000
X+047875Y+037500
X+045125Y+041375
X+045000Y+043625
Y+046000
Y+047500
Y+059600
X+045100Y+064800
X+044900Y+064000
X+048100Y+066500
X+047900Y+069300
X+048100Y+078800
X+045000Y+079000
X+057000Y+040250
X+060000Y+039750
Y+043750
X+057000Y+043875
X+057100Y+045800
Y+048400
X+051000Y+050100
X+059900Y+054400
X+057100Y+063300
Y+067400
X+060000Y+070800
Y+070100
X+054100Y+071000
X+050900Y+072500
X+050958Y+079100
X+051100Y+087350
X+054100Y+088250
X+060000Y+093700
X+057000Y+107500
Y+109300
Y+111400
X+066000Y+049800
X+065900Y+054400
X+068900Y+058500
X+069000Y+057800
X+072100Y+061600
Y+066500
X+066100Y+070000
X+072000Y+071000
X+066100Y+073500
X+063100Y+075300
Y+075900
X+066100Y+079000
X+063100Y+081400
X+069000Y+085500
X+072000Y+084900
X+062992Y+091400
X+063100Y+097700
Y+098500
Y+099300
X+072000
X+068900Y+103500
X+072043Y+105700
X+069000Y+110700
X+075000
X+045125Y+042125
X+048000Y+053875
X+047900Y+065900
X+060100Y+075000
T03
X+042500Y+046000
Y+048375
Y+050500
Y+053375
X+043000Y+054625
X+042625Y+059000
X+042500Y+061000
X+043600Y+060300
X+042500Y+063900
Y+065300
X+042900Y+067500
X+042300Y+067800
X+042500Y+066500
X+042900Y+071200
X+042300
X+043900Y+071500
X+042300Y+073200
X+042900Y+072400
X+043125Y+092000
X+043100Y+090800
Y+095100
Y+093300
X+044600
Y+095100
X+044750Y+097000
X+043100
X+044750Y+100750
X+047125Y+059125
X+047000Y+060500
X+049250Y+038125
Y+037125
X+049875Y+041625
X+050750
X+050000Y+059250
X+049600Y+062000
Y+060800
X+048300Y+060500
X+049500Y+066500
X+049900Y+067200
X+050300Y+066500
X+053500Y+035250
X+051500Y+041625
X+052125Y+046875
X+052250Y+058750
X+052800Y+066900
X+053200Y+067300
X+051900Y+067200
X+052800Y+077700
X+051400Y+089050
Y+089650
X+053600Y+095300
Y+096800
X+052250Y+100750
X+056600Y+053700
X+055500Y+052900
X+054750Y+055250
X+055700Y+056400
X+054750Y+057375
X+054625Y+059125
X+055800Y+058400
X+056000Y+062000
X+055900Y+060700
X+054700
X+055300Y+095300
Y+097200
X+054500Y+101400
Y+099400
Y+103500
X+056100Y+102800
X+054500Y+107400
Y+105500
X+056100Y+105300
X+054500Y+109400
X+057250Y+035250
X+057500Y+054700
X+059200Y+085300
X+059300Y+088600
X+059200Y+091000
X+058500Y+103400
X+059400Y+105500
X+062000Y+051875
X+062300Y+080600
X+060500Y+085400
X+061700Y+106800
X+061600Y+108400
X+064200Y+035300
X+064300Y+036600
X+063750Y+041750
X+063875Y+043500
Y+045625
X+063700Y+049700
X+064100Y+065700
X+064300Y+068300
Y+067400
X+065400Y+071000
X+063600Y+077500
X+064600Y+107700
Y+107100
X+065600Y+109000
X+068500Y+034875
X+066500Y+035250
Y+038000
X+068700Y+039600
X+068500Y+055600
X+067100Y+077500
X+068500
Y+075500
X+067900Y+076600
X+066800Y+087800
Y+093700
X+067500Y+107100
Y+107700
X+067800Y+109000
X+070375Y+034875
X+071500Y+037800
X+070500Y+039700
X+071300Y+044600
Y+043500
X+070500Y+044600
Y+043500
X+071000Y+050600
Y+049200
Y+052000
X+071300Y+055200
X+071400Y+057900
X+071600Y+109000
X+074625Y+039750
X+072625
X+072600Y+049300
Y+050600
X+074000
Y+049300
Y+052100
X+072500Y+052000
X+074400Y+086500
X+074500Y+084500
Y+088500
X+074400Y+092400
X+074500Y+090500
X+074400Y+094000
X+073900Y+108300
X+073600Y+109000
X+075700Y+036900
Y+038100
X+076625Y+039750
X+077400Y+042700
Y+044100
X+076400Y+042900
X+076600Y+044100
X+077400Y+045900
X+076500Y+045300
Y+046600
X+076100Y+048800
X+076900
X+076500Y+048400
X+076300Y+053700
X+076900Y+054300
X+076200Y+056100
X+076900Y+055600
X+076200Y+054800
X+076800Y+056700
X+077400Y+059300
X+075400Y+059200
X+077400Y+060800
X+075300Y+060900
X+075700Y+108300
X+076700Y+109400
X+076100Y+111400
X+077300Y+111300
X+043850Y+045100
X+044625Y+054000
X+045750Y+045200
X+049250Y+036125
Y+039125
X+053000Y+060000
X+055250Y+093125
X+054500Y+111200
X+058250Y+105125
X+066800Y+089900
X+070375Y+036125
X+070700Y+108200
X+072400
X+077300Y+036200
X+077500Y+108200
X+047811Y+094750
X+050875Y+046875
X+059875Y+052250
X+060100Y+087400
X+059900Y+092100
X+051079Y+094750
Y+096750
X+068900Y+042800
X+069200Y+050600
Y+049200
Y+052000
Y+053500
X+066000Y+107400
X+063000Y+109000
X+048050Y+045100
X+059900Y+089800
X+068900Y+045000
X+072100Y+038900
T04
X+054500Y+086750
Y+084750
X+061200Y+052900
X+063200
X+069500Y+079500
Y+080500
X+075500Y+079500
Y+080500
X+069500Y+076500
Y+077500
X+075500Y+076500
Y+077500
X+069500Y+073500
Y+074500
X+075500Y+073500
Y+074500
X+069500Y+070500
Y+071500
X+075500Y+070500
Y+071500
X+069500Y+067500
Y+068500
X+075500Y+067500
Y+068500
X+069500Y+064500
Y+065500
X+075500Y+064500
Y+065500
X+069500Y+062500
X+075500
X+069500Y+081500
Y+078500
Y+075500
Y+072500
X+075500Y+075500
Y+072500
Y+078500
Y+081500
X+069500Y+069500
Y+066500
Y+063500
X+075500Y+069500
Y+066500
Y+063500
T05
X+043300Y+052600
X+052250Y+106750
X+052200Y+109900
X+070900Y+045700
X+076700Y+057700
X+070400Y+054100
X+061250Y+035250
Y+039250
X+076700Y+110700
X+044750Y+106750
X+054200Y+093900
X+050750Y+036250
X+059000Y+035250
Y+039250
X+053384Y+061600
X+051416
X+052400
X+065250Y+041500
X+067250
X+068250
X+064750Y+040500
X+065750
X+067750
X+066250Y+041500
X+066750Y+040500
X+059500Y+098000
Y+099000
X+058500
Y+098000
X+059500Y+102000
Y+101000
X+058500Y+102000
Y+101000
X+059500Y+100000
X+058500
X+050000Y+045750
Y+044750
Y+043750
Y+042750
X+049484Y+106750
X+047516
X+048500
X+047500Y+104125
X+049500Y+103875
X+047500Y+102625
X+049500Y+102375
X+044500Y+031500
Y+032500
X+047500Y+031500
X+046500
X+047500Y+032500
X+046500
X+050500Y+031500
X+049500
X+050500Y+032500
X+049500
X+053500Y+031500
X+052500
X+053500Y+032500
X+052500
X+056500Y+031500
X+055500
X+056500Y+032500
X+055500
X+059500Y+031500
X+058500
X+059500Y+032500
X+058500
X+062500Y+031500
X+061500
X+062500Y+032500
X+061500
X+065500Y+031500
X+064500
X+065500Y+032500
X+064500
X+068500Y+031500
X+067500
X+068500Y+032500
X+067500
X+071500Y+031500
X+070500
X+071500Y+032500
X+070500
X+074500Y+031500
X+073500
X+074500Y+032500
X+073500
X+044500Y+033500
X+047500
X+046500
X+050500
X+049500
X+053500
X+052500
X+056500
X+055500
X+059500
X+058500
X+062500
X+061500
X+065500
X+064500
X+068500
X+067500
X+071500
X+070500
X+074500
X+073500
X+048500Y+031500
X+045500
X+048500Y+032500
X+045500
X+060500Y+031500
X+057500
X+054500
X+051500
X+060500Y+032500
X+057500
X+054500
X+051500
X+072500Y+031500
X+069500
X+066500
X+063500
X+072500Y+032500
X+069500
X+066500
X+063500
X+075500Y+031500
Y+032500
X+048500Y+033500
X+045500
X+060500
X+057500
X+054500
X+051500
X+072500
X+069500
X+066500
X+063500
X+075500
T06
X+057539Y+114634
X+059311
X+042500Y+037500
Y+033500
X+046900Y+062100
X+045900
X+043900
X+042900
X+047900
X+044900
X+061083Y+114634
X+062854
T07
X+049830Y+057560
X+048740
X+050380Y+056440
X+049290
X+047650Y+057560
X+046560
X+047110Y+056440
X+046020
X+048200
T08
X+057008Y+113650
X+059843
X+060551
X+063386
T09
X+071472Y+113807
Y+114791
X+069472Y+113807
Y+114791
X+067472Y+113807
Y+114791
X+065472Y+113807
Y+114791
X+075472Y+113807
Y+114791
X+073472Y+113807
Y+114791
T10
X+042500Y+030500
X+077500
T11
X+081650Y+031382
Y+034138
Y+033744
Y+111705
Y+114067
Y+111311
X+038343Y+031382
Y+034138
Y+033744
Y+111705
Y+114067
Y+111311
T12
X+042500Y+114622
X+077500
X+053120Y+057000
X+043280
T13
X+064256Y+038000
X+068744
T00
M30
