0
SECTION
2
HEADER
0
ENDSEC
0
SECTION
2
TABLES
0
ENDSEC
0
SECTION
2
BLOCKS
0
ENDSEC
0
SECTION
2
ENTITIES
0
POLYLINE
8
PFV
62
0
66
1
70
8
0
VERTEX
8
PFV
62
0
70
32
10
4.200000
20
2.100000
30
0
0
VERTEX
8
PFV
62
0
70
32
10
4.180000
20
2.200000
30
0
0
VERTEX
8
PFV
62
0
70
32
10
3.400000
20
2.480000
30
0
0
VERTEX
8
PFV
62
0
70
32
10
3.500000
20
2.620000
30
0
0
VERTEX
8
PFV
62
0
70
32
10
4.100000
20
3.220000
30
0
0
VERTEX
8
PFV
62
0
70
32
10
4.120000
20
3.300000
30
0
0
VERTEX
8
PFV
62
0
70
32
10
4.300000
20
3.300000
30
0
0
VERTEX
8
PFV
62
0
70
32
10
5.840000
20
1.740000
30
0
0
VERTEX
8
PFV
62
0
70
32
10
5.860000
20
1.640000
30
0
0
SEQEND
0
POLYLINE
8
PFV
62
0
66
1
70
8
0
VERTEX
8
PFV
62
0
70
32
10
4.200000
20
2.100000
30
0
0
VERTEX
8
PFV
62
0
70
32
10
4.220000
20
2.100000
30
0
0
VERTEX
8
PFV
62
0
70
32
10
5.140000
20
1.180000
30
0
0
VERTEX
8
PFV
62
0
70
32
10
5.160000
20
1.080000
30
0
0
SEQEND
0
POLYLINE
8
PFV
62
0
66
1
70
8
0
VERTEX
8
PFV
62
0
70
32
10
4.200000
20
2.100000
30
0
0
VERTEX
8
PFV
62
0
70
32
10
4.220000
20
2.080000
30
0
0
SEQEND
0
POLYLINE
8
PFV
62
0
66
1
70
8
0
VERTEX
8
PFV
62
0
70
32
10
4.200000
20
2.100000
30
0
0
VERTEX
8
PFV
62
0
70
32
10
4.140000
20
2.000000
30
0
0
VERTEX
8
PFV
62
0
70
32
10
4.120000
20
1.900000
30
0
0
VERTEX
8
PFV
62
0
70
32
10
4.040000
20
1.600000
30
0
0
VERTEX
8
PFV
62
0
70
32
10
3.940000
20
1.280000
30
0
0
VERTEX
8
PFV
62
0
70
32
10
3.940000
20
1.080000
30
0
0
VERTEX
8
PFV
62
0
70
32
10
3.960000
20
1.080000
30
0
0
VERTEX
8
PFV
62
0
70
32
10
4.300000
20
0.720000
30
0
0
VERTEX
8
PFV
62
0
70
32
10
4.340000
20
0.720000
30
0
0
SEQEND
0
POLYLINE
8
PFV
62
0
66
1
70
8
0
VERTEX
8
PFV
62
0
70
32
10
4.200000
20
2.180000
30
0
0
VERTEX
8
PFV
62
0
70
32
10
4.720000
20
2.280000
30
0
0
VERTEX
8
PFV
62
0
70
32
10
4.880000
20
2.400000
30
0
0
VERTEX
8
PFV
62
0
70
32
10
5.000000
20
2.400000
30
0
0
VERTEX
8
PFV
62
0
70
32
10
5.800000
20
1.600000
30
0
0
VERTEX
8
PFV
62
0
70
32
10
5.820000
20
1.600000
30
0
0
SEQEND
0
POLYLINE
8
PFV
62
0
66
1
70
8
0
VERTEX
8
PFV
62
0
70
32
10
5.000000
20
2.400000
30
0
0
VERTEX
8
PFV
62
0
70
32
10
5.000000
20
2.420000
30
0
0
VERTEX
8
PFV
62
0
70
32
10
5.020000
20
2.420000
30
0
0
VERTEX
8
PFV
62
0
70
32
10
5.040000
20
2.440000
30
0
0
VERTEX
8
PFV
62
0
70
32
10
5.060000
20
2.460000
30
0
0
VERTEX
8
PFV
62
0
70
32
10
5.080000
20
2.480000
30
0
0
VERTEX
8
PFV
62
0
70
32
10
5.080000
20
2.500000
30
0
0
SEQEND
0
POLYLINE
8
PFV
62
0
66
1
70
8
0
VERTEX
8
PFV
62
0
70
32
10
5.000000
20
2.400000
30
0
0
VERTEX
8
PFV
62
0
70
32
10
5.000000
20
2.380000
30
0
0
SEQEND
0
POLYLINE
8
PFV
62
0
66
1
70
8
0
VERTEX
8
PFV
62
0
70
32
10
3.400000
20
2.520000
30
0
0
VERTEX
8
PFV
62
0
70
32
10
3.260000
20
2.560000
30
0
0
VERTEX
8
PFV
62
0
70
32
10
3.300000
20
2.660000
30
0
0
VERTEX
8
PFV
62
0
70
32
10
3.960000
20
3.320000
30
0
0
VERTEX
8
PFV
62
0
70
32
10
4.020000
20
3.320000
30
0
0
SEQEND
0
POLYLINE
8
PFV
62
0
66
1
70
8
0
VERTEX
8
PFV
62
0
70
32
10
5.300000
20
2.540000
30
0
0
VERTEX
8
PFV
62
0
70
32
10
6.040000
20
1.780000
30
0
0
VERTEX
8
PFV
62
0
70
32
10
6.060000
20
1.720000
30
0
0
SEQEND
0
POLYLINE
8
PFV
62
0
66
1
70
8
0
VERTEX
8
PFV
62
0
70
32
10
5.300000
20
2.540000
30
0
0
VERTEX
8
PFV
62
0
70
32
10
5.220000
20
2.540000
30
0
0
VERTEX
8
PFV
62
0
70
32
10
5.200000
20
2.520000
30
0
0
VERTEX
8
PFV
62
0
70
32
10
5.120000
20
2.520000
30
0
0
SEQEND
0
POLYLINE
8
PFV
62
0
66
1
70
8
0
VERTEX
8
PFV
62
0
70
32
10
5.300000
20
2.540000
30
0
0
VERTEX
8
PFV
62
0
70
32
10
5.560000
20
2.600000
30
0
0
VERTEX
8
PFV
62
0
70
32
10
5.860000
20
2.660000
30
0
0
VERTEX
8
PFV
62
0
70
32
10
6.120000
20
2.720000
30
0
0
VERTEX
8
PFV
62
0
70
32
10
6.380000
20
2.800000
30
0
0
VERTEX
8
PFV
62
0
70
32
10
6.580000
20
2.860000
30
0
0
VERTEX
8
PFV
62
0
70
32
10
6.800000
20
2.880000
30
0
0
VERTEX
8
PFV
62
0
70
32
10
7.120000
20
2.920000
30
0
0
VERTEX
8
PFV
62
0
70
32
10
7.200000
20
3.000000
30
0
0
VERTEX
8
PFV
62
0
70
32
10
7.180000
20
3.080000
30
0
0
VERTEX
8
PFV
62
0
70
32
10
6.960000
20
3.300000
30
0
0
VERTEX
8
PFV
62
0
70
32
10
6.880000
20
3.420000
30
0
0
VERTEX
8
PFV
62
0
70
32
10
6.740000
20
3.560000
30
0
0
VERTEX
8
PFV
62
0
70
32
10
6.720000
20
3.660000
30
0
0
VERTEX
8
PFV
62
0
70
32
10
6.620000
20
3.740000
30
0
0
VERTEX
8
PFV
62
0
70
32
10
5.940000
20
3.640000
30
0
0
VERTEX
8
PFV
62
0
70
32
10
5.820000
20
3.680000
30
0
0
SEQEND
0
POLYLINE
8
PFV
62
0
66
1
70
8
0
VERTEX
8
PFV
62
0
70
32
10
5.300000
20
2.540000
30
0
0
VERTEX
8
PFV
62
0
70
32
10
5.320000
20
2.520000
30
0
0
SEQEND
0
POLYLINE
8
PFV
62
0
66
1
70
8
0
VERTEX
8
PFV
62
0
70
32
10
3.260000
20
2.620000
30
0
0
VERTEX
8
PFV
62
0
70
32
10
3.040000
20
2.700000
30
0
0
VERTEX
8
PFV
62
0
70
32
10
2.920000
20
2.800000
30
0
0
VERTEX
8
PFV
62
0
70
32
10
2.860000
20
2.840000
30
0
0
VERTEX
8
PFV
62
0
70
32
10
2.760000
20
3.060000
30
0
0
VERTEX
8
PFV
62
0
70
32
10
2.640000
20
3.320000
30
0
0
VERTEX
8
PFV
62
0
70
32
10
2.960000
20
3.640000
30
0
0
VERTEX
8
PFV
62
0
70
32
10
2.980000
20
3.700000
30
0
0
SEQEND
0
POLYLINE
8
PFV
62
0
66
1
70
8
0
VERTEX
8
PFV
62
0
70
32
10
2.980000
20
2.760000
30
0
0
VERTEX
8
PFV
62
0
70
32
10
3.620000
20
3.420000
30
0
0
VERTEX
8
PFV
62
0
70
32
10
3.660000
20
3.420000
30
0
0
SEQEND
0
POLYLINE
8
PFV
62
0
66
1
70
8
0
VERTEX
8
PFV
62
0
70
32
10
2.880000
20
2.800000
30
0
0
VERTEX
8
PFV
62
0
70
32
10
2.620000
20
2.520000
30
0
0
VERTEX
8
PFV
62
0
70
32
10
2.060000
20
2.740000
30
0
0
VERTEX
8
PFV
62
0
70
32
10
1.920000
20
3.200000
30
0
0
VERTEX
8
PFV
62
0
70
32
10
1.940000
20
3.320000
30
0
0
VERTEX
8
PFV
62
0
70
32
10
2.080000
20
3.460000
30
0
0
VERTEX
8
PFV
62
0
70
32
10
2.520000
20
3.320000
30
0
0
VERTEX
8
PFV
62
0
70
32
10
2.640000
20
3.320000
30
0
0
SEQEND
0
POLYLINE
8
PFV
62
0
66
1
70
8
0
VERTEX
8
PFV
62
0
70
32
10
6.820000
20
2.900000
30
0
0
VERTEX
8
PFV
62
0
70
32
10
6.200000
20
3.540000
30
0
0
VERTEX
8
PFV
62
0
70
32
10
6.120000
20
3.660000
30
0
0
VERTEX
8
PFV
62
0
70
32
10
6.120000
20
3.640000
30
0
0
SEQEND
0
POLYLINE
8
PFV
62
0
66
1
70
8
0
VERTEX
8
PFV
62
0
70
32
10
6.820000
20
2.900000
30
0
0
VERTEX
8
PFV
62
0
70
32
10
6.800000
20
2.920000
30
0
0
SEQEND
0
POLYLINE
8
PFV
62
0
66
1
70
8
0
VERTEX
8
PFV
62
0
70
32
10
7.200000
20
3.040000
30
0
0
VERTEX
8
PFV
62
0
70
32
10
8.100000
20
3.200000
30
0
0
VERTEX
8
PFV
62
0
70
32
10
8.100000
20
3.280000
30
0
0
VERTEX
8
PFV
62
0
70
32
10
7.580000
20
3.780000
30
0
0
VERTEX
8
PFV
62
0
70
32
10
7.560000
20
3.940000
30
0
0
VERTEX
8
PFV
62
0
70
32
10
7.500000
20
4.000000
30
0
0
VERTEX
8
PFV
62
0
70
32
10
7.540000
20
4.100000
30
0
0
VERTEX
8
PFV
62
0
70
32
10
7.600000
20
4.240000
30
0
0
VERTEX
8
PFV
62
0
70
32
10
7.740000
20
4.240000
30
0
0
VERTEX
8
PFV
62
0
70
32
10
7.780000
20
4.140000
30
0
0
VERTEX
8
PFV
62
0
70
32
10
7.800000
20
4.140000
30
0
0
VERTEX
8
PFV
62
0
70
32
10
7.940000
20
4.020000
30
0
0
VERTEX
8
PFV
62
0
70
32
10
8.500000
20
3.460000
30
0
0
VERTEX
8
PFV
62
0
70
32
10
8.620000
20
3.460000
30
0
0
VERTEX
8
PFV
62
0
70
32
10
8.600000
20
3.560000
30
0
0
VERTEX
8
PFV
62
0
70
32
10
7.960000
20
4.180000
30
0
0
VERTEX
8
PFV
62
0
70
32
10
8.020000
20
4.260000
30
0
0
VERTEX
8
PFV
62
0
70
32
10
8.100000
20
4.260000
30
0
0
VERTEX
8
PFV
62
0
70
32
10
8.640000
20
3.740000
30
0
0
VERTEX
8
PFV
62
0
70
32
10
8.680000
20
3.520000
30
0
0
VERTEX
8
PFV
62
0
70
32
10
8.620000
20
3.520000
30
0
0
SEQEND
0
POLYLINE
8
PFV
62
0
66
1
70
8
0
VERTEX
8
PFV
62
0
70
32
10
7.200000
20
3.040000
30
0
0
VERTEX
8
PFV
62
0
70
32
10
7.180000
20
3.060000
30
0
0
SEQEND
0
POLYLINE
8
PFV
62
0
66
1
70
8
0
VERTEX
8
PFV
62
0
70
32
10
8.120000
20
3.240000
30
0
0
VERTEX
8
PFV
62
0
70
32
10
8.260000
20
3.260000
30
0
0
VERTEX
8
PFV
62
0
70
32
10
8.240000
20
3.340000
30
0
0
VERTEX
8
PFV
62
0
70
32
10
7.660000
20
3.920000
30
0
0
VERTEX
8
PFV
62
0
70
32
10
7.600000
20
3.920000
30
0
0
VERTEX
8
PFV
62
0
70
32
10
7.620000
20
3.880000
30
0
0
VERTEX
8
PFV
62
0
70
32
10
7.580000
20
3.880000
30
0
0
SEQEND
0
POLYLINE
8
PFV
62
0
66
1
70
8
0
VERTEX
8
PFV
62
0
70
32
10
8.120000
20
3.240000
30
0
0
VERTEX
8
PFV
62
0
70
32
10
8.100000
20
3.260000
30
0
0
SEQEND
0
POLYLINE
8
PFV
62
0
66
1
70
8
0
VERTEX
8
PFV
62
0
70
32
10
8.260000
20
3.300000
30
0
0
VERTEX
8
PFV
62
0
70
32
10
8.340000
20
3.340000
30
0
0
VERTEX
8
PFV
62
0
70
32
10
7.740000
20
3.960000
30
0
0
VERTEX
8
PFV
62
0
70
32
10
7.660000
20
4.020000
30
0
0
VERTEX
8
PFV
62
0
70
32
10
7.500000
20
4.020000
30
0
0
SEQEND
0
POLYLINE
8
PFV
62
0
66
1
70
8
0
VERTEX
8
PFV
62
0
70
32
10
8.260000
20
3.300000
30
0
0
VERTEX
8
PFV
62
0
70
32
10
8.240000
20
3.320000
30
0
0
SEQEND
0
POLYLINE
8
PFV
62
0
66
1
70
8
0
VERTEX
8
PFV
62
0
70
32
10
6.960000
20
3.340000
30
0
0
VERTEX
8
PFV
62
0
70
32
10
7.240000
20
3.600000
30
0
0
VERTEX
8
PFV
62
0
70
32
10
7.220000
20
3.720000
30
0
0
VERTEX
8
PFV
62
0
70
32
10
7.160000
20
3.780000
30
0
0
VERTEX
8
PFV
62
0
70
32
10
7.180000
20
3.980000
30
0
0
VERTEX
8
PFV
62
0
70
32
10
7.340000
20
4.020000
30
0
0
VERTEX
8
PFV
62
0
70
32
10
7.500000
20
4.040000
30
0
0
SEQEND
0
POLYLINE
8
PFV
62
0
66
1
70
8
0
VERTEX
8
PFV
62
0
70
32
10
6.960000
20
3.340000
30
0
0
VERTEX
8
PFV
62
0
70
32
10
6.940000
20
3.340000
30
0
0
SEQEND
0
POLYLINE
8
PFV
62
0
66
1
70
8
0
VERTEX
8
PFV
62
0
70
32
10
8.340000
20
3.360000
30
0
0
VERTEX
8
PFV
62
0
70
32
10
8.440000
20
3.360000
30
0
0
VERTEX
8
PFV
62
0
70
32
10
8.460000
20
3.380000
30
0
0
VERTEX
8
PFV
62
0
70
32
10
8.480000
20
3.400000
30
0
0
VERTEX
8
PFV
62
0
70
32
10
8.500000
20
3.420000
30
0
0
VERTEX
8
PFV
62
0
70
32
10
8.520000
20
3.440000
30
0
0
VERTEX
8
PFV
62
0
70
32
10
8.520000
20
3.460000
30
0
0
SEQEND
0
POLYLINE
8
PFV
62
0
66
1
70
8
0
VERTEX
8
PFV
62
0
70
32
10
8.340000
20
3.360000
30
0
0
VERTEX
8
PFV
62
0
70
32
10
8.320000
20
3.360000
30
0
0
SEQEND
0
POLYLINE
8
PFV
62
0
66
1
70
8
0
VERTEX
8
PFV
62
0
70
32
10
2.080000
20
3.460000
30
0
0
VERTEX
8
PFV
62
0
70
32
10
2.040000
20
3.520000
30
0
0
VERTEX
8
PFV
62
0
70
32
10
2.540000
20
4.020000
30
0
0
SEQEND
0
POLYLINE
8
PFV
62
0
66
1
70
8
0
VERTEX
8
PFV
62
0
70
32
10
8.520000
20
3.460000
30
0
0
VERTEX
8
PFV
62
0
70
32
10
8.500000
20
3.480000
30
0
0
SEQEND
0
POLYLINE
8
PFV
62
0
66
1
70
8
0
VERTEX
8
PFV
62
0
70
32
10
2.040000
20
3.520000
30
0
0
VERTEX
8
PFV
62
0
70
32
10
1.940000
20
3.580000
30
0
0
VERTEX
8
PFV
62
0
70
32
10
1.700000
20
3.840000
30
0
0
VERTEX
8
PFV
62
0
70
32
10
1.660000
20
3.900000
30
0
0
VERTEX
8
PFV
62
0
70
32
10
1.520000
20
4.140000
30
0
0
VERTEX
8
PFV
62
0
70
32
10
1.500000
20
4.280000
30
0
0
VERTEX
8
PFV
62
0
70
32
10
1.500000
20
4.380000
30
0
0
VERTEX
8
PFV
62
0
70
32
10
1.560000
20
4.520000
30
0
0
VERTEX
8
PFV
62
0
70
32
10
1.460000
20
5.360000
30
0
0
VERTEX
8
PFV
62
0
70
32
10
1.460000
20
5.620000
30
0
0
VERTEX
8
PFV
62
0
70
32
10
1.580000
20
6.300000
30
0
0
VERTEX
8
PFV
62
0
70
32
10
1.680000
20
6.560000
30
0
0
VERTEX
8
PFV
62
0
70
32
10
1.700000
20
6.560000
30
0
0
VERTEX
8
PFV
62
0
70
32
10
1.740000
20
6.480000
30
0
0
SEQEND
0
POLYLINE
8
PFV
62
0
66
1
70
8
0
VERTEX
8
PFV
62
0
70
32
10
8.620000
20
3.520000
30
0
0
VERTEX
8
PFV
62
0
70
32
10
8.600000
20
3.540000
30
0
0
SEQEND
0
POLYLINE
8
PFV
62
0
66
1
70
8
0
VERTEX
8
PFV
62
0
70
32
10
8.680000
20
3.540000
30
0
0
VERTEX
8
PFV
62
0
70
32
10
8.820000
20
3.620000
30
0
0
VERTEX
8
PFV
62
0
70
32
10
9.320000
20
4.080000
30
0
0
VERTEX
8
PFV
62
0
70
32
10
9.420000
20
4.100000
30
0
0
SEQEND
0
POLYLINE
8
PFV
62
0
66
1
70
8
0
VERTEX
8
PFV
62
0
70
32
10
6.740000
20
3.640000
30
0
0
VERTEX
8
PFV
62
0
70
32
10
6.960000
20
3.960000
30
0
0
VERTEX
8
PFV
62
0
70
32
10
7.160000
20
3.960000
30
0
0
SEQEND
0
POLYLINE
8
PFV
62
0
66
1
70
8
0
VERTEX
8
PFV
62
0
70
32
10
6.740000
20
3.640000
30
0
0
VERTEX
8
PFV
62
0
70
32
10
6.720000
20
3.640000
30
0
0
SEQEND
0
POLYLINE
8
PFV
62
0
66
1
70
8
0
VERTEX
8
PFV
62
0
70
32
10
7.240000
20
3.700000
30
0
0
VERTEX
8
PFV
62
0
70
32
10
7.380000
20
3.820000
30
0
0
VERTEX
8
PFV
62
0
70
32
10
7.480000
20
3.960000
30
0
0
VERTEX
8
PFV
62
0
70
32
10
7.500000
20
3.980000
30
0
0
SEQEND
0
POLYLINE
8
PFV
62
0
66
1
70
8
0
VERTEX
8
PFV
62
0
70
32
10
7.240000
20
3.700000
30
0
0
VERTEX
8
PFV
62
0
70
32
10
7.220000
20
3.700000
30
0
0
SEQEND
0
POLYLINE
8
PFV
62
0
66
1
70
8
0
VERTEX
8
PFV
62
0
70
32
10
8.640000
20
3.740000
30
0
0
VERTEX
8
PFV
62
0
70
32
10
8.880000
20
4.020000
30
0
0
VERTEX
8
PFV
62
0
70
32
10
9.180000
20
4.340000
30
0
0
VERTEX
8
PFV
62
0
70
32
10
9.220000
20
4.340000
30
0
0
SEQEND
0
POLYLINE
8
PFV
62
0
66
1
70
8
0
VERTEX
8
PFV
62
0
70
32
10
8.640000
20
3.740000
30
0
0
VERTEX
8
PFV
62
0
70
32
10
8.620000
20
3.740000
30
0
0
SEQEND
0
POLYLINE
8
PFV
62
0
66
1
70
8
0
VERTEX
8
PFV
62
0
70
32
10
8.660000
20
3.800000
30
0
0
VERTEX
8
PFV
62
0
70
32
10
8.620000
20
4.000000
30
0
0
VERTEX
8
PFV
62
0
70
32
10
8.240000
20
4.360000
30
0
0
VERTEX
8
PFV
62
0
70
32
10
8.220000
20
4.480000
30
0
0
VERTEX
8
PFV
62
0
70
32
10
8.200000
20
4.540000
30
0
0
SEQEND
0
POLYLINE
8
PFV
62
0
66
1
70
8
0
VERTEX
8
PFV
62
0
70
32
10
7.580000
20
3.920000
30
0
0
VERTEX
8
PFV
62
0
70
32
10
7.560000
20
3.920000
30
0
0
SEQEND
0
POLYLINE
8
PFV
62
0
66
1
70
8
0
VERTEX
8
PFV
62
0
70
32
10
6.960000
20
3.960000
30
0
0
VERTEX
8
PFV
62
0
70
32
10
6.960000
20
4.000000
30
0
0
VERTEX
8
PFV
62
0
70
32
10
6.980000
20
4.020000
30
0
0
VERTEX
8
PFV
62
0
70
32
10
7.000000
20
4.040000
30
0
0
SEQEND
0
POLYLINE
8
PFV
62
0
66
1
70
8
0
VERTEX
8
PFV
62
0
70
32
10
7.160000
20
3.960000
30
0
0
VERTEX
8
PFV
62
0
70
32
10
7.180000
20
3.960000
30
0
0
SEQEND
0
POLYLINE
8
PFV
62
0
66
1
70
8
0
VERTEX
8
PFV
62
0
70
32
10
8.640000
20
3.980000
30
0
0
VERTEX
8
PFV
62
0
70
32
10
8.680000
20
4.000000
30
0
0
VERTEX
8
PFV
62
0
70
32
10
8.680000
20
4.220000
30
0
0
VERTEX
8
PFV
62
0
70
32
10
8.680000
20
4.460000
30
0
0
VERTEX
8
PFV
62
0
70
32
10
8.520000
20
4.620000
30
0
0
VERTEX
8
PFV
62
0
70
32
10
8.460000
20
4.660000
30
0
0
VERTEX
8
PFV
62
0
70
32
10
8.480000
20
4.700000
30
0
0
VERTEX
8
PFV
62
0
70
32
10
8.440000
20
4.700000
30
0
0
VERTEX
8
PFV
62
0
70
32
10
8.440000
20
4.600000
30
0
0
VERTEX
8
PFV
62
0
70
32
10
8.400000
20
4.600000
30
0
0
VERTEX
8
PFV
62
0
70
32
10
8.400000
20
4.800000
30
0
0
VERTEX
8
PFV
62
0
70
32
10
8.480000
20
4.880000
30
0
0
VERTEX
8
PFV
62
0
70
32
10
8.540000
20
4.740000
30
0
0
VERTEX
8
PFV
62
0
70
32
10
8.560000
20
4.740000
30
0
0
VERTEX
8
PFV
62
0
70
32
10
8.760000
20
4.540000
30
0
0
VERTEX
8
PFV
62
0
70
32
10
8.720000
20
4.440000
30
0
0
VERTEX
8
PFV
62
0
70
32
10
8.700000
20
4.440000
30
0
0
SEQEND
0
POLYLINE
8
PFV
62
0
66
1
70
8
0
VERTEX
8
PFV
62
0
70
32
10
8.640000
20
3.980000
30
0
0
VERTEX
8
PFV
62
0
70
32
10
8.620000
20
3.980000
30
0
0
SEQEND
0
POLYLINE
8
PFV
62
0
66
1
70
8
0
VERTEX
8
PFV
62
0
70
32
10
7.680000
20
4.020000
30
0
0
VERTEX
8
PFV
62
0
70
32
10
7.680000
20
4.040000
30
0
0
VERTEX
8
PFV
62
0
70
32
10
7.700000
20
4.060000
30
0
0
VERTEX
8
PFV
62
0
70
32
10
7.720000
20
4.080000
30
0
0
VERTEX
8
PFV
62
0
70
32
10
7.760000
20
4.080000
30
0
0
VERTEX
8
PFV
62
0
70
32
10
7.780000
20
4.100000
30
0
0
VERTEX
8
PFV
62
0
70
32
10
7.800000
20
4.120000
30
0
0
SEQEND
0
POLYLINE
8
PFV
62
0
66
1
70
8
0
VERTEX
8
PFV
62
0
70
32
10
7.360000
20
4.040000
30
0
0
VERTEX
8
PFV
62
0
70
32
10
7.280000
20
4.100000
30
0
0
VERTEX
8
PFV
62
0
70
32
10
7.280000
20
4.140000
30
0
0
VERTEX
8
PFV
62
0
70
32
10
7.320000
20
4.140000
30
0
0
VERTEX
8
PFV
62
0
70
32
10
7.320000
20
4.100000
30
0
0
SEQEND
0
POLYLINE
8
PFV
62
0
66
1
70
8
0
VERTEX
8
PFV
62
0
70
32
10
7.360000
20
4.040000
30
0
0
VERTEX
8
PFV
62
0
70
32
10
7.340000
20
4.060000
30
0
0
SEQEND
0
POLYLINE
8
PFV
62
0
66
1
70
8
0
VERTEX
8
PFV
62
0
70
32
10
7.860000
20
4.120000
30
0
0
VERTEX
8
PFV
62
0
70
32
10
7.860000
20
4.140000
30
0
0
VERTEX
8
PFV
62
0
70
32
10
7.880000
20
4.160000
30
0
0
VERTEX
8
PFV
62
0
70
32
10
7.900000
20
4.180000
30
0
0
VERTEX
8
PFV
62
0
70
32
10
7.960000
20
4.180000
30
0
0
SEQEND
0
POLYLINE
8
PFV
62
0
66
1
70
8
0
VERTEX
8
PFV
62
0
70
32
10
7.860000
20
4.120000
30
0
0
VERTEX
8
PFV
62
0
70
32
10
7.860000
20
4.100000
30
0
0
SEQEND
0
POLYLINE
8
PFV
62
0
66
1
70
8
0
VERTEX
8
PFV
62
0
70
32
10
8.660000
20
4.160000
30
0
0
VERTEX
8
PFV
62
0
70
32
10
8.680000
20
4.160000
30
0
0
SEQEND
0
POLYLINE
8
PFV
62
0
66
1
70
8
0
VERTEX
8
PFV
62
0
70
32
10
8.660000
20
4.160000
30
0
0
VERTEX
8
PFV
62
0
70
32
10
8.360000
20
4.460000
30
0
0
VERTEX
8
PFV
62
0
70
32
10
8.240000
20
4.460000
30
0
0
SEQEND
0
POLYLINE
8
PFV
62
0
66
1
70
8
0
VERTEX
8
PFV
62
0
70
32
10
8.660000
20
4.160000
30
0
0
VERTEX
8
PFV
62
0
70
32
10
8.640000
20
4.180000
30
0
0
SEQEND
0
POLYLINE
8
PFV
62
0
66
1
70
8
0
VERTEX
8
PFV
62
0
70
32
10
4.980000
20
4.180000
30
0
0
VERTEX
8
PFV
62
0
70
32
10
5.060000
20
4.300000
30
0
0
VERTEX
8
PFV
62
0
70
32
10
5.100000
20
4.300000
30
0
0
SEQEND
0
POLYLINE
8
PFV
62
0
66
1
70
8
0
VERTEX
8
PFV
62
0
70
32
10
4.980000
20
4.180000
30
0
0
VERTEX
8
PFV
62
0
70
32
10
4.660000
20
4.240000
30
0
0
VERTEX
8
PFV
62
0
70
32
10
4.580000
20
4.380000
30
0
0
VERTEX
8
PFV
62
0
70
32
10
4.540000
20
4.840000
30
0
0
VERTEX
8
PFV
62
0
70
32
10
4.460000
20
5.000000
30
0
0
VERTEX
8
PFV
62
0
70
32
10
4.540000
20
5.080000
30
0
0
VERTEX
8
PFV
62
0
70
32
10
5.460000
20
5.080000
30
0
0
VERTEX
8
PFV
62
0
70
32
10
5.660000
20
5.040000
30
0
0
VERTEX
8
PFV
62
0
70
32
10
5.840000
20
4.820000
30
0
0
VERTEX
8
PFV
62
0
70
32
10
5.820000
20
4.620000
30
0
0
VERTEX
8
PFV
62
0
70
32
10
5.780000
20
4.540000
30
0
0
VERTEX
8
PFV
62
0
70
32
10
5.260000
20
4.540000
30
0
0
VERTEX
8
PFV
62
0
70
32
10
5.260000
20
5.080000
30
0
0
SEQEND
0
POLYLINE
8
PFV
62
0
66
1
70
8
0
VERTEX
8
PFV
62
0
70
32
10
4.980000
20
4.180000
30
0
0
VERTEX
8
PFV
62
0
70
32
10
5.500000
20
4.160000
30
0
0
VERTEX
8
PFV
62
0
70
32
10
5.940000
20
4.200000
30
0
0
VERTEX
8
PFV
62
0
70
32
10
6.580000
20
4.340000
30
0
0
VERTEX
8
PFV
62
0
70
32
10
6.660000
20
4.280000
30
0
0
SEQEND
0
POLYLINE
8
PFV
62
0
66
1
70
8
0
VERTEX
8
PFV
62
0
70
32
10
7.900000
20
4.180000
30
0
0
VERTEX
8
PFV
62
0
70
32
10
7.800000
20
4.320000
30
0
0
VERTEX
8
PFV
62
0
70
32
10
7.860000
20
4.400000
30
0
0
VERTEX
8
PFV
62
0
70
32
10
7.860000
20
4.360000
30
0
0
VERTEX
8
PFV
62
0
70
32
10
7.860000
20
4.380000
30
0
0
SEQEND
0
POLYLINE
8
PFV
62
0
66
1
70
8
0
VERTEX
8
PFV
62
0
70
32
10
7.900000
20
4.180000
30
0
0
VERTEX
8
PFV
62
0
70
32
10
7.880000
20
4.200000
30
0
0
SEQEND
0
POLYLINE
8
PFV
62
0
66
1
70
8
0
VERTEX
8
PFV
62
0
70
32
10
8.680000
20
4.220000
30
0
0
VERTEX
8
PFV
62
0
70
32
10
8.700000
20
4.220000
30
0
0
SEQEND
0
POLYLINE
8
PFV
62
0
66
1
70
8
0
VERTEX
8
PFV
62
0
70
32
10
8.680000
20
4.220000
30
0
0
VERTEX
8
PFV
62
0
70
32
10
8.320000
20
4.580000
30
0
0
VERTEX
8
PFV
62
0
70
32
10
8.400000
20
4.640000
30
0
0
SEQEND
0
POLYLINE
8
PFV
62
0
66
1
70
8
0
VERTEX
8
PFV
62
0
70
32
10
8.680000
20
4.220000
30
0
0
VERTEX
8
PFV
62
0
70
32
10
8.660000
20
4.240000
30
0
0
SEQEND
0
POLYLINE
8
PFV
62
0
66
1
70
8
0
VERTEX
8
PFV
62
0
70
32
10
7.720000
20
4.260000
30
0
0
VERTEX
8
PFV
62
0
70
32
10
7.720000
20
4.280000
30
0
0
VERTEX
8
PFV
62
0
70
32
10
7.740000
20
4.300000
30
0
0
VERTEX
8
PFV
62
0
70
32
10
7.780000
20
4.300000
30
0
0
VERTEX
8
PFV
62
0
70
32
10
7.800000
20
4.280000
30
0
0
VERTEX
8
PFV
62
0
70
32
10
7.800000
20
4.300000
30
0
0
SEQEND
0
POLYLINE
8
PFV
62
0
66
1
70
8
0
VERTEX
8
PFV
62
0
70
32
10
7.720000
20
4.260000
30
0
0
VERTEX
8
PFV
62
0
70
32
10
7.720000
20
4.240000
30
0
0
SEQEND
0
POLYLINE
8
PFV
62
0
66
1
70
8
0
VERTEX
8
PFV
62
0
70
32
10
8.020000
20
4.260000
30
0
0
VERTEX
8
PFV
62
0
70
32
10
8.020000
20
4.340000
30
0
0
VERTEX
8
PFV
62
0
70
32
10
8.000000
20
4.360000
30
0
0
VERTEX
8
PFV
62
0
70
32
10
8.000000
20
4.420000
30
0
0
VERTEX
8
PFV
62
0
70
32
10
7.900000
20
4.420000
30
0
0
VERTEX
8
PFV
62
0
70
32
10
7.900000
20
4.400000
30
0
0
SEQEND
0
POLYLINE
8
PFV
62
0
66
1
70
8
0
VERTEX
8
PFV
62
0
70
32
10
6.580000
20
4.340000
30
0
0
VERTEX
8
PFV
62
0
70
32
10
6.800000
20
4.440000
30
0
0
VERTEX
8
PFV
62
0
70
32
10
6.900000
20
4.460000
30
0
0
VERTEX
8
PFV
62
0
70
32
10
7.000000
20
4.520000
30
0
0
VERTEX
8
PFV
62
0
70
32
10
7.080000
20
4.540000
30
0
0
VERTEX
8
PFV
62
0
70
32
10
7.260000
20
4.640000
30
0
0
VERTEX
8
PFV
62
0
70
32
10
7.320000
20
4.640000
30
0
0
VERTEX
8
PFV
62
0
70
32
10
7.320000
20
4.680000
30
0
0
VERTEX
8
PFV
62
0
70
32
10
7.460000
20
4.740000
30
0
0
VERTEX
8
PFV
62
0
70
32
10
7.480000
20
4.800000
30
0
0
VERTEX
8
PFV
62
0
70
32
10
7.620000
20
4.860000
30
0
0
VERTEX
8
PFV
62
0
70
32
10
7.660000
20
4.800000
30
0
0
SEQEND
0
POLYLINE
8
PFV
62
0
66
1
70
8
0
VERTEX
8
PFV
62
0
70
32
10
6.580000
20
4.340000
30
0
0
VERTEX
8
PFV
62
0
70
32
10
6.580000
20
4.320000
30
0
0
SEQEND
0
POLYLINE
8
PFV
62
0
66
1
70
8
0
VERTEX
8
PFV
62
0
70
32
10
4.580000
20
4.360000
30
0
0
VERTEX
8
PFV
62
0
70
32
10
4.420000
20
4.220000
30
0
0
VERTEX
8
PFV
62
0
70
32
10
3.940000
20
4.280000
30
0
0
VERTEX
8
PFV
62
0
70
32
10
3.500000
20
4.440000
30
0
0
VERTEX
8
PFV
62
0
70
32
10
3.260000
20
4.560000
30
0
0
VERTEX
8
PFV
62
0
70
32
10
2.780000
20
4.860000
30
0
0
VERTEX
8
PFV
62
0
70
32
10
2.560000
20
5.100000
30
0
0
VERTEX
8
PFV
62
0
70
32
10
2.480000
20
5.160000
30
0
0
VERTEX
8
PFV
62
0
70
32
10
2.320000
20
5.380000
30
0
0
VERTEX
8
PFV
62
0
70
32
10
2.240000
20
5.320000
30
0
0
SEQEND
0
POLYLINE
8
PFV
62
0
66
1
70
8
0
VERTEX
8
PFV
62
0
70
32
10
7.940000
20
4.420000
30
0
0
VERTEX
8
PFV
62
0
70
32
10
7.980000
20
4.580000
30
0
0
VERTEX
8
PFV
62
0
70
32
10
8.120000
20
4.600000
30
0
0
VERTEX
8
PFV
62
0
70
32
10
8.120000
20
4.640000
30
0
0
SEQEND
0
POLYLINE
8
PFV
62
0
66
1
70
8
0
VERTEX
8
PFV
62
0
70
32
10
8.700000
20
4.440000
30
0
0
VERTEX
8
PFV
62
0
70
32
10
8.680000
20
4.440000
30
0
0
SEQEND
0
POLYLINE
8
PFV
62
0
66
1
70
8
0
VERTEX
8
PFV
62
0
70
32
10
8.240000
20
4.460000
30
0
0
VERTEX
8
PFV
62
0
70
32
10
8.220000
20
4.460000
30
0
0
SEQEND
0
POLYLINE
8
PFV
62
0
66
1
70
8
0
VERTEX
8
PFV
62
0
70
32
10
5.260000
20
4.540000
30
0
0
VERTEX
8
PFV
62
0
70
32
10
5.280000
20
4.540000
30
0
0
SEQEND
0
POLYLINE
8
PFV
62
0
66
1
70
8
0
VERTEX
8
PFV
62
0
70
32
10
5.260000
20
4.540000
30
0
0
VERTEX
8
PFV
62
0
70
32
10
5.220000
20
4.500000
30
0
0
VERTEX
8
PFV
62
0
70
32
10
4.820000
20
4.520000
30
0
0
VERTEX
8
PFV
62
0
70
32
10
4.600000
20
4.740000
30
0
0
SEQEND
0
POLYLINE
8
PFV
62
0
66
1
70
8
0
VERTEX
8
PFV
62
0
70
32
10
8.760000
20
4.540000
30
0
0
VERTEX
8
PFV
62
0
70
32
10
8.740000
20
4.540000
30
0
0
SEQEND
0
POLYLINE
8
PFV
62
0
66
1
70
8
0
VERTEX
8
PFV
62
0
70
32
10
8.760000
20
4.540000
30
0
0
VERTEX
8
PFV
62
0
70
32
10
8.760000
20
4.800000
30
0
0
VERTEX
8
PFV
62
0
70
32
10
8.660000
20
4.900000
30
0
0
VERTEX
8
PFV
62
0
70
32
10
8.520000
20
4.880000
30
0
0
VERTEX
8
PFV
62
0
70
32
10
8.500000
20
4.860000
30
0
0
SEQEND
0
POLYLINE
8
PFV
62
0
66
1
70
8
0
VERTEX
8
PFV
62
0
70
32
10
5.840000
20
4.620000
30
0
0
VERTEX
8
PFV
62
0
70
32
10
5.860000
20
4.620000
30
0
0
VERTEX
8
PFV
62
0
70
32
10
5.920000
20
4.600000
30
0
0
VERTEX
8
PFV
62
0
70
32
10
6.400000
20
4.700000
30
0
0
VERTEX
8
PFV
62
0
70
32
10
6.660000
20
4.780000
30
0
0
VERTEX
8
PFV
62
0
70
32
10
6.820000
20
4.880000
30
0
0
VERTEX
8
PFV
62
0
70
32
10
6.880000
20
4.900000
30
0
0
VERTEX
8
PFV
62
0
70
32
10
7.000000
20
4.940000
30
0
0
VERTEX
8
PFV
62
0
70
32
10
7.120000
20
5.040000
30
0
0
VERTEX
8
PFV
62
0
70
32
10
7.400000
20
5.160000
30
0
0
VERTEX
8
PFV
62
0
70
32
10
7.500000
20
5.320000
30
0
0
VERTEX
8
PFV
62
0
70
32
10
7.580000
20
5.420000
30
0
0
VERTEX
8
PFV
62
0
70
32
10
7.620000
20
5.580000
30
0
0
VERTEX
8
PFV
62
0
70
32
10
7.780000
20
5.620000
30
0
0
VERTEX
8
PFV
62
0
70
32
10
7.840000
20
5.660000
30
0
0
VERTEX
8
PFV
62
0
70
32
10
8.000000
20
5.660000
30
0
0
VERTEX
8
PFV
62
0
70
32
10
8.140000
20
5.500000
30
0
0
VERTEX
8
PFV
62
0
70
32
10
8.080000
20
5.360000
30
0
0
VERTEX
8
PFV
62
0
70
32
10
7.980000
20
5.340000
30
0
0
VERTEX
8
PFV
62
0
70
32
10
8.020000
20
5.300000
30
0
0
VERTEX
8
PFV
62
0
70
32
10
7.680000
20
4.920000
30
0
0
VERTEX
8
PFV
62
0
70
32
10
7.600000
20
4.860000
30
0
0
SEQEND
0
POLYLINE
8
PFV
62
0
66
1
70
8
0
VERTEX
8
PFV
62
0
70
32
10
8.400000
20
4.640000
30
0
0
VERTEX
8
PFV
62
0
70
32
10
8.420000
20
4.640000
30
0
0
VERTEX
8
PFV
62
0
70
32
10
8.420000
20
4.660000
30
0
0
VERTEX
8
PFV
62
0
70
32
10
8.400000
20
4.640000
30
0
0
SEQEND
0
POLYLINE
8
PFV
62
0
66
1
70
8
0
VERTEX
8
PFV
62
0
70
32
10
3.080000
20
4.660000
30
0
0
VERTEX
8
PFV
62
0
70
32
10
3.080000
20
4.680000
30
0
0
SEQEND
0
POLYLINE
8
PFV
62
0
66
1
70
8
0
VERTEX
8
PFV
62
0
70
32
10
3.080000
20
4.660000
30
0
0
VERTEX
8
PFV
62
0
70
32
10
3.080000
20
4.640000
30
0
0
VERTEX
8
PFV
62
0
70
32
10
3.060000
20
4.620000
30
0
0
VERTEX
8
PFV
62
0
70
32
10
3.040000
20
4.600000
30
0
0
VERTEX
8
PFV
62
0
70
32
10
3.020000
20
4.580000
30
0
0
VERTEX
8
PFV
62
0
70
32
10
2.980000
20
4.580000
30
0
0
SEQEND
0
POLYLINE
8
PFV
62
0
66
1
70
8
0
VERTEX
8
PFV
62
0
70
32
10
6.200000
20
4.660000
30
0
0
VERTEX
8
PFV
62
0
70
32
10
6.200000
20
4.800000
30
0
0
VERTEX
8
PFV
62
0
70
32
10
6.220000
20
4.800000
30
0
0
VERTEX
8
PFV
62
0
70
32
10
6.240000
20
4.780000
30
0
0
VERTEX
8
PFV
62
0
70
32
10
6.240000
20
4.760000
30
0
0
VERTEX
8
PFV
62
0
70
32
10
6.200000
20
4.760000
30
0
0
SEQEND
0
POLYLINE
8
PFV
62
0
66
1
70
8
0
VERTEX
8
PFV
62
0
70
32
10
6.200000
20
4.760000
30
0
0
VERTEX
8
PFV
62
0
70
32
10
6.160000
20
4.760000
30
0
0
VERTEX
8
PFV
62
0
70
32
10
6.140000
20
4.920000
30
0
0
VERTEX
8
PFV
62
0
70
32
10
5.960000
20
5.100000
30
0
0
VERTEX
8
PFV
62
0
70
32
10
6.080000
20
5.160000
30
0
0
VERTEX
8
PFV
62
0
70
32
10
6.220000
20
5.160000
30
0
0
VERTEX
8
PFV
62
0
70
32
10
6.380000
20
4.980000
30
0
0
VERTEX
8
PFV
62
0
70
32
10
6.380000
20
4.920000
30
0
0
VERTEX
8
PFV
62
0
70
32
10
6.420000
20
4.920000
30
0
0
VERTEX
8
PFV
62
0
70
32
10
6.460000
20
4.900000
30
0
0
VERTEX
8
PFV
62
0
70
32
10
6.560000
20
4.940000
30
0
0
VERTEX
8
PFV
62
0
70
32
10
6.580000
20
5.040000
30
0
0
VERTEX
8
PFV
62
0
70
32
10
6.540000
20
5.040000
30
0
0
VERTEX
8
PFV
62
0
70
32
10
6.500000
20
5.100000
30
0
0
VERTEX
8
PFV
62
0
70
32
10
6.400000
20
5.220000
30
0
0
VERTEX
8
PFV
62
0
70
32
10
6.280000
20
5.200000
30
0
0
VERTEX
8
PFV
62
0
70
32
10
6.320000
20
5.140000
30
0
0
VERTEX
8
PFV
62
0
70
32
10
6.480000
20
4.940000
30
0
0
VERTEX
8
PFV
62
0
70
32
10
6.520000
20
4.940000
30
0
0
SEQEND
0
POLYLINE
8
PFV
62
0
66
1
70
8
0
VERTEX
8
PFV
62
0
70
32
10
8.780000
20
4.780000
30
0
0
VERTEX
8
PFV
62
0
70
32
10
8.840000
20
4.800000
30
0
0
VERTEX
8
PFV
62
0
70
32
10
8.900000
20
5.160000
30
0
0
VERTEX
8
PFV
62
0
70
32
10
8.940000
20
5.320000
30
0
0
VERTEX
8
PFV
62
0
70
32
10
8.900000
20
5.980000
30
0
0
VERTEX
8
PFV
62
0
70
32
10
8.820000
20
6.300000
30
0
0
VERTEX
8
PFV
62
0
70
32
10
8.740000
20
6.560000
30
0
0
VERTEX
8
PFV
62
0
70
32
10
8.700000
20
6.660000
30
0
0
VERTEX
8
PFV
62
0
70
32
10
8.760000
20
6.720000
30
0
0
VERTEX
8
PFV
62
0
70
32
10
8.760000
20
6.780000
30
0
0
SEQEND
0
POLYLINE
8
PFV
62
0
66
1
70
8
0
VERTEX
8
PFV
62
0
70
32
10
8.780000
20
4.780000
30
0
0
VERTEX
8
PFV
62
0
70
32
10
8.760000
20
4.780000
30
0
0
SEQEND
0
POLYLINE
8
PFV
62
0
66
1
70
8
0
VERTEX
8
PFV
62
0
70
32
10
6.160000
20
4.800000
30
0
0
VERTEX
8
PFV
62
0
70
32
10
6.200000
20
4.800000
30
0
0
SEQEND
0
POLYLINE
8
PFV
62
0
66
1
70
8
0
VERTEX
8
PFV
62
0
70
32
10
7.600000
20
4.860000
30
0
0
VERTEX
8
PFV
62
0
70
32
10
7.620000
20
4.840000
30
0
0
SEQEND
0
POLYLINE
8
PFV
62
0
66
1
70
8
0
VERTEX
8
PFV
62
0
70
32
10
6.420000
20
4.920000
30
0
0
VERTEX
8
PFV
62
0
70
32
10
6.420000
20
4.960000
30
0
0
VERTEX
8
PFV
62
0
70
32
10
6.380000
20
4.960000
30
0
0
SEQEND
0
POLYLINE
8
PFV
62
0
66
1
70
8
0
VERTEX
8
PFV
62
0
70
32
10
6.420000
20
4.920000
30
0
0
VERTEX
8
PFV
62
0
70
32
10
6.420000
20
4.900000
30
0
0
SEQEND
0
POLYLINE
8
PFV
62
0
66
1
70
8
0
VERTEX
8
PFV
62
0
70
32
10
6.480000
20
4.960000
30
0
0
VERTEX
8
PFV
62
0
70
32
10
6.480000
20
4.980000
30
0
0
SEQEND
0
POLYLINE
8
PFV
62
0
66
1
70
8
0
VERTEX
8
PFV
62
0
70
32
10
4.460000
20
5.000000
30
0
0
VERTEX
8
PFV
62
0
70
32
10
4.100000
20
5.040000
30
0
0
VERTEX
8
PFV
62
0
70
32
10
3.680000
20
5.160000
30
0
0
VERTEX
8
PFV
62
0
70
32
10
3.460000
20
5.400000
30
0
0
VERTEX
8
PFV
62
0
70
32
10
2.960000
20
5.380000
30
0
0
VERTEX
8
PFV
62
0
70
32
10
2.880000
20
5.760000
30
0
0
VERTEX
8
PFV
62
0
70
32
10
3.040000
20
5.820000
30
0
0
VERTEX
8
PFV
62
0
70
32
10
3.140000
20
5.880000
30
0
0
VERTEX
8
PFV
62
0
70
32
10
3.360000
20
5.640000
30
0
0
VERTEX
8
PFV
62
0
70
32
10
3.380000
20
5.400000
30
0
0
SEQEND
0
POLYLINE
8
PFV
62
0
66
1
70
8
0
VERTEX
8
PFV
62
0
70
32
10
6.540000
20
5.040000
30
0
0
VERTEX
8
PFV
62
0
70
32
10
6.540000
20
5.000000
30
0
0
SEQEND
0
POLYLINE
8
PFV
62
0
66
1
70
8
0
VERTEX
8
PFV
62
0
70
32
10
5.640000
20
5.060000
30
0
0
VERTEX
8
PFV
62
0
70
32
10
5.640000
20
5.040000
30
0
0
SEQEND
0
POLYLINE
8
PFV
62
0
66
1
70
8
0
VERTEX
8
PFV
62
0
70
32
10
5.640000
20
5.060000
30
0
0
VERTEX
8
PFV
62
0
70
32
10
5.660000
20
5.080000
30
0
0
VERTEX
8
PFV
62
0
70
32
10
5.680000
20
5.100000
30
0
0
VERTEX
8
PFV
62
0
70
32
10
5.940000
20
5.100000
30
0
0
VERTEX
8
PFV
62
0
70
32
10
5.960000
20
5.080000
30
0
0
VERTEX
8
PFV
62
0
70
32
10
5.960000
20
5.100000
30
0
0
SEQEND
0
POLYLINE
8
PFV
62
0
66
1
70
8
0
VERTEX
8
PFV
62
0
70
32
10
5.260000
20
5.080000
30
0
0
VERTEX
8
PFV
62
0
70
32
10
5.260000
20
5.100000
30
0
0
SEQEND
0
POLYLINE
8
PFV
62
0
66
1
70
8
0
VERTEX
8
PFV
62
0
70
32
10
7.220000
20
5.080000
30
0
0
VERTEX
8
PFV
62
0
70
32
10
7.260000
20
5.260000
30
0
0
VERTEX
8
PFV
62
0
70
32
10
7.460000
20
5.280000
30
0
0
SEQEND
0
POLYLINE
8
PFV
62
0
66
1
70
8
0
VERTEX
8
PFV
62
0
70
32
10
2.520000
20
5.100000
30
0
0
VERTEX
8
PFV
62
0
70
32
10
2.520000
20
5.120000
30
0
0
VERTEX
8
PFV
62
0
70
32
10
2.500000
20
5.120000
30
0
0
SEQEND
0
POLYLINE
8
PFV
62
0
66
1
70
8
0
VERTEX
8
PFV
62
0
70
32
10
2.520000
20
5.100000
30
0
0
VERTEX
8
PFV
62
0
70
32
10
2.460000
20
5.040000
30
0
0
VERTEX
8
PFV
62
0
70
32
10
2.460000
20
5.100000
30
0
0
VERTEX
8
PFV
62
0
70
32
10
2.500000
20
5.120000
30
0
0
SEQEND
0
POLYLINE
8
PFV
62
0
66
1
70
8
0
VERTEX
8
PFV
62
0
70
32
10
5.420000
20
5.100000
30
0
0
VERTEX
8
PFV
62
0
70
32
10
5.420000
20
5.080000
30
0
0
SEQEND
0
POLYLINE
8
PFV
62
0
66
1
70
8
0
VERTEX
8
PFV
62
0
70
32
10
5.420000
20
5.100000
30
0
0
VERTEX
8
PFV
62
0
70
32
10
5.460000
20
5.320000
30
0
0
VERTEX
8
PFV
62
0
70
32
10
5.340000
20
5.720000
30
0
0
VERTEX
8
PFV
62
0
70
32
10
5.300000
20
5.820000
30
0
0
VERTEX
8
PFV
62
0
70
32
10
4.620000
20
6.500000
30
0
0
VERTEX
8
PFV
62
0
70
32
10
4.320000
20
6.760000
30
0
0
VERTEX
8
PFV
62
0
70
32
10
4.020000
20
6.860000
30
0
0
VERTEX
8
PFV
62
0
70
32
10
3.780000
20
7.100000
30
0
0
VERTEX
8
PFV
62
0
70
32
10
3.760000
20
7.200000
30
0
0
VERTEX
8
PFV
62
0
70
32
10
3.620000
20
7.240000
30
0
0
VERTEX
8
PFV
62
0
70
32
10
3.560000
20
7.300000
30
0
0
VERTEX
8
PFV
62
0
70
32
10
3.380000
20
7.280000
30
0
0
VERTEX
8
PFV
62
0
70
32
10
3.140000
20
7.040000
30
0
0
VERTEX
8
PFV
62
0
70
32
10
3.160000
20
6.880000
30
0
0
VERTEX
8
PFV
62
0
70
32
10
3.340000
20
6.900000
30
0
0
VERTEX
8
PFV
62
0
70
32
10
3.640000
20
7.220000
30
0
0
SEQEND
0
POLYLINE
8
PFV
62
0
66
1
70
8
0
VERTEX
8
PFV
62
0
70
32
10
3.120000
20
5.120000
30
0
0
VERTEX
8
PFV
62
0
70
32
10
3.220000
20
5.040000
30
0
0
VERTEX
8
PFV
62
0
70
32
10
3.260000
20
5.040000
30
0
0
VERTEX
8
PFV
62
0
70
32
10
3.540000
20
4.980000
30
0
0
VERTEX
8
PFV
62
0
70
32
10
3.700000
20
5.140000
30
0
0
SEQEND
0
POLYLINE
8
PFV
62
0
66
1
70
8
0
VERTEX
8
PFV
62
0
70
32
10
3.120000
20
5.120000
30
0
0
VERTEX
8
PFV
62
0
70
32
10
3.020000
20
5.240000
30
0
0
VERTEX
8
PFV
62
0
70
32
10
2.980000
20
5.380000
30
0
0
SEQEND
0
POLYLINE
8
PFV
62
0
66
1
70
8
0
VERTEX
8
PFV
62
0
70
32
10
3.120000
20
5.120000
30
0
0
VERTEX
8
PFV
62
0
70
32
10
3.360000
20
5.380000
30
0
0
SEQEND
0
POLYLINE
8
PFV
62
0
66
1
70
8
0
VERTEX
8
PFV
62
0
70
32
10
3.700000
20
5.140000
30
0
0
VERTEX
8
PFV
62
0
70
32
10
3.700000
20
5.160000
30
0
0
SEQEND
0
POLYLINE
8
PFV
62
0
66
1
70
8
0
VERTEX
8
PFV
62
0
70
32
10
6.220000
20
5.160000
30
0
0
VERTEX
8
PFV
62
0
70
32
10
6.220000
20
5.140000
30
0
0
SEQEND
0
POLYLINE
8
PFV
62
0
66
1
70
8
0
VERTEX
8
PFV
62
0
70
32
10
6.220000
20
5.160000
30
0
0
VERTEX
8
PFV
62
0
70
32
10
6.240000
20
5.180000
30
0
0
VERTEX
8
PFV
62
0
70
32
10
6.280000
20
5.180000
30
0
0
SEQEND
0
POLYLINE
8
PFV
62
0
66
1
70
8
0
VERTEX
8
PFV
62
0
70
32
10
6.280000
20
5.180000
30
0
0
VERTEX
8
PFV
62
0
70
32
10
6.300000
20
5.160000
30
0
0
SEQEND
0
POLYLINE
8
PFV
62
0
66
1
70
8
0
VERTEX
8
PFV
62
0
70
32
10
6.380000
20
5.220000
30
0
0
VERTEX
8
PFV
62
0
70
32
10
6.400000
20
5.260000
30
0
0
VERTEX
8
PFV
62
0
70
32
10
6.520000
20
5.260000
30
0
0
VERTEX
8
PFV
62
0
70
32
10
6.640000
20
5.140000
30
0
0
VERTEX
8
PFV
62
0
70
32
10
6.640000
20
5.000000
30
0
0
VERTEX
8
PFV
62
0
70
32
10
6.580000
20
5.000000
30
0
0
SEQEND
0
POLYLINE
8
PFV
62
0
66
1
70
8
0
VERTEX
8
PFV
62
0
70
32
10
6.380000
20
5.220000
30
0
0
VERTEX
8
PFV
62
0
70
32
10
6.400000
20
5.200000
30
0
0
SEQEND
0
POLYLINE
8
PFV
62
0
66
1
70
8
0
VERTEX
8
PFV
62
0
70
32
10
6.940000
20
5.240000
30
0
0
VERTEX
8
PFV
62
0
70
32
10
6.900000
20
5.300000
30
0
0
VERTEX
8
PFV
62
0
70
32
10
6.620000
20
5.600000
30
0
0
VERTEX
8
PFV
62
0
70
32
10
6.600000
20
5.700000
30
0
0
VERTEX
8
PFV
62
0
70
32
10
6.440000
20
5.860000
30
0
0
VERTEX
8
PFV
62
0
70
32
10
6.080000
20
6.000000
30
0
0
VERTEX
8
PFV
62
0
70
32
10
5.160000
20
6.940000
30
0
0
VERTEX
8
PFV
62
0
70
32
10
5.040000
20
7.300000
30
0
0
VERTEX
8
PFV
62
0
70
32
10
5.060000
20
7.540000
30
0
0
VERTEX
8
PFV
62
0
70
32
10
5.280000
20
7.760000
30
0
0
VERTEX
8
PFV
62
0
70
32
10
5.460000
20
7.760000
30
0
0
VERTEX
8
PFV
62
0
70
32
10
5.880000
20
7.700000
30
0
0
VERTEX
8
PFV
62
0
70
32
10
6.120000
20
7.460000
30
0
0
VERTEX
8
PFV
62
0
70
32
10
6.180000
20
7.460000
30
0
0
VERTEX
8
PFV
62
0
70
32
10
6.720000
20
7.340000
30
0
0
VERTEX
8
PFV
62
0
70
32
10
6.760000
20
7.300000
30
0
0
VERTEX
8
PFV
62
0
70
32
10
6.840000
20
7.300000
30
0
0
VERTEX
8
PFV
62
0
70
32
10
6.980000
20
7.240000
30
0
0
VERTEX
8
PFV
62
0
70
32
10
7.060000
20
7.180000
30
0
0
VERTEX
8
PFV
62
0
70
32
10
7.180000
20
6.760000
30
0
0
VERTEX
8
PFV
62
0
70
32
10
7.180000
20
6.340000
30
0
0
VERTEX
8
PFV
62
0
70
32
10
7.180000
20
6.240000
30
0
0
VERTEX
8
PFV
62
0
70
32
10
7.200000
20
6.240000
30
0
0
VERTEX
8
PFV
62
0
70
32
10
7.540000
20
5.880000
30
0
0
SEQEND
0
POLYLINE
8
PFV
62
0
66
1
70
8
0
VERTEX
8
PFV
62
0
70
32
10
6.940000
20
5.240000
30
0
0
VERTEX
8
PFV
62
0
70
32
10
6.980000
20
5.240000
30
0
0
VERTEX
8
PFV
62
0
70
32
10
6.980000
20
5.220000
30
0
0
VERTEX
8
PFV
62
0
70
32
10
7.000000
20
5.200000
30
0
0
VERTEX
8
PFV
62
0
70
32
10
7.040000
20
5.200000
30
0
0
SEQEND
0
POLYLINE
8
PFV
62
0
66
1
70
8
0
VERTEX
8
PFV
62
0
70
32
10
6.940000
20
5.240000
30
0
0
VERTEX
8
PFV
62
0
70
32
10
6.940000
20
5.200000
30
0
0
VERTEX
8
PFV
62
0
70
32
10
6.960000
20
5.180000
30
0
0
SEQEND
0
POLYLINE
8
PFV
62
0
66
1
70
8
0
VERTEX
8
PFV
62
0
70
32
10
6.480000
20
5.280000
30
0
0
VERTEX
8
PFV
62
0
70
32
10
6.540000
20
5.400000
30
0
0
VERTEX
8
PFV
62
0
70
32
10
6.560000
20
5.520000
30
0
0
VERTEX
8
PFV
62
0
70
32
10
6.620000
20
5.580000
30
0
0
SEQEND
0
POLYLINE
8
PFV
62
0
66
1
70
8
0
VERTEX
8
PFV
62
0
70
32
10
6.480000
20
5.280000
30
0
0
VERTEX
8
PFV
62
0
70
32
10
6.500000
20
5.260000
30
0
0
SEQEND
0
POLYLINE
8
PFV
62
0
66
1
70
8
0
VERTEX
8
PFV
62
0
70
32
10
7.460000
20
5.280000
30
0
0
VERTEX
8
PFV
62
0
70
32
10
7.480000
20
5.280000
30
0
0
SEQEND
0
POLYLINE
8
PFV
62
0
66
1
70
8
0
VERTEX
8
PFV
62
0
70
32
10
8.920000
20
5.300000
30
0
0
VERTEX
8
PFV
62
0
70
32
10
8.940000
20
5.300000
30
0
0
SEQEND
0
POLYLINE
8
PFV
62
0
66
1
70
8
0
VERTEX
8
PFV
62
0
70
32
10
8.920000
20
5.300000
30
0
0
VERTEX
8
PFV
62
0
70
32
10
8.700000
20
5.520000
30
0
0
VERTEX
8
PFV
62
0
70
32
10
8.700000
20
5.680000
30
0
0
SEQEND
0
POLYLINE
8
PFV
62
0
66
1
70
8
0
VERTEX
8
PFV
62
0
70
32
10
8.920000
20
5.300000
30
0
0
VERTEX
8
PFV
62
0
70
32
10
8.900000
20
5.320000
30
0
0
SEQEND
0
POLYLINE
8
PFV
62
0
66
1
70
8
0
VERTEX
8
PFV
62
0
70
32
10
8.020000
20
5.320000
30
0
0
VERTEX
8
PFV
62
0
70
32
10
8.020000
20
5.360000
30
0
0
SEQEND
0
POLYLINE
8
PFV
62
0
66
1
70
8
0
VERTEX
8
PFV
62
0
70
32
10
2.300000
20
5.380000
30
0
0
VERTEX
8
PFV
62
0
70
32
10
2.240000
20
5.560000
30
0
0
VERTEX
8
PFV
62
0
70
32
10
2.140000
20
5.500000
30
0
0
VERTEX
8
PFV
62
0
70
32
10
2.140000
20
5.480000
30
0
0
SEQEND
0
POLYLINE
8
PFV
62
0
66
1
70
8
0
VERTEX
8
PFV
62
0
70
32
10
2.300000
20
5.380000
30
0
0
VERTEX
8
PFV
62
0
70
32
10
2.320000
20
5.360000
30
0
0
SEQEND
0
POLYLINE
8
PFV
62
0
66
1
70
8
0
VERTEX
8
PFV
62
0
70
32
10
7.560000
20
5.380000
30
0
0
VERTEX
8
PFV
62
0
70
32
10
7.600000
20
5.360000
30
0
0
VERTEX
8
PFV
62
0
70
32
10
7.780000
20
5.460000
30
0
0
VERTEX
8
PFV
62
0
70
32
10
7.820000
20
5.640000
30
0
0
SEQEND
0
POLYLINE
8
PFV
62
0
66
1
70
8
0
VERTEX
8
PFV
62
0
70
32
10
7.140000
20
5.400000
30
0
0
VERTEX
8
PFV
62
0
70
32
10
6.840000
20
5.700000
30
0
0
VERTEX
8
PFV
62
0
70
32
10
6.860000
20
5.780000
30
0
0
VERTEX
8
PFV
62
0
70
32
10
6.880000
20
5.840000
30
0
0
VERTEX
8
PFV
62
0
70
32
10
6.940000
20
5.840000
30
0
0
VERTEX
8
PFV
62
0
70
32
10
7.260000
20
5.520000
30
0
0
VERTEX
8
PFV
62
0
70
32
10
7.340000
20
5.540000
30
0
0
VERTEX
8
PFV
62
0
70
32
10
7.360000
20
5.600000
30
0
0
VERTEX
8
PFV
62
0
70
32
10
7.320000
20
5.600000
30
0
0
VERTEX
8
PFV
62
0
70
32
10
7.240000
20
5.720000
30
0
0
VERTEX
8
PFV
62
0
70
32
10
7.000000
20
5.960000
30
0
0
VERTEX
8
PFV
62
0
70
32
10
7.040000
20
6.020000
30
0
0
VERTEX
8
PFV
62
0
70
32
10
7.120000
20
6.020000
30
0
0
VERTEX
8
PFV
62
0
70
32
10
7.360000
20
5.760000
30
0
0
VERTEX
8
PFV
62
0
70
32
10
7.500000
20
5.780000
30
0
0
VERTEX
8
PFV
62
0
70
32
10
7.460000
20
5.800000
30
0
0
VERTEX
8
PFV
62
0
70
32
10
7.460000
20
5.760000
30
0
0
SEQEND
0
POLYLINE
8
PFV
62
0
66
1
70
8
0
VERTEX
8
PFV
62
0
70
32
10
7.140000
20
5.400000
30
0
0
VERTEX
8
PFV
62
0
70
32
10
7.180000
20
5.400000
30
0
0
VERTEX
8
PFV
62
0
70
32
10
7.180000
20
5.380000
30
0
0
VERTEX
8
PFV
62
0
70
32
10
7.160000
20
5.360000
30
0
0
VERTEX
8
PFV
62
0
70
32
10
7.140000
20
5.360000
30
0
0
VERTEX
8
PFV
62
0
70
32
10
7.140000
20
5.400000
30
0
0
VERTEX
8
PFV
62
0
70
32
10
7.120000
20
5.420000
30
0
0
SEQEND
0
POLYLINE
8
PFV
62
0
66
1
70
8
0
VERTEX
8
PFV
62
0
70
32
10
2.300000
20
5.420000
30
0
0
VERTEX
8
PFV
62
0
70
32
10
2.320000
20
5.420000
30
0
0
VERTEX
8
PFV
62
0
70
32
10
2.340000
20
5.440000
30
0
0
VERTEX
8
PFV
62
0
70
32
10
2.360000
20
5.460000
30
0
0
VERTEX
8
PFV
62
0
70
32
10
2.360000
20
5.500000
30
0
0
VERTEX
8
PFV
62
0
70
32
10
2.340000
20
5.520000
30
0
0
VERTEX
8
PFV
62
0
70
32
10
2.260000
20
5.520000
30
0
0
SEQEND
0
POLYLINE
8
PFV
62
0
66
1
70
8
0
VERTEX
8
PFV
62
0
70
32
10
2.300000
20
5.420000
30
0
0
VERTEX
8
PFV
62
0
70
32
10
2.280000
20
5.420000
30
0
0
SEQEND
0
POLYLINE
8
PFV
62
0
66
1
70
8
0
VERTEX
8
PFV
62
0
70
32
10
8.120000
20
5.420000
30
0
0
VERTEX
8
PFV
62
0
70
32
10
8.140000
20
5.420000
30
0
0
VERTEX
8
PFV
62
0
70
32
10
8.160000
20
5.400000
30
0
0
VERTEX
8
PFV
62
0
70
32
10
8.160000
20
5.380000
30
0
0
VERTEX
8
PFV
62
0
70
32
10
8.180000
20
5.360000
30
0
0
SEQEND
0
POLYLINE
8
PFV
62
0
66
1
70
8
0
VERTEX
8
PFV
62
0
70
32
10
8.120000
20
5.420000
30
0
0
VERTEX
8
PFV
62
0
70
32
10
8.140000
20
5.400000
30
0
0
SEQEND
0
POLYLINE
8
PFV
62
0
66
1
70
8
0
VERTEX
8
PFV
62
0
70
32
10
1.440000
20
5.520000
30
0
0
VERTEX
8
PFV
62
0
70
32
10
1.460000
20
5.520000
30
0
0
SEQEND
0
POLYLINE
8
PFV
62
0
66
1
70
8
0
VERTEX
8
PFV
62
0
70
32
10
1.440000
20
5.520000
30
0
0
VERTEX
8
PFV
62
0
70
32
10
1.380000
20
5.580000
30
0
0
VERTEX
8
PFV
62
0
70
32
10
1.220000
20
5.600000
30
0
0
VERTEX
8
PFV
62
0
70
32
10
1.200000
20
5.660000
30
0
0
SEQEND
0
POLYLINE
8
PFV
62
0
66
1
70
8
0
VERTEX
8
PFV
62
0
70
32
10
1.440000
20
5.520000
30
0
0
VERTEX
8
PFV
62
0
70
32
10
1.420000
20
5.540000
30
0
0
SEQEND
0
POLYLINE
8
PFV
62
0
66
1
70
8
0
VERTEX
8
PFV
62
0
70
32
10
2.260000
20
5.520000
30
0
0
VERTEX
8
PFV
62
0
70
32
10
2.240000
20
5.520000
30
0
0
SEQEND
0
POLYLINE
8
PFV
62
0
66
1
70
8
0
VERTEX
8
PFV
62
0
70
32
10
8.140000
20
5.520000
30
0
0
VERTEX
8
PFV
62
0
70
32
10
8.180000
20
5.580000
30
0
0
VERTEX
8
PFV
62
0
70
32
10
8.200000
20
5.880000
30
0
0
VERTEX
8
PFV
62
0
70
32
10
8.200000
20
6.020000
30
0
0
VERTEX
8
PFV
62
0
70
32
10
8.080000
20
6.140000
30
0
0
VERTEX
8
PFV
62
0
70
32
10
8.060000
20
6.480000
30
0
0
VERTEX
8
PFV
62
0
70
32
10
8.020000
20
6.580000
30
0
0
VERTEX
8
PFV
62
0
70
32
10
7.940000
20
6.680000
30
0
0
VERTEX
8
PFV
62
0
70
32
10
7.920000
20
6.880000
30
0
0
VERTEX
8
PFV
62
0
70
32
10
7.860000
20
6.920000
30
0
0
VERTEX
8
PFV
62
0
70
32
10
7.840000
20
7.180000
30
0
0
VERTEX
8
PFV
62
0
70
32
10
7.620000
20
7.140000
30
0
0
VERTEX
8
PFV
62
0
70
32
10
7.500000
20
7.120000
30
0
0
VERTEX
8
PFV
62
0
70
32
10
7.440000
20
7.100000
30
0
0
VERTEX
8
PFV
62
0
70
32
10
7.460000
20
7.180000
30
0
0
VERTEX
8
PFV
62
0
70
32
10
7.520000
20
7.180000
30
0
0
VERTEX
8
PFV
62
0
70
32
10
7.480000
20
7.200000
30
0
0
SEQEND
0
POLYLINE
8
PFV
62
0
66
1
70
8
0
VERTEX
8
PFV
62
0
70
32
10
2.200000
20
5.560000
30
0
0
VERTEX
8
PFV
62
0
70
32
10
2.140000
20
5.740000
30
0
0
VERTEX
8
PFV
62
0
70
32
10
2.100000
20
5.900000
30
0
0
VERTEX
8
PFV
62
0
70
32
10
2.060000
20
6.260000
30
0
0
VERTEX
8
PFV
62
0
70
32
10
2.120000
20
6.600000
30
0
0
VERTEX
8
PFV
62
0
70
32
10
2.200000
20
6.860000
30
0
0
VERTEX
8
PFV
62
0
70
32
10
2.260000
20
6.920000
30
0
0
VERTEX
8
PFV
62
0
70
32
10
2.280000
20
7.000000
30
0
0
VERTEX
8
PFV
62
0
70
32
10
2.300000
20
7.060000
30
0
0
VERTEX
8
PFV
62
0
70
32
10
2.360000
20
7.060000
30
0
0
VERTEX
8
PFV
62
0
70
32
10
2.440000
20
6.940000
30
0
0
VERTEX
8
PFV
62
0
70
32
10
2.580000
20
6.780000
30
0
0
VERTEX
8
PFV
62
0
70
32
10
2.500000
20
6.500000
30
0
0
VERTEX
8
PFV
62
0
70
32
10
2.460000
20
6.360000
30
0
0
VERTEX
8
PFV
62
0
70
32
10
2.560000
20
5.880000
30
0
0
VERTEX
8
PFV
62
0
70
32
10
2.580000
20
5.880000
30
0
0
VERTEX
8
PFV
62
0
70
32
10
2.720000
20
5.800000
30
0
0
VERTEX
8
PFV
62
0
70
32
10
2.800000
20
5.800000
30
0
0
VERTEX
8
PFV
62
0
70
32
10
2.820000
20
5.760000
30
0
0
VERTEX
8
PFV
62
0
70
32
10
2.880000
20
5.760000
30
0
0
SEQEND
0
POLYLINE
8
PFV
62
0
66
1
70
8
0
VERTEX
8
PFV
62
0
70
32
10
7.340000
20
5.560000
30
0
0
VERTEX
8
PFV
62
0
70
32
10
7.360000
20
5.560000
30
0
0
SEQEND
0
POLYLINE
8
PFV
62
0
66
1
70
8
0
VERTEX
8
PFV
62
0
70
32
10
7.340000
20
5.560000
30
0
0
VERTEX
8
PFV
62
0
70
32
10
7.320000
20
5.580000
30
0
0
VERTEX
8
PFV
62
0
70
32
10
7.320000
20
5.600000
30
0
0
SEQEND
0
POLYLINE
8
PFV
62
0
66
1
70
8
0
VERTEX
8
PFV
62
0
70
32
10
7.820000
20
5.640000
30
0
0
VERTEX
8
PFV
62
0
70
32
10
7.800000
20
5.820000
30
0
0
VERTEX
8
PFV
62
0
70
32
10
7.680000
20
5.820000
30
0
0
VERTEX
8
PFV
62
0
70
32
10
7.640000
20
5.880000
30
0
0
SEQEND
0
POLYLINE
8
PFV
62
0
66
1
70
8
0
VERTEX
8
PFV
62
0
70
32
10
6.620000
20
5.660000
30
0
0
VERTEX
8
PFV
62
0
70
32
10
6.660000
20
5.660000
30
0
0
VERTEX
8
PFV
62
0
70
32
10
6.680000
20
5.680000
30
0
0
VERTEX
8
PFV
62
0
70
32
10
6.740000
20
5.680000
30
0
0
VERTEX
8
PFV
62
0
70
32
10
6.740000
20
5.720000
30
0
0
VERTEX
8
PFV
62
0
70
32
10
6.840000
20
5.720000
30
0
0
SEQEND
0
POLYLINE
8
PFV
62
0
66
1
70
8
0
VERTEX
8
PFV
62
0
70
32
10
6.620000
20
5.660000
30
0
0
VERTEX
8
PFV
62
0
70
32
10
6.600000
20
5.680000
30
0
0
SEQEND
0
POLYLINE
8
PFV
62
0
66
1
70
8
0
VERTEX
8
PFV
62
0
70
32
10
8.000000
20
5.660000
30
0
0
VERTEX
8
PFV
62
0
70
32
10
8.100000
20
5.700000
30
0
0
VERTEX
8
PFV
62
0
70
32
10
8.160000
20
5.660000
30
0
0
VERTEX
8
PFV
62
0
70
32
10
8.100000
20
5.660000
30
0
0
VERTEX
8
PFV
62
0
70
32
10
8.100000
20
5.680000
30
0
0
SEQEND
0
POLYLINE
8
PFV
62
0
66
1
70
8
0
VERTEX
8
PFV
62
0
70
32
10
8.000000
20
5.660000
30
0
0
VERTEX
8
PFV
62
0
70
32
10
8.000000
20
5.640000
30
0
0
SEQEND
0
POLYLINE
8
PFV
62
0
66
1
70
8
0
VERTEX
8
PFV
62
0
70
32
10
6.840000
20
5.720000
30
0
0
VERTEX
8
PFV
62
0
70
32
10
6.860000
20
5.700000
30
0
0
SEQEND
0
POLYLINE
8
PFV
62
0
66
1
70
8
0
VERTEX
8
PFV
62
0
70
32
10
7.440000
20
5.720000
30
0
0
VERTEX
8
PFV
62
0
70
32
10
7.440000
20
5.740000
30
0
0
VERTEX
8
PFV
62
0
70
32
10
7.460000
20
5.720000
30
0
0
VERTEX
8
PFV
62
0
70
32
10
7.460000
20
5.680000
30
0
0
VERTEX
8
PFV
62
0
70
32
10
7.420000
20
5.680000
30
0
0
VERTEX
8
PFV
62
0
70
32
10
7.420000
20
5.720000
30
0
0
VERTEX
8
PFV
62
0
70
32
10
7.440000
20
5.720000
30
0
0
SEQEND
0
POLYLINE
8
PFV
62
0
66
1
70
8
0
VERTEX
8
PFV
62
0
70
32
10
7.820000
20
5.800000
30
0
0
VERTEX
8
PFV
62
0
70
32
10
7.860000
20
5.820000
30
0
0
VERTEX
8
PFV
62
0
70
32
10
7.880000
20
5.960000
30
0
0
VERTEX
8
PFV
62
0
70
32
10
7.880000
20
6.040000
30
0
0
VERTEX
8
PFV
62
0
70
32
10
7.800000
20
6.040000
30
0
0
VERTEX
8
PFV
62
0
70
32
10
7.800000
20
6.080000
30
0
0
VERTEX
8
PFV
62
0
70
32
10
7.840000
20
6.080000
30
0
0
VERTEX
8
PFV
62
0
70
32
10
7.840000
20
6.040000
30
0
0
SEQEND
0
POLYLINE
8
PFV
62
0
66
1
70
8
0
VERTEX
8
PFV
62
0
70
32
10
7.820000
20
5.800000
30
0
0
VERTEX
8
PFV
62
0
70
32
10
7.800000
20
5.800000
30
0
0
SEQEND
0
POLYLINE
8
PFV
62
0
66
1
70
8
0
VERTEX
8
PFV
62
0
70
32
10
7.720000
20
5.820000
30
0
0
VERTEX
8
PFV
62
0
70
32
10
7.720000
20
5.860000
30
0
0
VERTEX
8
PFV
62
0
70
32
10
7.760000
20
5.860000
30
0
0
VERTEX
8
PFV
62
0
70
32
10
7.760000
20
5.820000
30
0
0
SEQEND
0
POLYLINE
8
PFV
62
0
66
1
70
8
0
VERTEX
8
PFV
62
0
70
32
10
7.720000
20
5.820000
30
0
0
VERTEX
8
PFV
62
0
70
32
10
7.720000
20
5.800000
30
0
0
SEQEND
0
POLYLINE
8
PFV
62
0
66
1
70
8
0
VERTEX
8
PFV
62
0
70
32
10
6.920000
20
5.840000
30
0
0
VERTEX
8
PFV
62
0
70
32
10
6.960000
20
5.940000
30
0
0
VERTEX
8
PFV
62
0
70
32
10
7.000000
20
5.960000
30
0
0
SEQEND
0
POLYLINE
8
PFV
62
0
66
1
70
8
0
VERTEX
8
PFV
62
0
70
32
10
6.920000
20
5.840000
30
0
0
VERTEX
8
PFV
62
0
70
32
10
6.940000
20
5.820000
30
0
0
SEQEND
0
POLYLINE
8
PFV
62
0
66
1
70
8
0
VERTEX
8
PFV
62
0
70
32
10
8.920000
20
5.840000
30
0
0
VERTEX
8
PFV
62
0
70
32
10
9.100000
20
5.980000
30
0
0
VERTEX
8
PFV
62
0
70
32
10
9.100000
20
6.020000
30
0
0
SEQEND
0
POLYLINE
8
PFV
62
0
66
1
70
8
0
VERTEX
8
PFV
62
0
70
32
10
2.780000
20
5.860000
30
0
0
VERTEX
8
PFV
62
0
70
32
10
2.820000
20
5.860000
30
0
0
VERTEX
8
PFV
62
0
70
32
10
2.820000
20
5.820000
30
0
0
VERTEX
8
PFV
62
0
70
32
10
2.780000
20
5.820000
30
0
0
VERTEX
8
PFV
62
0
70
32
10
2.780000
20
5.940000
30
0
0
VERTEX
8
PFV
62
0
70
32
10
2.760000
20
6.000000
30
0
0
VERTEX
8
PFV
62
0
70
32
10
2.720000
20
6.000000
30
0
0
VERTEX
8
PFV
62
0
70
32
10
2.780000
20
5.860000
30
0
0
SEQEND
0
POLYLINE
8
PFV
62
0
66
1
70
8
0
VERTEX
8
PFV
62
0
70
32
10
2.760000
20
5.900000
30
0
0
VERTEX
8
PFV
62
0
70
32
10
2.780000
20
5.900000
30
0
0
SEQEND
0
POLYLINE
8
PFV
62
0
66
1
70
8
0
VERTEX
8
PFV
62
0
70
32
10
2.780000
20
5.900000
30
0
0
VERTEX
8
PFV
62
0
70
32
10
2.760000
20
5.900000
30
0
0
SEQEND
0
POLYLINE
8
PFV
62
0
66
1
70
8
0
VERTEX
8
PFV
62
0
70
32
10
2.080000
20
5.980000
30
0
0
VERTEX
8
PFV
62
0
70
32
10
2.000000
20
5.980000
30
0
0
SEQEND
0
POLYLINE
8
PFV
62
0
66
1
70
8
0
VERTEX
8
PFV
62
0
70
32
10
7.900000
20
6.000000
30
0
0
VERTEX
8
PFV
62
0
70
32
10
8.000000
20
6.040000
30
0
0
VERTEX
8
PFV
62
0
70
32
10
8.080000
20
6.120000
30
0
0
SEQEND
0
POLYLINE
8
PFV
62
0
66
1
70
8
0
VERTEX
8
PFV
62
0
70
32
10
7.900000
20
6.000000
30
0
0
VERTEX
8
PFV
62
0
70
32
10
7.880000
20
6.020000
30
0
0
SEQEND
0
POLYLINE
8
PFV
62
0
66
1
70
8
0
VERTEX
8
PFV
62
0
70
32
10
7.540000
20
6.020000
30
0
0
VERTEX
8
PFV
62
0
70
32
10
7.620000
20
6.020000
30
0
0
VERTEX
8
PFV
62
0
70
32
10
7.600000
20
6.100000
30
0
0
VERTEX
8
PFV
62
0
70
32
10
7.380000
20
6.140000
30
0
0
VERTEX
8
PFV
62
0
70
32
10
7.260000
20
6.300000
30
0
0
VERTEX
8
PFV
62
0
70
32
10
7.460000
20
6.500000
30
0
0
VERTEX
8
PFV
62
0
70
32
10
7.620000
20
6.500000
30
0
0
VERTEX
8
PFV
62
0
70
32
10
7.640000
20
6.300000
30
0
0
VERTEX
8
PFV
62
0
70
32
10
7.260000
20
6.300000
30
0
0
SEQEND
0
POLYLINE
8
PFV
62
0
66
1
70
8
0
VERTEX
8
PFV
62
0
70
32
10
7.540000
20
6.020000
30
0
0
VERTEX
8
PFV
62
0
70
32
10
7.540000
20
5.980000
30
0
0
VERTEX
8
PFV
62
0
70
32
10
7.560000
20
5.960000
30
0
0
VERTEX
8
PFV
62
0
70
32
10
7.580000
20
5.960000
30
0
0
VERTEX
8
PFV
62
0
70
32
10
7.580000
20
5.920000
30
0
0
SEQEND
0
POLYLINE
8
PFV
62
0
66
1
70
8
0
VERTEX
8
PFV
62
0
70
32
10
7.540000
20
6.020000
30
0
0
VERTEX
8
PFV
62
0
70
32
10
7.500000
20
6.020000
30
0
0
VERTEX
8
PFV
62
0
70
32
10
7.480000
20
6.040000
30
0
0
VERTEX
8
PFV
62
0
70
32
10
7.480000
20
6.060000
30
0
0
VERTEX
8
PFV
62
0
70
32
10
7.460000
20
6.080000
30
0
0
VERTEX
8
PFV
62
0
70
32
10
7.440000
20
6.080000
30
0
0
VERTEX
8
PFV
62
0
70
32
10
7.440000
20
6.120000
30
0
0
SEQEND
0
POLYLINE
8
PFV
62
0
66
1
70
8
0
VERTEX
8
PFV
62
0
70
32
10
7.080000
20
6.040000
30
0
0
VERTEX
8
PFV
62
0
70
32
10
7.140000
20
6.260000
30
0
0
VERTEX
8
PFV
62
0
70
32
10
7.160000
20
6.260000
30
0
0
SEQEND
0
POLYLINE
8
PFV
62
0
66
1
70
8
0
VERTEX
8
PFV
62
0
70
32
10
7.080000
20
6.040000
30
0
0
VERTEX
8
PFV
62
0
70
32
10
7.100000
20
6.020000
30
0
0
SEQEND
0
POLYLINE
8
PFV
62
0
66
1
70
8
0
VERTEX
8
PFV
62
0
70
32
10
2.520000
20
6.100000
30
0
0
VERTEX
8
PFV
62
0
70
32
10
2.920000
20
6.100000
30
0
0
VERTEX
8
PFV
62
0
70
32
10
3.120000
20
5.900000
30
0
0
VERTEX
8
PFV
62
0
70
32
10
3.280000
20
6.040000
30
0
0
VERTEX
8
PFV
62
0
70
32
10
3.420000
20
6.180000
30
0
0
VERTEX
8
PFV
62
0
70
32
10
3.500000
20
6.400000
30
0
0
VERTEX
8
PFV
62
0
70
32
10
3.300000
20
6.600000
30
0
0
VERTEX
8
PFV
62
0
70
32
10
3.100000
20
6.640000
30
0
0
VERTEX
8
PFV
62
0
70
32
10
3.100000
20
6.740000
30
0
0
VERTEX
8
PFV
62
0
70
32
10
3.200000
20
6.760000
30
0
0
VERTEX
8
PFV
62
0
70
32
10
3.220000
20
6.640000
30
0
0
VERTEX
8
PFV
62
0
70
32
10
3.240000
20
6.600000
30
0
0
SEQEND
0
POLYLINE
8
PFV
62
0
66
1
70
8
0
VERTEX
8
PFV
62
0
70
32
10
2.860000
20
6.100000
30
0
0
VERTEX
8
PFV
62
0
70
32
10
2.780000
20
6.260000
30
0
0
VERTEX
8
PFV
62
0
70
32
10
2.920000
20
6.400000
30
0
0
VERTEX
8
PFV
62
0
70
32
10
2.960000
20
6.400000
30
0
0
VERTEX
8
PFV
62
0
70
32
10
2.960000
20
6.440000
30
0
0
VERTEX
8
PFV
62
0
70
32
10
3.140000
20
6.460000
30
0
0
SEQEND
0
POLYLINE
8
PFV
62
0
66
1
70
8
0
VERTEX
8
PFV
62
0
70
32
10
7.580000
20
6.120000
30
0
0
VERTEX
8
PFV
62
0
70
32
10
7.620000
20
6.140000
30
0
0
VERTEX
8
PFV
62
0
70
32
10
7.600000
20
6.220000
30
0
0
VERTEX
8
PFV
62
0
70
32
10
7.540000
20
6.260000
30
0
0
SEQEND
0
POLYLINE
8
PFV
62
0
66
1
70
8
0
VERTEX
8
PFV
62
0
70
32
10
2.500000
20
6.200000
30
0
0
VERTEX
8
PFV
62
0
70
32
10
2.780000
20
6.200000
30
0
0
SEQEND
0
POLYLINE
8
PFV
62
0
66
1
70
8
0
VERTEX
8
PFV
62
0
70
32
10
2.780000
20
6.260000
30
0
0
VERTEX
8
PFV
62
0
70
32
10
2.720000
20
6.380000
30
0
0
VERTEX
8
PFV
62
0
70
32
10
2.620000
20
6.420000
30
0
0
VERTEX
8
PFV
62
0
70
32
10
2.520000
20
6.520000
30
0
0
SEQEND
0
POLYLINE
8
PFV
62
0
66
1
70
8
0
VERTEX
8
PFV
62
0
70
32
10
7.160000
20
6.260000
30
0
0
VERTEX
8
PFV
62
0
70
32
10
7.180000
20
6.260000
30
0
0
SEQEND
0
POLYLINE
8
PFV
62
0
66
1
70
8
0
VERTEX
8
PFV
62
0
70
32
10
7.160000
20
6.300000
30
0
0
VERTEX
8
PFV
62
0
70
32
10
7.260000
20
6.300000
30
0
0
SEQEND
0
POLYLINE
8
PFV
62
0
66
1
70
8
0
VERTEX
8
PFV
62
0
70
32
10
8.800000
20
6.380000
30
0
0
VERTEX
8
PFV
62
0
70
32
10
8.820000
20
6.380000
30
0
0
VERTEX
8
PFV
62
0
70
32
10
8.840000
20
6.400000
30
0
0
VERTEX
8
PFV
62
0
70
32
10
8.860000
20
6.420000
30
0
0
VERTEX
8
PFV
62
0
70
32
10
8.880000
20
6.440000
30
0
0
VERTEX
8
PFV
62
0
70
32
10
8.900000
20
6.460000
30
0
0
SEQEND
0
POLYLINE
8
PFV
62
0
66
1
70
8
0
VERTEX
8
PFV
62
0
70
32
10
8.800000
20
6.380000
30
0
0
VERTEX
8
PFV
62
0
70
32
10
8.780000
20
6.380000
30
0
0
SEQEND
0
POLYLINE
8
PFV
62
0
66
1
70
8
0
VERTEX
8
PFV
62
0
70
32
10
3.500000
20
6.400000
30
0
0
VERTEX
8
PFV
62
0
70
32
10
3.560000
20
6.420000
30
0
0
VERTEX
8
PFV
62
0
70
32
10
3.680000
20
6.960000
30
0
0
VERTEX
8
PFV
62
0
70
32
10
3.780000
20
7.100000
30
0
0
SEQEND
0
POLYLINE
8
PFV
62
0
66
1
70
8
0
VERTEX
8
PFV
62
0
70
32
10
3.500000
20
6.400000
30
0
0
VERTEX
8
PFV
62
0
70
32
10
3.480000
20
6.400000
30
0
0
SEQEND
0
POLYLINE
8
PFV
62
0
66
1
70
8
0
VERTEX
8
PFV
62
0
70
32
10
7.620000
20
6.500000
30
0
0
VERTEX
8
PFV
62
0
70
32
10
7.640000
20
6.680000
30
0
0
VERTEX
8
PFV
62
0
70
32
10
7.740000
20
6.860000
30
0
0
VERTEX
8
PFV
62
0
70
32
10
7.780000
20
6.860000
30
0
0
VERTEX
8
PFV
62
0
70
32
10
7.780000
20
6.700000
30
0
0
VERTEX
8
PFV
62
0
70
32
10
7.800000
20
6.700000
30
0
0
VERTEX
8
PFV
62
0
70
32
10
7.840000
20
6.640000
30
0
0
VERTEX
8
PFV
62
0
70
32
10
7.940000
20
6.640000
30
0
0
VERTEX
8
PFV
62
0
70
32
10
7.960000
20
6.620000
30
0
0
VERTEX
8
PFV
62
0
70
32
10
7.960000
20
6.640000
30
0
0
SEQEND
0
POLYLINE
8
PFV
62
0
66
1
70
8
0
VERTEX
8
PFV
62
0
70
32
10
7.620000
20
6.500000
30
0
0
VERTEX
8
PFV
62
0
70
32
10
7.620000
20
6.480000
30
0
0
SEQEND
0
POLYLINE
8
PFV
62
0
66
1
70
8
0
VERTEX
8
PFV
62
0
70
32
10
4.620000
20
6.520000
30
0
0
VERTEX
8
PFV
62
0
70
32
10
4.640000
20
6.520000
30
0
0
VERTEX
8
PFV
62
0
70
32
10
4.660000
20
6.540000
30
0
0
VERTEX
8
PFV
62
0
70
32
10
4.680000
20
6.560000
30
0
0
VERTEX
8
PFV
62
0
70
32
10
4.700000
20
6.580000
30
0
0
VERTEX
8
PFV
62
0
70
32
10
4.720000
20
6.600000
30
0
0
VERTEX
8
PFV
62
0
70
32
10
4.740000
20
6.620000
30
0
0
SEQEND
0
POLYLINE
8
PFV
62
0
66
1
70
8
0
VERTEX
8
PFV
62
0
70
32
10
4.620000
20
6.520000
30
0
0
VERTEX
8
PFV
62
0
70
32
10
4.600000
20
6.520000
30
0
0
SEQEND
0
POLYLINE
8
PFV
62
0
66
1
70
8
0
VERTEX
8
PFV
62
0
70
32
10
1.700000
20
6.560000
30
0
0
VERTEX
8
PFV
62
0
70
32
10
1.700000
20
6.620000
30
0
0
VERTEX
8
PFV
62
0
70
32
10
1.720000
20
6.640000
30
0
0
VERTEX
8
PFV
62
0
70
32
10
1.720000
20
6.660000
30
0
0
VERTEX
8
PFV
62
0
70
32
10
1.740000
20
6.680000
30
0
0
VERTEX
8
PFV
62
0
70
32
10
1.740000
20
6.700000
30
0
0
SEQEND
0
POLYLINE
8
PFV
62
0
66
1
70
8
0
VERTEX
8
PFV
62
0
70
32
10
1.700000
20
6.560000
30
0
0
VERTEX
8
PFV
62
0
70
32
10
1.700000
20
6.540000
30
0
0
SEQEND
0
POLYLINE
8
PFV
62
0
66
1
70
8
0
VERTEX
8
PFV
62
0
70
32
10
8.040000
20
6.560000
30
0
0
VERTEX
8
PFV
62
0
70
32
10
8.200000
20
6.700000
30
0
0
VERTEX
8
PFV
62
0
70
32
10
8.160000
20
6.900000
30
0
0
VERTEX
8
PFV
62
0
70
32
10
8.100000
20
6.960000
30
0
0
VERTEX
8
PFV
62
0
70
32
10
8.040000
20
7.100000
30
0
0
VERTEX
8
PFV
62
0
70
32
10
7.860000
20
7.140000
30
0
0
SEQEND
0
POLYLINE
8
PFV
62
0
66
1
70
8
0
VERTEX
8
PFV
62
0
70
32
10
8.040000
20
6.560000
30
0
0
VERTEX
8
PFV
62
0
70
32
10
8.020000
20
6.560000
30
0
0
SEQEND
0
POLYLINE
8
PFV
62
0
66
1
70
8
0
VERTEX
8
PFV
62
0
70
32
10
7.840000
20
6.640000
30
0
0
VERTEX
8
PFV
62
0
70
32
10
7.840000
20
6.660000
30
0
0
SEQEND
0
POLYLINE
8
PFV
62
0
66
1
70
8
0
VERTEX
8
PFV
62
0
70
32
10
7.840000
20
6.640000
30
0
0
VERTEX
8
PFV
62
0
70
32
10
7.740000
20
6.560000
30
0
0
VERTEX
8
PFV
62
0
70
32
10
7.760000
20
6.320000
30
0
0
SEQEND
0
POLYLINE
8
PFV
62
0
66
1
70
8
0
VERTEX
8
PFV
62
0
70
32
10
2.740000
20
6.660000
30
0
0
VERTEX
8
PFV
62
0
70
32
10
2.780000
20
6.660000
30
0
0
VERTEX
8
PFV
62
0
70
32
10
2.780000
20
6.620000
30
0
0
VERTEX
8
PFV
62
0
70
32
10
2.740000
20
6.620000
30
0
0
VERTEX
8
PFV
62
0
70
32
10
2.620000
20
6.780000
30
0
0
VERTEX
8
PFV
62
0
70
32
10
2.660000
20
7.060000
30
0
0
VERTEX
8
PFV
62
0
70
32
10
2.760000
20
7.100000
30
0
0
VERTEX
8
PFV
62
0
70
32
10
2.920000
20
6.920000
30
0
0
VERTEX
8
PFV
62
0
70
32
10
2.940000
20
6.660000
30
0
0
VERTEX
8
PFV
62
0
70
32
10
2.800000
20
6.700000
30
0
0
VERTEX
8
PFV
62
0
70
32
10
2.800000
20
6.740000
30
0
0
VERTEX
8
PFV
62
0
70
32
10
2.940000
20
6.740000
30
0
0
SEQEND
0
POLYLINE
8
PFV
62
0
66
1
70
8
0
VERTEX
8
PFV
62
0
70
32
10
2.740000
20
6.660000
30
0
0
VERTEX
8
PFV
62
0
70
32
10
2.720000
20
6.660000
30
0
0
SEQEND
0
POLYLINE
8
PFV
62
0
66
1
70
8
0
VERTEX
8
PFV
62
0
70
32
10
2.900000
20
6.660000
30
0
0
VERTEX
8
PFV
62
0
70
32
10
2.900000
20
6.620000
30
0
0
VERTEX
8
PFV
62
0
70
32
10
2.880000
20
6.600000
30
0
0
VERTEX
8
PFV
62
0
70
32
10
2.860000
20
6.600000
30
0
0
VERTEX
8
PFV
62
0
70
32
10
2.840000
20
6.580000
30
0
0
VERTEX
8
PFV
62
0
70
32
10
2.840000
20
6.500000
30
0
0
SEQEND
0
POLYLINE
8
PFV
62
0
66
1
70
8
0
VERTEX
8
PFV
62
0
70
32
10
8.700000
20
6.660000
30
0
0
VERTEX
8
PFV
62
0
70
32
10
8.660000
20
6.660000
30
0
0
VERTEX
8
PFV
62
0
70
32
10
8.660000
20
6.700000
30
0
0
VERTEX
8
PFV
62
0
70
32
10
8.640000
20
6.720000
30
0
0
SEQEND
0
POLYLINE
8
PFV
62
0
66
1
70
8
0
VERTEX
8
PFV
62
0
70
32
10
2.940000
20
6.700000
30
0
0
VERTEX
8
PFV
62
0
70
32
10
3.060000
20
6.700000
30
0
0
VERTEX
8
PFV
62
0
70
32
10
3.080000
20
6.680000
30
0
0
VERTEX
8
PFV
62
0
70
32
10
3.080000
20
6.700000
30
0
0
SEQEND
0
POLYLINE
8
PFV
62
0
66
1
70
8
0
VERTEX
8
PFV
62
0
70
32
10
2.680000
20
6.740000
30
0
0
VERTEX
8
PFV
62
0
70
32
10
2.800000
20
6.740000
30
0
0
SEQEND
0
POLYLINE
8
PFV
62
0
66
1
70
8
0
VERTEX
8
PFV
62
0
70
32
10
2.680000
20
6.740000
30
0
0
VERTEX
8
PFV
62
0
70
32
10
2.660000
20
6.740000
30
0
0
SEQEND
0
POLYLINE
8
PFV
62
0
66
1
70
8
0
VERTEX
8
PFV
62
0
70
32
10
7.680000
20
6.740000
30
0
0
VERTEX
8
PFV
62
0
70
32
10
7.700000
20
6.740000
30
0
0
SEQEND
0
POLYLINE
8
PFV
62
0
66
1
70
8
0
VERTEX
8
PFV
62
0
70
32
10
7.680000
20
6.740000
30
0
0
VERTEX
8
PFV
62
0
70
32
10
7.660000
20
6.740000
30
0
0
VERTEX
8
PFV
62
0
70
32
10
7.640000
20
6.760000
30
0
0
VERTEX
8
PFV
62
0
70
32
10
7.660000
20
6.780000
30
0
0
VERTEX
8
PFV
62
0
70
32
10
7.680000
20
6.800000
30
0
0
VERTEX
8
PFV
62
0
70
32
10
7.700000
20
6.800000
30
0
0
SEQEND
0
POLYLINE
8
PFV
62
0
66
1
70
8
0
VERTEX
8
PFV
62
0
70
32
10
3.200000
20
6.760000
30
0
0
VERTEX
8
PFV
62
0
70
32
10
3.200000
20
6.800000
30
0
0
VERTEX
8
PFV
62
0
70
32
10
3.220000
20
6.820000
30
0
0
VERTEX
8
PFV
62
0
70
32
10
3.220000
20
6.860000
30
0
0
VERTEX
8
PFV
62
0
70
32
10
3.240000
20
6.840000
30
0
0
VERTEX
8
PFV
62
0
70
32
10
3.320000
20
6.840000
30
0
0
VERTEX
8
PFV
62
0
70
32
10
3.320000
20
6.880000
30
0
0
SEQEND
0
POLYLINE
8
PFV
62
0
66
1
70
8
0
VERTEX
8
PFV
62
0
70
32
10
2.580000
20
6.780000
30
0
0
VERTEX
8
PFV
62
0
70
32
10
2.620000
20
6.780000
30
0
0
SEQEND
0
POLYLINE
8
PFV
62
0
66
1
70
8
0
VERTEX
8
PFV
62
0
70
32
10
2.580000
20
6.780000
30
0
0
VERTEX
8
PFV
62
0
70
32
10
2.560000
20
6.800000
30
0
0
SEQEND
0
POLYLINE
8
PFV
62
0
66
1
70
8
0
VERTEX
8
PFV
62
0
70
32
10
2.620000
20
6.780000
30
0
0
VERTEX
8
PFV
62
0
70
32
10
2.640000
20
6.780000
30
0
0
SEQEND
0
POLYLINE
8
PFV
62
0
66
1
70
8
0
VERTEX
8
PFV
62
0
70
32
10
7.760000
20
6.780000
30
0
0
VERTEX
8
PFV
62
0
70
32
10
7.880000
20
6.880000
30
0
0
SEQEND
0
POLYLINE
8
PFV
62
0
66
1
70
8
0
VERTEX
8
PFV
62
0
70
32
10
7.800000
20
6.800000
30
0
0
VERTEX
8
PFV
62
0
70
32
10
7.820000
20
6.780000
30
0
0
VERTEX
8
PFV
62
0
70
32
10
7.840000
20
6.780000
30
0
0
VERTEX
8
PFV
62
0
70
32
10
7.840000
20
6.820000
30
0
0
SEQEND
0
POLYLINE
8
PFV
62
0
66
1
70
8
0
VERTEX
8
PFV
62
0
70
32
10
7.780000
20
6.820000
30
0
0
VERTEX
8
PFV
62
0
70
32
10
7.760000
20
6.820000
30
0
0
SEQEND
0
POLYLINE
8
PFV
62
0
66
1
70
8
0
VERTEX
8
PFV
62
0
70
32
10
7.840000
20
6.820000
30
0
0
VERTEX
8
PFV
62
0
70
32
10
7.840000
20
6.840000
30
0
0
SEQEND
0
POLYLINE
8
PFV
62
0
66
1
70
8
0
VERTEX
8
PFV
62
0
70
32
10
7.740000
20
6.860000
30
0
0
VERTEX
8
PFV
62
0
70
32
10
7.740000
20
6.900000
30
0
0
VERTEX
8
PFV
62
0
70
32
10
7.620000
20
6.960000
30
0
0
VERTEX
8
PFV
62
0
70
32
10
7.580000
20
7.120000
30
0
0
SEQEND
0
POLYLINE
8
PFV
62
0
66
1
70
8
0
VERTEX
8
PFV
62
0
70
32
10
7.920000
20
6.880000
30
0
0
VERTEX
8
PFV
62
0
70
32
10
7.920000
20
6.860000
30
0
0
SEQEND
0
POLYLINE
8
PFV
62
0
66
1
70
8
0
VERTEX
8
PFV
62
0
70
32
10
7.920000
20
6.880000
30
0
0
VERTEX
8
PFV
62
0
70
32
10
7.940000
20
6.900000
30
0
0
VERTEX
8
PFV
62
0
70
32
10
7.960000
20
6.920000
30
0
0
VERTEX
8
PFV
62
0
70
32
10
7.980000
20
6.940000
30
0
0
VERTEX
8
PFV
62
0
70
32
10
8.020000
20
6.940000
30
0
0
VERTEX
8
PFV
62
0
70
32
10
8.040000
20
6.920000
30
0
0
VERTEX
8
PFV
62
0
70
32
10
8.120000
20
6.920000
30
0
0
SEQEND
0
POLYLINE
8
PFV
62
0
66
1
70
8
0
VERTEX
8
PFV
62
0
70
32
10
8.180000
20
6.880000
30
0
0
VERTEX
8
PFV
62
0
70
32
10
8.200000
20
6.880000
30
0
0
VERTEX
8
PFV
62
0
70
32
10
8.220000
20
6.900000
30
0
0
VERTEX
8
PFV
62
0
70
32
10
8.240000
20
6.920000
30
0
0
VERTEX
8
PFV
62
0
70
32
10
8.260000
20
6.940000
30
0
0
SEQEND
0
POLYLINE
8
PFV
62
0
66
1
70
8
0
VERTEX
8
PFV
62
0
70
32
10
8.180000
20
6.880000
30
0
0
VERTEX
8
PFV
62
0
70
32
10
8.160000
20
6.880000
30
0
0
SEQEND
0
POLYLINE
8
PFV
62
0
66
1
70
8
0
VERTEX
8
PFV
62
0
70
32
10
7.980000
20
6.940000
30
0
0
VERTEX
8
PFV
62
0
70
32
10
7.980000
20
6.980000
30
0
0
VERTEX
8
PFV
62
0
70
32
10
8.020000
20
6.980000
30
0
0
VERTEX
8
PFV
62
0
70
32
10
8.020000
20
6.940000
30
0
0
SEQEND
0
POLYLINE
8
PFV
62
0
66
1
70
8
0
VERTEX
8
PFV
62
0
70
32
10
8.020000
20
6.940000
30
0
0
VERTEX
8
PFV
62
0
70
32
10
8.020000
20
6.920000
30
0
0
SEQEND
0
POLYLINE
8
PFV
62
0
66
1
70
8
0
VERTEX
8
PFV
62
0
70
32
10
7.600000
20
7.000000
30
0
0
VERTEX
8
PFV
62
0
70
32
10
7.560000
20
7.000000
30
0
0
VERTEX
8
PFV
62
0
70
32
10
7.540000
20
7.020000
30
0
0
VERTEX
8
PFV
62
0
70
32
10
7.500000
20
7.020000
30
0
0
VERTEX
8
PFV
62
0
70
32
10
7.500000
20
7.040000
30
0
0
VERTEX
8
PFV
62
0
70
32
10
7.480000
20
7.060000
30
0
0
VERTEX
8
PFV
62
0
70
32
10
7.480000
20
7.100000
30
0
0
SEQEND
0
POLYLINE
8
PFV
62
0
66
1
70
8
0
VERTEX
8
PFV
62
0
70
32
10
7.120000
20
7.020000
30
0
0
VERTEX
8
PFV
62
0
70
32
10
7.320000
20
7.180000
30
0
0
VERTEX
8
PFV
62
0
70
32
10
7.300000
20
7.280000
30
0
0
VERTEX
8
PFV
62
0
70
32
10
7.280000
20
7.500000
30
0
0
VERTEX
8
PFV
62
0
70
32
10
7.320000
20
7.500000
30
0
0
VERTEX
8
PFV
62
0
70
32
10
7.320000
20
7.460000
30
0
0
VERTEX
8
PFV
62
0
70
32
10
7.280000
20
7.460000
30
0
0
SEQEND
0
POLYLINE
8
PFV
62
0
66
1
70
8
0
VERTEX
8
PFV
62
0
70
32
10
7.500000
20
7.020000
30
0
0
VERTEX
8
PFV
62
0
70
32
10
7.500000
20
6.960000
30
0
0
SEQEND
0
POLYLINE
8
PFV
62
0
66
1
70
8
0
VERTEX
8
PFV
62
0
70
32
10
7.560000
20
7.020000
30
0
0
VERTEX
8
PFV
62
0
70
32
10
7.560000
20
7.040000
30
0
0
VERTEX
8
PFV
62
0
70
32
10
7.580000
20
7.040000
30
0
0
VERTEX
8
PFV
62
0
70
32
10
7.560000
20
7.020000
30
0
0
SEQEND
0
POLYLINE
8
PFV
62
0
66
1
70
8
0
VERTEX
8
PFV
62
0
70
32
10
7.600000
20
7.040000
30
0
0
VERTEX
8
PFV
62
0
70
32
10
7.680000
20
7.060000
30
0
0
VERTEX
8
PFV
62
0
70
32
10
7.680000
20
7.100000
30
0
0
VERTEX
8
PFV
62
0
70
32
10
7.760000
20
7.140000
30
0
0
VERTEX
8
PFV
62
0
70
32
10
7.760000
20
7.160000
30
0
0
SEQEND
0
POLYLINE
8
PFV
62
0
66
1
70
8
0
VERTEX
8
PFV
62
0
70
32
10
2.340000
20
7.060000
30
0
0
VERTEX
8
PFV
62
0
70
32
10
2.340000
20
7.140000
30
0
0
VERTEX
8
PFV
62
0
70
32
10
2.500000
20
7.200000
30
0
0
VERTEX
8
PFV
62
0
70
32
10
2.620000
20
7.200000
30
0
0
VERTEX
8
PFV
62
0
70
32
10
2.700000
20
7.100000
30
0
0
SEQEND
0
POLYLINE
8
PFV
62
0
66
1
70
8
0
VERTEX
8
PFV
62
0
70
32
10
2.340000
20
7.060000
30
0
0
VERTEX
8
PFV
62
0
70
32
10
2.360000
20
7.040000
30
0
0
SEQEND
0
POLYLINE
8
PFV
62
0
66
1
70
8
0
VERTEX
8
PFV
62
0
70
32
10
7.640000
20
7.060000
30
0
0
VERTEX
8
PFV
62
0
70
32
10
7.640000
20
7.080000
30
0
0
VERTEX
8
PFV
62
0
70
32
10
7.660000
20
7.100000
30
0
0
VERTEX
8
PFV
62
0
70
32
10
7.680000
20
7.100000
30
0
0
SEQEND
0
POLYLINE
8
PFV
62
0
66
1
70
8
0
VERTEX
8
PFV
62
0
70
32
10
2.740000
20
7.100000
30
0
0
VERTEX
8
PFV
62
0
70
32
10
2.800000
20
7.220000
30
0
0
VERTEX
8
PFV
62
0
70
32
10
3.400000
20
7.380000
30
0
0
VERTEX
8
PFV
62
0
70
32
10
3.420000
20
7.300000
30
0
0
SEQEND
0
POLYLINE
8
PFV
62
0
66
1
70
8
0
VERTEX
8
PFV
62
0
70
32
10
2.740000
20
7.100000
30
0
0
VERTEX
8
PFV
62
0
70
32
10
2.760000
20
7.080000
30
0
0
SEQEND
0
POLYLINE
8
PFV
62
0
66
1
70
8
0
VERTEX
8
PFV
62
0
70
32
10
3.780000
20
7.100000
30
0
0
VERTEX
8
PFV
62
0
70
32
10
3.800000
20
7.100000
30
0
0
SEQEND
0
POLYLINE
8
PFV
62
0
66
1
70
8
0
VERTEX
8
PFV
62
0
70
32
10
7.580000
20
7.120000
30
0
0
VERTEX
8
PFV
62
0
70
32
10
7.580000
20
7.180000
30
0
0
VERTEX
8
PFV
62
0
70
32
10
7.740000
20
7.320000
30
0
0
VERTEX
8
PFV
62
0
70
32
10
7.780000
20
7.180000
30
0
0
SEQEND
0
POLYLINE
8
PFV
62
0
66
1
70
8
0
VERTEX
8
PFV
62
0
70
32
10
7.520000
20
7.140000
30
0
0
VERTEX
8
PFV
62
0
70
32
10
7.520000
20
7.120000
30
0
0
SEQEND
0
POLYLINE
8
PFV
62
0
66
1
70
8
0
VERTEX
8
PFV
62
0
70
32
10
7.860000
20
7.140000
30
0
0
VERTEX
8
PFV
62
0
70
32
10
7.840000
20
7.160000
30
0
0
SEQEND
0
POLYLINE
8
PFV
62
0
66
1
70
8
0
VERTEX
8
PFV
62
0
70
32
10
3.780000
20
7.180000
30
0
0
VERTEX
8
PFV
62
0
70
32
10
4.060000
20
7.440000
30
0
0
VERTEX
8
PFV
62
0
70
32
10
4.160000
20
7.620000
30
0
0
VERTEX
8
PFV
62
0
70
32
10
4.200000
20
7.620000
30
0
0
VERTEX
8
PFV
62
0
70
32
10
4.240000
20
7.580000
30
0
0
VERTEX
8
PFV
62
0
70
32
10
4.900000
20
7.600000
30
0
0
VERTEX
8
PFV
62
0
70
32
10
5.100000
20
7.800000
30
0
0
VERTEX
8
PFV
62
0
70
32
10
5.220000
20
7.800000
30
0
0
VERTEX
8
PFV
62
0
70
32
10
5.280000
20
7.760000
30
0
0
SEQEND
0
POLYLINE
8
PFV
62
0
66
1
70
8
0
VERTEX
8
PFV
62
0
70
32
10
3.780000
20
7.180000
30
0
0
VERTEX
8
PFV
62
0
70
32
10
3.760000
20
7.180000
30
0
0
SEQEND
0
POLYLINE
8
PFV
62
0
66
1
70
8
0
VERTEX
8
PFV
62
0
70
32
10
7.440000
20
7.180000
30
0
0
VERTEX
8
PFV
62
0
70
32
10
7.380000
20
7.200000
30
0
0
VERTEX
8
PFV
62
0
70
32
10
7.400000
20
7.260000
30
0
0
VERTEX
8
PFV
62
0
70
32
10
7.440000
20
7.260000
30
0
0
VERTEX
8
PFV
62
0
70
32
10
7.500000
20
7.240000
30
0
0
VERTEX
8
PFV
62
0
70
32
10
7.640000
20
7.360000
30
0
0
VERTEX
8
PFV
62
0
70
32
10
7.700000
20
7.360000
30
0
0
VERTEX
8
PFV
62
0
70
32
10
7.720000
20
7.320000
30
0
0
SEQEND
0
POLYLINE
8
PFV
62
0
66
1
70
8
0
VERTEX
8
PFV
62
0
70
32
10
7.320000
20
7.200000
30
0
0
VERTEX
8
PFV
62
0
70
32
10
7.380000
20
7.200000
30
0
0
SEQEND
0
POLYLINE
8
PFV
62
0
66
1
70
8
0
VERTEX
8
PFV
62
0
70
32
10
7.380000
20
7.200000
30
0
0
VERTEX
8
PFV
62
0
70
32
10
7.400000
20
7.200000
30
0
0
SEQEND
0
POLYLINE
8
PFV
62
0
66
1
70
8
0
VERTEX
8
PFV
62
0
70
32
10
7.480000
20
7.200000
30
0
0
VERTEX
8
PFV
62
0
70
32
10
7.480000
20
7.240000
30
0
0
SEQEND
0
POLYLINE
8
PFV
62
0
66
1
70
8
0
VERTEX
8
PFV
62
0
70
32
10
3.640000
20
7.220000
30
0
0
VERTEX
8
PFV
62
0
70
32
10
3.640000
20
7.240000
30
0
0
SEQEND
0
POLYLINE
8
PFV
62
0
66
1
70
8
0
VERTEX
8
PFV
62
0
70
32
10
6.960000
20
7.260000
30
0
0
VERTEX
8
PFV
62
0
70
32
10
7.080000
20
7.400000
30
0
0
VERTEX
8
PFV
62
0
70
32
10
7.160000
20
7.400000
30
0
0
VERTEX
8
PFV
62
0
70
32
10
7.200000
20
7.360000
30
0
0
VERTEX
8
PFV
62
0
70
32
10
7.280000
20
7.360000
30
0
0
SEQEND
0
POLYLINE
8
PFV
62
0
66
1
70
8
0
VERTEX
8
PFV
62
0
70
32
10
6.960000
20
7.260000
30
0
0
VERTEX
8
PFV
62
0
70
32
10
6.960000
20
7.240000
30
0
0
SEQEND
0
POLYLINE
8
PFV
62
0
66
1
70
8
0
VERTEX
8
PFV
62
0
70
32
10
7.320000
20
7.260000
30
0
0
VERTEX
8
PFV
62
0
70
32
10
7.400000
20
7.280000
30
0
0
VERTEX
8
PFV
62
0
70
32
10
7.360000
20
7.340000
30
0
0
VERTEX
8
PFV
62
0
70
32
10
7.280000
20
7.380000
30
0
0
SEQEND
0
POLYLINE
8
PFV
62
0
66
1
70
8
0
VERTEX
8
PFV
62
0
70
32
10
7.320000
20
7.260000
30
0
0
VERTEX
8
PFV
62
0
70
32
10
7.300000
20
7.260000
30
0
0
SEQEND
0
POLYLINE
8
PFV
62
0
66
1
70
8
0
VERTEX
8
PFV
62
0
70
32
10
3.200000
20
7.280000
30
0
0
VERTEX
8
PFV
62
0
70
32
10
3.200000
20
7.300000
30
0
0
VERTEX
8
PFV
62
0
70
32
10
3.220000
20
7.280000
30
0
0
VERTEX
8
PFV
62
0
70
32
10
3.220000
20
7.240000
30
0
0
VERTEX
8
PFV
62
0
70
32
10
3.180000
20
7.240000
30
0
0
VERTEX
8
PFV
62
0
70
32
10
3.180000
20
7.280000
30
0
0
VERTEX
8
PFV
62
0
70
32
10
3.200000
20
7.280000
30
0
0
SEQEND
0
POLYLINE
8
PFV
62
0
66
1
70
8
0
VERTEX
8
PFV
62
0
70
32
10
6.840000
20
7.300000
30
0
0
VERTEX
8
PFV
62
0
70
32
10
7.040000
20
7.560000
30
0
0
VERTEX
8
PFV
62
0
70
32
10
7.100000
20
7.560000
30
0
0
VERTEX
8
PFV
62
0
70
32
10
7.180000
20
7.480000
30
0
0
VERTEX
8
PFV
62
0
70
32
10
7.280000
20
7.480000
30
0
0
SEQEND
0
POLYLINE
8
PFV
62
0
66
1
70
8
0
VERTEX
8
PFV
62
0
70
32
10
7.400000
20
7.320000
30
0
0
VERTEX
8
PFV
62
0
70
32
10
7.560000
20
7.460000
30
0
0
VERTEX
8
PFV
62
0
70
32
10
7.640000
20
7.420000
30
0
0
VERTEX
8
PFV
62
0
70
32
10
7.640000
20
7.360000
30
0
0
SEQEND
0
POLYLINE
8
PFV
62
0
66
1
70
8
0
VERTEX
8
PFV
62
0
70
32
10
7.400000
20
7.320000
30
0
0
VERTEX
8
PFV
62
0
70
32
10
7.380000
20
7.320000
30
0
0
SEQEND
0
POLYLINE
8
PFV
62
0
66
1
70
8
0
VERTEX
8
PFV
62
0
70
32
10
7.720000
20
7.320000
30
0
0
VERTEX
8
PFV
62
0
70
32
10
7.740000
20
7.300000
30
0
0
SEQEND
0
POLYLINE
8
PFV
62
0
66
1
70
8
0
VERTEX
8
PFV
62
0
70
32
10
6.700000
20
7.360000
30
0
0
VERTEX
8
PFV
62
0
70
32
10
6.820000
20
7.500000
30
0
0
VERTEX
8
PFV
62
0
70
32
10
6.840000
20
7.600000
30
0
0
VERTEX
8
PFV
62
0
70
32
10
6.840000
20
7.760000
30
0
0
VERTEX
8
PFV
62
0
70
32
10
6.760000
20
7.860000
30
0
0
VERTEX
8
PFV
62
0
70
32
10
7.000000
20
7.860000
30
0
0
VERTEX
8
PFV
62
0
70
32
10
7.040000
20
7.820000
30
0
0
VERTEX
8
PFV
62
0
70
32
10
7.120000
20
7.820000
30
0
0
VERTEX
8
PFV
62
0
70
32
10
7.180000
20
7.780000
30
0
0
VERTEX
8
PFV
62
0
70
32
10
7.200000
20
7.720000
30
0
0
VERTEX
8
PFV
62
0
70
32
10
7.260000
20
7.720000
30
0
0
VERTEX
8
PFV
62
0
70
32
10
7.340000
20
7.680000
30
0
0
VERTEX
8
PFV
62
0
70
32
10
7.340000
20
7.540000
30
0
0
VERTEX
8
PFV
62
0
70
32
10
7.320000
20
7.500000
30
0
0
SEQEND
0
POLYLINE
8
PFV
62
0
66
1
70
8
0
VERTEX
8
PFV
62
0
70
32
10
6.700000
20
7.360000
30
0
0
VERTEX
8
PFV
62
0
70
32
10
6.700000
20
7.340000
30
0
0
SEQEND
0
POLYLINE
8
PFV
62
0
66
1
70
8
0
VERTEX
8
PFV
62
0
70
32
10
7.360000
20
7.360000
30
0
0
VERTEX
8
PFV
62
0
70
32
10
7.500000
20
7.520000
30
0
0
VERTEX
8
PFV
62
0
70
32
10
7.560000
20
7.460000
30
0
0
SEQEND
0
POLYLINE
8
PFV
62
0
66
1
70
8
0
VERTEX
8
PFV
62
0
70
32
10
7.360000
20
7.360000
30
0
0
VERTEX
8
PFV
62
0
70
32
10
7.380000
20
7.380000
30
0
0
SEQEND
0
POLYLINE
8
PFV
62
0
66
1
70
8
0
VERTEX
8
PFV
62
0
70
32
10
3.400000
20
7.380000
30
0
0
VERTEX
8
PFV
62
0
70
32
10
3.460000
20
7.540000
30
0
0
VERTEX
8
PFV
62
0
70
32
10
3.600000
20
7.840000
30
0
0
VERTEX
8
PFV
62
0
70
32
10
3.940000
20
7.900000
30
0
0
VERTEX
8
PFV
62
0
70
32
10
4.080000
20
7.700000
30
0
0
VERTEX
8
PFV
62
0
70
32
10
4.100000
20
7.700000
30
0
0
VERTEX
8
PFV
62
0
70
32
10
4.140000
20
7.660000
30
0
0
SEQEND
0
POLYLINE
8
PFV
62
0
66
1
70
8
0
VERTEX
8
PFV
62
0
70
32
10
6.500000
20
7.400000
30
0
0
VERTEX
8
PFV
62
0
70
32
10
6.780000
20
7.700000
30
0
0
VERTEX
8
PFV
62
0
70
32
10
6.780000
20
7.740000
30
0
0
VERTEX
8
PFV
62
0
70
32
10
6.700000
20
7.760000
30
0
0
VERTEX
8
PFV
62
0
70
32
10
6.700000
20
7.720000
30
0
0
VERTEX
8
PFV
62
0
70
32
10
6.740000
20
7.740000
30
0
0
SEQEND
0
POLYLINE
8
PFV
62
0
66
1
70
8
0
VERTEX
8
PFV
62
0
70
32
10
7.140000
20
7.400000
30
0
0
VERTEX
8
PFV
62
0
70
32
10
7.140000
20
7.460000
30
0
0
VERTEX
8
PFV
62
0
70
32
10
7.160000
20
7.480000
30
0
0
SEQEND
0
POLYLINE
8
PFV
62
0
66
1
70
8
0
VERTEX
8
PFV
62
0
70
32
10
7.140000
20
7.400000
30
0
0
VERTEX
8
PFV
62
0
70
32
10
7.160000
20
7.380000
30
0
0
SEQEND
0
POLYLINE
8
PFV
62
0
66
1
70
8
0
VERTEX
8
PFV
62
0
70
32
10
6.400000
20
7.420000
30
0
0
VERTEX
8
PFV
62
0
70
32
10
6.640000
20
7.680000
30
0
0
VERTEX
8
PFV
62
0
70
32
10
6.660000
20
7.820000
30
0
0
VERTEX
8
PFV
62
0
70
32
10
6.760000
20
7.860000
30
0
0
SEQEND
0
POLYLINE
8
PFV
62
0
66
1
70
8
0
VERTEX
8
PFV
62
0
70
32
10
6.320000
20
7.440000
30
0
0
VERTEX
8
PFV
62
0
70
32
10
6.540000
20
7.680000
30
0
0
VERTEX
8
PFV
62
0
70
32
10
6.620000
20
7.800000
30
0
0
VERTEX
8
PFV
62
0
70
32
10
6.640000
20
7.800000
30
0
0
SEQEND
0
POLYLINE
8
PFV
62
0
66
1
70
8
0
VERTEX
8
PFV
62
0
70
32
10
7.500000
20
7.520000
30
0
0
VERTEX
8
PFV
62
0
70
32
10
7.480000
20
7.540000
30
0
0
VERTEX
8
PFV
62
0
70
32
10
7.460000
20
7.540000
30
0
0
VERTEX
8
PFV
62
0
70
32
10
7.440000
20
7.560000
30
0
0
VERTEX
8
PFV
62
0
70
32
10
7.360000
20
7.560000
30
0
0
SEQEND
0
POLYLINE
8
PFV
62
0
66
1
70
8
0
VERTEX
8
PFV
62
0
70
32
10
7.040000
20
7.560000
30
0
0
VERTEX
8
PFV
62
0
70
32
10
6.940000
20
7.600000
30
0
0
VERTEX
8
PFV
62
0
70
32
10
7.000000
20
7.680000
30
0
0
VERTEX
8
PFV
62
0
70
32
10
7.000000
20
7.840000
30
0
0
SEQEND
0
POLYLINE
8
PFV
62
0
66
1
70
8
0
VERTEX
8
PFV
62
0
70
32
10
7.100000
20
7.560000
30
0
0
VERTEX
8
PFV
62
0
70
32
10
7.180000
20
7.700000
30
0
0
VERTEX
8
PFV
62
0
70
32
10
7.200000
20
7.720000
30
0
0
SEQEND
0
POLYLINE
8
PFV
62
0
66
1
70
8
0
VERTEX
8
PFV
62
0
70
32
10
7.100000
20
7.560000
30
0
0
VERTEX
8
PFV
62
0
70
32
10
7.100000
20
7.540000
30
0
0
SEQEND
0
POLYLINE
8
PFV
62
0
66
1
70
8
0
VERTEX
8
PFV
62
0
70
32
10
6.940000
20
7.600000
30
0
0
VERTEX
8
PFV
62
0
70
32
10
6.880000
20
7.600000
30
0
0
VERTEX
8
PFV
62
0
70
32
10
6.860000
20
7.620000
30
0
0
SEQEND
0
POLYLINE
8
PFV
62
0
66
1
70
8
0
VERTEX
8
PFV
62
0
70
32
10
4.200000
20
7.620000
30
0
0
VERTEX
8
PFV
62
0
70
32
10
4.360000
20
7.800000
30
0
0
VERTEX
8
PFV
62
0
70
32
10
4.340000
20
8.120000
30
0
0
VERTEX
8
PFV
62
0
70
32
10
4.060000
20
8.120000
30
0
0
VERTEX
8
PFV
62
0
70
32
10
3.940000
20
7.900000
30
0
0
SEQEND
0
POLYLINE
8
PFV
62
0
66
1
70
8
0
VERTEX
8
PFV
62
0
70
32
10
4.200000
20
7.620000
30
0
0
VERTEX
8
PFV
62
0
70
32
10
4.200000
20
7.600000
30
0
0
SEQEND
0
POLYLINE
8
PFV
62
0
66
1
70
8
0
VERTEX
8
PFV
62
0
70
32
10
5.860000
20
7.720000
30
0
0
VERTEX
8
PFV
62
0
70
32
10
6.000000
20
7.880000
30
0
0
VERTEX
8
PFV
62
0
70
32
10
6.300000
20
7.880000
30
0
0
VERTEX
8
PFV
62
0
70
32
10
6.540000
20
7.860000
30
0
0
VERTEX
8
PFV
62
0
70
32
10
6.640000
20
7.940000
30
0
0
VERTEX
8
PFV
62
0
70
32
10
6.700000
20
7.860000
30
0
0
SEQEND
0
POLYLINE
8
PFV
62
0
66
1
70
8
0
VERTEX
8
PFV
62
0
70
32
10
5.860000
20
7.720000
30
0
0
VERTEX
8
PFV
62
0
70
32
10
5.860000
20
7.700000
30
0
0
SEQEND
0
POLYLINE
8
PFV
62
0
66
1
70
8
0
VERTEX
8
PFV
62
0
70
32
10
7.200000
20
7.720000
30
0
0
VERTEX
8
PFV
62
0
70
32
10
7.200000
20
7.740000
30
0
0
SEQEND
0
POLYLINE
8
PFV
62
0
66
1
70
8
0
VERTEX
8
PFV
62
0
70
32
10
6.740000
20
7.740000
30
0
0
VERTEX
8
PFV
62
0
70
32
10
6.740000
20
7.800000
30
0
0
VERTEX
8
PFV
62
0
70
32
10
6.760000
20
7.820000
30
0
0
SEQEND
0
POLYLINE
8
PFV
62
0
66
1
70
8
0
VERTEX
8
PFV
62
0
70
32
10
5.100000
20
7.800000
30
0
0
VERTEX
8
PFV
62
0
70
32
10
4.800000
20
8.120000
30
0
0
VERTEX
8
PFV
62
0
70
32
10
4.360000
20
8.100000
30
0
0
SEQEND
0
POLYLINE
8
PFV
62
0
66
1
70
8
0
VERTEX
8
PFV
62
0
70
32
10
5.100000
20
7.800000
30
0
0
VERTEX
8
PFV
62
0
70
32
10
5.080000
20
7.820000
30
0
0
SEQEND
0
POLYLINE
8
PFV
62
0
66
1
70
8
0
VERTEX
8
PFV
62
0
70
32
10
6.040000
20
7.880000
30
0
0
VERTEX
8
PFV
62
0
70
32
10
6.260000
20
8.120000
30
0
0
VERTEX
8
PFV
62
0
70
32
10
6.300000
20
8.120000
30
0
0
VERTEX
8
PFV
62
0
70
32
10
6.540000
20
8.080000
30
0
0
VERTEX
8
PFV
62
0
70
32
10
6.580000
20
7.980000
30
0
0
VERTEX
8
PFV
62
0
70
32
10
6.600000
20
7.980000
30
0
0
VERTEX
8
PFV
62
0
70
32
10
6.620000
20
7.940000
30
0
0
SEQEND
0
POLYLINE
8
PFV
62
0
66
1
70
8
0
VERTEX
8
PFV
62
0
70
32
10
3.940000
20
7.900000
30
0
0
VERTEX
8
PFV
62
0
70
32
10
3.940000
20
7.880000
30
0
0
SEQEND
0
POLYLINE
8
PFV
62
0
66
1
70
8
0
VERTEX
8
PFV
62
0
70
32
10
4.360000
20
8.100000
30
0
0
VERTEX
8
PFV
62
0
70
32
10
4.340000
20
8.100000
30
0
0
SEQEND
0
POLYLINE
8
PFV
62
0
66
1
70
8
0
VERTEX
8
PFV
62
0
70
32
10
4.120000
20
3.380000
30
0
0
VERTEX
8
PFV
62
0
70
32
10
4.140000
20
3.380000
30
0
0
SEQEND
0
POLYLINE
8
PFV
62
0
66
1
70
8
0
VERTEX
8
PFV
62
0
70
32
10
3.540000
20
3.480000
30
0
0
VERTEX
8
PFV
62
0
70
32
10
3.560000
20
3.480000
30
0
0
SEQEND
0
POLYLINE
8
PFV
62
0
66
1
70
8
0
VERTEX
8
PFV
62
0
70
32
10
3.540000
20
3.480000
30
0
0
VERTEX
8
PFV
62
0
70
32
10
3.520000
20
3.500000
30
0
0
VERTEX
8
PFV
62
0
70
32
10
3.500000
20
3.520000
30
0
0
SEQEND
0
POLYLINE
8
PFV
62
0
66
1
70
8
0
VERTEX
8
PFV
62
0
70
32
10
3.640000
20
3.520000
30
0
0
VERTEX
8
PFV
62
0
70
32
10
3.660000
20
3.520000
30
0
0
SEQEND
0
POLYLINE
8
PFV
62
0
66
1
70
8
0
VERTEX
8
PFV
62
0
70
32
10
5.720000
20
3.620000
30
0
0
VERTEX
8
PFV
62
0
70
32
10
5.720000
20
3.680000
30
0
0
SEQEND
0
POLYLINE
8
PFV
62
0
66
1
70
8
0
VERTEX
8
PFV
62
0
70
32
10
8.160000
20
4.420000
30
0
0
VERTEX
8
PFV
62
0
70
32
10
8.160000
20
4.440000
30
0
0
SEQEND
0
POLYLINE
8
PFV
62
0
66
1
70
8
0
VERTEX
8
PFV
62
0
70
32
10
2.220000
20
4.440000
30
0
0
VERTEX
8
PFV
62
0
70
32
10
2.220000
20
4.460000
30
0
0
SEQEND
0
POLYLINE
8
PFV
62
0
66
1
70
8
0
VERTEX
8
PFV
62
0
70
32
10
2.180000
20
4.520000
30
0
0
VERTEX
8
PFV
62
0
70
32
10
2.160000
20
4.540000
30
0
0
VERTEX
8
PFV
62
0
70
32
10
2.140000
20
4.540000
30
0
0
SEQEND
0
POLYLINE
8
PFV
62
0
66
1
70
8
0
VERTEX
8
PFV
62
0
70
32
10
8.260000
20
4.540000
30
0
0
VERTEX
8
PFV
62
0
70
32
10
8.280000
20
4.540000
30
0
0
SEQEND
0
POLYLINE
8
PFV
62
0
66
1
70
8
0
VERTEX
8
PFV
62
0
70
32
10
8.480000
20
4.640000
30
0
0
VERTEX
8
PFV
62
0
70
32
10
8.480000
20
4.660000
30
0
0
SEQEND
0
POLYLINE
8
PFV
62
0
66
1
70
8
0
VERTEX
8
PFV
62
0
70
32
10
2.880000
20
4.660000
30
0
0
VERTEX
8
PFV
62
0
70
32
10
2.900000
20
4.660000
30
0
0
SEQEND
0
POLYLINE
8
PFV
62
0
66
1
70
8
0
VERTEX
8
PFV
62
0
70
32
10
8.280000
20
4.780000
30
0
0
VERTEX
8
PFV
62
0
70
32
10
8.280000
20
4.840000
30
0
0
SEQEND
0
POLYLINE
8
PFV
62
0
66
1
70
8
0
VERTEX
8
PFV
62
0
70
32
10
8.460000
20
5.160000
30
0
0
VERTEX
8
PFV
62
0
70
32
10
8.460000
20
5.180000
30
0
0
SEQEND
0
POLYLINE
8
PFV
62
0
66
1
70
8
0
VERTEX
8
PFV
62
0
70
32
10
8.500000
20
5.160000
30
0
0
VERTEX
8
PFV
62
0
70
32
10
8.500000
20
5.180000
30
0
0
SEQEND
0
POLYLINE
8
PFV
62
0
66
1
70
8
0
VERTEX
8
PFV
62
0
70
32
10
1.940000
20
5.840000
30
0
0
VERTEX
8
PFV
62
0
70
32
10
1.940000
20
5.860000
30
0
0
SEQEND
0
POLYLINE
8
PFV
62
0
66
1
70
8
0
VERTEX
8
PFV
62
0
70
32
10
2.760000
20
5.940000
30
0
0
VERTEX
8
PFV
62
0
70
32
10
2.740000
20
5.960000
30
0
0
SEQEND
0
POLYLINE
8
PFV
62
0
66
1
70
8
0
VERTEX
8
PFV
62
0
70
32
10
1.280000
20
6.160000
30
0
0
VERTEX
8
PFV
62
0
70
32
10
1.280000
20
6.180000
30
0
0
SEQEND
0
POLYLINE
8
PFV
62
0
66
1
70
8
0
VERTEX
8
PFV
62
0
70
32
10
5.640000
20
6.180000
30
0
0
VERTEX
8
PFV
62
0
70
32
10
5.660000
20
6.180000
30
0
0
VERTEX
8
PFV
62
0
70
32
10
5.680000
20
6.200000
30
0
0
VERTEX
8
PFV
62
0
70
32
10
5.700000
20
6.220000
30
0
0
VERTEX
8
PFV
62
0
70
32
10
5.720000
20
6.240000
30
0
0
VERTEX
8
PFV
62
0
70
32
10
5.740000
20
6.260000
30
0
0
VERTEX
8
PFV
62
0
70
32
10
5.760000
20
6.280000
30
0
0
SEQEND
0
POLYLINE
8
PFV
62
0
66
1
70
8
0
VERTEX
8
PFV
62
0
70
32
10
5.800000
20
6.300000
30
0
0
VERTEX
8
PFV
62
0
70
32
10
5.800000
20
6.320000
30
0
0
VERTEX
8
PFV
62
0
70
32
10
5.820000
20
6.340000
30
0
0
VERTEX
8
PFV
62
0
70
32
10
5.840000
20
6.360000
30
0
0
VERTEX
8
PFV
62
0
70
32
10
5.860000
20
6.380000
30
0
0
VERTEX
8
PFV
62
0
70
32
10
5.880000
20
6.400000
30
0
0
VERTEX
8
PFV
62
0
70
32
10
5.900000
20
6.420000
30
0
0
SEQEND
0
POLYLINE
8
PFV
62
0
66
1
70
8
0
VERTEX
8
PFV
62
0
70
32
10
5.320000
20
6.480000
30
0
0
VERTEX
8
PFV
62
0
70
32
10
5.340000
20
6.500000
30
0
0
SEQEND
0
POLYLINE
8
PFV
62
0
66
1
70
8
0
VERTEX
8
PFV
62
0
70
32
10
7.700000
20
6.580000
30
0
0
VERTEX
8
PFV
62
0
70
32
10
7.700000
20
6.620000
30
0
0
VERTEX
8
PFV
62
0
70
32
10
7.680000
20
6.640000
30
0
0
SEQEND
0
POLYLINE
8
PFV
62
0
66
1
70
8
0
VERTEX
8
PFV
62
0
70
32
10
1.880000
20
6.640000
30
0
0
VERTEX
8
PFV
62
0
70
32
10
1.880000
20
6.680000
30
0
0
SEQEND
0
POLYLINE
8
PFV
62
0
66
1
70
8
0
VERTEX
8
PFV
62
0
70
32
10
2.000000
20
6.740000
30
0
0
VERTEX
8
PFV
62
0
70
32
10
2.000000
20
6.760000
30
0
0
SEQEND
0
POLYLINE
8
PFV
62
0
66
1
70
8
0
VERTEX
8
PFV
62
0
70
32
10
3.260000
20
6.860000
30
0
0
VERTEX
8
PFV
62
0
70
32
10
3.280000
20
6.860000
30
0
0
SEQEND
0
POLYLINE
8
PFV
62
0
66
1
70
8
0
VERTEX
8
PFV
62
0
70
32
10
4.680000
20
7.180000
30
0
0
VERTEX
8
PFV
62
0
70
32
10
4.680000
20
7.200000
30
0
0
SEQEND
0
ENDSEC
0
EOF
