0
SECTION
2
HEADER
0
ENDSEC
0
SECTION
2
TABLES
0
ENDSEC
0
SECTION
2
BLOCKS
0
ENDSEC
0
SECTION
2
ENTITIES
0
POLYLINE
8
PFV
62
0
66
1
70
8
0
VERTEX
8
PFV
62
0
70
32
10
5.763636
20
0.490909
30
0
0
VERTEX
8
PFV
62
0
70
32
10
5.345455
20
0.909091
30
0
0
VERTEX
8
PFV
62
0
70
32
10
5.345455
20
0.981818
30
0
0
VERTEX
8
PFV
62
0
70
32
10
5.309091
20
0.981818
30
0
0
VERTEX
8
PFV
62
0
70
32
10
5.309091
20
0.945455
30
0
0
VERTEX
8
PFV
62
0
70
32
10
5.345455
20
0.945455
30
0
0
SEQEND
0
POLYLINE
8
PFV
62
0
66
1
70
8
0
VERTEX
8
PFV
62
0
70
32
10
5.763636
20
0.490909
30
0
0
VERTEX
8
PFV
62
0
70
32
10
6.236364
20
0.563636
30
0
0
VERTEX
8
PFV
62
0
70
32
10
6.400000
20
0.690909
30
0
0
VERTEX
8
PFV
62
0
70
32
10
6.763636
20
0.763636
30
0
0
VERTEX
8
PFV
62
0
70
32
10
7.000000
20
0.781818
30
0
0
VERTEX
8
PFV
62
0
70
32
10
7.163636
20
0.836364
30
0
0
VERTEX
8
PFV
62
0
70
32
10
7.545455
20
0.854545
30
0
0
VERTEX
8
PFV
62
0
70
32
10
7.581818
20
0.927273
30
0
0
VERTEX
8
PFV
62
0
70
32
10
6.745455
20
1.763636
30
0
0
VERTEX
8
PFV
62
0
70
32
10
6.600000
20
1.727273
30
0
0
VERTEX
8
PFV
62
0
70
32
10
6.545455
20
1.672727
30
0
0
VERTEX
8
PFV
62
0
70
32
10
6.545455
20
1.745455
30
0
0
VERTEX
8
PFV
62
0
70
32
10
6.509091
20
1.745455
30
0
0
VERTEX
8
PFV
62
0
70
32
10
6.509091
20
1.709091
30
0
0
VERTEX
8
PFV
62
0
70
32
10
6.545455
20
1.709091
30
0
0
SEQEND
0
POLYLINE
8
PFV
62
0
66
1
70
8
0
VERTEX
8
PFV
62
0
70
32
10
5.763636
20
0.490909
30
0
0
VERTEX
8
PFV
62
0
70
32
10
4.545455
20
0.254545
30
0
0
VERTEX
8
PFV
62
0
70
32
10
3.927273
20
0.145455
30
0
0
VERTEX
8
PFV
62
0
70
32
10
3.454545
20
0.163636
30
0
0
VERTEX
8
PFV
62
0
70
32
10
1.036364
20
1.054545
30
0
0
VERTEX
8
PFV
62
0
70
32
10
0.490909
20
2.872727
30
0
0
VERTEX
8
PFV
62
0
70
32
10
0.454545
20
4.818182
30
0
0
VERTEX
8
PFV
62
0
70
32
10
0.509091
20
5.145455
30
0
0
VERTEX
8
PFV
62
0
70
32
10
0.581818
20
5.254545
30
0
0
VERTEX
8
PFV
62
0
70
32
10
0.600000
20
5.963636
30
0
0
VERTEX
8
PFV
62
0
70
32
10
0.654545
20
5.963636
30
0
0
VERTEX
8
PFV
62
0
70
32
10
1.200000
20
5.400000
30
0
0
VERTEX
8
PFV
62
0
70
32
10
1.254545
20
5.400000
30
0
0
VERTEX
8
PFV
62
0
70
32
10
1.309091
20
5.363636
30
0
0
VERTEX
8
PFV
62
0
70
32
10
1.309091
20
5.418182
30
0
0
SEQEND
0
POLYLINE
8
PFV
62
0
66
1
70
8
0
VERTEX
8
PFV
62
0
70
32
10
5.763636
20
0.490909
30
0
0
VERTEX
8
PFV
62
0
70
32
10
5.745455
20
0.509091
30
0
0
SEQEND
0
POLYLINE
8
PFV
62
0
66
1
70
8
0
VERTEX
8
PFV
62
0
70
32
10
5.945455
20
0.527273
30
0
0
VERTEX
8
PFV
62
0
70
32
10
5.490909
20
1.000000
30
0
0
VERTEX
8
PFV
62
0
70
32
10
5.472727
20
1.054545
30
0
0
VERTEX
8
PFV
62
0
70
32
10
5.454545
20
1.018182
30
0
0
VERTEX
8
PFV
62
0
70
32
10
5.490909
20
1.018182
30
0
0
SEQEND
0
POLYLINE
8
PFV
62
0
66
1
70
8
0
VERTEX
8
PFV
62
0
70
32
10
5.945455
20
0.527273
30
0
0
VERTEX
8
PFV
62
0
70
32
10
5.927273
20
0.545455
30
0
0
SEQEND
0
POLYLINE
8
PFV
62
0
66
1
70
8
0
VERTEX
8
PFV
62
0
70
32
10
6.672727
20
0.745455
30
0
0
VERTEX
8
PFV
62
0
70
32
10
5.927273
20
1.490909
30
0
0
SEQEND
0
POLYLINE
8
PFV
62
0
66
1
70
8
0
VERTEX
8
PFV
62
0
70
32
10
6.672727
20
0.745455
30
0
0
VERTEX
8
PFV
62
0
70
32
10
6.654545
20
0.763636
30
0
0
SEQEND
0
POLYLINE
8
PFV
62
0
66
1
70
8
0
VERTEX
8
PFV
62
0
70
32
10
6.763636
20
0.763636
30
0
0
VERTEX
8
PFV
62
0
70
32
10
6.163636
20
1.363636
30
0
0
VERTEX
8
PFV
62
0
70
32
10
6.181818
20
1.581818
30
0
0
VERTEX
8
PFV
62
0
70
32
10
6.218182
20
1.581818
30
0
0
VERTEX
8
PFV
62
0
70
32
10
6.345455
20
1.472727
30
0
0
VERTEX
8
PFV
62
0
70
32
10
7.018182
20
0.800000
30
0
0
SEQEND
0
POLYLINE
8
PFV
62
0
66
1
70
8
0
VERTEX
8
PFV
62
0
70
32
10
6.763636
20
0.763636
30
0
0
VERTEX
8
PFV
62
0
70
32
10
6.745455
20
0.781818
30
0
0
SEQEND
0
POLYLINE
8
PFV
62
0
66
1
70
8
0
VERTEX
8
PFV
62
0
70
32
10
7.145455
20
0.836364
30
0
0
VERTEX
8
PFV
62
0
70
32
10
6.527273
20
1.472727
30
0
0
VERTEX
8
PFV
62
0
70
32
10
6.545455
20
1.618182
30
0
0
VERTEX
8
PFV
62
0
70
32
10
6.563636
20
1.672727
30
0
0
SEQEND
0
POLYLINE
8
PFV
62
0
66
1
70
8
0
VERTEX
8
PFV
62
0
70
32
10
7.145455
20
0.836364
30
0
0
VERTEX
8
PFV
62
0
70
32
10
7.127273
20
0.854545
30
0
0
SEQEND
0
POLYLINE
8
PFV
62
0
66
1
70
8
0
VERTEX
8
PFV
62
0
70
32
10
7.581818
20
0.909091
30
0
0
VERTEX
8
PFV
62
0
70
32
10
8.472727
20
0.945455
30
0
0
VERTEX
8
PFV
62
0
70
32
10
9.000000
20
1.054545
30
0
0
VERTEX
8
PFV
62
0
70
32
10
9.672727
20
2.309091
30
0
0
VERTEX
8
PFV
62
0
70
32
10
9.709091
20
2.636364
30
0
0
VERTEX
8
PFV
62
0
70
32
10
9.709091
20
4.309091
30
0
0
VERTEX
8
PFV
62
0
70
32
10
9.654545
20
4.309091
30
0
0
VERTEX
8
PFV
62
0
70
32
10
9.363636
20
4.018182
30
0
0
VERTEX
8
PFV
62
0
70
32
10
9.327273
20
4.000000
30
0
0
VERTEX
8
PFV
62
0
70
32
10
9.363636
20
3.981818
30
0
0
VERTEX
8
PFV
62
0
70
32
10
9.363636
20
4.018182
30
0
0
SEQEND
0
POLYLINE
8
PFV
62
0
66
1
70
8
0
VERTEX
8
PFV
62
0
70
32
10
7.581818
20
0.909091
30
0
0
VERTEX
8
PFV
62
0
70
32
10
7.563636
20
0.927273
30
0
0
SEQEND
0
POLYLINE
8
PFV
62
0
66
1
70
8
0
VERTEX
8
PFV
62
0
70
32
10
7.636364
20
0.927273
30
0
0
VERTEX
8
PFV
62
0
70
32
10
7.145455
20
1.418182
30
0
0
VERTEX
8
PFV
62
0
70
32
10
7.163636
20
1.600000
30
0
0
VERTEX
8
PFV
62
0
70
32
10
7.327273
20
1.763636
30
0
0
VERTEX
8
PFV
62
0
70
32
10
7.290909
20
1.963636
30
0
0
VERTEX
8
PFV
62
0
70
32
10
7.181818
20
1.963636
30
0
0
VERTEX
8
PFV
62
0
70
32
10
7.072727
20
1.781818
30
0
0
VERTEX
8
PFV
62
0
70
32
10
7.090909
20
1.618182
30
0
0
VERTEX
8
PFV
62
0
70
32
10
7.109091
20
1.618182
30
0
0
VERTEX
8
PFV
62
0
70
32
10
7.109091
20
1.600000
30
0
0
SEQEND
0
POLYLINE
8
PFV
62
0
66
1
70
8
0
VERTEX
8
PFV
62
0
70
32
10
7.636364
20
0.927273
30
0
0
VERTEX
8
PFV
62
0
70
32
10
7.618182
20
0.945455
30
0
0
SEQEND
0
POLYLINE
8
PFV
62
0
66
1
70
8
0
VERTEX
8
PFV
62
0
70
32
10
8.436364
20
0.945455
30
0
0
VERTEX
8
PFV
62
0
70
32
10
7.509091
20
1.890909
30
0
0
VERTEX
8
PFV
62
0
70
32
10
7.436364
20
1.872727
30
0
0
VERTEX
8
PFV
62
0
70
32
10
7.327273
20
1.781818
30
0
0
SEQEND
0
POLYLINE
8
PFV
62
0
66
1
70
8
0
VERTEX
8
PFV
62
0
70
32
10
8.436364
20
0.945455
30
0
0
VERTEX
8
PFV
62
0
70
32
10
8.418182
20
0.963636
30
0
0
SEQEND
0
POLYLINE
8
PFV
62
0
66
1
70
8
0
VERTEX
8
PFV
62
0
70
32
10
6.163636
20
1.472727
30
0
0
VERTEX
8
PFV
62
0
70
32
10
6.109091
20
1.490909
30
0
0
VERTEX
8
PFV
62
0
70
32
10
6.090909
20
1.563636
30
0
0
VERTEX
8
PFV
62
0
70
32
10
6.072727
20
1.527273
30
0
0
VERTEX
8
PFV
62
0
70
32
10
6.109091
20
1.527273
30
0
0
SEQEND
0
POLYLINE
8
PFV
62
0
66
1
70
8
0
VERTEX
8
PFV
62
0
70
32
10
6.254545
20
1.563636
30
0
0
VERTEX
8
PFV
62
0
70
32
10
6.254545
20
1.600000
30
0
0
VERTEX
8
PFV
62
0
70
32
10
6.218182
20
1.600000
30
0
0
VERTEX
8
PFV
62
0
70
32
10
6.218182
20
1.581818
30
0
0
SEQEND
0
POLYLINE
8
PFV
62
0
66
1
70
8
0
VERTEX
8
PFV
62
0
70
32
10
6.254545
20
1.563636
30
0
0
VERTEX
8
PFV
62
0
70
32
10
6.272727
20
1.545455
30
0
0
SEQEND
0
POLYLINE
8
PFV
62
0
66
1
70
8
0
VERTEX
8
PFV
62
0
70
32
10
6.218182
20
1.581818
30
0
0
VERTEX
8
PFV
62
0
70
32
10
6.218182
20
1.563636
30
0
0
SEQEND
0
POLYLINE
8
PFV
62
0
66
1
70
8
0
VERTEX
8
PFV
62
0
70
32
10
9.436364
20
1.890909
30
0
0
VERTEX
8
PFV
62
0
70
32
10
8.872727
20
2.436364
30
0
0
VERTEX
8
PFV
62
0
70
32
10
8.854545
20
2.509091
30
0
0
VERTEX
8
PFV
62
0
70
32
10
8.836364
20
2.472727
30
0
0
VERTEX
8
PFV
62
0
70
32
10
8.872727
20
2.472727
30
0
0
SEQEND
0
POLYLINE
8
PFV
62
0
66
1
70
8
0
VERTEX
8
PFV
62
0
70
32
10
9.436364
20
1.890909
30
0
0
VERTEX
8
PFV
62
0
70
32
10
9.418182
20
1.909091
30
0
0
SEQEND
0
POLYLINE
8
PFV
62
0
66
1
70
8
0
VERTEX
8
PFV
62
0
70
32
10
9.672727
20
2.381818
30
0
0
VERTEX
8
PFV
62
0
70
32
10
9.345455
20
2.709091
30
0
0
VERTEX
8
PFV
62
0
70
32
10
9.309091
20
2.727273
30
0
0
VERTEX
8
PFV
62
0
70
32
10
9.309091
20
2.690909
30
0
0
VERTEX
8
PFV
62
0
70
32
10
9.345455
20
2.690909
30
0
0
SEQEND
0
POLYLINE
8
PFV
62
0
66
1
70
8
0
VERTEX
8
PFV
62
0
70
32
10
9.672727
20
2.381818
30
0
0
VERTEX
8
PFV
62
0
70
32
10
9.654545
20
2.400000
30
0
0
SEQEND
0
POLYLINE
8
PFV
62
0
66
1
70
8
0
VERTEX
8
PFV
62
0
70
32
10
9.290909
20
4.145455
30
0
0
VERTEX
8
PFV
62
0
70
32
10
9.290909
20
4.109091
30
0
0
VERTEX
8
PFV
62
0
70
32
10
9.254545
20
4.109091
30
0
0
VERTEX
8
PFV
62
0
70
32
10
9.254545
20
4.145455
30
0
0
VERTEX
8
PFV
62
0
70
32
10
9.381818
20
4.236364
30
0
0
VERTEX
8
PFV
62
0
70
32
10
9.618182
20
4.472727
30
0
0
VERTEX
8
PFV
62
0
70
32
10
9.654545
20
4.472727
30
0
0
VERTEX
8
PFV
62
0
70
32
10
9.672727
20
4.327273
30
0
0
SEQEND
0
POLYLINE
8
PFV
62
0
66
1
70
8
0
VERTEX
8
PFV
62
0
70
32
10
9.163636
20
4.236364
30
0
0
VERTEX
8
PFV
62
0
70
32
10
9.400000
20
4.454545
30
0
0
VERTEX
8
PFV
62
0
70
32
10
9.490909
20
4.490909
30
0
0
VERTEX
8
PFV
62
0
70
32
10
9.618182
20
4.600000
30
0
0
VERTEX
8
PFV
62
0
70
32
10
9.636364
20
4.472727
30
0
0
SEQEND
0
POLYLINE
8
PFV
62
0
66
1
70
8
0
VERTEX
8
PFV
62
0
70
32
10
9.163636
20
4.236364
30
0
0
VERTEX
8
PFV
62
0
70
32
10
9.163636
20
4.200000
30
0
0
VERTEX
8
PFV
62
0
70
32
10
9.127273
20
4.200000
30
0
0
VERTEX
8
PFV
62
0
70
32
10
9.127273
20
4.236364
30
0
0
VERTEX
8
PFV
62
0
70
32
10
9.163636
20
4.236364
30
0
0
SEQEND
0
POLYLINE
8
PFV
62
0
66
1
70
8
0
VERTEX
8
PFV
62
0
70
32
10
9.218182
20
4.290909
30
0
0
VERTEX
8
PFV
62
0
70
32
10
9.090909
20
4.290909
30
0
0
VERTEX
8
PFV
62
0
70
32
10
9.090909
20
4.363636
30
0
0
VERTEX
8
PFV
62
0
70
32
10
9.109091
20
4.363636
30
0
0
VERTEX
8
PFV
62
0
70
32
10
9.127273
20
4.381818
30
0
0
VERTEX
8
PFV
62
0
70
32
10
9.309091
20
4.381818
30
0
0
SEQEND
0
POLYLINE
8
PFV
62
0
66
1
70
8
0
VERTEX
8
PFV
62
0
70
32
10
9.672727
20
4.327273
30
0
0
VERTEX
8
PFV
62
0
70
32
10
9.690909
20
4.309091
30
0
0
SEQEND
0
POLYLINE
8
PFV
62
0
66
1
70
8
0
VERTEX
8
PFV
62
0
70
32
10
9.400000
20
4.454545
30
0
0
VERTEX
8
PFV
62
0
70
32
10
9.127273
20
4.727273
30
0
0
VERTEX
8
PFV
62
0
70
32
10
9.127273
20
4.763636
30
0
0
SEQEND
0
POLYLINE
8
PFV
62
0
66
1
70
8
0
VERTEX
8
PFV
62
0
70
32
10
9.400000
20
4.454545
30
0
0
VERTEX
8
PFV
62
0
70
32
10
9.381818
20
4.472727
30
0
0
SEQEND
0
POLYLINE
8
PFV
62
0
66
1
70
8
0
VERTEX
8
PFV
62
0
70
32
10
9.600000
20
4.600000
30
0
0
VERTEX
8
PFV
62
0
70
32
10
9.581818
20
5.800000
30
0
0
VERTEX
8
PFV
62
0
70
32
10
9.527273
20
6.909091
30
0
0
VERTEX
8
PFV
62
0
70
32
10
9.472727
20
7.236364
30
0
0
VERTEX
8
PFV
62
0
70
32
10
9.418182
20
7.563636
30
0
0
VERTEX
8
PFV
62
0
70
32
10
9.381818
20
7.618182
30
0
0
VERTEX
8
PFV
62
0
70
32
10
9.363636
20
7.800000
30
0
0
VERTEX
8
PFV
62
0
70
32
10
9.309091
20
7.836364
30
0
0
VERTEX
8
PFV
62
0
70
32
10
9.290909
20
8.054545
30
0
0
VERTEX
8
PFV
62
0
70
32
10
9.072727
20
8.654545
30
0
0
VERTEX
8
PFV
62
0
70
32
10
8.145455
20
7.745455
30
0
0
VERTEX
8
PFV
62
0
70
32
10
8.145455
20
7.690909
30
0
0
VERTEX
8
PFV
62
0
70
32
10
8.109091
20
7.690909
30
0
0
VERTEX
8
PFV
62
0
70
32
10
8.109091
20
7.727273
30
0
0
VERTEX
8
PFV
62
0
70
32
10
8.145455
20
7.727273
30
0
0
SEQEND
0
POLYLINE
8
PFV
62
0
66
1
70
8
0
VERTEX
8
PFV
62
0
70
32
10
4.981818
20
5.418182
30
0
0
VERTEX
8
PFV
62
0
70
32
10
5.000000
20
5.400000
30
0
0
SEQEND
0
POLYLINE
8
PFV
62
0
66
1
70
8
0
VERTEX
8
PFV
62
0
70
32
10
4.981818
20
5.418182
30
0
0
VERTEX
8
PFV
62
0
70
32
10
4.963636
20
5.400000
30
0
0
VERTEX
8
PFV
62
0
70
32
10
4.963636
20
5.381818
30
0
0
VERTEX
8
PFV
62
0
70
32
10
4.945455
20
5.363636
30
0
0
VERTEX
8
PFV
62
0
70
32
10
4.927273
20
5.345455
30
0
0
VERTEX
8
PFV
62
0
70
32
10
4.909091
20
5.327273
30
0
0
SEQEND
0
POLYLINE
8
PFV
62
0
66
1
70
8
0
VERTEX
8
PFV
62
0
70
32
10
4.981818
20
5.418182
30
0
0
VERTEX
8
PFV
62
0
70
32
10
4.890909
20
5.545455
30
0
0
VERTEX
8
PFV
62
0
70
32
10
4.363636
20
5.563636
30
0
0
VERTEX
8
PFV
62
0
70
32
10
3.800000
20
5.581818
30
0
0
SEQEND
0
POLYLINE
8
PFV
62
0
66
1
70
8
0
VERTEX
8
PFV
62
0
70
32
10
5.763636
20
5.545455
30
0
0
VERTEX
8
PFV
62
0
70
32
10
5.800000
20
5.454545
30
0
0
VERTEX
8
PFV
62
0
70
32
10
5.945455
20
5.472727
30
0
0
VERTEX
8
PFV
62
0
70
32
10
5.963636
20
5.472727
30
0
0
VERTEX
8
PFV
62
0
70
32
10
5.981818
20
5.363636
30
0
0
SEQEND
0
POLYLINE
8
PFV
62
0
66
1
70
8
0
VERTEX
8
PFV
62
0
70
32
10
5.763636
20
5.545455
30
0
0
VERTEX
8
PFV
62
0
70
32
10
5.581818
20
5.690909
30
0
0
VERTEX
8
PFV
62
0
70
32
10
5.509091
20
5.800000
30
0
0
VERTEX
8
PFV
62
0
70
32
10
5.400000
20
5.872727
30
0
0
VERTEX
8
PFV
62
0
70
32
10
5.327273
20
5.981818
30
0
0
VERTEX
8
PFV
62
0
70
32
10
5.145455
20
6.127273
30
0
0
VERTEX
8
PFV
62
0
70
32
10
5.109091
20
6.181818
30
0
0
VERTEX
8
PFV
62
0
70
32
10
4.909091
20
6.400000
30
0
0
VERTEX
8
PFV
62
0
70
32
10
4.709091
20
6.600000
30
0
0
VERTEX
8
PFV
62
0
70
32
10
4.672727
20
6.654545
30
0
0
VERTEX
8
PFV
62
0
70
32
10
4.563636
20
6.745455
30
0
0
VERTEX
8
PFV
62
0
70
32
10
4.454545
20
6.890909
30
0
0
VERTEX
8
PFV
62
0
70
32
10
4.345455
20
6.981818
30
0
0
VERTEX
8
PFV
62
0
70
32
10
4.290909
20
6.981818
30
0
0
SEQEND
0
POLYLINE
8
PFV
62
0
66
1
70
8
0
VERTEX
8
PFV
62
0
70
32
10
5.763636
20
5.545455
30
0
0
VERTEX
8
PFV
62
0
70
32
10
5.781818
20
5.563636
30
0
0
VERTEX
8
PFV
62
0
70
32
10
5.800000
20
5.563636
30
0
0
VERTEX
8
PFV
62
0
70
32
10
5.818182
20
5.581818
30
0
0
SEQEND
0
POLYLINE
8
PFV
62
0
66
1
70
8
0
VERTEX
8
PFV
62
0
70
32
10
3.563636
20
5.618182
30
0
0
VERTEX
8
PFV
62
0
70
32
10
3.618182
20
5.854545
30
0
0
VERTEX
8
PFV
62
0
70
32
10
3.636364
20
5.890909
30
0
0
SEQEND
0
POLYLINE
8
PFV
62
0
66
1
70
8
0
VERTEX
8
PFV
62
0
70
32
10
3.563636
20
5.618182
30
0
0
VERTEX
8
PFV
62
0
70
32
10
3.563636
20
5.600000
30
0
0
VERTEX
8
PFV
62
0
70
32
10
3.581818
20
5.581818
30
0
0
VERTEX
8
PFV
62
0
70
32
10
3.636364
20
5.581818
30
0
0
VERTEX
8
PFV
62
0
70
32
10
3.654545
20
5.600000
30
0
0
SEQEND
0
POLYLINE
8
PFV
62
0
66
1
70
8
0
VERTEX
8
PFV
62
0
70
32
10
3.563636
20
5.618182
30
0
0
VERTEX
8
PFV
62
0
70
32
10
3.545455
20
5.618182
30
0
0
VERTEX
8
PFV
62
0
70
32
10
3.527273
20
5.600000
30
0
0
VERTEX
8
PFV
62
0
70
32
10
3.490909
20
5.600000
30
0
0
VERTEX
8
PFV
62
0
70
32
10
3.472727
20
5.581818
30
0
0
VERTEX
8
PFV
62
0
70
32
10
3.454545
20
5.581818
30
0
0
SEQEND
0
POLYLINE
8
PFV
62
0
66
1
70
8
0
VERTEX
8
PFV
62
0
70
32
10
3.563636
20
5.618182
30
0
0
VERTEX
8
PFV
62
0
70
32
10
3.581818
20
5.600000
30
0
0
SEQEND
0
POLYLINE
8
PFV
62
0
66
1
70
8
0
VERTEX
8
PFV
62
0
70
32
10
0.618182
20
5.981818
30
0
0
VERTEX
8
PFV
62
0
70
32
10
0.654545
20
7.072727
30
0
0
VERTEX
8
PFV
62
0
70
32
10
0.763636
20
7.727273
30
0
0
VERTEX
8
PFV
62
0
70
32
10
0.872727
20
8.127273
30
0
0
VERTEX
8
PFV
62
0
70
32
10
0.963636
20
8.436364
30
0
0
VERTEX
8
PFV
62
0
70
32
10
1.036364
20
8.636364
30
0
0
VERTEX
8
PFV
62
0
70
32
10
1.327273
20
8.727273
30
0
0
VERTEX
8
PFV
62
0
70
32
10
1.436364
20
8.727273
30
0
0
VERTEX
8
PFV
62
0
70
32
10
2.327273
20
7.836364
30
0
0
VERTEX
8
PFV
62
0
70
32
10
2.345455
20
7.836364
30
0
0
VERTEX
8
PFV
62
0
70
32
10
2.309091
20
7.800000
30
0
0
VERTEX
8
PFV
62
0
70
32
10
2.309091
20
7.836364
30
0
0
SEQEND
0
POLYLINE
8
PFV
62
0
66
1
70
8
0
VERTEX
8
PFV
62
0
70
32
10
0.618182
20
5.981818
30
0
0
VERTEX
8
PFV
62
0
70
32
10
0.636364
20
5.963636
30
0
0
SEQEND
0
POLYLINE
8
PFV
62
0
66
1
70
8
0
VERTEX
8
PFV
62
0
70
32
10
6.127273
20
6.109091
30
0
0
VERTEX
8
PFV
62
0
70
32
10
6.127273
20
6.145455
30
0
0
VERTEX
8
PFV
62
0
70
32
10
6.054545
20
6.200000
30
0
0
VERTEX
8
PFV
62
0
70
32
10
5.690909
20
6.563636
30
0
0
VERTEX
8
PFV
62
0
70
32
10
5.654545
20
6.618182
30
0
0
VERTEX
8
PFV
62
0
70
32
10
5.472727
20
6.781818
30
0
0
VERTEX
8
PFV
62
0
70
32
10
5.436364
20
6.836364
30
0
0
VERTEX
8
PFV
62
0
70
32
10
5.327273
20
6.945455
30
0
0
VERTEX
8
PFV
62
0
70
32
10
5.236364
20
6.909091
30
0
0
VERTEX
8
PFV
62
0
70
32
10
5.236364
20
6.854545
30
0
0
SEQEND
0
POLYLINE
8
PFV
62
0
66
1
70
8
0
VERTEX
8
PFV
62
0
70
32
10
6.127273
20
6.109091
30
0
0
VERTEX
8
PFV
62
0
70
32
10
6.345455
20
6.109091
30
0
0
VERTEX
8
PFV
62
0
70
32
10
6.363636
20
6.200000
30
0
0
VERTEX
8
PFV
62
0
70
32
10
6.454545
20
6.381818
30
0
0
VERTEX
8
PFV
62
0
70
32
10
6.400000
20
6.454545
30
0
0
SEQEND
0
POLYLINE
8
PFV
62
0
66
1
70
8
0
VERTEX
8
PFV
62
0
70
32
10
6.127273
20
6.109091
30
0
0
VERTEX
8
PFV
62
0
70
32
10
6.127273
20
6.054545
30
0
0
VERTEX
8
PFV
62
0
70
32
10
6.109091
20
6.036364
30
0
0
VERTEX
8
PFV
62
0
70
32
10
6.109091
20
6.000000
30
0
0
SEQEND
0
POLYLINE
8
PFV
62
0
66
1
70
8
0
VERTEX
8
PFV
62
0
70
32
10
6.327273
20
6.109091
30
0
0
VERTEX
8
PFV
62
0
70
32
10
6.327273
20
6.036364
30
0
0
SEQEND
0
POLYLINE
8
PFV
62
0
66
1
70
8
0
VERTEX
8
PFV
62
0
70
32
10
4.963636
20
6.145455
30
0
0
VERTEX
8
PFV
62
0
70
32
10
4.963636
20
6.163636
30
0
0
VERTEX
8
PFV
62
0
70
32
10
4.945455
20
6.181818
30
0
0
VERTEX
8
PFV
62
0
70
32
10
4.927273
20
6.200000
30
0
0
SEQEND
0
POLYLINE
8
PFV
62
0
66
1
70
8
0
VERTEX
8
PFV
62
0
70
32
10
4.963636
20
6.145455
30
0
0
VERTEX
8
PFV
62
0
70
32
10
4.981818
20
6.145455
30
0
0
VERTEX
8
PFV
62
0
70
32
10
5.018182
20
6.036364
30
0
0
VERTEX
8
PFV
62
0
70
32
10
5.054545
20
6.036364
30
0
0
VERTEX
8
PFV
62
0
70
32
10
5.072727
20
5.981818
30
0
0
SEQEND
0
POLYLINE
8
PFV
62
0
66
1
70
8
0
VERTEX
8
PFV
62
0
70
32
10
4.963636
20
6.145455
30
0
0
VERTEX
8
PFV
62
0
70
32
10
4.945455
20
6.127273
30
0
0
SEQEND
0
POLYLINE
8
PFV
62
0
66
1
70
8
0
VERTEX
8
PFV
62
0
70
32
10
6.454545
20
6.381818
30
0
0
VERTEX
8
PFV
62
0
70
32
10
6.472727
20
6.381818
30
0
0
VERTEX
8
PFV
62
0
70
32
10
6.490909
20
6.400000
30
0
0
SEQEND
0
POLYLINE
8
PFV
62
0
66
1
70
8
0
VERTEX
8
PFV
62
0
70
32
10
6.454545
20
6.381818
30
0
0
VERTEX
8
PFV
62
0
70
32
10
6.436364
20
6.381818
30
0
0
SEQEND
0
POLYLINE
8
PFV
62
0
66
1
70
8
0
VERTEX
8
PFV
62
0
70
32
10
8.981818
20
6.781818
30
0
0
VERTEX
8
PFV
62
0
70
32
10
9.454545
20
7.236364
30
0
0
SEQEND
0
POLYLINE
8
PFV
62
0
66
1
70
8
0
VERTEX
8
PFV
62
0
70
32
10
8.981818
20
6.781818
30
0
0
VERTEX
8
PFV
62
0
70
32
10
8.981818
20
6.745455
30
0
0
VERTEX
8
PFV
62
0
70
32
10
8.945455
20
6.745455
30
0
0
VERTEX
8
PFV
62
0
70
32
10
8.945455
20
6.781818
30
0
0
VERTEX
8
PFV
62
0
70
32
10
8.981818
20
6.781818
30
0
0
SEQEND
0
POLYLINE
8
PFV
62
0
66
1
70
8
0
VERTEX
8
PFV
62
0
70
32
10
2.290909
20
6.836364
30
0
0
VERTEX
8
PFV
62
0
70
32
10
2.290909
20
6.872727
30
0
0
SEQEND
0
POLYLINE
8
PFV
62
0
66
1
70
8
0
VERTEX
8
PFV
62
0
70
32
10
2.290909
20
6.836364
30
0
0
VERTEX
8
PFV
62
0
70
32
10
2.309091
20
6.836364
30
0
0
VERTEX
8
PFV
62
0
70
32
10
2.327273
20
6.854545
30
0
0
VERTEX
8
PFV
62
0
70
32
10
2.327273
20
6.890909
30
0
0
SEQEND
0
POLYLINE
8
PFV
62
0
66
1
70
8
0
VERTEX
8
PFV
62
0
70
32
10
2.290909
20
6.836364
30
0
0
VERTEX
8
PFV
62
0
70
32
10
2.163636
20
6.545455
30
0
0
VERTEX
8
PFV
62
0
70
32
10
2.145455
20
6.454545
30
0
0
VERTEX
8
PFV
62
0
70
32
10
2.109091
20
6.072727
30
0
0
VERTEX
8
PFV
62
0
70
32
10
2.181818
20
5.709091
30
0
0
VERTEX
8
PFV
62
0
70
32
10
2.218182
20
5.654545
30
0
0
VERTEX
8
PFV
62
0
70
32
10
2.236364
20
5.545455
30
0
0
VERTEX
8
PFV
62
0
70
32
10
2.327273
20
5.400000
30
0
0
VERTEX
8
PFV
62
0
70
32
10
2.345455
20
5.327273
30
0
0
VERTEX
8
PFV
62
0
70
32
10
2.363636
20
5.327273
30
0
0
VERTEX
8
PFV
62
0
70
32
10
2.472727
20
5.163636
30
0
0
VERTEX
8
PFV
62
0
70
32
10
2.636364
20
4.945455
30
0
0
VERTEX
8
PFV
62
0
70
32
10
2.654545
20
4.945455
30
0
0
VERTEX
8
PFV
62
0
70
32
10
2.909091
20
4.690909
30
0
0
VERTEX
8
PFV
62
0
70
32
10
2.927273
20
4.690909
30
0
0
VERTEX
8
PFV
62
0
70
32
10
3.272727
20
4.454545
30
0
0
VERTEX
8
PFV
62
0
70
32
10
3.327273
20
4.454545
30
0
0
VERTEX
8
PFV
62
0
70
32
10
3.418182
20
4.381818
30
0
0
VERTEX
8
PFV
62
0
70
32
10
3.472727
20
4.381818
30
0
0
VERTEX
8
PFV
62
0
70
32
10
3.745455
20
4.254545
30
0
0
VERTEX
8
PFV
62
0
70
32
10
3.800000
20
4.254545
30
0
0
VERTEX
8
PFV
62
0
70
32
10
4.054545
20
4.163636
30
0
0
VERTEX
8
PFV
62
0
70
32
10
4.109091
20
4.163636
30
0
0
VERTEX
8
PFV
62
0
70
32
10
4.381818
20
4.127273
30
0
0
SEQEND
0
POLYLINE
8
PFV
62
0
66
1
70
8
0
VERTEX
8
PFV
62
0
70
32
10
8.836364
20
7.072727
30
0
0
VERTEX
8
PFV
62
0
70
32
10
9.381818
20
7.600000
30
0
0
SEQEND
0
POLYLINE
8
PFV
62
0
66
1
70
8
0
VERTEX
8
PFV
62
0
70
32
10
8.836364
20
7.072727
30
0
0
VERTEX
8
PFV
62
0
70
32
10
8.836364
20
7.036364
30
0
0
VERTEX
8
PFV
62
0
70
32
10
8.800000
20
7.036364
30
0
0
VERTEX
8
PFV
62
0
70
32
10
8.800000
20
7.072727
30
0
0
VERTEX
8
PFV
62
0
70
32
10
8.836364
20
7.072727
30
0
0
SEQEND
0
POLYLINE
8
PFV
62
0
66
1
70
8
0
VERTEX
8
PFV
62
0
70
32
10
8.618182
20
7.181818
30
0
0
VERTEX
8
PFV
62
0
70
32
10
8.618182
20
7.218182
30
0
0
VERTEX
8
PFV
62
0
70
32
10
8.581818
20
7.200000
30
0
0
VERTEX
8
PFV
62
0
70
32
10
8.672727
20
7.181818
30
0
0
VERTEX
8
PFV
62
0
70
32
10
8.672727
20
7.145455
30
0
0
VERTEX
8
PFV
62
0
70
32
10
8.636364
20
7.145455
30
0
0
VERTEX
8
PFV
62
0
70
32
10
8.636364
20
7.181818
30
0
0
SEQEND
0
POLYLINE
8
PFV
62
0
66
1
70
8
0
VERTEX
8
PFV
62
0
70
32
10
8.672727
20
7.181818
30
0
0
VERTEX
8
PFV
62
0
70
32
10
9.309091
20
7.836364
30
0
0
SEQEND
0
POLYLINE
8
PFV
62
0
66
1
70
8
0
VERTEX
8
PFV
62
0
70
32
10
8.509091
20
7.363636
30
0
0
VERTEX
8
PFV
62
0
70
32
10
8.490909
20
7.327273
30
0
0
VERTEX
8
PFV
62
0
70
32
10
8.472727
20
7.363636
30
0
0
VERTEX
8
PFV
62
0
70
32
10
8.600000
20
7.454545
30
0
0
VERTEX
8
PFV
62
0
70
32
10
9.254545
20
8.090909
30
0
0
SEQEND
0
POLYLINE
8
PFV
62
0
66
1
70
8
0
VERTEX
8
PFV
62
0
70
32
10
9.418182
20
7.490909
30
0
0
VERTEX
8
PFV
62
0
70
32
10
8.800000
20
6.890909
30
0
0
VERTEX
8
PFV
62
0
70
32
10
8.800000
20
6.854545
30
0
0
SEQEND
0
POLYLINE
8
PFV
62
0
66
1
70
8
0
VERTEX
8
PFV
62
0
70
32
10
9.309091
20
7.836364
30
0
0
VERTEX
8
PFV
62
0
70
32
10
9.327273
20
7.836364
30
0
0
SEQEND
0
POLYLINE
8
PFV
62
0
66
1
70
8
0
VERTEX
8
PFV
62
0
70
32
10
7.709091
20
8.018182
30
0
0
VERTEX
8
PFV
62
0
70
32
10
8.490909
20
8.818182
30
0
0
VERTEX
8
PFV
62
0
70
32
10
8.600000
20
8.818182
30
0
0
VERTEX
8
PFV
62
0
70
32
10
9.054545
20
8.690909
30
0
0
VERTEX
8
PFV
62
0
70
32
10
9.054545
20
8.654545
30
0
0
SEQEND
0
POLYLINE
8
PFV
62
0
66
1
70
8
0
VERTEX
8
PFV
62
0
70
32
10
7.709091
20
8.018182
30
0
0
VERTEX
8
PFV
62
0
70
32
10
7.709091
20
7.981818
30
0
0
VERTEX
8
PFV
62
0
70
32
10
7.690909
20
7.981818
30
0
0
VERTEX
8
PFV
62
0
70
32
10
7.672727
20
8.000000
30
0
0
VERTEX
8
PFV
62
0
70
32
10
7.672727
20
8.018182
30
0
0
VERTEX
8
PFV
62
0
70
32
10
7.709091
20
8.018182
30
0
0
SEQEND
0
POLYLINE
8
PFV
62
0
66
1
70
8
0
VERTEX
8
PFV
62
0
70
32
10
7.381818
20
8.200000
30
0
0
VERTEX
8
PFV
62
0
70
32
10
7.472727
20
8.327273
30
0
0
VERTEX
8
PFV
62
0
70
32
10
8.054545
20
8.909091
30
0
0
VERTEX
8
PFV
62
0
70
32
10
8.181818
20
8.909091
30
0
0
VERTEX
8
PFV
62
0
70
32
10
8.490909
20
8.836364
30
0
0
VERTEX
8
PFV
62
0
70
32
10
8.490909
20
8.818182
30
0
0
SEQEND
0
POLYLINE
8
PFV
62
0
66
1
70
8
0
VERTEX
8
PFV
62
0
70
32
10
7.381818
20
8.200000
30
0
0
VERTEX
8
PFV
62
0
70
32
10
7.381818
20
8.163636
30
0
0
VERTEX
8
PFV
62
0
70
32
10
7.345455
20
8.163636
30
0
0
VERTEX
8
PFV
62
0
70
32
10
7.345455
20
8.200000
30
0
0
VERTEX
8
PFV
62
0
70
32
10
7.381818
20
8.200000
30
0
0
SEQEND
0
POLYLINE
8
PFV
62
0
66
1
70
8
0
VERTEX
8
PFV
62
0
70
32
10
9.054545
20
8.654545
30
0
0
VERTEX
8
PFV
62
0
70
32
10
9.072727
20
8.636364
30
0
0
SEQEND
0
POLYLINE
8
PFV
62
0
66
1
70
8
0
VERTEX
8
PFV
62
0
70
32
10
1.436364
20
8.727273
30
0
0
VERTEX
8
PFV
62
0
70
32
10
1.436364
20
8.709091
30
0
0
SEQEND
0
POLYLINE
8
PFV
62
0
66
1
70
8
0
VERTEX
8
PFV
62
0
70
32
10
1.436364
20
8.727273
30
0
0
VERTEX
8
PFV
62
0
70
32
10
1.527273
20
8.781818
30
0
0
VERTEX
8
PFV
62
0
70
32
10
2.418182
20
8.981818
30
0
0
VERTEX
8
PFV
62
0
70
32
10
2.818182
20
9.036364
30
0
0
VERTEX
8
PFV
62
0
70
32
10
3.381818
20
8.454545
30
0
0
VERTEX
8
PFV
62
0
70
32
10
3.509091
20
8.472727
30
0
0
VERTEX
8
PFV
62
0
70
32
10
3.618182
20
8.618182
30
0
0
VERTEX
8
PFV
62
0
70
32
10
3.600000
20
8.836364
30
0
0
VERTEX
8
PFV
62
0
70
32
10
3.345455
20
9.072727
30
0
0
VERTEX
8
PFV
62
0
70
32
10
3.345455
20
9.109091
30
0
0
VERTEX
8
PFV
62
0
70
32
10
3.454545
20
9.109091
30
0
0
VERTEX
8
PFV
62
0
70
32
10
3.981818
20
8.563636
30
0
0
VERTEX
8
PFV
62
0
70
32
10
4.018182
20
8.563636
30
0
0
SEQEND
0
POLYLINE
8
PFV
62
0
66
1
70
8
0
VERTEX
8
PFV
62
0
70
32
10
8.054545
20
8.909091
30
0
0
VERTEX
8
PFV
62
0
70
32
10
7.909091
20
8.963636
30
0
0
VERTEX
8
PFV
62
0
70
32
10
6.727273
20
9.127273
30
0
0
VERTEX
8
PFV
62
0
70
32
10
6.145455
20
9.163636
30
0
0
VERTEX
8
PFV
62
0
70
32
10
3.654545
20
9.145455
30
0
0
VERTEX
8
PFV
62
0
70
32
10
3.454545
20
9.109091
30
0
0
SEQEND
0
POLYLINE
8
PFV
62
0
66
1
70
8
0
VERTEX
8
PFV
62
0
70
32
10
2.818182
20
9.036364
30
0
0
VERTEX
8
PFV
62
0
70
32
10
2.818182
20
9.018182
30
0
0
SEQEND
0
POLYLINE
8
PFV
62
0
66
1
70
8
0
VERTEX
8
PFV
62
0
70
32
10
2.818182
20
9.036364
30
0
0
VERTEX
8
PFV
62
0
70
32
10
2.836364
20
9.054545
30
0
0
VERTEX
8
PFV
62
0
70
32
10
2.854545
20
9.072727
30
0
0
VERTEX
8
PFV
62
0
70
32
10
2.872727
20
9.090909
30
0
0
VERTEX
8
PFV
62
0
70
32
10
3.345455
20
9.090909
30
0
0
SEQEND
0
POLYLINE
8
PFV
62
0
66
1
70
8
0
VERTEX
8
PFV
62
0
70
32
10
3.345455
20
9.090909
30
0
0
VERTEX
8
PFV
62
0
70
32
10
3.363636
20
9.072727
30
0
0
SEQEND
0
POLYLINE
8
PFV
62
0
66
1
70
8
0
VERTEX
8
PFV
62
0
70
32
10
3.454545
20
9.109091
30
0
0
VERTEX
8
PFV
62
0
70
32
10
3.454545
20
9.090909
30
0
0
SEQEND
0
POLYLINE
8
PFV
62
0
66
1
70
8
0
VERTEX
8
PFV
62
0
70
32
10
3.654545
20
9.127273
30
0
0
VERTEX
8
PFV
62
0
70
32
10
4.163636
20
8.600000
30
0
0
VERTEX
8
PFV
62
0
70
32
10
4.218182
20
8.600000
30
0
0
VERTEX
8
PFV
62
0
70
32
10
4.200000
20
9.054545
30
0
0
VERTEX
8
PFV
62
0
70
32
10
4.127273
20
9.127273
30
0
0
SEQEND
0
POLYLINE
8
PFV
62
0
66
1
70
8
0
VERTEX
8
PFV
62
0
70
32
10
3.654545
20
9.127273
30
0
0
VERTEX
8
PFV
62
0
70
32
10
3.672727
20
9.109091
30
0
0
SEQEND
0
POLYLINE
8
PFV
62
0
66
1
70
8
0
VERTEX
8
PFV
62
0
70
32
10
2.218182
20
2.563636
30
0
0
VERTEX
8
PFV
62
0
70
32
10
2.218182
20
2.581818
30
0
0
SEQEND
0
POLYLINE
8
PFV
62
0
66
1
70
8
0
VERTEX
8
PFV
62
0
70
32
10
4.981818
20
4.109091
30
0
0
VERTEX
8
PFV
62
0
70
32
10
5.836364
20
4.163636
30
0
0
VERTEX
8
PFV
62
0
70
32
10
6.381818
20
4.272727
30
0
0
VERTEX
8
PFV
62
0
70
32
10
6.454545
20
4.290909
30
0
0
VERTEX
8
PFV
62
0
70
32
10
6.454545
20
4.327273
30
0
0
VERTEX
8
PFV
62
0
70
32
10
6.654545
20
4.381818
30
0
0
VERTEX
8
PFV
62
0
70
32
10
6.890909
20
4.490909
30
0
0
VERTEX
8
PFV
62
0
70
32
10
7.036364
20
4.563636
30
0
0
VERTEX
8
PFV
62
0
70
32
10
7.181818
20
4.636364
30
0
0
VERTEX
8
PFV
62
0
70
32
10
7.454545
20
4.836364
30
0
0
VERTEX
8
PFV
62
0
70
32
10
7.672727
20
5.036364
30
0
0
VERTEX
8
PFV
62
0
70
32
10
7.709091
20
5.036364
30
0
0
VERTEX
8
PFV
62
0
70
32
10
7.800000
20
5.163636
30
0
0
VERTEX
8
PFV
62
0
70
32
10
7.927273
20
5.290909
30
0
0
VERTEX
8
PFV
62
0
70
32
10
8.000000
20
5.454545
30
0
0
SEQEND
0
POLYLINE
8
PFV
62
0
66
1
70
8
0
VERTEX
8
PFV
62
0
70
32
10
4.981818
20
4.109091
30
0
0
VERTEX
8
PFV
62
0
70
32
10
4.963636
20
4.127273
30
0
0
VERTEX
8
PFV
62
0
70
32
10
4.909091
20
4.127273
30
0
0
VERTEX
8
PFV
62
0
70
32
10
4.890909
20
4.145455
30
0
0
VERTEX
8
PFV
62
0
70
32
10
4.763636
20
4.145455
30
0
0
SEQEND
0
POLYLINE
8
PFV
62
0
66
1
70
8
0
VERTEX
8
PFV
62
0
70
32
10
7.000000
20
4.709091
30
0
0
VERTEX
8
PFV
62
0
70
32
10
7.036364
20
4.709091
30
0
0
SEQEND
0
POLYLINE
8
PFV
62
0
66
1
70
8
0
VERTEX
8
PFV
62
0
70
32
10
1.600000
20
5.072727
30
0
0
VERTEX
8
PFV
62
0
70
32
10
1.454545
20
5.418182
30
0
0
SEQEND
0
POLYLINE
8
PFV
62
0
66
1
70
8
0
VERTEX
8
PFV
62
0
70
32
10
4.672727
20
5.327273
30
0
0
VERTEX
8
PFV
62
0
70
32
10
4.690909
20
5.327273
30
0
0
SEQEND
0
POLYLINE
8
PFV
62
0
66
1
70
8
0
VERTEX
8
PFV
62
0
70
32
10
4.363636
20
5.345455
30
0
0
VERTEX
8
PFV
62
0
70
32
10
4.418182
20
5.345455
30
0
0
SEQEND
0
POLYLINE
8
PFV
62
0
66
1
70
8
0
VERTEX
8
PFV
62
0
70
32
10
1.363636
20
5.400000
30
0
0
VERTEX
8
PFV
62
0
70
32
10
1.345455
20
5.418182
30
0
0
VERTEX
8
PFV
62
0
70
32
10
1.345455
20
5.436364
30
0
0
SEQEND
0
POLYLINE
8
PFV
62
0
66
1
70
8
0
VERTEX
8
PFV
62
0
70
32
10
5.618182
20
5.418182
30
0
0
VERTEX
8
PFV
62
0
70
32
10
5.527273
20
5.490909
30
0
0
VERTEX
8
PFV
62
0
70
32
10
5.490909
20
5.581818
30
0
0
VERTEX
8
PFV
62
0
70
32
10
5.381818
20
5.654545
30
0
0
VERTEX
8
PFV
62
0
70
32
10
5.400000
20
5.672727
30
0
0
SEQEND
0
POLYLINE
8
PFV
62
0
66
1
70
8
0
VERTEX
8
PFV
62
0
70
32
10
7.854545
20
5.563636
30
0
0
VERTEX
8
PFV
62
0
70
32
10
7.854545
20
5.581818
30
0
0
SEQEND
0
POLYLINE
8
PFV
62
0
66
1
70
8
0
VERTEX
8
PFV
62
0
70
32
10
1.290909
20
5.581818
30
0
0
VERTEX
8
PFV
62
0
70
32
10
1.290909
20
5.600000
30
0
0
SEQEND
0
POLYLINE
8
PFV
62
0
66
1
70
8
0
VERTEX
8
PFV
62
0
70
32
10
1.381818
20
5.636364
30
0
0
VERTEX
8
PFV
62
0
70
32
10
1.381818
20
5.727273
30
0
0
SEQEND
0
POLYLINE
8
PFV
62
0
66
1
70
8
0
VERTEX
8
PFV
62
0
70
32
10
5.309091
20
5.745455
30
0
0
VERTEX
8
PFV
62
0
70
32
10
5.327273
20
5.745455
30
0
0
SEQEND
0
POLYLINE
8
PFV
62
0
66
1
70
8
0
VERTEX
8
PFV
62
0
70
32
10
5.309091
20
5.745455
30
0
0
VERTEX
8
PFV
62
0
70
32
10
5.290909
20
5.763636
30
0
0
VERTEX
8
PFV
62
0
70
32
10
5.272727
20
5.781818
30
0
0
VERTEX
8
PFV
62
0
70
32
10
5.272727
20
5.800000
30
0
0
SEQEND
0
POLYLINE
8
PFV
62
0
66
1
70
8
0
VERTEX
8
PFV
62
0
70
32
10
5.200000
20
5.854545
30
0
0
VERTEX
8
PFV
62
0
70
32
10
5.200000
20
5.872727
30
0
0
VERTEX
8
PFV
62
0
70
32
10
5.181818
20
5.890909
30
0
0
VERTEX
8
PFV
62
0
70
32
10
5.163636
20
5.909091
30
0
0
VERTEX
8
PFV
62
0
70
32
10
5.145455
20
5.927273
30
0
0
SEQEND
0
POLYLINE
8
PFV
62
0
66
1
70
8
0
VERTEX
8
PFV
62
0
70
32
10
3.709091
20
5.981818
30
0
0
VERTEX
8
PFV
62
0
70
32
10
3.709091
20
6.018182
30
0
0
VERTEX
8
PFV
62
0
70
32
10
3.727273
20
6.036364
30
0
0
VERTEX
8
PFV
62
0
70
32
10
3.727273
20
6.054545
30
0
0
SEQEND
0
POLYLINE
8
PFV
62
0
66
1
70
8
0
VERTEX
8
PFV
62
0
70
32
10
5.981818
20
6.072727
30
0
0
VERTEX
8
PFV
62
0
70
32
10
6.000000
20
6.072727
30
0
0
SEQEND
0
POLYLINE
8
PFV
62
0
66
1
70
8
0
VERTEX
8
PFV
62
0
70
32
10
3.781818
20
6.127273
30
0
0
VERTEX
8
PFV
62
0
70
32
10
3.781818
20
6.163636
30
0
0
VERTEX
8
PFV
62
0
70
32
10
3.800000
20
6.163636
30
0
0
VERTEX
8
PFV
62
0
70
32
10
3.818182
20
6.181818
30
0
0
SEQEND
0
POLYLINE
8
PFV
62
0
66
1
70
8
0
VERTEX
8
PFV
62
0
70
32
10
2.600000
20
6.145455
30
0
0
VERTEX
8
PFV
62
0
70
32
10
2.600000
20
6.181818
30
0
0
SEQEND
0
POLYLINE
8
PFV
62
0
66
1
70
8
0
VERTEX
8
PFV
62
0
70
32
10
3.854545
20
6.254545
30
0
0
VERTEX
8
PFV
62
0
70
32
10
3.854545
20
6.272727
30
0
0
VERTEX
8
PFV
62
0
70
32
10
3.872727
20
6.290909
30
0
0
VERTEX
8
PFV
62
0
70
32
10
3.890909
20
6.309091
30
0
0
VERTEX
8
PFV
62
0
70
32
10
3.890909
20
6.327273
30
0
0
SEQEND
0
POLYLINE
8
PFV
62
0
66
1
70
8
0
VERTEX
8
PFV
62
0
70
32
10
6.527273
20
6.490909
30
0
0
VERTEX
8
PFV
62
0
70
32
10
6.545455
20
6.563636
30
0
0
VERTEX
8
PFV
62
0
70
32
10
6.545455
20
6.654545
30
0
0
VERTEX
8
PFV
62
0
70
32
10
6.618182
20
6.672727
30
0
0
SEQEND
0
POLYLINE
8
PFV
62
0
66
1
70
8
0
VERTEX
8
PFV
62
0
70
32
10
8.054545
20
6.509091
30
0
0
VERTEX
8
PFV
62
0
70
32
10
8.054545
20
6.545455
30
0
0
SEQEND
0
POLYLINE
8
PFV
62
0
66
1
70
8
0
VERTEX
8
PFV
62
0
70
32
10
5.436364
20
6.636364
30
0
0
VERTEX
8
PFV
62
0
70
32
10
5.436364
20
6.654545
30
0
0
VERTEX
8
PFV
62
0
70
32
10
5.418182
20
6.672727
30
0
0
VERTEX
8
PFV
62
0
70
32
10
5.418182
20
6.690909
30
0
0
SEQEND
0
POLYLINE
8
PFV
62
0
66
1
70
8
0
VERTEX
8
PFV
62
0
70
32
10
6.690909
20
6.763636
30
0
0
VERTEX
8
PFV
62
0
70
32
10
6.690909
20
6.818182
30
0
0
SEQEND
0
ENDSEC
0
EOF
