0
SECTION
2
HEADER
0
ENDSEC
0
SECTION
2
TABLES
0
ENDSEC
0
SECTION
2
BLOCKS
0
ENDSEC
0
SECTION
2
ENTITIES
0
POLYLINE
8
PFV
62
0
66
1
70
8
0
VERTEX
8
PFV
62
0
70
32
10
2.169811
20
2.792453
30
0
0
VERTEX
8
PFV
62
0
70
32
10
2.169811
20
2.811321
30
0
0
VERTEX
8
PFV
62
0
70
32
10
2.075472
20
2.811321
30
0
0
SEQEND
0
POLYLINE
8
PFV
62
0
66
1
70
8
0
VERTEX
8
PFV
62
0
70
32
10
2.169811
20
2.792453
30
0
0
VERTEX
8
PFV
62
0
70
32
10
2.490566
20
2.792453
30
0
0
SEQEND
0
POLYLINE
8
PFV
62
0
66
1
70
8
0
VERTEX
8
PFV
62
0
70
32
10
2.169811
20
2.792453
30
0
0
VERTEX
8
PFV
62
0
70
32
10
2.169811
20
2.773585
30
0
0
VERTEX
8
PFV
62
0
70
32
10
2.132075
20
2.773585
30
0
0
SEQEND
0
POLYLINE
8
PFV
62
0
66
1
70
8
0
VERTEX
8
PFV
62
0
70
32
10
1.207547
20
2.830189
30
0
0
VERTEX
8
PFV
62
0
70
32
10
1.207547
20
2.905660
30
0
0
VERTEX
8
PFV
62
0
70
32
10
1.226415
20
2.924528
30
0
0
VERTEX
8
PFV
62
0
70
32
10
1.226415
20
2.943396
30
0
0
SEQEND
0
POLYLINE
8
PFV
62
0
66
1
70
8
0
VERTEX
8
PFV
62
0
70
32
10
1.207547
20
2.830189
30
0
0
VERTEX
8
PFV
62
0
70
32
10
1.207547
20
2.792453
30
0
0
VERTEX
8
PFV
62
0
70
32
10
1.283019
20
2.792453
30
0
0
SEQEND
0
POLYLINE
8
PFV
62
0
66
1
70
8
0
VERTEX
8
PFV
62
0
70
32
10
1.207547
20
2.830189
30
0
0
VERTEX
8
PFV
62
0
70
32
10
1.150943
20
2.830189
30
0
0
SEQEND
0
POLYLINE
8
PFV
62
0
66
1
70
8
0
VERTEX
8
PFV
62
0
70
32
10
1.207547
20
2.830189
30
0
0
VERTEX
8
PFV
62
0
70
32
10
1.226415
20
2.849057
30
0
0
VERTEX
8
PFV
62
0
70
32
10
1.283019
20
2.849057
30
0
0
SEQEND
0
POLYLINE
8
PFV
62
0
66
1
70
8
0
VERTEX
8
PFV
62
0
70
32
10
1.207547
20
2.849057
30
0
0
VERTEX
8
PFV
62
0
70
32
10
1.207547
20
2.830189
30
0
0
SEQEND
0
POLYLINE
8
PFV
62
0
66
1
70
8
0
VERTEX
8
PFV
62
0
70
32
10
0.698113
20
2.886792
30
0
0
VERTEX
8
PFV
62
0
70
32
10
0.603774
20
2.905660
30
0
0
VERTEX
8
PFV
62
0
70
32
10
0.603774
20
2.981132
30
0
0
VERTEX
8
PFV
62
0
70
32
10
0.641509
20
2.981132
30
0
0
VERTEX
8
PFV
62
0
70
32
10
0.641509
20
3.226415
30
0
0
VERTEX
8
PFV
62
0
70
32
10
0.622642
20
3.264151
30
0
0
SEQEND
0
POLYLINE
8
PFV
62
0
66
1
70
8
0
VERTEX
8
PFV
62
0
70
32
10
0.698113
20
2.886792
30
0
0
VERTEX
8
PFV
62
0
70
32
10
0.716981
20
2.905660
30
0
0
VERTEX
8
PFV
62
0
70
32
10
0.773585
20
2.905660
30
0
0
VERTEX
8
PFV
62
0
70
32
10
0.792453
20
2.886792
30
0
0
VERTEX
8
PFV
62
0
70
32
10
0.811321
20
2.886792
30
0
0
VERTEX
8
PFV
62
0
70
32
10
0.811321
20
2.924528
30
0
0
VERTEX
8
PFV
62
0
70
32
10
0.773585
20
2.924528
30
0
0
SEQEND
0
POLYLINE
8
PFV
62
0
66
1
70
8
0
VERTEX
8
PFV
62
0
70
32
10
0.698113
20
2.886792
30
0
0
VERTEX
8
PFV
62
0
70
32
10
0.716981
20
2.867925
30
0
0
VERTEX
8
PFV
62
0
70
32
10
0.735849
20
2.867925
30
0
0
VERTEX
8
PFV
62
0
70
32
10
0.754717
20
2.886792
30
0
0
VERTEX
8
PFV
62
0
70
32
10
0.773585
20
2.886792
30
0
0
SEQEND
0
POLYLINE
8
PFV
62
0
66
1
70
8
0
VERTEX
8
PFV
62
0
70
32
10
0.603774
20
2.905660
30
0
0
VERTEX
8
PFV
62
0
70
32
10
0.547170
20
2.962264
30
0
0
VERTEX
8
PFV
62
0
70
32
10
0.584906
20
2.981132
30
0
0
VERTEX
8
PFV
62
0
70
32
10
0.528302
20
3.000000
30
0
0
SEQEND
0
POLYLINE
8
PFV
62
0
66
1
70
8
0
VERTEX
8
PFV
62
0
70
32
10
0.433962
20
2.943396
30
0
0
VERTEX
8
PFV
62
0
70
32
10
0.547170
20
2.943396
30
0
0
SEQEND
0
POLYLINE
8
PFV
62
0
66
1
70
8
0
VERTEX
8
PFV
62
0
70
32
10
0.433962
20
2.943396
30
0
0
VERTEX
8
PFV
62
0
70
32
10
0.433962
20
2.924528
30
0
0
VERTEX
8
PFV
62
0
70
32
10
0.415094
20
2.924528
30
0
0
VERTEX
8
PFV
62
0
70
32
10
0.396226
20
2.943396
30
0
0
VERTEX
8
PFV
62
0
70
32
10
0.396226
20
2.962264
30
0
0
VERTEX
8
PFV
62
0
70
32
10
0.415094
20
2.962264
30
0
0
VERTEX
8
PFV
62
0
70
32
10
0.433962
20
2.943396
30
0
0
SEQEND
0
POLYLINE
8
PFV
62
0
66
1
70
8
0
VERTEX
8
PFV
62
0
70
32
10
0.396226
20
2.962264
30
0
0
VERTEX
8
PFV
62
0
70
32
10
0.339623
20
2.962264
30
0
0
VERTEX
8
PFV
62
0
70
32
10
0.339623
20
2.981132
30
0
0
VERTEX
8
PFV
62
0
70
32
10
0.320755
20
3.000000
30
0
0
SEQEND
0
POLYLINE
8
PFV
62
0
66
1
70
8
0
VERTEX
8
PFV
62
0
70
32
10
0.150943
20
3.037736
30
0
0
VERTEX
8
PFV
62
0
70
32
10
0.150943
20
3.075472
30
0
0
VERTEX
8
PFV
62
0
70
32
10
0.207547
20
3.075472
30
0
0
VERTEX
8
PFV
62
0
70
32
10
0.226415
20
3.094340
30
0
0
VERTEX
8
PFV
62
0
70
32
10
0.245283
20
3.094340
30
0
0
VERTEX
8
PFV
62
0
70
32
10
0.245283
20
3.056604
30
0
0
SEQEND
0
POLYLINE
8
PFV
62
0
66
1
70
8
0
VERTEX
8
PFV
62
0
70
32
10
0.150943
20
3.037736
30
0
0
VERTEX
8
PFV
62
0
70
32
10
0.188679
20
3.037736
30
0
0
VERTEX
8
PFV
62
0
70
32
10
0.188679
20
3.075472
30
0
0
SEQEND
0
POLYLINE
8
PFV
62
0
66
1
70
8
0
VERTEX
8
PFV
62
0
70
32
10
0.150943
20
3.037736
30
0
0
VERTEX
8
PFV
62
0
70
32
10
0.132075
20
3.037736
30
0
0
VERTEX
8
PFV
62
0
70
32
10
0.132075
20
2.981132
30
0
0
VERTEX
8
PFV
62
0
70
32
10
0.018868
20
2.981132
30
0
0
SEQEND
0
POLYLINE
8
PFV
62
0
66
1
70
8
0
VERTEX
8
PFV
62
0
70
32
10
0.188679
20
3.075472
30
0
0
VERTEX
8
PFV
62
0
70
32
10
0.207547
20
3.094340
30
0
0
VERTEX
8
PFV
62
0
70
32
10
0.188679
20
3.113208
30
0
0
VERTEX
8
PFV
62
0
70
32
10
0.188679
20
3.150943
30
0
0
SEQEND
0
POLYLINE
8
PFV
62
0
66
1
70
8
0
VERTEX
8
PFV
62
0
70
32
10
7.056604
20
3.905660
30
0
0
VERTEX
8
PFV
62
0
70
32
10
7.018868
20
4.000000
30
0
0
VERTEX
8
PFV
62
0
70
32
10
6.207547
20
4.000000
30
0
0
VERTEX
8
PFV
62
0
70
32
10
5.754717
20
4.000000
30
0
0
SEQEND
0
POLYLINE
8
PFV
62
0
66
1
70
8
0
VERTEX
8
PFV
62
0
70
32
10
7.056604
20
3.905660
30
0
0
VERTEX
8
PFV
62
0
70
32
10
7.075472
20
3.905660
30
0
0
VERTEX
8
PFV
62
0
70
32
10
7.094340
20
3.886792
30
0
0
VERTEX
8
PFV
62
0
70
32
10
7.113208
20
3.886792
30
0
0
SEQEND
0
POLYLINE
8
PFV
62
0
66
1
70
8
0
VERTEX
8
PFV
62
0
70
32
10
7.056604
20
3.905660
30
0
0
VERTEX
8
PFV
62
0
70
32
10
5.886792
20
3.905660
30
0
0
SEQEND
0
POLYLINE
8
PFV
62
0
66
1
70
8
0
VERTEX
8
PFV
62
0
70
32
10
7.056604
20
3.905660
30
0
0
VERTEX
8
PFV
62
0
70
32
10
7.075472
20
3.886792
30
0
0
SEQEND
0
POLYLINE
8
PFV
62
0
66
1
70
8
0
VERTEX
8
PFV
62
0
70
32
10
7.037736
20
3.943396
30
0
0
VERTEX
8
PFV
62
0
70
32
10
6.943396
20
3.943396
30
0
0
VERTEX
8
PFV
62
0
70
32
10
6.924528
20
3.962264
30
0
0
VERTEX
8
PFV
62
0
70
32
10
6.905660
20
3.962264
30
0
0
VERTEX
8
PFV
62
0
70
32
10
6.905660
20
3.981132
30
0
0
SEQEND
0
POLYLINE
8
PFV
62
0
66
1
70
8
0
VERTEX
8
PFV
62
0
70
32
10
6.641509
20
4.000000
30
0
0
VERTEX
8
PFV
62
0
70
32
10
6.641509
20
3.981132
30
0
0
VERTEX
8
PFV
62
0
70
32
10
6.622642
20
3.962264
30
0
0
VERTEX
8
PFV
62
0
70
32
10
6.528302
20
3.962264
30
0
0
SEQEND
0
POLYLINE
8
PFV
62
0
66
1
70
8
0
VERTEX
8
PFV
62
0
70
32
10
8.773585
20
4.547170
30
0
0
VERTEX
8
PFV
62
0
70
32
10
8.660377
20
5.018868
30
0
0
VERTEX
8
PFV
62
0
70
32
10
8.584906
20
5.433962
30
0
0
VERTEX
8
PFV
62
0
70
32
10
8.490566
20
5.943396
30
0
0
SEQEND
0
POLYLINE
8
PFV
62
0
66
1
70
8
0
VERTEX
8
PFV
62
0
70
32
10
8.773585
20
4.547170
30
0
0
VERTEX
8
PFV
62
0
70
32
10
8.811321
20
4.547170
30
0
0
VERTEX
8
PFV
62
0
70
32
10
8.811321
20
4.584906
30
0
0
VERTEX
8
PFV
62
0
70
32
10
8.773585
20
4.584906
30
0
0
SEQEND
0
POLYLINE
8
PFV
62
0
66
1
70
8
0
VERTEX
8
PFV
62
0
70
32
10
8.773585
20
4.547170
30
0
0
VERTEX
8
PFV
62
0
70
32
10
8.811321
20
4.245283
30
0
0
VERTEX
8
PFV
62
0
70
32
10
8.849057
20
4.075472
30
0
0
VERTEX
8
PFV
62
0
70
32
10
8.886792
20
3.962264
30
0
0
SEQEND
0
POLYLINE
8
PFV
62
0
66
1
70
8
0
VERTEX
8
PFV
62
0
70
32
10
8.773585
20
4.584906
30
0
0
VERTEX
8
PFV
62
0
70
32
10
8.754717
20
4.584906
30
0
0
SEQEND
0
POLYLINE
8
PFV
62
0
66
1
70
8
0
VERTEX
8
PFV
62
0
70
32
10
6.962264
20
4.981132
30
0
0
VERTEX
8
PFV
62
0
70
32
10
7.000000
20
4.981132
30
0
0
VERTEX
8
PFV
62
0
70
32
10
7.000000
20
4.943396
30
0
0
VERTEX
8
PFV
62
0
70
32
10
6.962264
20
4.943396
30
0
0
VERTEX
8
PFV
62
0
70
32
10
6.924528
20
5.018868
30
0
0
VERTEX
8
PFV
62
0
70
32
10
5.905660
20
5.018868
30
0
0
VERTEX
8
PFV
62
0
70
32
10
5.339623
20
5.018868
30
0
0
VERTEX
8
PFV
62
0
70
32
10
4.981132
20
5.037736
30
0
0
SEQEND
0
POLYLINE
8
PFV
62
0
66
1
70
8
0
VERTEX
8
PFV
62
0
70
32
10
5.358491
20
5.000000
30
0
0
VERTEX
8
PFV
62
0
70
32
10
5.358491
20
5.018868
30
0
0
SEQEND
0
POLYLINE
8
PFV
62
0
66
1
70
8
0
VERTEX
8
PFV
62
0
70
32
10
5.358491
20
5.000000
30
0
0
VERTEX
8
PFV
62
0
70
32
10
5.339623
20
4.981132
30
0
0
VERTEX
8
PFV
62
0
70
32
10
5.264151
20
4.981132
30
0
0
VERTEX
8
PFV
62
0
70
32
10
5.245283
20
5.000000
30
0
0
VERTEX
8
PFV
62
0
70
32
10
5.264151
20
5.000000
30
0
0
VERTEX
8
PFV
62
0
70
32
10
5.245283
20
5.018868
30
0
0
SEQEND
0
POLYLINE
8
PFV
62
0
66
1
70
8
0
VERTEX
8
PFV
62
0
70
32
10
6.018868
20
5.000000
30
0
0
VERTEX
8
PFV
62
0
70
32
10
6.018868
20
5.075472
30
0
0
VERTEX
8
PFV
62
0
70
32
10
6.169811
20
5.075472
30
0
0
VERTEX
8
PFV
62
0
70
32
10
6.188679
20
5.056604
30
0
0
VERTEX
8
PFV
62
0
70
32
10
6.188679
20
5.018868
30
0
0
SEQEND
0
POLYLINE
8
PFV
62
0
66
1
70
8
0
VERTEX
8
PFV
62
0
70
32
10
5.037736
20
5.018868
30
0
0
VERTEX
8
PFV
62
0
70
32
10
5.037736
20
5.037736
30
0
0
SEQEND
0
POLYLINE
8
PFV
62
0
66
1
70
8
0
VERTEX
8
PFV
62
0
70
32
10
5.037736
20
5.018868
30
0
0
VERTEX
8
PFV
62
0
70
32
10
5.018868
20
4.981132
30
0
0
VERTEX
8
PFV
62
0
70
32
10
4.698113
20
5.018868
30
0
0
VERTEX
8
PFV
62
0
70
32
10
4.679245
20
4.981132
30
0
0
SEQEND
0
POLYLINE
8
PFV
62
0
66
1
70
8
0
VERTEX
8
PFV
62
0
70
32
10
6.188679
20
5.018868
30
0
0
VERTEX
8
PFV
62
0
70
32
10
6.188679
20
5.000000
30
0
0
SEQEND
0
POLYLINE
8
PFV
62
0
66
1
70
8
0
VERTEX
8
PFV
62
0
70
32
10
5.113208
20
5.037736
30
0
0
VERTEX
8
PFV
62
0
70
32
10
5.113208
20
5.075472
30
0
0
VERTEX
8
PFV
62
0
70
32
10
5.150943
20
5.075472
30
0
0
VERTEX
8
PFV
62
0
70
32
10
5.150943
20
5.037736
30
0
0
SEQEND
0
POLYLINE
8
PFV
62
0
66
1
70
8
0
VERTEX
8
PFV
62
0
70
32
10
5.113208
20
5.037736
30
0
0
VERTEX
8
PFV
62
0
70
32
10
5.113208
20
5.018868
30
0
0
SEQEND
0
POLYLINE
8
PFV
62
0
66
1
70
8
0
VERTEX
8
PFV
62
0
70
32
10
5.867925
20
5.037736
30
0
0
VERTEX
8
PFV
62
0
70
32
10
5.867925
20
5.075472
30
0
0
VERTEX
8
PFV
62
0
70
32
10
5.905660
20
5.075472
30
0
0
VERTEX
8
PFV
62
0
70
32
10
5.924528
20
5.056604
30
0
0
VERTEX
8
PFV
62
0
70
32
10
5.943396
20
5.056604
30
0
0
VERTEX
8
PFV
62
0
70
32
10
5.962264
20
5.075472
30
0
0
VERTEX
8
PFV
62
0
70
32
10
6.018868
20
5.075472
30
0
0
SEQEND
0
POLYLINE
8
PFV
62
0
66
1
70
8
0
VERTEX
8
PFV
62
0
70
32
10
5.867925
20
5.037736
30
0
0
VERTEX
8
PFV
62
0
70
32
10
5.867925
20
5.018868
30
0
0
SEQEND
0
POLYLINE
8
PFV
62
0
66
1
70
8
0
VERTEX
8
PFV
62
0
70
32
10
5.905660
20
5.037736
30
0
0
VERTEX
8
PFV
62
0
70
32
10
5.905660
20
5.056604
30
0
0
SEQEND
0
POLYLINE
8
PFV
62
0
66
1
70
8
0
VERTEX
8
PFV
62
0
70
32
10
5.905660
20
5.056604
30
0
0
VERTEX
8
PFV
62
0
70
32
10
5.905660
20
5.037736
30
0
0
SEQEND
0
POLYLINE
8
PFV
62
0
66
1
70
8
0
VERTEX
8
PFV
62
0
70
32
10
5.113208
20
5.924528
30
0
0
VERTEX
8
PFV
62
0
70
32
10
5.132075
20
5.962264
30
0
0
VERTEX
8
PFV
62
0
70
32
10
5.245283
20
5.962264
30
0
0
VERTEX
8
PFV
62
0
70
32
10
5.415094
20
5.924528
30
0
0
VERTEX
8
PFV
62
0
70
32
10
5.415094
20
6.000000
30
0
0
VERTEX
8
PFV
62
0
70
32
10
5.245283
20
5.981132
30
0
0
VERTEX
8
PFV
62
0
70
32
10
5.245283
20
5.962264
30
0
0
SEQEND
0
POLYLINE
8
PFV
62
0
66
1
70
8
0
VERTEX
8
PFV
62
0
70
32
10
5.113208
20
5.924528
30
0
0
VERTEX
8
PFV
62
0
70
32
10
5.113208
20
5.905660
30
0
0
VERTEX
8
PFV
62
0
70
32
10
5.169811
20
5.905660
30
0
0
VERTEX
8
PFV
62
0
70
32
10
5.188679
20
5.924528
30
0
0
VERTEX
8
PFV
62
0
70
32
10
5.188679
20
5.962264
30
0
0
SEQEND
0
POLYLINE
8
PFV
62
0
66
1
70
8
0
VERTEX
8
PFV
62
0
70
32
10
5.113208
20
5.924528
30
0
0
VERTEX
8
PFV
62
0
70
32
10
4.735849
20
5.924528
30
0
0
VERTEX
8
PFV
62
0
70
32
10
4.716981
20
5.943396
30
0
0
VERTEX
8
PFV
62
0
70
32
10
4.698113
20
5.943396
30
0
0
VERTEX
8
PFV
62
0
70
32
10
4.679245
20
5.924528
30
0
0
VERTEX
8
PFV
62
0
70
32
10
4.641509
20
5.924528
30
0
0
SEQEND
0
POLYLINE
8
PFV
62
0
66
1
70
8
0
VERTEX
8
PFV
62
0
70
32
10
5.735849
20
5.924528
30
0
0
VERTEX
8
PFV
62
0
70
32
10
5.716981
20
6.000000
30
0
0
VERTEX
8
PFV
62
0
70
32
10
6.037736
20
6.000000
30
0
0
VERTEX
8
PFV
62
0
70
32
10
6.094340
20
5.962264
30
0
0
VERTEX
8
PFV
62
0
70
32
10
6.886792
20
5.962264
30
0
0
SEQEND
0
POLYLINE
8
PFV
62
0
66
1
70
8
0
VERTEX
8
PFV
62
0
70
32
10
5.735849
20
5.924528
30
0
0
VERTEX
8
PFV
62
0
70
32
10
6.056604
20
5.924528
30
0
0
VERTEX
8
PFV
62
0
70
32
10
6.075472
20
5.943396
30
0
0
VERTEX
8
PFV
62
0
70
32
10
6.075472
20
5.962264
30
0
0
SEQEND
0
POLYLINE
8
PFV
62
0
66
1
70
8
0
VERTEX
8
PFV
62
0
70
32
10
5.735849
20
5.924528
30
0
0
VERTEX
8
PFV
62
0
70
32
10
5.735849
20
5.905660
30
0
0
VERTEX
8
PFV
62
0
70
32
10
5.679245
20
5.905660
30
0
0
VERTEX
8
PFV
62
0
70
32
10
5.660377
20
5.924528
30
0
0
VERTEX
8
PFV
62
0
70
32
10
5.660377
20
5.943396
30
0
0
VERTEX
8
PFV
62
0
70
32
10
5.641509
20
5.962264
30
0
0
VERTEX
8
PFV
62
0
70
32
10
5.433962
20
5.962264
30
0
0
SEQEND
0
POLYLINE
8
PFV
62
0
66
1
70
8
0
VERTEX
8
PFV
62
0
70
32
10
5.169811
20
5.962264
30
0
0
VERTEX
8
PFV
62
0
70
32
10
5.169811
20
6.000000
30
0
0
VERTEX
8
PFV
62
0
70
32
10
4.641509
20
6.000000
30
0
0
SEQEND
0
POLYLINE
8
PFV
62
0
66
1
70
8
0
VERTEX
8
PFV
62
0
70
32
10
5.245283
20
5.962264
30
0
0
VERTEX
8
PFV
62
0
70
32
10
5.245283
20
5.943396
30
0
0
SEQEND
0
POLYLINE
8
PFV
62
0
66
1
70
8
0
VERTEX
8
PFV
62
0
70
32
10
5.433962
20
5.962264
30
0
0
VERTEX
8
PFV
62
0
70
32
10
5.415094
20
5.981132
30
0
0
SEQEND
0
POLYLINE
8
PFV
62
0
66
1
70
8
0
VERTEX
8
PFV
62
0
70
32
10
5.641509
20
5.962264
30
0
0
VERTEX
8
PFV
62
0
70
32
10
5.641509
20
5.943396
30
0
0
SEQEND
0
POLYLINE
8
PFV
62
0
66
1
70
8
0
VERTEX
8
PFV
62
0
70
32
10
5.641509
20
5.962264
30
0
0
VERTEX
8
PFV
62
0
70
32
10
5.660377
20
5.981132
30
0
0
VERTEX
8
PFV
62
0
70
32
10
5.716981
20
5.981132
30
0
0
SEQEND
0
POLYLINE
8
PFV
62
0
66
1
70
8
0
VERTEX
8
PFV
62
0
70
32
10
5.283019
20
6.811321
30
0
0
VERTEX
8
PFV
62
0
70
32
10
5.301887
20
6.943396
30
0
0
VERTEX
8
PFV
62
0
70
32
10
5.452830
20
7.075472
30
0
0
VERTEX
8
PFV
62
0
70
32
10
5.490566
20
7.075472
30
0
0
VERTEX
8
PFV
62
0
70
32
10
5.509434
20
7.018868
30
0
0
SEQEND
0
POLYLINE
8
PFV
62
0
66
1
70
8
0
VERTEX
8
PFV
62
0
70
32
10
5.283019
20
6.811321
30
0
0
VERTEX
8
PFV
62
0
70
32
10
5.943396
20
6.830189
30
0
0
VERTEX
8
PFV
62
0
70
32
10
6.037736
20
6.849057
30
0
0
VERTEX
8
PFV
62
0
70
32
10
6.037736
20
6.811321
30
0
0
SEQEND
0
POLYLINE
8
PFV
62
0
66
1
70
8
0
VERTEX
8
PFV
62
0
70
32
10
5.283019
20
6.811321
30
0
0
VERTEX
8
PFV
62
0
70
32
10
5.207547
20
6.716981
30
0
0
VERTEX
8
PFV
62
0
70
32
10
4.849057
20
6.735849
30
0
0
VERTEX
8
PFV
62
0
70
32
10
4.716981
20
6.886792
30
0
0
VERTEX
8
PFV
62
0
70
32
10
4.924528
20
7.056604
30
0
0
VERTEX
8
PFV
62
0
70
32
10
5.132075
20
7.056604
30
0
0
VERTEX
8
PFV
62
0
70
32
10
5.245283
20
6.962264
30
0
0
VERTEX
8
PFV
62
0
70
32
10
5.283019
20
6.924528
30
0
0
SEQEND
0
POLYLINE
8
PFV
62
0
66
1
70
8
0
VERTEX
8
PFV
62
0
70
32
10
5.377358
20
6.811321
30
0
0
VERTEX
8
PFV
62
0
70
32
10
5.471698
20
6.924528
30
0
0
VERTEX
8
PFV
62
0
70
32
10
5.471698
20
7.018868
30
0
0
SEQEND
0
POLYLINE
8
PFV
62
0
66
1
70
8
0
VERTEX
8
PFV
62
0
70
32
10
4.528302
20
6.867925
30
0
0
VERTEX
8
PFV
62
0
70
32
10
4.528302
20
7.150943
30
0
0
SEQEND
0
POLYLINE
8
PFV
62
0
66
1
70
8
0
VERTEX
8
PFV
62
0
70
32
10
4.528302
20
6.867925
30
0
0
VERTEX
8
PFV
62
0
70
32
10
4.641509
20
6.867925
30
0
0
VERTEX
8
PFV
62
0
70
32
10
4.660377
20
6.886792
30
0
0
VERTEX
8
PFV
62
0
70
32
10
4.716981
20
6.886792
30
0
0
SEQEND
0
POLYLINE
8
PFV
62
0
66
1
70
8
0
VERTEX
8
PFV
62
0
70
32
10
4.528302
20
6.867925
30
0
0
VERTEX
8
PFV
62
0
70
32
10
4.132075
20
6.905660
30
0
0
VERTEX
8
PFV
62
0
70
32
10
4.037736
20
7.000000
30
0
0
VERTEX
8
PFV
62
0
70
32
10
3.943396
20
6.981132
30
0
0
VERTEX
8
PFV
62
0
70
32
10
3.867925
20
6.905660
30
0
0
VERTEX
8
PFV
62
0
70
32
10
3.886792
20
6.773585
30
0
0
VERTEX
8
PFV
62
0
70
32
10
3.905660
20
6.773585
30
0
0
VERTEX
8
PFV
62
0
70
32
10
4.000000
20
6.735849
30
0
0
VERTEX
8
PFV
62
0
70
32
10
4.150943
20
6.886792
30
0
0
SEQEND
0
POLYLINE
8
PFV
62
0
66
1
70
8
0
VERTEX
8
PFV
62
0
70
32
10
4.150943
20
6.886792
30
0
0
VERTEX
8
PFV
62
0
70
32
10
4.150943
20
6.905660
30
0
0
SEQEND
0
POLYLINE
8
PFV
62
0
66
1
70
8
0
VERTEX
8
PFV
62
0
70
32
10
4.245283
20
6.886792
30
0
0
VERTEX
8
PFV
62
0
70
32
10
4.245283
20
7.188679
30
0
0
SEQEND
0
POLYLINE
8
PFV
62
0
66
1
70
8
0
VERTEX
8
PFV
62
0
70
32
10
4.641509
20
6.886792
30
0
0
VERTEX
8
PFV
62
0
70
32
10
4.660377
20
7.283019
30
0
0
VERTEX
8
PFV
62
0
70
32
10
4.716981
20
7.396226
30
0
0
VERTEX
8
PFV
62
0
70
32
10
4.867925
20
7.396226
30
0
0
VERTEX
8
PFV
62
0
70
32
10
4.886792
20
7.377358
30
0
0
SEQEND
0
POLYLINE
8
PFV
62
0
66
1
70
8
0
VERTEX
8
PFV
62
0
70
32
10
4.716981
20
6.886792
30
0
0
VERTEX
8
PFV
62
0
70
32
10
4.735849
20
6.867925
30
0
0
SEQEND
0
POLYLINE
8
PFV
62
0
66
1
70
8
0
VERTEX
8
PFV
62
0
70
32
10
4.735849
20
6.905660
30
0
0
VERTEX
8
PFV
62
0
70
32
10
4.735849
20
7.188679
30
0
0
VERTEX
8
PFV
62
0
70
32
10
4.773585
20
7.188679
30
0
0
VERTEX
8
PFV
62
0
70
32
10
4.773585
20
7.150943
30
0
0
SEQEND
0
POLYLINE
8
PFV
62
0
66
1
70
8
0
VERTEX
8
PFV
62
0
70
32
10
5.471698
20
6.962264
30
0
0
VERTEX
8
PFV
62
0
70
32
10
5.528302
20
6.962264
30
0
0
SEQEND
0
POLYLINE
8
PFV
62
0
66
1
70
8
0
VERTEX
8
PFV
62
0
70
32
10
3.962264
20
7.000000
30
0
0
VERTEX
8
PFV
62
0
70
32
10
3.905660
20
7.113208
30
0
0
VERTEX
8
PFV
62
0
70
32
10
3.773585
20
7.056604
30
0
0
SEQEND
0
POLYLINE
8
PFV
62
0
66
1
70
8
0
VERTEX
8
PFV
62
0
70
32
10
7.584906
20
7.000000
30
0
0
VERTEX
8
PFV
62
0
70
32
10
7.566038
20
7.207547
30
0
0
SEQEND
0
POLYLINE
8
PFV
62
0
66
1
70
8
0
VERTEX
8
PFV
62
0
70
32
10
7.584906
20
7.000000
30
0
0
VERTEX
8
PFV
62
0
70
32
10
7.603774
20
7.000000
30
0
0
VERTEX
8
PFV
62
0
70
32
10
7.622642
20
6.981132
30
0
0
VERTEX
8
PFV
62
0
70
32
10
7.622642
20
6.943396
30
0
0
SEQEND
0
POLYLINE
8
PFV
62
0
66
1
70
8
0
VERTEX
8
PFV
62
0
70
32
10
7.584906
20
7.000000
30
0
0
VERTEX
8
PFV
62
0
70
32
10
7.603774
20
6.981132
30
0
0
SEQEND
0
POLYLINE
8
PFV
62
0
66
1
70
8
0
VERTEX
8
PFV
62
0
70
32
10
7.584906
20
7.000000
30
0
0
VERTEX
8
PFV
62
0
70
32
10
7.566038
20
6.981132
30
0
0
VERTEX
8
PFV
62
0
70
32
10
7.566038
20
6.943396
30
0
0
SEQEND
0
POLYLINE
8
PFV
62
0
66
1
70
8
0
VERTEX
8
PFV
62
0
70
32
10
7.584906
20
7.000000
30
0
0
VERTEX
8
PFV
62
0
70
32
10
7.528302
20
7.000000
30
0
0
VERTEX
8
PFV
62
0
70
32
10
7.471698
20
6.943396
30
0
0
VERTEX
8
PFV
62
0
70
32
10
6.716981
20
6.943396
30
0
0
VERTEX
8
PFV
62
0
70
32
10
6.698113
20
6.962264
30
0
0
SEQEND
0
POLYLINE
8
PFV
62
0
66
1
70
8
0
VERTEX
8
PFV
62
0
70
32
10
7.566038
20
7.018868
30
0
0
VERTEX
8
PFV
62
0
70
32
10
7.584906
20
7.000000
30
0
0
SEQEND
0
POLYLINE
8
PFV
62
0
66
1
70
8
0
VERTEX
8
PFV
62
0
70
32
10
5.132075
20
7.037736
30
0
0
VERTEX
8
PFV
62
0
70
32
10
5.132075
20
7.018868
30
0
0
VERTEX
8
PFV
62
0
70
32
10
5.094340
20
7.018868
30
0
0
VERTEX
8
PFV
62
0
70
32
10
5.094340
20
7.056604
30
0
0
SEQEND
0
POLYLINE
8
PFV
62
0
66
1
70
8
0
VERTEX
8
PFV
62
0
70
32
10
5.056604
20
7.056604
30
0
0
VERTEX
8
PFV
62
0
70
32
10
5.056604
20
7.207547
30
0
0
VERTEX
8
PFV
62
0
70
32
10
5.075472
20
7.226415
30
0
0
VERTEX
8
PFV
62
0
70
32
10
5.075472
20
7.301887
30
0
0
SEQEND
0
POLYLINE
8
PFV
62
0
66
1
70
8
0
VERTEX
8
PFV
62
0
70
32
10
5.452830
20
7.075472
30
0
0
VERTEX
8
PFV
62
0
70
32
10
5.452830
20
7.113208
30
0
0
SEQEND
0
POLYLINE
8
PFV
62
0
66
1
70
8
0
VERTEX
8
PFV
62
0
70
32
10
3.924528
20
7.094340
30
0
0
VERTEX
8
PFV
62
0
70
32
10
4.000000
20
7.188679
30
0
0
VERTEX
8
PFV
62
0
70
32
10
3.962264
20
7.509434
30
0
0
VERTEX
8
PFV
62
0
70
32
10
3.962264
20
7.660377
30
0
0
SEQEND
0
POLYLINE
8
PFV
62
0
66
1
70
8
0
VERTEX
8
PFV
62
0
70
32
10
4.641509
20
7.188679
30
0
0
VERTEX
8
PFV
62
0
70
32
10
4.735849
20
7.188679
30
0
0
SEQEND
0
POLYLINE
8
PFV
62
0
66
1
70
8
0
VERTEX
8
PFV
62
0
70
32
10
5.056604
20
7.188679
30
0
0
VERTEX
8
PFV
62
0
70
32
10
5.150943
20
7.188679
30
0
0
VERTEX
8
PFV
62
0
70
32
10
5.169811
20
7.169811
30
0
0
SEQEND
0
POLYLINE
8
PFV
62
0
66
1
70
8
0
VERTEX
8
PFV
62
0
70
32
10
4.000000
20
7.245283
30
0
0
VERTEX
8
PFV
62
0
70
32
10
4.018868
20
7.245283
30
0
0
VERTEX
8
PFV
62
0
70
32
10
4.037736
20
7.264151
30
0
0
VERTEX
8
PFV
62
0
70
32
10
4.056604
20
7.283019
30
0
0
VERTEX
8
PFV
62
0
70
32
10
4.075472
20
7.301887
30
0
0
VERTEX
8
PFV
62
0
70
32
10
4.113208
20
7.301887
30
0
0
SEQEND
0
POLYLINE
8
PFV
62
0
66
1
70
8
0
VERTEX
8
PFV
62
0
70
32
10
4.490566
20
7.396226
30
0
0
VERTEX
8
PFV
62
0
70
32
10
4.566038
20
7.396226
30
0
0
VERTEX
8
PFV
62
0
70
32
10
4.584906
20
7.415094
30
0
0
VERTEX
8
PFV
62
0
70
32
10
4.660377
20
7.415094
30
0
0
VERTEX
8
PFV
62
0
70
32
10
4.679245
20
7.396226
30
0
0
VERTEX
8
PFV
62
0
70
32
10
4.716981
20
7.396226
30
0
0
SEQEND
0
POLYLINE
8
PFV
62
0
66
1
70
8
0
VERTEX
8
PFV
62
0
70
32
10
4.490566
20
7.396226
30
0
0
VERTEX
8
PFV
62
0
70
32
10
4.490566
20
7.301887
30
0
0
VERTEX
8
PFV
62
0
70
32
10
4.509434
20
7.283019
30
0
0
SEQEND
0
POLYLINE
8
PFV
62
0
66
1
70
8
0
VERTEX
8
PFV
62
0
70
32
10
4.490566
20
7.396226
30
0
0
VERTEX
8
PFV
62
0
70
32
10
4.301887
20
7.396226
30
0
0
VERTEX
8
PFV
62
0
70
32
10
4.283019
20
7.415094
30
0
0
VERTEX
8
PFV
62
0
70
32
10
4.264151
20
7.415094
30
0
0
VERTEX
8
PFV
62
0
70
32
10
4.245283
20
7.433962
30
0
0
VERTEX
8
PFV
62
0
70
32
10
4.245283
20
7.566038
30
0
0
VERTEX
8
PFV
62
0
70
32
10
4.283019
20
7.566038
30
0
0
SEQEND
0
POLYLINE
8
PFV
62
0
66
1
70
8
0
VERTEX
8
PFV
62
0
70
32
10
4.867925
20
7.396226
30
0
0
VERTEX
8
PFV
62
0
70
32
10
4.886792
20
7.415094
30
0
0
VERTEX
8
PFV
62
0
70
32
10
5.037736
20
7.415094
30
0
0
VERTEX
8
PFV
62
0
70
32
10
5.056604
20
7.396226
30
0
0
VERTEX
8
PFV
62
0
70
32
10
5.283019
20
7.396226
30
0
0
SEQEND
0
POLYLINE
8
PFV
62
0
66
1
70
8
0
VERTEX
8
PFV
62
0
70
32
10
5.037736
20
7.396226
30
0
0
VERTEX
8
PFV
62
0
70
32
10
5.018868
20
7.377358
30
0
0
VERTEX
8
PFV
62
0
70
32
10
5.018868
20
7.358491
30
0
0
VERTEX
8
PFV
62
0
70
32
10
4.981132
20
7.358491
30
0
0
SEQEND
0
POLYLINE
8
PFV
62
0
66
1
70
8
0
VERTEX
8
PFV
62
0
70
32
10
4.660377
20
7.415094
30
0
0
VERTEX
8
PFV
62
0
70
32
10
4.660377
20
7.433962
30
0
0
VERTEX
8
PFV
62
0
70
32
10
4.641509
20
7.452830
30
0
0
VERTEX
8
PFV
62
0
70
32
10
4.641509
20
7.528302
30
0
0
SEQEND
0
POLYLINE
8
PFV
62
0
66
1
70
8
0
VERTEX
8
PFV
62
0
70
32
10
4.792453
20
7.415094
30
0
0
VERTEX
8
PFV
62
0
70
32
10
4.792453
20
7.452830
30
0
0
VERTEX
8
PFV
62
0
70
32
10
4.830189
20
7.452830
30
0
0
VERTEX
8
PFV
62
0
70
32
10
4.830189
20
7.415094
30
0
0
SEQEND
0
POLYLINE
8
PFV
62
0
66
1
70
8
0
VERTEX
8
PFV
62
0
70
32
10
4.830189
20
7.415094
30
0
0
VERTEX
8
PFV
62
0
70
32
10
4.830189
20
7.396226
30
0
0
SEQEND
0
POLYLINE
8
PFV
62
0
66
1
70
8
0
VERTEX
8
PFV
62
0
70
32
10
4.245283
20
7.452830
30
0
0
VERTEX
8
PFV
62
0
70
32
10
4.113208
20
7.452830
30
0
0
VERTEX
8
PFV
62
0
70
32
10
4.094340
20
7.471698
30
0
0
VERTEX
8
PFV
62
0
70
32
10
3.981132
20
7.471698
30
0
0
SEQEND
0
POLYLINE
8
PFV
62
0
66
1
70
8
0
VERTEX
8
PFV
62
0
70
32
10
3.943396
20
7.528302
30
0
0
VERTEX
8
PFV
62
0
70
32
10
3.773585
20
7.528302
30
0
0
VERTEX
8
PFV
62
0
70
32
10
3.811321
20
7.622642
30
0
0
VERTEX
8
PFV
62
0
70
32
10
3.849057
20
7.622642
30
0
0
VERTEX
8
PFV
62
0
70
32
10
3.943396
20
7.547170
30
0
0
SEQEND
0
POLYLINE
8
PFV
62
0
66
1
70
8
0
VERTEX
8
PFV
62
0
70
32
10
3.811321
20
7.622642
30
0
0
VERTEX
8
PFV
62
0
70
32
10
3.811321
20
7.641509
30
0
0
VERTEX
8
PFV
62
0
70
32
10
3.792453
20
7.660377
30
0
0
VERTEX
8
PFV
62
0
70
32
10
3.792453
20
7.792453
30
0
0
VERTEX
8
PFV
62
0
70
32
10
3.811321
20
7.811321
30
0
0
VERTEX
8
PFV
62
0
70
32
10
3.811321
20
7.943396
30
0
0
SEQEND
0
POLYLINE
8
PFV
62
0
66
1
70
8
0
VERTEX
8
PFV
62
0
70
32
10
3.849057
20
7.622642
30
0
0
VERTEX
8
PFV
62
0
70
32
10
3.849057
20
7.641509
30
0
0
VERTEX
8
PFV
62
0
70
32
10
3.867925
20
7.660377
30
0
0
VERTEX
8
PFV
62
0
70
32
10
3.867925
20
7.792453
30
0
0
SEQEND
0
POLYLINE
8
PFV
62
0
66
1
70
8
0
VERTEX
8
PFV
62
0
70
32
10
3.811321
20
8.924528
30
0
0
VERTEX
8
PFV
62
0
70
32
10
3.830189
20
9.000000
30
0
0
VERTEX
8
PFV
62
0
70
32
10
3.867925
20
9.000000
30
0
0
VERTEX
8
PFV
62
0
70
32
10
3.849057
20
8.924528
30
0
0
VERTEX
8
PFV
62
0
70
32
10
3.811321
20
8.924528
30
0
0
VERTEX
8
PFV
62
0
70
32
10
3.811321
20
8.754717
30
0
0
SEQEND
0
POLYLINE
8
PFV
62
0
66
1
70
8
0
VERTEX
8
PFV
62
0
70
32
10
4.320755
20
8.962264
30
0
0
VERTEX
8
PFV
62
0
70
32
10
4.358491
20
8.962264
30
0
0
SEQEND
0
POLYLINE
8
PFV
62
0
66
1
70
8
0
VERTEX
8
PFV
62
0
70
32
10
4.320755
20
8.962264
30
0
0
VERTEX
8
PFV
62
0
70
32
10
4.320755
20
8.943396
30
0
0
VERTEX
8
PFV
62
0
70
32
10
4.339623
20
8.924528
30
0
0
VERTEX
8
PFV
62
0
70
32
10
4.339623
20
8.905660
30
0
0
VERTEX
8
PFV
62
0
70
32
10
4.377358
20
8.905660
30
0
0
SEQEND
0
POLYLINE
8
PFV
62
0
66
1
70
8
0
VERTEX
8
PFV
62
0
70
32
10
4.320755
20
8.962264
30
0
0
VERTEX
8
PFV
62
0
70
32
10
4.132075
20
8.962264
30
0
0
VERTEX
8
PFV
62
0
70
32
10
4.000000
20
9.018868
30
0
0
VERTEX
8
PFV
62
0
70
32
10
4.018868
20
9.113208
30
0
0
VERTEX
8
PFV
62
0
70
32
10
4.113208
20
9.113208
30
0
0
VERTEX
8
PFV
62
0
70
32
10
4.132075
20
8.981132
30
0
0
SEQEND
0
POLYLINE
8
PFV
62
0
66
1
70
8
0
VERTEX
8
PFV
62
0
70
32
10
3.849057
20
9.000000
30
0
0
VERTEX
8
PFV
62
0
70
32
10
3.867925
20
9.094340
30
0
0
VERTEX
8
PFV
62
0
70
32
10
3.943396
20
9.132075
30
0
0
VERTEX
8
PFV
62
0
70
32
10
3.981132
20
9.075472
30
0
0
VERTEX
8
PFV
62
0
70
32
10
3.905660
20
9.018868
30
0
0
VERTEX
8
PFV
62
0
70
32
10
3.905660
20
8.981132
30
0
0
SEQEND
0
POLYLINE
8
PFV
62
0
66
1
70
8
0
VERTEX
8
PFV
62
0
70
32
10
3.905660
20
9.132075
30
0
0
VERTEX
8
PFV
62
0
70
32
10
3.867925
20
9.169811
30
0
0
VERTEX
8
PFV
62
0
70
32
10
3.867925
20
9.264151
30
0
0
VERTEX
8
PFV
62
0
70
32
10
3.830189
20
9.264151
30
0
0
VERTEX
8
PFV
62
0
70
32
10
3.830189
20
9.226415
30
0
0
VERTEX
8
PFV
62
0
70
32
10
3.867925
20
9.226415
30
0
0
SEQEND
0
POLYLINE
8
PFV
62
0
66
1
70
8
0
VERTEX
8
PFV
62
0
70
32
10
3.905660
20
9.132075
30
0
0
VERTEX
8
PFV
62
0
70
32
10
3.886792
20
9.150943
30
0
0
SEQEND
0
POLYLINE
8
PFV
62
0
66
1
70
8
0
VERTEX
8
PFV
62
0
70
32
10
3.943396
20
9.528302
30
0
0
VERTEX
8
PFV
62
0
70
32
10
3.943396
20
9.566038
30
0
0
VERTEX
8
PFV
62
0
70
32
10
4.075472
20
9.566038
30
0
0
VERTEX
8
PFV
62
0
70
32
10
4.094340
20
9.584906
30
0
0
VERTEX
8
PFV
62
0
70
32
10
4.132075
20
9.584906
30
0
0
VERTEX
8
PFV
62
0
70
32
10
4.150943
20
9.566038
30
0
0
VERTEX
8
PFV
62
0
70
32
10
4.207547
20
9.566038
30
0
0
SEQEND
0
POLYLINE
8
PFV
62
0
66
1
70
8
0
VERTEX
8
PFV
62
0
70
32
10
3.943396
20
9.528302
30
0
0
VERTEX
8
PFV
62
0
70
32
10
3.981132
20
9.528302
30
0
0
VERTEX
8
PFV
62
0
70
32
10
3.981132
20
9.433962
30
0
0
SEQEND
0
POLYLINE
8
PFV
62
0
66
1
70
8
0
VERTEX
8
PFV
62
0
70
32
10
3.943396
20
9.528302
30
0
0
VERTEX
8
PFV
62
0
70
32
10
3.886792
20
9.490566
30
0
0
VERTEX
8
PFV
62
0
70
32
10
3.849057
20
9.320755
30
0
0
SEQEND
0
POLYLINE
8
PFV
62
0
66
1
70
8
0
VERTEX
8
PFV
62
0
70
32
10
3.981132
20
9.528302
30
0
0
VERTEX
8
PFV
62
0
70
32
10
3.981132
20
9.566038
30
0
0
SEQEND
0
POLYLINE
8
PFV
62
0
66
1
70
8
0
VERTEX
8
PFV
62
0
70
32
10
4.037736
20
9.566038
30
0
0
VERTEX
8
PFV
62
0
70
32
10
4.037736
20
9.528302
30
0
0
VERTEX
8
PFV
62
0
70
32
10
4.056604
20
9.528302
30
0
0
VERTEX
8
PFV
62
0
70
32
10
4.075472
20
9.547170
30
0
0
VERTEX
8
PFV
62
0
70
32
10
4.075472
20
9.566038
30
0
0
SEQEND
0
POLYLINE
8
PFV
62
0
66
1
70
8
0
VERTEX
8
PFV
62
0
70
32
10
4.075472
20
9.566038
30
0
0
VERTEX
8
PFV
62
0
70
32
10
4.075472
20
9.584906
30
0
0
SEQEND
0
POLYLINE
8
PFV
62
0
66
1
70
8
0
VERTEX
8
PFV
62
0
70
32
10
4.132075
20
9.584906
30
0
0
VERTEX
8
PFV
62
0
70
32
10
4.132075
20
9.603774
30
0
0
VERTEX
8
PFV
62
0
70
32
10
4.188679
20
9.603774
30
0
0
VERTEX
8
PFV
62
0
70
32
10
4.207547
20
9.622642
30
0
0
VERTEX
8
PFV
62
0
70
32
10
4.358491
20
9.622642
30
0
0
SEQEND
0
POLYLINE
8
PFV
62
0
66
1
70
8
0
VERTEX
8
PFV
62
0
70
32
10
4.132075
20
9.584906
30
0
0
VERTEX
8
PFV
62
0
70
32
10
4.132075
20
9.566038
30
0
0
SEQEND
0
POLYLINE
8
PFV
62
0
66
1
70
8
0
VERTEX
8
PFV
62
0
70
32
10
5.905660
20
1.471698
30
0
0
VERTEX
8
PFV
62
0
70
32
10
5.905660
20
1.660377
30
0
0
SEQEND
0
POLYLINE
8
PFV
62
0
66
1
70
8
0
VERTEX
8
PFV
62
0
70
32
10
1.471698
20
2.773585
30
0
0
VERTEX
8
PFV
62
0
70
32
10
1.471698
20
2.792453
30
0
0
VERTEX
8
PFV
62
0
70
32
10
1.452830
20
2.811321
30
0
0
VERTEX
8
PFV
62
0
70
32
10
1.415094
20
2.811321
30
0
0
SEQEND
0
POLYLINE
8
PFV
62
0
66
1
70
8
0
VERTEX
8
PFV
62
0
70
32
10
1.471698
20
2.773585
30
0
0
VERTEX
8
PFV
62
0
70
32
10
1.584906
20
2.773585
30
0
0
VERTEX
8
PFV
62
0
70
32
10
1.603774
20
2.792453
30
0
0
VERTEX
8
PFV
62
0
70
32
10
1.641509
20
2.792453
30
0
0
VERTEX
8
PFV
62
0
70
32
10
1.660377
20
2.773585
30
0
0
VERTEX
8
PFV
62
0
70
32
10
1.698113
20
2.773585
30
0
0
SEQEND
0
POLYLINE
8
PFV
62
0
66
1
70
8
0
VERTEX
8
PFV
62
0
70
32
10
1.811321
20
2.773585
30
0
0
VERTEX
8
PFV
62
0
70
32
10
1.830189
20
2.773585
30
0
0
SEQEND
0
POLYLINE
8
PFV
62
0
66
1
70
8
0
VERTEX
8
PFV
62
0
70
32
10
1.018868
20
2.830189
30
0
0
VERTEX
8
PFV
62
0
70
32
10
1.037736
20
2.830189
30
0
0
SEQEND
0
POLYLINE
8
PFV
62
0
66
1
70
8
0
VERTEX
8
PFV
62
0
70
32
10
2.452830
20
2.830189
30
0
0
VERTEX
8
PFV
62
0
70
32
10
2.509434
20
2.830189
30
0
0
SEQEND
0
POLYLINE
8
PFV
62
0
66
1
70
8
0
VERTEX
8
PFV
62
0
70
32
10
2.716981
20
2.830189
30
0
0
VERTEX
8
PFV
62
0
70
32
10
2.735849
20
2.830189
30
0
0
SEQEND
0
POLYLINE
8
PFV
62
0
66
1
70
8
0
VERTEX
8
PFV
62
0
70
32
10
2.867925
20
2.849057
30
0
0
VERTEX
8
PFV
62
0
70
32
10
2.867925
20
2.867925
30
0
0
SEQEND
0
POLYLINE
8
PFV
62
0
66
1
70
8
0
VERTEX
8
PFV
62
0
70
32
10
0.490566
20
2.905660
30
0
0
VERTEX
8
PFV
62
0
70
32
10
0.509434
20
2.905660
30
0
0
SEQEND
0
POLYLINE
8
PFV
62
0
66
1
70
8
0
VERTEX
8
PFV
62
0
70
32
10
0.264151
20
2.943396
30
0
0
VERTEX
8
PFV
62
0
70
32
10
0.283019
20
2.943396
30
0
0
SEQEND
0
POLYLINE
8
PFV
62
0
66
1
70
8
0
VERTEX
8
PFV
62
0
70
32
10
0.566038
20
3.037736
30
0
0
VERTEX
8
PFV
62
0
70
32
10
0.584906
20
3.037736
30
0
0
SEQEND
0
POLYLINE
8
PFV
62
0
66
1
70
8
0
VERTEX
8
PFV
62
0
70
32
10
0.471698
20
3.056604
30
0
0
VERTEX
8
PFV
62
0
70
32
10
0.490566
20
3.075472
30
0
0
VERTEX
8
PFV
62
0
70
32
10
0.490566
20
3.094340
30
0
0
SEQEND
0
POLYLINE
8
PFV
62
0
66
1
70
8
0
VERTEX
8
PFV
62
0
70
32
10
0.471698
20
3.056604
30
0
0
VERTEX
8
PFV
62
0
70
32
10
0.452830
20
3.075472
30
0
0
VERTEX
8
PFV
62
0
70
32
10
0.433962
20
3.075472
30
0
0
VERTEX
8
PFV
62
0
70
32
10
0.415094
20
3.094340
30
0
0
SEQEND
0
POLYLINE
8
PFV
62
0
66
1
70
8
0
VERTEX
8
PFV
62
0
70
32
10
2.792453
20
3.132075
30
0
0
VERTEX
8
PFV
62
0
70
32
10
2.792453
20
3.150943
30
0
0
SEQEND
0
POLYLINE
8
PFV
62
0
66
1
70
8
0
VERTEX
8
PFV
62
0
70
32
10
0.754717
20
3.150943
30
0
0
VERTEX
8
PFV
62
0
70
32
10
0.754717
20
3.169811
30
0
0
SEQEND
0
POLYLINE
8
PFV
62
0
66
1
70
8
0
VERTEX
8
PFV
62
0
70
32
10
0.132075
20
3.245283
30
0
0
VERTEX
8
PFV
62
0
70
32
10
0.113208
20
3.264151
30
0
0
VERTEX
8
PFV
62
0
70
32
10
0.094340
20
3.264151
30
0
0
VERTEX
8
PFV
62
0
70
32
10
0.094340
20
3.283019
30
0
0
VERTEX
8
PFV
62
0
70
32
10
0.113208
20
3.301887
30
0
0
SEQEND
0
POLYLINE
8
PFV
62
0
66
1
70
8
0
VERTEX
8
PFV
62
0
70
32
10
0.245283
20
3.264151
30
0
0
VERTEX
8
PFV
62
0
70
32
10
0.245283
20
3.301887
30
0
0
VERTEX
8
PFV
62
0
70
32
10
0.226415
20
3.320755
30
0
0
VERTEX
8
PFV
62
0
70
32
10
0.226415
20
3.358491
30
0
0
VERTEX
8
PFV
62
0
70
32
10
0.207547
20
3.377358
30
0
0
VERTEX
8
PFV
62
0
70
32
10
0.207547
20
3.415094
30
0
0
SEQEND
0
POLYLINE
8
PFV
62
0
66
1
70
8
0
VERTEX
8
PFV
62
0
70
32
10
0.377358
20
3.264151
30
0
0
VERTEX
8
PFV
62
0
70
32
10
0.415094
20
3.264151
30
0
0
VERTEX
8
PFV
62
0
70
32
10
0.433962
20
3.283019
30
0
0
VERTEX
8
PFV
62
0
70
32
10
0.509434
20
3.283019
30
0
0
SEQEND
0
POLYLINE
8
PFV
62
0
66
1
70
8
0
VERTEX
8
PFV
62
0
70
32
10
0.301887
20
3.358491
30
0
0
VERTEX
8
PFV
62
0
70
32
10
0.339623
20
3.358491
30
0
0
VERTEX
8
PFV
62
0
70
32
10
0.358491
20
3.377358
30
0
0
VERTEX
8
PFV
62
0
70
32
10
0.396226
20
3.377358
30
0
0
SEQEND
0
POLYLINE
8
PFV
62
0
66
1
70
8
0
VERTEX
8
PFV
62
0
70
32
10
5.132075
20
4.018868
30
0
0
VERTEX
8
PFV
62
0
70
32
10
5.264151
20
4.018868
30
0
0
SEQEND
0
POLYLINE
8
PFV
62
0
66
1
70
8
0
VERTEX
8
PFV
62
0
70
32
10
5.433962
20
4.018868
30
0
0
VERTEX
8
PFV
62
0
70
32
10
5.566038
20
4.018868
30
0
0
SEQEND
0
POLYLINE
8
PFV
62
0
66
1
70
8
0
VERTEX
8
PFV
62
0
70
32
10
8.094340
20
4.075472
30
0
0
VERTEX
8
PFV
62
0
70
32
10
8.509434
20
4.094340
30
0
0
VERTEX
8
PFV
62
0
70
32
10
8.452830
20
4.547170
30
0
0
SEQEND
0
POLYLINE
8
PFV
62
0
66
1
70
8
0
VERTEX
8
PFV
62
0
70
32
10
2.830189
20
4.169811
30
0
0
VERTEX
8
PFV
62
0
70
32
10
2.830189
20
4.245283
30
0
0
SEQEND
0
POLYLINE
8
PFV
62
0
66
1
70
8
0
VERTEX
8
PFV
62
0
70
32
10
2.849057
20
4.377358
30
0
0
VERTEX
8
PFV
62
0
70
32
10
2.849057
20
4.396226
30
0
0
SEQEND
0
POLYLINE
8
PFV
62
0
66
1
70
8
0
VERTEX
8
PFV
62
0
70
32
10
2.867925
20
4.490566
30
0
0
VERTEX
8
PFV
62
0
70
32
10
2.867925
20
4.603774
30
0
0
VERTEX
8
PFV
62
0
70
32
10
2.886792
20
4.622642
30
0
0
VERTEX
8
PFV
62
0
70
32
10
2.886792
20
4.698113
30
0
0
SEQEND
0
POLYLINE
8
PFV
62
0
66
1
70
8
0
VERTEX
8
PFV
62
0
70
32
10
8.433962
20
4.622642
30
0
0
VERTEX
8
PFV
62
0
70
32
10
8.433962
20
4.660377
30
0
0
SEQEND
0
POLYLINE
8
PFV
62
0
66
1
70
8
0
VERTEX
8
PFV
62
0
70
32
10
8.000000
20
4.660377
30
0
0
VERTEX
8
PFV
62
0
70
32
10
8.018868
20
4.660377
30
0
0
SEQEND
0
POLYLINE
8
PFV
62
0
66
1
70
8
0
VERTEX
8
PFV
62
0
70
32
10
8.075472
20
4.660377
30
0
0
VERTEX
8
PFV
62
0
70
32
10
8.094340
20
4.660377
30
0
0
SEQEND
0
POLYLINE
8
PFV
62
0
66
1
70
8
0
VERTEX
8
PFV
62
0
70
32
10
8.245283
20
4.660377
30
0
0
VERTEX
8
PFV
62
0
70
32
10
8.283019
20
4.660377
30
0
0
SEQEND
0
POLYLINE
8
PFV
62
0
66
1
70
8
0
VERTEX
8
PFV
62
0
70
32
10
2.905660
20
4.811321
30
0
0
VERTEX
8
PFV
62
0
70
32
10
2.905660
20
4.849057
30
0
0
SEQEND
0
POLYLINE
8
PFV
62
0
66
1
70
8
0
VERTEX
8
PFV
62
0
70
32
10
2.924528
20
4.905660
30
0
0
VERTEX
8
PFV
62
0
70
32
10
2.924528
20
5.000000
30
0
0
SEQEND
0
POLYLINE
8
PFV
62
0
66
1
70
8
0
VERTEX
8
PFV
62
0
70
32
10
7.905660
20
5.094340
30
0
0
VERTEX
8
PFV
62
0
70
32
10
8.113208
20
5.094340
30
0
0
VERTEX
8
PFV
62
0
70
32
10
8.132075
20
5.113208
30
0
0
VERTEX
8
PFV
62
0
70
32
10
8.169811
20
5.113208
30
0
0
SEQEND
0
POLYLINE
8
PFV
62
0
66
1
70
8
0
VERTEX
8
PFV
62
0
70
32
10
8.320755
20
5.113208
30
0
0
VERTEX
8
PFV
62
0
70
32
10
8.339623
20
5.132075
30
0
0
VERTEX
8
PFV
62
0
70
32
10
8.339623
20
5.150943
30
0
0
SEQEND
0
POLYLINE
8
PFV
62
0
66
1
70
8
0
VERTEX
8
PFV
62
0
70
32
10
8.320755
20
5.301887
30
0
0
VERTEX
8
PFV
62
0
70
32
10
8.320755
20
5.339623
30
0
0
VERTEX
8
PFV
62
0
70
32
10
8.301887
20
5.358491
30
0
0
VERTEX
8
PFV
62
0
70
32
10
8.301887
20
5.471698
30
0
0
VERTEX
8
PFV
62
0
70
32
10
8.283019
20
5.490566
30
0
0
VERTEX
8
PFV
62
0
70
32
10
8.283019
20
5.603774
30
0
0
SEQEND
0
POLYLINE
8
PFV
62
0
66
1
70
8
0
VERTEX
8
PFV
62
0
70
32
10
2.962264
20
5.320755
30
0
0
VERTEX
8
PFV
62
0
70
32
10
2.962264
20
5.339623
30
0
0
SEQEND
0
POLYLINE
8
PFV
62
0
66
1
70
8
0
VERTEX
8
PFV
62
0
70
32
10
1.509434
20
5.339623
30
0
0
VERTEX
8
PFV
62
0
70
32
10
1.867925
20
5.339623
30
0
0
SEQEND
0
POLYLINE
8
PFV
62
0
66
1
70
8
0
VERTEX
8
PFV
62
0
70
32
10
1.207547
20
5.358491
30
0
0
VERTEX
8
PFV
62
0
70
32
10
1.207547
20
5.415094
30
0
0
SEQEND
0
POLYLINE
8
PFV
62
0
66
1
70
8
0
VERTEX
8
PFV
62
0
70
32
10
1.207547
20
5.358491
30
0
0
VERTEX
8
PFV
62
0
70
32
10
1.264151
20
5.358491
30
0
0
SEQEND
0
POLYLINE
8
PFV
62
0
66
1
70
8
0
VERTEX
8
PFV
62
0
70
32
10
1.320755
20
5.358491
30
0
0
VERTEX
8
PFV
62
0
70
32
10
1.415094
20
5.358491
30
0
0
SEQEND
0
POLYLINE
8
PFV
62
0
66
1
70
8
0
VERTEX
8
PFV
62
0
70
32
10
6.037736
20
5.603774
30
0
0
VERTEX
8
PFV
62
0
70
32
10
6.056604
20
5.603774
30
0
0
SEQEND
0
POLYLINE
8
PFV
62
0
66
1
70
8
0
VERTEX
8
PFV
62
0
70
32
10
3.000000
20
5.622642
30
0
0
VERTEX
8
PFV
62
0
70
32
10
3.000000
20
5.698113
30
0
0
SEQEND
0
POLYLINE
8
PFV
62
0
66
1
70
8
0
VERTEX
8
PFV
62
0
70
32
10
3.018868
20
5.773585
30
0
0
VERTEX
8
PFV
62
0
70
32
10
3.018868
20
5.962264
30
0
0
VERTEX
8
PFV
62
0
70
32
10
3.000000
20
5.981132
30
0
0
VERTEX
8
PFV
62
0
70
32
10
2.924528
20
5.981132
30
0
0
SEQEND
0
POLYLINE
8
PFV
62
0
66
1
70
8
0
VERTEX
8
PFV
62
0
70
32
10
1.339623
20
6.301887
30
0
0
VERTEX
8
PFV
62
0
70
32
10
1.339623
20
6.320755
30
0
0
SEQEND
0
POLYLINE
8
PFV
62
0
66
1
70
8
0
VERTEX
8
PFV
62
0
70
32
10
1.377358
20
6.339623
30
0
0
VERTEX
8
PFV
62
0
70
32
10
1.377358
20
6.415094
30
0
0
SEQEND
0
POLYLINE
8
PFV
62
0
66
1
70
8
0
VERTEX
8
PFV
62
0
70
32
10
1.396226
20
6.471698
30
0
0
VERTEX
8
PFV
62
0
70
32
10
1.396226
20
6.528302
30
0
0
VERTEX
8
PFV
62
0
70
32
10
1.415094
20
6.547170
30
0
0
VERTEX
8
PFV
62
0
70
32
10
1.415094
20
6.584906
30
0
0
SEQEND
0
POLYLINE
8
PFV
62
0
66
1
70
8
0
VERTEX
8
PFV
62
0
70
32
10
2.188679
20
6.471698
30
0
0
VERTEX
8
PFV
62
0
70
32
10
2.207547
20
6.490566
30
0
0
SEQEND
0
POLYLINE
8
PFV
62
0
66
1
70
8
0
VERTEX
8
PFV
62
0
70
32
10
1.528302
20
6.528302
30
0
0
VERTEX
8
PFV
62
0
70
32
10
1.547170
20
6.547170
30
0
0
SEQEND
0
POLYLINE
8
PFV
62
0
66
1
70
8
0
VERTEX
8
PFV
62
0
70
32
10
3.037736
20
6.698113
30
0
0
VERTEX
8
PFV
62
0
70
32
10
3.037736
20
6.792453
30
0
0
VERTEX
8
PFV
62
0
70
32
10
3.075472
20
7.094340
30
0
0
VERTEX
8
PFV
62
0
70
32
10
3.094340
20
7.113208
30
0
0
SEQEND
0
POLYLINE
8
PFV
62
0
66
1
70
8
0
VERTEX
8
PFV
62
0
70
32
10
1.433962
20
6.716981
30
0
0
VERTEX
8
PFV
62
0
70
32
10
1.452830
20
6.905660
30
0
0
VERTEX
8
PFV
62
0
70
32
10
1.509434
20
7.056604
30
0
0
SEQEND
0
POLYLINE
8
PFV
62
0
66
1
70
8
0
VERTEX
8
PFV
62
0
70
32
10
5.547170
20
7.000000
30
0
0
VERTEX
8
PFV
62
0
70
32
10
5.547170
20
7.037736
30
0
0
SEQEND
0
POLYLINE
8
PFV
62
0
66
1
70
8
0
VERTEX
8
PFV
62
0
70
32
10
7.509434
20
7.056604
30
0
0
VERTEX
8
PFV
62
0
70
32
10
7.547170
20
7.056604
30
0
0
VERTEX
8
PFV
62
0
70
32
10
7.528302
20
7.113208
30
0
0
VERTEX
8
PFV
62
0
70
32
10
7.415094
20
7.113208
30
0
0
VERTEX
8
PFV
62
0
70
32
10
6.811321
20
7.094340
30
0
0
SEQEND
0
POLYLINE
8
PFV
62
0
66
1
70
8
0
VERTEX
8
PFV
62
0
70
32
10
1.509434
20
7.094340
30
0
0
VERTEX
8
PFV
62
0
70
32
10
1.509434
20
7.113208
30
0
0
SEQEND
0
POLYLINE
8
PFV
62
0
66
1
70
8
0
VERTEX
8
PFV
62
0
70
32
10
2.415094
20
7.094340
30
0
0
VERTEX
8
PFV
62
0
70
32
10
2.433962
20
7.094340
30
0
0
SEQEND
0
POLYLINE
8
PFV
62
0
66
1
70
8
0
VERTEX
8
PFV
62
0
70
32
10
4.811321
20
7.150943
30
0
0
VERTEX
8
PFV
62
0
70
32
10
4.849057
20
7.150943
30
0
0
SEQEND
0
POLYLINE
8
PFV
62
0
66
1
70
8
0
VERTEX
8
PFV
62
0
70
32
10
5.283019
20
7.169811
30
0
0
VERTEX
8
PFV
62
0
70
32
10
5.283019
20
7.188679
30
0
0
VERTEX
8
PFV
62
0
70
32
10
5.264151
20
7.207547
30
0
0
SEQEND
0
POLYLINE
8
PFV
62
0
66
1
70
8
0
VERTEX
8
PFV
62
0
70
32
10
4.490566
20
7.188679
30
0
0
VERTEX
8
PFV
62
0
70
32
10
4.490566
20
7.226415
30
0
0
SEQEND
0
POLYLINE
8
PFV
62
0
66
1
70
8
0
VERTEX
8
PFV
62
0
70
32
10
4.867925
20
7.188679
30
0
0
VERTEX
8
PFV
62
0
70
32
10
4.886792
20
7.188679
30
0
0
SEQEND
0
POLYLINE
8
PFV
62
0
66
1
70
8
0
VERTEX
8
PFV
62
0
70
32
10
6.924528
20
7.207547
30
0
0
VERTEX
8
PFV
62
0
70
32
10
6.924528
20
7.301887
30
0
0
SEQEND
0
POLYLINE
8
PFV
62
0
66
1
70
8
0
VERTEX
8
PFV
62
0
70
32
10
6.849057
20
7.226415
30
0
0
VERTEX
8
PFV
62
0
70
32
10
6.849057
20
7.283019
30
0
0
SEQEND
0
POLYLINE
8
PFV
62
0
66
1
70
8
0
VERTEX
8
PFV
62
0
70
32
10
5.150943
20
7.264151
30
0
0
VERTEX
8
PFV
62
0
70
32
10
5.169811
20
7.264151
30
0
0
SEQEND
0
POLYLINE
8
PFV
62
0
66
1
70
8
0
VERTEX
8
PFV
62
0
70
32
10
7.320755
20
7.339623
30
0
0
VERTEX
8
PFV
62
0
70
32
10
7.320755
20
7.396226
30
0
0
SEQEND
0
POLYLINE
8
PFV
62
0
66
1
70
8
0
VERTEX
8
PFV
62
0
70
32
10
6.641509
20
7.415094
30
0
0
VERTEX
8
PFV
62
0
70
32
10
6.679245
20
7.415094
30
0
0
SEQEND
0
POLYLINE
8
PFV
62
0
66
1
70
8
0
VERTEX
8
PFV
62
0
70
32
10
7.000000
20
7.433962
30
0
0
VERTEX
8
PFV
62
0
70
32
10
7.018868
20
7.433962
30
0
0
VERTEX
8
PFV
62
0
70
32
10
7.037736
20
7.452830
30
0
0
SEQEND
0
POLYLINE
8
PFV
62
0
66
1
70
8
0
VERTEX
8
PFV
62
0
70
32
10
7.000000
20
7.433962
30
0
0
VERTEX
8
PFV
62
0
70
32
10
6.981132
20
7.452830
30
0
0
VERTEX
8
PFV
62
0
70
32
10
6.943396
20
7.452830
30
0
0
SEQEND
0
POLYLINE
8
PFV
62
0
66
1
70
8
0
VERTEX
8
PFV
62
0
70
32
10
7.471698
20
7.471698
30
0
0
VERTEX
8
PFV
62
0
70
32
10
7.471698
20
7.509434
30
0
0
SEQEND
0
POLYLINE
8
PFV
62
0
66
1
70
8
0
VERTEX
8
PFV
62
0
70
32
10
7.056604
20
7.490566
30
0
0
VERTEX
8
PFV
62
0
70
32
10
7.094340
20
7.490566
30
0
0
SEQEND
0
POLYLINE
8
PFV
62
0
66
1
70
8
0
VERTEX
8
PFV
62
0
70
32
10
7.188679
20
7.528302
30
0
0
VERTEX
8
PFV
62
0
70
32
10
7.188679
20
7.566038
30
0
0
SEQEND
0
POLYLINE
8
PFV
62
0
66
1
70
8
0
VERTEX
8
PFV
62
0
70
32
10
4.641509
20
7.641509
30
0
0
VERTEX
8
PFV
62
0
70
32
10
4.660377
20
7.641509
30
0
0
VERTEX
8
PFV
62
0
70
32
10
4.679245
20
7.660377
30
0
0
VERTEX
8
PFV
62
0
70
32
10
4.698113
20
7.660377
30
0
0
SEQEND
0
POLYLINE
8
PFV
62
0
66
1
70
8
0
VERTEX
8
PFV
62
0
70
32
10
4.603774
20
7.716981
30
0
0
VERTEX
8
PFV
62
0
70
32
10
4.792453
20
7.754717
30
0
0
VERTEX
8
PFV
62
0
70
32
10
4.943396
20
7.735849
30
0
0
VERTEX
8
PFV
62
0
70
32
10
5.000000
20
7.754717
30
0
0
SEQEND
0
POLYLINE
8
PFV
62
0
66
1
70
8
0
VERTEX
8
PFV
62
0
70
32
10
4.264151
20
7.735849
30
0
0
VERTEX
8
PFV
62
0
70
32
10
4.528302
20
7.735849
30
0
0
SEQEND
0
POLYLINE
8
PFV
62
0
66
1
70
8
0
VERTEX
8
PFV
62
0
70
32
10
6.886792
20
7.735849
30
0
0
VERTEX
8
PFV
62
0
70
32
10
6.981132
20
7.735849
30
0
0
SEQEND
0
POLYLINE
8
PFV
62
0
66
1
70
8
0
VERTEX
8
PFV
62
0
70
32
10
3.169811
20
7.792453
30
0
0
VERTEX
8
PFV
62
0
70
32
10
3.169811
20
7.830189
30
0
0
SEQEND
0
POLYLINE
8
PFV
62
0
66
1
70
8
0
VERTEX
8
PFV
62
0
70
32
10
4.433962
20
7.924528
30
0
0
VERTEX
8
PFV
62
0
70
32
10
4.452830
20
7.924528
30
0
0
SEQEND
0
POLYLINE
8
PFV
62
0
66
1
70
8
0
VERTEX
8
PFV
62
0
70
32
10
4.905660
20
7.924528
30
0
0
VERTEX
8
PFV
62
0
70
32
10
4.981132
20
7.924528
30
0
0
SEQEND
0
POLYLINE
8
PFV
62
0
66
1
70
8
0
VERTEX
8
PFV
62
0
70
32
10
4.641509
20
7.943396
30
0
0
VERTEX
8
PFV
62
0
70
32
10
4.660377
20
7.943396
30
0
0
SEQEND
0
POLYLINE
8
PFV
62
0
66
1
70
8
0
VERTEX
8
PFV
62
0
70
32
10
4.528302
20
8.037736
30
0
0
VERTEX
8
PFV
62
0
70
32
10
4.603774
20
8.037736
30
0
0
SEQEND
0
POLYLINE
8
PFV
62
0
66
1
70
8
0
VERTEX
8
PFV
62
0
70
32
10
4.528302
20
8.037736
30
0
0
VERTEX
8
PFV
62
0
70
32
10
4.509434
20
8.056604
30
0
0
SEQEND
0
POLYLINE
8
PFV
62
0
66
1
70
8
0
VERTEX
8
PFV
62
0
70
32
10
4.754717
20
8.037736
30
0
0
VERTEX
8
PFV
62
0
70
32
10
4.754717
20
8.056604
30
0
0
SEQEND
0
POLYLINE
8
PFV
62
0
66
1
70
8
0
VERTEX
8
PFV
62
0
70
32
10
3.207547
20
8.075472
30
0
0
VERTEX
8
PFV
62
0
70
32
10
3.207547
20
8.094340
30
0
0
SEQEND
0
POLYLINE
8
PFV
62
0
66
1
70
8
0
VERTEX
8
PFV
62
0
70
32
10
5.981132
20
8.301887
30
0
0
VERTEX
8
PFV
62
0
70
32
10
6.000000
20
8.301887
30
0
0
SEQEND
0
POLYLINE
8
PFV
62
0
66
1
70
8
0
VERTEX
8
PFV
62
0
70
32
10
6.358491
20
8.301887
30
0
0
VERTEX
8
PFV
62
0
70
32
10
6.358491
20
8.320755
30
0
0
SEQEND
0
POLYLINE
8
PFV
62
0
66
1
70
8
0
VERTEX
8
PFV
62
0
70
32
10
6.415094
20
8.301887
30
0
0
VERTEX
8
PFV
62
0
70
32
10
6.415094
20
8.320755
30
0
0
SEQEND
0
POLYLINE
8
PFV
62
0
66
1
70
8
0
VERTEX
8
PFV
62
0
70
32
10
6.490566
20
8.377358
30
0
0
VERTEX
8
PFV
62
0
70
32
10
6.509434
20
8.377358
30
0
0
SEQEND
0
POLYLINE
8
PFV
62
0
66
1
70
8
0
VERTEX
8
PFV
62
0
70
32
10
6.169811
20
8.490566
30
0
0
VERTEX
8
PFV
62
0
70
32
10
6.169811
20
8.509434
30
0
0
SEQEND
0
POLYLINE
8
PFV
62
0
66
1
70
8
0
VERTEX
8
PFV
62
0
70
32
10
6.150943
20
8.547170
30
0
0
VERTEX
8
PFV
62
0
70
32
10
6.188679
20
8.547170
30
0
0
VERTEX
8
PFV
62
0
70
32
10
6.188679
20
8.603774
30
0
0
VERTEX
8
PFV
62
0
70
32
10
6.150943
20
8.603774
30
0
0
SEQEND
0
POLYLINE
8
PFV
62
0
66
1
70
8
0
VERTEX
8
PFV
62
0
70
32
10
4.132075
20
8.603774
30
0
0
VERTEX
8
PFV
62
0
70
32
10
4.132075
20
8.641509
30
0
0
VERTEX
8
PFV
62
0
70
32
10
4.113208
20
8.660377
30
0
0
VERTEX
8
PFV
62
0
70
32
10
4.113208
20
8.698113
30
0
0
SEQEND
0
POLYLINE
8
PFV
62
0
66
1
70
8
0
VERTEX
8
PFV
62
0
70
32
10
6.566038
20
8.603774
30
0
0
VERTEX
8
PFV
62
0
70
32
10
6.566038
20
8.622642
30
0
0
SEQEND
0
POLYLINE
8
PFV
62
0
66
1
70
8
0
VERTEX
8
PFV
62
0
70
32
10
6.358491
20
8.660377
30
0
0
VERTEX
8
PFV
62
0
70
32
10
6.377358
20
8.660377
30
0
0
SEQEND
0
POLYLINE
8
PFV
62
0
66
1
70
8
0
VERTEX
8
PFV
62
0
70
32
10
6.358491
20
8.660377
30
0
0
VERTEX
8
PFV
62
0
70
32
10
6.339623
20
8.679245
30
0
0
SEQEND
0
POLYLINE
8
PFV
62
0
66
1
70
8
0
VERTEX
8
PFV
62
0
70
32
10
5.698113
20
8.773585
30
0
0
VERTEX
8
PFV
62
0
70
32
10
5.735849
20
8.773585
30
0
0
VERTEX
8
PFV
62
0
70
32
10
5.735849
20
8.811321
30
0
0
SEQEND
0
POLYLINE
8
PFV
62
0
66
1
70
8
0
VERTEX
8
PFV
62
0
70
32
10
5.735849
20
8.867925
30
0
0
VERTEX
8
PFV
62
0
70
32
10
5.792453
20
8.867925
30
0
0
SEQEND
0
POLYLINE
8
PFV
62
0
66
1
70
8
0
VERTEX
8
PFV
62
0
70
32
10
5.660377
20
8.943396
30
0
0
VERTEX
8
PFV
62
0
70
32
10
5.792453
20
8.943396
30
0
0
VERTEX
8
PFV
62
0
70
32
10
5.811321
20
8.962264
30
0
0
VERTEX
8
PFV
62
0
70
32
10
5.867925
20
8.962264
30
0
0
VERTEX
8
PFV
62
0
70
32
10
5.886792
20
8.943396
30
0
0
VERTEX
8
PFV
62
0
70
32
10
5.943396
20
8.943396
30
0
0
SEQEND
0
POLYLINE
8
PFV
62
0
66
1
70
8
0
VERTEX
8
PFV
62
0
70
32
10
5.150943
20
9.396226
30
0
0
VERTEX
8
PFV
62
0
70
32
10
5.150943
20
9.452830
30
0
0
SEQEND
0
POLYLINE
8
PFV
62
0
66
1
70
8
0
VERTEX
8
PFV
62
0
70
32
10
6.886792
20
9.566038
30
0
0
VERTEX
8
PFV
62
0
70
32
10
6.867925
20
9.584906
30
0
0
VERTEX
8
PFV
62
0
70
32
10
6.849057
20
9.603774
30
0
0
SEQEND
0
ENDSEC
0
EOF
