0
SECTION
2
HEADER
0
ENDSEC
0
SECTION
2
TABLES
0
ENDSEC
0
SECTION
2
BLOCKS
0
ENDSEC
0
SECTION
2
ENTITIES
0
POLYLINE
8
PFV
62
0
66
1
70
8
0
VERTEX
8
PFV
62
0
70
32
10
4.326531
20
2.306122
30
0
0
VERTEX
8
PFV
62
0
70
32
10
4.346939
20
2.346939
30
0
0
VERTEX
8
PFV
62
0
70
32
10
4.510204
20
2.387755
30
0
0
VERTEX
8
PFV
62
0
70
32
10
4.673469
20
2.510204
30
0
0
VERTEX
8
PFV
62
0
70
32
10
4.816327
20
2.571429
30
0
0
VERTEX
8
PFV
62
0
70
32
10
5.612245
20
2.693878
30
0
0
VERTEX
8
PFV
62
0
70
32
10
5.857143
20
2.755102
30
0
0
VERTEX
8
PFV
62
0
70
32
10
6.510204
20
2.081633
30
0
0
VERTEX
8
PFV
62
0
70
32
10
6.530612
20
2.040816
30
0
0
SEQEND
0
POLYLINE
8
PFV
62
0
66
1
70
8
0
VERTEX
8
PFV
62
0
70
32
10
4.326531
20
2.306122
30
0
0
VERTEX
8
PFV
62
0
70
32
10
5.244898
20
1.387755
30
0
0
VERTEX
8
PFV
62
0
70
32
10
5.244898
20
1.244898
30
0
0
VERTEX
8
PFV
62
0
70
32
10
5.285714
20
1.244898
30
0
0
SEQEND
0
POLYLINE
8
PFV
62
0
66
1
70
8
0
VERTEX
8
PFV
62
0
70
32
10
4.326531
20
2.306122
30
0
0
VERTEX
8
PFV
62
0
70
32
10
3.877551
20
2.306122
30
0
0
VERTEX
8
PFV
62
0
70
32
10
3.530612
20
2.469388
30
0
0
VERTEX
8
PFV
62
0
70
32
10
2.897959
20
2.693878
30
0
0
VERTEX
8
PFV
62
0
70
32
10
3.020408
20
2.857143
30
0
0
VERTEX
8
PFV
62
0
70
32
10
3.571429
20
3.428571
30
0
0
VERTEX
8
PFV
62
0
70
32
10
3.612245
20
3.428571
30
0
0
SEQEND
0
POLYLINE
8
PFV
62
0
66
1
70
8
0
VERTEX
8
PFV
62
0
70
32
10
4.326531
20
2.306122
30
0
0
VERTEX
8
PFV
62
0
70
32
10
4.346939
20
2.285714
30
0
0
SEQEND
0
POLYLINE
8
PFV
62
0
66
1
70
8
0
VERTEX
8
PFV
62
0
70
32
10
3.836735
20
2.346939
30
0
0
VERTEX
8
PFV
62
0
70
32
10
3.836735
20
3.326531
30
0
0
VERTEX
8
PFV
62
0
70
32
10
3.857143
20
3.346939
30
0
0
VERTEX
8
PFV
62
0
70
32
10
3.857143
20
3.367347
30
0
0
VERTEX
8
PFV
62
0
70
32
10
3.816327
20
3.367347
30
0
0
VERTEX
8
PFV
62
0
70
32
10
3.816327
20
3.326531
30
0
0
VERTEX
8
PFV
62
0
70
32
10
3.836735
20
3.326531
30
0
0
SEQEND
0
POLYLINE
8
PFV
62
0
66
1
70
8
0
VERTEX
8
PFV
62
0
70
32
10
2.897959
20
2.734694
30
0
0
VERTEX
8
PFV
62
0
70
32
10
2.775510
20
2.775510
30
0
0
VERTEX
8
PFV
62
0
70
32
10
2.714286
20
2.857143
30
0
0
VERTEX
8
PFV
62
0
70
32
10
3.204082
20
3.346939
30
0
0
VERTEX
8
PFV
62
0
70
32
10
3.224490
20
3.551020
30
0
0
VERTEX
8
PFV
62
0
70
32
10
3.244898
20
3.551020
30
0
0
SEQEND
0
POLYLINE
8
PFV
62
0
66
1
70
8
0
VERTEX
8
PFV
62
0
70
32
10
5.857143
20
2.755102
30
0
0
VERTEX
8
PFV
62
0
70
32
10
5.857143
20
2.734694
30
0
0
SEQEND
0
POLYLINE
8
PFV
62
0
66
1
70
8
0
VERTEX
8
PFV
62
0
70
32
10
5.857143
20
2.755102
30
0
0
VERTEX
8
PFV
62
0
70
32
10
5.918367
20
2.795918
30
0
0
VERTEX
8
PFV
62
0
70
32
10
6.040816
20
2.816327
30
0
0
VERTEX
8
PFV
62
0
70
32
10
6.285714
20
2.877551
30
0
0
VERTEX
8
PFV
62
0
70
32
10
5.795918
20
3.367347
30
0
0
VERTEX
8
PFV
62
0
70
32
10
5.816327
20
3.530612
30
0
0
VERTEX
8
PFV
62
0
70
32
10
5.836735
20
3.714286
30
0
0
VERTEX
8
PFV
62
0
70
32
10
6.040816
20
3.734694
30
0
0
VERTEX
8
PFV
62
0
70
32
10
6.040816
20
3.816327
30
0
0
VERTEX
8
PFV
62
0
70
32
10
6.000000
20
3.857143
30
0
0
VERTEX
8
PFV
62
0
70
32
10
5.836735
20
3.836735
30
0
0
VERTEX
8
PFV
62
0
70
32
10
5.775510
20
3.734694
30
0
0
VERTEX
8
PFV
62
0
70
32
10
5.836735
20
3.714286
30
0
0
SEQEND
0
POLYLINE
8
PFV
62
0
66
1
70
8
0
VERTEX
8
PFV
62
0
70
32
10
2.714286
20
2.857143
30
0
0
VERTEX
8
PFV
62
0
70
32
10
2.612245
20
2.897959
30
0
0
VERTEX
8
PFV
62
0
70
32
10
2.408163
20
3.265306
30
0
0
VERTEX
8
PFV
62
0
70
32
10
2.346939
20
3.367347
30
0
0
VERTEX
8
PFV
62
0
70
32
10
2.142857
20
3.428571
30
0
0
VERTEX
8
PFV
62
0
70
32
10
2.551020
20
3.877551
30
0
0
VERTEX
8
PFV
62
0
70
32
10
2.591837
20
3.877551
30
0
0
SEQEND
0
POLYLINE
8
PFV
62
0
66
1
70
8
0
VERTEX
8
PFV
62
0
70
32
10
2.714286
20
2.857143
30
0
0
VERTEX
8
PFV
62
0
70
32
10
2.734694
20
2.836735
30
0
0
SEQEND
0
POLYLINE
8
PFV
62
0
66
1
70
8
0
VERTEX
8
PFV
62
0
70
32
10
2.714286
20
2.857143
30
0
0
VERTEX
8
PFV
62
0
70
32
10
2.693878
20
2.877551
30
0
0
SEQEND
0
POLYLINE
8
PFV
62
0
66
1
70
8
0
VERTEX
8
PFV
62
0
70
32
10
2.632653
20
2.877551
30
0
0
VERTEX
8
PFV
62
0
70
32
10
2.632653
20
2.897959
30
0
0
SEQEND
0
POLYLINE
8
PFV
62
0
66
1
70
8
0
VERTEX
8
PFV
62
0
70
32
10
2.632653
20
2.877551
30
0
0
VERTEX
8
PFV
62
0
70
32
10
2.346939
20
2.591837
30
0
0
VERTEX
8
PFV
62
0
70
32
10
1.775510
20
2.816327
30
0
0
VERTEX
8
PFV
62
0
70
32
10
1.653061
20
3.204082
30
0
0
VERTEX
8
PFV
62
0
70
32
10
1.673469
20
3.367347
30
0
0
VERTEX
8
PFV
62
0
70
32
10
1.816327
20
3.510204
30
0
0
VERTEX
8
PFV
62
0
70
32
10
1.857143
20
3.510204
30
0
0
VERTEX
8
PFV
62
0
70
32
10
2.061224
20
3.428571
30
0
0
VERTEX
8
PFV
62
0
70
32
10
2.142857
20
3.428571
30
0
0
SEQEND
0
POLYLINE
8
PFV
62
0
66
1
70
8
0
VERTEX
8
PFV
62
0
70
32
10
6.285714
20
2.897959
30
0
0
VERTEX
8
PFV
62
0
70
32
10
6.387755
20
2.918367
30
0
0
VERTEX
8
PFV
62
0
70
32
10
6.530612
20
2.959184
30
0
0
VERTEX
8
PFV
62
0
70
32
10
6.877551
20
2.979592
30
0
0
VERTEX
8
PFV
62
0
70
32
10
7.020408
20
3.142857
30
0
0
VERTEX
8
PFV
62
0
70
32
10
7.020408
20
4.061224
30
0
0
VERTEX
8
PFV
62
0
70
32
10
7.489796
20
4.102041
30
0
0
VERTEX
8
PFV
62
0
70
32
10
7.551020
20
4.040816
30
0
0
VERTEX
8
PFV
62
0
70
32
10
7.591837
20
4.040816
30
0
0
VERTEX
8
PFV
62
0
70
32
10
8.183673
20
3.428571
30
0
0
VERTEX
8
PFV
62
0
70
32
10
8.326531
20
3.469388
30
0
0
VERTEX
8
PFV
62
0
70
32
10
8.367347
20
3.591837
30
0
0
VERTEX
8
PFV
62
0
70
32
10
7.775510
20
4.163265
30
0
0
VERTEX
8
PFV
62
0
70
32
10
7.795918
20
4.285714
30
0
0
VERTEX
8
PFV
62
0
70
32
10
7.897959
20
4.326531
30
0
0
VERTEX
8
PFV
62
0
70
32
10
7.938776
20
4.387755
30
0
0
VERTEX
8
PFV
62
0
70
32
10
8.081633
20
4.265306
30
0
0
VERTEX
8
PFV
62
0
70
32
10
8.510204
20
3.857143
30
0
0
VERTEX
8
PFV
62
0
70
32
10
8.510204
20
3.591837
30
0
0
VERTEX
8
PFV
62
0
70
32
10
8.367347
20
3.571429
30
0
0
SEQEND
0
POLYLINE
8
PFV
62
0
66
1
70
8
0
VERTEX
8
PFV
62
0
70
32
10
6.285714
20
2.897959
30
0
0
VERTEX
8
PFV
62
0
70
32
10
6.265306
20
2.897959
30
0
0
SEQEND
0
POLYLINE
8
PFV
62
0
66
1
70
8
0
VERTEX
8
PFV
62
0
70
32
10
6.530612
20
2.959184
30
0
0
VERTEX
8
PFV
62
0
70
32
10
5.918367
20
3.591837
30
0
0
VERTEX
8
PFV
62
0
70
32
10
5.836735
20
3.591837
30
0
0
SEQEND
0
POLYLINE
8
PFV
62
0
66
1
70
8
0
VERTEX
8
PFV
62
0
70
32
10
6.530612
20
2.959184
30
0
0
VERTEX
8
PFV
62
0
70
32
10
6.510204
20
2.979592
30
0
0
SEQEND
0
POLYLINE
8
PFV
62
0
66
1
70
8
0
VERTEX
8
PFV
62
0
70
32
10
7.020408
20
3.142857
30
0
0
VERTEX
8
PFV
62
0
70
32
10
7.816327
20
3.265306
30
0
0
VERTEX
8
PFV
62
0
70
32
10
7.795918
20
3.346939
30
0
0
VERTEX
8
PFV
62
0
70
32
10
7.326531
20
3.816327
30
0
0
VERTEX
8
PFV
62
0
70
32
10
7.326531
20
4.102041
30
0
0
SEQEND
0
POLYLINE
8
PFV
62
0
66
1
70
8
0
VERTEX
8
PFV
62
0
70
32
10
7.020408
20
3.142857
30
0
0
VERTEX
8
PFV
62
0
70
32
10
7.000000
20
3.142857
30
0
0
SEQEND
0
POLYLINE
8
PFV
62
0
66
1
70
8
0
VERTEX
8
PFV
62
0
70
32
10
7.000000
20
3.183673
30
0
0
VERTEX
8
PFV
62
0
70
32
10
6.877551
20
3.265306
30
0
0
VERTEX
8
PFV
62
0
70
32
10
6.551020
20
3.612245
30
0
0
VERTEX
8
PFV
62
0
70
32
10
6.612245
20
3.755102
30
0
0
VERTEX
8
PFV
62
0
70
32
10
6.775510
20
4.040816
30
0
0
VERTEX
8
PFV
62
0
70
32
10
7.000000
20
4.061224
30
0
0
SEQEND
0
POLYLINE
8
PFV
62
0
66
1
70
8
0
VERTEX
8
PFV
62
0
70
32
10
7.816327
20
3.306122
30
0
0
VERTEX
8
PFV
62
0
70
32
10
8.163265
20
3.367347
30
0
0
VERTEX
8
PFV
62
0
70
32
10
8.183673
20
3.428571
30
0
0
SEQEND
0
POLYLINE
8
PFV
62
0
66
1
70
8
0
VERTEX
8
PFV
62
0
70
32
10
7.816327
20
3.306122
30
0
0
VERTEX
8
PFV
62
0
70
32
10
7.795918
20
3.326531
30
0
0
SEQEND
0
POLYLINE
8
PFV
62
0
66
1
70
8
0
VERTEX
8
PFV
62
0
70
32
10
3.836735
20
3.326531
30
0
0
VERTEX
8
PFV
62
0
70
32
10
3.857143
20
3.326531
30
0
0
SEQEND
0
POLYLINE
8
PFV
62
0
66
1
70
8
0
VERTEX
8
PFV
62
0
70
32
10
5.795918
20
3.408163
30
0
0
VERTEX
8
PFV
62
0
70
32
10
5.673469
20
3.489796
30
0
0
VERTEX
8
PFV
62
0
70
32
10
5.612245
20
3.551020
30
0
0
VERTEX
8
PFV
62
0
70
32
10
5.551020
20
3.551020
30
0
0
SEQEND
0
POLYLINE
8
PFV
62
0
66
1
70
8
0
VERTEX
8
PFV
62
0
70
32
10
8.183673
20
3.428571
30
0
0
VERTEX
8
PFV
62
0
70
32
10
8.183673
20
3.448980
30
0
0
SEQEND
0
POLYLINE
8
PFV
62
0
66
1
70
8
0
VERTEX
8
PFV
62
0
70
32
10
1.816327
20
3.510204
30
0
0
VERTEX
8
PFV
62
0
70
32
10
1.795918
20
3.571429
30
0
0
VERTEX
8
PFV
62
0
70
32
10
1.714286
20
3.632653
30
0
0
VERTEX
8
PFV
62
0
70
32
10
1.510204
20
3.836735
30
0
0
VERTEX
8
PFV
62
0
70
32
10
1.265306
20
4.142857
30
0
0
VERTEX
8
PFV
62
0
70
32
10
1.244898
20
4.244898
30
0
0
VERTEX
8
PFV
62
0
70
32
10
1.204082
20
4.448980
30
0
0
VERTEX
8
PFV
62
0
70
32
10
1.285714
20
4.632653
30
0
0
VERTEX
8
PFV
62
0
70
32
10
1.204082
20
5.040816
30
0
0
VERTEX
8
PFV
62
0
70
32
10
1.183673
20
5.571429
30
0
0
VERTEX
8
PFV
62
0
70
32
10
1.244898
20
6.163265
30
0
0
VERTEX
8
PFV
62
0
70
32
10
1.367347
20
6.653061
30
0
0
VERTEX
8
PFV
62
0
70
32
10
1.469388
20
6.877551
30
0
0
SEQEND
0
POLYLINE
8
PFV
62
0
66
1
70
8
0
VERTEX
8
PFV
62
0
70
32
10
8.367347
20
3.571429
30
0
0
VERTEX
8
PFV
62
0
70
32
10
8.346939
20
3.591837
30
0
0
SEQEND
0
POLYLINE
8
PFV
62
0
66
1
70
8
0
VERTEX
8
PFV
62
0
70
32
10
8.530612
20
3.632653
30
0
0
VERTEX
8
PFV
62
0
70
32
10
9.204082
20
4.285714
30
0
0
SEQEND
0
POLYLINE
8
PFV
62
0
66
1
70
8
0
VERTEX
8
PFV
62
0
70
32
10
6.551020
20
3.673469
30
0
0
VERTEX
8
PFV
62
0
70
32
10
6.387755
20
3.816327
30
0
0
VERTEX
8
PFV
62
0
70
32
10
6.244898
20
3.795918
30
0
0
VERTEX
8
PFV
62
0
70
32
10
6.061224
20
3.775510
30
0
0
SEQEND
0
POLYLINE
8
PFV
62
0
66
1
70
8
0
VERTEX
8
PFV
62
0
70
32
10
6.551020
20
3.673469
30
0
0
VERTEX
8
PFV
62
0
70
32
10
6.530612
20
3.693878
30
0
0
SEQEND
0
POLYLINE
8
PFV
62
0
66
1
70
8
0
VERTEX
8
PFV
62
0
70
32
10
8.530612
20
3.673469
30
0
0
VERTEX
8
PFV
62
0
70
32
10
8.408163
20
3.755102
30
0
0
VERTEX
8
PFV
62
0
70
32
10
7.877551
20
4.285714
30
0
0
VERTEX
8
PFV
62
0
70
32
10
7.877551
20
4.326531
30
0
0
SEQEND
0
POLYLINE
8
PFV
62
0
66
1
70
8
0
VERTEX
8
PFV
62
0
70
32
10
5.775510
20
3.734694
30
0
0
VERTEX
8
PFV
62
0
70
32
10
5.653061
20
3.734694
30
0
0
SEQEND
0
POLYLINE
8
PFV
62
0
66
1
70
8
0
VERTEX
8
PFV
62
0
70
32
10
6.061224
20
3.775510
30
0
0
VERTEX
8
PFV
62
0
70
32
10
6.040816
20
3.795918
30
0
0
SEQEND
0
POLYLINE
8
PFV
62
0
66
1
70
8
0
VERTEX
8
PFV
62
0
70
32
10
8.510204
20
3.857143
30
0
0
VERTEX
8
PFV
62
0
70
32
10
8.510204
20
4.040816
30
0
0
VERTEX
8
PFV
62
0
70
32
10
8.387755
20
4.183673
30
0
0
VERTEX
8
PFV
62
0
70
32
10
8.081633
20
4.510204
30
0
0
VERTEX
8
PFV
62
0
70
32
10
8.040816
20
4.571429
30
0
0
VERTEX
8
PFV
62
0
70
32
10
7.938776
20
4.653061
30
0
0
VERTEX
8
PFV
62
0
70
32
10
7.816327
20
4.632653
30
0
0
VERTEX
8
PFV
62
0
70
32
10
7.693878
20
4.448980
30
0
0
VERTEX
8
PFV
62
0
70
32
10
7.673469
20
4.224490
30
0
0
VERTEX
8
PFV
62
0
70
32
10
7.489796
20
4.122449
30
0
0
VERTEX
8
PFV
62
0
70
32
10
7.489796
20
4.102041
30
0
0
SEQEND
0
POLYLINE
8
PFV
62
0
66
1
70
8
0
VERTEX
8
PFV
62
0
70
32
10
8.510204
20
3.857143
30
0
0
VERTEX
8
PFV
62
0
70
32
10
8.489796
20
3.857143
30
0
0
SEQEND
0
POLYLINE
8
PFV
62
0
66
1
70
8
0
VERTEX
8
PFV
62
0
70
32
10
7.326531
20
4.102041
30
0
0
VERTEX
8
PFV
62
0
70
32
10
7.244898
20
4.224490
30
0
0
VERTEX
8
PFV
62
0
70
32
10
7.122449
20
4.306122
30
0
0
SEQEND
0
POLYLINE
8
PFV
62
0
66
1
70
8
0
VERTEX
8
PFV
62
0
70
32
10
7.489796
20
4.102041
30
0
0
VERTEX
8
PFV
62
0
70
32
10
7.489796
20
4.081633
30
0
0
SEQEND
0
POLYLINE
8
PFV
62
0
66
1
70
8
0
VERTEX
8
PFV
62
0
70
32
10
8.489796
20
4.102041
30
0
0
VERTEX
8
PFV
62
0
70
32
10
8.530612
20
4.122449
30
0
0
VERTEX
8
PFV
62
0
70
32
10
8.510204
20
4.428571
30
0
0
VERTEX
8
PFV
62
0
70
32
10
8.224490
20
4.714286
30
0
0
VERTEX
8
PFV
62
0
70
32
10
8.183673
20
4.714286
30
0
0
VERTEX
8
PFV
62
0
70
32
10
8.163265
20
4.775510
30
0
0
SEQEND
0
POLYLINE
8
PFV
62
0
66
1
70
8
0
VERTEX
8
PFV
62
0
70
32
10
8.489796
20
4.102041
30
0
0
VERTEX
8
PFV
62
0
70
32
10
8.469388
20
4.102041
30
0
0
SEQEND
0
POLYLINE
8
PFV
62
0
66
1
70
8
0
VERTEX
8
PFV
62
0
70
32
10
7.326531
20
4.142857
30
0
0
VERTEX
8
PFV
62
0
70
32
10
7.387755
20
4.224490
30
0
0
VERTEX
8
PFV
62
0
70
32
10
7.428571
20
4.346939
30
0
0
VERTEX
8
PFV
62
0
70
32
10
7.693878
20
4.387755
30
0
0
SEQEND
0
POLYLINE
8
PFV
62
0
66
1
70
8
0
VERTEX
8
PFV
62
0
70
32
10
7.326531
20
4.142857
30
0
0
VERTEX
8
PFV
62
0
70
32
10
7.306122
20
4.142857
30
0
0
SEQEND
0
POLYLINE
8
PFV
62
0
66
1
70
8
0
VERTEX
8
PFV
62
0
70
32
10
7.775510
20
4.224490
30
0
0
VERTEX
8
PFV
62
0
70
32
10
7.734694
20
4.224490
30
0
0
VERTEX
8
PFV
62
0
70
32
10
7.734694
20
4.265306
30
0
0
VERTEX
8
PFV
62
0
70
32
10
7.775510
20
4.265306
30
0
0
SEQEND
0
POLYLINE
8
PFV
62
0
66
1
70
8
0
VERTEX
8
PFV
62
0
70
32
10
7.693878
20
4.265306
30
0
0
VERTEX
8
PFV
62
0
70
32
10
7.734694
20
4.265306
30
0
0
SEQEND
0
POLYLINE
8
PFV
62
0
66
1
70
8
0
VERTEX
8
PFV
62
0
70
32
10
7.693878
20
4.265306
30
0
0
VERTEX
8
PFV
62
0
70
32
10
7.653061
20
4.265306
30
0
0
VERTEX
8
PFV
62
0
70
32
10
7.653061
20
4.306122
30
0
0
VERTEX
8
PFV
62
0
70
32
10
7.693878
20
4.306122
30
0
0
SEQEND
0
POLYLINE
8
PFV
62
0
66
1
70
8
0
VERTEX
8
PFV
62
0
70
32
10
4.612245
20
4.306122
30
0
0
VERTEX
8
PFV
62
0
70
32
10
4.653061
20
4.265306
30
0
0
VERTEX
8
PFV
62
0
70
32
10
5.816327
20
4.285714
30
0
0
VERTEX
8
PFV
62
0
70
32
10
6.142857
20
4.387755
30
0
0
VERTEX
8
PFV
62
0
70
32
10
6.367347
20
4.428571
30
0
0
VERTEX
8
PFV
62
0
70
32
10
6.653061
20
4.530612
30
0
0
VERTEX
8
PFV
62
0
70
32
10
6.857143
20
4.612245
30
0
0
VERTEX
8
PFV
62
0
70
32
10
6.938776
20
4.673469
30
0
0
VERTEX
8
PFV
62
0
70
32
10
7.020408
20
4.693878
30
0
0
VERTEX
8
PFV
62
0
70
32
10
7.122449
20
4.734694
30
0
0
VERTEX
8
PFV
62
0
70
32
10
7.163265
20
4.673469
30
0
0
SEQEND
0
POLYLINE
8
PFV
62
0
66
1
70
8
0
VERTEX
8
PFV
62
0
70
32
10
4.612245
20
4.306122
30
0
0
VERTEX
8
PFV
62
0
70
32
10
4.448980
20
4.326531
30
0
0
VERTEX
8
PFV
62
0
70
32
10
4.387755
20
4.367347
30
0
0
VERTEX
8
PFV
62
0
70
32
10
4.306122
20
4.285714
30
0
0
VERTEX
8
PFV
62
0
70
32
10
3.816327
20
4.346939
30
0
0
VERTEX
8
PFV
62
0
70
32
10
3.673469
20
4.408163
30
0
0
VERTEX
8
PFV
62
0
70
32
10
3.510204
20
4.428571
30
0
0
VERTEX
8
PFV
62
0
70
32
10
3.204082
20
4.551020
30
0
0
VERTEX
8
PFV
62
0
70
32
10
2.693878
20
4.836735
30
0
0
VERTEX
8
PFV
62
0
70
32
10
2.551020
20
4.918367
30
0
0
VERTEX
8
PFV
62
0
70
32
10
2.489796
20
4.877551
30
0
0
SEQEND
0
POLYLINE
8
PFV
62
0
66
1
70
8
0
VERTEX
8
PFV
62
0
70
32
10
4.612245
20
4.306122
30
0
0
VERTEX
8
PFV
62
0
70
32
10
4.632653
20
4.326531
30
0
0
VERTEX
8
PFV
62
0
70
32
10
4.653061
20
4.326531
30
0
0
VERTEX
8
PFV
62
0
70
32
10
4.673469
20
4.346939
30
0
0
VERTEX
8
PFV
62
0
70
32
10
4.693878
20
4.367347
30
0
0
VERTEX
8
PFV
62
0
70
32
10
4.714286
20
4.387755
30
0
0
SEQEND
0
POLYLINE
8
PFV
62
0
66
1
70
8
0
VERTEX
8
PFV
62
0
70
32
10
4.632653
20
4.326531
30
0
0
VERTEX
8
PFV
62
0
70
32
10
4.632653
20
4.632653
30
0
0
VERTEX
8
PFV
62
0
70
32
10
4.734694
20
4.632653
30
0
0
VERTEX
8
PFV
62
0
70
32
10
4.775510
20
4.591837
30
0
0
VERTEX
8
PFV
62
0
70
32
10
5.530612
20
4.632653
30
0
0
VERTEX
8
PFV
62
0
70
32
10
5.530612
20
4.693878
30
0
0
VERTEX
8
PFV
62
0
70
32
10
5.469388
20
4.755102
30
0
0
VERTEX
8
PFV
62
0
70
32
10
5.448980
20
4.938776
30
0
0
VERTEX
8
PFV
62
0
70
32
10
5.285714
20
5.061224
30
0
0
VERTEX
8
PFV
62
0
70
32
10
5.285714
20
5.183673
30
0
0
VERTEX
8
PFV
62
0
70
32
10
5.632653
20
5.183673
30
0
0
VERTEX
8
PFV
62
0
70
32
10
5.734694
20
5.061224
30
0
0
VERTEX
8
PFV
62
0
70
32
10
5.755102
20
4.795918
30
0
0
VERTEX
8
PFV
62
0
70
32
10
5.836735
20
4.714286
30
0
0
VERTEX
8
PFV
62
0
70
32
10
5.959184
20
4.714286
30
0
0
VERTEX
8
PFV
62
0
70
32
10
5.897959
20
4.877551
30
0
0
VERTEX
8
PFV
62
0
70
32
10
5.857143
20
4.979592
30
0
0
VERTEX
8
PFV
62
0
70
32
10
5.734694
20
5.061224
30
0
0
SEQEND
0
POLYLINE
8
PFV
62
0
66
1
70
8
0
VERTEX
8
PFV
62
0
70
32
10
4.632653
20
4.326531
30
0
0
VERTEX
8
PFV
62
0
70
32
10
4.612245
20
4.306122
30
0
0
SEQEND
0
POLYLINE
8
PFV
62
0
66
1
70
8
0
VERTEX
8
PFV
62
0
70
32
10
7.857143
20
4.326531
30
0
0
VERTEX
8
PFV
62
0
70
32
10
7.857143
20
4.367347
30
0
0
VERTEX
8
PFV
62
0
70
32
10
7.897959
20
4.367347
30
0
0
SEQEND
0
POLYLINE
8
PFV
62
0
66
1
70
8
0
VERTEX
8
PFV
62
0
70
32
10
4.408163
20
4.367347
30
0
0
VERTEX
8
PFV
62
0
70
32
10
4.408163
20
4.571429
30
0
0
VERTEX
8
PFV
62
0
70
32
10
4.387755
20
4.591837
30
0
0
VERTEX
8
PFV
62
0
70
32
10
4.387755
20
4.632653
30
0
0
VERTEX
8
PFV
62
0
70
32
10
4.632653
20
4.632653
30
0
0
SEQEND
0
POLYLINE
8
PFV
62
0
66
1
70
8
0
VERTEX
8
PFV
62
0
70
32
10
4.408163
20
4.367347
30
0
0
VERTEX
8
PFV
62
0
70
32
10
4.428571
20
4.346939
30
0
0
SEQEND
0
POLYLINE
8
PFV
62
0
66
1
70
8
0
VERTEX
8
PFV
62
0
70
32
10
7.693878
20
4.367347
30
0
0
VERTEX
8
PFV
62
0
70
32
10
7.734694
20
4.367347
30
0
0
VERTEX
8
PFV
62
0
70
32
10
7.755102
20
4.346939
30
0
0
VERTEX
8
PFV
62
0
70
32
10
7.775510
20
4.346939
30
0
0
VERTEX
8
PFV
62
0
70
32
10
7.775510
20
4.387755
30
0
0
VERTEX
8
PFV
62
0
70
32
10
7.734694
20
4.387755
30
0
0
VERTEX
8
PFV
62
0
70
32
10
7.734694
20
4.367347
30
0
0
SEQEND
0
POLYLINE
8
PFV
62
0
66
1
70
8
0
VERTEX
8
PFV
62
0
70
32
10
7.734694
20
4.367347
30
0
0
VERTEX
8
PFV
62
0
70
32
10
7.734694
20
4.346939
30
0
0
SEQEND
0
POLYLINE
8
PFV
62
0
66
1
70
8
0
VERTEX
8
PFV
62
0
70
32
10
7.918367
20
4.387755
30
0
0
VERTEX
8
PFV
62
0
70
32
10
7.918367
20
4.510204
30
0
0
SEQEND
0
POLYLINE
8
PFV
62
0
66
1
70
8
0
VERTEX
8
PFV
62
0
70
32
10
8.530612
20
4.408163
30
0
0
VERTEX
8
PFV
62
0
70
32
10
8.571429
20
4.428571
30
0
0
VERTEX
8
PFV
62
0
70
32
10
8.571429
20
4.755102
30
0
0
VERTEX
8
PFV
62
0
70
32
10
8.387755
20
4.897959
30
0
0
VERTEX
8
PFV
62
0
70
32
10
8.265306
20
4.877551
30
0
0
VERTEX
8
PFV
62
0
70
32
10
8.224490
20
5.020408
30
0
0
VERTEX
8
PFV
62
0
70
32
10
8.265306
20
5.102041
30
0
0
SEQEND
0
POLYLINE
8
PFV
62
0
66
1
70
8
0
VERTEX
8
PFV
62
0
70
32
10
8.530612
20
4.408163
30
0
0
VERTEX
8
PFV
62
0
70
32
10
8.510204
20
4.408163
30
0
0
SEQEND
0
POLYLINE
8
PFV
62
0
66
1
70
8
0
VERTEX
8
PFV
62
0
70
32
10
4.387755
20
4.612245
30
0
0
VERTEX
8
PFV
62
0
70
32
10
4.265306
20
4.693878
30
0
0
VERTEX
8
PFV
62
0
70
32
10
4.142857
20
4.897959
30
0
0
VERTEX
8
PFV
62
0
70
32
10
4.142857
20
5.285714
30
0
0
VERTEX
8
PFV
62
0
70
32
10
3.224490
20
5.306122
30
0
0
VERTEX
8
PFV
62
0
70
32
10
3.020408
20
5.408163
30
0
0
VERTEX
8
PFV
62
0
70
32
10
2.979592
20
5.938776
30
0
0
VERTEX
8
PFV
62
0
70
32
10
2.979592
20
6.142857
30
0
0
VERTEX
8
PFV
62
0
70
32
10
3.061224
20
6.183673
30
0
0
VERTEX
8
PFV
62
0
70
32
10
3.102041
20
6.244898
30
0
0
VERTEX
8
PFV
62
0
70
32
10
3.204082
20
6.346939
30
0
0
VERTEX
8
PFV
62
0
70
32
10
3.244898
20
6.510204
30
0
0
VERTEX
8
PFV
62
0
70
32
10
3.061224
20
6.673469
30
0
0
VERTEX
8
PFV
62
0
70
32
10
3.061224
20
6.734694
30
0
0
VERTEX
8
PFV
62
0
70
32
10
3.020408
20
6.734694
30
0
0
VERTEX
8
PFV
62
0
70
32
10
3.020408
20
6.693878
30
0
0
VERTEX
8
PFV
62
0
70
32
10
2.959184
20
6.714286
30
0
0
VERTEX
8
PFV
62
0
70
32
10
2.897959
20
6.795918
30
0
0
VERTEX
8
PFV
62
0
70
32
10
2.775510
20
6.877551
30
0
0
VERTEX
8
PFV
62
0
70
32
10
2.857143
20
7.000000
30
0
0
VERTEX
8
PFV
62
0
70
32
10
2.938776
20
7.000000
30
0
0
VERTEX
8
PFV
62
0
70
32
10
2.979592
20
6.877551
30
0
0
VERTEX
8
PFV
62
0
70
32
10
2.918367
20
6.795918
30
0
0
SEQEND
0
POLYLINE
8
PFV
62
0
66
1
70
8
0
VERTEX
8
PFV
62
0
70
32
10
5.020408
20
4.612245
30
0
0
VERTEX
8
PFV
62
0
70
32
10
5.040816
20
4.897959
30
0
0
VERTEX
8
PFV
62
0
70
32
10
5.265306
20
5.102041
30
0
0
SEQEND
0
POLYLINE
8
PFV
62
0
66
1
70
8
0
VERTEX
8
PFV
62
0
70
32
10
5.285714
20
4.612245
30
0
0
VERTEX
8
PFV
62
0
70
32
10
5.285714
20
5.061224
30
0
0
SEQEND
0
POLYLINE
8
PFV
62
0
66
1
70
8
0
VERTEX
8
PFV
62
0
70
32
10
4.734694
20
4.632653
30
0
0
VERTEX
8
PFV
62
0
70
32
10
4.714286
20
5.244898
30
0
0
VERTEX
8
PFV
62
0
70
32
10
5.204082
20
5.244898
30
0
0
VERTEX
8
PFV
62
0
70
32
10
5.285714
20
5.224490
30
0
0
VERTEX
8
PFV
62
0
70
32
10
5.285714
20
5.183673
30
0
0
SEQEND
0
POLYLINE
8
PFV
62
0
66
1
70
8
0
VERTEX
8
PFV
62
0
70
32
10
4.734694
20
4.632653
30
0
0
VERTEX
8
PFV
62
0
70
32
10
4.734694
20
4.612245
30
0
0
SEQEND
0
POLYLINE
8
PFV
62
0
66
1
70
8
0
VERTEX
8
PFV
62
0
70
32
10
5.551020
20
4.673469
30
0
0
VERTEX
8
PFV
62
0
70
32
10
5.632653
20
4.673469
30
0
0
VERTEX
8
PFV
62
0
70
32
10
5.653061
20
4.693878
30
0
0
VERTEX
8
PFV
62
0
70
32
10
5.795918
20
4.693878
30
0
0
VERTEX
8
PFV
62
0
70
32
10
5.816327
20
4.714286
30
0
0
SEQEND
0
POLYLINE
8
PFV
62
0
66
1
70
8
0
VERTEX
8
PFV
62
0
70
32
10
5.551020
20
4.673469
30
0
0
VERTEX
8
PFV
62
0
70
32
10
5.530612
20
4.673469
30
0
0
SEQEND
0
POLYLINE
8
PFV
62
0
66
1
70
8
0
VERTEX
8
PFV
62
0
70
32
10
7.102041
20
4.734694
30
0
0
VERTEX
8
PFV
62
0
70
32
10
7.530612
20
5.040816
30
0
0
VERTEX
8
PFV
62
0
70
32
10
7.591837
20
4.979592
30
0
0
SEQEND
0
POLYLINE
8
PFV
62
0
66
1
70
8
0
VERTEX
8
PFV
62
0
70
32
10
7.102041
20
4.734694
30
0
0
VERTEX
8
PFV
62
0
70
32
10
7.122449
20
4.714286
30
0
0
SEQEND
0
POLYLINE
8
PFV
62
0
66
1
70
8
0
VERTEX
8
PFV
62
0
70
32
10
8.591837
20
4.734694
30
0
0
VERTEX
8
PFV
62
0
70
32
10
8.632653
20
4.755102
30
0
0
VERTEX
8
PFV
62
0
70
32
10
8.653061
20
4.857143
30
0
0
VERTEX
8
PFV
62
0
70
32
10
8.693878
20
4.857143
30
0
0
VERTEX
8
PFV
62
0
70
32
10
8.734694
20
5.204082
30
0
0
VERTEX
8
PFV
62
0
70
32
10
8.775510
20
5.367347
30
0
0
VERTEX
8
PFV
62
0
70
32
10
8.755102
20
6.061224
30
0
0
VERTEX
8
PFV
62
0
70
32
10
8.673469
20
6.387755
30
0
0
VERTEX
8
PFV
62
0
70
32
10
8.591837
20
6.653061
30
0
0
VERTEX
8
PFV
62
0
70
32
10
8.510204
20
6.857143
30
0
0
SEQEND
0
POLYLINE
8
PFV
62
0
66
1
70
8
0
VERTEX
8
PFV
62
0
70
32
10
8.591837
20
4.734694
30
0
0
VERTEX
8
PFV
62
0
70
32
10
8.571429
20
4.734694
30
0
0
SEQEND
0
POLYLINE
8
PFV
62
0
66
1
70
8
0
VERTEX
8
PFV
62
0
70
32
10
5.959184
20
4.755102
30
0
0
VERTEX
8
PFV
62
0
70
32
10
6.163265
20
4.775510
30
0
0
VERTEX
8
PFV
62
0
70
32
10
6.408163
20
4.877551
30
0
0
VERTEX
8
PFV
62
0
70
32
10
6.673469
20
4.979592
30
0
0
VERTEX
8
PFV
62
0
70
32
10
6.816327
20
5.040816
30
0
0
VERTEX
8
PFV
62
0
70
32
10
6.816327
20
5.081633
30
0
0
VERTEX
8
PFV
62
0
70
32
10
6.938776
20
5.142857
30
0
0
VERTEX
8
PFV
62
0
70
32
10
7.020408
20
5.183673
30
0
0
VERTEX
8
PFV
62
0
70
32
10
7.102041
20
5.285714
30
0
0
VERTEX
8
PFV
62
0
70
32
10
7.102041
20
5.326531
30
0
0
VERTEX
8
PFV
62
0
70
32
10
7.244898
20
5.367347
30
0
0
VERTEX
8
PFV
62
0
70
32
10
7.244898
20
5.265306
30
0
0
SEQEND
0
POLYLINE
8
PFV
62
0
66
1
70
8
0
VERTEX
8
PFV
62
0
70
32
10
5.959184
20
4.755102
30
0
0
VERTEX
8
PFV
62
0
70
32
10
5.938776
20
4.775510
30
0
0
SEQEND
0
POLYLINE
8
PFV
62
0
66
1
70
8
0
VERTEX
8
PFV
62
0
70
32
10
4.734694
20
4.795918
30
0
0
VERTEX
8
PFV
62
0
70
32
10
5.020408
20
4.795918
30
0
0
SEQEND
0
POLYLINE
8
PFV
62
0
66
1
70
8
0
VERTEX
8
PFV
62
0
70
32
10
5.897959
20
4.836735
30
0
0
VERTEX
8
PFV
62
0
70
32
10
5.877551
20
4.836735
30
0
0
VERTEX
8
PFV
62
0
70
32
10
5.857143
20
4.857143
30
0
0
VERTEX
8
PFV
62
0
70
32
10
5.857143
20
4.877551
30
0
0
VERTEX
8
PFV
62
0
70
32
10
5.877551
20
4.877551
30
0
0
SEQEND
0
POLYLINE
8
PFV
62
0
66
1
70
8
0
VERTEX
8
PFV
62
0
70
32
10
6.326531
20
4.857143
30
0
0
VERTEX
8
PFV
62
0
70
32
10
6.244898
20
4.979592
30
0
0
VERTEX
8
PFV
62
0
70
32
10
6.163265
20
5.000000
30
0
0
VERTEX
8
PFV
62
0
70
32
10
6.204082
20
5.020408
30
0
0
VERTEX
8
PFV
62
0
70
32
10
6.204082
20
4.979592
30
0
0
SEQEND
0
POLYLINE
8
PFV
62
0
66
1
70
8
0
VERTEX
8
PFV
62
0
70
32
10
6.326531
20
4.857143
30
0
0
VERTEX
8
PFV
62
0
70
32
10
6.306122
20
4.877551
30
0
0
SEQEND
0
POLYLINE
8
PFV
62
0
66
1
70
8
0
VERTEX
8
PFV
62
0
70
32
10
4.142857
20
4.877551
30
0
0
VERTEX
8
PFV
62
0
70
32
10
3.959184
20
4.734694
30
0
0
VERTEX
8
PFV
62
0
70
32
10
3.591837
20
4.816327
30
0
0
VERTEX
8
PFV
62
0
70
32
10
3.448980
20
5.122449
30
0
0
VERTEX
8
PFV
62
0
70
32
10
3.285714
20
5.000000
30
0
0
VERTEX
8
PFV
62
0
70
32
10
3.265306
20
4.918367
30
0
0
VERTEX
8
PFV
62
0
70
32
10
3.224490
20
4.918367
30
0
0
VERTEX
8
PFV
62
0
70
32
10
3.224490
20
4.959184
30
0
0
VERTEX
8
PFV
62
0
70
32
10
3.265306
20
4.959184
30
0
0
SEQEND
0
POLYLINE
8
PFV
62
0
66
1
70
8
0
VERTEX
8
PFV
62
0
70
32
10
8.326531
20
4.877551
30
0
0
VERTEX
8
PFV
62
0
70
32
10
8.326531
20
4.857143
30
0
0
VERTEX
8
PFV
62
0
70
32
10
8.367347
20
4.857143
30
0
0
VERTEX
8
PFV
62
0
70
32
10
8.367347
20
4.897959
30
0
0
SEQEND
0
POLYLINE
8
PFV
62
0
66
1
70
8
0
VERTEX
8
PFV
62
0
70
32
10
8.367347
20
4.897959
30
0
0
VERTEX
8
PFV
62
0
70
32
10
8.367347
20
4.918367
30
0
0
VERTEX
8
PFV
62
0
70
32
10
8.387755
20
4.938776
30
0
0
VERTEX
8
PFV
62
0
70
32
10
8.408163
20
4.938776
30
0
0
VERTEX
8
PFV
62
0
70
32
10
8.408163
20
4.897959
30
0
0
SEQEND
0
POLYLINE
8
PFV
62
0
66
1
70
8
0
VERTEX
8
PFV
62
0
70
32
10
2.551020
20
4.918367
30
0
0
VERTEX
8
PFV
62
0
70
32
10
2.530612
20
4.979592
30
0
0
VERTEX
8
PFV
62
0
70
32
10
2.448980
20
5.040816
30
0
0
VERTEX
8
PFV
62
0
70
32
10
2.306122
20
5.204082
30
0
0
VERTEX
8
PFV
62
0
70
32
10
2.204082
20
5.265306
30
0
0
VERTEX
8
PFV
62
0
70
32
10
2.163265
20
5.346939
30
0
0
VERTEX
8
PFV
62
0
70
32
10
2.040816
20
5.510204
30
0
0
VERTEX
8
PFV
62
0
70
32
10
1.938776
20
5.714286
30
0
0
VERTEX
8
PFV
62
0
70
32
10
1.795918
20
5.775510
30
0
0
VERTEX
8
PFV
62
0
70
32
10
1.836735
20
5.836735
30
0
0
VERTEX
8
PFV
62
0
70
32
10
1.877551
20
5.857143
30
0
0
VERTEX
8
PFV
62
0
70
32
10
1.877551
20
5.734694
30
0
0
SEQEND
0
POLYLINE
8
PFV
62
0
66
1
70
8
0
VERTEX
8
PFV
62
0
70
32
10
3.938776
20
4.918367
30
0
0
VERTEX
8
PFV
62
0
70
32
10
3.938776
20
4.938776
30
0
0
VERTEX
8
PFV
62
0
70
32
10
3.897959
20
4.938776
30
0
0
VERTEX
8
PFV
62
0
70
32
10
3.897959
20
4.897959
30
0
0
VERTEX
8
PFV
62
0
70
32
10
3.938776
20
4.897959
30
0
0
VERTEX
8
PFV
62
0
70
32
10
3.959184
20
4.918367
30
0
0
VERTEX
8
PFV
62
0
70
32
10
4.142857
20
4.918367
30
0
0
SEQEND
0
POLYLINE
8
PFV
62
0
66
1
70
8
0
VERTEX
8
PFV
62
0
70
32
10
8.265306
20
4.918367
30
0
0
VERTEX
8
PFV
62
0
70
32
10
8.306122
20
4.918367
30
0
0
SEQEND
0
POLYLINE
8
PFV
62
0
66
1
70
8
0
VERTEX
8
PFV
62
0
70
32
10
8.265306
20
4.918367
30
0
0
VERTEX
8
PFV
62
0
70
32
10
8.244898
20
4.918367
30
0
0
SEQEND
0
POLYLINE
8
PFV
62
0
66
1
70
8
0
VERTEX
8
PFV
62
0
70
32
10
6.102041
20
5.000000
30
0
0
VERTEX
8
PFV
62
0
70
32
10
6.163265
20
5.000000
30
0
0
SEQEND
0
POLYLINE
8
PFV
62
0
66
1
70
8
0
VERTEX
8
PFV
62
0
70
32
10
6.102041
20
5.000000
30
0
0
VERTEX
8
PFV
62
0
70
32
10
6.102041
20
4.959184
30
0
0
VERTEX
8
PFV
62
0
70
32
10
6.142857
20
4.959184
30
0
0
SEQEND
0
POLYLINE
8
PFV
62
0
66
1
70
8
0
VERTEX
8
PFV
62
0
70
32
10
6.102041
20
5.000000
30
0
0
VERTEX
8
PFV
62
0
70
32
10
6.020408
20
5.020408
30
0
0
VERTEX
8
PFV
62
0
70
32
10
5.816327
20
5.244898
30
0
0
VERTEX
8
PFV
62
0
70
32
10
5.632653
20
5.204082
30
0
0
VERTEX
8
PFV
62
0
70
32
10
5.632653
20
5.183673
30
0
0
SEQEND
0
POLYLINE
8
PFV
62
0
66
1
70
8
0
VERTEX
8
PFV
62
0
70
32
10
1.224490
20
5.020408
30
0
0
VERTEX
8
PFV
62
0
70
32
10
1.489796
20
5.265306
30
0
0
SEQEND
0
POLYLINE
8
PFV
62
0
66
1
70
8
0
VERTEX
8
PFV
62
0
70
32
10
6.204082
20
5.020408
30
0
0
VERTEX
8
PFV
62
0
70
32
10
6.204082
20
5.326531
30
0
0
VERTEX
8
PFV
62
0
70
32
10
6.244898
20
5.326531
30
0
0
VERTEX
8
PFV
62
0
70
32
10
6.408163
20
5.122449
30
0
0
VERTEX
8
PFV
62
0
70
32
10
6.387755
20
5.081633
30
0
0
VERTEX
8
PFV
62
0
70
32
10
6.428571
20
5.081633
30
0
0
VERTEX
8
PFV
62
0
70
32
10
6.428571
20
5.163265
30
0
0
VERTEX
8
PFV
62
0
70
32
10
6.469388
20
5.163265
30
0
0
VERTEX
8
PFV
62
0
70
32
10
6.530612
20
5.122449
30
0
0
SEQEND
0
POLYLINE
8
PFV
62
0
66
1
70
8
0
VERTEX
8
PFV
62
0
70
32
10
7.530612
20
5.040816
30
0
0
VERTEX
8
PFV
62
0
70
32
10
7.612245
20
5.142857
30
0
0
VERTEX
8
PFV
62
0
70
32
10
7.673469
20
5.183673
30
0
0
VERTEX
8
PFV
62
0
70
32
10
7.816327
20
5.367347
30
0
0
VERTEX
8
PFV
62
0
70
32
10
7.857143
20
5.367347
30
0
0
VERTEX
8
PFV
62
0
70
32
10
7.918367
20
5.326531
30
0
0
VERTEX
8
PFV
62
0
70
32
10
7.918367
20
5.408163
30
0
0
VERTEX
8
PFV
62
0
70
32
10
7.918367
20
5.489796
30
0
0
VERTEX
8
PFV
62
0
70
32
10
8.000000
20
5.612245
30
0
0
VERTEX
8
PFV
62
0
70
32
10
8.040816
20
5.938776
30
0
0
VERTEX
8
PFV
62
0
70
32
10
8.040816
20
6.040816
30
0
0
VERTEX
8
PFV
62
0
70
32
10
8.040816
20
6.122449
30
0
0
VERTEX
8
PFV
62
0
70
32
10
7.918367
20
6.224490
30
0
0
VERTEX
8
PFV
62
0
70
32
10
7.897959
20
6.326531
30
0
0
VERTEX
8
PFV
62
0
70
32
10
7.775510
20
6.448980
30
0
0
VERTEX
8
PFV
62
0
70
32
10
7.755102
20
6.795918
30
0
0
VERTEX
8
PFV
62
0
70
32
10
7.755102
20
7.040816
30
0
0
VERTEX
8
PFV
62
0
70
32
10
7.979592
20
7.040816
30
0
0
VERTEX
8
PFV
62
0
70
32
10
8.040816
20
6.938776
30
0
0
VERTEX
8
PFV
62
0
70
32
10
8.081633
20
6.428571
30
0
0
VERTEX
8
PFV
62
0
70
32
10
8.020408
20
6.346939
30
0
0
VERTEX
8
PFV
62
0
70
32
10
8.265306
20
6.102041
30
0
0
SEQEND
0
POLYLINE
8
PFV
62
0
66
1
70
8
0
VERTEX
8
PFV
62
0
70
32
10
7.530612
20
5.040816
30
0
0
VERTEX
8
PFV
62
0
70
32
10
7.530612
20
5.020408
30
0
0
SEQEND
0
POLYLINE
8
PFV
62
0
66
1
70
8
0
VERTEX
8
PFV
62
0
70
32
10
3.428571
20
5.122449
30
0
0
VERTEX
8
PFV
62
0
70
32
10
3.428571
20
5.183673
30
0
0
VERTEX
8
PFV
62
0
70
32
10
3.408163
20
5.204082
30
0
0
VERTEX
8
PFV
62
0
70
32
10
3.408163
20
5.244898
30
0
0
VERTEX
8
PFV
62
0
70
32
10
3.387755
20
5.265306
30
0
0
VERTEX
8
PFV
62
0
70
32
10
3.387755
20
5.244898
30
0
0
SEQEND
0
POLYLINE
8
PFV
62
0
66
1
70
8
0
VERTEX
8
PFV
62
0
70
32
10
3.428571
20
5.122449
30
0
0
VERTEX
8
PFV
62
0
70
32
10
3.448980
20
5.102041
30
0
0
SEQEND
0
POLYLINE
8
PFV
62
0
66
1
70
8
0
VERTEX
8
PFV
62
0
70
32
10
6.428571
20
5.122449
30
0
0
VERTEX
8
PFV
62
0
70
32
10
6.469388
20
5.122449
30
0
0
VERTEX
8
PFV
62
0
70
32
10
6.469388
20
5.142857
30
0
0
SEQEND
0
POLYLINE
8
PFV
62
0
66
1
70
8
0
VERTEX
8
PFV
62
0
70
32
10
8.714286
20
5.142857
30
0
0
VERTEX
8
PFV
62
0
70
32
10
8.734694
20
5.142857
30
0
0
SEQEND
0
POLYLINE
8
PFV
62
0
66
1
70
8
0
VERTEX
8
PFV
62
0
70
32
10
8.714286
20
5.142857
30
0
0
VERTEX
8
PFV
62
0
70
32
10
8.612245
20
5.224490
30
0
0
VERTEX
8
PFV
62
0
70
32
10
8.448980
20
5.244898
30
0
0
SEQEND
0
POLYLINE
8
PFV
62
0
66
1
70
8
0
VERTEX
8
PFV
62
0
70
32
10
8.714286
20
5.142857
30
0
0
VERTEX
8
PFV
62
0
70
32
10
8.693878
20
5.163265
30
0
0
SEQEND
0
POLYLINE
8
PFV
62
0
66
1
70
8
0
VERTEX
8
PFV
62
0
70
32
10
5.632653
20
5.183673
30
0
0
VERTEX
8
PFV
62
0
70
32
10
5.632653
20
5.163265
30
0
0
SEQEND
0
POLYLINE
8
PFV
62
0
66
1
70
8
0
VERTEX
8
PFV
62
0
70
32
10
2.551020
20
5.224490
30
0
0
VERTEX
8
PFV
62
0
70
32
10
2.551020
20
5.326531
30
0
0
VERTEX
8
PFV
62
0
70
32
10
2.653061
20
5.428571
30
0
0
VERTEX
8
PFV
62
0
70
32
10
2.775510
20
5.428571
30
0
0
VERTEX
8
PFV
62
0
70
32
10
2.775510
20
5.346939
30
0
0
VERTEX
8
PFV
62
0
70
32
10
2.632653
20
5.204082
30
0
0
VERTEX
8
PFV
62
0
70
32
10
2.510204
20
5.244898
30
0
0
VERTEX
8
PFV
62
0
70
32
10
2.510204
20
5.244898
30
0
0
SEQEND
0
POLYLINE
8
PFV
62
0
66
1
70
8
0
VERTEX
8
PFV
62
0
70
32
10
2.510204
20
5.244898
30
0
0
VERTEX
8
PFV
62
0
70
32
10
2.469388
20
5.244898
30
0
0
SEQEND
0
POLYLINE
8
PFV
62
0
66
1
70
8
0
VERTEX
8
PFV
62
0
70
32
10
4.163265
20
5.244898
30
0
0
VERTEX
8
PFV
62
0
70
32
10
4.714286
20
5.244898
30
0
0
SEQEND
0
POLYLINE
8
PFV
62
0
66
1
70
8
0
VERTEX
8
PFV
62
0
70
32
10
4.163265
20
5.244898
30
0
0
VERTEX
8
PFV
62
0
70
32
10
4.142857
20
5.265306
30
0
0
SEQEND
0
POLYLINE
8
PFV
62
0
66
1
70
8
0
VERTEX
8
PFV
62
0
70
32
10
5.204082
20
5.244898
30
0
0
VERTEX
8
PFV
62
0
70
32
10
5.224490
20
5.367347
30
0
0
VERTEX
8
PFV
62
0
70
32
10
5.224490
20
5.551020
30
0
0
VERTEX
8
PFV
62
0
70
32
10
5.102041
20
5.938776
30
0
0
VERTEX
8
PFV
62
0
70
32
10
5.183673
20
6.020408
30
0
0
SEQEND
0
POLYLINE
8
PFV
62
0
66
1
70
8
0
VERTEX
8
PFV
62
0
70
32
10
5.816327
20
5.244898
30
0
0
VERTEX
8
PFV
62
0
70
32
10
5.816327
20
5.224490
30
0
0
SEQEND
0
POLYLINE
8
PFV
62
0
66
1
70
8
0
VERTEX
8
PFV
62
0
70
32
10
5.816327
20
5.244898
30
0
0
VERTEX
8
PFV
62
0
70
32
10
5.836735
20
5.265306
30
0
0
VERTEX
8
PFV
62
0
70
32
10
5.857143
20
5.285714
30
0
0
VERTEX
8
PFV
62
0
70
32
10
6.142857
20
5.285714
30
0
0
VERTEX
8
PFV
62
0
70
32
10
6.163265
20
5.306122
30
0
0
VERTEX
8
PFV
62
0
70
32
10
6.204082
20
5.306122
30
0
0
SEQEND
0
POLYLINE
8
PFV
62
0
66
1
70
8
0
VERTEX
8
PFV
62
0
70
32
10
7.265306
20
5.285714
30
0
0
VERTEX
8
PFV
62
0
70
32
10
7.285714
20
5.285714
30
0
0
VERTEX
8
PFV
62
0
70
32
10
7.306122
20
5.265306
30
0
0
VERTEX
8
PFV
62
0
70
32
10
7.326531
20
5.244898
30
0
0
SEQEND
0
POLYLINE
8
PFV
62
0
66
1
70
8
0
VERTEX
8
PFV
62
0
70
32
10
7.265306
20
5.285714
30
0
0
VERTEX
8
PFV
62
0
70
32
10
7.285714
20
5.265306
30
0
0
SEQEND
0
POLYLINE
8
PFV
62
0
66
1
70
8
0
VERTEX
8
PFV
62
0
70
32
10
6.244898
20
5.326531
30
0
0
VERTEX
8
PFV
62
0
70
32
10
6.265306
20
5.428571
30
0
0
VERTEX
8
PFV
62
0
70
32
10
6.387755
20
5.489796
30
0
0
VERTEX
8
PFV
62
0
70
32
10
6.612245
20
5.244898
30
0
0
VERTEX
8
PFV
62
0
70
32
10
6.673469
20
5.244898
30
0
0
VERTEX
8
PFV
62
0
70
32
10
6.693878
20
5.224490
30
0
0
SEQEND
0
POLYLINE
8
PFV
62
0
66
1
70
8
0
VERTEX
8
PFV
62
0
70
32
10
6.244898
20
5.326531
30
0
0
VERTEX
8
PFV
62
0
70
32
10
6.244898
20
5.306122
30
0
0
SEQEND
0
POLYLINE
8
PFV
62
0
66
1
70
8
0
VERTEX
8
PFV
62
0
70
32
10
7.244898
20
5.367347
30
0
0
VERTEX
8
PFV
62
0
70
32
10
7.326531
20
5.428571
30
0
0
VERTEX
8
PFV
62
0
70
32
10
7.367347
20
5.510204
30
0
0
VERTEX
8
PFV
62
0
70
32
10
7.408163
20
5.510204
30
0
0
VERTEX
8
PFV
62
0
70
32
10
7.530612
20
5.469388
30
0
0
VERTEX
8
PFV
62
0
70
32
10
7.632653
20
5.551020
30
0
0
VERTEX
8
PFV
62
0
70
32
10
7.714286
20
6.061224
30
0
0
VERTEX
8
PFV
62
0
70
32
10
7.877551
20
6.224490
30
0
0
VERTEX
8
PFV
62
0
70
32
10
7.918367
20
6.224490
30
0
0
SEQEND
0
POLYLINE
8
PFV
62
0
66
1
70
8
0
VERTEX
8
PFV
62
0
70
32
10
7.244898
20
5.367347
30
0
0
VERTEX
8
PFV
62
0
70
32
10
7.244898
20
5.346939
30
0
0
SEQEND
0
POLYLINE
8
PFV
62
0
66
1
70
8
0
VERTEX
8
PFV
62
0
70
32
10
7.857143
20
5.367347
30
0
0
VERTEX
8
PFV
62
0
70
32
10
7.857143
20
5.408163
30
0
0
VERTEX
8
PFV
62
0
70
32
10
7.877551
20
5.428571
30
0
0
VERTEX
8
PFV
62
0
70
32
10
7.897959
20
5.408163
30
0
0
VERTEX
8
PFV
62
0
70
32
10
7.897959
20
5.428571
30
0
0
SEQEND
0
POLYLINE
8
PFV
62
0
66
1
70
8
0
VERTEX
8
PFV
62
0
70
32
10
7.857143
20
5.367347
30
0
0
VERTEX
8
PFV
62
0
70
32
10
7.857143
20
5.346939
30
0
0
SEQEND
0
POLYLINE
8
PFV
62
0
66
1
70
8
0
VERTEX
8
PFV
62
0
70
32
10
2.795918
20
5.387755
30
0
0
VERTEX
8
PFV
62
0
70
32
10
2.836735
20
5.387755
30
0
0
VERTEX
8
PFV
62
0
70
32
10
3.000000
20
5.346939
30
0
0
VERTEX
8
PFV
62
0
70
32
10
3.040816
20
5.387755
30
0
0
SEQEND
0
POLYLINE
8
PFV
62
0
66
1
70
8
0
VERTEX
8
PFV
62
0
70
32
10
2.795918
20
5.387755
30
0
0
VERTEX
8
PFV
62
0
70
32
10
2.775510
20
5.408163
30
0
0
SEQEND
0
POLYLINE
8
PFV
62
0
66
1
70
8
0
VERTEX
8
PFV
62
0
70
32
10
3.040816
20
5.387755
30
0
0
VERTEX
8
PFV
62
0
70
32
10
3.061224
20
5.387755
30
0
0
SEQEND
0
POLYLINE
8
PFV
62
0
66
1
70
8
0
VERTEX
8
PFV
62
0
70
32
10
2.653061
20
5.428571
30
0
0
VERTEX
8
PFV
62
0
70
32
10
2.551020
20
5.489796
30
0
0
VERTEX
8
PFV
62
0
70
32
10
2.551020
20
5.591837
30
0
0
VERTEX
8
PFV
62
0
70
32
10
2.959184
20
5.938776
30
0
0
SEQEND
0
POLYLINE
8
PFV
62
0
66
1
70
8
0
VERTEX
8
PFV
62
0
70
32
10
7.530612
20
5.469388
30
0
0
VERTEX
8
PFV
62
0
70
32
10
7.530612
20
5.428571
30
0
0
VERTEX
8
PFV
62
0
70
32
10
7.510204
20
5.408163
30
0
0
SEQEND
0
POLYLINE
8
PFV
62
0
66
1
70
8
0
VERTEX
8
PFV
62
0
70
32
10
6.367347
20
5.489796
30
0
0
VERTEX
8
PFV
62
0
70
32
10
6.387755
20
5.591837
30
0
0
VERTEX
8
PFV
62
0
70
32
10
6.489796
20
5.795918
30
0
0
VERTEX
8
PFV
62
0
70
32
10
6.306122
20
5.979592
30
0
0
VERTEX
8
PFV
62
0
70
32
10
5.918367
20
6.122449
30
0
0
VERTEX
8
PFV
62
0
70
32
10
5.510204
20
6.489796
30
0
0
VERTEX
8
PFV
62
0
70
32
10
5.469388
20
6.591837
30
0
0
VERTEX
8
PFV
62
0
70
32
10
5.571429
20
6.693878
30
0
0
SEQEND
0
POLYLINE
8
PFV
62
0
66
1
70
8
0
VERTEX
8
PFV
62
0
70
32
10
6.367347
20
5.489796
30
0
0
VERTEX
8
PFV
62
0
70
32
10
6.387755
20
5.469388
30
0
0
SEQEND
0
POLYLINE
8
PFV
62
0
66
1
70
8
0
VERTEX
8
PFV
62
0
70
32
10
7.387755
20
5.510204
30
0
0
VERTEX
8
PFV
62
0
70
32
10
7.448980
20
5.673469
30
0
0
VERTEX
8
PFV
62
0
70
32
10
7.653061
20
5.734694
30
0
0
SEQEND
0
POLYLINE
8
PFV
62
0
66
1
70
8
0
VERTEX
8
PFV
62
0
70
32
10
7.387755
20
5.510204
30
0
0
VERTEX
8
PFV
62
0
70
32
10
7.408163
20
5.489796
30
0
0
SEQEND
0
POLYLINE
8
PFV
62
0
66
1
70
8
0
VERTEX
8
PFV
62
0
70
32
10
7.061224
20
5.571429
30
0
0
VERTEX
8
PFV
62
0
70
32
10
7.061224
20
5.612245
30
0
0
VERTEX
8
PFV
62
0
70
32
10
7.081633
20
5.632653
30
0
0
VERTEX
8
PFV
62
0
70
32
10
7.081633
20
5.653061
30
0
0
VERTEX
8
PFV
62
0
70
32
10
7.122449
20
5.653061
30
0
0
VERTEX
8
PFV
62
0
70
32
10
7.122449
20
5.612245
30
0
0
VERTEX
8
PFV
62
0
70
32
10
7.061224
20
5.612245
30
0
0
SEQEND
0
POLYLINE
8
PFV
62
0
66
1
70
8
0
VERTEX
8
PFV
62
0
70
32
10
7.061224
20
5.571429
30
0
0
VERTEX
8
PFV
62
0
70
32
10
7.081633
20
5.571429
30
0
0
VERTEX
8
PFV
62
0
70
32
10
7.081633
20
5.530612
30
0
0
VERTEX
8
PFV
62
0
70
32
10
7.040816
20
5.530612
30
0
0
VERTEX
8
PFV
62
0
70
32
10
7.040816
20
5.571429
30
0
0
VERTEX
8
PFV
62
0
70
32
10
7.061224
20
5.571429
30
0
0
SEQEND
0
POLYLINE
8
PFV
62
0
66
1
70
8
0
VERTEX
8
PFV
62
0
70
32
10
2.530612
20
5.591837
30
0
0
VERTEX
8
PFV
62
0
70
32
10
2.469388
20
5.612245
30
0
0
VERTEX
8
PFV
62
0
70
32
10
2.408163
20
5.836735
30
0
0
VERTEX
8
PFV
62
0
70
32
10
2.346939
20
5.857143
30
0
0
VERTEX
8
PFV
62
0
70
32
10
2.326531
20
6.061224
30
0
0
VERTEX
8
PFV
62
0
70
32
10
2.510204
20
6.061224
30
0
0
VERTEX
8
PFV
62
0
70
32
10
2.510204
20
6.102041
30
0
0
VERTEX
8
PFV
62
0
70
32
10
2.632653
20
6.183673
30
0
0
VERTEX
8
PFV
62
0
70
32
10
2.612245
20
6.408163
30
0
0
VERTEX
8
PFV
62
0
70
32
10
2.612245
20
6.367347
30
0
0
SEQEND
0
POLYLINE
8
PFV
62
0
66
1
70
8
0
VERTEX
8
PFV
62
0
70
32
10
7.061224
20
5.612245
30
0
0
VERTEX
8
PFV
62
0
70
32
10
6.959184
20
5.653061
30
0
0
VERTEX
8
PFV
62
0
70
32
10
6.714286
20
5.897959
30
0
0
VERTEX
8
PFV
62
0
70
32
10
6.775510
20
6.061224
30
0
0
VERTEX
8
PFV
62
0
70
32
10
6.795918
20
6.061224
30
0
0
VERTEX
8
PFV
62
0
70
32
10
7.163265
20
5.693878
30
0
0
VERTEX
8
PFV
62
0
70
32
10
7.163265
20
5.653061
30
0
0
SEQEND
0
POLYLINE
8
PFV
62
0
66
1
70
8
0
VERTEX
8
PFV
62
0
70
32
10
8.775510
20
5.673469
30
0
0
VERTEX
8
PFV
62
0
70
32
10
8.571429
20
5.693878
30
0
0
VERTEX
8
PFV
62
0
70
32
10
8.571429
20
5.775510
30
0
0
VERTEX
8
PFV
62
0
70
32
10
8.775510
20
5.775510
30
0
0
SEQEND
0
POLYLINE
8
PFV
62
0
66
1
70
8
0
VERTEX
8
PFV
62
0
70
32
10
1.877551
20
5.734694
30
0
0
VERTEX
8
PFV
62
0
70
32
10
1.877551
20
5.714286
30
0
0
VERTEX
8
PFV
62
0
70
32
10
1.857143
20
5.714286
30
0
0
VERTEX
8
PFV
62
0
70
32
10
1.836735
20
5.693878
30
0
0
SEQEND
0
POLYLINE
8
PFV
62
0
66
1
70
8
0
VERTEX
8
PFV
62
0
70
32
10
7.653061
20
5.734694
30
0
0
VERTEX
8
PFV
62
0
70
32
10
7.775510
20
5.755102
30
0
0
VERTEX
8
PFV
62
0
70
32
10
8.020408
20
5.938776
30
0
0
SEQEND
0
POLYLINE
8
PFV
62
0
66
1
70
8
0
VERTEX
8
PFV
62
0
70
32
10
2.428571
20
5.775510
30
0
0
VERTEX
8
PFV
62
0
70
32
10
2.755102
20
5.775510
30
0
0
SEQEND
0
POLYLINE
8
PFV
62
0
66
1
70
8
0
VERTEX
8
PFV
62
0
70
32
10
6.489796
20
5.795918
30
0
0
VERTEX
8
PFV
62
0
70
32
10
6.571429
20
5.836735
30
0
0
VERTEX
8
PFV
62
0
70
32
10
6.714286
20
5.897959
30
0
0
SEQEND
0
POLYLINE
8
PFV
62
0
66
1
70
8
0
VERTEX
8
PFV
62
0
70
32
10
6.489796
20
5.795918
30
0
0
VERTEX
8
PFV
62
0
70
32
10
6.469388
20
5.795918
30
0
0
SEQEND
0
POLYLINE
8
PFV
62
0
66
1
70
8
0
VERTEX
8
PFV
62
0
70
32
10
2.408163
20
5.836735
30
0
0
VERTEX
8
PFV
62
0
70
32
10
2.489796
20
5.918367
30
0
0
VERTEX
8
PFV
62
0
70
32
10
2.653061
20
5.959184
30
0
0
VERTEX
8
PFV
62
0
70
32
10
2.795918
20
6.102041
30
0
0
VERTEX
8
PFV
62
0
70
32
10
2.755102
20
6.163265
30
0
0
VERTEX
8
PFV
62
0
70
32
10
2.693878
20
6.224490
30
0
0
VERTEX
8
PFV
62
0
70
32
10
2.632653
20
6.224490
30
0
0
SEQEND
0
POLYLINE
8
PFV
62
0
66
1
70
8
0
VERTEX
8
PFV
62
0
70
32
10
1.857143
20
5.857143
30
0
0
VERTEX
8
PFV
62
0
70
32
10
1.816327
20
6.102041
30
0
0
VERTEX
8
PFV
62
0
70
32
10
1.816327
20
6.653061
30
0
0
VERTEX
8
PFV
62
0
70
32
10
1.918367
20
6.979592
30
0
0
VERTEX
8
PFV
62
0
70
32
10
2.040816
20
7.183673
30
0
0
VERTEX
8
PFV
62
0
70
32
10
2.061224
20
7.265306
30
0
0
VERTEX
8
PFV
62
0
70
32
10
2.204082
20
7.326531
30
0
0
VERTEX
8
PFV
62
0
70
32
10
2.306122
20
7.326531
30
0
0
VERTEX
8
PFV
62
0
70
32
10
2.408163
20
7.244898
30
0
0
VERTEX
8
PFV
62
0
70
32
10
2.448980
20
7.285714
30
0
0
VERTEX
8
PFV
62
0
70
32
10
2.571429
20
7.285714
30
0
0
VERTEX
8
PFV
62
0
70
32
10
2.714286
20
7.122449
30
0
0
VERTEX
8
PFV
62
0
70
32
10
2.734694
20
6.897959
30
0
0
VERTEX
8
PFV
62
0
70
32
10
2.734694
20
6.897959
30
0
0
SEQEND
0
POLYLINE
8
PFV
62
0
66
1
70
8
0
VERTEX
8
PFV
62
0
70
32
10
6.714286
20
5.897959
30
0
0
VERTEX
8
PFV
62
0
70
32
10
6.734694
20
5.897959
30
0
0
SEQEND
0
POLYLINE
8
PFV
62
0
66
1
70
8
0
VERTEX
8
PFV
62
0
70
32
10
2.530612
20
5.918367
30
0
0
VERTEX
8
PFV
62
0
70
32
10
2.530612
20
5.959184
30
0
0
VERTEX
8
PFV
62
0
70
32
10
2.551020
20
5.979592
30
0
0
VERTEX
8
PFV
62
0
70
32
10
2.551020
20
6.000000
30
0
0
VERTEX
8
PFV
62
0
70
32
10
2.510204
20
6.000000
30
0
0
VERTEX
8
PFV
62
0
70
32
10
2.510204
20
5.959184
30
0
0
VERTEX
8
PFV
62
0
70
32
10
2.530612
20
5.959184
30
0
0
SEQEND
0
POLYLINE
8
PFV
62
0
66
1
70
8
0
VERTEX
8
PFV
62
0
70
32
10
2.571429
20
5.938776
30
0
0
VERTEX
8
PFV
62
0
70
32
10
2.571429
20
5.959184
30
0
0
VERTEX
8
PFV
62
0
70
32
10
2.551020
20
5.959184
30
0
0
VERTEX
8
PFV
62
0
70
32
10
2.571429
20
5.938776
30
0
0
SEQEND
0
POLYLINE
8
PFV
62
0
66
1
70
8
0
VERTEX
8
PFV
62
0
70
32
10
5.102041
20
5.938776
30
0
0
VERTEX
8
PFV
62
0
70
32
10
4.857143
20
6.163265
30
0
0
VERTEX
8
PFV
62
0
70
32
10
4.836735
20
6.224490
30
0
0
VERTEX
8
PFV
62
0
70
32
10
4.775510
20
6.265306
30
0
0
VERTEX
8
PFV
62
0
70
32
10
4.530612
20
6.489796
30
0
0
VERTEX
8
PFV
62
0
70
32
10
4.571429
20
6.591837
30
0
0
VERTEX
8
PFV
62
0
70
32
10
4.632653
20
6.653061
30
0
0
SEQEND
0
POLYLINE
8
PFV
62
0
66
1
70
8
0
VERTEX
8
PFV
62
0
70
32
10
2.306122
20
6.040816
30
0
0
VERTEX
8
PFV
62
0
70
32
10
2.244898
20
6.163265
30
0
0
VERTEX
8
PFV
62
0
70
32
10
2.224490
20
6.265306
30
0
0
VERTEX
8
PFV
62
0
70
32
10
2.224490
20
6.734694
30
0
0
VERTEX
8
PFV
62
0
70
32
10
2.306122
20
6.775510
30
0
0
VERTEX
8
PFV
62
0
70
32
10
2.469388
20
6.591837
30
0
0
VERTEX
8
PFV
62
0
70
32
10
2.510204
20
6.346939
30
0
0
VERTEX
8
PFV
62
0
70
32
10
2.530612
20
6.346939
30
0
0
VERTEX
8
PFV
62
0
70
32
10
2.571429
20
6.306122
30
0
0
SEQEND
0
POLYLINE
8
PFV
62
0
66
1
70
8
0
VERTEX
8
PFV
62
0
70
32
10
6.775510
20
6.061224
30
0
0
VERTEX
8
PFV
62
0
70
32
10
6.775510
20
6.102041
30
0
0
VERTEX
8
PFV
62
0
70
32
10
6.816327
20
6.102041
30
0
0
VERTEX
8
PFV
62
0
70
32
10
6.857143
20
6.183673
30
0
0
VERTEX
8
PFV
62
0
70
32
10
6.897959
20
6.224490
30
0
0
VERTEX
8
PFV
62
0
70
32
10
6.918367
20
6.306122
30
0
0
VERTEX
8
PFV
62
0
70
32
10
6.959184
20
6.326531
30
0
0
VERTEX
8
PFV
62
0
70
32
10
7.000000
20
6.489796
30
0
0
VERTEX
8
PFV
62
0
70
32
10
6.979592
20
6.979592
30
0
0
VERTEX
8
PFV
62
0
70
32
10
6.938776
20
7.183673
30
0
0
VERTEX
8
PFV
62
0
70
32
10
6.897959
20
7.224490
30
0
0
VERTEX
8
PFV
62
0
70
32
10
6.877551
20
7.326531
30
0
0
VERTEX
8
PFV
62
0
70
32
10
6.795918
20
7.428571
30
0
0
VERTEX
8
PFV
62
0
70
32
10
6.897959
20
7.530612
30
0
0
VERTEX
8
PFV
62
0
70
32
10
6.897959
20
7.591837
30
0
0
VERTEX
8
PFV
62
0
70
32
10
6.938776
20
7.591837
30
0
0
VERTEX
8
PFV
62
0
70
32
10
6.938776
20
7.469388
30
0
0
VERTEX
8
PFV
62
0
70
32
10
6.836735
20
7.367347
30
0
0
SEQEND
0
POLYLINE
8
PFV
62
0
66
1
70
8
0
VERTEX
8
PFV
62
0
70
32
10
6.775510
20
6.061224
30
0
0
VERTEX
8
PFV
62
0
70
32
10
6.795918
20
6.040816
30
0
0
SEQEND
0
POLYLINE
8
PFV
62
0
66
1
70
8
0
VERTEX
8
PFV
62
0
70
32
10
2.346939
20
6.081633
30
0
0
VERTEX
8
PFV
62
0
70
32
10
2.469388
20
6.204082
30
0
0
VERTEX
8
PFV
62
0
70
32
10
2.632653
20
6.204082
30
0
0
SEQEND
0
POLYLINE
8
PFV
62
0
66
1
70
8
0
VERTEX
8
PFV
62
0
70
32
10
2.469388
20
6.081633
30
0
0
VERTEX
8
PFV
62
0
70
32
10
2.469388
20
6.102041
30
0
0
VERTEX
8
PFV
62
0
70
32
10
2.510204
20
6.102041
30
0
0
SEQEND
0
POLYLINE
8
PFV
62
0
66
1
70
8
0
VERTEX
8
PFV
62
0
70
32
10
2.469388
20
6.081633
30
0
0
VERTEX
8
PFV
62
0
70
32
10
2.469388
20
6.061224
30
0
0
SEQEND
0
POLYLINE
8
PFV
62
0
66
1
70
8
0
VERTEX
8
PFV
62
0
70
32
10
2.795918
20
6.122449
30
0
0
VERTEX
8
PFV
62
0
70
32
10
2.959184
20
6.122449
30
0
0
SEQEND
0
POLYLINE
8
PFV
62
0
66
1
70
8
0
VERTEX
8
PFV
62
0
70
32
10
2.795918
20
6.122449
30
0
0
VERTEX
8
PFV
62
0
70
32
10
2.775510
20
6.142857
30
0
0
SEQEND
0
POLYLINE
8
PFV
62
0
66
1
70
8
0
VERTEX
8
PFV
62
0
70
32
10
7.408163
20
6.142857
30
0
0
VERTEX
8
PFV
62
0
70
32
10
7.448980
20
6.142857
30
0
0
VERTEX
8
PFV
62
0
70
32
10
7.428571
20
6.326531
30
0
0
VERTEX
8
PFV
62
0
70
32
10
7.265306
20
6.469388
30
0
0
VERTEX
8
PFV
62
0
70
32
10
7.367347
20
6.612245
30
0
0
VERTEX
8
PFV
62
0
70
32
10
7.448980
20
6.673469
30
0
0
VERTEX
8
PFV
62
0
70
32
10
7.448980
20
6.775510
30
0
0
SEQEND
0
POLYLINE
8
PFV
62
0
66
1
70
8
0
VERTEX
8
PFV
62
0
70
32
10
7.408163
20
6.142857
30
0
0
VERTEX
8
PFV
62
0
70
32
10
7.408163
20
6.061224
30
0
0
SEQEND
0
POLYLINE
8
PFV
62
0
66
1
70
8
0
VERTEX
8
PFV
62
0
70
32
10
7.408163
20
6.142857
30
0
0
VERTEX
8
PFV
62
0
70
32
10
7.306122
20
6.204082
30
0
0
VERTEX
8
PFV
62
0
70
32
10
7.306122
20
6.244898
30
0
0
VERTEX
8
PFV
62
0
70
32
10
7.448980
20
6.244898
30
0
0
SEQEND
0
POLYLINE
8
PFV
62
0
66
1
70
8
0
VERTEX
8
PFV
62
0
70
32
10
2.632653
20
6.224490
30
0
0
VERTEX
8
PFV
62
0
70
32
10
2.612245
20
6.244898
30
0
0
SEQEND
0
POLYLINE
8
PFV
62
0
66
1
70
8
0
VERTEX
8
PFV
62
0
70
32
10
7.673469
20
6.224490
30
0
0
VERTEX
8
PFV
62
0
70
32
10
7.673469
20
6.265306
30
0
0
VERTEX
8
PFV
62
0
70
32
10
7.632653
20
6.265306
30
0
0
VERTEX
8
PFV
62
0
70
32
10
7.632653
20
6.224490
30
0
0
VERTEX
8
PFV
62
0
70
32
10
7.877551
20
6.224490
30
0
0
SEQEND
0
POLYLINE
8
PFV
62
0
66
1
70
8
0
VERTEX
8
PFV
62
0
70
32
10
7.918367
20
6.224490
30
0
0
VERTEX
8
PFV
62
0
70
32
10
7.938776
20
6.224490
30
0
0
SEQEND
0
POLYLINE
8
PFV
62
0
66
1
70
8
0
VERTEX
8
PFV
62
0
70
32
10
2.244898
20
6.244898
30
0
0
VERTEX
8
PFV
62
0
70
32
10
2.346939
20
6.326531
30
0
0
VERTEX
8
PFV
62
0
70
32
10
2.510204
20
6.346939
30
0
0
SEQEND
0
POLYLINE
8
PFV
62
0
66
1
70
8
0
VERTEX
8
PFV
62
0
70
32
10
2.244898
20
6.244898
30
0
0
VERTEX
8
PFV
62
0
70
32
10
2.224490
20
6.244898
30
0
0
SEQEND
0
POLYLINE
8
PFV
62
0
66
1
70
8
0
VERTEX
8
PFV
62
0
70
32
10
7.306122
20
6.244898
30
0
0
VERTEX
8
PFV
62
0
70
32
10
7.183673
20
6.326531
30
0
0
VERTEX
8
PFV
62
0
70
32
10
7.061224
20
6.469388
30
0
0
VERTEX
8
PFV
62
0
70
32
10
7.265306
20
6.489796
30
0
0
SEQEND
0
POLYLINE
8
PFV
62
0
66
1
70
8
0
VERTEX
8
PFV
62
0
70
32
10
7.918367
20
6.306122
30
0
0
VERTEX
8
PFV
62
0
70
32
10
7.938776
20
6.306122
30
0
0
VERTEX
8
PFV
62
0
70
32
10
7.959184
20
6.326531
30
0
0
VERTEX
8
PFV
62
0
70
32
10
7.979592
20
6.346939
30
0
0
VERTEX
8
PFV
62
0
70
32
10
8.020408
20
6.346939
30
0
0
SEQEND
0
POLYLINE
8
PFV
62
0
66
1
70
8
0
VERTEX
8
PFV
62
0
70
32
10
7.918367
20
6.306122
30
0
0
VERTEX
8
PFV
62
0
70
32
10
7.897959
20
6.306122
30
0
0
SEQEND
0
POLYLINE
8
PFV
62
0
66
1
70
8
0
VERTEX
8
PFV
62
0
70
32
10
2.612245
20
6.367347
30
0
0
VERTEX
8
PFV
62
0
70
32
10
2.632653
20
6.367347
30
0
0
SEQEND
0
POLYLINE
8
PFV
62
0
66
1
70
8
0
VERTEX
8
PFV
62
0
70
32
10
2.204082
20
6.469388
30
0
0
VERTEX
8
PFV
62
0
70
32
10
2.469388
20
6.469388
30
0
0
SEQEND
0
POLYLINE
8
PFV
62
0
66
1
70
8
0
VERTEX
8
PFV
62
0
70
32
10
2.469388
20
6.469388
30
0
0
VERTEX
8
PFV
62
0
70
32
10
2.489796
20
6.469388
30
0
0
SEQEND
0
POLYLINE
8
PFV
62
0
66
1
70
8
0
VERTEX
8
PFV
62
0
70
32
10
7.000000
20
6.469388
30
0
0
VERTEX
8
PFV
62
0
70
32
10
7.061224
20
6.469388
30
0
0
SEQEND
0
POLYLINE
8
PFV
62
0
66
1
70
8
0
VERTEX
8
PFV
62
0
70
32
10
7.061224
20
6.469388
30
0
0
VERTEX
8
PFV
62
0
70
32
10
7.081633
20
6.448980
30
0
0
SEQEND
0
POLYLINE
8
PFV
62
0
66
1
70
8
0
VERTEX
8
PFV
62
0
70
32
10
7.265306
20
6.489796
30
0
0
VERTEX
8
PFV
62
0
70
32
10
7.285714
20
6.469388
30
0
0
SEQEND
0
POLYLINE
8
PFV
62
0
66
1
70
8
0
VERTEX
8
PFV
62
0
70
32
10
3.244898
20
6.510204
30
0
0
VERTEX
8
PFV
62
0
70
32
10
3.306122
20
6.551020
30
0
0
VERTEX
8
PFV
62
0
70
32
10
3.346939
20
6.714286
30
0
0
VERTEX
8
PFV
62
0
70
32
10
3.387755
20
6.714286
30
0
0
VERTEX
8
PFV
62
0
70
32
10
3.612245
20
6.469388
30
0
0
VERTEX
8
PFV
62
0
70
32
10
3.693878
20
6.469388
30
0
0
SEQEND
0
POLYLINE
8
PFV
62
0
66
1
70
8
0
VERTEX
8
PFV
62
0
70
32
10
3.244898
20
6.510204
30
0
0
VERTEX
8
PFV
62
0
70
32
10
3.224490
20
6.510204
30
0
0
SEQEND
0
POLYLINE
8
PFV
62
0
66
1
70
8
0
VERTEX
8
PFV
62
0
70
32
10
7.775510
20
6.530612
30
0
0
VERTEX
8
PFV
62
0
70
32
10
7.591837
20
6.530612
30
0
0
VERTEX
8
PFV
62
0
70
32
10
7.591837
20
6.387755
30
0
0
SEQEND
0
POLYLINE
8
PFV
62
0
66
1
70
8
0
VERTEX
8
PFV
62
0
70
32
10
4.530612
20
6.551020
30
0
0
VERTEX
8
PFV
62
0
70
32
10
4.408163
20
6.632653
30
0
0
VERTEX
8
PFV
62
0
70
32
10
4.326531
20
6.693878
30
0
0
VERTEX
8
PFV
62
0
70
32
10
4.306122
20
6.755102
30
0
0
VERTEX
8
PFV
62
0
70
32
10
4.244898
20
6.775510
30
0
0
VERTEX
8
PFV
62
0
70
32
10
4.204082
20
6.857143
30
0
0
VERTEX
8
PFV
62
0
70
32
10
3.755102
20
7.040816
30
0
0
VERTEX
8
PFV
62
0
70
32
10
3.551020
20
7.265306
30
0
0
VERTEX
8
PFV
62
0
70
32
10
3.448980
20
7.326531
30
0
0
VERTEX
8
PFV
62
0
70
32
10
3.346939
20
7.346939
30
0
0
VERTEX
8
PFV
62
0
70
32
10
3.285714
20
7.408163
30
0
0
VERTEX
8
PFV
62
0
70
32
10
3.122449
20
7.428571
30
0
0
VERTEX
8
PFV
62
0
70
32
10
3.061224
20
7.591837
30
0
0
VERTEX
8
PFV
62
0
70
32
10
3.224490
20
7.938776
30
0
0
VERTEX
8
PFV
62
0
70
32
10
3.367347
20
7.938776
30
0
0
VERTEX
8
PFV
62
0
70
32
10
3.489796
20
7.795918
30
0
0
VERTEX
8
PFV
62
0
70
32
10
3.571429
20
7.673469
30
0
0
VERTEX
8
PFV
62
0
70
32
10
3.591837
20
7.673469
30
0
0
VERTEX
8
PFV
62
0
70
32
10
3.734694
20
7.530612
30
0
0
VERTEX
8
PFV
62
0
70
32
10
3.714286
20
7.428571
30
0
0
VERTEX
8
PFV
62
0
70
32
10
3.551020
20
7.265306
30
0
0
SEQEND
0
POLYLINE
8
PFV
62
0
66
1
70
8
0
VERTEX
8
PFV
62
0
70
32
10
5.469388
20
6.591837
30
0
0
VERTEX
8
PFV
62
0
70
32
10
5.387755
20
6.653061
30
0
0
VERTEX
8
PFV
62
0
70
32
10
5.306122
20
6.714286
30
0
0
VERTEX
8
PFV
62
0
70
32
10
5.265306
20
6.775510
30
0
0
VERTEX
8
PFV
62
0
70
32
10
5.061224
20
6.959184
30
0
0
VERTEX
8
PFV
62
0
70
32
10
5.020408
20
7.020408
30
0
0
VERTEX
8
PFV
62
0
70
32
10
4.918367
20
7.122449
30
0
0
VERTEX
8
PFV
62
0
70
32
10
4.877551
20
7.285714
30
0
0
VERTEX
8
PFV
62
0
70
32
10
4.836735
20
7.367347
30
0
0
VERTEX
8
PFV
62
0
70
32
10
4.857143
20
7.775510
30
0
0
VERTEX
8
PFV
62
0
70
32
10
5.000000
20
7.938776
30
0
0
VERTEX
8
PFV
62
0
70
32
10
4.346939
20
7.938776
30
0
0
VERTEX
8
PFV
62
0
70
32
10
4.224490
20
7.938776
30
0
0
VERTEX
8
PFV
62
0
70
32
10
4.204082
20
7.979592
30
0
0
VERTEX
8
PFV
62
0
70
32
10
3.877551
20
8.000000
30
0
0
VERTEX
8
PFV
62
0
70
32
10
3.877551
20
7.959184
30
0
0
VERTEX
8
PFV
62
0
70
32
10
3.918367
20
7.979592
30
0
0
SEQEND
0
POLYLINE
8
PFV
62
0
66
1
70
8
0
VERTEX
8
PFV
62
0
70
32
10
8.632653
20
6.591837
30
0
0
VERTEX
8
PFV
62
0
70
32
10
8.653061
20
6.591837
30
0
0
VERTEX
8
PFV
62
0
70
32
10
8.673469
20
6.612245
30
0
0
VERTEX
8
PFV
62
0
70
32
10
8.693878
20
6.632653
30
0
0
VERTEX
8
PFV
62
0
70
32
10
8.714286
20
6.653061
30
0
0
VERTEX
8
PFV
62
0
70
32
10
8.734694
20
6.673469
30
0
0
SEQEND
0
POLYLINE
8
PFV
62
0
66
1
70
8
0
VERTEX
8
PFV
62
0
70
32
10
2.938776
20
6.693878
30
0
0
VERTEX
8
PFV
62
0
70
32
10
2.938776
20
6.714286
30
0
0
VERTEX
8
PFV
62
0
70
32
10
2.918367
20
6.693878
30
0
0
VERTEX
8
PFV
62
0
70
32
10
2.857143
20
6.693878
30
0
0
VERTEX
8
PFV
62
0
70
32
10
2.857143
20
6.795918
30
0
0
SEQEND
0
POLYLINE
8
PFV
62
0
66
1
70
8
0
VERTEX
8
PFV
62
0
70
32
10
2.938776
20
6.693878
30
0
0
VERTEX
8
PFV
62
0
70
32
10
2.938776
20
6.673469
30
0
0
VERTEX
8
PFV
62
0
70
32
10
2.979592
20
6.673469
30
0
0
VERTEX
8
PFV
62
0
70
32
10
2.979592
20
6.693878
30
0
0
SEQEND
0
POLYLINE
8
PFV
62
0
66
1
70
8
0
VERTEX
8
PFV
62
0
70
32
10
2.979592
20
6.693878
30
0
0
VERTEX
8
PFV
62
0
70
32
10
2.979592
20
6.714286
30
0
0
VERTEX
8
PFV
62
0
70
32
10
2.959184
20
6.714286
30
0
0
SEQEND
0
POLYLINE
8
PFV
62
0
66
1
70
8
0
VERTEX
8
PFV
62
0
70
32
10
3.020408
20
6.693878
30
0
0
VERTEX
8
PFV
62
0
70
32
10
3.061224
20
6.693878
30
0
0
SEQEND
0
POLYLINE
8
PFV
62
0
66
1
70
8
0
VERTEX
8
PFV
62
0
70
32
10
3.061224
20
6.693878
30
0
0
VERTEX
8
PFV
62
0
70
32
10
3.081633
20
6.673469
30
0
0
SEQEND
0
POLYLINE
8
PFV
62
0
66
1
70
8
0
VERTEX
8
PFV
62
0
70
32
10
2.959184
20
6.714286
30
0
0
VERTEX
8
PFV
62
0
70
32
10
2.938776
20
6.693878
30
0
0
SEQEND
0
POLYLINE
8
PFV
62
0
66
1
70
8
0
VERTEX
8
PFV
62
0
70
32
10
3.367347
20
6.714286
30
0
0
VERTEX
8
PFV
62
0
70
32
10
3.408163
20
7.061224
30
0
0
VERTEX
8
PFV
62
0
70
32
10
3.510204
20
7.265306
30
0
0
SEQEND
0
POLYLINE
8
PFV
62
0
66
1
70
8
0
VERTEX
8
PFV
62
0
70
32
10
3.367347
20
6.714286
30
0
0
VERTEX
8
PFV
62
0
70
32
10
3.387755
20
6.693878
30
0
0
SEQEND
0
POLYLINE
8
PFV
62
0
66
1
70
8
0
VERTEX
8
PFV
62
0
70
32
10
7.448980
20
6.734694
30
0
0
VERTEX
8
PFV
62
0
70
32
10
7.469388
20
6.734694
30
0
0
VERTEX
8
PFV
62
0
70
32
10
7.489796
20
6.755102
30
0
0
SEQEND
0
POLYLINE
8
PFV
62
0
66
1
70
8
0
VERTEX
8
PFV
62
0
70
32
10
7.591837
20
6.734694
30
0
0
VERTEX
8
PFV
62
0
70
32
10
7.653061
20
6.734694
30
0
0
VERTEX
8
PFV
62
0
70
32
10
7.673469
20
6.714286
30
0
0
VERTEX
8
PFV
62
0
70
32
10
7.693878
20
6.714286
30
0
0
VERTEX
8
PFV
62
0
70
32
10
7.693878
20
6.755102
30
0
0
VERTEX
8
PFV
62
0
70
32
10
7.755102
20
6.755102
30
0
0
SEQEND
0
POLYLINE
8
PFV
62
0
66
1
70
8
0
VERTEX
8
PFV
62
0
70
32
10
7.591837
20
6.734694
30
0
0
VERTEX
8
PFV
62
0
70
32
10
7.591837
20
6.714286
30
0
0
VERTEX
8
PFV
62
0
70
32
10
7.571429
20
6.693878
30
0
0
SEQEND
0
POLYLINE
8
PFV
62
0
66
1
70
8
0
VERTEX
8
PFV
62
0
70
32
10
7.591837
20
6.734694
30
0
0
VERTEX
8
PFV
62
0
70
32
10
7.571429
20
6.734694
30
0
0
VERTEX
8
PFV
62
0
70
32
10
7.551020
20
6.755102
30
0
0
VERTEX
8
PFV
62
0
70
32
10
7.551020
20
6.775510
30
0
0
SEQEND
0
POLYLINE
8
PFV
62
0
66
1
70
8
0
VERTEX
8
PFV
62
0
70
32
10
7.653061
20
6.734694
30
0
0
VERTEX
8
PFV
62
0
70
32
10
7.653061
20
6.755102
30
0
0
VERTEX
8
PFV
62
0
70
32
10
7.693878
20
6.755102
30
0
0
SEQEND
0
POLYLINE
8
PFV
62
0
66
1
70
8
0
VERTEX
8
PFV
62
0
70
32
10
7.653061
20
6.734694
30
0
0
VERTEX
8
PFV
62
0
70
32
10
7.653061
20
6.714286
30
0
0
SEQEND
0
POLYLINE
8
PFV
62
0
66
1
70
8
0
VERTEX
8
PFV
62
0
70
32
10
2.285714
20
6.775510
30
0
0
VERTEX
8
PFV
62
0
70
32
10
2.346939
20
6.938776
30
0
0
VERTEX
8
PFV
62
0
70
32
10
2.387755
20
6.938776
30
0
0
VERTEX
8
PFV
62
0
70
32
10
2.714286
20
6.877551
30
0
0
VERTEX
8
PFV
62
0
70
32
10
2.734694
20
6.897959
30
0
0
SEQEND
0
POLYLINE
8
PFV
62
0
66
1
70
8
0
VERTEX
8
PFV
62
0
70
32
10
2.285714
20
6.775510
30
0
0
VERTEX
8
PFV
62
0
70
32
10
2.306122
20
6.755102
30
0
0
SEQEND
0
POLYLINE
8
PFV
62
0
66
1
70
8
0
VERTEX
8
PFV
62
0
70
32
10
2.857143
20
6.795918
30
0
0
VERTEX
8
PFV
62
0
70
32
10
2.857143
20
6.816327
30
0
0
SEQEND
0
POLYLINE
8
PFV
62
0
66
1
70
8
0
VERTEX
8
PFV
62
0
70
32
10
7.755102
20
6.795918
30
0
0
VERTEX
8
PFV
62
0
70
32
10
8.040816
20
6.795918
30
0
0
SEQEND
0
POLYLINE
8
PFV
62
0
66
1
70
8
0
VERTEX
8
PFV
62
0
70
32
10
7.755102
20
6.795918
30
0
0
VERTEX
8
PFV
62
0
70
32
10
7.734694
20
6.795918
30
0
0
SEQEND
0
POLYLINE
8
PFV
62
0
66
1
70
8
0
VERTEX
8
PFV
62
0
70
32
10
8.040816
20
6.795918
30
0
0
VERTEX
8
PFV
62
0
70
32
10
8.061224
20
6.795918
30
0
0
SEQEND
0
POLYLINE
8
PFV
62
0
66
1
70
8
0
VERTEX
8
PFV
62
0
70
32
10
3.367347
20
6.857143
30
0
0
VERTEX
8
PFV
62
0
70
32
10
3.061224
20
6.857143
30
0
0
VERTEX
8
PFV
62
0
70
32
10
3.040816
20
6.877551
30
0
0
VERTEX
8
PFV
62
0
70
32
10
2.979592
20
6.877551
30
0
0
SEQEND
0
POLYLINE
8
PFV
62
0
66
1
70
8
0
VERTEX
8
PFV
62
0
70
32
10
2.673469
20
6.877551
30
0
0
VERTEX
8
PFV
62
0
70
32
10
2.653061
20
6.755102
30
0
0
VERTEX
8
PFV
62
0
70
32
10
2.571429
20
6.673469
30
0
0
VERTEX
8
PFV
62
0
70
32
10
2.571429
20
6.612245
30
0
0
SEQEND
0
POLYLINE
8
PFV
62
0
66
1
70
8
0
VERTEX
8
PFV
62
0
70
32
10
7.653061
20
6.877551
30
0
0
VERTEX
8
PFV
62
0
70
32
10
7.653061
20
6.918367
30
0
0
VERTEX
8
PFV
62
0
70
32
10
7.612245
20
6.918367
30
0
0
VERTEX
8
PFV
62
0
70
32
10
7.612245
20
6.959184
30
0
0
VERTEX
8
PFV
62
0
70
32
10
7.530612
20
7.000000
30
0
0
VERTEX
8
PFV
62
0
70
32
10
7.489796
20
7.122449
30
0
0
VERTEX
8
PFV
62
0
70
32
10
7.346939
20
7.183673
30
0
0
VERTEX
8
PFV
62
0
70
32
10
7.346939
20
7.285714
30
0
0
VERTEX
8
PFV
62
0
70
32
10
7.510204
20
7.346939
30
0
0
VERTEX
8
PFV
62
0
70
32
10
7.591837
20
7.428571
30
0
0
VERTEX
8
PFV
62
0
70
32
10
7.632653
20
7.367347
30
0
0
VERTEX
8
PFV
62
0
70
32
10
7.428571
20
7.183673
30
0
0
VERTEX
8
PFV
62
0
70
32
10
7.408163
20
7.285714
30
0
0
SEQEND
0
POLYLINE
8
PFV
62
0
66
1
70
8
0
VERTEX
8
PFV
62
0
70
32
10
7.653061
20
6.877551
30
0
0
VERTEX
8
PFV
62
0
70
32
10
7.734694
20
6.877551
30
0
0
SEQEND
0
POLYLINE
8
PFV
62
0
66
1
70
8
0
VERTEX
8
PFV
62
0
70
32
10
7.653061
20
6.877551
30
0
0
VERTEX
8
PFV
62
0
70
32
10
7.612245
20
6.877551
30
0
0
VERTEX
8
PFV
62
0
70
32
10
7.612245
20
6.918367
30
0
0
SEQEND
0
POLYLINE
8
PFV
62
0
66
1
70
8
0
VERTEX
8
PFV
62
0
70
32
10
7.734694
20
6.877551
30
0
0
VERTEX
8
PFV
62
0
70
32
10
7.755102
20
6.877551
30
0
0
SEQEND
0
POLYLINE
8
PFV
62
0
66
1
70
8
0
VERTEX
8
PFV
62
0
70
32
10
2.551020
20
6.897959
30
0
0
VERTEX
8
PFV
62
0
70
32
10
2.571429
20
7.000000
30
0
0
VERTEX
8
PFV
62
0
70
32
10
2.530612
20
7.000000
30
0
0
VERTEX
8
PFV
62
0
70
32
10
2.510204
20
6.918367
30
0
0
SEQEND
0
POLYLINE
8
PFV
62
0
66
1
70
8
0
VERTEX
8
PFV
62
0
70
32
10
2.591837
20
6.897959
30
0
0
VERTEX
8
PFV
62
0
70
32
10
2.591837
20
6.938776
30
0
0
VERTEX
8
PFV
62
0
70
32
10
2.571429
20
6.959184
30
0
0
VERTEX
8
PFV
62
0
70
32
10
2.571429
20
6.938776
30
0
0
SEQEND
0
POLYLINE
8
PFV
62
0
66
1
70
8
0
VERTEX
8
PFV
62
0
70
32
10
2.591837
20
6.897959
30
0
0
VERTEX
8
PFV
62
0
70
32
10
2.591837
20
6.877551
30
0
0
SEQEND
0
POLYLINE
8
PFV
62
0
66
1
70
8
0
VERTEX
8
PFV
62
0
70
32
10
2.775510
20
6.897959
30
0
0
VERTEX
8
PFV
62
0
70
32
10
2.795918
20
6.877551
30
0
0
SEQEND
0
POLYLINE
8
PFV
62
0
66
1
70
8
0
VERTEX
8
PFV
62
0
70
32
10
2.510204
20
6.918367
30
0
0
VERTEX
8
PFV
62
0
70
32
10
2.510204
20
6.897959
30
0
0
SEQEND
0
POLYLINE
8
PFV
62
0
66
1
70
8
0
VERTEX
8
PFV
62
0
70
32
10
2.367347
20
6.938776
30
0
0
VERTEX
8
PFV
62
0
70
32
10
2.367347
20
7.244898
30
0
0
SEQEND
0
POLYLINE
8
PFV
62
0
66
1
70
8
0
VERTEX
8
PFV
62
0
70
32
10
2.367347
20
6.938776
30
0
0
VERTEX
8
PFV
62
0
70
32
10
2.387755
20
6.918367
30
0
0
SEQEND
0
POLYLINE
8
PFV
62
0
66
1
70
8
0
VERTEX
8
PFV
62
0
70
32
10
2.979592
20
6.938776
30
0
0
VERTEX
8
PFV
62
0
70
32
10
3.061224
20
6.959184
30
0
0
VERTEX
8
PFV
62
0
70
32
10
3.061224
20
7.040816
30
0
0
VERTEX
8
PFV
62
0
70
32
10
3.204082
20
7.142857
30
0
0
VERTEX
8
PFV
62
0
70
32
10
3.367347
20
7.326531
30
0
0
SEQEND
0
POLYLINE
8
PFV
62
0
66
1
70
8
0
VERTEX
8
PFV
62
0
70
32
10
2.979592
20
6.938776
30
0
0
VERTEX
8
PFV
62
0
70
32
10
3.000000
20
6.959184
30
0
0
VERTEX
8
PFV
62
0
70
32
10
3.000000
20
6.979592
30
0
0
VERTEX
8
PFV
62
0
70
32
10
3.020408
20
7.000000
30
0
0
VERTEX
8
PFV
62
0
70
32
10
3.040816
20
7.000000
30
0
0
VERTEX
8
PFV
62
0
70
32
10
3.020408
20
6.979592
30
0
0
VERTEX
8
PFV
62
0
70
32
10
3.020408
20
7.000000
30
0
0
SEQEND
0
POLYLINE
8
PFV
62
0
66
1
70
8
0
VERTEX
8
PFV
62
0
70
32
10
2.959184
20
6.979592
30
0
0
VERTEX
8
PFV
62
0
70
32
10
2.979592
20
6.979592
30
0
0
SEQEND
0
POLYLINE
8
PFV
62
0
66
1
70
8
0
VERTEX
8
PFV
62
0
70
32
10
2.897959
20
7.000000
30
0
0
VERTEX
8
PFV
62
0
70
32
10
2.857143
20
7.306122
30
0
0
VERTEX
8
PFV
62
0
70
32
10
2.816327
20
7.306122
30
0
0
VERTEX
8
PFV
62
0
70
32
10
2.816327
20
7.428571
30
0
0
VERTEX
8
PFV
62
0
70
32
10
3.061224
20
7.489796
30
0
0
VERTEX
8
PFV
62
0
70
32
10
3.081633
20
7.469388
30
0
0
VERTEX
8
PFV
62
0
70
32
10
3.081633
20
7.489796
30
0
0
SEQEND
0
POLYLINE
8
PFV
62
0
66
1
70
8
0
VERTEX
8
PFV
62
0
70
32
10
3.020408
20
7.000000
30
0
0
VERTEX
8
PFV
62
0
70
32
10
3.020408
20
7.040816
30
0
0
VERTEX
8
PFV
62
0
70
32
10
3.061224
20
7.040816
30
0
0
SEQEND
0
POLYLINE
8
PFV
62
0
66
1
70
8
0
VERTEX
8
PFV
62
0
70
32
10
7.510204
20
7.040816
30
0
0
VERTEX
8
PFV
62
0
70
32
10
7.489796
20
7.020408
30
0
0
VERTEX
8
PFV
62
0
70
32
10
7.469388
20
7.000000
30
0
0
SEQEND
0
POLYLINE
8
PFV
62
0
66
1
70
8
0
VERTEX
8
PFV
62
0
70
32
10
7.755102
20
7.040816
30
0
0
VERTEX
8
PFV
62
0
70
32
10
7.693878
20
7.122449
30
0
0
VERTEX
8
PFV
62
0
70
32
10
7.673469
20
7.367347
30
0
0
VERTEX
8
PFV
62
0
70
32
10
7.632653
20
7.367347
30
0
0
SEQEND
0
POLYLINE
8
PFV
62
0
66
1
70
8
0
VERTEX
8
PFV
62
0
70
32
10
7.959184
20
7.040816
30
0
0
VERTEX
8
PFV
62
0
70
32
10
7.897959
20
7.224490
30
0
0
VERTEX
8
PFV
62
0
70
32
10
7.693878
20
7.285714
30
0
0
SEQEND
0
POLYLINE
8
PFV
62
0
66
1
70
8
0
VERTEX
8
PFV
62
0
70
32
10
7.510204
20
7.081633
30
0
0
VERTEX
8
PFV
62
0
70
32
10
7.653061
20
7.081633
30
0
0
VERTEX
8
PFV
62
0
70
32
10
7.673469
20
7.102041
30
0
0
VERTEX
8
PFV
62
0
70
32
10
7.693878
20
7.102041
30
0
0
SEQEND
0
POLYLINE
8
PFV
62
0
66
1
70
8
0
VERTEX
8
PFV
62
0
70
32
10
7.510204
20
7.081633
30
0
0
VERTEX
8
PFV
62
0
70
32
10
7.489796
20
7.102041
30
0
0
SEQEND
0
POLYLINE
8
PFV
62
0
66
1
70
8
0
VERTEX
8
PFV
62
0
70
32
10
7.591837
20
7.081633
30
0
0
VERTEX
8
PFV
62
0
70
32
10
7.591837
20
7.040816
30
0
0
VERTEX
8
PFV
62
0
70
32
10
7.632653
20
7.040816
30
0
0
VERTEX
8
PFV
62
0
70
32
10
7.632653
20
7.081633
30
0
0
SEQEND
0
POLYLINE
8
PFV
62
0
66
1
70
8
0
VERTEX
8
PFV
62
0
70
32
10
7.428571
20
7.122449
30
0
0
VERTEX
8
PFV
62
0
70
32
10
7.428571
20
7.183673
30
0
0
SEQEND
0
POLYLINE
8
PFV
62
0
66
1
70
8
0
VERTEX
8
PFV
62
0
70
32
10
7.428571
20
7.122449
30
0
0
VERTEX
8
PFV
62
0
70
32
10
7.428571
20
7.061224
30
0
0
VERTEX
8
PFV
62
0
70
32
10
7.408163
20
7.040816
30
0
0
VERTEX
8
PFV
62
0
70
32
10
7.387755
20
7.040816
30
0
0
VERTEX
8
PFV
62
0
70
32
10
7.387755
20
7.000000
30
0
0
SEQEND
0
POLYLINE
8
PFV
62
0
66
1
70
8
0
VERTEX
8
PFV
62
0
70
32
10
6.959184
20
7.163265
30
0
0
VERTEX
8
PFV
62
0
70
32
10
7.061224
20
7.244898
30
0
0
VERTEX
8
PFV
62
0
70
32
10
7.163265
20
7.285714
30
0
0
VERTEX
8
PFV
62
0
70
32
10
7.163265
20
7.367347
30
0
0
VERTEX
8
PFV
62
0
70
32
10
7.265306
20
7.367347
30
0
0
VERTEX
8
PFV
62
0
70
32
10
7.244898
20
7.469388
30
0
0
VERTEX
8
PFV
62
0
70
32
10
7.163265
20
7.530612
30
0
0
VERTEX
8
PFV
62
0
70
32
10
7.306122
20
7.693878
30
0
0
VERTEX
8
PFV
62
0
70
32
10
7.367347
20
7.612245
30
0
0
VERTEX
8
PFV
62
0
70
32
10
7.346939
20
7.571429
30
0
0
VERTEX
8
PFV
62
0
70
32
10
7.265306
20
7.571429
30
0
0
VERTEX
8
PFV
62
0
70
32
10
7.265306
20
7.530612
30
0
0
VERTEX
8
PFV
62
0
70
32
10
7.306122
20
7.530612
30
0
0
VERTEX
8
PFV
62
0
70
32
10
7.306122
20
7.571429
30
0
0
SEQEND
0
POLYLINE
8
PFV
62
0
66
1
70
8
0
VERTEX
8
PFV
62
0
70
32
10
6.959184
20
7.163265
30
0
0
VERTEX
8
PFV
62
0
70
32
10
6.938776
20
7.163265
30
0
0
SEQEND
0
POLYLINE
8
PFV
62
0
66
1
70
8
0
VERTEX
8
PFV
62
0
70
32
10
7.326531
20
7.224490
30
0
0
VERTEX
8
PFV
62
0
70
32
10
7.265306
20
7.224490
30
0
0
SEQEND
0
POLYLINE
8
PFV
62
0
66
1
70
8
0
VERTEX
8
PFV
62
0
70
32
10
2.857143
20
7.265306
30
0
0
VERTEX
8
PFV
62
0
70
32
10
2.816327
20
7.265306
30
0
0
VERTEX
8
PFV
62
0
70
32
10
2.816327
20
7.306122
30
0
0
SEQEND
0
POLYLINE
8
PFV
62
0
66
1
70
8
0
VERTEX
8
PFV
62
0
70
32
10
3.510204
20
7.265306
30
0
0
VERTEX
8
PFV
62
0
70
32
10
3.510204
20
7.285714
30
0
0
SEQEND
0
POLYLINE
8
PFV
62
0
66
1
70
8
0
VERTEX
8
PFV
62
0
70
32
10
3.551020
20
7.265306
30
0
0
VERTEX
8
PFV
62
0
70
32
10
3.551020
20
7.244898
30
0
0
SEQEND
0
POLYLINE
8
PFV
62
0
66
1
70
8
0
VERTEX
8
PFV
62
0
70
32
10
2.448980
20
7.285714
30
0
0
VERTEX
8
PFV
62
0
70
32
10
2.306122
20
7.469388
30
0
0
VERTEX
8
PFV
62
0
70
32
10
2.265306
20
7.469388
30
0
0
VERTEX
8
PFV
62
0
70
32
10
2.265306
20
7.428571
30
0
0
VERTEX
8
PFV
62
0
70
32
10
2.306122
20
7.428571
30
0
0
SEQEND
0
POLYLINE
8
PFV
62
0
66
1
70
8
0
VERTEX
8
PFV
62
0
70
32
10
2.448980
20
7.285714
30
0
0
VERTEX
8
PFV
62
0
70
32
10
2.428571
20
7.306122
30
0
0
SEQEND
0
POLYLINE
8
PFV
62
0
66
1
70
8
0
VERTEX
8
PFV
62
0
70
32
10
2.551020
20
7.285714
30
0
0
VERTEX
8
PFV
62
0
70
32
10
2.591837
20
7.346939
30
0
0
VERTEX
8
PFV
62
0
70
32
10
2.816327
20
7.408163
30
0
0
SEQEND
0
POLYLINE
8
PFV
62
0
66
1
70
8
0
VERTEX
8
PFV
62
0
70
32
10
2.551020
20
7.285714
30
0
0
VERTEX
8
PFV
62
0
70
32
10
2.571429
20
7.265306
30
0
0
SEQEND
0
POLYLINE
8
PFV
62
0
66
1
70
8
0
VERTEX
8
PFV
62
0
70
32
10
7.346939
20
7.285714
30
0
0
VERTEX
8
PFV
62
0
70
32
10
7.346939
20
7.469388
30
0
0
VERTEX
8
PFV
62
0
70
32
10
7.408163
20
7.510204
30
0
0
VERTEX
8
PFV
62
0
70
32
10
7.510204
20
7.510204
30
0
0
VERTEX
8
PFV
62
0
70
32
10
7.591837
20
7.428571
30
0
0
SEQEND
0
POLYLINE
8
PFV
62
0
66
1
70
8
0
VERTEX
8
PFV
62
0
70
32
10
6.897959
20
7.306122
30
0
0
VERTEX
8
PFV
62
0
70
32
10
7.081633
20
7.489796
30
0
0
VERTEX
8
PFV
62
0
70
32
10
7.040816
20
7.653061
30
0
0
VERTEX
8
PFV
62
0
70
32
10
6.979592
20
7.734694
30
0
0
VERTEX
8
PFV
62
0
70
32
10
6.959184
20
7.816327
30
0
0
VERTEX
8
PFV
62
0
70
32
10
6.918367
20
7.816327
30
0
0
VERTEX
8
PFV
62
0
70
32
10
6.918367
20
7.755102
30
0
0
VERTEX
8
PFV
62
0
70
32
10
6.795918
20
7.795918
30
0
0
VERTEX
8
PFV
62
0
70
32
10
6.795918
20
7.897959
30
0
0
VERTEX
8
PFV
62
0
70
32
10
6.836735
20
7.897959
30
0
0
VERTEX
8
PFV
62
0
70
32
10
6.836735
20
7.857143
30
0
0
VERTEX
8
PFV
62
0
70
32
10
6.795918
20
7.877551
30
0
0
SEQEND
0
POLYLINE
8
PFV
62
0
66
1
70
8
0
VERTEX
8
PFV
62
0
70
32
10
6.897959
20
7.306122
30
0
0
VERTEX
8
PFV
62
0
70
32
10
6.877551
20
7.306122
30
0
0
SEQEND
0
POLYLINE
8
PFV
62
0
66
1
70
8
0
VERTEX
8
PFV
62
0
70
32
10
3.367347
20
7.326531
30
0
0
VERTEX
8
PFV
62
0
70
32
10
3.367347
20
7.346939
30
0
0
SEQEND
0
POLYLINE
8
PFV
62
0
66
1
70
8
0
VERTEX
8
PFV
62
0
70
32
10
7.224490
20
7.367347
30
0
0
VERTEX
8
PFV
62
0
70
32
10
7.224490
20
7.408163
30
0
0
VERTEX
8
PFV
62
0
70
32
10
7.265306
20
7.408163
30
0
0
SEQEND
0
POLYLINE
8
PFV
62
0
66
1
70
8
0
VERTEX
8
PFV
62
0
70
32
10
7.224490
20
7.367347
30
0
0
VERTEX
8
PFV
62
0
70
32
10
7.244898
20
7.346939
30
0
0
VERTEX
8
PFV
62
0
70
32
10
7.224490
20
7.326531
30
0
0
SEQEND
0
POLYLINE
8
PFV
62
0
66
1
70
8
0
VERTEX
8
PFV
62
0
70
32
10
2.938776
20
7.408163
30
0
0
VERTEX
8
PFV
62
0
70
32
10
2.938776
20
7.428571
30
0
0
VERTEX
8
PFV
62
0
70
32
10
2.959184
20
7.408163
30
0
0
VERTEX
8
PFV
62
0
70
32
10
2.959184
20
7.367347
30
0
0
VERTEX
8
PFV
62
0
70
32
10
2.918367
20
7.367347
30
0
0
VERTEX
8
PFV
62
0
70
32
10
2.918367
20
7.408163
30
0
0
VERTEX
8
PFV
62
0
70
32
10
2.938776
20
7.408163
30
0
0
SEQEND
0
POLYLINE
8
PFV
62
0
66
1
70
8
0
VERTEX
8
PFV
62
0
70
32
10
7.265306
20
7.408163
30
0
0
VERTEX
8
PFV
62
0
70
32
10
7.285714
20
7.428571
30
0
0
VERTEX
8
PFV
62
0
70
32
10
7.306122
20
7.428571
30
0
0
VERTEX
8
PFV
62
0
70
32
10
7.306122
20
7.469388
30
0
0
VERTEX
8
PFV
62
0
70
32
10
7.346939
20
7.469388
30
0
0
SEQEND
0
POLYLINE
8
PFV
62
0
66
1
70
8
0
VERTEX
8
PFV
62
0
70
32
10
6.795918
20
7.428571
30
0
0
VERTEX
8
PFV
62
0
70
32
10
6.714286
20
7.448980
30
0
0
VERTEX
8
PFV
62
0
70
32
10
6.959184
20
7.755102
30
0
0
VERTEX
8
PFV
62
0
70
32
10
6.959184
20
7.795918
30
0
0
VERTEX
8
PFV
62
0
70
32
10
6.979592
20
7.795918
30
0
0
SEQEND
0
POLYLINE
8
PFV
62
0
66
1
70
8
0
VERTEX
8
PFV
62
0
70
32
10
7.265306
20
7.428571
30
0
0
VERTEX
8
PFV
62
0
70
32
10
7.244898
20
7.448980
30
0
0
SEQEND
0
POLYLINE
8
PFV
62
0
66
1
70
8
0
VERTEX
8
PFV
62
0
70
32
10
7.326531
20
7.428571
30
0
0
VERTEX
8
PFV
62
0
70
32
10
7.346939
20
7.428571
30
0
0
SEQEND
0
POLYLINE
8
PFV
62
0
66
1
70
8
0
VERTEX
8
PFV
62
0
70
32
10
6.714286
20
7.448980
30
0
0
VERTEX
8
PFV
62
0
70
32
10
6.653061
20
7.489796
30
0
0
VERTEX
8
PFV
62
0
70
32
10
6.857143
20
7.755102
30
0
0
SEQEND
0
POLYLINE
8
PFV
62
0
66
1
70
8
0
VERTEX
8
PFV
62
0
70
32
10
6.653061
20
7.469388
30
0
0
VERTEX
8
PFV
62
0
70
32
10
6.551020
20
7.489796
30
0
0
VERTEX
8
PFV
62
0
70
32
10
6.816327
20
7.775510
30
0
0
SEQEND
0
POLYLINE
8
PFV
62
0
66
1
70
8
0
VERTEX
8
PFV
62
0
70
32
10
6.551020
20
7.489796
30
0
0
VERTEX
8
PFV
62
0
70
32
10
6.285714
20
7.551020
30
0
0
VERTEX
8
PFV
62
0
70
32
10
6.530612
20
7.816327
30
0
0
VERTEX
8
PFV
62
0
70
32
10
6.632653
20
7.959184
30
0
0
VERTEX
8
PFV
62
0
70
32
10
6.877551
20
8.000000
30
0
0
VERTEX
8
PFV
62
0
70
32
10
6.979592
20
7.959184
30
0
0
VERTEX
8
PFV
62
0
70
32
10
7.040816
20
7.816327
30
0
0
VERTEX
8
PFV
62
0
70
32
10
7.081633
20
7.816327
30
0
0
VERTEX
8
PFV
62
0
70
32
10
7.285714
20
7.734694
30
0
0
VERTEX
8
PFV
62
0
70
32
10
7.306122
20
7.693878
30
0
0
SEQEND
0
POLYLINE
8
PFV
62
0
66
1
70
8
0
VERTEX
8
PFV
62
0
70
32
10
6.959184
20
7.489796
30
0
0
VERTEX
8
PFV
62
0
70
32
10
6.979592
20
7.489796
30
0
0
VERTEX
8
PFV
62
0
70
32
10
7.000000
20
7.510204
30
0
0
VERTEX
8
PFV
62
0
70
32
10
7.020408
20
7.510204
30
0
0
VERTEX
8
PFV
62
0
70
32
10
7.040816
20
7.489796
30
0
0
VERTEX
8
PFV
62
0
70
32
10
7.081633
20
7.489796
30
0
0
SEQEND
0
POLYLINE
8
PFV
62
0
66
1
70
8
0
VERTEX
8
PFV
62
0
70
32
10
7.081633
20
7.489796
30
0
0
VERTEX
8
PFV
62
0
70
32
10
7.102041
20
7.489796
30
0
0
VERTEX
8
PFV
62
0
70
32
10
7.122449
20
7.510204
30
0
0
VERTEX
8
PFV
62
0
70
32
10
7.142857
20
7.530612
30
0
0
VERTEX
8
PFV
62
0
70
32
10
7.142857
20
7.551020
30
0
0
VERTEX
8
PFV
62
0
70
32
10
7.122449
20
7.571429
30
0
0
VERTEX
8
PFV
62
0
70
32
10
7.061224
20
7.571429
30
0
0
SEQEND
0
POLYLINE
8
PFV
62
0
66
1
70
8
0
VERTEX
8
PFV
62
0
70
32
10
7.000000
20
7.510204
30
0
0
VERTEX
8
PFV
62
0
70
32
10
7.000000
20
7.530612
30
0
0
VERTEX
8
PFV
62
0
70
32
10
6.979592
20
7.530612
30
0
0
VERTEX
8
PFV
62
0
70
32
10
6.959184
20
7.551020
30
0
0
VERTEX
8
PFV
62
0
70
32
10
6.938776
20
7.551020
30
0
0
SEQEND
0
POLYLINE
8
PFV
62
0
66
1
70
8
0
VERTEX
8
PFV
62
0
70
32
10
7.000000
20
7.510204
30
0
0
VERTEX
8
PFV
62
0
70
32
10
7.020408
20
7.489796
30
0
0
SEQEND
0
POLYLINE
8
PFV
62
0
66
1
70
8
0
VERTEX
8
PFV
62
0
70
32
10
7.408163
20
7.510204
30
0
0
VERTEX
8
PFV
62
0
70
32
10
7.408163
20
7.571429
30
0
0
VERTEX
8
PFV
62
0
70
32
10
7.387755
20
7.591837
30
0
0
VERTEX
8
PFV
62
0
70
32
10
7.367347
20
7.591837
30
0
0
SEQEND
0
POLYLINE
8
PFV
62
0
66
1
70
8
0
VERTEX
8
PFV
62
0
70
32
10
3.081633
20
7.530612
30
0
0
VERTEX
8
PFV
62
0
70
32
10
3.122449
20
7.530612
30
0
0
VERTEX
8
PFV
62
0
70
32
10
3.163265
20
7.591837
30
0
0
VERTEX
8
PFV
62
0
70
32
10
3.224490
20
7.653061
30
0
0
VERTEX
8
PFV
62
0
70
32
10
3.326531
20
7.693878
30
0
0
VERTEX
8
PFV
62
0
70
32
10
3.408163
20
7.734694
30
0
0
VERTEX
8
PFV
62
0
70
32
10
3.367347
20
7.755102
30
0
0
VERTEX
8
PFV
62
0
70
32
10
3.367347
20
7.714286
30
0
0
SEQEND
0
POLYLINE
8
PFV
62
0
66
1
70
8
0
VERTEX
8
PFV
62
0
70
32
10
3.734694
20
7.530612
30
0
0
VERTEX
8
PFV
62
0
70
32
10
3.714286
20
7.530612
30
0
0
SEQEND
0
POLYLINE
8
PFV
62
0
66
1
70
8
0
VERTEX
8
PFV
62
0
70
32
10
3.734694
20
7.530612
30
0
0
VERTEX
8
PFV
62
0
70
32
10
3.816327
20
7.571429
30
0
0
VERTEX
8
PFV
62
0
70
32
10
4.061224
20
7.326531
30
0
0
VERTEX
8
PFV
62
0
70
32
10
4.061224
20
7.285714
30
0
0
SEQEND
0
POLYLINE
8
PFV
62
0
66
1
70
8
0
VERTEX
8
PFV
62
0
70
32
10
6.448980
20
7.530612
30
0
0
VERTEX
8
PFV
62
0
70
32
10
6.612245
20
7.693878
30
0
0
VERTEX
8
PFV
62
0
70
32
10
6.653061
20
7.714286
30
0
0
VERTEX
8
PFV
62
0
70
32
10
6.673469
20
7.816327
30
0
0
VERTEX
8
PFV
62
0
70
32
10
6.755102
20
7.877551
30
0
0
VERTEX
8
PFV
62
0
70
32
10
6.734694
20
7.979592
30
0
0
SEQEND
0
POLYLINE
8
PFV
62
0
66
1
70
8
0
VERTEX
8
PFV
62
0
70
32
10
6.285714
20
7.551020
30
0
0
VERTEX
8
PFV
62
0
70
32
10
6.183673
20
7.571429
30
0
0
VERTEX
8
PFV
62
0
70
32
10
6.428571
20
7.836735
30
0
0
VERTEX
8
PFV
62
0
70
32
10
6.448980
20
8.000000
30
0
0
VERTEX
8
PFV
62
0
70
32
10
6.489796
20
8.040816
30
0
0
VERTEX
8
PFV
62
0
70
32
10
6.571429
20
8.040816
30
0
0
VERTEX
8
PFV
62
0
70
32
10
6.653061
20
8.020408
30
0
0
VERTEX
8
PFV
62
0
70
32
10
6.653061
20
7.979592
30
0
0
SEQEND
0
POLYLINE
8
PFV
62
0
66
1
70
8
0
VERTEX
8
PFV
62
0
70
32
10
6.897959
20
7.551020
30
0
0
VERTEX
8
PFV
62
0
70
32
10
6.938776
20
7.551020
30
0
0
SEQEND
0
POLYLINE
8
PFV
62
0
66
1
70
8
0
VERTEX
8
PFV
62
0
70
32
10
3.081633
20
7.571429
30
0
0
VERTEX
8
PFV
62
0
70
32
10
3.122449
20
7.571429
30
0
0
SEQEND
0
POLYLINE
8
PFV
62
0
66
1
70
8
0
VERTEX
8
PFV
62
0
70
32
10
3.081633
20
7.571429
30
0
0
VERTEX
8
PFV
62
0
70
32
10
3.061224
20
7.571429
30
0
0
SEQEND
0
POLYLINE
8
PFV
62
0
66
1
70
8
0
VERTEX
8
PFV
62
0
70
32
10
3.816327
20
7.571429
30
0
0
VERTEX
8
PFV
62
0
70
32
10
3.795918
20
7.653061
30
0
0
VERTEX
8
PFV
62
0
70
32
10
3.693878
20
7.734694
30
0
0
VERTEX
8
PFV
62
0
70
32
10
3.673469
20
7.938776
30
0
0
VERTEX
8
PFV
62
0
70
32
10
3.551020
20
8.040816
30
0
0
VERTEX
8
PFV
62
0
70
32
10
3.551020
20
8.102041
30
0
0
VERTEX
8
PFV
62
0
70
32
10
4.020408
20
8.163265
30
0
0
VERTEX
8
PFV
62
0
70
32
10
4.142857
20
8.020408
30
0
0
SEQEND
0
POLYLINE
8
PFV
62
0
66
1
70
8
0
VERTEX
8
PFV
62
0
70
32
10
3.816327
20
7.571429
30
0
0
VERTEX
8
PFV
62
0
70
32
10
3.816327
20
7.551020
30
0
0
SEQEND
0
POLYLINE
8
PFV
62
0
66
1
70
8
0
VERTEX
8
PFV
62
0
70
32
10
6.183673
20
7.571429
30
0
0
VERTEX
8
PFV
62
0
70
32
10
6.122449
20
7.612245
30
0
0
VERTEX
8
PFV
62
0
70
32
10
6.346939
20
7.836735
30
0
0
VERTEX
8
PFV
62
0
70
32
10
6.367347
20
7.938776
30
0
0
VERTEX
8
PFV
62
0
70
32
10
6.428571
20
7.979592
30
0
0
SEQEND
0
POLYLINE
8
PFV
62
0
66
1
70
8
0
VERTEX
8
PFV
62
0
70
32
10
6.938776
20
7.591837
30
0
0
VERTEX
8
PFV
62
0
70
32
10
6.938776
20
7.632653
30
0
0
VERTEX
8
PFV
62
0
70
32
10
6.959184
20
7.653061
30
0
0
VERTEX
8
PFV
62
0
70
32
10
6.979592
20
7.673469
30
0
0
VERTEX
8
PFV
62
0
70
32
10
7.000000
20
7.673469
30
0
0
SEQEND
0
POLYLINE
8
PFV
62
0
66
1
70
8
0
VERTEX
8
PFV
62
0
70
32
10
3.816327
20
7.612245
30
0
0
VERTEX
8
PFV
62
0
70
32
10
3.979592
20
7.653061
30
0
0
VERTEX
8
PFV
62
0
70
32
10
4.244898
20
7.918367
30
0
0
SEQEND
0
POLYLINE
8
PFV
62
0
66
1
70
8
0
VERTEX
8
PFV
62
0
70
32
10
3.816327
20
7.612245
30
0
0
VERTEX
8
PFV
62
0
70
32
10
3.795918
20
7.632653
30
0
0
SEQEND
0
POLYLINE
8
PFV
62
0
66
1
70
8
0
VERTEX
8
PFV
62
0
70
32
10
6.122449
20
7.612245
30
0
0
VERTEX
8
PFV
62
0
70
32
10
5.979592
20
7.632653
30
0
0
VERTEX
8
PFV
62
0
70
32
10
5.755102
20
7.897959
30
0
0
VERTEX
8
PFV
62
0
70
32
10
6.020408
20
8.163265
30
0
0
VERTEX
8
PFV
62
0
70
32
10
6.061224
20
8.163265
30
0
0
VERTEX
8
PFV
62
0
70
32
10
6.489796
20
8.081633
30
0
0
VERTEX
8
PFV
62
0
70
32
10
6.469388
20
8.081633
30
0
0
SEQEND
0
POLYLINE
8
PFV
62
0
66
1
70
8
0
VERTEX
8
PFV
62
0
70
32
10
6.122449
20
7.612245
30
0
0
VERTEX
8
PFV
62
0
70
32
10
6.142857
20
7.591837
30
0
0
SEQEND
0
POLYLINE
8
PFV
62
0
66
1
70
8
0
VERTEX
8
PFV
62
0
70
32
10
3.244898
20
7.653061
30
0
0
VERTEX
8
PFV
62
0
70
32
10
3.244898
20
7.693878
30
0
0
VERTEX
8
PFV
62
0
70
32
10
3.285714
20
7.693878
30
0
0
VERTEX
8
PFV
62
0
70
32
10
3.285714
20
7.673469
30
0
0
SEQEND
0
POLYLINE
8
PFV
62
0
66
1
70
8
0
VERTEX
8
PFV
62
0
70
32
10
6.571429
20
7.673469
30
0
0
VERTEX
8
PFV
62
0
70
32
10
6.571429
20
7.714286
30
0
0
VERTEX
8
PFV
62
0
70
32
10
6.591837
20
7.734694
30
0
0
VERTEX
8
PFV
62
0
70
32
10
6.591837
20
7.755102
30
0
0
VERTEX
8
PFV
62
0
70
32
10
6.612245
20
7.775510
30
0
0
VERTEX
8
PFV
62
0
70
32
10
6.632653
20
7.795918
30
0
0
VERTEX
8
PFV
62
0
70
32
10
6.653061
20
7.795918
30
0
0
SEQEND
0
POLYLINE
8
PFV
62
0
66
1
70
8
0
VERTEX
8
PFV
62
0
70
32
10
7.000000
20
7.673469
30
0
0
VERTEX
8
PFV
62
0
70
32
10
7.020408
20
7.673469
30
0
0
SEQEND
0
POLYLINE
8
PFV
62
0
66
1
70
8
0
VERTEX
8
PFV
62
0
70
32
10
3.693878
20
7.755102
30
0
0
VERTEX
8
PFV
62
0
70
32
10
3.632653
20
7.775510
30
0
0
VERTEX
8
PFV
62
0
70
32
10
3.612245
20
7.877551
30
0
0
VERTEX
8
PFV
62
0
70
32
10
3.448980
20
8.040816
30
0
0
VERTEX
8
PFV
62
0
70
32
10
3.551020
20
8.061224
30
0
0
SEQEND
0
POLYLINE
8
PFV
62
0
66
1
70
8
0
VERTEX
8
PFV
62
0
70
32
10
3.693878
20
7.755102
30
0
0
VERTEX
8
PFV
62
0
70
32
10
3.714286
20
7.734694
30
0
0
SEQEND
0
POLYLINE
8
PFV
62
0
66
1
70
8
0
VERTEX
8
PFV
62
0
70
32
10
6.979592
20
7.795918
30
0
0
VERTEX
8
PFV
62
0
70
32
10
7.020408
20
7.795918
30
0
0
VERTEX
8
PFV
62
0
70
32
10
7.040816
20
7.816327
30
0
0
SEQEND
0
POLYLINE
8
PFV
62
0
66
1
70
8
0
VERTEX
8
PFV
62
0
70
32
10
7.040816
20
7.816327
30
0
0
VERTEX
8
PFV
62
0
70
32
10
7.040816
20
7.836735
30
0
0
SEQEND
0
POLYLINE
8
PFV
62
0
66
1
70
8
0
VERTEX
8
PFV
62
0
70
32
10
3.632653
20
7.836735
30
0
0
VERTEX
8
PFV
62
0
70
32
10
3.591837
20
7.836735
30
0
0
VERTEX
8
PFV
62
0
70
32
10
3.591837
20
7.877551
30
0
0
SEQEND
0
POLYLINE
8
PFV
62
0
66
1
70
8
0
VERTEX
8
PFV
62
0
70
32
10
3.591837
20
7.877551
30
0
0
VERTEX
8
PFV
62
0
70
32
10
3.591837
20
7.897959
30
0
0
SEQEND
0
POLYLINE
8
PFV
62
0
66
1
70
8
0
VERTEX
8
PFV
62
0
70
32
10
5.755102
20
7.877551
30
0
0
VERTEX
8
PFV
62
0
70
32
10
5.000000
20
7.938776
30
0
0
SEQEND
0
POLYLINE
8
PFV
62
0
66
1
70
8
0
VERTEX
8
PFV
62
0
70
32
10
4.244898
20
7.918367
30
0
0
VERTEX
8
PFV
62
0
70
32
10
4.244898
20
7.938776
30
0
0
SEQEND
0
POLYLINE
8
PFV
62
0
66
1
70
8
0
VERTEX
8
PFV
62
0
70
32
10
3.346939
20
7.959184
30
0
0
VERTEX
8
PFV
62
0
70
32
10
3.346939
20
8.020408
30
0
0
VERTEX
8
PFV
62
0
70
32
10
3.448980
20
8.020408
30
0
0
SEQEND
0
POLYLINE
8
PFV
62
0
66
1
70
8
0
VERTEX
8
PFV
62
0
70
32
10
3.346939
20
7.959184
30
0
0
VERTEX
8
PFV
62
0
70
32
10
3.346939
20
7.938776
30
0
0
SEQEND
0
POLYLINE
8
PFV
62
0
66
1
70
8
0
VERTEX
8
PFV
62
0
70
32
10
3.918367
20
7.979592
30
0
0
VERTEX
8
PFV
62
0
70
32
10
3.918367
20
8.000000
30
0
0
SEQEND
0
POLYLINE
8
PFV
62
0
66
1
70
8
0
VERTEX
8
PFV
62
0
70
32
10
6.734694
20
7.979592
30
0
0
VERTEX
8
PFV
62
0
70
32
10
6.734694
20
8.000000
30
0
0
SEQEND
0
POLYLINE
8
PFV
62
0
66
1
70
8
0
VERTEX
8
PFV
62
0
70
32
10
3.448980
20
8.020408
30
0
0
VERTEX
8
PFV
62
0
70
32
10
3.469388
20
8.020408
30
0
0
SEQEND
0
POLYLINE
8
PFV
62
0
66
1
70
8
0
VERTEX
8
PFV
62
0
70
32
10
3.551020
20
8.061224
30
0
0
VERTEX
8
PFV
62
0
70
32
10
3.571429
20
8.040816
30
0
0
SEQEND
0
POLYLINE
8
PFV
62
0
66
1
70
8
0
VERTEX
8
PFV
62
0
70
32
10
3.897959
20
3.428571
30
0
0
VERTEX
8
PFV
62
0
70
32
10
3.897959
20
3.448980
30
0
0
SEQEND
0
POLYLINE
8
PFV
62
0
66
1
70
8
0
VERTEX
8
PFV
62
0
70
32
10
3.612245
20
3.530612
30
0
0
VERTEX
8
PFV
62
0
70
32
10
3.775510
20
3.530612
30
0
0
SEQEND
0
POLYLINE
8
PFV
62
0
66
1
70
8
0
VERTEX
8
PFV
62
0
70
32
10
9.265306
20
4.244898
30
0
0
VERTEX
8
PFV
62
0
70
32
10
9.265306
20
4.265306
30
0
0
SEQEND
0
POLYLINE
8
PFV
62
0
66
1
70
8
0
VERTEX
8
PFV
62
0
70
32
10
8.163265
20
4.612245
30
0
0
VERTEX
8
PFV
62
0
70
32
10
8.142857
20
4.632653
30
0
0
VERTEX
8
PFV
62
0
70
32
10
8.142857
20
4.653061
30
0
0
SEQEND
0
POLYLINE
8
PFV
62
0
66
1
70
8
0
VERTEX
8
PFV
62
0
70
32
10
8.122449
20
4.959184
30
0
0
VERTEX
8
PFV
62
0
70
32
10
8.122449
20
5.000000
30
0
0
SEQEND
0
POLYLINE
8
PFV
62
0
66
1
70
8
0
VERTEX
8
PFV
62
0
70
32
10
6.836735
20
5.285714
30
0
0
VERTEX
8
PFV
62
0
70
32
10
6.836735
20
5.306122
30
0
0
SEQEND
0
POLYLINE
8
PFV
62
0
66
1
70
8
0
VERTEX
8
PFV
62
0
70
32
10
0.897959
20
5.591837
30
0
0
VERTEX
8
PFV
62
0
70
32
10
0.897959
20
5.714286
30
0
0
SEQEND
0
POLYLINE
8
PFV
62
0
66
1
70
8
0
VERTEX
8
PFV
62
0
70
32
10
8.510204
20
5.612245
30
0
0
VERTEX
8
PFV
62
0
70
32
10
8.510204
20
5.755102
30
0
0
SEQEND
0
POLYLINE
8
PFV
62
0
66
1
70
8
0
VERTEX
8
PFV
62
0
70
32
10
1.795918
20
5.693878
30
0
0
VERTEX
8
PFV
62
0
70
32
10
1.795918
20
5.714286
30
0
0
SEQEND
0
POLYLINE
8
PFV
62
0
66
1
70
8
0
VERTEX
8
PFV
62
0
70
32
10
4.775510
20
5.938776
30
0
0
VERTEX
8
PFV
62
0
70
32
10
4.795918
20
5.959184
30
0
0
SEQEND
0
POLYLINE
8
PFV
62
0
66
1
70
8
0
VERTEX
8
PFV
62
0
70
32
10
7.469388
20
5.938776
30
0
0
VERTEX
8
PFV
62
0
70
32
10
7.469388
20
6.040816
30
0
0
SEQEND
0
POLYLINE
8
PFV
62
0
66
1
70
8
0
VERTEX
8
PFV
62
0
70
32
10
0.979592
20
6.265306
30
0
0
VERTEX
8
PFV
62
0
70
32
10
0.979592
20
6.285714
30
0
0
SEQEND
0
POLYLINE
8
PFV
62
0
66
1
70
8
0
VERTEX
8
PFV
62
0
70
32
10
1.714286
20
6.265306
30
0
0
VERTEX
8
PFV
62
0
70
32
10
1.714286
20
6.367347
30
0
0
SEQEND
0
POLYLINE
8
PFV
62
0
66
1
70
8
0
VERTEX
8
PFV
62
0
70
32
10
2.653061
20
6.551020
30
0
0
VERTEX
8
PFV
62
0
70
32
10
2.734694
20
6.551020
30
0
0
SEQEND
0
POLYLINE
8
PFV
62
0
66
1
70
8
0
VERTEX
8
PFV
62
0
70
32
10
2.857143
20
6.571429
30
0
0
VERTEX
8
PFV
62
0
70
32
10
2.877551
20
6.571429
30
0
0
SEQEND
0
POLYLINE
8
PFV
62
0
66
1
70
8
0
VERTEX
8
PFV
62
0
70
32
10
1.571429
20
6.591837
30
0
0
VERTEX
8
PFV
62
0
70
32
10
1.571429
20
6.612245
30
0
0
SEQEND
0
POLYLINE
8
PFV
62
0
66
1
70
8
0
VERTEX
8
PFV
62
0
70
32
10
5.081633
20
6.591837
30
0
0
VERTEX
8
PFV
62
0
70
32
10
5.102041
20
6.591837
30
0
0
SEQEND
0
POLYLINE
8
PFV
62
0
66
1
70
8
0
VERTEX
8
PFV
62
0
70
32
10
1.673469
20
6.612245
30
0
0
VERTEX
8
PFV
62
0
70
32
10
1.673469
20
6.632653
30
0
0
SEQEND
0
POLYLINE
8
PFV
62
0
66
1
70
8
0
VERTEX
8
PFV
62
0
70
32
10
7.510204
20
6.612245
30
0
0
VERTEX
8
PFV
62
0
70
32
10
7.510204
20
6.632653
30
0
0
SEQEND
0
POLYLINE
8
PFV
62
0
66
1
70
8
0
VERTEX
8
PFV
62
0
70
32
10
8.265306
20
6.653061
30
0
0
VERTEX
8
PFV
62
0
70
32
10
8.265306
20
6.673469
30
0
0
SEQEND
0
POLYLINE
8
PFV
62
0
66
1
70
8
0
VERTEX
8
PFV
62
0
70
32
10
1.591837
20
6.734694
30
0
0
VERTEX
8
PFV
62
0
70
32
10
1.591837
20
6.755102
30
0
0
SEQEND
0
POLYLINE
8
PFV
62
0
66
1
70
8
0
VERTEX
8
PFV
62
0
70
32
10
7.428571
20
6.816327
30
0
0
VERTEX
8
PFV
62
0
70
32
10
7.428571
20
6.836735
30
0
0
SEQEND
0
POLYLINE
8
PFV
62
0
66
1
70
8
0
VERTEX
8
PFV
62
0
70
32
10
7.489796
20
6.816327
30
0
0
VERTEX
8
PFV
62
0
70
32
10
7.469388
20
6.836735
30
0
0
VERTEX
8
PFV
62
0
70
32
10
7.469388
20
6.897959
30
0
0
SEQEND
0
POLYLINE
8
PFV
62
0
66
1
70
8
0
VERTEX
8
PFV
62
0
70
32
10
8.591837
20
6.857143
30
0
0
VERTEX
8
PFV
62
0
70
32
10
8.612245
20
6.877551
30
0
0
VERTEX
8
PFV
62
0
70
32
10
8.612245
20
6.897959
30
0
0
SEQEND
0
POLYLINE
8
PFV
62
0
66
1
70
8
0
VERTEX
8
PFV
62
0
70
32
10
7.816327
20
7.081633
30
0
0
VERTEX
8
PFV
62
0
70
32
10
7.816327
20
7.122449
30
0
0
VERTEX
8
PFV
62
0
70
32
10
7.836735
20
7.122449
30
0
0
VERTEX
8
PFV
62
0
70
32
10
7.857143
20
7.102041
30
0
0
VERTEX
8
PFV
62
0
70
32
10
7.857143
20
7.081633
30
0
0
VERTEX
8
PFV
62
0
70
32
10
7.816327
20
7.081633
30
0
0
SEQEND
0
POLYLINE
8
PFV
62
0
66
1
70
8
0
VERTEX
8
PFV
62
0
70
32
10
7.061224
20
7.265306
30
0
0
VERTEX
8
PFV
62
0
70
32
10
7.081633
20
7.346939
30
0
0
VERTEX
8
PFV
62
0
70
32
10
7.142857
20
7.346939
30
0
0
VERTEX
8
PFV
62
0
70
32
10
7.061224
20
7.265306
30
0
0
SEQEND
0
ENDSEC
0
EOF
