0
SECTION
2
HEADER
0
ENDSEC
0
SECTION
2
TABLES
0
ENDSEC
0
SECTION
2
BLOCKS
0
ENDSEC
0
SECTION
2
ENTITIES
0
POLYLINE
8
PFV
62
0
66
1
70
8
0
VERTEX
8
PFV
62
0
70
32
10
5.254902
20
0.470588
30
0
0
VERTEX
8
PFV
62
0
70
32
10
4.862745
20
0.862745
30
0
0
VERTEX
8
PFV
62
0
70
32
10
4.843137
20
0.960784
30
0
0
VERTEX
8
PFV
62
0
70
32
10
4.823529
20
0.901961
30
0
0
VERTEX
8
PFV
62
0
70
32
10
4.745098
20
0.921569
30
0
0
SEQEND
0
POLYLINE
8
PFV
62
0
66
1
70
8
0
VERTEX
8
PFV
62
0
70
32
10
5.254902
20
0.470588
30
0
0
VERTEX
8
PFV
62
0
70
32
10
5.803922
20
0.549020
30
0
0
VERTEX
8
PFV
62
0
70
32
10
6.156863
20
0.627451
30
0
0
VERTEX
8
PFV
62
0
70
32
10
6.313725
20
0.745098
30
0
0
VERTEX
8
PFV
62
0
70
32
10
7.274510
20
0.901961
30
0
0
VERTEX
8
PFV
62
0
70
32
10
7.490196
20
0.941176
30
0
0
VERTEX
8
PFV
62
0
70
32
10
7.647059
20
0.980392
30
0
0
VERTEX
8
PFV
62
0
70
32
10
7.568627
20
1.098039
30
0
0
VERTEX
8
PFV
62
0
70
32
10
7.000000
20
1.647059
30
0
0
VERTEX
8
PFV
62
0
70
32
10
7.019608
20
2.000000
30
0
0
VERTEX
8
PFV
62
0
70
32
10
7.058824
20
2.176471
30
0
0
VERTEX
8
PFV
62
0
70
32
10
7.019608
20
2.176471
30
0
0
VERTEX
8
PFV
62
0
70
32
10
7.039216
20
2.137255
30
0
0
SEQEND
0
POLYLINE
8
PFV
62
0
66
1
70
8
0
VERTEX
8
PFV
62
0
70
32
10
5.254902
20
0.470588
30
0
0
VERTEX
8
PFV
62
0
70
32
10
5.215686
20
0.431373
30
0
0
VERTEX
8
PFV
62
0
70
32
10
4.745098
20
0.372549
30
0
0
VERTEX
8
PFV
62
0
70
32
10
3.980392
20
0.215686
30
0
0
VERTEX
8
PFV
62
0
70
32
10
3.294118
20
0.235294
30
0
0
VERTEX
8
PFV
62
0
70
32
10
1.078431
20
1.058824
30
0
0
VERTEX
8
PFV
62
0
70
32
10
0.980392
20
1.294118
30
0
0
VERTEX
8
PFV
62
0
70
32
10
0.509804
20
2.843137
30
0
0
VERTEX
8
PFV
62
0
70
32
10
0.470588
20
3.529412
30
0
0
VERTEX
8
PFV
62
0
70
32
10
0.490196
20
5.098039
30
0
0
VERTEX
8
PFV
62
0
70
32
10
0.588235
20
5.274510
30
0
0
VERTEX
8
PFV
62
0
70
32
10
0.607843
20
5.901961
30
0
0
VERTEX
8
PFV
62
0
70
32
10
0.627451
20
5.901961
30
0
0
VERTEX
8
PFV
62
0
70
32
10
1.058824
20
5.470588
30
0
0
VERTEX
8
PFV
62
0
70
32
10
1.274510
20
5.490196
30
0
0
SEQEND
0
POLYLINE
8
PFV
62
0
66
1
70
8
0
VERTEX
8
PFV
62
0
70
32
10
5.254902
20
0.470588
30
0
0
VERTEX
8
PFV
62
0
70
32
10
5.235294
20
0.490196
30
0
0
SEQEND
0
POLYLINE
8
PFV
62
0
66
1
70
8
0
VERTEX
8
PFV
62
0
70
32
10
6.039216
20
0.607843
30
0
0
VERTEX
8
PFV
62
0
70
32
10
5.490196
20
1.176471
30
0
0
VERTEX
8
PFV
62
0
70
32
10
5.470588
20
1.235294
30
0
0
VERTEX
8
PFV
62
0
70
32
10
5.450980
20
1.196078
30
0
0
VERTEX
8
PFV
62
0
70
32
10
5.490196
20
1.196078
30
0
0
SEQEND
0
POLYLINE
8
PFV
62
0
66
1
70
8
0
VERTEX
8
PFV
62
0
70
32
10
6.039216
20
0.607843
30
0
0
VERTEX
8
PFV
62
0
70
32
10
6.019608
20
0.627451
30
0
0
SEQEND
0
POLYLINE
8
PFV
62
0
66
1
70
8
0
VERTEX
8
PFV
62
0
70
32
10
6.529412
20
0.784314
30
0
0
VERTEX
8
PFV
62
0
70
32
10
5.803922
20
1.529412
30
0
0
VERTEX
8
PFV
62
0
70
32
10
5.803922
20
1.588235
30
0
0
VERTEX
8
PFV
62
0
70
32
10
5.764706
20
1.588235
30
0
0
VERTEX
8
PFV
62
0
70
32
10
5.764706
20
1.549020
30
0
0
VERTEX
8
PFV
62
0
70
32
10
5.803922
20
1.549020
30
0
0
SEQEND
0
POLYLINE
8
PFV
62
0
66
1
70
8
0
VERTEX
8
PFV
62
0
70
32
10
6.529412
20
0.784314
30
0
0
VERTEX
8
PFV
62
0
70
32
10
6.509804
20
0.803922
30
0
0
SEQEND
0
POLYLINE
8
PFV
62
0
66
1
70
8
0
VERTEX
8
PFV
62
0
70
32
10
4.823529
20
0.921569
30
0
0
VERTEX
8
PFV
62
0
70
32
10
4.862745
20
0.921569
30
0
0
SEQEND
0
POLYLINE
8
PFV
62
0
66
1
70
8
0
VERTEX
8
PFV
62
0
70
32
10
7.294118
20
0.921569
30
0
0
VERTEX
8
PFV
62
0
70
32
10
6.431373
20
1.784314
30
0
0
VERTEX
8
PFV
62
0
70
32
10
6.431373
20
1.862745
30
0
0
VERTEX
8
PFV
62
0
70
32
10
6.392157
20
1.862745
30
0
0
VERTEX
8
PFV
62
0
70
32
10
6.392157
20
1.823529
30
0
0
VERTEX
8
PFV
62
0
70
32
10
6.431373
20
1.823529
30
0
0
SEQEND
0
POLYLINE
8
PFV
62
0
66
1
70
8
0
VERTEX
8
PFV
62
0
70
32
10
7.294118
20
0.921569
30
0
0
VERTEX
8
PFV
62
0
70
32
10
7.274510
20
0.941176
30
0
0
SEQEND
0
POLYLINE
8
PFV
62
0
66
1
70
8
0
VERTEX
8
PFV
62
0
70
32
10
7.647059
20
1.000000
30
0
0
VERTEX
8
PFV
62
0
70
32
10
8.470588
20
1.019608
30
0
0
VERTEX
8
PFV
62
0
70
32
10
8.921569
20
1.117647
30
0
0
VERTEX
8
PFV
62
0
70
32
10
9.529412
20
2.274510
30
0
0
VERTEX
8
PFV
62
0
70
32
10
9.568627
20
2.470588
30
0
0
VERTEX
8
PFV
62
0
70
32
10
9.568627
20
4.450980
30
0
0
VERTEX
8
PFV
62
0
70
32
10
9.450980
20
4.823529
30
0
0
VERTEX
8
PFV
62
0
70
32
10
9.411765
20
6.784314
30
0
0
VERTEX
8
PFV
62
0
70
32
10
9.333333
20
7.333333
30
0
0
VERTEX
8
PFV
62
0
70
32
10
9.156863
20
8.098039
30
0
0
VERTEX
8
PFV
62
0
70
32
10
9.117647
20
8.254902
30
0
0
VERTEX
8
PFV
62
0
70
32
10
8.941176
20
8.294118
30
0
0
VERTEX
8
PFV
62
0
70
32
10
8.470588
20
8.450980
30
0
0
VERTEX
8
PFV
62
0
70
32
10
7.882353
20
8.588235
30
0
0
VERTEX
8
PFV
62
0
70
32
10
6.843137
20
8.764706
30
0
0
VERTEX
8
PFV
62
0
70
32
10
6.039216
20
8.843137
30
0
0
VERTEX
8
PFV
62
0
70
32
10
3.941176
20
8.843137
30
0
0
VERTEX
8
PFV
62
0
70
32
10
2.764706
20
8.705882
30
0
0
VERTEX
8
PFV
62
0
70
32
10
2.392157
20
8.627451
30
0
0
VERTEX
8
PFV
62
0
70
32
10
1.823529
20
8.490196
30
0
0
VERTEX
8
PFV
62
0
70
32
10
1.490196
20
8.470588
30
0
0
VERTEX
8
PFV
62
0
70
32
10
1.411765
20
8.352941
30
0
0
VERTEX
8
PFV
62
0
70
32
10
2.058824
20
7.725490
30
0
0
VERTEX
8
PFV
62
0
70
32
10
2.254902
20
7.745098
30
0
0
VERTEX
8
PFV
62
0
70
32
10
2.313725
20
7.882353
30
0
0
VERTEX
8
PFV
62
0
70
32
10
2.294118
20
8.039216
30
0
0
VERTEX
8
PFV
62
0
70
32
10
1.862745
20
8.470588
30
0
0
SEQEND
0
POLYLINE
8
PFV
62
0
66
1
70
8
0
VERTEX
8
PFV
62
0
70
32
10
7.647059
20
1.000000
30
0
0
VERTEX
8
PFV
62
0
70
32
10
7.627451
20
1.019608
30
0
0
SEQEND
0
POLYLINE
8
PFV
62
0
66
1
70
8
0
VERTEX
8
PFV
62
0
70
32
10
8.960784
20
1.235294
30
0
0
VERTEX
8
PFV
62
0
70
32
10
7.960784
20
2.235294
30
0
0
VERTEX
8
PFV
62
0
70
32
10
7.941176
20
2.294118
30
0
0
VERTEX
8
PFV
62
0
70
32
10
7.921569
20
2.254902
30
0
0
VERTEX
8
PFV
62
0
70
32
10
7.960784
20
2.254902
30
0
0
SEQEND
0
POLYLINE
8
PFV
62
0
66
1
70
8
0
VERTEX
8
PFV
62
0
70
32
10
8.960784
20
1.235294
30
0
0
VERTEX
8
PFV
62
0
70
32
10
8.941176
20
1.254902
30
0
0
SEQEND
0
POLYLINE
8
PFV
62
0
66
1
70
8
0
VERTEX
8
PFV
62
0
70
32
10
7.039216
20
2.137255
30
0
0
VERTEX
8
PFV
62
0
70
32
10
7.058824
20
2.137255
30
0
0
SEQEND
0
POLYLINE
8
PFV
62
0
66
1
70
8
0
VERTEX
8
PFV
62
0
70
32
10
9.137255
20
4.509804
30
0
0
VERTEX
8
PFV
62
0
70
32
10
9.450980
20
4.803922
30
0
0
SEQEND
0
POLYLINE
8
PFV
62
0
66
1
70
8
0
VERTEX
8
PFV
62
0
70
32
10
9.137255
20
4.509804
30
0
0
VERTEX
8
PFV
62
0
70
32
10
9.019608
20
4.372549
30
0
0
VERTEX
8
PFV
62
0
70
32
10
8.882353
20
4.392157
30
0
0
VERTEX
8
PFV
62
0
70
32
10
8.882353
20
4.470588
30
0
0
VERTEX
8
PFV
62
0
70
32
10
8.921569
20
4.509804
30
0
0
VERTEX
8
PFV
62
0
70
32
10
9.137255
20
4.509804
30
0
0
SEQEND
0
POLYLINE
8
PFV
62
0
66
1
70
8
0
VERTEX
8
PFV
62
0
70
32
10
6.882353
20
4.607843
30
0
0
VERTEX
8
PFV
62
0
70
32
10
6.901961
20
4.705882
30
0
0
VERTEX
8
PFV
62
0
70
32
10
7.019608
20
4.784314
30
0
0
VERTEX
8
PFV
62
0
70
32
10
7.098039
20
4.784314
30
0
0
VERTEX
8
PFV
62
0
70
32
10
7.098039
20
4.705882
30
0
0
VERTEX
8
PFV
62
0
70
32
10
7.058824
20
4.666667
30
0
0
VERTEX
8
PFV
62
0
70
32
10
6.980392
20
4.686275
30
0
0
VERTEX
8
PFV
62
0
70
32
10
6.960784
20
4.725490
30
0
0
SEQEND
0
POLYLINE
8
PFV
62
0
66
1
70
8
0
VERTEX
8
PFV
62
0
70
32
10
6.882353
20
4.607843
30
0
0
VERTEX
8
PFV
62
0
70
32
10
6.941176
20
4.607843
30
0
0
VERTEX
8
PFV
62
0
70
32
10
6.960784
20
4.627451
30
0
0
VERTEX
8
PFV
62
0
70
32
10
6.980392
20
4.627451
30
0
0
VERTEX
8
PFV
62
0
70
32
10
7.000000
20
4.647059
30
0
0
VERTEX
8
PFV
62
0
70
32
10
7.000000
20
4.666667
30
0
0
SEQEND
0
POLYLINE
8
PFV
62
0
66
1
70
8
0
VERTEX
8
PFV
62
0
70
32
10
6.882353
20
4.607843
30
0
0
VERTEX
8
PFV
62
0
70
32
10
6.803922
20
4.568627
30
0
0
VERTEX
8
PFV
62
0
70
32
10
6.803922
20
4.529412
30
0
0
VERTEX
8
PFV
62
0
70
32
10
6.549020
20
4.431373
30
0
0
VERTEX
8
PFV
62
0
70
32
10
6.196078
20
4.294118
30
0
0
VERTEX
8
PFV
62
0
70
32
10
6.039216
20
4.254902
30
0
0
VERTEX
8
PFV
62
0
70
32
10
5.647059
20
4.196078
30
0
0
VERTEX
8
PFV
62
0
70
32
10
5.450980
20
4.156863
30
0
0
VERTEX
8
PFV
62
0
70
32
10
4.745098
20
4.176471
30
0
0
SEQEND
0
POLYLINE
8
PFV
62
0
66
1
70
8
0
VERTEX
8
PFV
62
0
70
32
10
1.156863
20
4.745098
30
0
0
VERTEX
8
PFV
62
0
70
32
10
1.058824
20
4.784314
30
0
0
VERTEX
8
PFV
62
0
70
32
10
0.784314
20
5.058824
30
0
0
VERTEX
8
PFV
62
0
70
32
10
0.784314
20
5.098039
30
0
0
VERTEX
8
PFV
62
0
70
32
10
1.156863
20
5.098039
30
0
0
VERTEX
8
PFV
62
0
70
32
10
1.196078
20
5.078431
30
0
0
VERTEX
8
PFV
62
0
70
32
10
1.196078
20
5.117647
30
0
0
VERTEX
8
PFV
62
0
70
32
10
1.156863
20
5.098039
30
0
0
SEQEND
0
POLYLINE
8
PFV
62
0
66
1
70
8
0
VERTEX
8
PFV
62
0
70
32
10
1.156863
20
4.745098
30
0
0
VERTEX
8
PFV
62
0
70
32
10
1.196078
20
4.745098
30
0
0
VERTEX
8
PFV
62
0
70
32
10
1.196078
20
4.705882
30
0
0
SEQEND
0
POLYLINE
8
PFV
62
0
66
1
70
8
0
VERTEX
8
PFV
62
0
70
32
10
1.156863
20
4.745098
30
0
0
VERTEX
8
PFV
62
0
70
32
10
1.156863
20
4.725490
30
0
0
VERTEX
8
PFV
62
0
70
32
10
1.117647
20
4.725490
30
0
0
VERTEX
8
PFV
62
0
70
32
10
1.117647
20
4.764706
30
0
0
SEQEND
0
POLYLINE
8
PFV
62
0
66
1
70
8
0
VERTEX
8
PFV
62
0
70
32
10
7.117647
20
4.764706
30
0
0
VERTEX
8
PFV
62
0
70
32
10
7.215686
20
4.823529
30
0
0
VERTEX
8
PFV
62
0
70
32
10
7.294118
20
4.823529
30
0
0
VERTEX
8
PFV
62
0
70
32
10
7.333333
20
4.941176
30
0
0
VERTEX
8
PFV
62
0
70
32
10
7.411765
20
4.960784
30
0
0
VERTEX
8
PFV
62
0
70
32
10
7.568627
20
5.117647
30
0
0
VERTEX
8
PFV
62
0
70
32
10
7.529412
20
5.254902
30
0
0
SEQEND
0
POLYLINE
8
PFV
62
0
66
1
70
8
0
VERTEX
8
PFV
62
0
70
32
10
7.117647
20
4.764706
30
0
0
VERTEX
8
PFV
62
0
70
32
10
7.098039
20
4.764706
30
0
0
SEQEND
0
POLYLINE
8
PFV
62
0
66
1
70
8
0
VERTEX
8
PFV
62
0
70
32
10
0.784314
20
5.098039
30
0
0
VERTEX
8
PFV
62
0
70
32
10
0.666667
20
5.176471
30
0
0
VERTEX
8
PFV
62
0
70
32
10
0.588235
20
5.254902
30
0
0
SEQEND
0
POLYLINE
8
PFV
62
0
66
1
70
8
0
VERTEX
8
PFV
62
0
70
32
10
1.156863
20
5.098039
30
0
0
VERTEX
8
PFV
62
0
70
32
10
1.156863
20
5.078431
30
0
0
SEQEND
0
POLYLINE
8
PFV
62
0
66
1
70
8
0
VERTEX
8
PFV
62
0
70
32
10
7.568627
20
5.137255
30
0
0
VERTEX
8
PFV
62
0
70
32
10
7.666667
20
5.196078
30
0
0
VERTEX
8
PFV
62
0
70
32
10
7.666667
20
5.294118
30
0
0
VERTEX
8
PFV
62
0
70
32
10
7.607843
20
5.372549
30
0
0
VERTEX
8
PFV
62
0
70
32
10
7.627451
20
5.392157
30
0
0
SEQEND
0
POLYLINE
8
PFV
62
0
66
1
70
8
0
VERTEX
8
PFV
62
0
70
32
10
7.568627
20
5.137255
30
0
0
VERTEX
8
PFV
62
0
70
32
10
7.549020
20
5.156863
30
0
0
SEQEND
0
POLYLINE
8
PFV
62
0
66
1
70
8
0
VERTEX
8
PFV
62
0
70
32
10
7.686275
20
5.274510
30
0
0
VERTEX
8
PFV
62
0
70
32
10
7.764706
20
5.333333
30
0
0
VERTEX
8
PFV
62
0
70
32
10
7.803922
20
5.392157
30
0
0
VERTEX
8
PFV
62
0
70
32
10
7.823529
20
5.470588
30
0
0
SEQEND
0
POLYLINE
8
PFV
62
0
66
1
70
8
0
VERTEX
8
PFV
62
0
70
32
10
7.686275
20
5.274510
30
0
0
VERTEX
8
PFV
62
0
70
32
10
7.666667
20
5.274510
30
0
0
SEQEND
0
POLYLINE
8
PFV
62
0
66
1
70
8
0
VERTEX
8
PFV
62
0
70
32
10
1.235294
20
5.725490
30
0
0
VERTEX
8
PFV
62
0
70
32
10
1.274510
20
5.725490
30
0
0
VERTEX
8
PFV
62
0
70
32
10
1.039216
20
5.745098
30
0
0
VERTEX
8
PFV
62
0
70
32
10
0.627451
20
6.156863
30
0
0
VERTEX
8
PFV
62
0
70
32
10
0.647059
20
7.000000
30
0
0
VERTEX
8
PFV
62
0
70
32
10
0.745098
20
7.607843
30
0
0
VERTEX
8
PFV
62
0
70
32
10
0.901961
20
8.196078
30
0
0
VERTEX
8
PFV
62
0
70
32
10
1.019608
20
8.274510
30
0
0
VERTEX
8
PFV
62
0
70
32
10
1.313725
20
8.372549
30
0
0
VERTEX
8
PFV
62
0
70
32
10
1.411765
20
8.372549
30
0
0
SEQEND
0
POLYLINE
8
PFV
62
0
66
1
70
8
0
VERTEX
8
PFV
62
0
70
32
10
0.607843
20
5.901961
30
0
0
VERTEX
8
PFV
62
0
70
32
10
0.607843
20
6.137255
30
0
0
VERTEX
8
PFV
62
0
70
32
10
0.627451
20
6.156863
30
0
0
SEQEND
0
POLYLINE
8
PFV
62
0
66
1
70
8
0
VERTEX
8
PFV
62
0
70
32
10
0.607843
20
5.901961
30
0
0
VERTEX
8
PFV
62
0
70
32
10
0.627451
20
5.882353
30
0
0
SEQEND
0
POLYLINE
8
PFV
62
0
66
1
70
8
0
VERTEX
8
PFV
62
0
70
32
10
6.000000
20
6.078431
30
0
0
VERTEX
8
PFV
62
0
70
32
10
5.901961
20
6.156863
30
0
0
VERTEX
8
PFV
62
0
70
32
10
5.882353
20
6.215686
30
0
0
VERTEX
8
PFV
62
0
70
32
10
5.803922
20
6.274510
30
0
0
VERTEX
8
PFV
62
0
70
32
10
5.647059
20
6.450980
30
0
0
VERTEX
8
PFV
62
0
70
32
10
5.549020
20
6.509804
30
0
0
VERTEX
8
PFV
62
0
70
32
10
5.215686
20
6.882353
30
0
0
VERTEX
8
PFV
62
0
70
32
10
5.137255
20
6.882353
30
0
0
SEQEND
0
POLYLINE
8
PFV
62
0
66
1
70
8
0
VERTEX
8
PFV
62
0
70
32
10
6.000000
20
6.078431
30
0
0
VERTEX
8
PFV
62
0
70
32
10
6.098039
20
6.078431
30
0
0
VERTEX
8
PFV
62
0
70
32
10
6.117647
20
6.098039
30
0
0
VERTEX
8
PFV
62
0
70
32
10
6.176471
20
6.098039
30
0
0
VERTEX
8
PFV
62
0
70
32
10
6.176471
20
6.000000
30
0
0
SEQEND
0
POLYLINE
8
PFV
62
0
66
1
70
8
0
VERTEX
8
PFV
62
0
70
32
10
6.000000
20
6.078431
30
0
0
VERTEX
8
PFV
62
0
70
32
10
5.980392
20
6.058824
30
0
0
VERTEX
8
PFV
62
0
70
32
10
5.980392
20
6.039216
30
0
0
VERTEX
8
PFV
62
0
70
32
10
5.960784
20
6.019608
30
0
0
VERTEX
8
PFV
62
0
70
32
10
5.960784
20
5.941176
30
0
0
SEQEND
0
POLYLINE
8
PFV
62
0
66
1
70
8
0
VERTEX
8
PFV
62
0
70
32
10
6.000000
20
6.078431
30
0
0
VERTEX
8
PFV
62
0
70
32
10
5.980392
20
6.098039
30
0
0
SEQEND
0
POLYLINE
8
PFV
62
0
66
1
70
8
0
VERTEX
8
PFV
62
0
70
32
10
6.176471
20
6.098039
30
0
0
VERTEX
8
PFV
62
0
70
32
10
6.235294
20
6.274510
30
0
0
VERTEX
8
PFV
62
0
70
32
10
6.294118
20
6.313725
30
0
0
VERTEX
8
PFV
62
0
70
32
10
6.372549
20
6.411765
30
0
0
VERTEX
8
PFV
62
0
70
32
10
6.392157
20
6.549020
30
0
0
VERTEX
8
PFV
62
0
70
32
10
6.431373
20
6.549020
30
0
0
VERTEX
8
PFV
62
0
70
32
10
6.411765
20
6.666667
30
0
0
VERTEX
8
PFV
62
0
70
32
10
6.392157
20
6.705882
30
0
0
SEQEND
0
POLYLINE
8
PFV
62
0
66
1
70
8
0
VERTEX
8
PFV
62
0
70
32
10
0.627451
20
6.156863
30
0
0
VERTEX
8
PFV
62
0
70
32
10
0.647059
20
6.156863
30
0
0
SEQEND
0
POLYLINE
8
PFV
62
0
66
1
70
8
0
VERTEX
8
PFV
62
0
70
32
10
2.137255
20
6.509804
30
0
0
VERTEX
8
PFV
62
0
70
32
10
2.176471
20
6.549020
30
0
0
VERTEX
8
PFV
62
0
70
32
10
2.176471
20
6.509804
30
0
0
VERTEX
8
PFV
62
0
70
32
10
2.137255
20
6.509804
30
0
0
VERTEX
8
PFV
62
0
70
32
10
2.078431
20
6.176471
30
0
0
VERTEX
8
PFV
62
0
70
32
10
2.098039
20
5.941176
30
0
0
VERTEX
8
PFV
62
0
70
32
10
2.137255
20
5.725490
30
0
0
VERTEX
8
PFV
62
0
70
32
10
2.313725
20
5.313725
30
0
0
VERTEX
8
PFV
62
0
70
32
10
2.490196
20
5.078431
30
0
0
VERTEX
8
PFV
62
0
70
32
10
2.509804
20
5.078431
30
0
0
VERTEX
8
PFV
62
0
70
32
10
2.823529
20
4.725490
30
0
0
VERTEX
8
PFV
62
0
70
32
10
2.843137
20
4.725490
30
0
0
VERTEX
8
PFV
62
0
70
32
10
3.215686
20
4.470588
30
0
0
VERTEX
8
PFV
62
0
70
32
10
3.254902
20
4.470588
30
0
0
VERTEX
8
PFV
62
0
70
32
10
3.372549
20
4.392157
30
0
0
VERTEX
8
PFV
62
0
70
32
10
3.431373
20
4.392157
30
0
0
VERTEX
8
PFV
62
0
70
32
10
3.745098
20
4.254902
30
0
0
VERTEX
8
PFV
62
0
70
32
10
3.843137
20
4.254902
30
0
0
VERTEX
8
PFV
62
0
70
32
10
4.000000
20
4.176471
30
0
0
VERTEX
8
PFV
62
0
70
32
10
4.137255
20
4.176471
30
0
0
VERTEX
8
PFV
62
0
70
32
10
4.235294
20
4.137255
30
0
0
SEQEND
0
POLYLINE
8
PFV
62
0
66
1
70
8
0
VERTEX
8
PFV
62
0
70
32
10
2.176471
20
6.549020
30
0
0
VERTEX
8
PFV
62
0
70
32
10
2.215686
20
6.725490
30
0
0
VERTEX
8
PFV
62
0
70
32
10
2.274510
20
6.745098
30
0
0
VERTEX
8
PFV
62
0
70
32
10
2.274510
20
6.823529
30
0
0
SEQEND
0
POLYLINE
8
PFV
62
0
66
1
70
8
0
VERTEX
8
PFV
62
0
70
32
10
2.176471
20
6.607843
30
0
0
VERTEX
8
PFV
62
0
70
32
10
2.196078
20
6.607843
30
0
0
SEQEND
0
POLYLINE
8
PFV
62
0
66
1
70
8
0
VERTEX
8
PFV
62
0
70
32
10
2.176471
20
6.607843
30
0
0
VERTEX
8
PFV
62
0
70
32
10
2.156863
20
6.607843
30
0
0
VERTEX
8
PFV
62
0
70
32
10
2.156863
20
6.627451
30
0
0
VERTEX
8
PFV
62
0
70
32
10
2.176471
20
6.647059
30
0
0
VERTEX
8
PFV
62
0
70
32
10
2.196078
20
6.647059
30
0
0
SEQEND
0
POLYLINE
8
PFV
62
0
66
1
70
8
0
VERTEX
8
PFV
62
0
70
32
10
6.431373
20
6.627451
30
0
0
VERTEX
8
PFV
62
0
70
32
10
6.470588
20
6.627451
30
0
0
SEQEND
0
POLYLINE
8
PFV
62
0
66
1
70
8
0
VERTEX
8
PFV
62
0
70
32
10
8.784314
20
6.823529
30
0
0
VERTEX
8
PFV
62
0
70
32
10
9.313725
20
7.333333
30
0
0
SEQEND
0
POLYLINE
8
PFV
62
0
66
1
70
8
0
VERTEX
8
PFV
62
0
70
32
10
8.784314
20
6.823529
30
0
0
VERTEX
8
PFV
62
0
70
32
10
8.784314
20
6.784314
30
0
0
VERTEX
8
PFV
62
0
70
32
10
8.745098
20
6.784314
30
0
0
VERTEX
8
PFV
62
0
70
32
10
8.745098
20
6.823529
30
0
0
VERTEX
8
PFV
62
0
70
32
10
8.784314
20
6.823529
30
0
0
SEQEND
0
POLYLINE
8
PFV
62
0
66
1
70
8
0
VERTEX
8
PFV
62
0
70
32
10
8.313725
20
7.294118
30
0
0
VERTEX
8
PFV
62
0
70
32
10
8.313725
20
7.254902
30
0
0
VERTEX
8
PFV
62
0
70
32
10
8.274510
20
7.254902
30
0
0
VERTEX
8
PFV
62
0
70
32
10
8.274510
20
7.294118
30
0
0
VERTEX
8
PFV
62
0
70
32
10
8.411765
20
7.392157
30
0
0
VERTEX
8
PFV
62
0
70
32
10
9.137255
20
8.098039
30
0
0
SEQEND
0
POLYLINE
8
PFV
62
0
66
1
70
8
0
VERTEX
8
PFV
62
0
70
32
10
8.156863
20
7.450980
30
0
0
VERTEX
8
PFV
62
0
70
32
10
8.156863
20
7.411765
30
0
0
VERTEX
8
PFV
62
0
70
32
10
8.117647
20
7.411765
30
0
0
VERTEX
8
PFV
62
0
70
32
10
8.117647
20
7.450980
30
0
0
VERTEX
8
PFV
62
0
70
32
10
8.254902
20
7.549020
30
0
0
VERTEX
8
PFV
62
0
70
32
10
8.960784
20
8.274510
30
0
0
SEQEND
0
POLYLINE
8
PFV
62
0
66
1
70
8
0
VERTEX
8
PFV
62
0
70
32
10
2.686275
20
8.039216
30
0
0
VERTEX
8
PFV
62
0
70
32
10
2.647059
20
8.098039
30
0
0
VERTEX
8
PFV
62
0
70
32
10
2.196078
20
8.549020
30
0
0
SEQEND
0
POLYLINE
8
PFV
62
0
66
1
70
8
0
VERTEX
8
PFV
62
0
70
32
10
2.686275
20
8.039216
30
0
0
VERTEX
8
PFV
62
0
70
32
10
2.725490
20
8.039216
30
0
0
VERTEX
8
PFV
62
0
70
32
10
2.725490
20
8.000000
30
0
0
VERTEX
8
PFV
62
0
70
32
10
2.686275
20
8.000000
30
0
0
VERTEX
8
PFV
62
0
70
32
10
2.686275
20
8.039216
30
0
0
SEQEND
0
POLYLINE
8
PFV
62
0
66
1
70
8
0
VERTEX
8
PFV
62
0
70
32
10
7.294118
20
8.078431
30
0
0
VERTEX
8
PFV
62
0
70
32
10
7.764706
20
8.588235
30
0
0
SEQEND
0
POLYLINE
8
PFV
62
0
66
1
70
8
0
VERTEX
8
PFV
62
0
70
32
10
7.294118
20
8.078431
30
0
0
VERTEX
8
PFV
62
0
70
32
10
7.294118
20
8.039216
30
0
0
VERTEX
8
PFV
62
0
70
32
10
7.254902
20
8.039216
30
0
0
VERTEX
8
PFV
62
0
70
32
10
7.254902
20
8.078431
30
0
0
VERTEX
8
PFV
62
0
70
32
10
7.294118
20
8.078431
30
0
0
SEQEND
0
POLYLINE
8
PFV
62
0
66
1
70
8
0
VERTEX
8
PFV
62
0
70
32
10
2.843137
20
8.117647
30
0
0
VERTEX
8
PFV
62
0
70
32
10
2.764706
20
8.235294
30
0
0
VERTEX
8
PFV
62
0
70
32
10
2.392157
20
8.607843
30
0
0
SEQEND
0
POLYLINE
8
PFV
62
0
66
1
70
8
0
VERTEX
8
PFV
62
0
70
32
10
2.843137
20
8.117647
30
0
0
VERTEX
8
PFV
62
0
70
32
10
2.882353
20
8.117647
30
0
0
VERTEX
8
PFV
62
0
70
32
10
2.882353
20
8.098039
30
0
0
VERTEX
8
PFV
62
0
70
32
10
2.862745
20
8.078431
30
0
0
VERTEX
8
PFV
62
0
70
32
10
2.843137
20
8.078431
30
0
0
VERTEX
8
PFV
62
0
70
32
10
2.843137
20
8.117647
30
0
0
SEQEND
0
POLYLINE
8
PFV
62
0
66
1
70
8
0
VERTEX
8
PFV
62
0
70
32
10
8.960784
20
8.274510
30
0
0
VERTEX
8
PFV
62
0
70
32
10
8.960784
20
8.294118
30
0
0
SEQEND
0
POLYLINE
8
PFV
62
0
66
1
70
8
0
VERTEX
8
PFV
62
0
70
32
10
1.411765
20
8.372549
30
0
0
VERTEX
8
PFV
62
0
70
32
10
1.431373
20
8.352941
30
0
0
SEQEND
0
POLYLINE
8
PFV
62
0
66
1
70
8
0
VERTEX
8
PFV
62
0
70
32
10
7.764706
20
8.588235
30
0
0
VERTEX
8
PFV
62
0
70
32
10
7.764706
20
8.607843
30
0
0
SEQEND
0
POLYLINE
8
PFV
62
0
66
1
70
8
0
VERTEX
8
PFV
62
0
70
32
10
4.313725
20
4.137255
30
0
0
VERTEX
8
PFV
62
0
70
32
10
4.333333
20
4.137255
30
0
0
SEQEND
0
POLYLINE
8
PFV
62
0
66
1
70
8
0
VERTEX
8
PFV
62
0
70
32
10
1.568627
20
5.078431
30
0
0
VERTEX
8
PFV
62
0
70
32
10
1.588235
20
5.078431
30
0
0
SEQEND
0
POLYLINE
8
PFV
62
0
66
1
70
8
0
VERTEX
8
PFV
62
0
70
32
10
1.568627
20
5.078431
30
0
0
VERTEX
8
PFV
62
0
70
32
10
1.549020
20
5.098039
30
0
0
VERTEX
8
PFV
62
0
70
32
10
1.549020
20
5.176471
30
0
0
SEQEND
0
POLYLINE
8
PFV
62
0
66
1
70
8
0
VERTEX
8
PFV
62
0
70
32
10
1.274510
20
5.117647
30
0
0
VERTEX
8
PFV
62
0
70
32
10
1.254902
20
5.137255
30
0
0
SEQEND
0
POLYLINE
8
PFV
62
0
66
1
70
8
0
VERTEX
8
PFV
62
0
70
32
10
1.411765
20
5.215686
30
0
0
VERTEX
8
PFV
62
0
70
32
10
1.411765
20
5.235294
30
0
0
SEQEND
0
POLYLINE
8
PFV
62
0
66
1
70
8
0
VERTEX
8
PFV
62
0
70
32
10
1.352941
20
5.333333
30
0
0
VERTEX
8
PFV
62
0
70
32
10
1.352941
20
5.372549
30
0
0
VERTEX
8
PFV
62
0
70
32
10
1.333333
20
5.392157
30
0
0
VERTEX
8
PFV
62
0
70
32
10
1.313725
20
5.411765
30
0
0
SEQEND
0
POLYLINE
8
PFV
62
0
66
1
70
8
0
VERTEX
8
PFV
62
0
70
32
10
4.392157
20
5.352941
30
0
0
VERTEX
8
PFV
62
0
70
32
10
4.450980
20
5.352941
30
0
0
SEQEND
0
POLYLINE
8
PFV
62
0
66
1
70
8
0
VERTEX
8
PFV
62
0
70
32
10
5.862745
20
5.352941
30
0
0
VERTEX
8
PFV
62
0
70
32
10
5.784314
20
5.470588
30
0
0
VERTEX
8
PFV
62
0
70
32
10
5.647059
20
5.490196
30
0
0
VERTEX
8
PFV
62
0
70
32
10
5.509804
20
5.607843
30
0
0
VERTEX
8
PFV
62
0
70
32
10
5.490196
20
5.666667
30
0
0
VERTEX
8
PFV
62
0
70
32
10
5.431373
20
5.705882
30
0
0
VERTEX
8
PFV
62
0
70
32
10
5.313725
20
5.843137
30
0
0
VERTEX
8
PFV
62
0
70
32
10
5.176471
20
5.980392
30
0
0
VERTEX
8
PFV
62
0
70
32
10
4.803922
20
6.352941
30
0
0
VERTEX
8
PFV
62
0
70
32
10
4.411765
20
6.764706
30
0
0
VERTEX
8
PFV
62
0
70
32
10
4.372549
20
6.823529
30
0
0
VERTEX
8
PFV
62
0
70
32
10
4.254902
20
6.941176
30
0
0
VERTEX
8
PFV
62
0
70
32
10
4.176471
20
6.941176
30
0
0
SEQEND
0
POLYLINE
8
PFV
62
0
66
1
70
8
0
VERTEX
8
PFV
62
0
70
32
10
4.882353
20
5.392157
30
0
0
VERTEX
8
PFV
62
0
70
32
10
4.764706
20
5.549020
30
0
0
VERTEX
8
PFV
62
0
70
32
10
3.960784
20
5.549020
30
0
0
VERTEX
8
PFV
62
0
70
32
10
3.725490
20
5.588235
30
0
0
SEQEND
0
POLYLINE
8
PFV
62
0
66
1
70
8
0
VERTEX
8
PFV
62
0
70
32
10
5.490196
20
5.392157
30
0
0
VERTEX
8
PFV
62
0
70
32
10
5.411765
20
5.509804
30
0
0
SEQEND
0
POLYLINE
8
PFV
62
0
66
1
70
8
0
VERTEX
8
PFV
62
0
70
32
10
1.431373
20
5.431373
30
0
0
VERTEX
8
PFV
62
0
70
32
10
1.411765
20
5.450980
30
0
0
VERTEX
8
PFV
62
0
70
32
10
1.411765
20
5.490196
30
0
0
SEQEND
0
POLYLINE
8
PFV
62
0
66
1
70
8
0
VERTEX
8
PFV
62
0
70
32
10
5.352941
20
5.549020
30
0
0
VERTEX
8
PFV
62
0
70
32
10
5.352941
20
5.568627
30
0
0
VERTEX
8
PFV
62
0
70
32
10
5.333333
20
5.588235
30
0
0
SEQEND
0
POLYLINE
8
PFV
62
0
66
1
70
8
0
VERTEX
8
PFV
62
0
70
32
10
3.411765
20
5.568627
30
0
0
VERTEX
8
PFV
62
0
70
32
10
3.490196
20
5.588235
30
0
0
VERTEX
8
PFV
62
0
70
32
10
3.568627
20
5.862745
30
0
0
VERTEX
8
PFV
62
0
70
32
10
3.686275
20
6.039216
30
0
0
SEQEND
0
POLYLINE
8
PFV
62
0
66
1
70
8
0
VERTEX
8
PFV
62
0
70
32
10
1.372549
20
5.627451
30
0
0
VERTEX
8
PFV
62
0
70
32
10
1.372549
20
5.705882
30
0
0
SEQEND
0
POLYLINE
8
PFV
62
0
66
1
70
8
0
VERTEX
8
PFV
62
0
70
32
10
5.019608
20
5.882353
30
0
0
VERTEX
8
PFV
62
0
70
32
10
5.039216
20
5.882353
30
0
0
SEQEND
0
POLYLINE
8
PFV
62
0
66
1
70
8
0
VERTEX
8
PFV
62
0
70
32
10
7.862745
20
5.960784
30
0
0
VERTEX
8
PFV
62
0
70
32
10
7.862745
20
6.000000
30
0
0
SEQEND
0
POLYLINE
8
PFV
62
0
66
1
70
8
0
VERTEX
8
PFV
62
0
70
32
10
5.843137
20
6.039216
30
0
0
VERTEX
8
PFV
62
0
70
32
10
5.862745
20
6.039216
30
0
0
SEQEND
0
POLYLINE
8
PFV
62
0
66
1
70
8
0
VERTEX
8
PFV
62
0
70
32
10
4.901961
20
6.058824
30
0
0
VERTEX
8
PFV
62
0
70
32
10
4.882353
20
6.078431
30
0
0
VERTEX
8
PFV
62
0
70
32
10
4.882353
20
6.098039
30
0
0
SEQEND
0
POLYLINE
8
PFV
62
0
66
1
70
8
0
VERTEX
8
PFV
62
0
70
32
10
4.843137
20
6.078431
30
0
0
VERTEX
8
PFV
62
0
70
32
10
4.843137
20
6.098039
30
0
0
SEQEND
0
POLYLINE
8
PFV
62
0
66
1
70
8
0
VERTEX
8
PFV
62
0
70
32
10
3.705882
20
6.098039
30
0
0
VERTEX
8
PFV
62
0
70
32
10
3.705882
20
6.117647
30
0
0
VERTEX
8
PFV
62
0
70
32
10
3.725490
20
6.137255
30
0
0
SEQEND
0
POLYLINE
8
PFV
62
0
66
1
70
8
0
VERTEX
8
PFV
62
0
70
32
10
5.745098
20
6.117647
30
0
0
VERTEX
8
PFV
62
0
70
32
10
5.784314
20
6.117647
30
0
0
SEQEND
0
POLYLINE
8
PFV
62
0
66
1
70
8
0
VERTEX
8
PFV
62
0
70
32
10
3.803922
20
6.274510
30
0
0
VERTEX
8
PFV
62
0
70
32
10
3.803922
20
6.294118
30
0
0
SEQEND
0
POLYLINE
8
PFV
62
0
66
1
70
8
0
VERTEX
8
PFV
62
0
70
32
10
7.843137
20
6.490196
30
0
0
VERTEX
8
PFV
62
0
70
32
10
7.862745
20
6.490196
30
0
0
SEQEND
0
POLYLINE
8
PFV
62
0
66
1
70
8
0
VERTEX
8
PFV
62
0
70
32
10
6.431373
20
6.784314
30
0
0
VERTEX
8
PFV
62
0
70
32
10
6.450980
20
6.803922
30
0
0
SEQEND
0
POLYLINE
8
PFV
62
0
66
1
70
8
0
VERTEX
8
PFV
62
0
70
32
10
6.784314
20
6.784314
30
0
0
VERTEX
8
PFV
62
0
70
32
10
6.803922
20
6.803922
30
0
0
SEQEND
0
POLYLINE
8
PFV
62
0
66
1
70
8
0
VERTEX
8
PFV
62
0
70
32
10
2.392157
20
7.000000
30
0
0
VERTEX
8
PFV
62
0
70
32
10
2.411765
20
7.000000
30
0
0
SEQEND
0
ENDSEC
0
EOF
