0
SECTION
2
HEADER
0
ENDSEC
0
SECTION
2
TABLES
0
ENDSEC
0
SECTION
2
BLOCKS
0
ENDSEC
0
SECTION
2
ENTITIES
0
POLYLINE
8
PFV
62
0
66
1
70
8
0
VERTEX
8
PFV
62
0
70
32
10
0.943820
20
0.224719
30
0
0
VERTEX
8
PFV
62
0
70
32
10
0.853933
20
0.247191
30
0
0
VERTEX
8
PFV
62
0
70
32
10
0.797753
20
0.292135
30
0
0
VERTEX
8
PFV
62
0
70
32
10
0.932584
20
0.426966
30
0
0
VERTEX
8
PFV
62
0
70
32
10
0.955056
20
0.426966
30
0
0
VERTEX
8
PFV
62
0
70
32
10
1.022472
20
0.370787
30
0
0
VERTEX
8
PFV
62
0
70
32
10
1.044944
20
0.370787
30
0
0
VERTEX
8
PFV
62
0
70
32
10
1.044944
20
0.337079
30
0
0
VERTEX
8
PFV
62
0
70
32
10
0.943820
20
0.224719
30
0
0
VERTEX
8
PFV
62
0
70
32
10
1.000000
20
0.202247
30
0
0
VERTEX
8
PFV
62
0
70
32
10
1.101124
20
0.303371
30
0
0
VERTEX
8
PFV
62
0
70
32
10
1.426966
20
0.314607
30
0
0
VERTEX
8
PFV
62
0
70
32
10
1.595506
20
0.382022
30
0
0
VERTEX
8
PFV
62
0
70
32
10
1.584270
20
0.426966
30
0
0
VERTEX
8
PFV
62
0
70
32
10
1.561798
20
0.494382
30
0
0
VERTEX
8
PFV
62
0
70
32
10
1.550562
20
0.494382
30
0
0
SEQEND
0
POLYLINE
8
PFV
62
0
66
1
70
8
0
VERTEX
8
PFV
62
0
70
32
10
4.831461
20
0.224719
30
0
0
VERTEX
8
PFV
62
0
70
32
10
4.831461
20
0.247191
30
0
0
VERTEX
8
PFV
62
0
70
32
10
4.887640
20
0.269663
30
0
0
VERTEX
8
PFV
62
0
70
32
10
4.932584
20
0.314607
30
0
0
VERTEX
8
PFV
62
0
70
32
10
5.011236
20
0.314607
30
0
0
VERTEX
8
PFV
62
0
70
32
10
5.033708
20
0.303371
30
0
0
VERTEX
8
PFV
62
0
70
32
10
5.303371
20
0.337079
30
0
0
VERTEX
8
PFV
62
0
70
32
10
5.505618
20
0.404494
30
0
0
VERTEX
8
PFV
62
0
70
32
10
5.528090
20
0.449438
30
0
0
VERTEX
8
PFV
62
0
70
32
10
5.494382
20
0.471910
30
0
0
VERTEX
8
PFV
62
0
70
32
10
5.483146
20
0.516854
30
0
0
VERTEX
8
PFV
62
0
70
32
10
5.471910
20
0.494382
30
0
0
VERTEX
8
PFV
62
0
70
32
10
5.494382
20
0.494382
30
0
0
SEQEND
0
POLYLINE
8
PFV
62
0
66
1
70
8
0
VERTEX
8
PFV
62
0
70
32
10
4.831461
20
0.224719
30
0
0
VERTEX
8
PFV
62
0
70
32
10
4.853933
20
0.224719
30
0
0
VERTEX
8
PFV
62
0
70
32
10
4.853933
20
0.247191
30
0
0
SEQEND
0
POLYLINE
8
PFV
62
0
66
1
70
8
0
VERTEX
8
PFV
62
0
70
32
10
4.831461
20
0.224719
30
0
0
VERTEX
8
PFV
62
0
70
32
10
4.741573
20
0.235955
30
0
0
VERTEX
8
PFV
62
0
70
32
10
4.707865
20
0.269663
30
0
0
VERTEX
8
PFV
62
0
70
32
10
4.820225
20
0.393258
30
0
0
VERTEX
8
PFV
62
0
70
32
10
4.775281
20
0.460674
30
0
0
VERTEX
8
PFV
62
0
70
32
10
4.719101
20
0.483146
30
0
0
VERTEX
8
PFV
62
0
70
32
10
4.640449
20
0.584270
30
0
0
VERTEX
8
PFV
62
0
70
32
10
4.595506
20
0.640449
30
0
0
VERTEX
8
PFV
62
0
70
32
10
4.438202
20
0.471910
30
0
0
VERTEX
8
PFV
62
0
70
32
10
4.460674
20
0.438202
30
0
0
VERTEX
8
PFV
62
0
70
32
10
4.471910
20
0.438202
30
0
0
VERTEX
8
PFV
62
0
70
32
10
4.550562
20
0.382022
30
0
0
VERTEX
8
PFV
62
0
70
32
10
4.685393
20
0.516854
30
0
0
SEQEND
0
POLYLINE
8
PFV
62
0
66
1
70
8
0
VERTEX
8
PFV
62
0
70
32
10
6.764045
20
0.224719
30
0
0
VERTEX
8
PFV
62
0
70
32
10
6.662921
20
0.258427
30
0
0
VERTEX
8
PFV
62
0
70
32
10
6.786517
20
0.393258
30
0
0
VERTEX
8
PFV
62
0
70
32
10
6.820225
20
0.393258
30
0
0
VERTEX
8
PFV
62
0
70
32
10
6.876404
20
0.348315
30
0
0
VERTEX
8
PFV
62
0
70
32
10
6.764045
20
0.224719
30
0
0
VERTEX
8
PFV
62
0
70
32
10
6.786517
20
0.202247
30
0
0
VERTEX
8
PFV
62
0
70
32
10
6.842697
20
0.213483
30
0
0
VERTEX
8
PFV
62
0
70
32
10
7.033708
20
0.415730
30
0
0
VERTEX
8
PFV
62
0
70
32
10
7.056180
20
0.460674
30
0
0
VERTEX
8
PFV
62
0
70
32
10
7.078652
20
0.460674
30
0
0
SEQEND
0
POLYLINE
8
PFV
62
0
66
1
70
8
0
VERTEX
8
PFV
62
0
70
32
10
8.764045
20
0.224719
30
0
0
VERTEX
8
PFV
62
0
70
32
10
8.786517
20
0.280899
30
0
0
VERTEX
8
PFV
62
0
70
32
10
8.842697
20
0.337079
30
0
0
VERTEX
8
PFV
62
0
70
32
10
8.943820
20
0.348315
30
0
0
VERTEX
8
PFV
62
0
70
32
10
9.000000
20
0.404494
30
0
0
VERTEX
8
PFV
62
0
70
32
10
8.988764
20
0.471910
30
0
0
VERTEX
8
PFV
62
0
70
32
10
8.966292
20
0.483146
30
0
0
SEQEND
0
POLYLINE
8
PFV
62
0
66
1
70
8
0
VERTEX
8
PFV
62
0
70
32
10
8.764045
20
0.224719
30
0
0
VERTEX
8
PFV
62
0
70
32
10
8.775281
20
0.202247
30
0
0
VERTEX
8
PFV
62
0
70
32
10
8.842697
20
0.213483
30
0
0
VERTEX
8
PFV
62
0
70
32
10
8.887640
20
0.247191
30
0
0
VERTEX
8
PFV
62
0
70
32
10
8.932584
20
0.168539
30
0
0
VERTEX
8
PFV
62
0
70
32
10
8.988764
20
0.191011
30
0
0
VERTEX
8
PFV
62
0
70
32
10
8.988764
20
0.314607
30
0
0
VERTEX
8
PFV
62
0
70
32
10
9.269663
20
0.337079
30
0
0
VERTEX
8
PFV
62
0
70
32
10
9.325843
20
0.370787
30
0
0
VERTEX
8
PFV
62
0
70
32
10
9.382022
20
0.382022
30
0
0
VERTEX
8
PFV
62
0
70
32
10
9.460674
20
0.426966
30
0
0
VERTEX
8
PFV
62
0
70
32
10
9.595506
20
0.550562
30
0
0
VERTEX
8
PFV
62
0
70
32
10
9.696629
20
0.719101
30
0
0
VERTEX
8
PFV
62
0
70
32
10
9.730337
20
0.865169
30
0
0
VERTEX
8
PFV
62
0
70
32
10
9.741573
20
0.988764
30
0
0
VERTEX
8
PFV
62
0
70
32
10
9.741573
20
1.146067
30
0
0
VERTEX
8
PFV
62
0
70
32
10
9.685393
20
1.348315
30
0
0
VERTEX
8
PFV
62
0
70
32
10
9.629213
20
1.471910
30
0
0
VERTEX
8
PFV
62
0
70
32
10
9.516854
20
1.606742
30
0
0
VERTEX
8
PFV
62
0
70
32
10
9.471910
20
1.629213
30
0
0
VERTEX
8
PFV
62
0
70
32
10
9.449438
20
1.662921
30
0
0
VERTEX
8
PFV
62
0
70
32
10
9.269663
20
1.764045
30
0
0
VERTEX
8
PFV
62
0
70
32
10
9.146067
20
1.797753
30
0
0
VERTEX
8
PFV
62
0
70
32
10
8.898876
20
1.786517
30
0
0
VERTEX
8
PFV
62
0
70
32
10
8.786517
20
1.752809
30
0
0
VERTEX
8
PFV
62
0
70
32
10
8.640449
20
1.707865
30
0
0
VERTEX
8
PFV
62
0
70
32
10
8.595506
20
1.752809
30
0
0
VERTEX
8
PFV
62
0
70
32
10
8.595506
20
1.786517
30
0
0
VERTEX
8
PFV
62
0
70
32
10
8.573034
20
1.786517
30
0
0
VERTEX
8
PFV
62
0
70
32
10
8.561798
20
1.741573
30
0
0
VERTEX
8
PFV
62
0
70
32
10
8.539326
20
1.741573
30
0
0
VERTEX
8
PFV
62
0
70
32
10
8.539326
20
1.764045
30
0
0
VERTEX
8
PFV
62
0
70
32
10
8.573034
20
1.764045
30
0
0
SEQEND
0
POLYLINE
8
PFV
62
0
66
1
70
8
0
VERTEX
8
PFV
62
0
70
32
10
8.764045
20
0.224719
30
0
0
VERTEX
8
PFV
62
0
70
32
10
8.685393
20
0.235955
30
0
0
VERTEX
8
PFV
62
0
70
32
10
8.685393
20
0.269663
30
0
0
VERTEX
8
PFV
62
0
70
32
10
8.786517
20
0.382022
30
0
0
VERTEX
8
PFV
62
0
70
32
10
8.831461
20
0.359551
30
0
0
VERTEX
8
PFV
62
0
70
32
10
8.842697
20
0.337079
30
0
0
SEQEND
0
POLYLINE
8
PFV
62
0
66
1
70
8
0
VERTEX
8
PFV
62
0
70
32
10
8.764045
20
0.224719
30
0
0
VERTEX
8
PFV
62
0
70
32
10
8.775281
20
0.213483
30
0
0
SEQEND
0
POLYLINE
8
PFV
62
0
66
1
70
8
0
VERTEX
8
PFV
62
0
70
32
10
2.943820
20
0.235955
30
0
0
VERTEX
8
PFV
62
0
70
32
10
3.011236
20
0.325843
30
0
0
VERTEX
8
PFV
62
0
70
32
10
3.044944
20
0.325843
30
0
0
VERTEX
8
PFV
62
0
70
32
10
3.224719
20
0.314607
30
0
0
VERTEX
8
PFV
62
0
70
32
10
3.438202
20
0.359551
30
0
0
VERTEX
8
PFV
62
0
70
32
10
3.483146
20
0.382022
30
0
0
VERTEX
8
PFV
62
0
70
32
10
3.561798
20
0.415730
30
0
0
VERTEX
8
PFV
62
0
70
32
10
3.550562
20
0.460674
30
0
0
VERTEX
8
PFV
62
0
70
32
10
3.494382
20
0.516854
30
0
0
SEQEND
0
POLYLINE
8
PFV
62
0
66
1
70
8
0
VERTEX
8
PFV
62
0
70
32
10
2.943820
20
0.235955
30
0
0
VERTEX
8
PFV
62
0
70
32
10
2.955056
20
0.235955
30
0
0
VERTEX
8
PFV
62
0
70
32
10
2.988764
20
0.179775
30
0
0
VERTEX
8
PFV
62
0
70
32
10
3.033708
20
0.191011
30
0
0
VERTEX
8
PFV
62
0
70
32
10
3.123596
20
0.314607
30
0
0
SEQEND
0
POLYLINE
8
PFV
62
0
66
1
70
8
0
VERTEX
8
PFV
62
0
70
32
10
2.943820
20
0.235955
30
0
0
VERTEX
8
PFV
62
0
70
32
10
2.955056
20
0.224719
30
0
0
SEQEND
0
POLYLINE
8
PFV
62
0
66
1
70
8
0
VERTEX
8
PFV
62
0
70
32
10
2.943820
20
0.235955
30
0
0
VERTEX
8
PFV
62
0
70
32
10
2.910112
20
0.202247
30
0
0
VERTEX
8
PFV
62
0
70
32
10
2.853933
20
0.213483
30
0
0
VERTEX
8
PFV
62
0
70
32
10
2.887640
20
0.303371
30
0
0
VERTEX
8
PFV
62
0
70
32
10
2.943820
20
0.359551
30
0
0
VERTEX
8
PFV
62
0
70
32
10
3.000000
20
0.337079
30
0
0
VERTEX
8
PFV
62
0
70
32
10
3.011236
20
0.325843
30
0
0
SEQEND
0
POLYLINE
8
PFV
62
0
66
1
70
8
0
VERTEX
8
PFV
62
0
70
32
10
0.876404
20
0.247191
30
0
0
VERTEX
8
PFV
62
0
70
32
10
1.000000
20
0.382022
30
0
0
SEQEND
0
POLYLINE
8
PFV
62
0
66
1
70
8
0
VERTEX
8
PFV
62
0
70
32
10
2.775281
20
0.247191
30
0
0
VERTEX
8
PFV
62
0
70
32
10
2.662921
20
0.303371
30
0
0
VERTEX
8
PFV
62
0
70
32
10
2.696629
20
0.359551
30
0
0
VERTEX
8
PFV
62
0
70
32
10
2.707865
20
0.415730
30
0
0
VERTEX
8
PFV
62
0
70
32
10
2.786517
20
0.471910
30
0
0
VERTEX
8
PFV
62
0
70
32
10
2.820225
20
0.460674
30
0
0
VERTEX
8
PFV
62
0
70
32
10
2.797753
20
0.404494
30
0
0
VERTEX
8
PFV
62
0
70
32
10
2.685393
20
0.292135
30
0
0
SEQEND
0
POLYLINE
8
PFV
62
0
66
1
70
8
0
VERTEX
8
PFV
62
0
70
32
10
2.775281
20
0.247191
30
0
0
VERTEX
8
PFV
62
0
70
32
10
2.921348
20
0.382022
30
0
0
VERTEX
8
PFV
62
0
70
32
10
2.943820
20
0.359551
30
0
0
SEQEND
0
POLYLINE
8
PFV
62
0
66
1
70
8
0
VERTEX
8
PFV
62
0
70
32
10
2.775281
20
0.247191
30
0
0
VERTEX
8
PFV
62
0
70
32
10
2.842697
20
0.224719
30
0
0
VERTEX
8
PFV
62
0
70
32
10
2.865169
20
0.258427
30
0
0
SEQEND
0
POLYLINE
8
PFV
62
0
66
1
70
8
0
VERTEX
8
PFV
62
0
70
32
10
4.741573
20
0.247191
30
0
0
VERTEX
8
PFV
62
0
70
32
10
4.876404
20
0.382022
30
0
0
VERTEX
8
PFV
62
0
70
32
10
4.910112
20
0.370787
30
0
0
VERTEX
8
PFV
62
0
70
32
10
5.000000
20
0.471910
30
0
0
VERTEX
8
PFV
62
0
70
32
10
5.022472
20
0.471910
30
0
0
SEQEND
0
POLYLINE
8
PFV
62
0
66
1
70
8
0
VERTEX
8
PFV
62
0
70
32
10
6.707865
20
0.247191
30
0
0
VERTEX
8
PFV
62
0
70
32
10
6.820225
20
0.382022
30
0
0
SEQEND
0
POLYLINE
8
PFV
62
0
66
1
70
8
0
VERTEX
8
PFV
62
0
70
32
10
8.674157
20
0.247191
30
0
0
VERTEX
8
PFV
62
0
70
32
10
8.595506
20
0.280899
30
0
0
VERTEX
8
PFV
62
0
70
32
10
8.719101
20
0.415730
30
0
0
VERTEX
8
PFV
62
0
70
32
10
8.752809
20
0.415730
30
0
0
VERTEX
8
PFV
62
0
70
32
10
8.786517
20
0.382022
30
0
0
SEQEND
0
POLYLINE
8
PFV
62
0
66
1
70
8
0
VERTEX
8
PFV
62
0
70
32
10
8.887640
20
0.247191
30
0
0
VERTEX
8
PFV
62
0
70
32
10
8.887640
20
0.269663
30
0
0
VERTEX
8
PFV
62
0
70
32
10
8.898876
20
0.280899
30
0
0
VERTEX
8
PFV
62
0
70
32
10
8.910112
20
0.292135
30
0
0
VERTEX
8
PFV
62
0
70
32
10
8.921348
20
0.303371
30
0
0
VERTEX
8
PFV
62
0
70
32
10
8.932584
20
0.314607
30
0
0
VERTEX
8
PFV
62
0
70
32
10
8.988764
20
0.314607
30
0
0
SEQEND
0
POLYLINE
8
PFV
62
0
66
1
70
8
0
VERTEX
8
PFV
62
0
70
32
10
4.707865
20
0.269663
30
0
0
VERTEX
8
PFV
62
0
70
32
10
4.629213
20
0.303371
30
0
0
VERTEX
8
PFV
62
0
70
32
10
4.696629
20
0.426966
30
0
0
VERTEX
8
PFV
62
0
70
32
10
4.730337
20
0.471910
30
0
0
SEQEND
0
POLYLINE
8
PFV
62
0
66
1
70
8
0
VERTEX
8
PFV
62
0
70
32
10
4.707865
20
0.269663
30
0
0
VERTEX
8
PFV
62
0
70
32
10
4.719101
20
0.258427
30
0
0
SEQEND
0
POLYLINE
8
PFV
62
0
66
1
70
8
0
VERTEX
8
PFV
62
0
70
32
10
6.662921
20
0.269663
30
0
0
VERTEX
8
PFV
62
0
70
32
10
6.617978
20
0.280899
30
0
0
VERTEX
8
PFV
62
0
70
32
10
6.764045
20
0.426966
30
0
0
VERTEX
8
PFV
62
0
70
32
10
6.786517
20
0.393258
30
0
0
SEQEND
0
POLYLINE
8
PFV
62
0
66
1
70
8
0
VERTEX
8
PFV
62
0
70
32
10
6.662921
20
0.269663
30
0
0
VERTEX
8
PFV
62
0
70
32
10
6.674157
20
0.258427
30
0
0
SEQEND
0
POLYLINE
8
PFV
62
0
66
1
70
8
0
VERTEX
8
PFV
62
0
70
32
10
0.797753
20
0.292135
30
0
0
VERTEX
8
PFV
62
0
70
32
10
0.764045
20
0.314607
30
0
0
VERTEX
8
PFV
62
0
70
32
10
0.764045
20
0.370787
30
0
0
VERTEX
8
PFV
62
0
70
32
10
0.842697
20
0.426966
30
0
0
VERTEX
8
PFV
62
0
70
32
10
0.887640
20
0.460674
30
0
0
VERTEX
8
PFV
62
0
70
32
10
0.932584
20
0.426966
30
0
0
SEQEND
0
POLYLINE
8
PFV
62
0
66
1
70
8
0
VERTEX
8
PFV
62
0
70
32
10
0.797753
20
0.292135
30
0
0
VERTEX
8
PFV
62
0
70
32
10
0.808989
20
0.280899
30
0
0
SEQEND
0
POLYLINE
8
PFV
62
0
66
1
70
8
0
VERTEX
8
PFV
62
0
70
32
10
6.617978
20
0.292135
30
0
0
VERTEX
8
PFV
62
0
70
32
10
6.595506
20
0.314607
30
0
0
VERTEX
8
PFV
62
0
70
32
10
6.741573
20
0.449438
30
0
0
VERTEX
8
PFV
62
0
70
32
10
6.730337
20
0.449438
30
0
0
SEQEND
0
POLYLINE
8
PFV
62
0
66
1
70
8
0
VERTEX
8
PFV
62
0
70
32
10
6.617978
20
0.292135
30
0
0
VERTEX
8
PFV
62
0
70
32
10
6.629213
20
0.280899
30
0
0
SEQEND
0
POLYLINE
8
PFV
62
0
66
1
70
8
0
VERTEX
8
PFV
62
0
70
32
10
8.595506
20
0.292135
30
0
0
VERTEX
8
PFV
62
0
70
32
10
8.550562
20
0.303371
30
0
0
VERTEX
8
PFV
62
0
70
32
10
8.696629
20
0.449438
30
0
0
VERTEX
8
PFV
62
0
70
32
10
8.719101
20
0.415730
30
0
0
SEQEND
0
POLYLINE
8
PFV
62
0
66
1
70
8
0
VERTEX
8
PFV
62
0
70
32
10
8.595506
20
0.292135
30
0
0
VERTEX
8
PFV
62
0
70
32
10
8.606742
20
0.280899
30
0
0
SEQEND
0
POLYLINE
8
PFV
62
0
66
1
70
8
0
VERTEX
8
PFV
62
0
70
32
10
1.101124
20
0.303371
30
0
0
VERTEX
8
PFV
62
0
70
32
10
1.101124
20
0.325843
30
0
0
VERTEX
8
PFV
62
0
70
32
10
1.089888
20
0.337079
30
0
0
VERTEX
8
PFV
62
0
70
32
10
1.078652
20
0.348315
30
0
0
VERTEX
8
PFV
62
0
70
32
10
1.056180
20
0.348315
30
0
0
SEQEND
0
POLYLINE
8
PFV
62
0
66
1
70
8
0
VERTEX
8
PFV
62
0
70
32
10
2.662921
20
0.314607
30
0
0
VERTEX
8
PFV
62
0
70
32
10
2.629213
20
0.337079
30
0
0
VERTEX
8
PFV
62
0
70
32
10
2.674157
20
0.370787
30
0
0
VERTEX
8
PFV
62
0
70
32
10
2.674157
20
0.393258
30
0
0
VERTEX
8
PFV
62
0
70
32
10
2.651685
20
0.382022
30
0
0
VERTEX
8
PFV
62
0
70
32
10
2.662921
20
0.370787
30
0
0
VERTEX
8
PFV
62
0
70
32
10
2.674157
20
0.382022
30
0
0
SEQEND
0
POLYLINE
8
PFV
62
0
66
1
70
8
0
VERTEX
8
PFV
62
0
70
32
10
4.629213
20
0.314607
30
0
0
VERTEX
8
PFV
62
0
70
32
10
4.595506
20
0.337079
30
0
0
VERTEX
8
PFV
62
0
70
32
10
4.662921
20
0.393258
30
0
0
SEQEND
0
POLYLINE
8
PFV
62
0
66
1
70
8
0
VERTEX
8
PFV
62
0
70
32
10
4.932584
20
0.314607
30
0
0
VERTEX
8
PFV
62
0
70
32
10
4.932584
20
0.325843
30
0
0
VERTEX
8
PFV
62
0
70
32
10
4.921348
20
0.337079
30
0
0
VERTEX
8
PFV
62
0
70
32
10
4.910112
20
0.337079
30
0
0
VERTEX
8
PFV
62
0
70
32
10
4.910112
20
0.370787
30
0
0
SEQEND
0
POLYLINE
8
PFV
62
0
66
1
70
8
0
VERTEX
8
PFV
62
0
70
32
10
4.932584
20
0.314607
30
0
0
VERTEX
8
PFV
62
0
70
32
10
4.921348
20
0.325843
30
0
0
SEQEND
0
POLYLINE
8
PFV
62
0
66
1
70
8
0
VERTEX
8
PFV
62
0
70
32
10
6.595506
20
0.314607
30
0
0
VERTEX
8
PFV
62
0
70
32
10
6.550562
20
0.337079
30
0
0
VERTEX
8
PFV
62
0
70
32
10
6.584270
20
0.382022
30
0
0
VERTEX
8
PFV
62
0
70
32
10
6.696629
20
0.483146
30
0
0
VERTEX
8
PFV
62
0
70
32
10
6.730337
20
0.449438
30
0
0
SEQEND
0
POLYLINE
8
PFV
62
0
66
1
70
8
0
VERTEX
8
PFV
62
0
70
32
10
6.943820
20
0.314607
30
0
0
VERTEX
8
PFV
62
0
70
32
10
7.022472
20
0.303371
30
0
0
VERTEX
8
PFV
62
0
70
32
10
7.337079
20
0.348315
30
0
0
VERTEX
8
PFV
62
0
70
32
10
7.359551
20
0.370787
30
0
0
VERTEX
8
PFV
62
0
70
32
10
7.438202
20
0.393258
30
0
0
VERTEX
8
PFV
62
0
70
32
10
7.539326
20
0.460674
30
0
0
VERTEX
8
PFV
62
0
70
32
10
7.573034
20
0.516854
30
0
0
VERTEX
8
PFV
62
0
70
32
10
7.595506
20
0.516854
30
0
0
VERTEX
8
PFV
62
0
70
32
10
7.584270
20
0.561798
30
0
0
VERTEX
8
PFV
62
0
70
32
10
7.539326
20
0.595506
30
0
0
VERTEX
8
PFV
62
0
70
32
10
7.539326
20
0.617978
30
0
0
SEQEND
0
POLYLINE
8
PFV
62
0
66
1
70
8
0
VERTEX
8
PFV
62
0
70
32
10
6.943820
20
0.314607
30
0
0
VERTEX
8
PFV
62
0
70
32
10
6.932584
20
0.325843
30
0
0
VERTEX
8
PFV
62
0
70
32
10
6.932584
20
0.337079
30
0
0
VERTEX
8
PFV
62
0
70
32
10
6.921348
20
0.337079
30
0
0
VERTEX
8
PFV
62
0
70
32
10
6.910112
20
0.348315
30
0
0
VERTEX
8
PFV
62
0
70
32
10
6.876404
20
0.348315
30
0
0
SEQEND
0
POLYLINE
8
PFV
62
0
66
1
70
8
0
VERTEX
8
PFV
62
0
70
32
10
7.089888
20
0.314607
30
0
0
VERTEX
8
PFV
62
0
70
32
10
7.089888
20
0.370787
30
0
0
VERTEX
8
PFV
62
0
70
32
10
7.101124
20
0.382022
30
0
0
VERTEX
8
PFV
62
0
70
32
10
7.101124
20
0.393258
30
0
0
VERTEX
8
PFV
62
0
70
32
10
7.078652
20
0.393258
30
0
0
VERTEX
8
PFV
62
0
70
32
10
7.078652
20
0.370787
30
0
0
VERTEX
8
PFV
62
0
70
32
10
7.089888
20
0.370787
30
0
0
SEQEND
0
POLYLINE
8
PFV
62
0
66
1
70
8
0
VERTEX
8
PFV
62
0
70
32
10
8.550562
20
0.314607
30
0
0
VERTEX
8
PFV
62
0
70
32
10
8.505618
20
0.337079
30
0
0
VERTEX
8
PFV
62
0
70
32
10
8.550562
20
0.404494
30
0
0
VERTEX
8
PFV
62
0
70
32
10
8.629213
20
0.483146
30
0
0
VERTEX
8
PFV
62
0
70
32
10
8.662921
20
0.483146
30
0
0
VERTEX
8
PFV
62
0
70
32
10
8.685393
20
0.471910
30
0
0
VERTEX
8
PFV
62
0
70
32
10
8.786517
20
0.573034
30
0
0
VERTEX
8
PFV
62
0
70
32
10
8.786517
20
0.606742
30
0
0
VERTEX
8
PFV
62
0
70
32
10
8.808989
20
0.606742
30
0
0
VERTEX
8
PFV
62
0
70
32
10
8.786517
20
0.584270
30
0
0
SEQEND
0
POLYLINE
8
PFV
62
0
66
1
70
8
0
VERTEX
8
PFV
62
0
70
32
10
8.550562
20
0.314607
30
0
0
VERTEX
8
PFV
62
0
70
32
10
8.561798
20
0.303371
30
0
0
SEQEND
0
POLYLINE
8
PFV
62
0
66
1
70
8
0
VERTEX
8
PFV
62
0
70
32
10
8.932584
20
0.314607
30
0
0
VERTEX
8
PFV
62
0
70
32
10
8.932584
20
0.337079
30
0
0
SEQEND
0
POLYLINE
8
PFV
62
0
66
1
70
8
0
VERTEX
8
PFV
62
0
70
32
10
1.438202
20
0.325843
30
0
0
VERTEX
8
PFV
62
0
70
32
10
1.438202
20
0.393258
30
0
0
VERTEX
8
PFV
62
0
70
32
10
1.415730
20
0.393258
30
0
0
VERTEX
8
PFV
62
0
70
32
10
1.415730
20
0.370787
30
0
0
VERTEX
8
PFV
62
0
70
32
10
1.438202
20
0.370787
30
0
0
SEQEND
0
POLYLINE
8
PFV
62
0
66
1
70
8
0
VERTEX
8
PFV
62
0
70
32
10
0.752809
20
0.337079
30
0
0
VERTEX
8
PFV
62
0
70
32
10
0.775281
20
0.337079
30
0
0
VERTEX
8
PFV
62
0
70
32
10
0.786517
20
0.348315
30
0
0
VERTEX
8
PFV
62
0
70
32
10
0.786517
20
0.359551
30
0
0
VERTEX
8
PFV
62
0
70
32
10
0.775281
20
0.348315
30
0
0
VERTEX
8
PFV
62
0
70
32
10
0.764045
20
0.359551
30
0
0
SEQEND
0
POLYLINE
8
PFV
62
0
66
1
70
8
0
VERTEX
8
PFV
62
0
70
32
10
0.752809
20
0.337079
30
0
0
VERTEX
8
PFV
62
0
70
32
10
0.651685
20
0.393258
30
0
0
VERTEX
8
PFV
62
0
70
32
10
0.595506
20
0.449438
30
0
0
VERTEX
8
PFV
62
0
70
32
10
0.404494
20
0.528090
30
0
0
VERTEX
8
PFV
62
0
70
32
10
0.359551
20
0.629213
30
0
0
VERTEX
8
PFV
62
0
70
32
10
0.314607
20
1.000000
30
0
0
VERTEX
8
PFV
62
0
70
32
10
0.280899
20
1.033708
30
0
0
VERTEX
8
PFV
62
0
70
32
10
0.292135
20
1.134831
30
0
0
VERTEX
8
PFV
62
0
70
32
10
0.337079
20
1.168539
30
0
0
VERTEX
8
PFV
62
0
70
32
10
0.370787
20
1.134831
30
0
0
VERTEX
8
PFV
62
0
70
32
10
0.359551
20
1.011236
30
0
0
VERTEX
8
PFV
62
0
70
32
10
0.325843
20
0.988764
30
0
0
SEQEND
0
POLYLINE
8
PFV
62
0
66
1
70
8
0
VERTEX
8
PFV
62
0
70
32
10
4.595506
20
0.337079
30
0
0
VERTEX
8
PFV
62
0
70
32
10
4.573034
20
0.337079
30
0
0
VERTEX
8
PFV
62
0
70
32
10
4.640449
20
0.426966
30
0
0
VERTEX
8
PFV
62
0
70
32
10
4.707865
20
0.494382
30
0
0
SEQEND
0
POLYLINE
8
PFV
62
0
66
1
70
8
0
VERTEX
8
PFV
62
0
70
32
10
2.629213
20
0.348315
30
0
0
VERTEX
8
PFV
62
0
70
32
10
2.573034
20
0.370787
30
0
0
VERTEX
8
PFV
62
0
70
32
10
2.494382
20
0.460674
30
0
0
VERTEX
8
PFV
62
0
70
32
10
2.539326
20
0.494382
30
0
0
VERTEX
8
PFV
62
0
70
32
10
2.539326
20
0.460674
30
0
0
VERTEX
8
PFV
62
0
70
32
10
2.516854
20
0.438202
30
0
0
SEQEND
0
POLYLINE
8
PFV
62
0
66
1
70
8
0
VERTEX
8
PFV
62
0
70
32
10
6.550562
20
0.348315
30
0
0
VERTEX
8
PFV
62
0
70
32
10
6.483146
20
0.393258
30
0
0
VERTEX
8
PFV
62
0
70
32
10
6.460674
20
0.415730
30
0
0
VERTEX
8
PFV
62
0
70
32
10
6.460674
20
0.471910
30
0
0
VERTEX
8
PFV
62
0
70
32
10
6.550562
20
0.539326
30
0
0
VERTEX
8
PFV
62
0
70
32
10
6.617978
20
0.584270
30
0
0
VERTEX
8
PFV
62
0
70
32
10
6.685393
20
0.505618
30
0
0
SEQEND
0
POLYLINE
8
PFV
62
0
66
1
70
8
0
VERTEX
8
PFV
62
0
70
32
10
4.573034
20
0.359551
30
0
0
VERTEX
8
PFV
62
0
70
32
10
4.550562
20
0.359551
30
0
0
VERTEX
8
PFV
62
0
70
32
10
4.550562
20
0.382022
30
0
0
SEQEND
0
POLYLINE
8
PFV
62
0
66
1
70
8
0
VERTEX
8
PFV
62
0
70
32
10
7.337079
20
0.359551
30
0
0
VERTEX
8
PFV
62
0
70
32
10
7.258427
20
0.449438
30
0
0
VERTEX
8
PFV
62
0
70
32
10
7.213483
20
0.449438
30
0
0
SEQEND
0
POLYLINE
8
PFV
62
0
66
1
70
8
0
VERTEX
8
PFV
62
0
70
32
10
7.337079
20
0.359551
30
0
0
VERTEX
8
PFV
62
0
70
32
10
7.325843
20
0.370787
30
0
0
SEQEND
0
POLYLINE
8
PFV
62
0
66
1
70
8
0
VERTEX
8
PFV
62
0
70
32
10
8.505618
20
0.359551
30
0
0
VERTEX
8
PFV
62
0
70
32
10
8.460674
20
0.370787
30
0
0
VERTEX
8
PFV
62
0
70
32
10
8.460674
20
0.426966
30
0
0
VERTEX
8
PFV
62
0
70
32
10
8.539326
20
0.483146
30
0
0
VERTEX
8
PFV
62
0
70
32
10
8.606742
20
0.539326
30
0
0
VERTEX
8
PFV
62
0
70
32
10
8.629213
20
0.528090
30
0
0
VERTEX
8
PFV
62
0
70
32
10
8.741573
20
0.640449
30
0
0
SEQEND
0
POLYLINE
8
PFV
62
0
66
1
70
8
0
VERTEX
8
PFV
62
0
70
32
10
0.685393
20
0.370787
30
0
0
VERTEX
8
PFV
62
0
70
32
10
0.842697
20
0.516854
30
0
0
VERTEX
8
PFV
62
0
70
32
10
0.876404
20
0.505618
30
0
0
VERTEX
8
PFV
62
0
70
32
10
0.977528
20
0.606742
30
0
0
SEQEND
0
POLYLINE
8
PFV
62
0
66
1
70
8
0
VERTEX
8
PFV
62
0
70
32
10
7.089888
20
0.370787
30
0
0
VERTEX
8
PFV
62
0
70
32
10
7.101124
20
0.370787
30
0
0
SEQEND
0
POLYLINE
8
PFV
62
0
66
1
70
8
0
VERTEX
8
PFV
62
0
70
32
10
2.674157
20
0.382022
30
0
0
VERTEX
8
PFV
62
0
70
32
10
2.696629
20
0.382022
30
0
0
SEQEND
0
POLYLINE
8
PFV
62
0
66
1
70
8
0
VERTEX
8
PFV
62
0
70
32
10
2.910112
20
0.382022
30
0
0
VERTEX
8
PFV
62
0
70
32
10
2.820225
20
0.426966
30
0
0
SEQEND
0
POLYLINE
8
PFV
62
0
66
1
70
8
0
VERTEX
8
PFV
62
0
70
32
10
4.865169
20
0.382022
30
0
0
VERTEX
8
PFV
62
0
70
32
10
4.865169
20
0.393258
30
0
0
VERTEX
8
PFV
62
0
70
32
10
4.842697
20
0.393258
30
0
0
VERTEX
8
PFV
62
0
70
32
10
4.831461
20
0.404494
30
0
0
VERTEX
8
PFV
62
0
70
32
10
4.820225
20
0.404494
30
0
0
SEQEND
0
POLYLINE
8
PFV
62
0
66
1
70
8
0
VERTEX
8
PFV
62
0
70
32
10
2.561798
20
0.393258
30
0
0
VERTEX
8
PFV
62
0
70
32
10
2.573034
20
0.404494
30
0
0
VERTEX
8
PFV
62
0
70
32
10
2.584270
20
0.415730
30
0
0
VERTEX
8
PFV
62
0
70
32
10
2.584270
20
0.438202
30
0
0
VERTEX
8
PFV
62
0
70
32
10
2.573034
20
0.449438
30
0
0
SEQEND
0
POLYLINE
8
PFV
62
0
66
1
70
8
0
VERTEX
8
PFV
62
0
70
32
10
1.595506
20
0.404494
30
0
0
VERTEX
8
PFV
62
0
70
32
10
1.674157
20
0.426966
30
0
0
VERTEX
8
PFV
62
0
70
32
10
1.651685
20
0.460674
30
0
0
VERTEX
8
PFV
62
0
70
32
10
1.629213
20
0.516854
30
0
0
VERTEX
8
PFV
62
0
70
32
10
1.617978
20
0.494382
30
0
0
VERTEX
8
PFV
62
0
70
32
10
1.640449
20
0.494382
30
0
0
SEQEND
0
POLYLINE
8
PFV
62
0
66
1
70
8
0
VERTEX
8
PFV
62
0
70
32
10
1.595506
20
0.404494
30
0
0
VERTEX
8
PFV
62
0
70
32
10
1.584270
20
0.415730
30
0
0
SEQEND
0
POLYLINE
8
PFV
62
0
66
1
70
8
0
VERTEX
8
PFV
62
0
70
32
10
4.820225
20
0.404494
30
0
0
VERTEX
8
PFV
62
0
70
32
10
4.808989
20
0.415730
30
0
0
SEQEND
0
POLYLINE
8
PFV
62
0
66
1
70
8
0
VERTEX
8
PFV
62
0
70
32
10
8.449438
20
0.415730
30
0
0
VERTEX
8
PFV
62
0
70
32
10
8.292135
20
0.483146
30
0
0
VERTEX
8
PFV
62
0
70
32
10
8.505618
20
0.685393
30
0
0
VERTEX
8
PFV
62
0
70
32
10
8.573034
20
0.561798
30
0
0
VERTEX
8
PFV
62
0
70
32
10
8.460674
20
0.449438
30
0
0
VERTEX
8
PFV
62
0
70
32
10
8.460674
20
0.426966
30
0
0
SEQEND
0
POLYLINE
8
PFV
62
0
66
1
70
8
0
VERTEX
8
PFV
62
0
70
32
10
2.584270
20
0.426966
30
0
0
VERTEX
8
PFV
62
0
70
32
10
2.719101
20
0.539326
30
0
0
VERTEX
8
PFV
62
0
70
32
10
2.764045
20
0.471910
30
0
0
SEQEND
0
POLYLINE
8
PFV
62
0
66
1
70
8
0
VERTEX
8
PFV
62
0
70
32
10
3.561798
20
0.438202
30
0
0
VERTEX
8
PFV
62
0
70
32
10
3.606742
20
0.460674
30
0
0
VERTEX
8
PFV
62
0
70
32
10
3.662921
20
0.505618
30
0
0
VERTEX
8
PFV
62
0
70
32
10
3.617978
20
0.573034
30
0
0
VERTEX
8
PFV
62
0
70
32
10
3.584270
20
0.606742
30
0
0
SEQEND
0
POLYLINE
8
PFV
62
0
66
1
70
8
0
VERTEX
8
PFV
62
0
70
32
10
3.561798
20
0.438202
30
0
0
VERTEX
8
PFV
62
0
70
32
10
3.550562
20
0.449438
30
0
0
SEQEND
0
POLYLINE
8
PFV
62
0
66
1
70
8
0
VERTEX
8
PFV
62
0
70
32
10
4.471910
20
0.438202
30
0
0
VERTEX
8
PFV
62
0
70
32
10
4.471910
20
0.426966
30
0
0
SEQEND
0
POLYLINE
8
PFV
62
0
66
1
70
8
0
VERTEX
8
PFV
62
0
70
32
10
4.471910
20
0.438202
30
0
0
VERTEX
8
PFV
62
0
70
32
10
4.629213
20
0.595506
30
0
0
SEQEND
0
POLYLINE
8
PFV
62
0
66
1
70
8
0
VERTEX
8
PFV
62
0
70
32
10
1.674157
20
0.449438
30
0
0
VERTEX
8
PFV
62
0
70
32
10
1.719101
20
0.460674
30
0
0
VERTEX
8
PFV
62
0
70
32
10
1.730337
20
0.494382
30
0
0
VERTEX
8
PFV
62
0
70
32
10
1.786517
20
0.528090
30
0
0
VERTEX
8
PFV
62
0
70
32
10
1.865169
20
0.640449
30
0
0
VERTEX
8
PFV
62
0
70
32
10
1.898876
20
0.764045
30
0
0
VERTEX
8
PFV
62
0
70
32
10
1.842697
20
0.808989
30
0
0
VERTEX
8
PFV
62
0
70
32
10
1.842697
20
0.831461
30
0
0
SEQEND
0
POLYLINE
8
PFV
62
0
66
1
70
8
0
VERTEX
8
PFV
62
0
70
32
10
1.674157
20
0.449438
30
0
0
VERTEX
8
PFV
62
0
70
32
10
1.662921
20
0.449438
30
0
0
SEQEND
0
POLYLINE
8
PFV
62
0
66
1
70
8
0
VERTEX
8
PFV
62
0
70
32
10
2.494382
20
0.449438
30
0
0
VERTEX
8
PFV
62
0
70
32
10
2.460674
20
0.471910
30
0
0
VERTEX
8
PFV
62
0
70
32
10
2.640449
20
0.640449
30
0
0
VERTEX
8
PFV
62
0
70
32
10
2.640449
20
0.595506
30
0
0
VERTEX
8
PFV
62
0
70
32
10
2.539326
20
0.494382
30
0
0
SEQEND
0
POLYLINE
8
PFV
62
0
66
1
70
8
0
VERTEX
8
PFV
62
0
70
32
10
5.528090
20
0.449438
30
0
0
VERTEX
8
PFV
62
0
70
32
10
5.584270
20
0.460674
30
0
0
VERTEX
8
PFV
62
0
70
32
10
5.674157
20
0.561798
30
0
0
VERTEX
8
PFV
62
0
70
32
10
5.764045
20
0.730337
30
0
0
VERTEX
8
PFV
62
0
70
32
10
5.808989
20
0.865169
30
0
0
VERTEX
8
PFV
62
0
70
32
10
5.808989
20
1.191011
30
0
0
VERTEX
8
PFV
62
0
70
32
10
5.786517
20
1.224719
30
0
0
VERTEX
8
PFV
62
0
70
32
10
5.764045
20
1.337079
30
0
0
VERTEX
8
PFV
62
0
70
32
10
5.696629
20
1.471910
30
0
0
VERTEX
8
PFV
62
0
70
32
10
5.662921
20
1.494382
30
0
0
VERTEX
8
PFV
62
0
70
32
10
5.595506
20
1.449438
30
0
0
SEQEND
0
POLYLINE
8
PFV
62
0
66
1
70
8
0
VERTEX
8
PFV
62
0
70
32
10
5.528090
20
0.449438
30
0
0
VERTEX
8
PFV
62
0
70
32
10
5.516854
20
0.449438
30
0
0
SEQEND
0
POLYLINE
8
PFV
62
0
66
1
70
8
0
VERTEX
8
PFV
62
0
70
32
10
6.460674
20
0.449438
30
0
0
VERTEX
8
PFV
62
0
70
32
10
6.483146
20
0.449438
30
0
0
VERTEX
8
PFV
62
0
70
32
10
6.483146
20
0.471910
30
0
0
SEQEND
0
POLYLINE
8
PFV
62
0
66
1
70
8
0
VERTEX
8
PFV
62
0
70
32
10
6.460674
20
0.449438
30
0
0
VERTEX
8
PFV
62
0
70
32
10
6.393258
20
0.460674
30
0
0
VERTEX
8
PFV
62
0
70
32
10
6.561798
20
0.651685
30
0
0
VERTEX
8
PFV
62
0
70
32
10
6.595506
20
0.606742
30
0
0
SEQEND
0
POLYLINE
8
PFV
62
0
66
1
70
8
0
VERTEX
8
PFV
62
0
70
32
10
8.685393
20
0.449438
30
0
0
VERTEX
8
PFV
62
0
70
32
10
8.685393
20
0.471910
30
0
0
SEQEND
0
POLYLINE
8
PFV
62
0
66
1
70
8
0
VERTEX
8
PFV
62
0
70
32
10
0.573034
20
0.460674
30
0
0
VERTEX
8
PFV
62
0
70
32
10
0.741573
20
0.651685
30
0
0
VERTEX
8
PFV
62
0
70
32
10
0.685393
20
0.741573
30
0
0
VERTEX
8
PFV
62
0
70
32
10
0.651685
20
0.876404
30
0
0
VERTEX
8
PFV
62
0
70
32
10
0.764045
20
0.988764
30
0
0
VERTEX
8
PFV
62
0
70
32
10
0.786517
20
0.988764
30
0
0
VERTEX
8
PFV
62
0
70
32
10
0.786517
20
1.011236
30
0
0
SEQEND
0
POLYLINE
8
PFV
62
0
66
1
70
8
0
VERTEX
8
PFV
62
0
70
32
10
0.876404
20
0.460674
30
0
0
VERTEX
8
PFV
62
0
70
32
10
0.876404
20
0.471910
30
0
0
VERTEX
8
PFV
62
0
70
32
10
0.865169
20
0.483146
30
0
0
VERTEX
8
PFV
62
0
70
32
10
0.865169
20
0.505618
30
0
0
SEQEND
0
POLYLINE
8
PFV
62
0
66
1
70
8
0
VERTEX
8
PFV
62
0
70
32
10
2.460674
20
0.460674
30
0
0
VERTEX
8
PFV
62
0
70
32
10
2.415730
20
0.483146
30
0
0
VERTEX
8
PFV
62
0
70
32
10
2.415730
20
0.516854
30
0
0
VERTEX
8
PFV
62
0
70
32
10
2.606742
20
0.707865
30
0
0
VERTEX
8
PFV
62
0
70
32
10
2.640449
20
0.640449
30
0
0
SEQEND
0
POLYLINE
8
PFV
62
0
66
1
70
8
0
VERTEX
8
PFV
62
0
70
32
10
4.438202
20
0.460674
30
0
0
VERTEX
8
PFV
62
0
70
32
10
4.370787
20
0.483146
30
0
0
VERTEX
8
PFV
62
0
70
32
10
4.505618
20
0.640449
30
0
0
VERTEX
8
PFV
62
0
70
32
10
4.573034
20
0.696629
30
0
0
VERTEX
8
PFV
62
0
70
32
10
4.595506
20
0.662921
30
0
0
SEQEND
0
POLYLINE
8
PFV
62
0
66
1
70
8
0
VERTEX
8
PFV
62
0
70
32
10
6.393258
20
0.460674
30
0
0
VERTEX
8
PFV
62
0
70
32
10
6.269663
20
0.505618
30
0
0
VERTEX
8
PFV
62
0
70
32
10
6.235955
20
0.471910
30
0
0
VERTEX
8
PFV
62
0
70
32
10
6.123596
20
0.483146
30
0
0
VERTEX
8
PFV
62
0
70
32
10
6.101124
20
0.505618
30
0
0
VERTEX
8
PFV
62
0
70
32
10
6.112360
20
0.617978
30
0
0
VERTEX
8
PFV
62
0
70
32
10
6.168539
20
0.674157
30
0
0
VERTEX
8
PFV
62
0
70
32
10
6.202247
20
0.674157
30
0
0
VERTEX
8
PFV
62
0
70
32
10
6.213483
20
0.651685
30
0
0
VERTEX
8
PFV
62
0
70
32
10
6.269663
20
0.674157
30
0
0
VERTEX
8
PFV
62
0
70
32
10
6.325843
20
0.719101
30
0
0
VERTEX
8
PFV
62
0
70
32
10
6.325843
20
0.741573
30
0
0
SEQEND
0
POLYLINE
8
PFV
62
0
66
1
70
8
0
VERTEX
8
PFV
62
0
70
32
10
4.730337
20
0.471910
30
0
0
VERTEX
8
PFV
62
0
70
32
10
4.730337
20
0.483146
30
0
0
SEQEND
0
POLYLINE
8
PFV
62
0
66
1
70
8
0
VERTEX
8
PFV
62
0
70
32
10
6.685393
20
0.483146
30
0
0
VERTEX
8
PFV
62
0
70
32
10
6.696629
20
0.471910
30
0
0
SEQEND
0
POLYLINE
8
PFV
62
0
66
1
70
8
0
VERTEX
8
PFV
62
0
70
32
10
8.629213
20
0.483146
30
0
0
VERTEX
8
PFV
62
0
70
32
10
8.629213
20
0.528090
30
0
0
SEQEND
0
POLYLINE
8
PFV
62
0
66
1
70
8
0
VERTEX
8
PFV
62
0
70
32
10
4.370787
20
0.494382
30
0
0
VERTEX
8
PFV
62
0
70
32
10
4.325843
20
0.505618
30
0
0
VERTEX
8
PFV
62
0
70
32
10
4.415730
20
0.595506
30
0
0
VERTEX
8
PFV
62
0
70
32
10
4.415730
20
0.617978
30
0
0
SEQEND
0
POLYLINE
8
PFV
62
0
66
1
70
8
0
VERTEX
8
PFV
62
0
70
32
10
8.292135
20
0.494382
30
0
0
VERTEX
8
PFV
62
0
70
32
10
8.235955
20
0.516854
30
0
0
VERTEX
8
PFV
62
0
70
32
10
8.179775
20
0.775281
30
0
0
VERTEX
8
PFV
62
0
70
32
10
8.134831
20
0.808989
30
0
0
VERTEX
8
PFV
62
0
70
32
10
8.067416
20
0.741573
30
0
0
VERTEX
8
PFV
62
0
70
32
10
8.078652
20
0.629213
30
0
0
VERTEX
8
PFV
62
0
70
32
10
8.213483
20
0.617978
30
0
0
SEQEND
0
POLYLINE
8
PFV
62
0
66
1
70
8
0
VERTEX
8
PFV
62
0
70
32
10
8.292135
20
0.494382
30
0
0
VERTEX
8
PFV
62
0
70
32
10
8.303371
20
0.483146
30
0
0
SEQEND
0
POLYLINE
8
PFV
62
0
66
1
70
8
0
VERTEX
8
PFV
62
0
70
32
10
2.404494
20
0.505618
30
0
0
VERTEX
8
PFV
62
0
70
32
10
2.325843
20
0.505618
30
0
0
VERTEX
8
PFV
62
0
70
32
10
2.303371
20
0.483146
30
0
0
VERTEX
8
PFV
62
0
70
32
10
2.191011
20
0.494382
30
0
0
VERTEX
8
PFV
62
0
70
32
10
2.191011
20
0.606742
30
0
0
VERTEX
8
PFV
62
0
70
32
10
2.191011
20
0.651685
30
0
0
VERTEX
8
PFV
62
0
70
32
10
2.191011
20
0.752809
30
0
0
VERTEX
8
PFV
62
0
70
32
10
2.235955
20
0.797753
30
0
0
VERTEX
8
PFV
62
0
70
32
10
2.235955
20
1.235955
30
0
0
VERTEX
8
PFV
62
0
70
32
10
2.269663
20
1.258427
30
0
0
VERTEX
8
PFV
62
0
70
32
10
2.292135
20
1.404494
30
0
0
VERTEX
8
PFV
62
0
70
32
10
2.303371
20
1.404494
30
0
0
VERTEX
8
PFV
62
0
70
32
10
2.348315
20
1.359551
30
0
0
VERTEX
8
PFV
62
0
70
32
10
2.370787
20
1.359551
30
0
0
VERTEX
8
PFV
62
0
70
32
10
2.382022
20
1.337079
30
0
0
SEQEND
0
POLYLINE
8
PFV
62
0
66
1
70
8
0
VERTEX
8
PFV
62
0
70
32
10
6.269663
20
0.505618
30
0
0
VERTEX
8
PFV
62
0
70
32
10
6.269663
20
0.606742
30
0
0
VERTEX
8
PFV
62
0
70
32
10
6.258427
20
0.617978
30
0
0
VERTEX
8
PFV
62
0
70
32
10
6.247191
20
0.629213
30
0
0
VERTEX
8
PFV
62
0
70
32
10
6.247191
20
0.651685
30
0
0
SEQEND
0
POLYLINE
8
PFV
62
0
66
1
70
8
0
VERTEX
8
PFV
62
0
70
32
10
0.831461
20
0.516854
30
0
0
VERTEX
8
PFV
62
0
70
32
10
0.741573
20
0.640449
30
0
0
SEQEND
0
POLYLINE
8
PFV
62
0
66
1
70
8
0
VERTEX
8
PFV
62
0
70
32
10
2.337079
20
0.516854
30
0
0
VERTEX
8
PFV
62
0
70
32
10
2.303371
20
0.752809
30
0
0
VERTEX
8
PFV
62
0
70
32
10
2.370787
20
0.808989
30
0
0
VERTEX
8
PFV
62
0
70
32
10
2.370787
20
0.831461
30
0
0
SEQEND
0
POLYLINE
8
PFV
62
0
66
1
70
8
0
VERTEX
8
PFV
62
0
70
32
10
2.370787
20
0.516854
30
0
0
VERTEX
8
PFV
62
0
70
32
10
2.471910
20
0.606742
30
0
0
SEQEND
0
POLYLINE
8
PFV
62
0
66
1
70
8
0
VERTEX
8
PFV
62
0
70
32
10
3.662921
20
0.516854
30
0
0
VERTEX
8
PFV
62
0
70
32
10
3.741573
20
0.617978
30
0
0
VERTEX
8
PFV
62
0
70
32
10
3.797753
20
0.741573
30
0
0
VERTEX
8
PFV
62
0
70
32
10
3.842697
20
0.853933
30
0
0
VERTEX
8
PFV
62
0
70
32
10
3.842697
20
1.168539
30
0
0
VERTEX
8
PFV
62
0
70
32
10
3.808989
20
1.314607
30
0
0
VERTEX
8
PFV
62
0
70
32
10
3.764045
20
1.382022
30
0
0
VERTEX
8
PFV
62
0
70
32
10
3.707865
20
1.337079
30
0
0
VERTEX
8
PFV
62
0
70
32
10
3.707865
20
1.314607
30
0
0
SEQEND
0
POLYLINE
8
PFV
62
0
66
1
70
8
0
VERTEX
8
PFV
62
0
70
32
10
3.662921
20
0.516854
30
0
0
VERTEX
8
PFV
62
0
70
32
10
3.651685
20
0.528090
30
0
0
SEQEND
0
POLYLINE
8
PFV
62
0
66
1
70
8
0
VERTEX
8
PFV
62
0
70
32
10
4.325843
20
0.516854
30
0
0
VERTEX
8
PFV
62
0
70
32
10
4.269663
20
0.539326
30
0
0
VERTEX
8
PFV
62
0
70
32
10
4.247191
20
0.573034
30
0
0
VERTEX
8
PFV
62
0
70
32
10
4.269663
20
0.595506
30
0
0
VERTEX
8
PFV
62
0
70
32
10
4.247191
20
0.786517
30
0
0
VERTEX
8
PFV
62
0
70
32
10
4.202247
20
0.820225
30
0
0
VERTEX
8
PFV
62
0
70
32
10
4.134831
20
0.775281
30
0
0
VERTEX
8
PFV
62
0
70
32
10
4.157303
20
0.640449
30
0
0
VERTEX
8
PFV
62
0
70
32
10
4.168539
20
0.640449
30
0
0
VERTEX
8
PFV
62
0
70
32
10
4.247191
20
0.573034
30
0
0
SEQEND
0
POLYLINE
8
PFV
62
0
66
1
70
8
0
VERTEX
8
PFV
62
0
70
32
10
4.325843
20
0.516854
30
0
0
VERTEX
8
PFV
62
0
70
32
10
4.337079
20
0.505618
30
0
0
SEQEND
0
POLYLINE
8
PFV
62
0
66
1
70
8
0
VERTEX
8
PFV
62
0
70
32
10
4.685393
20
0.516854
30
0
0
VERTEX
8
PFV
62
0
70
32
10
4.696629
20
0.516854
30
0
0
SEQEND
0
POLYLINE
8
PFV
62
0
66
1
70
8
0
VERTEX
8
PFV
62
0
70
32
10
8.235955
20
0.516854
30
0
0
VERTEX
8
PFV
62
0
70
32
10
8.191011
20
0.471910
30
0
0
VERTEX
8
PFV
62
0
70
32
10
8.078652
20
0.494382
30
0
0
VERTEX
8
PFV
62
0
70
32
10
8.089888
20
0.617978
30
0
0
SEQEND
0
POLYLINE
8
PFV
62
0
66
1
70
8
0
VERTEX
8
PFV
62
0
70
32
10
2.707865
20
0.539326
30
0
0
VERTEX
8
PFV
62
0
70
32
10
2.651685
20
0.606742
30
0
0
SEQEND
0
POLYLINE
8
PFV
62
0
66
1
70
8
0
VERTEX
8
PFV
62
0
70
32
10
7.595506
20
0.539326
30
0
0
VERTEX
8
PFV
62
0
70
32
10
7.629213
20
0.561798
30
0
0
VERTEX
8
PFV
62
0
70
32
10
7.651685
20
0.573034
30
0
0
VERTEX
8
PFV
62
0
70
32
10
7.640449
20
0.640449
30
0
0
VERTEX
8
PFV
62
0
70
32
10
7.595506
20
0.674157
30
0
0
VERTEX
8
PFV
62
0
70
32
10
7.595506
20
0.696629
30
0
0
SEQEND
0
POLYLINE
8
PFV
62
0
66
1
70
8
0
VERTEX
8
PFV
62
0
70
32
10
7.595506
20
0.539326
30
0
0
VERTEX
8
PFV
62
0
70
32
10
7.584270
20
0.550562
30
0
0
SEQEND
0
POLYLINE
8
PFV
62
0
66
1
70
8
0
VERTEX
8
PFV
62
0
70
32
10
8.595506
20
0.539326
30
0
0
VERTEX
8
PFV
62
0
70
32
10
8.595506
20
0.550562
30
0
0
VERTEX
8
PFV
62
0
70
32
10
8.584270
20
0.561798
30
0
0
VERTEX
8
PFV
62
0
70
32
10
8.573034
20
0.561798
30
0
0
SEQEND
0
POLYLINE
8
PFV
62
0
66
1
70
8
0
VERTEX
8
PFV
62
0
70
32
10
2.337079
20
0.550562
30
0
0
VERTEX
8
PFV
62
0
70
32
10
2.438202
20
0.629213
30
0
0
VERTEX
8
PFV
62
0
70
32
10
2.438202
20
0.651685
30
0
0
SEQEND
0
POLYLINE
8
PFV
62
0
66
1
70
8
0
VERTEX
8
PFV
62
0
70
32
10
8.224719
20
0.561798
30
0
0
VERTEX
8
PFV
62
0
70
32
10
8.438202
20
0.775281
30
0
0
VERTEX
8
PFV
62
0
70
32
10
8.460674
20
0.775281
30
0
0
VERTEX
8
PFV
62
0
70
32
10
8.494382
20
0.685393
30
0
0
SEQEND
0
POLYLINE
8
PFV
62
0
66
1
70
8
0
VERTEX
8
PFV
62
0
70
32
10
4.629213
20
0.595506
30
0
0
VERTEX
8
PFV
62
0
70
32
10
4.640449
20
0.595506
30
0
0
SEQEND
0
POLYLINE
8
PFV
62
0
66
1
70
8
0
VERTEX
8
PFV
62
0
70
32
10
6.269663
20
0.606742
30
0
0
VERTEX
8
PFV
62
0
70
32
10
6.325843
20
0.651685
30
0
0
VERTEX
8
PFV
62
0
70
32
10
6.370787
20
0.651685
30
0
0
VERTEX
8
PFV
62
0
70
32
10
6.404494
20
0.696629
30
0
0
VERTEX
8
PFV
62
0
70
32
10
6.494382
20
0.797753
30
0
0
VERTEX
8
PFV
62
0
70
32
10
6.471910
20
0.831461
30
0
0
VERTEX
8
PFV
62
0
70
32
10
6.449438
20
1.157303
30
0
0
VERTEX
8
PFV
62
0
70
32
10
6.494382
20
1.393258
30
0
0
VERTEX
8
PFV
62
0
70
32
10
6.539326
20
1.460674
30
0
0
VERTEX
8
PFV
62
0
70
32
10
6.528090
20
1.516854
30
0
0
VERTEX
8
PFV
62
0
70
32
10
6.415730
20
1.617978
30
0
0
VERTEX
8
PFV
62
0
70
32
10
6.471910
20
1.696629
30
0
0
VERTEX
8
PFV
62
0
70
32
10
6.505618
20
1.696629
30
0
0
VERTEX
8
PFV
62
0
70
32
10
6.606742
20
1.606742
30
0
0
VERTEX
8
PFV
62
0
70
32
10
6.595506
20
1.561798
30
0
0
VERTEX
8
PFV
62
0
70
32
10
6.539326
20
1.494382
30
0
0
SEQEND
0
POLYLINE
8
PFV
62
0
66
1
70
8
0
VERTEX
8
PFV
62
0
70
32
10
6.269663
20
0.606742
30
0
0
VERTEX
8
PFV
62
0
70
32
10
6.258427
20
0.606742
30
0
0
SEQEND
0
POLYLINE
8
PFV
62
0
66
1
70
8
0
VERTEX
8
PFV
62
0
70
32
10
7.651685
20
0.617978
30
0
0
VERTEX
8
PFV
62
0
70
32
10
7.696629
20
0.640449
30
0
0
VERTEX
8
PFV
62
0
70
32
10
7.752809
20
0.808989
30
0
0
VERTEX
8
PFV
62
0
70
32
10
7.764045
20
0.887640
30
0
0
VERTEX
8
PFV
62
0
70
32
10
7.764045
20
1.202247
30
0
0
VERTEX
8
PFV
62
0
70
32
10
7.741573
20
1.235955
30
0
0
VERTEX
8
PFV
62
0
70
32
10
7.719101
20
1.359551
30
0
0
VERTEX
8
PFV
62
0
70
32
10
7.629213
20
1.516854
30
0
0
VERTEX
8
PFV
62
0
70
32
10
7.460674
20
1.685393
30
0
0
VERTEX
8
PFV
62
0
70
32
10
7.314607
20
1.764045
30
0
0
VERTEX
8
PFV
62
0
70
32
10
7.000000
20
1.797753
30
0
0
VERTEX
8
PFV
62
0
70
32
10
6.831461
20
1.752809
30
0
0
VERTEX
8
PFV
62
0
70
32
10
6.719101
20
1.719101
30
0
0
VERTEX
8
PFV
62
0
70
32
10
6.640449
20
1.797753
30
0
0
VERTEX
8
PFV
62
0
70
32
10
6.595506
20
1.786517
30
0
0
VERTEX
8
PFV
62
0
70
32
10
6.606742
20
1.730337
30
0
0
VERTEX
8
PFV
62
0
70
32
10
6.617978
20
1.730337
30
0
0
VERTEX
8
PFV
62
0
70
32
10
6.674157
20
1.651685
30
0
0
VERTEX
8
PFV
62
0
70
32
10
6.662921
20
1.629213
30
0
0
VERTEX
8
PFV
62
0
70
32
10
6.617978
20
1.640449
30
0
0
VERTEX
8
PFV
62
0
70
32
10
6.539326
20
1.730337
30
0
0
VERTEX
8
PFV
62
0
70
32
10
6.550562
20
1.764045
30
0
0
VERTEX
8
PFV
62
0
70
32
10
6.584270
20
1.764045
30
0
0
VERTEX
8
PFV
62
0
70
32
10
6.584270
20
1.741573
30
0
0
VERTEX
8
PFV
62
0
70
32
10
6.595506
20
1.741573
30
0
0
SEQEND
0
POLYLINE
8
PFV
62
0
66
1
70
8
0
VERTEX
8
PFV
62
0
70
32
10
7.651685
20
0.617978
30
0
0
VERTEX
8
PFV
62
0
70
32
10
7.640449
20
0.629213
30
0
0
SEQEND
0
POLYLINE
8
PFV
62
0
66
1
70
8
0
VERTEX
8
PFV
62
0
70
32
10
8.089888
20
0.617978
30
0
0
VERTEX
8
PFV
62
0
70
32
10
8.089888
20
0.629213
30
0
0
SEQEND
0
POLYLINE
8
PFV
62
0
66
1
70
8
0
VERTEX
8
PFV
62
0
70
32
10
8.213483
20
0.617978
30
0
0
VERTEX
8
PFV
62
0
70
32
10
8.303371
20
0.696629
30
0
0
VERTEX
8
PFV
62
0
70
32
10
8.314607
20
0.730337
30
0
0
VERTEX
8
PFV
62
0
70
32
10
8.393258
20
0.730337
30
0
0
SEQEND
0
POLYLINE
8
PFV
62
0
66
1
70
8
0
VERTEX
8
PFV
62
0
70
32
10
2.202247
20
0.629213
30
0
0
VERTEX
8
PFV
62
0
70
32
10
2.314607
20
0.629213
30
0
0
SEQEND
0
POLYLINE
8
PFV
62
0
66
1
70
8
0
VERTEX
8
PFV
62
0
70
32
10
2.202247
20
0.629213
30
0
0
VERTEX
8
PFV
62
0
70
32
10
2.191011
20
0.640449
30
0
0
SEQEND
0
POLYLINE
8
PFV
62
0
66
1
70
8
0
VERTEX
8
PFV
62
0
70
32
10
4.595506
20
0.640449
30
0
0
VERTEX
8
PFV
62
0
70
32
10
4.606742
20
0.629213
30
0
0
SEQEND
0
POLYLINE
8
PFV
62
0
66
1
70
8
0
VERTEX
8
PFV
62
0
70
32
10
5.033708
20
0.640449
30
0
0
VERTEX
8
PFV
62
0
70
32
10
5.089888
20
0.707865
30
0
0
VERTEX
8
PFV
62
0
70
32
10
5.112360
20
0.707865
30
0
0
VERTEX
8
PFV
62
0
70
32
10
5.168539
20
0.640449
30
0
0
VERTEX
8
PFV
62
0
70
32
10
5.314607
20
0.651685
30
0
0
VERTEX
8
PFV
62
0
70
32
10
5.348315
20
0.741573
30
0
0
VERTEX
8
PFV
62
0
70
32
10
5.348315
20
0.775281
30
0
0
VERTEX
8
PFV
62
0
70
32
10
5.348315
20
0.887640
30
0
0
VERTEX
8
PFV
62
0
70
32
10
5.449438
20
0.977528
30
0
0
VERTEX
8
PFV
62
0
70
32
10
5.471910
20
0.887640
30
0
0
VERTEX
8
PFV
62
0
70
32
10
5.426966
20
0.752809
30
0
0
VERTEX
8
PFV
62
0
70
32
10
5.471910
20
0.707865
30
0
0
VERTEX
8
PFV
62
0
70
32
10
5.471910
20
0.685393
30
0
0
VERTEX
8
PFV
62
0
70
32
10
5.494382
20
0.685393
30
0
0
VERTEX
8
PFV
62
0
70
32
10
5.471910
20
0.719101
30
0
0
VERTEX
8
PFV
62
0
70
32
10
5.471910
20
0.707865
30
0
0
SEQEND
0
POLYLINE
8
PFV
62
0
66
1
70
8
0
VERTEX
8
PFV
62
0
70
32
10
5.033708
20
0.640449
30
0
0
VERTEX
8
PFV
62
0
70
32
10
5.033708
20
0.617978
30
0
0
VERTEX
8
PFV
62
0
70
32
10
5.011236
20
0.617978
30
0
0
VERTEX
8
PFV
62
0
70
32
10
5.011236
20
0.640449
30
0
0
VERTEX
8
PFV
62
0
70
32
10
5.033708
20
0.640449
30
0
0
SEQEND
0
POLYLINE
8
PFV
62
0
66
1
70
8
0
VERTEX
8
PFV
62
0
70
32
10
6.348315
20
0.651685
30
0
0
VERTEX
8
PFV
62
0
70
32
10
6.348315
20
0.696629
30
0
0
VERTEX
8
PFV
62
0
70
32
10
6.471910
20
0.820225
30
0
0
SEQEND
0
POLYLINE
8
PFV
62
0
66
1
70
8
0
VERTEX
8
PFV
62
0
70
32
10
6.561798
20
0.651685
30
0
0
VERTEX
8
PFV
62
0
70
32
10
6.494382
20
0.786517
30
0
0
SEQEND
0
POLYLINE
8
PFV
62
0
66
1
70
8
0
VERTEX
8
PFV
62
0
70
32
10
6.168539
20
0.674157
30
0
0
VERTEX
8
PFV
62
0
70
32
10
6.146067
20
1.224719
30
0
0
VERTEX
8
PFV
62
0
70
32
10
6.089888
20
1.280899
30
0
0
VERTEX
8
PFV
62
0
70
32
10
6.101124
20
1.370787
30
0
0
VERTEX
8
PFV
62
0
70
32
10
6.123596
20
1.393258
30
0
0
VERTEX
8
PFV
62
0
70
32
10
6.213483
20
1.393258
30
0
0
VERTEX
8
PFV
62
0
70
32
10
6.202247
20
1.247191
30
0
0
VERTEX
8
PFV
62
0
70
32
10
6.157303
20
1.213483
30
0
0
SEQEND
0
POLYLINE
8
PFV
62
0
66
1
70
8
0
VERTEX
8
PFV
62
0
70
32
10
6.348315
20
0.674157
30
0
0
VERTEX
8
PFV
62
0
70
32
10
6.370787
20
0.674157
30
0
0
SEQEND
0
POLYLINE
8
PFV
62
0
66
1
70
8
0
VERTEX
8
PFV
62
0
70
32
10
6.348315
20
0.674157
30
0
0
VERTEX
8
PFV
62
0
70
32
10
6.337079
20
0.674157
30
0
0
SEQEND
0
POLYLINE
8
PFV
62
0
66
1
70
8
0
VERTEX
8
PFV
62
0
70
32
10
4.561798
20
0.696629
30
0
0
VERTEX
8
PFV
62
0
70
32
10
4.494382
20
0.887640
30
0
0
VERTEX
8
PFV
62
0
70
32
10
4.471910
20
1.112360
30
0
0
VERTEX
8
PFV
62
0
70
32
10
4.505618
20
1.303371
30
0
0
VERTEX
8
PFV
62
0
70
32
10
4.584270
20
1.528090
30
0
0
VERTEX
8
PFV
62
0
70
32
10
4.460674
20
1.640449
30
0
0
VERTEX
8
PFV
62
0
70
32
10
4.460674
20
1.662921
30
0
0
VERTEX
8
PFV
62
0
70
32
10
4.494382
20
1.662921
30
0
0
VERTEX
8
PFV
62
0
70
32
10
4.606742
20
1.561798
30
0
0
VERTEX
8
PFV
62
0
70
32
10
4.606742
20
1.516854
30
0
0
VERTEX
8
PFV
62
0
70
32
10
4.584270
20
1.516854
30
0
0
SEQEND
0
POLYLINE
8
PFV
62
0
66
1
70
8
0
VERTEX
8
PFV
62
0
70
32
10
8.202247
20
0.696629
30
0
0
VERTEX
8
PFV
62
0
70
32
10
8.213483
20
0.696629
30
0
0
VERTEX
8
PFV
62
0
70
32
10
8.224719
20
0.707865
30
0
0
VERTEX
8
PFV
62
0
70
32
10
8.235955
20
0.719101
30
0
0
VERTEX
8
PFV
62
0
70
32
10
8.247191
20
0.730337
30
0
0
VERTEX
8
PFV
62
0
70
32
10
8.292135
20
0.730337
30
0
0
VERTEX
8
PFV
62
0
70
32
10
8.303371
20
0.719101
30
0
0
SEQEND
0
POLYLINE
8
PFV
62
0
66
1
70
8
0
VERTEX
8
PFV
62
0
70
32
10
2.314607
20
0.707865
30
0
0
VERTEX
8
PFV
62
0
70
32
10
2.393258
20
0.764045
30
0
0
VERTEX
8
PFV
62
0
70
32
10
2.404494
20
0.808989
30
0
0
VERTEX
8
PFV
62
0
70
32
10
2.539326
20
0.921348
30
0
0
VERTEX
8
PFV
62
0
70
32
10
2.550562
20
0.842697
30
0
0
VERTEX
8
PFV
62
0
70
32
10
2.584270
20
0.741573
30
0
0
VERTEX
8
PFV
62
0
70
32
10
2.595506
20
0.741573
30
0
0
VERTEX
8
PFV
62
0
70
32
10
2.606742
20
0.707865
30
0
0
SEQEND
0
POLYLINE
8
PFV
62
0
66
1
70
8
0
VERTEX
8
PFV
62
0
70
32
10
9.269663
20
0.741573
30
0
0
VERTEX
8
PFV
62
0
70
32
10
9.202247
20
0.820225
30
0
0
VERTEX
8
PFV
62
0
70
32
10
9.202247
20
1.280899
30
0
0
VERTEX
8
PFV
62
0
70
32
10
9.269663
20
1.348315
30
0
0
VERTEX
8
PFV
62
0
70
32
10
9.303371
20
1.348315
30
0
0
VERTEX
8
PFV
62
0
70
32
10
9.370787
20
1.303371
30
0
0
VERTEX
8
PFV
62
0
70
32
10
9.426966
20
1.269663
30
0
0
VERTEX
8
PFV
62
0
70
32
10
9.449438
20
1.213483
30
0
0
VERTEX
8
PFV
62
0
70
32
10
9.460674
20
1.213483
30
0
0
VERTEX
8
PFV
62
0
70
32
10
9.516854
20
1.123596
30
0
0
VERTEX
8
PFV
62
0
70
32
10
9.505618
20
0.932584
30
0
0
VERTEX
8
PFV
62
0
70
32
10
9.483146
20
0.932584
30
0
0
VERTEX
8
PFV
62
0
70
32
10
9.438202
20
0.842697
30
0
0
VERTEX
8
PFV
62
0
70
32
10
9.415730
20
0.842697
30
0
0
VERTEX
8
PFV
62
0
70
32
10
9.382022
20
0.786517
30
0
0
VERTEX
8
PFV
62
0
70
32
10
9.269663
20
0.741573
30
0
0
VERTEX
8
PFV
62
0
70
32
10
9.258427
20
0.752809
30
0
0
SEQEND
0
POLYLINE
8
PFV
62
0
66
1
70
8
0
VERTEX
8
PFV
62
0
70
32
10
9.269663
20
0.741573
30
0
0
VERTEX
8
PFV
62
0
70
32
10
9.224719
20
0.651685
30
0
0
VERTEX
8
PFV
62
0
70
32
10
9.067416
20
0.651685
30
0
0
VERTEX
8
PFV
62
0
70
32
10
9.000000
20
0.685393
30
0
0
VERTEX
8
PFV
62
0
70
32
10
8.977528
20
0.764045
30
0
0
VERTEX
8
PFV
62
0
70
32
10
9.033708
20
0.820225
30
0
0
VERTEX
8
PFV
62
0
70
32
10
9.022472
20
1.314607
30
0
0
VERTEX
8
PFV
62
0
70
32
10
8.977528
20
1.359551
30
0
0
VERTEX
8
PFV
62
0
70
32
10
8.988764
20
1.449438
30
0
0
VERTEX
8
PFV
62
0
70
32
10
9.011236
20
1.471910
30
0
0
VERTEX
8
PFV
62
0
70
32
10
9.202247
20
1.471910
30
0
0
VERTEX
8
PFV
62
0
70
32
10
9.269663
20
1.370787
30
0
0
VERTEX
8
PFV
62
0
70
32
10
9.269663
20
1.348315
30
0
0
SEQEND
0
POLYLINE
8
PFV
62
0
66
1
70
8
0
VERTEX
8
PFV
62
0
70
32
10
1.314607
20
0.752809
30
0
0
VERTEX
8
PFV
62
0
70
32
10
1.314607
20
0.797753
30
0
0
VERTEX
8
PFV
62
0
70
32
10
1.337079
20
0.797753
30
0
0
VERTEX
8
PFV
62
0
70
32
10
1.325843
20
0.752809
30
0
0
VERTEX
8
PFV
62
0
70
32
10
1.303371
20
0.707865
30
0
0
VERTEX
8
PFV
62
0
70
32
10
1.280899
20
0.707865
30
0
0
SEQEND
0
POLYLINE
8
PFV
62
0
66
1
70
8
0
VERTEX
8
PFV
62
0
70
32
10
1.898876
20
0.752809
30
0
0
VERTEX
8
PFV
62
0
70
32
10
1.921348
20
0.764045
30
0
0
VERTEX
8
PFV
62
0
70
32
10
1.932584
20
0.808989
30
0
0
VERTEX
8
PFV
62
0
70
32
10
1.955056
20
0.910112
30
0
0
VERTEX
8
PFV
62
0
70
32
10
1.943820
20
1.213483
30
0
0
VERTEX
8
PFV
62
0
70
32
10
1.842697
20
1.471910
30
0
0
VERTEX
8
PFV
62
0
70
32
10
1.662921
20
1.662921
30
0
0
VERTEX
8
PFV
62
0
70
32
10
1.483146
20
1.764045
30
0
0
VERTEX
8
PFV
62
0
70
32
10
1.168539
20
1.797753
30
0
0
VERTEX
8
PFV
62
0
70
32
10
0.921348
20
1.719101
30
0
0
VERTEX
8
PFV
62
0
70
32
10
0.820225
20
1.662921
30
0
0
VERTEX
8
PFV
62
0
70
32
10
0.820225
20
1.640449
30
0
0
VERTEX
8
PFV
62
0
70
32
10
0.752809
20
1.685393
30
0
0
VERTEX
8
PFV
62
0
70
32
10
0.719101
20
1.719101
30
0
0
VERTEX
8
PFV
62
0
70
32
10
0.617978
20
1.674157
30
0
0
VERTEX
8
PFV
62
0
70
32
10
0.752809
20
1.528090
30
0
0
VERTEX
8
PFV
62
0
70
32
10
0.719101
20
1.494382
30
0
0
VERTEX
8
PFV
62
0
70
32
10
0.707865
20
1.438202
30
0
0
VERTEX
8
PFV
62
0
70
32
10
0.674157
20
1.460674
30
0
0
VERTEX
8
PFV
62
0
70
32
10
0.606742
20
1.528090
30
0
0
VERTEX
8
PFV
62
0
70
32
10
0.573034
20
1.550562
30
0
0
VERTEX
8
PFV
62
0
70
32
10
0.528090
20
1.573034
30
0
0
VERTEX
8
PFV
62
0
70
32
10
0.359551
20
1.471910
30
0
0
VERTEX
8
PFV
62
0
70
32
10
0.359551
20
1.438202
30
0
0
VERTEX
8
PFV
62
0
70
32
10
0.370787
20
1.438202
30
0
0
VERTEX
8
PFV
62
0
70
32
10
0.393258
20
1.359551
30
0
0
VERTEX
8
PFV
62
0
70
32
10
0.370787
20
1.247191
30
0
0
VERTEX
8
PFV
62
0
70
32
10
0.303371
20
1.247191
30
0
0
VERTEX
8
PFV
62
0
70
32
10
0.269663
20
1.292135
30
0
0
VERTEX
8
PFV
62
0
70
32
10
0.280899
20
1.393258
30
0
0
VERTEX
8
PFV
62
0
70
32
10
0.348315
20
1.449438
30
0
0
SEQEND
0
POLYLINE
8
PFV
62
0
66
1
70
8
0
VERTEX
8
PFV
62
0
70
32
10
1.898876
20
0.752809
30
0
0
VERTEX
8
PFV
62
0
70
32
10
1.887640
20
0.764045
30
0
0
SEQEND
0
POLYLINE
8
PFV
62
0
66
1
70
8
0
VERTEX
8
PFV
62
0
70
32
10
2.303371
20
0.752809
30
0
0
VERTEX
8
PFV
62
0
70
32
10
2.292135
20
0.764045
30
0
0
VERTEX
8
PFV
62
0
70
32
10
2.280899
20
0.764045
30
0
0
VERTEX
8
PFV
62
0
70
32
10
2.269663
20
0.775281
30
0
0
VERTEX
8
PFV
62
0
70
32
10
2.269663
20
0.786517
30
0
0
VERTEX
8
PFV
62
0
70
32
10
2.247191
20
0.786517
30
0
0
VERTEX
8
PFV
62
0
70
32
10
2.235955
20
0.797753
30
0
0
SEQEND
0
POLYLINE
8
PFV
62
0
66
1
70
8
0
VERTEX
8
PFV
62
0
70
32
10
0.348315
20
0.764045
30
0
0
VERTEX
8
PFV
62
0
70
32
10
0.460674
20
0.853933
30
0
0
VERTEX
8
PFV
62
0
70
32
10
0.460674
20
0.876404
30
0
0
SEQEND
0
POLYLINE
8
PFV
62
0
66
1
70
8
0
VERTEX
8
PFV
62
0
70
32
10
5.359551
20
0.764045
30
0
0
VERTEX
8
PFV
62
0
70
32
10
5.426966
20
0.764045
30
0
0
SEQEND
0
POLYLINE
8
PFV
62
0
66
1
70
8
0
VERTEX
8
PFV
62
0
70
32
10
5.359551
20
0.764045
30
0
0
VERTEX
8
PFV
62
0
70
32
10
5.348315
20
0.764045
30
0
0
SEQEND
0
POLYLINE
8
PFV
62
0
66
1
70
8
0
VERTEX
8
PFV
62
0
70
32
10
5.426966
20
0.764045
30
0
0
VERTEX
8
PFV
62
0
70
32
10
5.438202
20
0.752809
30
0
0
SEQEND
0
POLYLINE
8
PFV
62
0
66
1
70
8
0
VERTEX
8
PFV
62
0
70
32
10
8.977528
20
0.764045
30
0
0
VERTEX
8
PFV
62
0
70
32
10
8.853933
20
0.808989
30
0
0
VERTEX
8
PFV
62
0
70
32
10
8.730337
20
0.977528
30
0
0
VERTEX
8
PFV
62
0
70
32
10
8.707865
20
1.022472
30
0
0
VERTEX
8
PFV
62
0
70
32
10
8.719101
20
1.146067
30
0
0
VERTEX
8
PFV
62
0
70
32
10
8.764045
20
1.213483
30
0
0
VERTEX
8
PFV
62
0
70
32
10
8.797753
20
1.258427
30
0
0
VERTEX
8
PFV
62
0
70
32
10
8.898876
20
1.292135
30
0
0
VERTEX
8
PFV
62
0
70
32
10
8.921348
20
1.325843
30
0
0
VERTEX
8
PFV
62
0
70
32
10
8.977528
20
1.348315
30
0
0
SEQEND
0
POLYLINE
8
PFV
62
0
66
1
70
8
0
VERTEX
8
PFV
62
0
70
32
10
1.314607
20
0.775281
30
0
0
VERTEX
8
PFV
62
0
70
32
10
1.337079
20
0.775281
30
0
0
SEQEND
0
POLYLINE
8
PFV
62
0
66
1
70
8
0
VERTEX
8
PFV
62
0
70
32
10
4.887640
20
0.775281
30
0
0
VERTEX
8
PFV
62
0
70
32
10
4.966292
20
0.820225
30
0
0
VERTEX
8
PFV
62
0
70
32
10
5.000000
20
0.752809
30
0
0
VERTEX
8
PFV
62
0
70
32
10
5.022472
20
0.752809
30
0
0
VERTEX
8
PFV
62
0
70
32
10
5.101124
20
0.719101
30
0
0
VERTEX
8
PFV
62
0
70
32
10
5.146067
20
0.764045
30
0
0
VERTEX
8
PFV
62
0
70
32
10
5.123596
20
0.955056
30
0
0
VERTEX
8
PFV
62
0
70
32
10
5.011236
20
1.056180
30
0
0
VERTEX
8
PFV
62
0
70
32
10
5.000000
20
1.112360
30
0
0
VERTEX
8
PFV
62
0
70
32
10
4.932584
20
1.202247
30
0
0
VERTEX
8
PFV
62
0
70
32
10
4.842697
20
1.168539
30
0
0
VERTEX
8
PFV
62
0
70
32
10
4.797753
20
1.134831
30
0
0
VERTEX
8
PFV
62
0
70
32
10
4.808989
20
1.011236
30
0
0
VERTEX
8
PFV
62
0
70
32
10
4.820225
20
1.011236
30
0
0
VERTEX
8
PFV
62
0
70
32
10
4.943820
20
0.943820
30
0
0
VERTEX
8
PFV
62
0
70
32
10
5.011236
20
1.044944
30
0
0
SEQEND
0
POLYLINE
8
PFV
62
0
66
1
70
8
0
VERTEX
8
PFV
62
0
70
32
10
4.887640
20
0.775281
30
0
0
VERTEX
8
PFV
62
0
70
32
10
4.887640
20
0.752809
30
0
0
VERTEX
8
PFV
62
0
70
32
10
4.876404
20
0.752809
30
0
0
VERTEX
8
PFV
62
0
70
32
10
4.865169
20
0.764045
30
0
0
VERTEX
8
PFV
62
0
70
32
10
4.865169
20
0.775281
30
0
0
VERTEX
8
PFV
62
0
70
32
10
4.887640
20
0.775281
30
0
0
SEQEND
0
POLYLINE
8
PFV
62
0
66
1
70
8
0
VERTEX
8
PFV
62
0
70
32
10
5.146067
20
0.775281
30
0
0
VERTEX
8
PFV
62
0
70
32
10
5.179775
20
0.775281
30
0
0
VERTEX
8
PFV
62
0
70
32
10
5.202247
20
0.764045
30
0
0
VERTEX
8
PFV
62
0
70
32
10
5.202247
20
0.808989
30
0
0
VERTEX
8
PFV
62
0
70
32
10
5.258427
20
0.831461
30
0
0
VERTEX
8
PFV
62
0
70
32
10
5.235955
20
1.022472
30
0
0
VERTEX
8
PFV
62
0
70
32
10
5.235955
20
1.292135
30
0
0
VERTEX
8
PFV
62
0
70
32
10
5.280899
20
1.292135
30
0
0
VERTEX
8
PFV
62
0
70
32
10
5.280899
20
1.033708
30
0
0
VERTEX
8
PFV
62
0
70
32
10
5.247191
20
1.011236
30
0
0
SEQEND
0
POLYLINE
8
PFV
62
0
66
1
70
8
0
VERTEX
8
PFV
62
0
70
32
10
5.179775
20
0.775281
30
0
0
VERTEX
8
PFV
62
0
70
32
10
5.179775
20
0.786517
30
0
0
VERTEX
8
PFV
62
0
70
32
10
5.191011
20
0.786517
30
0
0
VERTEX
8
PFV
62
0
70
32
10
5.179775
20
0.775281
30
0
0
SEQEND
0
POLYLINE
8
PFV
62
0
66
1
70
8
0
VERTEX
8
PFV
62
0
70
32
10
5.179775
20
0.775281
30
0
0
VERTEX
8
PFV
62
0
70
32
10
5.179775
20
0.764045
30
0
0
SEQEND
0
POLYLINE
8
PFV
62
0
66
1
70
8
0
VERTEX
8
PFV
62
0
70
32
10
8.449438
20
0.775281
30
0
0
VERTEX
8
PFV
62
0
70
32
10
8.438202
20
0.865169
30
0
0
VERTEX
8
PFV
62
0
70
32
10
8.415730
20
0.921348
30
0
0
VERTEX
8
PFV
62
0
70
32
10
8.415730
20
1.213483
30
0
0
VERTEX
8
PFV
62
0
70
32
10
8.460674
20
1.393258
30
0
0
VERTEX
8
PFV
62
0
70
32
10
8.516854
20
1.528090
30
0
0
VERTEX
8
PFV
62
0
70
32
10
8.393258
20
1.640449
30
0
0
VERTEX
8
PFV
62
0
70
32
10
8.393258
20
1.662921
30
0
0
VERTEX
8
PFV
62
0
70
32
10
8.426966
20
1.662921
30
0
0
VERTEX
8
PFV
62
0
70
32
10
8.539326
20
1.561798
30
0
0
VERTEX
8
PFV
62
0
70
32
10
8.539326
20
1.528090
30
0
0
VERTEX
8
PFV
62
0
70
32
10
8.516854
20
1.528090
30
0
0
SEQEND
0
POLYLINE
8
PFV
62
0
66
1
70
8
0
VERTEX
8
PFV
62
0
70
32
10
1.314607
20
0.797753
30
0
0
VERTEX
8
PFV
62
0
70
32
10
1.292135
20
0.797753
30
0
0
VERTEX
8
PFV
62
0
70
32
10
1.292135
20
1.269663
30
0
0
VERTEX
8
PFV
62
0
70
32
10
1.280899
20
1.280899
30
0
0
VERTEX
8
PFV
62
0
70
32
10
1.280899
20
1.370787
30
0
0
VERTEX
8
PFV
62
0
70
32
10
1.292135
20
1.382022
30
0
0
VERTEX
8
PFV
62
0
70
32
10
1.280899
20
1.393258
30
0
0
SEQEND
0
POLYLINE
8
PFV
62
0
66
1
70
8
0
VERTEX
8
PFV
62
0
70
32
10
9.707865
20
0.797753
30
0
0
VERTEX
8
PFV
62
0
70
32
10
9.719101
20
0.797753
30
0
0
SEQEND
0
POLYLINE
8
PFV
62
0
66
1
70
8
0
VERTEX
8
PFV
62
0
70
32
10
9.707865
20
0.797753
30
0
0
VERTEX
8
PFV
62
0
70
32
10
9.629213
20
0.853933
30
0
0
VERTEX
8
PFV
62
0
70
32
10
9.629213
20
0.876404
30
0
0
SEQEND
0
POLYLINE
8
PFV
62
0
66
1
70
8
0
VERTEX
8
PFV
62
0
70
32
10
9.707865
20
0.797753
30
0
0
VERTEX
8
PFV
62
0
70
32
10
9.696629
20
0.808989
30
0
0
SEQEND
0
POLYLINE
8
PFV
62
0
66
1
70
8
0
VERTEX
8
PFV
62
0
70
32
10
5.337079
20
0.808989
30
0
0
VERTEX
8
PFV
62
0
70
32
10
5.314607
20
0.808989
30
0
0
VERTEX
8
PFV
62
0
70
32
10
5.303371
20
0.820225
30
0
0
VERTEX
8
PFV
62
0
70
32
10
5.269663
20
0.820225
30
0
0
VERTEX
8
PFV
62
0
70
32
10
5.258427
20
0.831461
30
0
0
SEQEND
0
POLYLINE
8
PFV
62
0
66
1
70
8
0
VERTEX
8
PFV
62
0
70
32
10
6.168539
20
0.808989
30
0
0
VERTEX
8
PFV
62
0
70
32
10
6.235955
20
0.865169
30
0
0
VERTEX
8
PFV
62
0
70
32
10
6.280899
20
0.865169
30
0
0
VERTEX
8
PFV
62
0
70
32
10
6.280899
20
0.887640
30
0
0
VERTEX
8
PFV
62
0
70
32
10
6.258427
20
0.887640
30
0
0
VERTEX
8
PFV
62
0
70
32
10
6.258427
20
0.865169
30
0
0
SEQEND
0
POLYLINE
8
PFV
62
0
66
1
70
8
0
VERTEX
8
PFV
62
0
70
32
10
8.134831
20
0.808989
30
0
0
VERTEX
8
PFV
62
0
70
32
10
8.123596
20
0.853933
30
0
0
VERTEX
8
PFV
62
0
70
32
10
8.067416
20
0.898876
30
0
0
VERTEX
8
PFV
62
0
70
32
10
8.078652
20
1.000000
30
0
0
VERTEX
8
PFV
62
0
70
32
10
8.134831
20
1.033708
30
0
0
VERTEX
8
PFV
62
0
70
32
10
8.168539
20
0.988764
30
0
0
VERTEX
8
PFV
62
0
70
32
10
8.157303
20
0.853933
30
0
0
VERTEX
8
PFV
62
0
70
32
10
8.134831
20
0.842697
30
0
0
SEQEND
0
POLYLINE
8
PFV
62
0
66
1
70
8
0
VERTEX
8
PFV
62
0
70
32
10
8.134831
20
0.808989
30
0
0
VERTEX
8
PFV
62
0
70
32
10
8.146067
20
0.797753
30
0
0
SEQEND
0
POLYLINE
8
PFV
62
0
66
1
70
8
0
VERTEX
8
PFV
62
0
70
32
10
4.202247
20
0.820225
30
0
0
VERTEX
8
PFV
62
0
70
32
10
4.179775
20
0.988764
30
0
0
VERTEX
8
PFV
62
0
70
32
10
4.134831
20
1.022472
30
0
0
VERTEX
8
PFV
62
0
70
32
10
4.146067
20
1.157303
30
0
0
VERTEX
8
PFV
62
0
70
32
10
4.202247
20
1.191011
30
0
0
VERTEX
8
PFV
62
0
70
32
10
4.235955
20
1.146067
30
0
0
VERTEX
8
PFV
62
0
70
32
10
4.224719
20
1.000000
30
0
0
VERTEX
8
PFV
62
0
70
32
10
4.191011
20
0.977528
30
0
0
SEQEND
0
POLYLINE
8
PFV
62
0
66
1
70
8
0
VERTEX
8
PFV
62
0
70
32
10
4.202247
20
0.820225
30
0
0
VERTEX
8
PFV
62
0
70
32
10
4.213483
20
0.808989
30
0
0
SEQEND
0
POLYLINE
8
PFV
62
0
66
1
70
8
0
VERTEX
8
PFV
62
0
70
32
10
4.955056
20
0.820225
30
0
0
VERTEX
8
PFV
62
0
70
32
10
4.955056
20
0.876404
30
0
0
VERTEX
8
PFV
62
0
70
32
10
4.943820
20
0.887640
30
0
0
VERTEX
8
PFV
62
0
70
32
10
4.943820
20
0.943820
30
0
0
SEQEND
0
POLYLINE
8
PFV
62
0
66
1
70
8
0
VERTEX
8
PFV
62
0
70
32
10
3.112360
20
0.831461
30
0
0
VERTEX
8
PFV
62
0
70
32
10
3.168539
20
0.932584
30
0
0
VERTEX
8
PFV
62
0
70
32
10
3.258427
20
1.022472
30
0
0
VERTEX
8
PFV
62
0
70
32
10
3.292135
20
1.022472
30
0
0
VERTEX
8
PFV
62
0
70
32
10
3.404494
20
0.910112
30
0
0
VERTEX
8
PFV
62
0
70
32
10
3.426966
20
0.842697
30
0
0
VERTEX
8
PFV
62
0
70
32
10
3.438202
20
0.842697
30
0
0
VERTEX
8
PFV
62
0
70
32
10
3.471910
20
0.775281
30
0
0
VERTEX
8
PFV
62
0
70
32
10
3.460674
20
0.685393
30
0
0
VERTEX
8
PFV
62
0
70
32
10
3.415730
20
0.617978
30
0
0
SEQEND
0
POLYLINE
8
PFV
62
0
66
1
70
8
0
VERTEX
8
PFV
62
0
70
32
10
3.112360
20
0.831461
30
0
0
VERTEX
8
PFV
62
0
70
32
10
3.123596
20
0.831461
30
0
0
VERTEX
8
PFV
62
0
70
32
10
3.247191
20
0.707865
30
0
0
SEQEND
0
POLYLINE
8
PFV
62
0
66
1
70
8
0
VERTEX
8
PFV
62
0
70
32
10
3.112360
20
0.831461
30
0
0
VERTEX
8
PFV
62
0
70
32
10
3.089888
20
0.831461
30
0
0
VERTEX
8
PFV
62
0
70
32
10
3.056180
20
0.741573
30
0
0
VERTEX
8
PFV
62
0
70
32
10
3.033708
20
0.719101
30
0
0
VERTEX
8
PFV
62
0
70
32
10
3.033708
20
0.617978
30
0
0
SEQEND
0
POLYLINE
8
PFV
62
0
66
1
70
8
0
VERTEX
8
PFV
62
0
70
32
10
3.112360
20
0.831461
30
0
0
VERTEX
8
PFV
62
0
70
32
10
3.123596
20
0.820225
30
0
0
SEQEND
0
POLYLINE
8
PFV
62
0
66
1
70
8
0
VERTEX
8
PFV
62
0
70
32
10
3.438202
20
0.842697
30
0
0
VERTEX
8
PFV
62
0
70
32
10
3.516854
20
0.921348
30
0
0
VERTEX
8
PFV
62
0
70
32
10
3.561798
20
0.921348
30
0
0
VERTEX
8
PFV
62
0
70
32
10
3.561798
20
0.943820
30
0
0
VERTEX
8
PFV
62
0
70
32
10
3.539326
20
0.943820
30
0
0
VERTEX
8
PFV
62
0
70
32
10
3.539326
20
0.921348
30
0
0
SEQEND
0
POLYLINE
8
PFV
62
0
66
1
70
8
0
VERTEX
8
PFV
62
0
70
32
10
3.438202
20
0.842697
30
0
0
VERTEX
8
PFV
62
0
70
32
10
3.426966
20
0.853933
30
0
0
SEQEND
0
POLYLINE
8
PFV
62
0
66
1
70
8
0
VERTEX
8
PFV
62
0
70
32
10
8.134831
20
0.842697
30
0
0
VERTEX
8
PFV
62
0
70
32
10
8.123596
20
0.842697
30
0
0
SEQEND
0
POLYLINE
8
PFV
62
0
66
1
70
8
0
VERTEX
8
PFV
62
0
70
32
10
1.449438
20
0.865169
30
0
0
VERTEX
8
PFV
62
0
70
32
10
1.449438
20
1.213483
30
0
0
SEQEND
0
POLYLINE
8
PFV
62
0
66
1
70
8
0
VERTEX
8
PFV
62
0
70
32
10
1.449438
20
0.865169
30
0
0
VERTEX
8
PFV
62
0
70
32
10
1.460674
20
0.865169
30
0
0
VERTEX
8
PFV
62
0
70
32
10
1.483146
20
0.853933
30
0
0
VERTEX
8
PFV
62
0
70
32
10
1.528090
20
0.865169
30
0
0
VERTEX
8
PFV
62
0
70
32
10
1.550562
20
0.898876
30
0
0
VERTEX
8
PFV
62
0
70
32
10
1.573034
20
0.898876
30
0
0
VERTEX
8
PFV
62
0
70
32
10
1.606742
20
0.887640
30
0
0
VERTEX
8
PFV
62
0
70
32
10
1.573034
20
0.910112
30
0
0
VERTEX
8
PFV
62
0
70
32
10
1.674157
20
0.988764
30
0
0
SEQEND
0
POLYLINE
8
PFV
62
0
66
1
70
8
0
VERTEX
8
PFV
62
0
70
32
10
1.449438
20
0.865169
30
0
0
VERTEX
8
PFV
62
0
70
32
10
1.426966
20
0.865169
30
0
0
VERTEX
8
PFV
62
0
70
32
10
1.415730
20
0.853933
30
0
0
VERTEX
8
PFV
62
0
70
32
10
1.415730
20
0.831461
30
0
0
VERTEX
8
PFV
62
0
70
32
10
1.426966
20
0.820225
30
0
0
VERTEX
8
PFV
62
0
70
32
10
1.426966
20
0.797753
30
0
0
SEQEND
0
POLYLINE
8
PFV
62
0
66
1
70
8
0
VERTEX
8
PFV
62
0
70
32
10
7.752809
20
0.865169
30
0
0
VERTEX
8
PFV
62
0
70
32
10
7.764045
20
0.865169
30
0
0
SEQEND
0
POLYLINE
8
PFV
62
0
66
1
70
8
0
VERTEX
8
PFV
62
0
70
32
10
7.752809
20
0.865169
30
0
0
VERTEX
8
PFV
62
0
70
32
10
7.685393
20
0.932584
30
0
0
VERTEX
8
PFV
62
0
70
32
10
7.685393
20
0.966292
30
0
0
SEQEND
0
POLYLINE
8
PFV
62
0
66
1
70
8
0
VERTEX
8
PFV
62
0
70
32
10
7.752809
20
0.865169
30
0
0
VERTEX
8
PFV
62
0
70
32
10
7.741573
20
0.876404
30
0
0
SEQEND
0
POLYLINE
8
PFV
62
0
66
1
70
8
0
VERTEX
8
PFV
62
0
70
32
10
0.651685
20
0.876404
30
0
0
VERTEX
8
PFV
62
0
70
32
10
0.629213
20
0.898876
30
0
0
VERTEX
8
PFV
62
0
70
32
10
0.606742
20
1.224719
30
0
0
VERTEX
8
PFV
62
0
70
32
10
0.494382
20
1.325843
30
0
0
VERTEX
8
PFV
62
0
70
32
10
0.494382
20
1.348315
30
0
0
SEQEND
0
POLYLINE
8
PFV
62
0
66
1
70
8
0
VERTEX
8
PFV
62
0
70
32
10
5.134831
20
0.876404
30
0
0
VERTEX
8
PFV
62
0
70
32
10
5.179775
20
0.876404
30
0
0
VERTEX
8
PFV
62
0
70
32
10
5.191011
20
0.887640
30
0
0
VERTEX
8
PFV
62
0
70
32
10
5.247191
20
0.887640
30
0
0
SEQEND
0
POLYLINE
8
PFV
62
0
66
1
70
8
0
VERTEX
8
PFV
62
0
70
32
10
8.168539
20
0.887640
30
0
0
VERTEX
8
PFV
62
0
70
32
10
8.179775
20
0.887640
30
0
0
VERTEX
8
PFV
62
0
70
32
10
8.191011
20
0.898876
30
0
0
VERTEX
8
PFV
62
0
70
32
10
8.202247
20
0.910112
30
0
0
VERTEX
8
PFV
62
0
70
32
10
8.213483
20
0.921348
30
0
0
VERTEX
8
PFV
62
0
70
32
10
8.224719
20
0.932584
30
0
0
VERTEX
8
PFV
62
0
70
32
10
8.235955
20
0.943820
30
0
0
SEQEND
0
POLYLINE
8
PFV
62
0
66
1
70
8
0
VERTEX
8
PFV
62
0
70
32
10
1.573034
20
0.898876
30
0
0
VERTEX
8
PFV
62
0
70
32
10
1.573034
20
0.887640
30
0
0
SEQEND
0
POLYLINE
8
PFV
62
0
66
1
70
8
0
VERTEX
8
PFV
62
0
70
32
10
2.528090
20
0.921348
30
0
0
VERTEX
8
PFV
62
0
70
32
10
2.528090
20
1.235955
30
0
0
VERTEX
8
PFV
62
0
70
32
10
2.550562
20
1.370787
30
0
0
VERTEX
8
PFV
62
0
70
32
10
2.573034
20
1.382022
30
0
0
VERTEX
8
PFV
62
0
70
32
10
2.595506
20
1.471910
30
0
0
VERTEX
8
PFV
62
0
70
32
10
2.483146
20
1.584270
30
0
0
VERTEX
8
PFV
62
0
70
32
10
2.404494
20
1.561798
30
0
0
VERTEX
8
PFV
62
0
70
32
10
2.348315
20
1.528090
30
0
0
VERTEX
8
PFV
62
0
70
32
10
2.393258
20
1.460674
30
0
0
VERTEX
8
PFV
62
0
70
32
10
2.404494
20
1.460674
30
0
0
VERTEX
8
PFV
62
0
70
32
10
2.539326
20
1.337079
30
0
0
SEQEND
0
POLYLINE
8
PFV
62
0
66
1
70
8
0
VERTEX
8
PFV
62
0
70
32
10
4.191011
20
0.921348
30
0
0
VERTEX
8
PFV
62
0
70
32
10
4.168539
20
0.921348
30
0
0
VERTEX
8
PFV
62
0
70
32
10
4.168539
20
0.943820
30
0
0
VERTEX
8
PFV
62
0
70
32
10
4.191011
20
0.943820
30
0
0
SEQEND
0
POLYLINE
8
PFV
62
0
66
1
70
8
0
VERTEX
8
PFV
62
0
70
32
10
1.112360
20
0.932584
30
0
0
VERTEX
8
PFV
62
0
70
32
10
1.123596
20
0.932584
30
0
0
VERTEX
8
PFV
62
0
70
32
10
1.134831
20
0.943820
30
0
0
VERTEX
8
PFV
62
0
70
32
10
1.157303
20
0.943820
30
0
0
SEQEND
0
POLYLINE
8
PFV
62
0
66
1
70
8
0
VERTEX
8
PFV
62
0
70
32
10
1.112360
20
0.932584
30
0
0
VERTEX
8
PFV
62
0
70
32
10
1.157303
20
0.887640
30
0
0
VERTEX
8
PFV
62
0
70
32
10
1.202247
20
0.898876
30
0
0
VERTEX
8
PFV
62
0
70
32
10
1.202247
20
0.921348
30
0
0
SEQEND
0
POLYLINE
8
PFV
62
0
66
1
70
8
0
VERTEX
8
PFV
62
0
70
32
10
1.112360
20
0.932584
30
0
0
VERTEX
8
PFV
62
0
70
32
10
1.056180
20
0.977528
30
0
0
VERTEX
8
PFV
62
0
70
32
10
1.011236
20
0.966292
30
0
0
VERTEX
8
PFV
62
0
70
32
10
1.011236
20
0.955056
30
0
0
SEQEND
0
POLYLINE
8
PFV
62
0
66
1
70
8
0
VERTEX
8
PFV
62
0
70
32
10
1.112360
20
0.932584
30
0
0
VERTEX
8
PFV
62
0
70
32
10
1.101124
20
0.943820
30
0
0
SEQEND
0
POLYLINE
8
PFV
62
0
66
1
70
8
0
VERTEX
8
PFV
62
0
70
32
10
5.471910
20
0.932584
30
0
0
VERTEX
8
PFV
62
0
70
32
10
5.595506
20
1.000000
30
0
0
VERTEX
8
PFV
62
0
70
32
10
5.595506
20
1.101124
30
0
0
VERTEX
8
PFV
62
0
70
32
10
5.471910
20
1.168539
30
0
0
VERTEX
8
PFV
62
0
70
32
10
5.449438
20
1.134831
30
0
0
VERTEX
8
PFV
62
0
70
32
10
5.449438
20
0.977528
30
0
0
SEQEND
0
POLYLINE
8
PFV
62
0
66
1
70
8
0
VERTEX
8
PFV
62
0
70
32
10
1.595506
20
0.943820
30
0
0
VERTEX
8
PFV
62
0
70
32
10
1.595506
20
0.955056
30
0
0
VERTEX
8
PFV
62
0
70
32
10
1.584270
20
0.966292
30
0
0
SEQEND
0
POLYLINE
8
PFV
62
0
66
1
70
8
0
VERTEX
8
PFV
62
0
70
32
10
1.595506
20
0.943820
30
0
0
VERTEX
8
PFV
62
0
70
32
10
1.595506
20
0.932584
30
0
0
SEQEND
0
POLYLINE
8
PFV
62
0
66
1
70
8
0
VERTEX
8
PFV
62
0
70
32
10
1.033708
20
0.977528
30
0
0
VERTEX
8
PFV
62
0
70
32
10
1.033708
20
1.000000
30
0
0
VERTEX
8
PFV
62
0
70
32
10
1.022472
20
1.011236
30
0
0
VERTEX
8
PFV
62
0
70
32
10
1.011236
20
1.022472
30
0
0
VERTEX
8
PFV
62
0
70
32
10
0.988764
20
1.022472
30
0
0
VERTEX
8
PFV
62
0
70
32
10
0.977528
20
1.011236
30
0
0
SEQEND
0
POLYLINE
8
PFV
62
0
66
1
70
8
0
VERTEX
8
PFV
62
0
70
32
10
4.191011
20
0.977528
30
0
0
VERTEX
8
PFV
62
0
70
32
10
4.179775
20
0.977528
30
0
0
SEQEND
0
POLYLINE
8
PFV
62
0
66
1
70
8
0
VERTEX
8
PFV
62
0
70
32
10
0.325843
20
0.988764
30
0
0
VERTEX
8
PFV
62
0
70
32
10
0.314607
20
0.988764
30
0
0
SEQEND
0
POLYLINE
8
PFV
62
0
66
1
70
8
0
VERTEX
8
PFV
62
0
70
32
10
5.247191
20
1.011236
30
0
0
VERTEX
8
PFV
62
0
70
32
10
5.235955
20
1.011236
30
0
0
SEQEND
0
POLYLINE
8
PFV
62
0
66
1
70
8
0
VERTEX
8
PFV
62
0
70
32
10
8.157303
20
1.011236
30
0
0
VERTEX
8
PFV
62
0
70
32
10
8.213483
20
1.022472
30
0
0
VERTEX
8
PFV
62
0
70
32
10
8.247191
20
1.067416
30
0
0
VERTEX
8
PFV
62
0
70
32
10
8.404494
20
1.067416
30
0
0
SEQEND
0
POLYLINE
8
PFV
62
0
66
1
70
8
0
VERTEX
8
PFV
62
0
70
32
10
0.988764
20
1.022472
30
0
0
VERTEX
8
PFV
62
0
70
32
10
1.000000
20
1.089888
30
0
0
VERTEX
8
PFV
62
0
70
32
10
0.977528
20
1.089888
30
0
0
VERTEX
8
PFV
62
0
70
32
10
0.966292
20
1.146067
30
0
0
SEQEND
0
POLYLINE
8
PFV
62
0
66
1
70
8
0
VERTEX
8
PFV
62
0
70
32
10
3.258427
20
1.022472
30
0
0
VERTEX
8
PFV
62
0
70
32
10
3.247191
20
1.449438
30
0
0
VERTEX
8
PFV
62
0
70
32
10
3.168539
20
1.528090
30
0
0
VERTEX
8
PFV
62
0
70
32
10
3.123596
20
1.561798
30
0
0
VERTEX
8
PFV
62
0
70
32
10
3.123596
20
1.584270
30
0
0
SEQEND
0
POLYLINE
8
PFV
62
0
66
1
70
8
0
VERTEX
8
PFV
62
0
70
32
10
3.292135
20
1.022472
30
0
0
VERTEX
8
PFV
62
0
70
32
10
3.404494
20
1.146067
30
0
0
VERTEX
8
PFV
62
0
70
32
10
3.460674
20
1.157303
30
0
0
VERTEX
8
PFV
62
0
70
32
10
3.617978
20
1.202247
30
0
0
SEQEND
0
POLYLINE
8
PFV
62
0
66
1
70
8
0
VERTEX
8
PFV
62
0
70
32
10
3.292135
20
1.022472
30
0
0
VERTEX
8
PFV
62
0
70
32
10
3.292135
20
1.011236
30
0
0
SEQEND
0
POLYLINE
8
PFV
62
0
66
1
70
8
0
VERTEX
8
PFV
62
0
70
32
10
8.123596
20
1.033708
30
0
0
VERTEX
8
PFV
62
0
70
32
10
8.123596
20
1.280899
30
0
0
VERTEX
8
PFV
62
0
70
32
10
8.134831
20
1.280899
30
0
0
VERTEX
8
PFV
62
0
70
32
10
8.157303
20
1.247191
30
0
0
VERTEX
8
PFV
62
0
70
32
10
8.325843
20
1.247191
30
0
0
VERTEX
8
PFV
62
0
70
32
10
8.404494
20
1.168539
30
0
0
SEQEND
0
POLYLINE
8
PFV
62
0
66
1
70
8
0
VERTEX
8
PFV
62
0
70
32
10
8.123596
20
1.033708
30
0
0
VERTEX
8
PFV
62
0
70
32
10
8.134831
20
1.022472
30
0
0
SEQEND
0
POLYLINE
8
PFV
62
0
66
1
70
8
0
VERTEX
8
PFV
62
0
70
32
10
3.258427
20
1.044944
30
0
0
VERTEX
8
PFV
62
0
70
32
10
3.191011
20
1.089888
30
0
0
VERTEX
8
PFV
62
0
70
32
10
3.157303
20
1.134831
30
0
0
VERTEX
8
PFV
62
0
70
32
10
2.898876
20
1.213483
30
0
0
SEQEND
0
POLYLINE
8
PFV
62
0
66
1
70
8
0
VERTEX
8
PFV
62
0
70
32
10
4.943820
20
1.044944
30
0
0
VERTEX
8
PFV
62
0
70
32
10
4.943820
20
1.056180
30
0
0
VERTEX
8
PFV
62
0
70
32
10
4.921348
20
1.056180
30
0
0
VERTEX
8
PFV
62
0
70
32
10
4.921348
20
1.033708
30
0
0
VERTEX
8
PFV
62
0
70
32
10
4.943820
20
1.033708
30
0
0
VERTEX
8
PFV
62
0
70
32
10
4.955056
20
1.044944
30
0
0
VERTEX
8
PFV
62
0
70
32
10
5.000000
20
1.044944
30
0
0
SEQEND
0
POLYLINE
8
PFV
62
0
66
1
70
8
0
VERTEX
8
PFV
62
0
70
32
10
0.988764
20
1.067416
30
0
0
VERTEX
8
PFV
62
0
70
32
10
1.000000
20
1.067416
30
0
0
SEQEND
0
POLYLINE
8
PFV
62
0
66
1
70
8
0
VERTEX
8
PFV
62
0
70
32
10
0.988764
20
1.067416
30
0
0
VERTEX
8
PFV
62
0
70
32
10
0.977528
20
1.067416
30
0
0
VERTEX
8
PFV
62
0
70
32
10
0.977528
20
1.089888
30
0
0
SEQEND
0
POLYLINE
8
PFV
62
0
66
1
70
8
0
VERTEX
8
PFV
62
0
70
32
10
8.123596
20
1.067416
30
0
0
VERTEX
8
PFV
62
0
70
32
10
8.101124
20
1.067416
30
0
0
VERTEX
8
PFV
62
0
70
32
10
8.101124
20
1.089888
30
0
0
VERTEX
8
PFV
62
0
70
32
10
8.123596
20
1.089888
30
0
0
SEQEND
0
POLYLINE
8
PFV
62
0
66
1
70
8
0
VERTEX
8
PFV
62
0
70
32
10
5.011236
20
1.101124
30
0
0
VERTEX
8
PFV
62
0
70
32
10
5.123596
20
1.202247
30
0
0
VERTEX
8
PFV
62
0
70
32
10
5.101124
20
1.370787
30
0
0
VERTEX
8
PFV
62
0
70
32
10
5.067416
20
1.404494
30
0
0
VERTEX
8
PFV
62
0
70
32
10
5.101124
20
1.483146
30
0
0
VERTEX
8
PFV
62
0
70
32
10
5.235955
20
1.483146
30
0
0
VERTEX
8
PFV
62
0
70
32
10
5.314607
20
1.449438
30
0
0
VERTEX
8
PFV
62
0
70
32
10
5.337079
20
1.370787
30
0
0
VERTEX
8
PFV
62
0
70
32
10
5.269663
20
1.303371
30
0
0
SEQEND
0
POLYLINE
8
PFV
62
0
66
1
70
8
0
VERTEX
8
PFV
62
0
70
32
10
5.011236
20
1.101124
30
0
0
VERTEX
8
PFV
62
0
70
32
10
5.000000
20
1.101124
30
0
0
SEQEND
0
POLYLINE
8
PFV
62
0
66
1
70
8
0
VERTEX
8
PFV
62
0
70
32
10
0.977528
20
1.123596
30
0
0
VERTEX
8
PFV
62
0
70
32
10
1.033708
20
1.146067
30
0
0
VERTEX
8
PFV
62
0
70
32
10
1.101124
20
1.224719
30
0
0
VERTEX
8
PFV
62
0
70
32
10
1.134831
20
1.235955
30
0
0
VERTEX
8
PFV
62
0
70
32
10
1.157303
20
1.258427
30
0
0
SEQEND
0
POLYLINE
8
PFV
62
0
66
1
70
8
0
VERTEX
8
PFV
62
0
70
32
10
0.977528
20
1.123596
30
0
0
VERTEX
8
PFV
62
0
70
32
10
0.966292
20
1.123596
30
0
0
SEQEND
0
POLYLINE
8
PFV
62
0
66
1
70
8
0
VERTEX
8
PFV
62
0
70
32
10
1.000000
20
1.134831
30
0
0
VERTEX
8
PFV
62
0
70
32
10
1.000000
20
1.146067
30
0
0
VERTEX
8
PFV
62
0
70
32
10
0.988764
20
1.157303
30
0
0
SEQEND
0
POLYLINE
8
PFV
62
0
66
1
70
8
0
VERTEX
8
PFV
62
0
70
32
10
0.325843
20
1.168539
30
0
0
VERTEX
8
PFV
62
0
70
32
10
0.325843
20
1.235955
30
0
0
SEQEND
0
POLYLINE
8
PFV
62
0
66
1
70
8
0
VERTEX
8
PFV
62
0
70
32
10
0.325843
20
1.168539
30
0
0
VERTEX
8
PFV
62
0
70
32
10
0.337079
20
1.157303
30
0
0
SEQEND
0
POLYLINE
8
PFV
62
0
66
1
70
8
0
VERTEX
8
PFV
62
0
70
32
10
5.471910
20
1.168539
30
0
0
VERTEX
8
PFV
62
0
70
32
10
5.426966
20
1.348315
30
0
0
VERTEX
8
PFV
62
0
70
32
10
5.337079
20
1.370787
30
0
0
SEQEND
0
POLYLINE
8
PFV
62
0
66
1
70
8
0
VERTEX
8
PFV
62
0
70
32
10
8.404494
20
1.168539
30
0
0
VERTEX
8
PFV
62
0
70
32
10
8.415730
20
1.168539
30
0
0
SEQEND
0
POLYLINE
8
PFV
62
0
66
1
70
8
0
VERTEX
8
PFV
62
0
70
32
10
3.258427
20
1.191011
30
0
0
VERTEX
8
PFV
62
0
70
32
10
3.415730
20
1.337079
30
0
0
VERTEX
8
PFV
62
0
70
32
10
3.438202
20
1.337079
30
0
0
SEQEND
0
POLYLINE
8
PFV
62
0
66
1
70
8
0
VERTEX
8
PFV
62
0
70
32
10
4.191011
20
1.191011
30
0
0
VERTEX
8
PFV
62
0
70
32
10
4.213483
20
1.247191
30
0
0
VERTEX
8
PFV
62
0
70
32
10
4.235955
20
1.258427
30
0
0
VERTEX
8
PFV
62
0
70
32
10
4.235955
20
1.426966
30
0
0
VERTEX
8
PFV
62
0
70
32
10
4.213483
20
1.438202
30
0
0
VERTEX
8
PFV
62
0
70
32
10
4.224719
20
1.483146
30
0
0
VERTEX
8
PFV
62
0
70
32
10
4.258427
20
1.505618
30
0
0
VERTEX
8
PFV
62
0
70
32
10
4.337079
20
1.539326
30
0
0
VERTEX
8
PFV
62
0
70
32
10
4.393258
20
1.460674
30
0
0
VERTEX
8
PFV
62
0
70
32
10
4.415730
20
1.460674
30
0
0
VERTEX
8
PFV
62
0
70
32
10
4.516854
20
1.359551
30
0
0
SEQEND
0
POLYLINE
8
PFV
62
0
66
1
70
8
0
VERTEX
8
PFV
62
0
70
32
10
4.191011
20
1.191011
30
0
0
VERTEX
8
PFV
62
0
70
32
10
4.202247
20
1.179775
30
0
0
SEQEND
0
POLYLINE
8
PFV
62
0
66
1
70
8
0
VERTEX
8
PFV
62
0
70
32
10
0.617978
20
1.202247
30
0
0
VERTEX
8
PFV
62
0
70
32
10
0.640449
20
1.202247
30
0
0
VERTEX
8
PFV
62
0
70
32
10
0.674157
20
1.393258
30
0
0
VERTEX
8
PFV
62
0
70
32
10
0.685393
20
1.438202
30
0
0
SEQEND
0
POLYLINE
8
PFV
62
0
66
1
70
8
0
VERTEX
8
PFV
62
0
70
32
10
0.617978
20
1.202247
30
0
0
VERTEX
8
PFV
62
0
70
32
10
0.606742
20
1.213483
30
0
0
SEQEND
0
POLYLINE
8
PFV
62
0
66
1
70
8
0
VERTEX
8
PFV
62
0
70
32
10
2.910112
20
1.202247
30
0
0
VERTEX
8
PFV
62
0
70
32
10
2.831461
20
1.112360
30
0
0
SEQEND
0
POLYLINE
8
PFV
62
0
66
1
70
8
0
VERTEX
8
PFV
62
0
70
32
10
4.932584
20
1.202247
30
0
0
VERTEX
8
PFV
62
0
70
32
10
4.932584
20
1.191011
30
0
0
SEQEND
0
POLYLINE
8
PFV
62
0
66
1
70
8
0
VERTEX
8
PFV
62
0
70
32
10
4.932584
20
1.202247
30
0
0
VERTEX
8
PFV
62
0
70
32
10
5.011236
20
1.359551
30
0
0
VERTEX
8
PFV
62
0
70
32
10
5.067416
20
1.393258
30
0
0
SEQEND
0
POLYLINE
8
PFV
62
0
66
1
70
8
0
VERTEX
8
PFV
62
0
70
32
10
7.752809
20
1.202247
30
0
0
VERTEX
8
PFV
62
0
70
32
10
7.685393
20
1.157303
30
0
0
VERTEX
8
PFV
62
0
70
32
10
7.685393
20
1.134831
30
0
0
SEQEND
0
POLYLINE
8
PFV
62
0
66
1
70
8
0
VERTEX
8
PFV
62
0
70
32
10
6.157303
20
1.213483
30
0
0
VERTEX
8
PFV
62
0
70
32
10
6.146067
20
1.213483
30
0
0
SEQEND
0
POLYLINE
8
PFV
62
0
66
1
70
8
0
VERTEX
8
PFV
62
0
70
32
10
2.224719
20
1.224719
30
0
0
VERTEX
8
PFV
62
0
70
32
10
2.168539
20
1.269663
30
0
0
VERTEX
8
PFV
62
0
70
32
10
2.179775
20
1.382022
30
0
0
VERTEX
8
PFV
62
0
70
32
10
2.280899
20
1.393258
30
0
0
SEQEND
0
POLYLINE
8
PFV
62
0
66
1
70
8
0
VERTEX
8
PFV
62
0
70
32
10
2.224719
20
1.224719
30
0
0
VERTEX
8
PFV
62
0
70
32
10
2.213483
20
1.235955
30
0
0
SEQEND
0
POLYLINE
8
PFV
62
0
66
1
70
8
0
VERTEX
8
PFV
62
0
70
32
10
4.191011
20
1.224719
30
0
0
VERTEX
8
PFV
62
0
70
32
10
4.123596
20
1.292135
30
0
0
VERTEX
8
PFV
62
0
70
32
10
4.134831
20
1.382022
30
0
0
VERTEX
8
PFV
62
0
70
32
10
4.213483
20
1.438202
30
0
0
SEQEND
0
POLYLINE
8
PFV
62
0
66
1
70
8
0
VERTEX
8
PFV
62
0
70
32
10
4.191011
20
1.224719
30
0
0
VERTEX
8
PFV
62
0
70
32
10
4.179775
20
1.235955
30
0
0
SEQEND
0
POLYLINE
8
PFV
62
0
66
1
70
8
0
VERTEX
8
PFV
62
0
70
32
10
5.786517
20
1.224719
30
0
0
VERTEX
8
PFV
62
0
70
32
10
5.707865
20
1.224719
30
0
0
VERTEX
8
PFV
62
0
70
32
10
5.707865
20
1.202247
30
0
0
SEQEND
0
POLYLINE
8
PFV
62
0
66
1
70
8
0
VERTEX
8
PFV
62
0
70
32
10
0.325843
20
1.235955
30
0
0
VERTEX
8
PFV
62
0
70
32
10
0.314607
20
1.247191
30
0
0
SEQEND
0
POLYLINE
8
PFV
62
0
66
1
70
8
0
VERTEX
8
PFV
62
0
70
32
10
6.460674
20
1.235955
30
0
0
VERTEX
8
PFV
62
0
70
32
10
6.370787
20
1.325843
30
0
0
VERTEX
8
PFV
62
0
70
32
10
6.303371
20
1.337079
30
0
0
SEQEND
0
POLYLINE
8
PFV
62
0
66
1
70
8
0
VERTEX
8
PFV
62
0
70
32
10
6.460674
20
1.235955
30
0
0
VERTEX
8
PFV
62
0
70
32
10
6.449438
20
1.247191
30
0
0
SEQEND
0
POLYLINE
8
PFV
62
0
66
1
70
8
0
VERTEX
8
PFV
62
0
70
32
10
6.213483
20
1.258427
30
0
0
VERTEX
8
PFV
62
0
70
32
10
6.258427
20
1.258427
30
0
0
VERTEX
8
PFV
62
0
70
32
10
6.269663
20
1.247191
30
0
0
SEQEND
0
POLYLINE
8
PFV
62
0
66
1
70
8
0
VERTEX
8
PFV
62
0
70
32
10
6.213483
20
1.258427
30
0
0
VERTEX
8
PFV
62
0
70
32
10
6.202247
20
1.258427
30
0
0
SEQEND
0
POLYLINE
8
PFV
62
0
66
1
70
8
0
VERTEX
8
PFV
62
0
70
32
10
8.123596
20
1.280899
30
0
0
VERTEX
8
PFV
62
0
70
32
10
8.112360
20
1.382022
30
0
0
VERTEX
8
PFV
62
0
70
32
10
8.056180
20
1.426966
30
0
0
VERTEX
8
PFV
62
0
70
32
10
8.056180
20
1.528090
30
0
0
VERTEX
8
PFV
62
0
70
32
10
8.179775
20
1.528090
30
0
0
VERTEX
8
PFV
62
0
70
32
10
8.179775
20
1.404494
30
0
0
VERTEX
8
PFV
62
0
70
32
10
8.123596
20
1.370787
30
0
0
SEQEND
0
POLYLINE
8
PFV
62
0
66
1
70
8
0
VERTEX
8
PFV
62
0
70
32
10
8.123596
20
1.280899
30
0
0
VERTEX
8
PFV
62
0
70
32
10
8.134831
20
1.269663
30
0
0
SEQEND
0
POLYLINE
8
PFV
62
0
66
1
70
8
0
VERTEX
8
PFV
62
0
70
32
10
9.696629
20
1.292135
30
0
0
VERTEX
8
PFV
62
0
70
32
10
9.685393
20
1.280899
30
0
0
VERTEX
8
PFV
62
0
70
32
10
9.674157
20
1.269663
30
0
0
VERTEX
8
PFV
62
0
70
32
10
9.662921
20
1.258427
30
0
0
VERTEX
8
PFV
62
0
70
32
10
9.651685
20
1.247191
30
0
0
VERTEX
8
PFV
62
0
70
32
10
9.640449
20
1.247191
30
0
0
VERTEX
8
PFV
62
0
70
32
10
9.640449
20
1.202247
30
0
0
SEQEND
0
POLYLINE
8
PFV
62
0
66
1
70
8
0
VERTEX
8
PFV
62
0
70
32
10
5.247191
20
1.303371
30
0
0
VERTEX
8
PFV
62
0
70
32
10
5.191011
20
1.359551
30
0
0
VERTEX
8
PFV
62
0
70
32
10
5.191011
20
1.483146
30
0
0
SEQEND
0
POLYLINE
8
PFV
62
0
66
1
70
8
0
VERTEX
8
PFV
62
0
70
32
10
5.247191
20
1.303371
30
0
0
VERTEX
8
PFV
62
0
70
32
10
5.235955
20
1.314607
30
0
0
SEQEND
0
POLYLINE
8
PFV
62
0
66
1
70
8
0
VERTEX
8
PFV
62
0
70
32
10
5.269663
20
1.303371
30
0
0
VERTEX
8
PFV
62
0
70
32
10
5.269663
20
1.292135
30
0
0
SEQEND
0
POLYLINE
8
PFV
62
0
66
1
70
8
0
VERTEX
8
PFV
62
0
70
32
10
2.539326
20
1.337079
30
0
0
VERTEX
8
PFV
62
0
70
32
10
2.550562
20
1.337079
30
0
0
SEQEND
0
POLYLINE
8
PFV
62
0
66
1
70
8
0
VERTEX
8
PFV
62
0
70
32
10
6.471910
20
1.337079
30
0
0
VERTEX
8
PFV
62
0
70
32
10
6.415730
20
1.393258
30
0
0
VERTEX
8
PFV
62
0
70
32
10
6.337079
20
1.404494
30
0
0
VERTEX
8
PFV
62
0
70
32
10
6.247191
20
1.505618
30
0
0
VERTEX
8
PFV
62
0
70
32
10
6.191011
20
1.539326
30
0
0
VERTEX
8
PFV
62
0
70
32
10
6.089888
20
1.516854
30
0
0
VERTEX
8
PFV
62
0
70
32
10
6.101124
20
1.415730
30
0
0
VERTEX
8
PFV
62
0
70
32
10
6.123596
20
1.404494
30
0
0
VERTEX
8
PFV
62
0
70
32
10
6.112360
20
1.415730
30
0
0
SEQEND
0
POLYLINE
8
PFV
62
0
66
1
70
8
0
VERTEX
8
PFV
62
0
70
32
10
6.471910
20
1.337079
30
0
0
VERTEX
8
PFV
62
0
70
32
10
6.460674
20
1.348315
30
0
0
SEQEND
0
POLYLINE
8
PFV
62
0
66
1
70
8
0
VERTEX
8
PFV
62
0
70
32
10
4.516854
20
1.359551
30
0
0
VERTEX
8
PFV
62
0
70
32
10
4.528090
20
1.359551
30
0
0
SEQEND
0
POLYLINE
8
PFV
62
0
66
1
70
8
0
VERTEX
8
PFV
62
0
70
32
10
8.123596
20
1.370787
30
0
0
VERTEX
8
PFV
62
0
70
32
10
8.112360
20
1.370787
30
0
0
SEQEND
0
POLYLINE
8
PFV
62
0
66
1
70
8
0
VERTEX
8
PFV
62
0
70
32
10
8.449438
20
1.370787
30
0
0
VERTEX
8
PFV
62
0
70
32
10
8.460674
20
1.370787
30
0
0
SEQEND
0
POLYLINE
8
PFV
62
0
66
1
70
8
0
VERTEX
8
PFV
62
0
70
32
10
8.449438
20
1.370787
30
0
0
VERTEX
8
PFV
62
0
70
32
10
8.269663
20
1.539326
30
0
0
VERTEX
8
PFV
62
0
70
32
10
8.191011
20
1.516854
30
0
0
SEQEND
0
POLYLINE
8
PFV
62
0
66
1
70
8
0
VERTEX
8
PFV
62
0
70
32
10
8.449438
20
1.370787
30
0
0
VERTEX
8
PFV
62
0
70
32
10
8.438202
20
1.382022
30
0
0
SEQEND
0
POLYLINE
8
PFV
62
0
66
1
70
8
0
VERTEX
8
PFV
62
0
70
32
10
3.258427
20
1.382022
30
0
0
VERTEX
8
PFV
62
0
70
32
10
3.393258
20
1.505618
30
0
0
SEQEND
0
POLYLINE
8
PFV
62
0
66
1
70
8
0
VERTEX
8
PFV
62
0
70
32
10
3.764045
20
1.382022
30
0
0
VERTEX
8
PFV
62
0
70
32
10
3.752809
20
1.426966
30
0
0
VERTEX
8
PFV
62
0
70
32
10
3.685393
20
1.382022
30
0
0
VERTEX
8
PFV
62
0
70
32
10
3.685393
20
1.359551
30
0
0
SEQEND
0
POLYLINE
8
PFV
62
0
66
1
70
8
0
VERTEX
8
PFV
62
0
70
32
10
3.764045
20
1.382022
30
0
0
VERTEX
8
PFV
62
0
70
32
10
3.775281
20
1.370787
30
0
0
SEQEND
0
POLYLINE
8
PFV
62
0
66
1
70
8
0
VERTEX
8
PFV
62
0
70
32
10
2.191011
20
1.393258
30
0
0
VERTEX
8
PFV
62
0
70
32
10
2.157303
20
1.438202
30
0
0
VERTEX
8
PFV
62
0
70
32
10
2.168539
20
1.528090
30
0
0
VERTEX
8
PFV
62
0
70
32
10
2.292135
20
1.528090
30
0
0
VERTEX
8
PFV
62
0
70
32
10
2.292135
20
1.404494
30
0
0
SEQEND
0
POLYLINE
8
PFV
62
0
66
1
70
8
0
VERTEX
8
PFV
62
0
70
32
10
2.191011
20
1.393258
30
0
0
VERTEX
8
PFV
62
0
70
32
10
2.179775
20
1.404494
30
0
0
SEQEND
0
POLYLINE
8
PFV
62
0
66
1
70
8
0
VERTEX
8
PFV
62
0
70
32
10
4.247191
20
1.393258
30
0
0
VERTEX
8
PFV
62
0
70
32
10
4.269663
20
1.393258
30
0
0
VERTEX
8
PFV
62
0
70
32
10
4.325843
20
1.314607
30
0
0
SEQEND
0
POLYLINE
8
PFV
62
0
66
1
70
8
0
VERTEX
8
PFV
62
0
70
32
10
6.213483
20
1.393258
30
0
0
VERTEX
8
PFV
62
0
70
32
10
6.213483
20
1.415730
30
0
0
VERTEX
8
PFV
62
0
70
32
10
6.224719
20
1.426966
30
0
0
VERTEX
8
PFV
62
0
70
32
10
6.224719
20
1.505618
30
0
0
SEQEND
0
POLYLINE
8
PFV
62
0
66
1
70
8
0
VERTEX
8
PFV
62
0
70
32
10
2.292135
20
1.404494
30
0
0
VERTEX
8
PFV
62
0
70
32
10
2.303371
20
1.393258
30
0
0
SEQEND
0
POLYLINE
8
PFV
62
0
66
1
70
8
0
VERTEX
8
PFV
62
0
70
32
10
3.741573
20
1.426966
30
0
0
VERTEX
8
PFV
62
0
70
32
10
3.696629
20
1.516854
30
0
0
VERTEX
8
PFV
62
0
70
32
10
3.629213
20
1.550562
30
0
0
VERTEX
8
PFV
62
0
70
32
10
3.606742
20
1.505618
30
0
0
VERTEX
8
PFV
62
0
70
32
10
3.595506
20
1.528090
30
0
0
VERTEX
8
PFV
62
0
70
32
10
3.617978
20
1.528090
30
0
0
SEQEND
0
POLYLINE
8
PFV
62
0
66
1
70
8
0
VERTEX
8
PFV
62
0
70
32
10
3.741573
20
1.426966
30
0
0
VERTEX
8
PFV
62
0
70
32
10
3.752809
20
1.415730
30
0
0
SEQEND
0
POLYLINE
8
PFV
62
0
66
1
70
8
0
VERTEX
8
PFV
62
0
70
32
10
0.685393
20
1.438202
30
0
0
VERTEX
8
PFV
62
0
70
32
10
0.685393
20
1.449438
30
0
0
SEQEND
0
POLYLINE
8
PFV
62
0
66
1
70
8
0
VERTEX
8
PFV
62
0
70
32
10
4.213483
20
1.438202
30
0
0
VERTEX
8
PFV
62
0
70
32
10
4.224719
20
1.438202
30
0
0
SEQEND
0
POLYLINE
8
PFV
62
0
66
1
70
8
0
VERTEX
8
PFV
62
0
70
32
10
0.348315
20
1.449438
30
0
0
VERTEX
8
PFV
62
0
70
32
10
0.359551
20
1.449438
30
0
0
SEQEND
0
POLYLINE
8
PFV
62
0
66
1
70
8
0
VERTEX
8
PFV
62
0
70
32
10
2.595506
20
1.460674
30
0
0
VERTEX
8
PFV
62
0
70
32
10
2.617978
20
1.460674
30
0
0
VERTEX
8
PFV
62
0
70
32
10
2.640449
20
1.561798
30
0
0
VERTEX
8
PFV
62
0
70
32
10
2.539326
20
1.662921
30
0
0
VERTEX
8
PFV
62
0
70
32
10
2.561798
20
1.707865
30
0
0
VERTEX
8
PFV
62
0
70
32
10
2.573034
20
1.730337
30
0
0
VERTEX
8
PFV
62
0
70
32
10
2.617978
20
1.730337
30
0
0
VERTEX
8
PFV
62
0
70
32
10
2.719101
20
1.640449
30
0
0
VERTEX
8
PFV
62
0
70
32
10
2.674157
20
1.561798
30
0
0
VERTEX
8
PFV
62
0
70
32
10
2.640449
20
1.561798
30
0
0
SEQEND
0
POLYLINE
8
PFV
62
0
66
1
70
8
0
VERTEX
8
PFV
62
0
70
32
10
2.595506
20
1.460674
30
0
0
VERTEX
8
PFV
62
0
70
32
10
2.584270
20
1.471910
30
0
0
SEQEND
0
POLYLINE
8
PFV
62
0
66
1
70
8
0
VERTEX
8
PFV
62
0
70
32
10
8.483146
20
1.460674
30
0
0
VERTEX
8
PFV
62
0
70
32
10
8.494382
20
1.460674
30
0
0
SEQEND
0
POLYLINE
8
PFV
62
0
66
1
70
8
0
VERTEX
8
PFV
62
0
70
32
10
8.483146
20
1.460674
30
0
0
VERTEX
8
PFV
62
0
70
32
10
8.348315
20
1.573034
30
0
0
VERTEX
8
PFV
62
0
70
32
10
8.348315
20
1.617978
30
0
0
VERTEX
8
PFV
62
0
70
32
10
8.370787
20
1.617978
30
0
0
VERTEX
8
PFV
62
0
70
32
10
8.370787
20
1.640449
30
0
0
VERTEX
8
PFV
62
0
70
32
10
8.393258
20
1.640449
30
0
0
SEQEND
0
POLYLINE
8
PFV
62
0
66
1
70
8
0
VERTEX
8
PFV
62
0
70
32
10
8.483146
20
1.460674
30
0
0
VERTEX
8
PFV
62
0
70
32
10
8.471910
20
1.471910
30
0
0
SEQEND
0
POLYLINE
8
PFV
62
0
66
1
70
8
0
VERTEX
8
PFV
62
0
70
32
10
8.191011
20
1.483146
30
0
0
VERTEX
8
PFV
62
0
70
32
10
8.202247
20
1.483146
30
0
0
VERTEX
8
PFV
62
0
70
32
10
8.247191
20
1.426966
30
0
0
VERTEX
8
PFV
62
0
70
32
10
8.280899
20
1.426966
30
0
0
VERTEX
8
PFV
62
0
70
32
10
8.292135
20
1.415730
30
0
0
SEQEND
0
POLYLINE
8
PFV
62
0
66
1
70
8
0
VERTEX
8
PFV
62
0
70
32
10
8.191011
20
1.483146
30
0
0
VERTEX
8
PFV
62
0
70
32
10
8.202247
20
1.471910
30
0
0
SEQEND
0
POLYLINE
8
PFV
62
0
66
1
70
8
0
VERTEX
8
PFV
62
0
70
32
10
9.606742
20
1.483146
30
0
0
VERTEX
8
PFV
62
0
70
32
10
9.516854
20
1.404494
30
0
0
SEQEND
0
POLYLINE
8
PFV
62
0
66
1
70
8
0
VERTEX
8
PFV
62
0
70
32
10
4.573034
20
1.494382
30
0
0
VERTEX
8
PFV
62
0
70
32
10
4.584270
20
1.494382
30
0
0
SEQEND
0
POLYLINE
8
PFV
62
0
66
1
70
8
0
VERTEX
8
PFV
62
0
70
32
10
4.573034
20
1.494382
30
0
0
VERTEX
8
PFV
62
0
70
32
10
4.438202
20
1.617978
30
0
0
VERTEX
8
PFV
62
0
70
32
10
4.438202
20
1.640449
30
0
0
VERTEX
8
PFV
62
0
70
32
10
4.460674
20
1.640449
30
0
0
SEQEND
0
POLYLINE
8
PFV
62
0
66
1
70
8
0
VERTEX
8
PFV
62
0
70
32
10
4.573034
20
1.494382
30
0
0
VERTEX
8
PFV
62
0
70
32
10
4.561798
20
1.505618
30
0
0
SEQEND
0
POLYLINE
8
PFV
62
0
66
1
70
8
0
VERTEX
8
PFV
62
0
70
32
10
5.662921
20
1.494382
30
0
0
VERTEX
8
PFV
62
0
70
32
10
5.595506
20
1.595506
30
0
0
VERTEX
8
PFV
62
0
70
32
10
5.528090
20
1.662921
30
0
0
VERTEX
8
PFV
62
0
70
32
10
5.314607
20
1.775281
30
0
0
VERTEX
8
PFV
62
0
70
32
10
5.033708
20
1.797753
30
0
0
VERTEX
8
PFV
62
0
70
32
10
4.853933
20
1.752809
30
0
0
VERTEX
8
PFV
62
0
70
32
10
4.764045
20
1.719101
30
0
0
VERTEX
8
PFV
62
0
70
32
10
4.685393
20
1.797753
30
0
0
VERTEX
8
PFV
62
0
70
32
10
4.640449
20
1.797753
30
0
0
VERTEX
8
PFV
62
0
70
32
10
4.629213
20
1.764045
30
0
0
VERTEX
8
PFV
62
0
70
32
10
4.550562
20
1.730337
30
0
0
VERTEX
8
PFV
62
0
70
32
10
4.550562
20
1.696629
30
0
0
VERTEX
8
PFV
62
0
70
32
10
4.584270
20
1.696629
30
0
0
VERTEX
8
PFV
62
0
70
32
10
4.662921
20
1.617978
30
0
0
VERTEX
8
PFV
62
0
70
32
10
4.696629
20
1.640449
30
0
0
VERTEX
8
PFV
62
0
70
32
10
4.685393
20
1.685393
30
0
0
VERTEX
8
PFV
62
0
70
32
10
4.629213
20
1.730337
30
0
0
VERTEX
8
PFV
62
0
70
32
10
4.629213
20
1.752809
30
0
0
VERTEX
8
PFV
62
0
70
32
10
4.606742
20
1.730337
30
0
0
VERTEX
8
PFV
62
0
70
32
10
4.595506
20
1.752809
30
0
0
SEQEND
0
POLYLINE
8
PFV
62
0
66
1
70
8
0
VERTEX
8
PFV
62
0
70
32
10
6.539326
20
1.494382
30
0
0
VERTEX
8
PFV
62
0
70
32
10
6.528090
20
1.505618
30
0
0
SEQEND
0
POLYLINE
8
PFV
62
0
66
1
70
8
0
VERTEX
8
PFV
62
0
70
32
10
2.617978
20
1.505618
30
0
0
VERTEX
8
PFV
62
0
70
32
10
2.629213
20
1.505618
30
0
0
SEQEND
0
POLYLINE
8
PFV
62
0
66
1
70
8
0
VERTEX
8
PFV
62
0
70
32
10
2.617978
20
1.505618
30
0
0
VERTEX
8
PFV
62
0
70
32
10
2.483146
20
1.617978
30
0
0
VERTEX
8
PFV
62
0
70
32
10
2.505618
20
1.651685
30
0
0
VERTEX
8
PFV
62
0
70
32
10
2.539326
20
1.662921
30
0
0
SEQEND
0
POLYLINE
8
PFV
62
0
66
1
70
8
0
VERTEX
8
PFV
62
0
70
32
10
2.617978
20
1.505618
30
0
0
VERTEX
8
PFV
62
0
70
32
10
2.606742
20
1.516854
30
0
0
SEQEND
0
POLYLINE
8
PFV
62
0
66
1
70
8
0
VERTEX
8
PFV
62
0
70
32
10
6.224719
20
1.505618
30
0
0
VERTEX
8
PFV
62
0
70
32
10
6.224719
20
1.516854
30
0
0
SEQEND
0
POLYLINE
8
PFV
62
0
66
1
70
8
0
VERTEX
8
PFV
62
0
70
32
10
6.247191
20
1.505618
30
0
0
VERTEX
8
PFV
62
0
70
32
10
6.247191
20
1.494382
30
0
0
SEQEND
0
POLYLINE
8
PFV
62
0
66
1
70
8
0
VERTEX
8
PFV
62
0
70
32
10
6.247191
20
1.505618
30
0
0
VERTEX
8
PFV
62
0
70
32
10
6.393258
20
1.595506
30
0
0
VERTEX
8
PFV
62
0
70
32
10
6.393258
20
1.617978
30
0
0
VERTEX
8
PFV
62
0
70
32
10
6.415730
20
1.617978
30
0
0
SEQEND
0
POLYLINE
8
PFV
62
0
66
1
70
8
0
VERTEX
8
PFV
62
0
70
32
10
2.303371
20
1.516854
30
0
0
VERTEX
8
PFV
62
0
70
32
10
2.348315
20
1.516854
30
0
0
SEQEND
0
POLYLINE
8
PFV
62
0
66
1
70
8
0
VERTEX
8
PFV
62
0
70
32
10
2.348315
20
1.516854
30
0
0
VERTEX
8
PFV
62
0
70
32
10
2.359551
20
1.505618
30
0
0
SEQEND
0
POLYLINE
8
PFV
62
0
66
1
70
8
0
VERTEX
8
PFV
62
0
70
32
10
4.584270
20
1.516854
30
0
0
VERTEX
8
PFV
62
0
70
32
10
4.573034
20
1.528090
30
0
0
SEQEND
0
POLYLINE
8
PFV
62
0
66
1
70
8
0
VERTEX
8
PFV
62
0
70
32
10
3.157303
20
1.528090
30
0
0
VERTEX
8
PFV
62
0
70
32
10
3.157303
20
1.550562
30
0
0
VERTEX
8
PFV
62
0
70
32
10
3.134831
20
1.550562
30
0
0
SEQEND
0
POLYLINE
8
PFV
62
0
66
1
70
8
0
VERTEX
8
PFV
62
0
70
32
10
8.516854
20
1.528090
30
0
0
VERTEX
8
PFV
62
0
70
32
10
8.505618
20
1.528090
30
0
0
SEQEND
0
POLYLINE
8
PFV
62
0
66
1
70
8
0
VERTEX
8
PFV
62
0
70
32
10
0.752809
20
1.539326
30
0
0
VERTEX
8
PFV
62
0
70
32
10
0.786517
20
1.573034
30
0
0
VERTEX
8
PFV
62
0
70
32
10
0.797753
20
1.640449
30
0
0
SEQEND
0
POLYLINE
8
PFV
62
0
66
1
70
8
0
VERTEX
8
PFV
62
0
70
32
10
0.752809
20
1.539326
30
0
0
VERTEX
8
PFV
62
0
70
32
10
0.741573
20
1.539326
30
0
0
SEQEND
0
POLYLINE
8
PFV
62
0
66
1
70
8
0
VERTEX
8
PFV
62
0
70
32
10
4.337079
20
1.539326
30
0
0
VERTEX
8
PFV
62
0
70
32
10
4.337079
20
1.528090
30
0
0
SEQEND
0
POLYLINE
8
PFV
62
0
66
1
70
8
0
VERTEX
8
PFV
62
0
70
32
10
4.337079
20
1.539326
30
0
0
VERTEX
8
PFV
62
0
70
32
10
4.415730
20
1.606742
30
0
0
VERTEX
8
PFV
62
0
70
32
10
4.438202
20
1.617978
30
0
0
SEQEND
0
POLYLINE
8
PFV
62
0
66
1
70
8
0
VERTEX
8
PFV
62
0
70
32
10
8.280899
20
1.539326
30
0
0
VERTEX
8
PFV
62
0
70
32
10
8.280899
20
1.550562
30
0
0
VERTEX
8
PFV
62
0
70
32
10
8.292135
20
1.561798
30
0
0
VERTEX
8
PFV
62
0
70
32
10
8.314607
20
1.561798
30
0
0
VERTEX
8
PFV
62
0
70
32
10
8.314607
20
1.573034
30
0
0
VERTEX
8
PFV
62
0
70
32
10
8.325843
20
1.584270
30
0
0
VERTEX
8
PFV
62
0
70
32
10
8.348315
20
1.584270
30
0
0
SEQEND
0
POLYLINE
8
PFV
62
0
66
1
70
8
0
VERTEX
8
PFV
62
0
70
32
10
3.134831
20
1.550562
30
0
0
VERTEX
8
PFV
62
0
70
32
10
3.123596
20
1.550562
30
0
0
SEQEND
0
POLYLINE
8
PFV
62
0
66
1
70
8
0
VERTEX
8
PFV
62
0
70
32
10
3.629213
20
1.550562
30
0
0
VERTEX
8
PFV
62
0
70
32
10
3.606742
20
1.584270
30
0
0
VERTEX
8
PFV
62
0
70
32
10
3.550562
20
1.550562
30
0
0
VERTEX
8
PFV
62
0
70
32
10
3.573034
20
1.539326
30
0
0
VERTEX
8
PFV
62
0
70
32
10
3.573034
20
1.561798
30
0
0
SEQEND
0
POLYLINE
8
PFV
62
0
66
1
70
8
0
VERTEX
8
PFV
62
0
70
32
10
8.539326
20
1.550562
30
0
0
VERTEX
8
PFV
62
0
70
32
10
8.573034
20
1.550562
30
0
0
VERTEX
8
PFV
62
0
70
32
10
8.674157
20
1.438202
30
0
0
SEQEND
0
POLYLINE
8
PFV
62
0
66
1
70
8
0
VERTEX
8
PFV
62
0
70
32
10
8.539326
20
1.550562
30
0
0
VERTEX
8
PFV
62
0
70
32
10
8.528090
20
1.561798
30
0
0
SEQEND
0
POLYLINE
8
PFV
62
0
66
1
70
8
0
VERTEX
8
PFV
62
0
70
32
10
8.561798
20
1.550562
30
0
0
VERTEX
8
PFV
62
0
70
32
10
8.550562
20
1.617978
30
0
0
VERTEX
8
PFV
62
0
70
32
10
8.460674
20
1.696629
30
0
0
VERTEX
8
PFV
62
0
70
32
10
8.505618
20
1.764045
30
0
0
VERTEX
8
PFV
62
0
70
32
10
8.539326
20
1.764045
30
0
0
SEQEND
0
POLYLINE
8
PFV
62
0
66
1
70
8
0
VERTEX
8
PFV
62
0
70
32
10
8.561798
20
1.550562
30
0
0
VERTEX
8
PFV
62
0
70
32
10
8.573034
20
1.539326
30
0
0
SEQEND
0
POLYLINE
8
PFV
62
0
66
1
70
8
0
VERTEX
8
PFV
62
0
70
32
10
2.640449
20
1.561798
30
0
0
VERTEX
8
PFV
62
0
70
32
10
2.629213
20
1.561798
30
0
0
SEQEND
0
POLYLINE
8
PFV
62
0
66
1
70
8
0
VERTEX
8
PFV
62
0
70
32
10
4.606742
20
1.561798
30
0
0
VERTEX
8
PFV
62
0
70
32
10
4.629213
20
1.561798
30
0
0
VERTEX
8
PFV
62
0
70
32
10
4.640449
20
1.573034
30
0
0
VERTEX
8
PFV
62
0
70
32
10
4.651685
20
1.573034
30
0
0
VERTEX
8
PFV
62
0
70
32
10
4.651685
20
1.617978
30
0
0
SEQEND
0
POLYLINE
8
PFV
62
0
66
1
70
8
0
VERTEX
8
PFV
62
0
70
32
10
4.606742
20
1.561798
30
0
0
VERTEX
8
PFV
62
0
70
32
10
4.595506
20
1.561798
30
0
0
SEQEND
0
POLYLINE
8
PFV
62
0
66
1
70
8
0
VERTEX
8
PFV
62
0
70
32
10
9.449438
20
1.561798
30
0
0
VERTEX
8
PFV
62
0
70
32
10
9.449438
20
1.584270
30
0
0
VERTEX
8
PFV
62
0
70
32
10
9.460674
20
1.595506
30
0
0
VERTEX
8
PFV
62
0
70
32
10
9.471910
20
1.606742
30
0
0
VERTEX
8
PFV
62
0
70
32
10
9.483146
20
1.617978
30
0
0
SEQEND
0
POLYLINE
8
PFV
62
0
66
1
70
8
0
VERTEX
8
PFV
62
0
70
32
10
9.449438
20
1.561798
30
0
0
VERTEX
8
PFV
62
0
70
32
10
9.449438
20
1.550562
30
0
0
VERTEX
8
PFV
62
0
70
32
10
9.438202
20
1.539326
30
0
0
VERTEX
8
PFV
62
0
70
32
10
9.426966
20
1.539326
30
0
0
VERTEX
8
PFV
62
0
70
32
10
9.426966
20
1.561798
30
0
0
VERTEX
8
PFV
62
0
70
32
10
9.449438
20
1.561798
30
0
0
SEQEND
0
POLYLINE
8
PFV
62
0
66
1
70
8
0
VERTEX
8
PFV
62
0
70
32
10
0.550562
20
1.573034
30
0
0
VERTEX
8
PFV
62
0
70
32
10
0.595506
20
1.662921
30
0
0
VERTEX
8
PFV
62
0
70
32
10
0.617978
20
1.662921
30
0
0
SEQEND
0
POLYLINE
8
PFV
62
0
66
1
70
8
0
VERTEX
8
PFV
62
0
70
32
10
4.629213
20
1.573034
30
0
0
VERTEX
8
PFV
62
0
70
32
10
4.528090
20
1.674157
30
0
0
VERTEX
8
PFV
62
0
70
32
10
4.483146
20
1.685393
30
0
0
VERTEX
8
PFV
62
0
70
32
10
4.483146
20
1.662921
30
0
0
SEQEND
0
POLYLINE
8
PFV
62
0
66
1
70
8
0
VERTEX
8
PFV
62
0
70
32
10
4.629213
20
1.573034
30
0
0
VERTEX
8
PFV
62
0
70
32
10
4.617978
20
1.584270
30
0
0
SEQEND
0
POLYLINE
8
PFV
62
0
66
1
70
8
0
VERTEX
8
PFV
62
0
70
32
10
2.460674
20
1.584270
30
0
0
VERTEX
8
PFV
62
0
70
32
10
2.460674
20
1.617978
30
0
0
VERTEX
8
PFV
62
0
70
32
10
2.483146
20
1.617978
30
0
0
SEQEND
0
POLYLINE
8
PFV
62
0
66
1
70
8
0
VERTEX
8
PFV
62
0
70
32
10
3.606742
20
1.584270
30
0
0
VERTEX
8
PFV
62
0
70
32
10
3.584270
20
1.640449
30
0
0
VERTEX
8
PFV
62
0
70
32
10
3.426966
20
1.741573
30
0
0
VERTEX
8
PFV
62
0
70
32
10
3.325843
20
1.764045
30
0
0
VERTEX
8
PFV
62
0
70
32
10
3.269663
20
1.696629
30
0
0
VERTEX
8
PFV
62
0
70
32
10
3.213483
20
1.707865
30
0
0
VERTEX
8
PFV
62
0
70
32
10
3.191011
20
1.730337
30
0
0
VERTEX
8
PFV
62
0
70
32
10
3.191011
20
1.797753
30
0
0
VERTEX
8
PFV
62
0
70
32
10
3.258427
20
1.797753
30
0
0
VERTEX
8
PFV
62
0
70
32
10
3.325843
20
1.775281
30
0
0
VERTEX
8
PFV
62
0
70
32
10
3.325843
20
1.764045
30
0
0
SEQEND
0
POLYLINE
8
PFV
62
0
66
1
70
8
0
VERTEX
8
PFV
62
0
70
32
10
8.348315
20
1.584270
30
0
0
VERTEX
8
PFV
62
0
70
32
10
8.359551
20
1.573034
30
0
0
SEQEND
0
POLYLINE
8
PFV
62
0
66
1
70
8
0
VERTEX
8
PFV
62
0
70
32
10
6.606742
20
1.595506
30
0
0
VERTEX
8
PFV
62
0
70
32
10
6.629213
20
1.595506
30
0
0
VERTEX
8
PFV
62
0
70
32
10
6.730337
20
1.494382
30
0
0
VERTEX
8
PFV
62
0
70
32
10
6.730337
20
1.471910
30
0
0
SEQEND
0
POLYLINE
8
PFV
62
0
66
1
70
8
0
VERTEX
8
PFV
62
0
70
32
10
6.606742
20
1.595506
30
0
0
VERTEX
8
PFV
62
0
70
32
10
6.595506
20
1.606742
30
0
0
SEQEND
0
POLYLINE
8
PFV
62
0
66
1
70
8
0
VERTEX
8
PFV
62
0
70
32
10
6.629213
20
1.595506
30
0
0
VERTEX
8
PFV
62
0
70
32
10
6.629213
20
1.584270
30
0
0
SEQEND
0
POLYLINE
8
PFV
62
0
66
1
70
8
0
VERTEX
8
PFV
62
0
70
32
10
6.629213
20
1.595506
30
0
0
VERTEX
8
PFV
62
0
70
32
10
6.640449
20
1.606742
30
0
0
VERTEX
8
PFV
62
0
70
32
10
6.640449
20
1.629213
30
0
0
SEQEND
0
POLYLINE
8
PFV
62
0
66
1
70
8
0
VERTEX
8
PFV
62
0
70
32
10
8.561798
20
1.595506
30
0
0
VERTEX
8
PFV
62
0
70
32
10
8.617978
20
1.617978
30
0
0
VERTEX
8
PFV
62
0
70
32
10
8.651685
20
1.707865
30
0
0
SEQEND
0
POLYLINE
8
PFV
62
0
66
1
70
8
0
VERTEX
8
PFV
62
0
70
32
10
8.561798
20
1.595506
30
0
0
VERTEX
8
PFV
62
0
70
32
10
8.550562
20
1.606742
30
0
0
SEQEND
0
POLYLINE
8
PFV
62
0
66
1
70
8
0
VERTEX
8
PFV
62
0
70
32
10
5.573034
20
1.606742
30
0
0
VERTEX
8
PFV
62
0
70
32
10
5.584270
20
1.606742
30
0
0
SEQEND
0
POLYLINE
8
PFV
62
0
66
1
70
8
0
VERTEX
8
PFV
62
0
70
32
10
5.573034
20
1.606742
30
0
0
VERTEX
8
PFV
62
0
70
32
10
5.561798
20
1.595506
30
0
0
VERTEX
8
PFV
62
0
70
32
10
5.550562
20
1.584270
30
0
0
VERTEX
8
PFV
62
0
70
32
10
5.539326
20
1.573034
30
0
0
VERTEX
8
PFV
62
0
70
32
10
5.528090
20
1.561798
30
0
0
VERTEX
8
PFV
62
0
70
32
10
5.516854
20
1.550562
30
0
0
VERTEX
8
PFV
62
0
70
32
10
5.505618
20
1.539326
30
0
0
SEQEND
0
POLYLINE
8
PFV
62
0
66
1
70
8
0
VERTEX
8
PFV
62
0
70
32
10
5.573034
20
1.606742
30
0
0
VERTEX
8
PFV
62
0
70
32
10
5.561798
20
1.617978
30
0
0
SEQEND
0
POLYLINE
8
PFV
62
0
66
1
70
8
0
VERTEX
8
PFV
62
0
70
32
10
2.483146
20
1.617978
30
0
0
VERTEX
8
PFV
62
0
70
32
10
2.494382
20
1.617978
30
0
0
SEQEND
0
POLYLINE
8
PFV
62
0
66
1
70
8
0
VERTEX
8
PFV
62
0
70
32
10
4.438202
20
1.617978
30
0
0
VERTEX
8
PFV
62
0
70
32
10
4.449438
20
1.617978
30
0
0
SEQEND
0
POLYLINE
8
PFV
62
0
66
1
70
8
0
VERTEX
8
PFV
62
0
70
32
10
6.415730
20
1.617978
30
0
0
VERTEX
8
PFV
62
0
70
32
10
6.426966
20
1.617978
30
0
0
SEQEND
0
POLYLINE
8
PFV
62
0
66
1
70
8
0
VERTEX
8
PFV
62
0
70
32
10
6.640449
20
1.629213
30
0
0
VERTEX
8
PFV
62
0
70
32
10
6.629213
20
1.640449
30
0
0
SEQEND
0
POLYLINE
8
PFV
62
0
66
1
70
8
0
VERTEX
8
PFV
62
0
70
32
10
0.797753
20
1.640449
30
0
0
VERTEX
8
PFV
62
0
70
32
10
0.797753
20
1.651685
30
0
0
SEQEND
0
POLYLINE
8
PFV
62
0
66
1
70
8
0
VERTEX
8
PFV
62
0
70
32
10
4.460674
20
1.640449
30
0
0
VERTEX
8
PFV
62
0
70
32
10
4.471910
20
1.640449
30
0
0
SEQEND
0
POLYLINE
8
PFV
62
0
66
1
70
8
0
VERTEX
8
PFV
62
0
70
32
10
8.393258
20
1.640449
30
0
0
VERTEX
8
PFV
62
0
70
32
10
8.404494
20
1.640449
30
0
0
SEQEND
0
POLYLINE
8
PFV
62
0
66
1
70
8
0
VERTEX
8
PFV
62
0
70
32
10
1.044944
20
1.651685
30
0
0
VERTEX
8
PFV
62
0
70
32
10
1.033708
20
1.696629
30
0
0
VERTEX
8
PFV
62
0
70
32
10
1.000000
20
1.719101
30
0
0
SEQEND
0
POLYLINE
8
PFV
62
0
66
1
70
8
0
VERTEX
8
PFV
62
0
70
32
10
1.044944
20
1.651685
30
0
0
VERTEX
8
PFV
62
0
70
32
10
1.067416
20
1.651685
30
0
0
VERTEX
8
PFV
62
0
70
32
10
1.067416
20
1.629213
30
0
0
VERTEX
8
PFV
62
0
70
32
10
1.044944
20
1.629213
30
0
0
VERTEX
8
PFV
62
0
70
32
10
1.044944
20
1.651685
30
0
0
SEQEND
0
POLYLINE
8
PFV
62
0
66
1
70
8
0
VERTEX
8
PFV
62
0
70
32
10
0.617978
20
1.662921
30
0
0
VERTEX
8
PFV
62
0
70
32
10
0.629213
20
1.662921
30
0
0
SEQEND
0
POLYLINE
8
PFV
62
0
66
1
70
8
0
VERTEX
8
PFV
62
0
70
32
10
4.483146
20
1.662921
30
0
0
VERTEX
8
PFV
62
0
70
32
10
4.494382
20
1.651685
30
0
0
SEQEND
0
POLYLINE
8
PFV
62
0
66
1
70
8
0
VERTEX
8
PFV
62
0
70
32
10
4.696629
20
1.662921
30
0
0
VERTEX
8
PFV
62
0
70
32
10
4.719101
20
1.662921
30
0
0
VERTEX
8
PFV
62
0
70
32
10
4.730337
20
1.674157
30
0
0
VERTEX
8
PFV
62
0
70
32
10
4.741573
20
1.674157
30
0
0
VERTEX
8
PFV
62
0
70
32
10
4.752809
20
1.685393
30
0
0
VERTEX
8
PFV
62
0
70
32
10
4.764045
20
1.696629
30
0
0
VERTEX
8
PFV
62
0
70
32
10
4.764045
20
1.719101
30
0
0
SEQEND
0
POLYLINE
8
PFV
62
0
66
1
70
8
0
VERTEX
8
PFV
62
0
70
32
10
4.696629
20
1.662921
30
0
0
VERTEX
8
PFV
62
0
70
32
10
4.685393
20
1.674157
30
0
0
SEQEND
0
POLYLINE
8
PFV
62
0
66
1
70
8
0
VERTEX
8
PFV
62
0
70
32
10
8.415730
20
1.662921
30
0
0
VERTEX
8
PFV
62
0
70
32
10
8.415730
20
1.685393
30
0
0
VERTEX
8
PFV
62
0
70
32
10
8.449438
20
1.685393
30
0
0
SEQEND
0
POLYLINE
8
PFV
62
0
66
1
70
8
0
VERTEX
8
PFV
62
0
70
32
10
8.415730
20
1.662921
30
0
0
VERTEX
8
PFV
62
0
70
32
10
8.426966
20
1.651685
30
0
0
SEQEND
0
POLYLINE
8
PFV
62
0
66
1
70
8
0
VERTEX
8
PFV
62
0
70
32
10
6.674157
20
1.674157
30
0
0
VERTEX
8
PFV
62
0
70
32
10
6.707865
20
1.674157
30
0
0
VERTEX
8
PFV
62
0
70
32
10
6.707865
20
1.685393
30
0
0
VERTEX
8
PFV
62
0
70
32
10
6.719101
20
1.696629
30
0
0
VERTEX
8
PFV
62
0
70
32
10
6.719101
20
1.719101
30
0
0
SEQEND
0
POLYLINE
8
PFV
62
0
66
1
70
8
0
VERTEX
8
PFV
62
0
70
32
10
4.516854
20
1.685393
30
0
0
VERTEX
8
PFV
62
0
70
32
10
4.516854
20
1.707865
30
0
0
VERTEX
8
PFV
62
0
70
32
10
4.550562
20
1.707865
30
0
0
SEQEND
0
POLYLINE
8
PFV
62
0
66
1
70
8
0
VERTEX
8
PFV
62
0
70
32
10
4.573034
20
1.696629
30
0
0
VERTEX
8
PFV
62
0
70
32
10
4.573034
20
1.719101
30
0
0
VERTEX
8
PFV
62
0
70
32
10
4.550562
20
1.719101
30
0
0
SEQEND
0
POLYLINE
8
PFV
62
0
66
1
70
8
0
VERTEX
8
PFV
62
0
70
32
10
4.573034
20
1.696629
30
0
0
VERTEX
8
PFV
62
0
70
32
10
4.584270
20
1.685393
30
0
0
SEQEND
0
POLYLINE
8
PFV
62
0
66
1
70
8
0
VERTEX
8
PFV
62
0
70
32
10
6.494382
20
1.707865
30
0
0
VERTEX
8
PFV
62
0
70
32
10
6.494382
20
1.719101
30
0
0
VERTEX
8
PFV
62
0
70
32
10
6.505618
20
1.730337
30
0
0
VERTEX
8
PFV
62
0
70
32
10
6.516854
20
1.741573
30
0
0
VERTEX
8
PFV
62
0
70
32
10
6.539326
20
1.741573
30
0
0
SEQEND
0
POLYLINE
8
PFV
62
0
66
1
70
8
0
VERTEX
8
PFV
62
0
70
32
10
6.494382
20
1.707865
30
0
0
VERTEX
8
PFV
62
0
70
32
10
6.494382
20
1.696629
30
0
0
SEQEND
0
POLYLINE
8
PFV
62
0
66
1
70
8
0
VERTEX
8
PFV
62
0
70
32
10
8.651685
20
1.707865
30
0
0
VERTEX
8
PFV
62
0
70
32
10
8.640449
20
1.719101
30
0
0
SEQEND
0
POLYLINE
8
PFV
62
0
66
1
70
8
0
VERTEX
8
PFV
62
0
70
32
10
2.640449
20
1.719101
30
0
0
VERTEX
8
PFV
62
0
70
32
10
2.640449
20
1.764045
30
0
0
VERTEX
8
PFV
62
0
70
32
10
2.662921
20
1.764045
30
0
0
VERTEX
8
PFV
62
0
70
32
10
2.764045
20
1.662921
30
0
0
VERTEX
8
PFV
62
0
70
32
10
2.730337
20
1.651685
30
0
0
SEQEND
0
POLYLINE
8
PFV
62
0
66
1
70
8
0
VERTEX
8
PFV
62
0
70
32
10
2.640449
20
1.719101
30
0
0
VERTEX
8
PFV
62
0
70
32
10
2.640449
20
1.707865
30
0
0
SEQEND
0
POLYLINE
8
PFV
62
0
66
1
70
8
0
VERTEX
8
PFV
62
0
70
32
10
2.797753
20
1.719101
30
0
0
VERTEX
8
PFV
62
0
70
32
10
3.011236
20
1.786517
30
0
0
VERTEX
8
PFV
62
0
70
32
10
3.191011
20
1.797753
30
0
0
SEQEND
0
POLYLINE
8
PFV
62
0
66
1
70
8
0
VERTEX
8
PFV
62
0
70
32
10
2.797753
20
1.719101
30
0
0
VERTEX
8
PFV
62
0
70
32
10
2.775281
20
1.651685
30
0
0
VERTEX
8
PFV
62
0
70
32
10
2.865169
20
1.573034
30
0
0
VERTEX
8
PFV
62
0
70
32
10
2.865169
20
1.539326
30
0
0
SEQEND
0
POLYLINE
8
PFV
62
0
66
1
70
8
0
VERTEX
8
PFV
62
0
70
32
10
2.797753
20
1.719101
30
0
0
VERTEX
8
PFV
62
0
70
32
10
2.707865
20
1.797753
30
0
0
VERTEX
8
PFV
62
0
70
32
10
2.651685
20
1.775281
30
0
0
VERTEX
8
PFV
62
0
70
32
10
2.651685
20
1.764045
30
0
0
SEQEND
0
POLYLINE
8
PFV
62
0
66
1
70
8
0
VERTEX
8
PFV
62
0
70
32
10
2.797753
20
1.719101
30
0
0
VERTEX
8
PFV
62
0
70
32
10
2.786517
20
1.730337
30
0
0
SEQEND
0
POLYLINE
8
PFV
62
0
66
1
70
8
0
VERTEX
8
PFV
62
0
70
32
10
4.764045
20
1.719101
30
0
0
VERTEX
8
PFV
62
0
70
32
10
4.764045
20
1.730337
30
0
0
SEQEND
0
POLYLINE
8
PFV
62
0
66
1
70
8
0
VERTEX
8
PFV
62
0
70
32
10
6.719101
20
1.719101
30
0
0
VERTEX
8
PFV
62
0
70
32
10
6.719101
20
1.730337
30
0
0
SEQEND
0
POLYLINE
8
PFV
62
0
66
1
70
8
0
VERTEX
8
PFV
62
0
70
32
10
7.191011
20
1.719101
30
0
0
VERTEX
8
PFV
62
0
70
32
10
7.191011
20
1.775281
30
0
0
SEQEND
0
POLYLINE
8
PFV
62
0
66
1
70
8
0
VERTEX
8
PFV
62
0
70
32
10
7.191011
20
1.719101
30
0
0
VERTEX
8
PFV
62
0
70
32
10
7.202247
20
1.719101
30
0
0
VERTEX
8
PFV
62
0
70
32
10
7.202247
20
1.696629
30
0
0
VERTEX
8
PFV
62
0
70
32
10
7.191011
20
1.696629
30
0
0
VERTEX
8
PFV
62
0
70
32
10
7.179775
20
1.707865
30
0
0
VERTEX
8
PFV
62
0
70
32
10
7.179775
20
1.719101
30
0
0
VERTEX
8
PFV
62
0
70
32
10
7.191011
20
1.719101
30
0
0
SEQEND
0
POLYLINE
8
PFV
62
0
66
1
70
8
0
VERTEX
8
PFV
62
0
70
32
10
2.617978
20
1.730337
30
0
0
VERTEX
8
PFV
62
0
70
32
10
2.617978
20
1.741573
30
0
0
VERTEX
8
PFV
62
0
70
32
10
2.629213
20
1.741573
30
0
0
VERTEX
8
PFV
62
0
70
32
10
2.617978
20
1.730337
30
0
0
SEQEND
0
POLYLINE
8
PFV
62
0
66
1
70
8
0
VERTEX
8
PFV
62
0
70
32
10
2.617978
20
1.730337
30
0
0
VERTEX
8
PFV
62
0
70
32
10
2.617978
20
1.719101
30
0
0
SEQEND
0
POLYLINE
8
PFV
62
0
66
1
70
8
0
VERTEX
8
PFV
62
0
70
32
10
6.595506
20
1.741573
30
0
0
VERTEX
8
PFV
62
0
70
32
10
6.606742
20
1.741573
30
0
0
SEQEND
0
POLYLINE
8
PFV
62
0
66
1
70
8
0
VERTEX
8
PFV
62
0
70
32
10
3.134831
20
1.752809
30
0
0
VERTEX
8
PFV
62
0
70
32
10
3.134831
20
1.797753
30
0
0
SEQEND
0
POLYLINE
8
PFV
62
0
66
1
70
8
0
VERTEX
8
PFV
62
0
70
32
10
3.134831
20
1.752809
30
0
0
VERTEX
8
PFV
62
0
70
32
10
3.146067
20
1.752809
30
0
0
VERTEX
8
PFV
62
0
70
32
10
3.146067
20
1.730337
30
0
0
VERTEX
8
PFV
62
0
70
32
10
3.123596
20
1.730337
30
0
0
VERTEX
8
PFV
62
0
70
32
10
3.123596
20
1.752809
30
0
0
VERTEX
8
PFV
62
0
70
32
10
3.134831
20
1.752809
30
0
0
SEQEND
0
POLYLINE
8
PFV
62
0
66
1
70
8
0
VERTEX
8
PFV
62
0
70
32
10
8.573034
20
1.764045
30
0
0
VERTEX
8
PFV
62
0
70
32
10
8.595506
20
1.764045
30
0
0
SEQEND
0
POLYLINE
8
PFV
62
0
66
1
70
8
0
VERTEX
8
PFV
62
0
70
32
10
8.595506
20
1.764045
30
0
0
VERTEX
8
PFV
62
0
70
32
10
8.606742
20
1.752809
30
0
0
SEQEND
0
POLYLINE
8
PFV
62
0
66
1
70
8
0
VERTEX
8
PFV
62
0
70
32
10
7.191011
20
1.775281
30
0
0
VERTEX
8
PFV
62
0
70
32
10
7.191011
20
1.786517
30
0
0
SEQEND
0
POLYLINE
8
PFV
62
0
66
1
70
8
0
VERTEX
8
PFV
62
0
70
32
10
4.089888
20
0.505618
30
0
0
VERTEX
8
PFV
62
0
70
32
10
4.089888
20
0.516854
30
0
0
SEQEND
0
POLYLINE
8
PFV
62
0
66
1
70
8
0
VERTEX
8
PFV
62
0
70
32
10
5.146067
20
0.505618
30
0
0
VERTEX
8
PFV
62
0
70
32
10
5.202247
20
0.505618
30
0
0
SEQEND
0
POLYLINE
8
PFV
62
0
66
1
70
8
0
VERTEX
8
PFV
62
0
70
32
10
7.101124
20
0.505618
30
0
0
VERTEX
8
PFV
62
0
70
32
10
7.179775
20
0.505618
30
0
0
SEQEND
0
POLYLINE
8
PFV
62
0
66
1
70
8
0
VERTEX
8
PFV
62
0
70
32
10
7.101124
20
0.505618
30
0
0
VERTEX
8
PFV
62
0
70
32
10
7.089888
20
0.516854
30
0
0
VERTEX
8
PFV
62
0
70
32
10
7.078652
20
0.516854
30
0
0
SEQEND
0
POLYLINE
8
PFV
62
0
66
1
70
8
0
VERTEX
8
PFV
62
0
70
32
10
9.067416
20
0.505618
30
0
0
VERTEX
8
PFV
62
0
70
32
10
9.157303
20
0.505618
30
0
0
SEQEND
0
POLYLINE
8
PFV
62
0
66
1
70
8
0
VERTEX
8
PFV
62
0
70
32
10
9.067416
20
0.505618
30
0
0
VERTEX
8
PFV
62
0
70
32
10
9.056180
20
0.516854
30
0
0
VERTEX
8
PFV
62
0
70
32
10
9.033708
20
0.516854
30
0
0
SEQEND
0
POLYLINE
8
PFV
62
0
66
1
70
8
0
VERTEX
8
PFV
62
0
70
32
10
8.898876
20
0.528090
30
0
0
VERTEX
8
PFV
62
0
70
32
10
8.921348
20
0.528090
30
0
0
SEQEND
0
POLYLINE
8
PFV
62
0
66
1
70
8
0
VERTEX
8
PFV
62
0
70
32
10
3.516854
20
0.573034
30
0
0
VERTEX
8
PFV
62
0
70
32
10
3.516854
20
0.584270
30
0
0
SEQEND
0
POLYLINE
8
PFV
62
0
66
1
70
8
0
VERTEX
8
PFV
62
0
70
32
10
9.404494
20
0.573034
30
0
0
VERTEX
8
PFV
62
0
70
32
10
9.415730
20
0.584270
30
0
0
SEQEND
0
POLYLINE
8
PFV
62
0
66
1
70
8
0
VERTEX
8
PFV
62
0
70
32
10
9.460674
20
0.617978
30
0
0
VERTEX
8
PFV
62
0
70
32
10
9.460674
20
0.640449
30
0
0
VERTEX
8
PFV
62
0
70
32
10
9.471910
20
0.651685
30
0
0
VERTEX
8
PFV
62
0
70
32
10
9.494382
20
0.651685
30
0
0
SEQEND
0
POLYLINE
8
PFV
62
0
66
1
70
8
0
VERTEX
8
PFV
62
0
70
32
10
1.044944
20
0.640449
30
0
0
VERTEX
8
PFV
62
0
70
32
10
1.056180
20
0.640449
30
0
0
SEQEND
0
POLYLINE
8
PFV
62
0
66
1
70
8
0
VERTEX
8
PFV
62
0
70
32
10
1.044944
20
0.640449
30
0
0
VERTEX
8
PFV
62
0
70
32
10
1.033708
20
0.651685
30
0
0
VERTEX
8
PFV
62
0
70
32
10
1.022472
20
0.662921
30
0
0
VERTEX
8
PFV
62
0
70
32
10
1.011236
20
0.674157
30
0
0
VERTEX
8
PFV
62
0
70
32
10
1.011236
20
0.685393
30
0
0
SEQEND
0
POLYLINE
8
PFV
62
0
66
1
70
8
0
VERTEX
8
PFV
62
0
70
32
10
8.719101
20
0.685393
30
0
0
VERTEX
8
PFV
62
0
70
32
10
8.730337
20
0.685393
30
0
0
SEQEND
0
POLYLINE
8
PFV
62
0
66
1
70
8
0
VERTEX
8
PFV
62
0
70
32
10
9.516854
20
0.696629
30
0
0
VERTEX
8
PFV
62
0
70
32
10
9.528090
20
0.707865
30
0
0
SEQEND
0
POLYLINE
8
PFV
62
0
66
1
70
8
0
VERTEX
8
PFV
62
0
70
32
10
5.595506
20
0.707865
30
0
0
VERTEX
8
PFV
62
0
70
32
10
5.595506
20
0.719101
30
0
0
SEQEND
0
POLYLINE
8
PFV
62
0
66
1
70
8
0
VERTEX
8
PFV
62
0
70
32
10
8.719101
20
0.707865
30
0
0
VERTEX
8
PFV
62
0
70
32
10
8.719101
20
0.719101
30
0
0
SEQEND
0
POLYLINE
8
PFV
62
0
66
1
70
8
0
VERTEX
8
PFV
62
0
70
32
10
8.752809
20
0.707865
30
0
0
VERTEX
8
PFV
62
0
70
32
10
8.752809
20
0.730337
30
0
0
SEQEND
0
POLYLINE
8
PFV
62
0
66
1
70
8
0
VERTEX
8
PFV
62
0
70
32
10
6.764045
20
0.719101
30
0
0
VERTEX
8
PFV
62
0
70
32
10
6.764045
20
0.730337
30
0
0
SEQEND
0
POLYLINE
8
PFV
62
0
66
1
70
8
0
VERTEX
8
PFV
62
0
70
32
10
7.573034
20
0.719101
30
0
0
VERTEX
8
PFV
62
0
70
32
10
7.573034
20
0.730337
30
0
0
VERTEX
8
PFV
62
0
70
32
10
7.584270
20
0.741573
30
0
0
SEQEND
0
POLYLINE
8
PFV
62
0
66
1
70
8
0
VERTEX
8
PFV
62
0
70
32
10
8.674157
20
0.786517
30
0
0
VERTEX
8
PFV
62
0
70
32
10
8.685393
20
0.797753
30
0
0
VERTEX
8
PFV
62
0
70
32
10
8.685393
20
0.808989
30
0
0
SEQEND
0
POLYLINE
8
PFV
62
0
66
1
70
8
0
VERTEX
8
PFV
62
0
70
32
10
7.640449
20
0.797753
30
0
0
VERTEX
8
PFV
62
0
70
32
10
7.640449
20
0.808989
30
0
0
SEQEND
0
POLYLINE
8
PFV
62
0
66
1
70
8
0
VERTEX
8
PFV
62
0
70
32
10
9.561798
20
0.797753
30
0
0
VERTEX
8
PFV
62
0
70
32
10
9.561798
20
0.808989
30
0
0
SEQEND
0
POLYLINE
8
PFV
62
0
66
1
70
8
0
VERTEX
8
PFV
62
0
70
32
10
4.067416
20
0.808989
30
0
0
VERTEX
8
PFV
62
0
70
32
10
4.067416
20
0.820225
30
0
0
SEQEND
0
POLYLINE
8
PFV
62
0
66
1
70
8
0
VERTEX
8
PFV
62
0
70
32
10
7.617978
20
0.820225
30
0
0
VERTEX
8
PFV
62
0
70
32
10
7.617978
20
0.865169
30
0
0
SEQEND
0
POLYLINE
8
PFV
62
0
66
1
70
8
0
VERTEX
8
PFV
62
0
70
32
10
7.561798
20
0.831461
30
0
0
VERTEX
8
PFV
62
0
70
32
10
7.561798
20
0.853933
30
0
0
VERTEX
8
PFV
62
0
70
32
10
7.573034
20
0.865169
30
0
0
VERTEX
8
PFV
62
0
70
32
10
7.573034
20
0.876404
30
0
0
SEQEND
0
POLYLINE
8
PFV
62
0
66
1
70
8
0
VERTEX
8
PFV
62
0
70
32
10
0.876404
20
0.853933
30
0
0
VERTEX
8
PFV
62
0
70
32
10
0.876404
20
0.876404
30
0
0
VERTEX
8
PFV
62
0
70
32
10
0.865169
20
0.887640
30
0
0
VERTEX
8
PFV
62
0
70
32
10
0.853933
20
0.898876
30
0
0
VERTEX
8
PFV
62
0
70
32
10
0.853933
20
0.910112
30
0
0
SEQEND
0
POLYLINE
8
PFV
62
0
66
1
70
8
0
VERTEX
8
PFV
62
0
70
32
10
6.696629
20
0.853933
30
0
0
VERTEX
8
PFV
62
0
70
32
10
6.696629
20
0.865169
30
0
0
SEQEND
0
POLYLINE
8
PFV
62
0
66
1
70
8
0
VERTEX
8
PFV
62
0
70
32
10
8.629213
20
0.887640
30
0
0
VERTEX
8
PFV
62
0
70
32
10
8.629213
20
0.898876
30
0
0
SEQEND
0
POLYLINE
8
PFV
62
0
66
1
70
8
0
VERTEX
8
PFV
62
0
70
32
10
8.662921
20
0.887640
30
0
0
VERTEX
8
PFV
62
0
70
32
10
8.662921
20
0.898876
30
0
0
SEQEND
0
POLYLINE
8
PFV
62
0
66
1
70
8
0
VERTEX
8
PFV
62
0
70
32
10
1.370787
20
0.898876
30
0
0
VERTEX
8
PFV
62
0
70
32
10
1.370787
20
1.213483
30
0
0
VERTEX
8
PFV
62
0
70
32
10
1.359551
20
1.224719
30
0
0
VERTEX
8
PFV
62
0
70
32
10
1.359551
20
1.325843
30
0
0
SEQEND
0
POLYLINE
8
PFV
62
0
66
1
70
8
0
VERTEX
8
PFV
62
0
70
32
10
7.595506
20
0.943820
30
0
0
VERTEX
8
PFV
62
0
70
32
10
7.584270
20
1.179775
30
0
0
VERTEX
8
PFV
62
0
70
32
10
7.494382
20
1.370787
30
0
0
VERTEX
8
PFV
62
0
70
32
10
7.483146
20
1.393258
30
0
0
SEQEND
0
POLYLINE
8
PFV
62
0
66
1
70
8
0
VERTEX
8
PFV
62
0
70
32
10
1.235955
20
0.966292
30
0
0
VERTEX
8
PFV
62
0
70
32
10
1.235955
20
1.033708
30
0
0
SEQEND
0
POLYLINE
8
PFV
62
0
66
1
70
8
0
VERTEX
8
PFV
62
0
70
32
10
2.977528
20
0.977528
30
0
0
VERTEX
8
PFV
62
0
70
32
10
2.988764
20
0.977528
30
0
0
SEQEND
0
POLYLINE
8
PFV
62
0
66
1
70
8
0
VERTEX
8
PFV
62
0
70
32
10
8.617978
20
1.022472
30
0
0
VERTEX
8
PFV
62
0
70
32
10
8.617978
20
1.056180
30
0
0
SEQEND
0
POLYLINE
8
PFV
62
0
66
1
70
8
0
VERTEX
8
PFV
62
0
70
32
10
9.606742
20
1.022472
30
0
0
VERTEX
8
PFV
62
0
70
32
10
9.606742
20
1.044944
30
0
0
SEQEND
0
POLYLINE
8
PFV
62
0
66
1
70
8
0
VERTEX
8
PFV
62
0
70
32
10
0.808989
20
1.033708
30
0
0
VERTEX
8
PFV
62
0
70
32
10
0.808989
20
1.044944
30
0
0
SEQEND
0
POLYLINE
8
PFV
62
0
66
1
70
8
0
VERTEX
8
PFV
62
0
70
32
10
4.303371
20
1.044944
30
0
0
VERTEX
8
PFV
62
0
70
32
10
4.303371
20
1.056180
30
0
0
SEQEND
0
POLYLINE
8
PFV
62
0
66
1
70
8
0
VERTEX
8
PFV
62
0
70
32
10
6.629213
20
1.044944
30
0
0
VERTEX
8
PFV
62
0
70
32
10
6.629213
20
1.056180
30
0
0
SEQEND
0
POLYLINE
8
PFV
62
0
66
1
70
8
0
VERTEX
8
PFV
62
0
70
32
10
3.719101
20
1.067416
30
0
0
VERTEX
8
PFV
62
0
70
32
10
3.741573
20
1.067416
30
0
0
SEQEND
0
POLYLINE
8
PFV
62
0
66
1
70
8
0
VERTEX
8
PFV
62
0
70
32
10
1.224719
20
1.078652
30
0
0
VERTEX
8
PFV
62
0
70
32
10
1.224719
20
1.157303
30
0
0
SEQEND
0
POLYLINE
8
PFV
62
0
66
1
70
8
0
VERTEX
8
PFV
62
0
70
32
10
5.707865
20
1.157303
30
0
0
VERTEX
8
PFV
62
0
70
32
10
5.707865
20
1.179775
30
0
0
SEQEND
0
POLYLINE
8
PFV
62
0
66
1
70
8
0
VERTEX
8
PFV
62
0
70
32
10
1.573034
20
1.191011
30
0
0
VERTEX
8
PFV
62
0
70
32
10
1.584270
20
1.191011
30
0
0
SEQEND
0
POLYLINE
8
PFV
62
0
66
1
70
8
0
VERTEX
8
PFV
62
0
70
32
10
1.573034
20
1.191011
30
0
0
VERTEX
8
PFV
62
0
70
32
10
1.561798
20
1.202247
30
0
0
SEQEND
0
POLYLINE
8
PFV
62
0
66
1
70
8
0
VERTEX
8
PFV
62
0
70
32
10
1.820225
20
1.191011
30
0
0
VERTEX
8
PFV
62
0
70
32
10
1.820225
20
1.224719
30
0
0
SEQEND
0
POLYLINE
8
PFV
62
0
66
1
70
8
0
VERTEX
8
PFV
62
0
70
32
10
1.797753
20
1.247191
30
0
0
VERTEX
8
PFV
62
0
70
32
10
1.797753
20
1.258427
30
0
0
SEQEND
0
POLYLINE
8
PFV
62
0
66
1
70
8
0
VERTEX
8
PFV
62
0
70
32
10
5.674157
20
1.247191
30
0
0
VERTEX
8
PFV
62
0
70
32
10
5.674157
20
1.258427
30
0
0
SEQEND
0
POLYLINE
8
PFV
62
0
66
1
70
8
0
VERTEX
8
PFV
62
0
70
32
10
7.617978
20
1.247191
30
0
0
VERTEX
8
PFV
62
0
70
32
10
7.617978
20
1.280899
30
0
0
SEQEND
0
POLYLINE
8
PFV
62
0
66
1
70
8
0
VERTEX
8
PFV
62
0
70
32
10
9.573034
20
1.247191
30
0
0
VERTEX
8
PFV
62
0
70
32
10
9.573034
20
1.280899
30
0
0
VERTEX
8
PFV
62
0
70
32
10
9.561798
20
1.292135
30
0
0
VERTEX
8
PFV
62
0
70
32
10
9.561798
20
1.303371
30
0
0
VERTEX
8
PFV
62
0
70
32
10
9.550562
20
1.314607
30
0
0
VERTEX
8
PFV
62
0
70
32
10
9.550562
20
1.348315
30
0
0
SEQEND
0
POLYLINE
8
PFV
62
0
66
1
70
8
0
VERTEX
8
PFV
62
0
70
32
10
7.595506
20
1.292135
30
0
0
VERTEX
8
PFV
62
0
70
32
10
7.595506
20
1.325843
30
0
0
SEQEND
0
POLYLINE
8
PFV
62
0
66
1
70
8
0
VERTEX
8
PFV
62
0
70
32
10
3.595506
20
1.303371
30
0
0
VERTEX
8
PFV
62
0
70
32
10
3.606742
20
1.303371
30
0
0
SEQEND
0
POLYLINE
8
PFV
62
0
66
1
70
8
0
VERTEX
8
PFV
62
0
70
32
10
3.651685
20
1.303371
30
0
0
VERTEX
8
PFV
62
0
70
32
10
3.674157
20
1.303371
30
0
0
SEQEND
0
POLYLINE
8
PFV
62
0
66
1
70
8
0
VERTEX
8
PFV
62
0
70
32
10
5.617978
20
1.314607
30
0
0
VERTEX
8
PFV
62
0
70
32
10
5.617978
20
1.348315
30
0
0
SEQEND
0
POLYLINE
8
PFV
62
0
66
1
70
8
0
VERTEX
8
PFV
62
0
70
32
10
0.898876
20
1.337079
30
0
0
VERTEX
8
PFV
62
0
70
32
10
0.898876
20
1.359551
30
0
0
VERTEX
8
PFV
62
0
70
32
10
0.887640
20
1.370787
30
0
0
VERTEX
8
PFV
62
0
70
32
10
0.887640
20
1.382022
30
0
0
VERTEX
8
PFV
62
0
70
32
10
0.876404
20
1.393258
30
0
0
VERTEX
8
PFV
62
0
70
32
10
0.876404
20
1.404494
30
0
0
SEQEND
0
POLYLINE
8
PFV
62
0
66
1
70
8
0
VERTEX
8
PFV
62
0
70
32
10
1.056180
20
1.337079
30
0
0
VERTEX
8
PFV
62
0
70
32
10
1.067416
20
1.348315
30
0
0
SEQEND
0
POLYLINE
8
PFV
62
0
66
1
70
8
0
VERTEX
8
PFV
62
0
70
32
10
1.426966
20
1.337079
30
0
0
VERTEX
8
PFV
62
0
70
32
10
1.426966
20
1.348315
30
0
0
SEQEND
0
POLYLINE
8
PFV
62
0
66
1
70
8
0
VERTEX
8
PFV
62
0
70
32
10
2.943820
20
1.337079
30
0
0
VERTEX
8
PFV
62
0
70
32
10
2.955056
20
1.337079
30
0
0
VERTEX
8
PFV
62
0
70
32
10
2.966292
20
1.348315
30
0
0
VERTEX
8
PFV
62
0
70
32
10
2.966292
20
1.359551
30
0
0
VERTEX
8
PFV
62
0
70
32
10
2.977528
20
1.359551
30
0
0
VERTEX
8
PFV
62
0
70
32
10
2.988764
20
1.370787
30
0
0
VERTEX
8
PFV
62
0
70
32
10
2.988764
20
1.393258
30
0
0
SEQEND
0
POLYLINE
8
PFV
62
0
66
1
70
8
0
VERTEX
8
PFV
62
0
70
32
10
2.797753
20
1.359551
30
0
0
VERTEX
8
PFV
62
0
70
32
10
2.808989
20
1.370787
30
0
0
VERTEX
8
PFV
62
0
70
32
10
2.808989
20
1.393258
30
0
0
SEQEND
0
POLYLINE
8
PFV
62
0
66
1
70
8
0
VERTEX
8
PFV
62
0
70
32
10
3.067416
20
1.370787
30
0
0
VERTEX
8
PFV
62
0
70
32
10
3.067416
20
1.382022
30
0
0
SEQEND
0
POLYLINE
8
PFV
62
0
66
1
70
8
0
VERTEX
8
PFV
62
0
70
32
10
3.516854
20
1.382022
30
0
0
VERTEX
8
PFV
62
0
70
32
10
3.528090
20
1.382022
30
0
0
SEQEND
0
POLYLINE
8
PFV
62
0
66
1
70
8
0
VERTEX
8
PFV
62
0
70
32
10
1.426966
20
1.404494
30
0
0
VERTEX
8
PFV
62
0
70
32
10
1.426966
20
1.415730
30
0
0
SEQEND
0
POLYLINE
8
PFV
62
0
66
1
70
8
0
VERTEX
8
PFV
62
0
70
32
10
7.460674
20
1.415730
30
0
0
VERTEX
8
PFV
62
0
70
32
10
7.449438
20
1.426966
30
0
0
VERTEX
8
PFV
62
0
70
32
10
7.438202
20
1.438202
30
0
0
SEQEND
0
POLYLINE
8
PFV
62
0
66
1
70
8
0
VERTEX
8
PFV
62
0
70
32
10
5.550562
20
1.426966
30
0
0
VERTEX
8
PFV
62
0
70
32
10
5.550562
20
1.438202
30
0
0
SEQEND
0
POLYLINE
8
PFV
62
0
66
1
70
8
0
VERTEX
8
PFV
62
0
70
32
10
7.494382
20
1.449438
30
0
0
VERTEX
8
PFV
62
0
70
32
10
7.494382
20
1.460674
30
0
0
SEQEND
0
POLYLINE
8
PFV
62
0
66
1
70
8
0
VERTEX
8
PFV
62
0
70
32
10
7.404494
20
1.460674
30
0
0
VERTEX
8
PFV
62
0
70
32
10
7.415730
20
1.460674
30
0
0
SEQEND
0
POLYLINE
8
PFV
62
0
66
1
70
8
0
VERTEX
8
PFV
62
0
70
32
10
7.404494
20
1.460674
30
0
0
VERTEX
8
PFV
62
0
70
32
10
7.393258
20
1.471910
30
0
0
VERTEX
8
PFV
62
0
70
32
10
7.393258
20
1.483146
30
0
0
VERTEX
8
PFV
62
0
70
32
10
7.382022
20
1.483146
30
0
0
VERTEX
8
PFV
62
0
70
32
10
7.370787
20
1.494382
30
0
0
SEQEND
0
POLYLINE
8
PFV
62
0
66
1
70
8
0
VERTEX
8
PFV
62
0
70
32
10
7.460674
20
1.483146
30
0
0
VERTEX
8
PFV
62
0
70
32
10
7.449438
20
1.494382
30
0
0
VERTEX
8
PFV
62
0
70
32
10
7.438202
20
1.505618
30
0
0
VERTEX
8
PFV
62
0
70
32
10
7.426966
20
1.505618
30
0
0
SEQEND
0
POLYLINE
8
PFV
62
0
66
1
70
8
0
VERTEX
8
PFV
62
0
70
32
10
3.011236
20
1.494382
30
0
0
VERTEX
8
PFV
62
0
70
32
10
3.011236
20
1.505618
30
0
0
SEQEND
0
POLYLINE
8
PFV
62
0
66
1
70
8
0
VERTEX
8
PFV
62
0
70
32
10
5.471910
20
1.505618
30
0
0
VERTEX
8
PFV
62
0
70
32
10
5.483146
20
1.516854
30
0
0
SEQEND
0
POLYLINE
8
PFV
62
0
66
1
70
8
0
VERTEX
8
PFV
62
0
70
32
10
3.000000
20
1.550562
30
0
0
VERTEX
8
PFV
62
0
70
32
10
2.988764
20
1.561798
30
0
0
SEQEND
0
POLYLINE
8
PFV
62
0
66
1
70
8
0
VERTEX
8
PFV
62
0
70
32
10
5.483146
20
1.550562
30
0
0
VERTEX
8
PFV
62
0
70
32
10
5.483146
20
1.561798
30
0
0
SEQEND
0
POLYLINE
8
PFV
62
0
66
1
70
8
0
VERTEX
8
PFV
62
0
70
32
10
5.393258
20
1.561798
30
0
0
VERTEX
8
PFV
62
0
70
32
10
5.404494
20
1.561798
30
0
0
SEQEND
0
POLYLINE
8
PFV
62
0
66
1
70
8
0
VERTEX
8
PFV
62
0
70
32
10
3.033708
20
1.584270
30
0
0
VERTEX
8
PFV
62
0
70
32
10
3.033708
20
1.595506
30
0
0
SEQEND
0
POLYLINE
8
PFV
62
0
66
1
70
8
0
VERTEX
8
PFV
62
0
70
32
10
7.325843
20
1.584270
30
0
0
VERTEX
8
PFV
62
0
70
32
10
7.337079
20
1.584270
30
0
0
SEQEND
0
POLYLINE
8
PFV
62
0
66
1
70
8
0
VERTEX
8
PFV
62
0
70
32
10
3.213483
20
1.595506
30
0
0
VERTEX
8
PFV
62
0
70
32
10
3.224719
20
1.595506
30
0
0
SEQEND
0
POLYLINE
8
PFV
62
0
66
1
70
8
0
VERTEX
8
PFV
62
0
70
32
10
9.303371
20
1.595506
30
0
0
VERTEX
8
PFV
62
0
70
32
10
9.337079
20
1.595506
30
0
0
SEQEND
0
POLYLINE
8
PFV
62
0
66
1
70
8
0
VERTEX
8
PFV
62
0
70
32
10
5.269663
20
1.606742
30
0
0
VERTEX
8
PFV
62
0
70
32
10
5.292135
20
1.606742
30
0
0
SEQEND
0
POLYLINE
8
PFV
62
0
66
1
70
8
0
VERTEX
8
PFV
62
0
70
32
10
7.235955
20
1.606742
30
0
0
VERTEX
8
PFV
62
0
70
32
10
7.269663
20
1.606742
30
0
0
SEQEND
0
POLYLINE
8
PFV
62
0
66
1
70
8
0
VERTEX
8
PFV
62
0
70
32
10
7.235955
20
1.606742
30
0
0
VERTEX
8
PFV
62
0
70
32
10
7.224719
20
1.617978
30
0
0
VERTEX
8
PFV
62
0
70
32
10
7.191011
20
1.617978
30
0
0
SEQEND
0
POLYLINE
8
PFV
62
0
66
1
70
8
0
VERTEX
8
PFV
62
0
70
32
10
9.202247
20
1.606742
30
0
0
VERTEX
8
PFV
62
0
70
32
10
9.224719
20
1.606742
30
0
0
SEQEND
0
POLYLINE
8
PFV
62
0
66
1
70
8
0
VERTEX
8
PFV
62
0
70
32
10
5.213483
20
1.617978
30
0
0
VERTEX
8
PFV
62
0
70
32
10
5.247191
20
1.617978
30
0
0
SEQEND
0
ENDSEC
0
EOF
