0
SECTION
2
HEADER
0
ENDSEC
0
SECTION
2
TABLES
0
ENDSEC
0
SECTION
2
BLOCKS
0
ENDSEC
0
SECTION
2
ENTITIES
0
POLYLINE
8
PFV
62
0
66
1
70
8
0
VERTEX
8
PFV
62
0
70
32
10
5.538462
20
1.596154
30
0
0
VERTEX
8
PFV
62
0
70
32
10
5.750000
20
1.653846
30
0
0
VERTEX
8
PFV
62
0
70
32
10
6.096154
20
1.692308
30
0
0
VERTEX
8
PFV
62
0
70
32
10
6.480769
20
1.788462
30
0
0
VERTEX
8
PFV
62
0
70
32
10
6.750000
20
1.884615
30
0
0
VERTEX
8
PFV
62
0
70
32
10
6.846154
20
1.942308
30
0
0
VERTEX
8
PFV
62
0
70
32
10
6.980769
20
1.980769
30
0
0
VERTEX
8
PFV
62
0
70
32
10
7.038462
20
2.038462
30
0
0
VERTEX
8
PFV
62
0
70
32
10
7.442308
20
2.192308
30
0
0
VERTEX
8
PFV
62
0
70
32
10
7.653846
20
2.269231
30
0
0
VERTEX
8
PFV
62
0
70
32
10
7.884615
20
2.384615
30
0
0
VERTEX
8
PFV
62
0
70
32
10
7.980769
20
2.461538
30
0
0
VERTEX
8
PFV
62
0
70
32
10
8.000000
20
2.557692
30
0
0
VERTEX
8
PFV
62
0
70
32
10
8.038462
20
2.557692
30
0
0
VERTEX
8
PFV
62
0
70
32
10
8.250000
20
3.288462
30
0
0
VERTEX
8
PFV
62
0
70
32
10
8.307692
20
3.442308
30
0
0
VERTEX
8
PFV
62
0
70
32
10
8.346154
20
3.442308
30
0
0
VERTEX
8
PFV
62
0
70
32
10
8.365385
20
3.557692
30
0
0
VERTEX
8
PFV
62
0
70
32
10
8.480769
20
3.903846
30
0
0
VERTEX
8
PFV
62
0
70
32
10
8.576923
20
4.711538
30
0
0
VERTEX
8
PFV
62
0
70
32
10
8.519231
20
5.211538
30
0
0
VERTEX
8
PFV
62
0
70
32
10
8.442308
20
5.596154
30
0
0
VERTEX
8
PFV
62
0
70
32
10
8.288462
20
6.019231
30
0
0
VERTEX
8
PFV
62
0
70
32
10
8.134615
20
6.307692
30
0
0
VERTEX
8
PFV
62
0
70
32
10
7.769231
20
6.788462
30
0
0
VERTEX
8
PFV
62
0
70
32
10
7.576923
20
6.980769
30
0
0
VERTEX
8
PFV
62
0
70
32
10
7.230769
20
7.269231
30
0
0
VERTEX
8
PFV
62
0
70
32
10
7.038462
20
7.403846
30
0
0
VERTEX
8
PFV
62
0
70
32
10
6.942308
20
7.442308
30
0
0
VERTEX
8
PFV
62
0
70
32
10
6.807692
20
7.557692
30
0
0
VERTEX
8
PFV
62
0
70
32
10
6.596154
20
7.634615
30
0
0
VERTEX
8
PFV
62
0
70
32
10
6.134615
20
7.826923
30
0
0
VERTEX
8
PFV
62
0
70
32
10
5.826923
20
7.903846
30
0
0
VERTEX
8
PFV
62
0
70
32
10
5.480769
20
7.942308
30
0
0
VERTEX
8
PFV
62
0
70
32
10
4.903846
20
7.980769
30
0
0
VERTEX
8
PFV
62
0
70
32
10
4.365385
20
7.923077
30
0
0
VERTEX
8
PFV
62
0
70
32
10
3.846154
20
7.769231
30
0
0
VERTEX
8
PFV
62
0
70
32
10
3.692308
20
7.692308
30
0
0
VERTEX
8
PFV
62
0
70
32
10
3.596154
20
7.673077
30
0
0
VERTEX
8
PFV
62
0
70
32
10
3.461538
20
7.576923
30
0
0
VERTEX
8
PFV
62
0
70
32
10
3.538462
20
7.461538
30
0
0
VERTEX
8
PFV
62
0
70
32
10
3.557692
20
7.461538
30
0
0
VERTEX
8
PFV
62
0
70
32
10
3.538462
20
7.269231
30
0
0
VERTEX
8
PFV
62
0
70
32
10
3.519231
20
7.211538
30
0
0
VERTEX
8
PFV
62
0
70
32
10
3.403846
20
7.230769
30
0
0
VERTEX
8
PFV
62
0
70
32
10
3.211538
20
7.461538
30
0
0
VERTEX
8
PFV
62
0
70
32
10
3.250000
20
7.519231
30
0
0
VERTEX
8
PFV
62
0
70
32
10
3.461538
20
7.557692
30
0
0
SEQEND
0
POLYLINE
8
PFV
62
0
66
1
70
8
0
VERTEX
8
PFV
62
0
70
32
10
5.538462
20
1.596154
30
0
0
VERTEX
8
PFV
62
0
70
32
10
6.250000
20
0.865385
30
0
0
VERTEX
8
PFV
62
0
70
32
10
6.288462
20
0.865385
30
0
0
SEQEND
0
POLYLINE
8
PFV
62
0
66
1
70
8
0
VERTEX
8
PFV
62
0
70
32
10
5.538462
20
1.596154
30
0
0
VERTEX
8
PFV
62
0
70
32
10
4.211538
20
1.615385
30
0
0
VERTEX
8
PFV
62
0
70
32
10
3.596154
20
1.692308
30
0
0
VERTEX
8
PFV
62
0
70
32
10
3.211538
20
1.711538
30
0
0
VERTEX
8
PFV
62
0
70
32
10
3.134615
20
1.846154
30
0
0
VERTEX
8
PFV
62
0
70
32
10
3.057692
20
1.903846
30
0
0
VERTEX
8
PFV
62
0
70
32
10
2.961538
20
2.057692
30
0
0
VERTEX
8
PFV
62
0
70
32
10
2.903846
20
2.134615
30
0
0
VERTEX
8
PFV
62
0
70
32
10
3.519231
20
2.750000
30
0
0
VERTEX
8
PFV
62
0
70
32
10
3.480769
20
2.961538
30
0
0
VERTEX
8
PFV
62
0
70
32
10
2.980769
20
3.480769
30
0
0
VERTEX
8
PFV
62
0
70
32
10
2.846154
20
3.673077
30
0
0
VERTEX
8
PFV
62
0
70
32
10
2.576923
20
4.134615
30
0
0
VERTEX
8
PFV
62
0
70
32
10
2.557692
20
4.250000
30
0
0
VERTEX
8
PFV
62
0
70
32
10
2.480769
20
4.576923
30
0
0
VERTEX
8
PFV
62
0
70
32
10
2.538462
20
4.615385
30
0
0
VERTEX
8
PFV
62
0
70
32
10
2.634615
20
4.500000
30
0
0
VERTEX
8
PFV
62
0
70
32
10
2.634615
20
4.346154
30
0
0
SEQEND
0
POLYLINE
8
PFV
62
0
66
1
70
8
0
VERTEX
8
PFV
62
0
70
32
10
5.538462
20
1.596154
30
0
0
VERTEX
8
PFV
62
0
70
32
10
5.557692
20
1.576923
30
0
0
SEQEND
0
POLYLINE
8
PFV
62
0
66
1
70
8
0
VERTEX
8
PFV
62
0
70
32
10
3.211538
20
1.711538
30
0
0
VERTEX
8
PFV
62
0
70
32
10
2.923077
20
1.211538
30
0
0
SEQEND
0
POLYLINE
8
PFV
62
0
66
1
70
8
0
VERTEX
8
PFV
62
0
70
32
10
1.980769
20
2.038462
30
0
0
VERTEX
8
PFV
62
0
70
32
10
1.980769
20
2.076923
30
0
0
VERTEX
8
PFV
62
0
70
32
10
2.019231
20
2.076923
30
0
0
VERTEX
8
PFV
62
0
70
32
10
2.076923
20
2.057692
30
0
0
VERTEX
8
PFV
62
0
70
32
10
2.596154
20
2.557692
30
0
0
VERTEX
8
PFV
62
0
70
32
10
2.730769
20
2.250000
30
0
0
VERTEX
8
PFV
62
0
70
32
10
2.750000
20
2.250000
30
0
0
VERTEX
8
PFV
62
0
70
32
10
2.865385
20
2.153846
30
0
0
VERTEX
8
PFV
62
0
70
32
10
2.884615
20
2.153846
30
0
0
VERTEX
8
PFV
62
0
70
32
10
2.903846
20
2.134615
30
0
0
SEQEND
0
POLYLINE
8
PFV
62
0
66
1
70
8
0
VERTEX
8
PFV
62
0
70
32
10
1.980769
20
2.038462
30
0
0
VERTEX
8
PFV
62
0
70
32
10
2.019231
20
2.038462
30
0
0
VERTEX
8
PFV
62
0
70
32
10
2.019231
20
2.057692
30
0
0
SEQEND
0
POLYLINE
8
PFV
62
0
66
1
70
8
0
VERTEX
8
PFV
62
0
70
32
10
1.980769
20
2.038462
30
0
0
VERTEX
8
PFV
62
0
70
32
10
2.000000
20
1.923077
30
0
0
VERTEX
8
PFV
62
0
70
32
10
2.019231
20
1.923077
30
0
0
VERTEX
8
PFV
62
0
70
32
10
2.230769
20
1.788462
30
0
0
VERTEX
8
PFV
62
0
70
32
10
2.461538
20
1.807692
30
0
0
VERTEX
8
PFV
62
0
70
32
10
2.807692
20
2.173077
30
0
0
SEQEND
0
POLYLINE
8
PFV
62
0
66
1
70
8
0
VERTEX
8
PFV
62
0
70
32
10
1.980769
20
2.076923
30
0
0
VERTEX
8
PFV
62
0
70
32
10
1.942308
20
2.096154
30
0
0
VERTEX
8
PFV
62
0
70
32
10
1.961538
20
2.192308
30
0
0
VERTEX
8
PFV
62
0
70
32
10
2.096154
20
2.269231
30
0
0
VERTEX
8
PFV
62
0
70
32
10
2.442308
20
2.615385
30
0
0
VERTEX
8
PFV
62
0
70
32
10
2.403846
20
2.673077
30
0
0
VERTEX
8
PFV
62
0
70
32
10
2.346154
20
2.730769
30
0
0
VERTEX
8
PFV
62
0
70
32
10
2.250000
20
2.750000
30
0
0
VERTEX
8
PFV
62
0
70
32
10
2.134615
20
2.807692
30
0
0
VERTEX
8
PFV
62
0
70
32
10
1.923077
20
2.884615
30
0
0
VERTEX
8
PFV
62
0
70
32
10
1.923077
20
3.057692
30
0
0
VERTEX
8
PFV
62
0
70
32
10
2.038462
20
3.173077
30
0
0
VERTEX
8
PFV
62
0
70
32
10
2.076923
20
3.269231
30
0
0
VERTEX
8
PFV
62
0
70
32
10
2.211538
20
3.346154
30
0
0
VERTEX
8
PFV
62
0
70
32
10
2.365385
20
3.480769
30
0
0
VERTEX
8
PFV
62
0
70
32
10
2.365385
20
3.403846
30
0
0
VERTEX
8
PFV
62
0
70
32
10
2.115385
20
3.173077
30
0
0
VERTEX
8
PFV
62
0
70
32
10
2.057692
20
3.192308
30
0
0
VERTEX
8
PFV
62
0
70
32
10
2.134615
20
3.250000
30
0
0
SEQEND
0
POLYLINE
8
PFV
62
0
66
1
70
8
0
VERTEX
8
PFV
62
0
70
32
10
1.942308
20
2.134615
30
0
0
VERTEX
8
PFV
62
0
70
32
10
1.903846
20
2.134615
30
0
0
VERTEX
8
PFV
62
0
70
32
10
1.903846
20
2.230769
30
0
0
VERTEX
8
PFV
62
0
70
32
10
1.980769
20
2.230769
30
0
0
VERTEX
8
PFV
62
0
70
32
10
1.980769
20
2.211538
30
0
0
SEQEND
0
POLYLINE
8
PFV
62
0
66
1
70
8
0
VERTEX
8
PFV
62
0
70
32
10
1.942308
20
2.134615
30
0
0
VERTEX
8
PFV
62
0
70
32
10
1.961538
20
2.153846
30
0
0
VERTEX
8
PFV
62
0
70
32
10
2.000000
20
2.153846
30
0
0
VERTEX
8
PFV
62
0
70
32
10
2.000000
20
2.173077
30
0
0
SEQEND
0
POLYLINE
8
PFV
62
0
66
1
70
8
0
VERTEX
8
PFV
62
0
70
32
10
1.903846
20
2.173077
30
0
0
VERTEX
8
PFV
62
0
70
32
10
1.923077
20
2.173077
30
0
0
SEQEND
0
POLYLINE
8
PFV
62
0
66
1
70
8
0
VERTEX
8
PFV
62
0
70
32
10
1.903846
20
2.173077
30
0
0
VERTEX
8
PFV
62
0
70
32
10
1.884615
20
2.173077
30
0
0
SEQEND
0
POLYLINE
8
PFV
62
0
66
1
70
8
0
VERTEX
8
PFV
62
0
70
32
10
1.884615
20
2.211538
30
0
0
VERTEX
8
PFV
62
0
70
32
10
1.846154
20
2.230769
30
0
0
VERTEX
8
PFV
62
0
70
32
10
1.807692
20
2.423077
30
0
0
VERTEX
8
PFV
62
0
70
32
10
2.153846
20
2.788462
30
0
0
SEQEND
0
POLYLINE
8
PFV
62
0
66
1
70
8
0
VERTEX
8
PFV
62
0
70
32
10
1.942308
20
2.230769
30
0
0
VERTEX
8
PFV
62
0
70
32
10
1.903846
20
2.288462
30
0
0
VERTEX
8
PFV
62
0
70
32
10
1.865385
20
2.288462
30
0
0
VERTEX
8
PFV
62
0
70
32
10
1.865385
20
2.384615
30
0
0
VERTEX
8
PFV
62
0
70
32
10
1.807692
20
2.384615
30
0
0
SEQEND
0
POLYLINE
8
PFV
62
0
66
1
70
8
0
VERTEX
8
PFV
62
0
70
32
10
1.846154
20
2.288462
30
0
0
VERTEX
8
PFV
62
0
70
32
10
1.826923
20
2.288462
30
0
0
SEQEND
0
POLYLINE
8
PFV
62
0
66
1
70
8
0
VERTEX
8
PFV
62
0
70
32
10
1.826923
20
2.346154
30
0
0
VERTEX
8
PFV
62
0
70
32
10
1.884615
20
2.346154
30
0
0
SEQEND
0
POLYLINE
8
PFV
62
0
66
1
70
8
0
VERTEX
8
PFV
62
0
70
32
10
1.826923
20
2.346154
30
0
0
VERTEX
8
PFV
62
0
70
32
10
1.807692
20
2.346154
30
0
0
SEQEND
0
POLYLINE
8
PFV
62
0
66
1
70
8
0
VERTEX
8
PFV
62
0
70
32
10
1.884615
20
2.346154
30
0
0
VERTEX
8
PFV
62
0
70
32
10
2.269231
20
2.730769
30
0
0
SEQEND
0
POLYLINE
8
PFV
62
0
66
1
70
8
0
VERTEX
8
PFV
62
0
70
32
10
2.576923
20
2.557692
30
0
0
VERTEX
8
PFV
62
0
70
32
10
2.634615
20
2.653846
30
0
0
VERTEX
8
PFV
62
0
70
32
10
2.596154
20
2.865385
30
0
0
VERTEX
8
PFV
62
0
70
32
10
2.423077
20
3.423077
30
0
0
VERTEX
8
PFV
62
0
70
32
10
2.423077
20
3.403846
30
0
0
SEQEND
0
POLYLINE
8
PFV
62
0
66
1
70
8
0
VERTEX
8
PFV
62
0
70
32
10
2.576923
20
2.557692
30
0
0
VERTEX
8
PFV
62
0
70
32
10
2.596154
20
2.538462
30
0
0
SEQEND
0
POLYLINE
8
PFV
62
0
66
1
70
8
0
VERTEX
8
PFV
62
0
70
32
10
2.576923
20
2.596154
30
0
0
VERTEX
8
PFV
62
0
70
32
10
2.557692
20
2.596154
30
0
0
VERTEX
8
PFV
62
0
70
32
10
2.538462
20
2.615385
30
0
0
VERTEX
8
PFV
62
0
70
32
10
2.519231
20
2.634615
30
0
0
VERTEX
8
PFV
62
0
70
32
10
2.442308
20
2.634615
30
0
0
SEQEND
0
POLYLINE
8
PFV
62
0
66
1
70
8
0
VERTEX
8
PFV
62
0
70
32
10
2.576923
20
2.596154
30
0
0
VERTEX
8
PFV
62
0
70
32
10
2.557692
20
2.615385
30
0
0
SEQEND
0
POLYLINE
8
PFV
62
0
66
1
70
8
0
VERTEX
8
PFV
62
0
70
32
10
2.442308
20
2.634615
30
0
0
VERTEX
8
PFV
62
0
70
32
10
2.423077
20
2.653846
30
0
0
SEQEND
0
POLYLINE
8
PFV
62
0
66
1
70
8
0
VERTEX
8
PFV
62
0
70
32
10
1.730769
20
2.673077
30
0
0
VERTEX
8
PFV
62
0
70
32
10
1.865385
20
2.769231
30
0
0
VERTEX
8
PFV
62
0
70
32
10
1.942308
20
2.865385
30
0
0
SEQEND
0
POLYLINE
8
PFV
62
0
66
1
70
8
0
VERTEX
8
PFV
62
0
70
32
10
1.730769
20
2.673077
30
0
0
VERTEX
8
PFV
62
0
70
32
10
1.730769
20
2.634615
30
0
0
VERTEX
8
PFV
62
0
70
32
10
1.711538
20
2.634615
30
0
0
VERTEX
8
PFV
62
0
70
32
10
1.692308
20
2.653846
30
0
0
VERTEX
8
PFV
62
0
70
32
10
1.692308
20
2.673077
30
0
0
VERTEX
8
PFV
62
0
70
32
10
1.730769
20
2.673077
30
0
0
SEQEND
0
POLYLINE
8
PFV
62
0
66
1
70
8
0
VERTEX
8
PFV
62
0
70
32
10
2.269231
20
2.730769
30
0
0
VERTEX
8
PFV
62
0
70
32
10
2.269231
20
2.750000
30
0
0
SEQEND
0
POLYLINE
8
PFV
62
0
66
1
70
8
0
VERTEX
8
PFV
62
0
70
32
10
1.942308
20
2.865385
30
0
0
VERTEX
8
PFV
62
0
70
32
10
1.942308
20
2.884615
30
0
0
SEQEND
0
POLYLINE
8
PFV
62
0
66
1
70
8
0
VERTEX
8
PFV
62
0
70
32
10
1.903846
20
3.038462
30
0
0
VERTEX
8
PFV
62
0
70
32
10
1.807692
20
3.115385
30
0
0
VERTEX
8
PFV
62
0
70
32
10
1.903846
20
3.250000
30
0
0
VERTEX
8
PFV
62
0
70
32
10
2.269231
20
3.596154
30
0
0
VERTEX
8
PFV
62
0
70
32
10
2.307692
20
3.596154
30
0
0
VERTEX
8
PFV
62
0
70
32
10
2.346154
20
3.480769
30
0
0
SEQEND
0
POLYLINE
8
PFV
62
0
66
1
70
8
0
VERTEX
8
PFV
62
0
70
32
10
1.903846
20
3.038462
30
0
0
VERTEX
8
PFV
62
0
70
32
10
1.884615
20
3.057692
30
0
0
SEQEND
0
POLYLINE
8
PFV
62
0
66
1
70
8
0
VERTEX
8
PFV
62
0
70
32
10
1.807692
20
3.153846
30
0
0
VERTEX
8
PFV
62
0
70
32
10
1.769231
20
3.173077
30
0
0
VERTEX
8
PFV
62
0
70
32
10
1.788462
20
3.307692
30
0
0
VERTEX
8
PFV
62
0
70
32
10
1.903846
20
3.423077
30
0
0
VERTEX
8
PFV
62
0
70
32
10
2.038462
20
3.461538
30
0
0
VERTEX
8
PFV
62
0
70
32
10
2.250000
20
3.673077
30
0
0
VERTEX
8
PFV
62
0
70
32
10
2.269231
20
3.596154
30
0
0
SEQEND
0
POLYLINE
8
PFV
62
0
66
1
70
8
0
VERTEX
8
PFV
62
0
70
32
10
1.769231
20
3.288462
30
0
0
VERTEX
8
PFV
62
0
70
32
10
1.692308
20
3.346154
30
0
0
VERTEX
8
PFV
62
0
70
32
10
1.692308
20
3.461538
30
0
0
VERTEX
8
PFV
62
0
70
32
10
1.826923
20
3.596154
30
0
0
VERTEX
8
PFV
62
0
70
32
10
1.903846
20
3.615385
30
0
0
VERTEX
8
PFV
62
0
70
32
10
2.153846
20
3.846154
30
0
0
VERTEX
8
PFV
62
0
70
32
10
2.192308
20
3.807692
30
0
0
VERTEX
8
PFV
62
0
70
32
10
2.173077
20
3.692308
30
0
0
VERTEX
8
PFV
62
0
70
32
10
1.903846
20
3.423077
30
0
0
SEQEND
0
POLYLINE
8
PFV
62
0
66
1
70
8
0
VERTEX
8
PFV
62
0
70
32
10
1.673077
20
3.442308
30
0
0
VERTEX
8
PFV
62
0
70
32
10
1.634615
20
3.480769
30
0
0
VERTEX
8
PFV
62
0
70
32
10
1.634615
20
3.596154
30
0
0
VERTEX
8
PFV
62
0
70
32
10
1.788462
20
3.730769
30
0
0
VERTEX
8
PFV
62
0
70
32
10
1.884615
20
3.750000
30
0
0
VERTEX
8
PFV
62
0
70
32
10
2.115385
20
3.961538
30
0
0
VERTEX
8
PFV
62
0
70
32
10
2.134615
20
3.846154
30
0
0
SEQEND
0
POLYLINE
8
PFV
62
0
66
1
70
8
0
VERTEX
8
PFV
62
0
70
32
10
2.346154
20
3.480769
30
0
0
VERTEX
8
PFV
62
0
70
32
10
2.365385
20
3.461538
30
0
0
SEQEND
0
POLYLINE
8
PFV
62
0
66
1
70
8
0
VERTEX
8
PFV
62
0
70
32
10
1.634615
20
3.519231
30
0
0
VERTEX
8
PFV
62
0
70
32
10
1.596154
20
3.519231
30
0
0
VERTEX
8
PFV
62
0
70
32
10
1.596154
20
3.557692
30
0
0
VERTEX
8
PFV
62
0
70
32
10
1.615385
20
3.557692
30
0
0
SEQEND
0
POLYLINE
8
PFV
62
0
66
1
70
8
0
VERTEX
8
PFV
62
0
70
32
10
1.576923
20
3.596154
30
0
0
VERTEX
8
PFV
62
0
70
32
10
1.576923
20
3.634615
30
0
0
VERTEX
8
PFV
62
0
70
32
10
1.557692
20
3.653846
30
0
0
VERTEX
8
PFV
62
0
70
32
10
1.557692
20
3.711538
30
0
0
VERTEX
8
PFV
62
0
70
32
10
1.519231
20
3.711538
30
0
0
VERTEX
8
PFV
62
0
70
32
10
1.519231
20
3.673077
30
0
0
VERTEX
8
PFV
62
0
70
32
10
1.557692
20
3.673077
30
0
0
SEQEND
0
POLYLINE
8
PFV
62
0
66
1
70
8
0
VERTEX
8
PFV
62
0
70
32
10
1.576923
20
3.596154
30
0
0
VERTEX
8
PFV
62
0
70
32
10
1.615385
20
3.596154
30
0
0
SEQEND
0
POLYLINE
8
PFV
62
0
66
1
70
8
0
VERTEX
8
PFV
62
0
70
32
10
1.576923
20
3.596154
30
0
0
VERTEX
8
PFV
62
0
70
32
10
1.442308
20
3.653846
30
0
0
VERTEX
8
PFV
62
0
70
32
10
1.403846
20
3.788462
30
0
0
VERTEX
8
PFV
62
0
70
32
10
1.519231
20
3.846154
30
0
0
VERTEX
8
PFV
62
0
70
32
10
1.634615
20
3.846154
30
0
0
VERTEX
8
PFV
62
0
70
32
10
1.653846
20
3.615385
30
0
0
SEQEND
0
POLYLINE
8
PFV
62
0
66
1
70
8
0
VERTEX
8
PFV
62
0
70
32
10
1.865385
20
3.596154
30
0
0
VERTEX
8
PFV
62
0
70
32
10
1.865385
20
3.634615
30
0
0
VERTEX
8
PFV
62
0
70
32
10
1.903846
20
3.634615
30
0
0
SEQEND
0
POLYLINE
8
PFV
62
0
66
1
70
8
0
VERTEX
8
PFV
62
0
70
32
10
2.250000
20
3.673077
30
0
0
VERTEX
8
PFV
62
0
70
32
10
2.230769
20
3.692308
30
0
0
VERTEX
8
PFV
62
0
70
32
10
2.230769
20
3.711538
30
0
0
VERTEX
8
PFV
62
0
70
32
10
2.192308
20
3.711538
30
0
0
SEQEND
0
POLYLINE
8
PFV
62
0
66
1
70
8
0
VERTEX
8
PFV
62
0
70
32
10
1.403846
20
3.788462
30
0
0
VERTEX
8
PFV
62
0
70
32
10
1.365385
20
3.826923
30
0
0
VERTEX
8
PFV
62
0
70
32
10
1.346154
20
4.019231
30
0
0
VERTEX
8
PFV
62
0
70
32
10
1.346154
20
4.192308
30
0
0
VERTEX
8
PFV
62
0
70
32
10
1.403846
20
4.269231
30
0
0
SEQEND
0
POLYLINE
8
PFV
62
0
66
1
70
8
0
VERTEX
8
PFV
62
0
70
32
10
1.461538
20
3.826923
30
0
0
VERTEX
8
PFV
62
0
70
32
10
1.461538
20
3.846154
30
0
0
VERTEX
8
PFV
62
0
70
32
10
1.480769
20
3.865385
30
0
0
VERTEX
8
PFV
62
0
70
32
10
1.500000
20
3.865385
30
0
0
VERTEX
8
PFV
62
0
70
32
10
1.500000
20
3.846154
30
0
0
SEQEND
0
POLYLINE
8
PFV
62
0
66
1
70
8
0
VERTEX
8
PFV
62
0
70
32
10
1.634615
20
3.846154
30
0
0
VERTEX
8
PFV
62
0
70
32
10
1.673077
20
3.980769
30
0
0
VERTEX
8
PFV
62
0
70
32
10
1.923077
20
4.211538
30
0
0
VERTEX
8
PFV
62
0
70
32
10
1.865385
20
4.923077
30
0
0
VERTEX
8
PFV
62
0
70
32
10
1.942308
20
5.673077
30
0
0
VERTEX
8
PFV
62
0
70
32
10
2.038462
20
6.038462
30
0
0
VERTEX
8
PFV
62
0
70
32
10
2.192308
20
6.346154
30
0
0
VERTEX
8
PFV
62
0
70
32
10
2.173077
20
6.480769
30
0
0
VERTEX
8
PFV
62
0
70
32
10
1.961538
20
6.673077
30
0
0
VERTEX
8
PFV
62
0
70
32
10
1.980769
20
6.750000
30
0
0
VERTEX
8
PFV
62
0
70
32
10
2.019231
20
6.750000
30
0
0
VERTEX
8
PFV
62
0
70
32
10
2.230769
20
6.519231
30
0
0
VERTEX
8
PFV
62
0
70
32
10
2.288462
20
6.538462
30
0
0
VERTEX
8
PFV
62
0
70
32
10
2.326923
20
6.634615
30
0
0
VERTEX
8
PFV
62
0
70
32
10
2.326923
20
6.750000
30
0
0
VERTEX
8
PFV
62
0
70
32
10
2.153846
20
6.923077
30
0
0
VERTEX
8
PFV
62
0
70
32
10
2.115385
20
6.942308
30
0
0
VERTEX
8
PFV
62
0
70
32
10
2.115385
20
6.903846
30
0
0
VERTEX
8
PFV
62
0
70
32
10
2.153846
20
6.903846
30
0
0
SEQEND
0
POLYLINE
8
PFV
62
0
66
1
70
8
0
VERTEX
8
PFV
62
0
70
32
10
1.634615
20
3.923077
30
0
0
VERTEX
8
PFV
62
0
70
32
10
1.576923
20
3.980769
30
0
0
VERTEX
8
PFV
62
0
70
32
10
1.403846
20
3.980769
30
0
0
VERTEX
8
PFV
62
0
70
32
10
1.365385
20
3.961538
30
0
0
SEQEND
0
POLYLINE
8
PFV
62
0
66
1
70
8
0
VERTEX
8
PFV
62
0
70
32
10
1.634615
20
3.923077
30
0
0
VERTEX
8
PFV
62
0
70
32
10
1.615385
20
3.942308
30
0
0
SEQEND
0
POLYLINE
8
PFV
62
0
66
1
70
8
0
VERTEX
8
PFV
62
0
70
32
10
2.096154
20
3.961538
30
0
0
VERTEX
8
PFV
62
0
70
32
10
2.076923
20
4.096154
30
0
0
VERTEX
8
PFV
62
0
70
32
10
1.961538
20
4.173077
30
0
0
SEQEND
0
POLYLINE
8
PFV
62
0
66
1
70
8
0
VERTEX
8
PFV
62
0
70
32
10
2.096154
20
3.961538
30
0
0
VERTEX
8
PFV
62
0
70
32
10
2.115385
20
3.942308
30
0
0
SEQEND
0
POLYLINE
8
PFV
62
0
66
1
70
8
0
VERTEX
8
PFV
62
0
70
32
10
1.519231
20
3.980769
30
0
0
VERTEX
8
PFV
62
0
70
32
10
1.519231
20
4.019231
30
0
0
VERTEX
8
PFV
62
0
70
32
10
1.480769
20
4.019231
30
0
0
VERTEX
8
PFV
62
0
70
32
10
1.480769
20
4.153846
30
0
0
VERTEX
8
PFV
62
0
70
32
10
1.500000
20
4.173077
30
0
0
VERTEX
8
PFV
62
0
70
32
10
1.500000
20
4.211538
30
0
0
VERTEX
8
PFV
62
0
70
32
10
1.519231
20
4.230769
30
0
0
SEQEND
0
POLYLINE
8
PFV
62
0
66
1
70
8
0
VERTEX
8
PFV
62
0
70
32
10
1.480769
20
4.019231
30
0
0
VERTEX
8
PFV
62
0
70
32
10
1.480769
20
4.000000
30
0
0
SEQEND
0
POLYLINE
8
PFV
62
0
66
1
70
8
0
VERTEX
8
PFV
62
0
70
32
10
1.480769
20
4.134615
30
0
0
VERTEX
8
PFV
62
0
70
32
10
1.519231
20
4.134615
30
0
0
VERTEX
8
PFV
62
0
70
32
10
1.519231
20
4.153846
30
0
0
VERTEX
8
PFV
62
0
70
32
10
1.500000
20
4.173077
30
0
0
SEQEND
0
POLYLINE
8
PFV
62
0
66
1
70
8
0
VERTEX
8
PFV
62
0
70
32
10
1.326923
20
4.173077
30
0
0
VERTEX
8
PFV
62
0
70
32
10
1.288462
20
4.192308
30
0
0
VERTEX
8
PFV
62
0
70
32
10
1.250000
20
4.461538
30
0
0
VERTEX
8
PFV
62
0
70
32
10
1.211538
20
4.519231
30
0
0
VERTEX
8
PFV
62
0
70
32
10
1.211538
20
5.115385
30
0
0
VERTEX
8
PFV
62
0
70
32
10
1.250000
20
5.288462
30
0
0
VERTEX
8
PFV
62
0
70
32
10
1.365385
20
5.500000
30
0
0
VERTEX
8
PFV
62
0
70
32
10
1.423077
20
5.538462
30
0
0
VERTEX
8
PFV
62
0
70
32
10
1.480769
20
5.730769
30
0
0
VERTEX
8
PFV
62
0
70
32
10
1.519231
20
5.730769
30
0
0
VERTEX
8
PFV
62
0
70
32
10
1.500000
20
5.230769
30
0
0
VERTEX
8
PFV
62
0
70
32
10
1.538462
20
5.230769
30
0
0
VERTEX
8
PFV
62
0
70
32
10
1.615385
20
5.115385
30
0
0
VERTEX
8
PFV
62
0
70
32
10
1.634615
20
5.115385
30
0
0
VERTEX
8
PFV
62
0
70
32
10
1.865385
20
4.923077
30
0
0
SEQEND
0
POLYLINE
8
PFV
62
0
66
1
70
8
0
VERTEX
8
PFV
62
0
70
32
10
2.519231
20
4.403846
30
0
0
VERTEX
8
PFV
62
0
70
32
10
2.634615
20
4.403846
30
0
0
SEQEND
0
POLYLINE
8
PFV
62
0
66
1
70
8
0
VERTEX
8
PFV
62
0
70
32
10
1.230769
20
4.461538
30
0
0
VERTEX
8
PFV
62
0
70
32
10
1.192308
20
4.461538
30
0
0
VERTEX
8
PFV
62
0
70
32
10
1.192308
20
4.500000
30
0
0
VERTEX
8
PFV
62
0
70
32
10
1.211538
20
4.500000
30
0
0
SEQEND
0
POLYLINE
8
PFV
62
0
66
1
70
8
0
VERTEX
8
PFV
62
0
70
32
10
1.250000
20
4.461538
30
0
0
VERTEX
8
PFV
62
0
70
32
10
1.365385
20
4.538462
30
0
0
VERTEX
8
PFV
62
0
70
32
10
1.365385
20
4.576923
30
0
0
SEQEND
0
POLYLINE
8
PFV
62
0
66
1
70
8
0
VERTEX
8
PFV
62
0
70
32
10
1.250000
20
4.461538
30
0
0
VERTEX
8
PFV
62
0
70
32
10
1.230769
20
4.461538
30
0
0
SEQEND
0
POLYLINE
8
PFV
62
0
66
1
70
8
0
VERTEX
8
PFV
62
0
70
32
10
2.519231
20
4.615385
30
0
0
VERTEX
8
PFV
62
0
70
32
10
2.480769
20
5.038462
30
0
0
VERTEX
8
PFV
62
0
70
32
10
2.634615
20
5.192308
30
0
0
VERTEX
8
PFV
62
0
70
32
10
2.634615
20
5.384615
30
0
0
SEQEND
0
POLYLINE
8
PFV
62
0
66
1
70
8
0
VERTEX
8
PFV
62
0
70
32
10
2.519231
20
4.615385
30
0
0
VERTEX
8
PFV
62
0
70
32
10
2.538462
20
4.596154
30
0
0
SEQEND
0
POLYLINE
8
PFV
62
0
66
1
70
8
0
VERTEX
8
PFV
62
0
70
32
10
1.211538
20
4.673077
30
0
0
VERTEX
8
PFV
62
0
70
32
10
1.057692
20
4.750000
30
0
0
VERTEX
8
PFV
62
0
70
32
10
1.076923
20
4.846154
30
0
0
VERTEX
8
PFV
62
0
70
32
10
1.192308
20
4.942308
30
0
0
SEQEND
0
POLYLINE
8
PFV
62
0
66
1
70
8
0
VERTEX
8
PFV
62
0
70
32
10
2.480769
20
5.038462
30
0
0
VERTEX
8
PFV
62
0
70
32
10
2.442308
20
5.076923
30
0
0
VERTEX
8
PFV
62
0
70
32
10
2.423077
20
5.250000
30
0
0
VERTEX
8
PFV
62
0
70
32
10
2.384615
20
5.269231
30
0
0
VERTEX
8
PFV
62
0
70
32
10
2.423077
20
5.692308
30
0
0
VERTEX
8
PFV
62
0
70
32
10
2.480769
20
5.807692
30
0
0
VERTEX
8
PFV
62
0
70
32
10
2.500000
20
5.961538
30
0
0
VERTEX
8
PFV
62
0
70
32
10
2.634615
20
6.173077
30
0
0
VERTEX
8
PFV
62
0
70
32
10
2.653846
20
6.288462
30
0
0
VERTEX
8
PFV
62
0
70
32
10
2.769231
20
6.538462
30
0
0
VERTEX
8
PFV
62
0
70
32
10
2.826923
20
6.557692
30
0
0
VERTEX
8
PFV
62
0
70
32
10
2.846154
20
6.615385
30
0
0
VERTEX
8
PFV
62
0
70
32
10
2.903846
20
6.615385
30
0
0
SEQEND
0
POLYLINE
8
PFV
62
0
66
1
70
8
0
VERTEX
8
PFV
62
0
70
32
10
1.538462
20
5.230769
30
0
0
VERTEX
8
PFV
62
0
70
32
10
1.538462
20
5.250000
30
0
0
VERTEX
8
PFV
62
0
70
32
10
1.519231
20
5.269231
30
0
0
VERTEX
8
PFV
62
0
70
32
10
1.500000
20
5.269231
30
0
0
SEQEND
0
POLYLINE
8
PFV
62
0
66
1
70
8
0
VERTEX
8
PFV
62
0
70
32
10
1.442308
20
5.634615
30
0
0
VERTEX
8
PFV
62
0
70
32
10
1.519231
20
5.634615
30
0
0
SEQEND
0
POLYLINE
8
PFV
62
0
66
1
70
8
0
VERTEX
8
PFV
62
0
70
32
10
1.557692
20
5.865385
30
0
0
VERTEX
8
PFV
62
0
70
32
10
1.615385
20
5.942308
30
0
0
VERTEX
8
PFV
62
0
70
32
10
1.692308
20
6.230769
30
0
0
SEQEND
0
POLYLINE
8
PFV
62
0
66
1
70
8
0
VERTEX
8
PFV
62
0
70
32
10
1.557692
20
5.865385
30
0
0
VERTEX
8
PFV
62
0
70
32
10
1.538462
20
5.769231
30
0
0
VERTEX
8
PFV
62
0
70
32
10
1.500000
20
5.750000
30
0
0
VERTEX
8
PFV
62
0
70
32
10
1.519231
20
5.884615
30
0
0
VERTEX
8
PFV
62
0
70
32
10
1.557692
20
5.980769
30
0
0
SEQEND
0
POLYLINE
8
PFV
62
0
66
1
70
8
0
VERTEX
8
PFV
62
0
70
32
10
1.557692
20
5.865385
30
0
0
VERTEX
8
PFV
62
0
70
32
10
1.538462
20
5.884615
30
0
0
SEQEND
0
POLYLINE
8
PFV
62
0
66
1
70
8
0
VERTEX
8
PFV
62
0
70
32
10
1.538462
20
5.884615
30
0
0
VERTEX
8
PFV
62
0
70
32
10
1.557692
20
5.865385
30
0
0
SEQEND
0
POLYLINE
8
PFV
62
0
66
1
70
8
0
VERTEX
8
PFV
62
0
70
32
10
1.576923
20
5.923077
30
0
0
VERTEX
8
PFV
62
0
70
32
10
1.596154
20
5.923077
30
0
0
SEQEND
0
POLYLINE
8
PFV
62
0
66
1
70
8
0
VERTEX
8
PFV
62
0
70
32
10
1.576923
20
5.923077
30
0
0
VERTEX
8
PFV
62
0
70
32
10
1.557692
20
5.942308
30
0
0
SEQEND
0
POLYLINE
8
PFV
62
0
66
1
70
8
0
VERTEX
8
PFV
62
0
70
32
10
2.192308
20
6.442308
30
0
0
VERTEX
8
PFV
62
0
70
32
10
2.230769
20
6.442308
30
0
0
VERTEX
8
PFV
62
0
70
32
10
2.230769
20
6.480769
30
0
0
VERTEX
8
PFV
62
0
70
32
10
2.250000
20
6.500000
30
0
0
VERTEX
8
PFV
62
0
70
32
10
2.250000
20
6.519231
30
0
0
SEQEND
0
POLYLINE
8
PFV
62
0
66
1
70
8
0
VERTEX
8
PFV
62
0
70
32
10
2.192308
20
6.442308
30
0
0
VERTEX
8
PFV
62
0
70
32
10
2.173077
20
6.461538
30
0
0
SEQEND
0
POLYLINE
8
PFV
62
0
66
1
70
8
0
VERTEX
8
PFV
62
0
70
32
10
2.750000
20
6.500000
30
0
0
VERTEX
8
PFV
62
0
70
32
10
2.769231
20
6.500000
30
0
0
SEQEND
0
POLYLINE
8
PFV
62
0
66
1
70
8
0
VERTEX
8
PFV
62
0
70
32
10
2.750000
20
6.500000
30
0
0
VERTEX
8
PFV
62
0
70
32
10
2.480769
20
6.788462
30
0
0
VERTEX
8
PFV
62
0
70
32
10
2.403846
20
6.769231
30
0
0
VERTEX
8
PFV
62
0
70
32
10
2.346154
20
6.711538
30
0
0
SEQEND
0
POLYLINE
8
PFV
62
0
66
1
70
8
0
VERTEX
8
PFV
62
0
70
32
10
2.250000
20
6.519231
30
0
0
VERTEX
8
PFV
62
0
70
32
10
2.230769
20
6.538462
30
0
0
SEQEND
0
POLYLINE
8
PFV
62
0
66
1
70
8
0
VERTEX
8
PFV
62
0
70
32
10
2.730769
20
6.538462
30
0
0
VERTEX
8
PFV
62
0
70
32
10
2.769231
20
6.538462
30
0
0
SEQEND
0
POLYLINE
8
PFV
62
0
66
1
70
8
0
VERTEX
8
PFV
62
0
70
32
10
2.865385
20
6.615385
30
0
0
VERTEX
8
PFV
62
0
70
32
10
2.865385
20
6.653846
30
0
0
VERTEX
8
PFV
62
0
70
32
10
2.942308
20
6.673077
30
0
0
VERTEX
8
PFV
62
0
70
32
10
3.019231
20
6.769231
30
0
0
VERTEX
8
PFV
62
0
70
32
10
3.019231
20
6.846154
30
0
0
VERTEX
8
PFV
62
0
70
32
10
3.096154
20
6.884615
30
0
0
VERTEX
8
PFV
62
0
70
32
10
2.807692
20
7.173077
30
0
0
VERTEX
8
PFV
62
0
70
32
10
2.750000
20
7.134615
30
0
0
VERTEX
8
PFV
62
0
70
32
10
2.750000
20
7.076923
30
0
0
VERTEX
8
PFV
62
0
70
32
10
2.769231
20
7.076923
30
0
0
VERTEX
8
PFV
62
0
70
32
10
3.000000
20
6.846154
30
0
0
VERTEX
8
PFV
62
0
70
32
10
3.019231
20
6.846154
30
0
0
SEQEND
0
POLYLINE
8
PFV
62
0
66
1
70
8
0
VERTEX
8
PFV
62
0
70
32
10
2.865385
20
6.615385
30
0
0
VERTEX
8
PFV
62
0
70
32
10
2.846154
20
6.596154
30
0
0
SEQEND
0
POLYLINE
8
PFV
62
0
66
1
70
8
0
VERTEX
8
PFV
62
0
70
32
10
2.346154
20
6.711538
30
0
0
VERTEX
8
PFV
62
0
70
32
10
2.326923
20
6.730769
30
0
0
SEQEND
0
POLYLINE
8
PFV
62
0
66
1
70
8
0
VERTEX
8
PFV
62
0
70
32
10
1.980769
20
6.750000
30
0
0
VERTEX
8
PFV
62
0
70
32
10
1.980769
20
6.769231
30
0
0
VERTEX
8
PFV
62
0
70
32
10
2.000000
20
6.788462
30
0
0
VERTEX
8
PFV
62
0
70
32
10
2.019231
20
6.769231
30
0
0
VERTEX
8
PFV
62
0
70
32
10
2.019231
20
6.750000
30
0
0
SEQEND
0
POLYLINE
8
PFV
62
0
66
1
70
8
0
VERTEX
8
PFV
62
0
70
32
10
1.980769
20
6.750000
30
0
0
VERTEX
8
PFV
62
0
70
32
10
1.980769
20
6.730769
30
0
0
SEQEND
0
POLYLINE
8
PFV
62
0
66
1
70
8
0
VERTEX
8
PFV
62
0
70
32
10
2.019231
20
6.750000
30
0
0
VERTEX
8
PFV
62
0
70
32
10
2.019231
20
6.730769
30
0
0
SEQEND
0
POLYLINE
8
PFV
62
0
66
1
70
8
0
VERTEX
8
PFV
62
0
70
32
10
2.461538
20
6.788462
30
0
0
VERTEX
8
PFV
62
0
70
32
10
2.519231
20
6.903846
30
0
0
VERTEX
8
PFV
62
0
70
32
10
2.673077
20
7.057692
30
0
0
VERTEX
8
PFV
62
0
70
32
10
2.730769
20
7.096154
30
0
0
SEQEND
0
POLYLINE
8
PFV
62
0
66
1
70
8
0
VERTEX
8
PFV
62
0
70
32
10
2.461538
20
6.788462
30
0
0
VERTEX
8
PFV
62
0
70
32
10
2.480769
20
6.769231
30
0
0
SEQEND
0
POLYLINE
8
PFV
62
0
66
1
70
8
0
VERTEX
8
PFV
62
0
70
32
10
3.576923
20
6.807692
30
0
0
VERTEX
8
PFV
62
0
70
32
10
3.692308
20
6.903846
30
0
0
VERTEX
8
PFV
62
0
70
32
10
3.826923
20
6.961538
30
0
0
VERTEX
8
PFV
62
0
70
32
10
3.865385
20
6.942308
30
0
0
VERTEX
8
PFV
62
0
70
32
10
3.884615
20
7.000000
30
0
0
VERTEX
8
PFV
62
0
70
32
10
4.076923
20
7.115385
30
0
0
VERTEX
8
PFV
62
0
70
32
10
4.173077
20
7.115385
30
0
0
VERTEX
8
PFV
62
0
70
32
10
4.211538
20
7.096154
30
0
0
SEQEND
0
POLYLINE
8
PFV
62
0
66
1
70
8
0
VERTEX
8
PFV
62
0
70
32
10
3.576923
20
6.807692
30
0
0
VERTEX
8
PFV
62
0
70
32
10
3.384615
20
6.673077
30
0
0
VERTEX
8
PFV
62
0
70
32
10
3.326923
20
6.596154
30
0
0
VERTEX
8
PFV
62
0
70
32
10
3.211538
20
6.480769
30
0
0
SEQEND
0
POLYLINE
8
PFV
62
0
66
1
70
8
0
VERTEX
8
PFV
62
0
70
32
10
3.576923
20
6.807692
30
0
0
VERTEX
8
PFV
62
0
70
32
10
3.596154
20
6.788462
30
0
0
SEQEND
0
POLYLINE
8
PFV
62
0
66
1
70
8
0
VERTEX
8
PFV
62
0
70
32
10
3.096154
20
6.903846
30
0
0
VERTEX
8
PFV
62
0
70
32
10
3.173077
20
7.000000
30
0
0
VERTEX
8
PFV
62
0
70
32
10
3.230769
20
7.019231
30
0
0
VERTEX
8
PFV
62
0
70
32
10
3.269231
20
7.057692
30
0
0
VERTEX
8
PFV
62
0
70
32
10
3.346154
20
7.057692
30
0
0
VERTEX
8
PFV
62
0
70
32
10
3.346154
20
7.115385
30
0
0
VERTEX
8
PFV
62
0
70
32
10
3.211538
20
7.153846
30
0
0
VERTEX
8
PFV
62
0
70
32
10
3.038462
20
7.326923
30
0
0
VERTEX
8
PFV
62
0
70
32
10
3.057692
20
7.403846
30
0
0
VERTEX
8
PFV
62
0
70
32
10
3.211538
20
7.423077
30
0
0
SEQEND
0
POLYLINE
8
PFV
62
0
66
1
70
8
0
VERTEX
8
PFV
62
0
70
32
10
3.096154
20
6.903846
30
0
0
VERTEX
8
PFV
62
0
70
32
10
3.076923
20
6.903846
30
0
0
SEQEND
0
POLYLINE
8
PFV
62
0
66
1
70
8
0
VERTEX
8
PFV
62
0
70
32
10
3.826923
20
6.961538
30
0
0
VERTEX
8
PFV
62
0
70
32
10
3.826923
20
6.980769
30
0
0
VERTEX
8
PFV
62
0
70
32
10
3.865385
20
6.980769
30
0
0
SEQEND
0
POLYLINE
8
PFV
62
0
66
1
70
8
0
VERTEX
8
PFV
62
0
70
32
10
3.826923
20
6.961538
30
0
0
VERTEX
8
PFV
62
0
70
32
10
3.826923
20
6.942308
30
0
0
SEQEND
0
POLYLINE
8
PFV
62
0
66
1
70
8
0
VERTEX
8
PFV
62
0
70
32
10
6.403846
20
6.961538
30
0
0
VERTEX
8
PFV
62
0
70
32
10
6.326923
20
7.038462
30
0
0
VERTEX
8
PFV
62
0
70
32
10
5.961538
20
7.192308
30
0
0
VERTEX
8
PFV
62
0
70
32
10
5.807692
20
7.211538
30
0
0
VERTEX
8
PFV
62
0
70
32
10
5.653846
20
7.269231
30
0
0
VERTEX
8
PFV
62
0
70
32
10
5.480769
20
7.307692
30
0
0
VERTEX
8
PFV
62
0
70
32
10
4.807692
20
7.288462
30
0
0
VERTEX
8
PFV
62
0
70
32
10
4.423077
20
7.230769
30
0
0
VERTEX
8
PFV
62
0
70
32
10
4.384615
20
7.192308
30
0
0
VERTEX
8
PFV
62
0
70
32
10
4.269231
20
7.173077
30
0
0
VERTEX
8
PFV
62
0
70
32
10
4.173077
20
7.134615
30
0
0
VERTEX
8
PFV
62
0
70
32
10
4.173077
20
7.115385
30
0
0
SEQEND
0
POLYLINE
8
PFV
62
0
66
1
70
8
0
VERTEX
8
PFV
62
0
70
32
10
6.403846
20
6.961538
30
0
0
VERTEX
8
PFV
62
0
70
32
10
6.480769
20
6.961538
30
0
0
VERTEX
8
PFV
62
0
70
32
10
6.673077
20
6.826923
30
0
0
VERTEX
8
PFV
62
0
70
32
10
7.057692
20
6.538462
30
0
0
VERTEX
8
PFV
62
0
70
32
10
7.307692
20
6.250000
30
0
0
VERTEX
8
PFV
62
0
70
32
10
7.326923
20
6.173077
30
0
0
SEQEND
0
POLYLINE
8
PFV
62
0
66
1
70
8
0
VERTEX
8
PFV
62
0
70
32
10
6.403846
20
6.961538
30
0
0
VERTEX
8
PFV
62
0
70
32
10
6.384615
20
6.942308
30
0
0
VERTEX
8
PFV
62
0
70
32
10
6.346154
20
6.942308
30
0
0
SEQEND
0
POLYLINE
8
PFV
62
0
66
1
70
8
0
VERTEX
8
PFV
62
0
70
32
10
3.173077
20
7.000000
30
0
0
VERTEX
8
PFV
62
0
70
32
10
3.038462
20
7.115385
30
0
0
VERTEX
8
PFV
62
0
70
32
10
2.903846
20
7.250000
30
0
0
VERTEX
8
PFV
62
0
70
32
10
2.942308
20
7.307692
30
0
0
VERTEX
8
PFV
62
0
70
32
10
3.038462
20
7.326923
30
0
0
SEQEND
0
POLYLINE
8
PFV
62
0
66
1
70
8
0
VERTEX
8
PFV
62
0
70
32
10
2.730769
20
7.096154
30
0
0
VERTEX
8
PFV
62
0
70
32
10
2.750000
20
7.096154
30
0
0
SEQEND
0
POLYLINE
8
PFV
62
0
66
1
70
8
0
VERTEX
8
PFV
62
0
70
32
10
3.346154
20
7.096154
30
0
0
VERTEX
8
PFV
62
0
70
32
10
3.384615
20
7.096154
30
0
0
VERTEX
8
PFV
62
0
70
32
10
3.403846
20
7.115385
30
0
0
VERTEX
8
PFV
62
0
70
32
10
3.403846
20
7.153846
30
0
0
VERTEX
8
PFV
62
0
70
32
10
3.423077
20
7.173077
30
0
0
VERTEX
8
PFV
62
0
70
32
10
3.423077
20
7.211538
30
0
0
SEQEND
0
POLYLINE
8
PFV
62
0
66
1
70
8
0
VERTEX
8
PFV
62
0
70
32
10
3.307692
20
7.115385
30
0
0
VERTEX
8
PFV
62
0
70
32
10
3.288462
20
7.096154
30
0
0
VERTEX
8
PFV
62
0
70
32
10
3.288462
20
7.076923
30
0
0
VERTEX
8
PFV
62
0
70
32
10
3.250000
20
7.076923
30
0
0
VERTEX
8
PFV
62
0
70
32
10
3.250000
20
7.096154
30
0
0
VERTEX
8
PFV
62
0
70
32
10
3.230769
20
7.115385
30
0
0
VERTEX
8
PFV
62
0
70
32
10
3.230769
20
7.134615
30
0
0
SEQEND
0
POLYLINE
8
PFV
62
0
66
1
70
8
0
VERTEX
8
PFV
62
0
70
32
10
4.173077
20
7.115385
30
0
0
VERTEX
8
PFV
62
0
70
32
10
4.173077
20
7.096154
30
0
0
SEQEND
0
POLYLINE
8
PFV
62
0
66
1
70
8
0
VERTEX
8
PFV
62
0
70
32
10
3.230769
20
7.134615
30
0
0
VERTEX
8
PFV
62
0
70
32
10
3.230769
20
7.153846
30
0
0
SEQEND
0
POLYLINE
8
PFV
62
0
66
1
70
8
0
VERTEX
8
PFV
62
0
70
32
10
2.826923
20
7.173077
30
0
0
VERTEX
8
PFV
62
0
70
32
10
2.826923
20
7.211538
30
0
0
VERTEX
8
PFV
62
0
70
32
10
2.846154
20
7.230769
30
0
0
VERTEX
8
PFV
62
0
70
32
10
2.865385
20
7.230769
30
0
0
VERTEX
8
PFV
62
0
70
32
10
2.884615
20
7.250000
30
0
0
VERTEX
8
PFV
62
0
70
32
10
2.903846
20
7.230769
30
0
0
VERTEX
8
PFV
62
0
70
32
10
2.903846
20
7.250000
30
0
0
SEQEND
0
POLYLINE
8
PFV
62
0
66
1
70
8
0
VERTEX
8
PFV
62
0
70
32
10
3.423077
20
7.211538
30
0
0
VERTEX
8
PFV
62
0
70
32
10
3.423077
20
7.230769
30
0
0
SEQEND
0
POLYLINE
8
PFV
62
0
66
1
70
8
0
VERTEX
8
PFV
62
0
70
32
10
3.519231
20
7.211538
30
0
0
VERTEX
8
PFV
62
0
70
32
10
3.557692
20
7.211538
30
0
0
VERTEX
8
PFV
62
0
70
32
10
3.576923
20
7.230769
30
0
0
VERTEX
8
PFV
62
0
70
32
10
3.576923
20
7.288462
30
0
0
VERTEX
8
PFV
62
0
70
32
10
3.596154
20
7.307692
30
0
0
VERTEX
8
PFV
62
0
70
32
10
3.596154
20
7.326923
30
0
0
VERTEX
8
PFV
62
0
70
32
10
3.557692
20
7.326923
30
0
0
SEQEND
0
POLYLINE
8
PFV
62
0
66
1
70
8
0
VERTEX
8
PFV
62
0
70
32
10
3.538462
20
7.288462
30
0
0
VERTEX
8
PFV
62
0
70
32
10
3.519231
20
7.288462
30
0
0
VERTEX
8
PFV
62
0
70
32
10
3.519231
20
7.326923
30
0
0
VERTEX
8
PFV
62
0
70
32
10
3.557692
20
7.326923
30
0
0
SEQEND
0
POLYLINE
8
PFV
62
0
66
1
70
8
0
VERTEX
8
PFV
62
0
70
32
10
3.557692
20
7.288462
30
0
0
VERTEX
8
PFV
62
0
70
32
10
3.538462
20
7.288462
30
0
0
SEQEND
0
POLYLINE
8
PFV
62
0
66
1
70
8
0
VERTEX
8
PFV
62
0
70
32
10
3.576923
20
7.288462
30
0
0
VERTEX
8
PFV
62
0
70
32
10
3.596154
20
7.288462
30
0
0
SEQEND
0
POLYLINE
8
PFV
62
0
66
1
70
8
0
VERTEX
8
PFV
62
0
70
32
10
4.846154
20
7.288462
30
0
0
VERTEX
8
PFV
62
0
70
32
10
4.846154
20
7.269231
30
0
0
VERTEX
8
PFV
62
0
70
32
10
4.865385
20
7.250000
30
0
0
VERTEX
8
PFV
62
0
70
32
10
4.903846
20
7.250000
30
0
0
SEQEND
0
POLYLINE
8
PFV
62
0
66
1
70
8
0
VERTEX
8
PFV
62
0
70
32
10
4.846154
20
7.288462
30
0
0
VERTEX
8
PFV
62
0
70
32
10
4.865385
20
7.269231
30
0
0
SEQEND
0
POLYLINE
8
PFV
62
0
66
1
70
8
0
VERTEX
8
PFV
62
0
70
32
10
3.038462
20
7.326923
30
0
0
VERTEX
8
PFV
62
0
70
32
10
3.057692
20
7.326923
30
0
0
SEQEND
0
POLYLINE
8
PFV
62
0
66
1
70
8
0
VERTEX
8
PFV
62
0
70
32
10
3.461538
20
7.557692
30
0
0
VERTEX
8
PFV
62
0
70
32
10
3.480769
20
7.538462
30
0
0
SEQEND
0
POLYLINE
8
PFV
62
0
66
1
70
8
0
VERTEX
8
PFV
62
0
70
32
10
3.769231
20
7.711538
30
0
0
VERTEX
8
PFV
62
0
70
32
10
3.942308
20
7.538462
30
0
0
VERTEX
8
PFV
62
0
70
32
10
3.942308
20
7.423077
30
0
0
SEQEND
0
POLYLINE
8
PFV
62
0
66
1
70
8
0
VERTEX
8
PFV
62
0
70
32
10
3.769231
20
7.711538
30
0
0
VERTEX
8
PFV
62
0
70
32
10
3.788462
20
7.692308
30
0
0
SEQEND
0
POLYLINE
8
PFV
62
0
66
1
70
8
0
VERTEX
8
PFV
62
0
70
32
10
2.615385
20
0.365385
30
0
0
VERTEX
8
PFV
62
0
70
32
10
2.634615
20
0.365385
30
0
0
SEQEND
0
POLYLINE
8
PFV
62
0
66
1
70
8
0
VERTEX
8
PFV
62
0
70
32
10
4.826923
20
0.711538
30
0
0
VERTEX
8
PFV
62
0
70
32
10
4.903846
20
0.711538
30
0
0
SEQEND
0
POLYLINE
8
PFV
62
0
66
1
70
8
0
VERTEX
8
PFV
62
0
70
32
10
7.038462
20
1.115385
30
0
0
VERTEX
8
PFV
62
0
70
32
10
7.057692
20
1.115385
30
0
0
SEQEND
0
POLYLINE
8
PFV
62
0
66
1
70
8
0
VERTEX
8
PFV
62
0
70
32
10
1.480769
20
4.288462
30
0
0
VERTEX
8
PFV
62
0
70
32
10
1.480769
20
4.326923
30
0
0
VERTEX
8
PFV
62
0
70
32
10
1.461538
20
4.346154
30
0
0
VERTEX
8
PFV
62
0
70
32
10
1.461538
20
4.442308
30
0
0
SEQEND
0
POLYLINE
8
PFV
62
0
66
1
70
8
0
VERTEX
8
PFV
62
0
70
32
10
1.423077
20
4.980769
30
0
0
VERTEX
8
PFV
62
0
70
32
10
1.423077
20
5.057692
30
0
0
SEQEND
0
POLYLINE
8
PFV
62
0
66
1
70
8
0
VERTEX
8
PFV
62
0
70
32
10
7.730769
20
5.211538
30
0
0
VERTEX
8
PFV
62
0
70
32
10
7.730769
20
5.230769
30
0
0
SEQEND
0
POLYLINE
8
PFV
62
0
66
1
70
8
0
VERTEX
8
PFV
62
0
70
32
10
7.538462
20
5.846154
30
0
0
VERTEX
8
PFV
62
0
70
32
10
7.557692
20
5.846154
30
0
0
SEQEND
0
POLYLINE
8
PFV
62
0
66
1
70
8
0
VERTEX
8
PFV
62
0
70
32
10
2.903846
20
6.000000
30
0
0
VERTEX
8
PFV
62
0
70
32
10
2.923077
20
6.019231
30
0
0
SEQEND
0
POLYLINE
8
PFV
62
0
66
1
70
8
0
VERTEX
8
PFV
62
0
70
32
10
7.442308
20
6.019231
30
0
0
VERTEX
8
PFV
62
0
70
32
10
7.442308
20
6.038462
30
0
0
VERTEX
8
PFV
62
0
70
32
10
7.423077
20
6.057692
30
0
0
VERTEX
8
PFV
62
0
70
32
10
7.423077
20
6.076923
30
0
0
SEQEND
0
POLYLINE
8
PFV
62
0
66
1
70
8
0
VERTEX
8
PFV
62
0
70
32
10
1.730769
20
6.288462
30
0
0
VERTEX
8
PFV
62
0
70
32
10
1.730769
20
6.307692
30
0
0
VERTEX
8
PFV
62
0
70
32
10
1.750000
20
6.326923
30
0
0
VERTEX
8
PFV
62
0
70
32
10
1.750000
20
6.346154
30
0
0
SEQEND
0
POLYLINE
8
PFV
62
0
66
1
70
8
0
VERTEX
8
PFV
62
0
70
32
10
3.134615
20
6.365385
30
0
0
VERTEX
8
PFV
62
0
70
32
10
3.134615
20
6.384615
30
0
0
VERTEX
8
PFV
62
0
70
32
10
3.153846
20
6.403846
30
0
0
VERTEX
8
PFV
62
0
70
32
10
3.153846
20
6.423077
30
0
0
SEQEND
0
POLYLINE
8
PFV
62
0
66
1
70
8
0
VERTEX
8
PFV
62
0
70
32
10
1.769231
20
6.384615
30
0
0
VERTEX
8
PFV
62
0
70
32
10
1.788462
20
6.403846
30
0
0
VERTEX
8
PFV
62
0
70
32
10
1.788462
20
6.423077
30
0
0
VERTEX
8
PFV
62
0
70
32
10
1.807692
20
6.442308
30
0
0
VERTEX
8
PFV
62
0
70
32
10
1.807692
20
6.461538
30
0
0
VERTEX
8
PFV
62
0
70
32
10
1.826923
20
6.480769
30
0
0
VERTEX
8
PFV
62
0
70
32
10
1.826923
20
6.500000
30
0
0
SEQEND
0
POLYLINE
8
PFV
62
0
66
1
70
8
0
VERTEX
8
PFV
62
0
70
32
10
1.884615
20
6.576923
30
0
0
VERTEX
8
PFV
62
0
70
32
10
1.884615
20
6.615385
30
0
0
VERTEX
8
PFV
62
0
70
32
10
1.903846
20
6.634615
30
0
0
VERTEX
8
PFV
62
0
70
32
10
1.923077
20
6.634615
30
0
0
SEQEND
0
ENDSEC
0
EOF
