0
SECTION
2
HEADER
0
ENDSEC
0
SECTION
2
TABLES
0
ENDSEC
0
SECTION
2
BLOCKS
0
ENDSEC
0
SECTION
2
ENTITIES
0
POLYLINE
8
PFV
62
0
66
1
70
8
0
VERTEX
8
PFV
62
0
70
32
10
4.962264
20
2.037736
30
0
0
VERTEX
8
PFV
62
0
70
32
10
4.962264
20
2.150943
30
0
0
VERTEX
8
PFV
62
0
70
32
10
5.075472
20
2.245283
30
0
0
VERTEX
8
PFV
62
0
70
32
10
5.113208
20
2.283019
30
0
0
SEQEND
0
POLYLINE
8
PFV
62
0
66
1
70
8
0
VERTEX
8
PFV
62
0
70
32
10
4.962264
20
2.037736
30
0
0
VERTEX
8
PFV
62
0
70
32
10
5.000000
20
2.037736
30
0
0
VERTEX
8
PFV
62
0
70
32
10
5.000000
20
2.018868
30
0
0
VERTEX
8
PFV
62
0
70
32
10
4.981132
20
2.000000
30
0
0
VERTEX
8
PFV
62
0
70
32
10
4.962264
20
2.000000
30
0
0
VERTEX
8
PFV
62
0
70
32
10
4.962264
20
2.037736
30
0
0
SEQEND
0
POLYLINE
8
PFV
62
0
66
1
70
8
0
VERTEX
8
PFV
62
0
70
32
10
5.283019
20
2.377358
30
0
0
VERTEX
8
PFV
62
0
70
32
10
5.283019
20
2.490566
30
0
0
VERTEX
8
PFV
62
0
70
32
10
5.377358
20
2.547170
30
0
0
VERTEX
8
PFV
62
0
70
32
10
5.433962
20
2.641509
30
0
0
VERTEX
8
PFV
62
0
70
32
10
5.415094
20
2.735849
30
0
0
VERTEX
8
PFV
62
0
70
32
10
5.396226
20
2.698113
30
0
0
VERTEX
8
PFV
62
0
70
32
10
5.433962
20
2.698113
30
0
0
SEQEND
0
POLYLINE
8
PFV
62
0
66
1
70
8
0
VERTEX
8
PFV
62
0
70
32
10
5.283019
20
2.377358
30
0
0
VERTEX
8
PFV
62
0
70
32
10
5.301887
20
2.377358
30
0
0
VERTEX
8
PFV
62
0
70
32
10
5.301887
20
2.358491
30
0
0
VERTEX
8
PFV
62
0
70
32
10
5.283019
20
2.339623
30
0
0
VERTEX
8
PFV
62
0
70
32
10
5.264151
20
2.339623
30
0
0
VERTEX
8
PFV
62
0
70
32
10
5.264151
20
2.377358
30
0
0
VERTEX
8
PFV
62
0
70
32
10
5.283019
20
2.377358
30
0
0
SEQEND
0
POLYLINE
8
PFV
62
0
66
1
70
8
0
VERTEX
8
PFV
62
0
70
32
10
7.490566
20
2.547170
30
0
0
VERTEX
8
PFV
62
0
70
32
10
7.490566
20
2.584906
30
0
0
VERTEX
8
PFV
62
0
70
32
10
7.433962
20
2.566038
30
0
0
VERTEX
8
PFV
62
0
70
32
10
7.452830
20
2.415094
30
0
0
VERTEX
8
PFV
62
0
70
32
10
7.471698
20
2.415094
30
0
0
VERTEX
8
PFV
62
0
70
32
10
7.528302
20
2.377358
30
0
0
VERTEX
8
PFV
62
0
70
32
10
7.547170
20
2.433962
30
0
0
SEQEND
0
POLYLINE
8
PFV
62
0
66
1
70
8
0
VERTEX
8
PFV
62
0
70
32
10
7.490566
20
2.547170
30
0
0
VERTEX
8
PFV
62
0
70
32
10
7.547170
20
2.547170
30
0
0
VERTEX
8
PFV
62
0
70
32
10
7.566038
20
2.528302
30
0
0
VERTEX
8
PFV
62
0
70
32
10
7.566038
20
2.490566
30
0
0
SEQEND
0
POLYLINE
8
PFV
62
0
66
1
70
8
0
VERTEX
8
PFV
62
0
70
32
10
7.490566
20
2.547170
30
0
0
VERTEX
8
PFV
62
0
70
32
10
7.471698
20
2.528302
30
0
0
VERTEX
8
PFV
62
0
70
32
10
7.452830
20
2.509434
30
0
0
VERTEX
8
PFV
62
0
70
32
10
7.452830
20
2.490566
30
0
0
VERTEX
8
PFV
62
0
70
32
10
7.490566
20
2.490566
30
0
0
SEQEND
0
POLYLINE
8
PFV
62
0
66
1
70
8
0
VERTEX
8
PFV
62
0
70
32
10
5.433962
20
2.679245
30
0
0
VERTEX
8
PFV
62
0
70
32
10
5.547170
20
2.735849
30
0
0
VERTEX
8
PFV
62
0
70
32
10
5.584906
20
2.811321
30
0
0
SEQEND
0
POLYLINE
8
PFV
62
0
66
1
70
8
0
VERTEX
8
PFV
62
0
70
32
10
3.490566
20
3.886792
30
0
0
VERTEX
8
PFV
62
0
70
32
10
3.528302
20
3.924528
30
0
0
VERTEX
8
PFV
62
0
70
32
10
3.433962
20
3.943396
30
0
0
VERTEX
8
PFV
62
0
70
32
10
3.339623
20
4.150943
30
0
0
VERTEX
8
PFV
62
0
70
32
10
3.320755
20
4.245283
30
0
0
VERTEX
8
PFV
62
0
70
32
10
3.320755
20
4.207547
30
0
0
SEQEND
0
POLYLINE
8
PFV
62
0
66
1
70
8
0
VERTEX
8
PFV
62
0
70
32
10
3.490566
20
3.886792
30
0
0
VERTEX
8
PFV
62
0
70
32
10
3.490566
20
3.811321
30
0
0
VERTEX
8
PFV
62
0
70
32
10
3.528302
20
3.811321
30
0
0
SEQEND
0
POLYLINE
8
PFV
62
0
66
1
70
8
0
VERTEX
8
PFV
62
0
70
32
10
3.490566
20
3.886792
30
0
0
VERTEX
8
PFV
62
0
70
32
10
3.471698
20
3.886792
30
0
0
VERTEX
8
PFV
62
0
70
32
10
3.471698
20
3.905660
30
0
0
VERTEX
8
PFV
62
0
70
32
10
3.490566
20
3.924528
30
0
0
VERTEX
8
PFV
62
0
70
32
10
3.509434
20
3.905660
30
0
0
VERTEX
8
PFV
62
0
70
32
10
3.490566
20
3.886792
30
0
0
SEQEND
0
POLYLINE
8
PFV
62
0
66
1
70
8
0
VERTEX
8
PFV
62
0
70
32
10
3.886792
20
4.169811
30
0
0
VERTEX
8
PFV
62
0
70
32
10
3.943396
20
4.169811
30
0
0
VERTEX
8
PFV
62
0
70
32
10
3.981132
20
4.226415
30
0
0
VERTEX
8
PFV
62
0
70
32
10
4.056604
20
4.264151
30
0
0
VERTEX
8
PFV
62
0
70
32
10
4.169811
20
4.433962
30
0
0
VERTEX
8
PFV
62
0
70
32
10
4.188679
20
4.433962
30
0
0
VERTEX
8
PFV
62
0
70
32
10
4.226415
20
4.339623
30
0
0
VERTEX
8
PFV
62
0
70
32
10
4.264151
20
4.339623
30
0
0
VERTEX
8
PFV
62
0
70
32
10
4.226415
20
4.396226
30
0
0
VERTEX
8
PFV
62
0
70
32
10
4.226415
20
4.377358
30
0
0
SEQEND
0
POLYLINE
8
PFV
62
0
66
1
70
8
0
VERTEX
8
PFV
62
0
70
32
10
3.886792
20
4.169811
30
0
0
VERTEX
8
PFV
62
0
70
32
10
3.886792
20
4.113208
30
0
0
VERTEX
8
PFV
62
0
70
32
10
3.905660
20
4.094340
30
0
0
VERTEX
8
PFV
62
0
70
32
10
3.905660
20
4.056604
30
0
0
SEQEND
0
POLYLINE
8
PFV
62
0
66
1
70
8
0
VERTEX
8
PFV
62
0
70
32
10
3.886792
20
4.169811
30
0
0
VERTEX
8
PFV
62
0
70
32
10
3.867925
20
4.169811
30
0
0
VERTEX
8
PFV
62
0
70
32
10
3.867925
20
4.188679
30
0
0
VERTEX
8
PFV
62
0
70
32
10
3.849057
20
4.207547
30
0
0
VERTEX
8
PFV
62
0
70
32
10
3.849057
20
4.245283
30
0
0
VERTEX
8
PFV
62
0
70
32
10
3.830189
20
4.264151
30
0
0
VERTEX
8
PFV
62
0
70
32
10
3.811321
20
4.283019
30
0
0
SEQEND
0
POLYLINE
8
PFV
62
0
66
1
70
8
0
VERTEX
8
PFV
62
0
70
32
10
3.320755
20
4.207547
30
0
0
VERTEX
8
PFV
62
0
70
32
10
3.339623
20
4.207547
30
0
0
SEQEND
0
POLYLINE
8
PFV
62
0
66
1
70
8
0
VERTEX
8
PFV
62
0
70
32
10
4.000000
20
4.245283
30
0
0
VERTEX
8
PFV
62
0
70
32
10
3.962264
20
4.339623
30
0
0
VERTEX
8
PFV
62
0
70
32
10
4.075472
20
4.452830
30
0
0
VERTEX
8
PFV
62
0
70
32
10
4.169811
20
4.471698
30
0
0
VERTEX
8
PFV
62
0
70
32
10
4.226415
20
4.528302
30
0
0
VERTEX
8
PFV
62
0
70
32
10
4.301887
20
4.528302
30
0
0
VERTEX
8
PFV
62
0
70
32
10
4.377358
20
4.452830
30
0
0
VERTEX
8
PFV
62
0
70
32
10
4.415094
20
4.452830
30
0
0
VERTEX
8
PFV
62
0
70
32
10
4.433962
20
4.415094
30
0
0
SEQEND
0
POLYLINE
8
PFV
62
0
66
1
70
8
0
VERTEX
8
PFV
62
0
70
32
10
4.169811
20
4.433962
30
0
0
VERTEX
8
PFV
62
0
70
32
10
4.188679
20
4.415094
30
0
0
SEQEND
0
POLYLINE
8
PFV
62
0
66
1
70
8
0
VERTEX
8
PFV
62
0
70
32
10
4.433962
20
4.433962
30
0
0
VERTEX
8
PFV
62
0
70
32
10
4.490566
20
4.547170
30
0
0
VERTEX
8
PFV
62
0
70
32
10
4.547170
20
4.547170
30
0
0
VERTEX
8
PFV
62
0
70
32
10
4.509434
20
4.509434
30
0
0
VERTEX
8
PFV
62
0
70
32
10
4.509434
20
4.528302
30
0
0
SEQEND
0
POLYLINE
8
PFV
62
0
66
1
70
8
0
VERTEX
8
PFV
62
0
70
32
10
4.075472
20
4.452830
30
0
0
VERTEX
8
PFV
62
0
70
32
10
4.075472
20
4.471698
30
0
0
VERTEX
8
PFV
62
0
70
32
10
3.886792
20
4.471698
30
0
0
VERTEX
8
PFV
62
0
70
32
10
3.886792
20
4.528302
30
0
0
VERTEX
8
PFV
62
0
70
32
10
3.867925
20
4.547170
30
0
0
VERTEX
8
PFV
62
0
70
32
10
3.811321
20
4.547170
30
0
0
SEQEND
0
POLYLINE
8
PFV
62
0
66
1
70
8
0
VERTEX
8
PFV
62
0
70
32
10
4.301887
20
4.528302
30
0
0
VERTEX
8
PFV
62
0
70
32
10
4.320755
20
4.584906
30
0
0
VERTEX
8
PFV
62
0
70
32
10
4.471698
20
4.622642
30
0
0
VERTEX
8
PFV
62
0
70
32
10
4.490566
20
4.566038
30
0
0
SEQEND
0
POLYLINE
8
PFV
62
0
66
1
70
8
0
VERTEX
8
PFV
62
0
70
32
10
4.301887
20
4.528302
30
0
0
VERTEX
8
PFV
62
0
70
32
10
4.301887
20
4.509434
30
0
0
SEQEND
0
POLYLINE
8
PFV
62
0
66
1
70
8
0
VERTEX
8
PFV
62
0
70
32
10
4.471698
20
4.622642
30
0
0
VERTEX
8
PFV
62
0
70
32
10
4.490566
20
4.679245
30
0
0
VERTEX
8
PFV
62
0
70
32
10
4.566038
20
4.679245
30
0
0
VERTEX
8
PFV
62
0
70
32
10
4.660377
20
4.584906
30
0
0
VERTEX
8
PFV
62
0
70
32
10
4.660377
20
4.528302
30
0
0
SEQEND
0
POLYLINE
8
PFV
62
0
66
1
70
8
0
VERTEX
8
PFV
62
0
70
32
10
4.471698
20
4.622642
30
0
0
VERTEX
8
PFV
62
0
70
32
10
4.471698
20
4.603774
30
0
0
SEQEND
0
POLYLINE
8
PFV
62
0
66
1
70
8
0
VERTEX
8
PFV
62
0
70
32
10
4.471698
20
4.622642
30
0
0
VERTEX
8
PFV
62
0
70
32
10
4.490566
20
4.641509
30
0
0
SEQEND
0
POLYLINE
8
PFV
62
0
66
1
70
8
0
VERTEX
8
PFV
62
0
70
32
10
2.679245
20
4.641509
30
0
0
VERTEX
8
PFV
62
0
70
32
10
2.679245
20
4.660377
30
0
0
VERTEX
8
PFV
62
0
70
32
10
2.641509
20
4.660377
30
0
0
SEQEND
0
POLYLINE
8
PFV
62
0
66
1
70
8
0
VERTEX
8
PFV
62
0
70
32
10
2.679245
20
4.641509
30
0
0
VERTEX
8
PFV
62
0
70
32
10
2.716981
20
4.641509
30
0
0
SEQEND
0
POLYLINE
8
PFV
62
0
66
1
70
8
0
VERTEX
8
PFV
62
0
70
32
10
2.679245
20
4.641509
30
0
0
VERTEX
8
PFV
62
0
70
32
10
2.679245
20
4.584906
30
0
0
SEQEND
0
POLYLINE
8
PFV
62
0
66
1
70
8
0
VERTEX
8
PFV
62
0
70
32
10
4.547170
20
4.679245
30
0
0
VERTEX
8
PFV
62
0
70
32
10
4.584906
20
4.773585
30
0
0
VERTEX
8
PFV
62
0
70
32
10
4.698113
20
4.792453
30
0
0
VERTEX
8
PFV
62
0
70
32
10
4.830189
20
4.867925
30
0
0
VERTEX
8
PFV
62
0
70
32
10
4.905660
20
4.811321
30
0
0
SEQEND
0
POLYLINE
8
PFV
62
0
66
1
70
8
0
VERTEX
8
PFV
62
0
70
32
10
4.547170
20
4.679245
30
0
0
VERTEX
8
PFV
62
0
70
32
10
4.566038
20
4.660377
30
0
0
SEQEND
0
POLYLINE
8
PFV
62
0
66
1
70
8
0
VERTEX
8
PFV
62
0
70
32
10
4.792453
20
4.867925
30
0
0
VERTEX
8
PFV
62
0
70
32
10
4.792453
20
4.905660
30
0
0
SEQEND
0
POLYLINE
8
PFV
62
0
66
1
70
8
0
VERTEX
8
PFV
62
0
70
32
10
3.698113
20
5.075472
30
0
0
VERTEX
8
PFV
62
0
70
32
10
3.698113
20
5.113208
30
0
0
SEQEND
0
POLYLINE
8
PFV
62
0
66
1
70
8
0
VERTEX
8
PFV
62
0
70
32
10
3.698113
20
5.075472
30
0
0
VERTEX
8
PFV
62
0
70
32
10
3.849057
20
5.132075
30
0
0
VERTEX
8
PFV
62
0
70
32
10
3.981132
20
5.245283
30
0
0
VERTEX
8
PFV
62
0
70
32
10
4.075472
20
5.264151
30
0
0
VERTEX
8
PFV
62
0
70
32
10
4.094340
20
5.320755
30
0
0
VERTEX
8
PFV
62
0
70
32
10
4.415094
20
5.490566
30
0
0
SEQEND
0
POLYLINE
8
PFV
62
0
66
1
70
8
0
VERTEX
8
PFV
62
0
70
32
10
3.698113
20
5.075472
30
0
0
VERTEX
8
PFV
62
0
70
32
10
3.698113
20
5.056604
30
0
0
VERTEX
8
PFV
62
0
70
32
10
3.679245
20
5.056604
30
0
0
VERTEX
8
PFV
62
0
70
32
10
3.660377
20
5.037736
30
0
0
VERTEX
8
PFV
62
0
70
32
10
3.641509
20
5.037736
30
0
0
VERTEX
8
PFV
62
0
70
32
10
3.622642
20
5.018868
30
0
0
VERTEX
8
PFV
62
0
70
32
10
3.603774
20
5.018868
30
0
0
SEQEND
0
POLYLINE
8
PFV
62
0
66
1
70
8
0
VERTEX
8
PFV
62
0
70
32
10
3.811321
20
5.113208
30
0
0
VERTEX
8
PFV
62
0
70
32
10
3.811321
20
5.150943
30
0
0
VERTEX
8
PFV
62
0
70
32
10
3.849057
20
5.150943
30
0
0
SEQEND
0
POLYLINE
8
PFV
62
0
66
1
70
8
0
VERTEX
8
PFV
62
0
70
32
10
0.339623
20
6.150943
30
0
0
VERTEX
8
PFV
62
0
70
32
10
0.471698
20
6.226415
30
0
0
VERTEX
8
PFV
62
0
70
32
10
0.471698
20
6.132075
30
0
0
SEQEND
0
POLYLINE
8
PFV
62
0
66
1
70
8
0
VERTEX
8
PFV
62
0
70
32
10
0.339623
20
6.150943
30
0
0
VERTEX
8
PFV
62
0
70
32
10
0.339623
20
6.094340
30
0
0
SEQEND
0
POLYLINE
8
PFV
62
0
66
1
70
8
0
VERTEX
8
PFV
62
0
70
32
10
0.339623
20
6.150943
30
0
0
VERTEX
8
PFV
62
0
70
32
10
0.283019
20
6.283019
30
0
0
VERTEX
8
PFV
62
0
70
32
10
0.207547
20
6.226415
30
0
0
VERTEX
8
PFV
62
0
70
32
10
0.207547
20
6.188679
30
0
0
SEQEND
0
POLYLINE
8
PFV
62
0
66
1
70
8
0
VERTEX
8
PFV
62
0
70
32
10
0.490566
20
6.150943
30
0
0
VERTEX
8
PFV
62
0
70
32
10
0.509434
20
6.150943
30
0
0
VERTEX
8
PFV
62
0
70
32
10
0.509434
20
6.075472
30
0
0
SEQEND
0
POLYLINE
8
PFV
62
0
66
1
70
8
0
VERTEX
8
PFV
62
0
70
32
10
0.452830
20
6.226415
30
0
0
VERTEX
8
PFV
62
0
70
32
10
0.433962
20
6.377358
30
0
0
VERTEX
8
PFV
62
0
70
32
10
0.301887
20
6.962264
30
0
0
VERTEX
8
PFV
62
0
70
32
10
0.226415
20
7.226415
30
0
0
VERTEX
8
PFV
62
0
70
32
10
0.094340
20
7.226415
30
0
0
VERTEX
8
PFV
62
0
70
32
10
0.018868
20
7.433962
30
0
0
VERTEX
8
PFV
62
0
70
32
10
0.000000
20
7.660377
30
0
0
SEQEND
0
POLYLINE
8
PFV
62
0
66
1
70
8
0
VERTEX
8
PFV
62
0
70
32
10
0.452830
20
6.226415
30
0
0
VERTEX
8
PFV
62
0
70
32
10
0.471698
20
6.207547
30
0
0
SEQEND
0
POLYLINE
8
PFV
62
0
66
1
70
8
0
VERTEX
8
PFV
62
0
70
32
10
0.264151
20
6.283019
30
0
0
VERTEX
8
PFV
62
0
70
32
10
0.226415
20
6.547170
30
0
0
VERTEX
8
PFV
62
0
70
32
10
0.188679
20
6.735849
30
0
0
VERTEX
8
PFV
62
0
70
32
10
0.132075
20
6.886792
30
0
0
VERTEX
8
PFV
62
0
70
32
10
0.113208
20
7.207547
30
0
0
SEQEND
0
POLYLINE
8
PFV
62
0
66
1
70
8
0
VERTEX
8
PFV
62
0
70
32
10
0.264151
20
6.283019
30
0
0
VERTEX
8
PFV
62
0
70
32
10
0.283019
20
6.264151
30
0
0
SEQEND
0
POLYLINE
8
PFV
62
0
66
1
70
8
0
VERTEX
8
PFV
62
0
70
32
10
0.264151
20
6.433962
30
0
0
VERTEX
8
PFV
62
0
70
32
10
0.283019
20
6.433962
30
0
0
VERTEX
8
PFV
62
0
70
32
10
0.301887
20
6.452830
30
0
0
VERTEX
8
PFV
62
0
70
32
10
0.377358
20
6.452830
30
0
0
VERTEX
8
PFV
62
0
70
32
10
0.396226
20
6.471698
30
0
0
SEQEND
0
POLYLINE
8
PFV
62
0
66
1
70
8
0
VERTEX
8
PFV
62
0
70
32
10
0.113208
20
7.207547
30
0
0
VERTEX
8
PFV
62
0
70
32
10
0.113208
20
7.226415
30
0
0
SEQEND
0
POLYLINE
8
PFV
62
0
66
1
70
8
0
VERTEX
8
PFV
62
0
70
32
10
0.207547
20
7.226415
30
0
0
VERTEX
8
PFV
62
0
70
32
10
0.207547
20
7.433962
30
0
0
VERTEX
8
PFV
62
0
70
32
10
0.132075
20
7.660377
30
0
0
VERTEX
8
PFV
62
0
70
32
10
0.113208
20
7.792453
30
0
0
VERTEX
8
PFV
62
0
70
32
10
0.094340
20
7.849057
30
0
0
SEQEND
0
POLYLINE
8
PFV
62
0
66
1
70
8
0
VERTEX
8
PFV
62
0
70
32
10
0.207547
20
7.226415
30
0
0
VERTEX
8
PFV
62
0
70
32
10
0.226415
20
7.207547
30
0
0
SEQEND
0
POLYLINE
8
PFV
62
0
66
1
70
8
0
VERTEX
8
PFV
62
0
70
32
10
3.490566
20
7.754717
30
0
0
VERTEX
8
PFV
62
0
70
32
10
3.547170
20
7.792453
30
0
0
VERTEX
8
PFV
62
0
70
32
10
3.528302
20
7.924528
30
0
0
VERTEX
8
PFV
62
0
70
32
10
3.471698
20
7.981132
30
0
0
VERTEX
8
PFV
62
0
70
32
10
3.490566
20
8.169811
30
0
0
VERTEX
8
PFV
62
0
70
32
10
3.509434
20
8.169811
30
0
0
VERTEX
8
PFV
62
0
70
32
10
3.584906
20
8.094340
30
0
0
VERTEX
8
PFV
62
0
70
32
10
3.584906
20
7.924528
30
0
0
VERTEX
8
PFV
62
0
70
32
10
3.547170
20
7.905660
30
0
0
SEQEND
0
POLYLINE
8
PFV
62
0
66
1
70
8
0
VERTEX
8
PFV
62
0
70
32
10
3.490566
20
7.754717
30
0
0
VERTEX
8
PFV
62
0
70
32
10
3.452830
20
7.698113
30
0
0
VERTEX
8
PFV
62
0
70
32
10
3.320755
20
7.716981
30
0
0
VERTEX
8
PFV
62
0
70
32
10
3.283019
20
7.811321
30
0
0
VERTEX
8
PFV
62
0
70
32
10
3.433962
20
7.811321
30
0
0
VERTEX
8
PFV
62
0
70
32
10
3.490566
20
7.754717
30
0
0
VERTEX
8
PFV
62
0
70
32
10
3.509434
20
7.773585
30
0
0
SEQEND
0
POLYLINE
8
PFV
62
0
66
1
70
8
0
VERTEX
8
PFV
62
0
70
32
10
3.490566
20
7.754717
30
0
0
VERTEX
8
PFV
62
0
70
32
10
3.471698
20
7.754717
30
0
0
SEQEND
0
POLYLINE
8
PFV
62
0
66
1
70
8
0
VERTEX
8
PFV
62
0
70
32
10
3.547170
20
7.905660
30
0
0
VERTEX
8
PFV
62
0
70
32
10
3.528302
20
7.905660
30
0
0
SEQEND
0
POLYLINE
8
PFV
62
0
66
1
70
8
0
VERTEX
8
PFV
62
0
70
32
10
3.490566
20
8.169811
30
0
0
VERTEX
8
PFV
62
0
70
32
10
3.490566
20
8.188679
30
0
0
VERTEX
8
PFV
62
0
70
32
10
3.433962
20
8.188679
30
0
0
VERTEX
8
PFV
62
0
70
32
10
3.415094
20
8.207547
30
0
0
SEQEND
0
POLYLINE
8
PFV
62
0
66
1
70
8
0
VERTEX
8
PFV
62
0
70
32
10
3.490566
20
8.169811
30
0
0
VERTEX
8
PFV
62
0
70
32
10
3.509434
20
8.150943
30
0
0
SEQEND
0
POLYLINE
8
PFV
62
0
66
1
70
8
0
VERTEX
8
PFV
62
0
70
32
10
2.849057
20
8.226415
30
0
0
VERTEX
8
PFV
62
0
70
32
10
2.886792
20
8.377358
30
0
0
VERTEX
8
PFV
62
0
70
32
10
2.981132
20
8.415094
30
0
0
VERTEX
8
PFV
62
0
70
32
10
2.981132
20
8.509434
30
0
0
SEQEND
0
POLYLINE
8
PFV
62
0
66
1
70
8
0
VERTEX
8
PFV
62
0
70
32
10
2.849057
20
8.226415
30
0
0
VERTEX
8
PFV
62
0
70
32
10
2.886792
20
8.226415
30
0
0
VERTEX
8
PFV
62
0
70
32
10
2.886792
20
8.264151
30
0
0
VERTEX
8
PFV
62
0
70
32
10
2.867925
20
8.264151
30
0
0
SEQEND
0
POLYLINE
8
PFV
62
0
66
1
70
8
0
VERTEX
8
PFV
62
0
70
32
10
2.849057
20
8.226415
30
0
0
VERTEX
8
PFV
62
0
70
32
10
2.830189
20
8.226415
30
0
0
VERTEX
8
PFV
62
0
70
32
10
2.830189
20
8.188679
30
0
0
VERTEX
8
PFV
62
0
70
32
10
2.811321
20
8.169811
30
0
0
VERTEX
8
PFV
62
0
70
32
10
2.811321
20
8.150943
30
0
0
SEQEND
0
POLYLINE
8
PFV
62
0
66
1
70
8
0
VERTEX
8
PFV
62
0
70
32
10
2.849057
20
8.339623
30
0
0
VERTEX
8
PFV
62
0
70
32
10
2.811321
20
8.415094
30
0
0
VERTEX
8
PFV
62
0
70
32
10
2.735849
20
8.528302
30
0
0
VERTEX
8
PFV
62
0
70
32
10
2.773585
20
8.547170
30
0
0
SEQEND
0
POLYLINE
8
PFV
62
0
66
1
70
8
0
VERTEX
8
PFV
62
0
70
32
10
2.849057
20
8.339623
30
0
0
VERTEX
8
PFV
62
0
70
32
10
2.830189
20
8.339623
30
0
0
VERTEX
8
PFV
62
0
70
32
10
2.830189
20
8.301887
30
0
0
SEQEND
0
POLYLINE
8
PFV
62
0
66
1
70
8
0
VERTEX
8
PFV
62
0
70
32
10
2.867925
20
8.339623
30
0
0
VERTEX
8
PFV
62
0
70
32
10
2.886792
20
8.339623
30
0
0
SEQEND
0
POLYLINE
8
PFV
62
0
66
1
70
8
0
VERTEX
8
PFV
62
0
70
32
10
2.867925
20
8.339623
30
0
0
VERTEX
8
PFV
62
0
70
32
10
2.849057
20
8.339623
30
0
0
SEQEND
0
POLYLINE
8
PFV
62
0
66
1
70
8
0
VERTEX
8
PFV
62
0
70
32
10
2.849057
20
8.377358
30
0
0
VERTEX
8
PFV
62
0
70
32
10
2.886792
20
8.377358
30
0
0
SEQEND
0
POLYLINE
8
PFV
62
0
66
1
70
8
0
VERTEX
8
PFV
62
0
70
32
10
2.981132
20
8.433962
30
0
0
VERTEX
8
PFV
62
0
70
32
10
3.018868
20
8.433962
30
0
0
VERTEX
8
PFV
62
0
70
32
10
3.037736
20
8.415094
30
0
0
VERTEX
8
PFV
62
0
70
32
10
3.075472
20
8.415094
30
0
0
VERTEX
8
PFV
62
0
70
32
10
3.094340
20
8.396226
30
0
0
VERTEX
8
PFV
62
0
70
32
10
3.113208
20
8.396226
30
0
0
VERTEX
8
PFV
62
0
70
32
10
3.113208
20
8.433962
30
0
0
SEQEND
0
POLYLINE
8
PFV
62
0
66
1
70
8
0
VERTEX
8
PFV
62
0
70
32
10
3.018868
20
8.433962
30
0
0
VERTEX
8
PFV
62
0
70
32
10
3.018868
20
8.452830
30
0
0
VERTEX
8
PFV
62
0
70
32
10
3.000000
20
8.471698
30
0
0
VERTEX
8
PFV
62
0
70
32
10
2.981132
20
8.471698
30
0
0
SEQEND
0
POLYLINE
8
PFV
62
0
66
1
70
8
0
VERTEX
8
PFV
62
0
70
32
10
3.018868
20
8.433962
30
0
0
VERTEX
8
PFV
62
0
70
32
10
3.018868
20
8.415094
30
0
0
SEQEND
0
POLYLINE
8
PFV
62
0
66
1
70
8
0
VERTEX
8
PFV
62
0
70
32
10
2.735849
20
8.528302
30
0
0
VERTEX
8
PFV
62
0
70
32
10
2.528302
20
8.754717
30
0
0
VERTEX
8
PFV
62
0
70
32
10
2.301887
20
8.943396
30
0
0
VERTEX
8
PFV
62
0
70
32
10
2.245283
20
8.943396
30
0
0
VERTEX
8
PFV
62
0
70
32
10
2.264151
20
9.037736
30
0
0
VERTEX
8
PFV
62
0
70
32
10
2.452830
20
9.226415
30
0
0
SEQEND
0
POLYLINE
8
PFV
62
0
66
1
70
8
0
VERTEX
8
PFV
62
0
70
32
10
2.867925
20
8.716981
30
0
0
VERTEX
8
PFV
62
0
70
32
10
2.867925
20
8.735849
30
0
0
VERTEX
8
PFV
62
0
70
32
10
2.849057
20
8.754717
30
0
0
VERTEX
8
PFV
62
0
70
32
10
2.849057
20
8.773585
30
0
0
VERTEX
8
PFV
62
0
70
32
10
2.867925
20
8.792453
30
0
0
VERTEX
8
PFV
62
0
70
32
10
2.886792
20
8.792453
30
0
0
SEQEND
0
POLYLINE
8
PFV
62
0
66
1
70
8
0
VERTEX
8
PFV
62
0
70
32
10
2.867925
20
8.716981
30
0
0
VERTEX
8
PFV
62
0
70
32
10
2.905660
20
8.716981
30
0
0
VERTEX
8
PFV
62
0
70
32
10
2.924528
20
8.735849
30
0
0
VERTEX
8
PFV
62
0
70
32
10
2.943396
20
8.754717
30
0
0
VERTEX
8
PFV
62
0
70
32
10
2.962264
20
8.754717
30
0
0
SEQEND
0
POLYLINE
8
PFV
62
0
66
1
70
8
0
VERTEX
8
PFV
62
0
70
32
10
2.867925
20
8.716981
30
0
0
VERTEX
8
PFV
62
0
70
32
10
2.849057
20
8.698113
30
0
0
VERTEX
8
PFV
62
0
70
32
10
2.830189
20
8.679245
30
0
0
SEQEND
0
POLYLINE
8
PFV
62
0
66
1
70
8
0
VERTEX
8
PFV
62
0
70
32
10
1.113208
20
8.811321
30
0
0
VERTEX
8
PFV
62
0
70
32
10
1.075472
20
8.886792
30
0
0
VERTEX
8
PFV
62
0
70
32
10
0.924528
20
9.000000
30
0
0
VERTEX
8
PFV
62
0
70
32
10
0.867925
20
9.113208
30
0
0
SEQEND
0
POLYLINE
8
PFV
62
0
66
1
70
8
0
VERTEX
8
PFV
62
0
70
32
10
1.113208
20
8.811321
30
0
0
VERTEX
8
PFV
62
0
70
32
10
1.188679
20
8.811321
30
0
0
SEQEND
0
POLYLINE
8
PFV
62
0
66
1
70
8
0
VERTEX
8
PFV
62
0
70
32
10
1.113208
20
8.811321
30
0
0
VERTEX
8
PFV
62
0
70
32
10
1.075472
20
8.603774
30
0
0
VERTEX
8
PFV
62
0
70
32
10
1.301887
20
8.264151
30
0
0
VERTEX
8
PFV
62
0
70
32
10
1.716981
20
7.622642
30
0
0
VERTEX
8
PFV
62
0
70
32
10
1.792453
20
7.509434
30
0
0
VERTEX
8
PFV
62
0
70
32
10
1.811321
20
7.509434
30
0
0
VERTEX
8
PFV
62
0
70
32
10
1.849057
20
7.396226
30
0
0
VERTEX
8
PFV
62
0
70
32
10
1.867925
20
7.396226
30
0
0
VERTEX
8
PFV
62
0
70
32
10
1.905660
20
7.264151
30
0
0
SEQEND
0
POLYLINE
8
PFV
62
0
66
1
70
8
0
VERTEX
8
PFV
62
0
70
32
10
2.245283
20
8.943396
30
0
0
VERTEX
8
PFV
62
0
70
32
10
2.245283
20
8.698113
30
0
0
VERTEX
8
PFV
62
0
70
32
10
2.264151
20
8.679245
30
0
0
VERTEX
8
PFV
62
0
70
32
10
2.264151
20
8.622642
30
0
0
VERTEX
8
PFV
62
0
70
32
10
2.283019
20
8.603774
30
0
0
SEQEND
0
POLYLINE
8
PFV
62
0
66
1
70
8
0
VERTEX
8
PFV
62
0
70
32
10
2.320755
20
8.943396
30
0
0
VERTEX
8
PFV
62
0
70
32
10
2.377358
20
9.018868
30
0
0
VERTEX
8
PFV
62
0
70
32
10
2.716981
20
9.018868
30
0
0
SEQEND
0
POLYLINE
8
PFV
62
0
66
1
70
8
0
VERTEX
8
PFV
62
0
70
32
10
6.773585
20
8.943396
30
0
0
VERTEX
8
PFV
62
0
70
32
10
6.716981
20
9.000000
30
0
0
VERTEX
8
PFV
62
0
70
32
10
6.471698
20
9.113208
30
0
0
VERTEX
8
PFV
62
0
70
32
10
6.113208
20
9.301887
30
0
0
SEQEND
0
POLYLINE
8
PFV
62
0
66
1
70
8
0
VERTEX
8
PFV
62
0
70
32
10
6.773585
20
8.943396
30
0
0
VERTEX
8
PFV
62
0
70
32
10
6.867925
20
8.943396
30
0
0
VERTEX
8
PFV
62
0
70
32
10
6.943396
20
8.924528
30
0
0
VERTEX
8
PFV
62
0
70
32
10
6.924528
20
8.849057
30
0
0
VERTEX
8
PFV
62
0
70
32
10
6.905660
20
8.792453
30
0
0
SEQEND
0
POLYLINE
8
PFV
62
0
66
1
70
8
0
VERTEX
8
PFV
62
0
70
32
10
6.773585
20
8.943396
30
0
0
VERTEX
8
PFV
62
0
70
32
10
6.773585
20
8.867925
30
0
0
VERTEX
8
PFV
62
0
70
32
10
6.754717
20
8.849057
30
0
0
VERTEX
8
PFV
62
0
70
32
10
6.754717
20
8.792453
30
0
0
SEQEND
0
POLYLINE
8
PFV
62
0
66
1
70
8
0
VERTEX
8
PFV
62
0
70
32
10
6.773585
20
8.943396
30
0
0
VERTEX
8
PFV
62
0
70
32
10
6.754717
20
8.962264
30
0
0
SEQEND
0
POLYLINE
8
PFV
62
0
66
1
70
8
0
VERTEX
8
PFV
62
0
70
32
10
2.245283
20
9.018868
30
0
0
VERTEX
8
PFV
62
0
70
32
10
2.113208
20
9.075472
30
0
0
VERTEX
8
PFV
62
0
70
32
10
2.113208
20
9.207547
30
0
0
VERTEX
8
PFV
62
0
70
32
10
2.188679
20
9.283019
30
0
0
VERTEX
8
PFV
62
0
70
32
10
2.245283
20
9.283019
30
0
0
VERTEX
8
PFV
62
0
70
32
10
2.283019
20
9.264151
30
0
0
VERTEX
8
PFV
62
0
70
32
10
2.283019
20
9.301887
30
0
0
VERTEX
8
PFV
62
0
70
32
10
2.245283
20
9.283019
30
0
0
SEQEND
0
POLYLINE
8
PFV
62
0
66
1
70
8
0
VERTEX
8
PFV
62
0
70
32
10
2.094340
20
9.188679
30
0
0
VERTEX
8
PFV
62
0
70
32
10
1.981132
20
9.226415
30
0
0
VERTEX
8
PFV
62
0
70
32
10
1.924528
20
9.301887
30
0
0
VERTEX
8
PFV
62
0
70
32
10
1.735849
20
9.547170
30
0
0
VERTEX
8
PFV
62
0
70
32
10
1.735849
20
9.641509
30
0
0
VERTEX
8
PFV
62
0
70
32
10
1.886792
20
9.792453
30
0
0
VERTEX
8
PFV
62
0
70
32
10
1.924528
20
9.792453
30
0
0
VERTEX
8
PFV
62
0
70
32
10
2.000000
20
9.773585
30
0
0
VERTEX
8
PFV
62
0
70
32
10
2.018868
20
9.792453
30
0
0
SEQEND
0
POLYLINE
8
PFV
62
0
66
1
70
8
0
VERTEX
8
PFV
62
0
70
32
10
2.245283
20
9.283019
30
0
0
VERTEX
8
PFV
62
0
70
32
10
2.245283
20
9.264151
30
0
0
SEQEND
0
POLYLINE
8
PFV
62
0
66
1
70
8
0
VERTEX
8
PFV
62
0
70
32
10
1.716981
20
9.622642
30
0
0
VERTEX
8
PFV
62
0
70
32
10
1.660377
20
9.660377
30
0
0
VERTEX
8
PFV
62
0
70
32
10
1.547170
20
9.754717
30
0
0
VERTEX
8
PFV
62
0
70
32
10
1.490566
20
9.886792
30
0
0
VERTEX
8
PFV
62
0
70
32
10
1.301887
20
10.037736
30
0
0
VERTEX
8
PFV
62
0
70
32
10
1.207547
20
10.056604
30
0
0
SEQEND
0
POLYLINE
8
PFV
62
0
66
1
70
8
0
VERTEX
8
PFV
62
0
70
32
10
3.962264
20
9.622642
30
0
0
VERTEX
8
PFV
62
0
70
32
10
3.981132
20
9.547170
30
0
0
VERTEX
8
PFV
62
0
70
32
10
4.037736
20
9.547170
30
0
0
VERTEX
8
PFV
62
0
70
32
10
4.094340
20
9.509434
30
0
0
VERTEX
8
PFV
62
0
70
32
10
4.188679
20
9.547170
30
0
0
VERTEX
8
PFV
62
0
70
32
10
4.283019
20
9.509434
30
0
0
SEQEND
0
POLYLINE
8
PFV
62
0
66
1
70
8
0
VERTEX
8
PFV
62
0
70
32
10
3.962264
20
9.622642
30
0
0
VERTEX
8
PFV
62
0
70
32
10
3.679245
20
9.698113
30
0
0
SEQEND
0
POLYLINE
8
PFV
62
0
66
1
70
8
0
VERTEX
8
PFV
62
0
70
32
10
3.962264
20
9.622642
30
0
0
VERTEX
8
PFV
62
0
70
32
10
4.094340
20
9.735849
30
0
0
VERTEX
8
PFV
62
0
70
32
10
4.094340
20
9.830189
30
0
0
VERTEX
8
PFV
62
0
70
32
10
4.207547
20
9.849057
30
0
0
VERTEX
8
PFV
62
0
70
32
10
4.245283
20
9.905660
30
0
0
VERTEX
8
PFV
62
0
70
32
10
4.301887
20
9.905660
30
0
0
SEQEND
0
POLYLINE
8
PFV
62
0
66
1
70
8
0
VERTEX
8
PFV
62
0
70
32
10
3.962264
20
9.622642
30
0
0
VERTEX
8
PFV
62
0
70
32
10
3.943396
20
9.641509
30
0
0
VERTEX
8
PFV
62
0
70
32
10
3.943396
20
9.679245
30
0
0
VERTEX
8
PFV
62
0
70
32
10
3.962264
20
9.698113
30
0
0
VERTEX
8
PFV
62
0
70
32
10
3.962264
20
9.716981
30
0
0
VERTEX
8
PFV
62
0
70
32
10
4.000000
20
9.716981
30
0
0
SEQEND
0
POLYLINE
8
PFV
62
0
66
1
70
8
0
VERTEX
8
PFV
62
0
70
32
10
3.943396
20
9.641509
30
0
0
VERTEX
8
PFV
62
0
70
32
10
3.962264
20
9.622642
30
0
0
SEQEND
0
POLYLINE
8
PFV
62
0
66
1
70
8
0
VERTEX
8
PFV
62
0
70
32
10
4.094340
20
9.754717
30
0
0
VERTEX
8
PFV
62
0
70
32
10
4.113208
20
9.754717
30
0
0
VERTEX
8
PFV
62
0
70
32
10
4.132075
20
9.773585
30
0
0
VERTEX
8
PFV
62
0
70
32
10
4.150943
20
9.792453
30
0
0
VERTEX
8
PFV
62
0
70
32
10
4.169811
20
9.811321
30
0
0
VERTEX
8
PFV
62
0
70
32
10
4.169811
20
9.830189
30
0
0
SEQEND
0
POLYLINE
8
PFV
62
0
66
1
70
8
0
VERTEX
8
PFV
62
0
70
32
10
4.094340
20
9.754717
30
0
0
VERTEX
8
PFV
62
0
70
32
10
4.075472
20
9.773585
30
0
0
SEQEND
0
POLYLINE
8
PFV
62
0
66
1
70
8
0
VERTEX
8
PFV
62
0
70
32
10
7.245283
20
1.339623
30
0
0
VERTEX
8
PFV
62
0
70
32
10
7.264151
20
1.339623
30
0
0
SEQEND
0
POLYLINE
8
PFV
62
0
66
1
70
8
0
VERTEX
8
PFV
62
0
70
32
10
6.358491
20
1.641509
30
0
0
VERTEX
8
PFV
62
0
70
32
10
6.339623
20
1.660377
30
0
0
SEQEND
0
POLYLINE
8
PFV
62
0
66
1
70
8
0
VERTEX
8
PFV
62
0
70
32
10
4.679245
20
1.679245
30
0
0
VERTEX
8
PFV
62
0
70
32
10
4.660377
20
1.698113
30
0
0
VERTEX
8
PFV
62
0
70
32
10
4.641509
20
1.716981
30
0
0
VERTEX
8
PFV
62
0
70
32
10
4.641509
20
1.735849
30
0
0
VERTEX
8
PFV
62
0
70
32
10
4.622642
20
1.754717
30
0
0
VERTEX
8
PFV
62
0
70
32
10
4.603774
20
1.754717
30
0
0
VERTEX
8
PFV
62
0
70
32
10
4.603774
20
1.792453
30
0
0
SEQEND
0
POLYLINE
8
PFV
62
0
66
1
70
8
0
VERTEX
8
PFV
62
0
70
32
10
7.264151
20
1.924528
30
0
0
VERTEX
8
PFV
62
0
70
32
10
7.264151
20
1.943396
30
0
0
SEQEND
0
POLYLINE
8
PFV
62
0
66
1
70
8
0
VERTEX
8
PFV
62
0
70
32
10
7.320755
20
1.962264
30
0
0
VERTEX
8
PFV
62
0
70
32
10
7.264151
20
2.037736
30
0
0
VERTEX
8
PFV
62
0
70
32
10
7.207547
20
2.056604
30
0
0
VERTEX
8
PFV
62
0
70
32
10
7.207547
20
2.094340
30
0
0
SEQEND
0
POLYLINE
8
PFV
62
0
66
1
70
8
0
VERTEX
8
PFV
62
0
70
32
10
6.584906
20
2.000000
30
0
0
VERTEX
8
PFV
62
0
70
32
10
6.584906
20
2.037736
30
0
0
SEQEND
0
POLYLINE
8
PFV
62
0
66
1
70
8
0
VERTEX
8
PFV
62
0
70
32
10
4.075472
20
2.094340
30
0
0
VERTEX
8
PFV
62
0
70
32
10
4.113208
20
2.094340
30
0
0
VERTEX
8
PFV
62
0
70
32
10
4.132075
20
2.113208
30
0
0
VERTEX
8
PFV
62
0
70
32
10
4.226415
20
2.113208
30
0
0
SEQEND
0
POLYLINE
8
PFV
62
0
66
1
70
8
0
VERTEX
8
PFV
62
0
70
32
10
6.660377
20
2.113208
30
0
0
VERTEX
8
PFV
62
0
70
32
10
6.773585
20
2.113208
30
0
0
SEQEND
0
POLYLINE
8
PFV
62
0
66
1
70
8
0
VERTEX
8
PFV
62
0
70
32
10
4.566038
20
2.377358
30
0
0
VERTEX
8
PFV
62
0
70
32
10
4.679245
20
2.528302
30
0
0
VERTEX
8
PFV
62
0
70
32
10
4.735849
20
2.566038
30
0
0
SEQEND
0
POLYLINE
8
PFV
62
0
66
1
70
8
0
VERTEX
8
PFV
62
0
70
32
10
5.207547
20
2.415094
30
0
0
VERTEX
8
PFV
62
0
70
32
10
5.207547
20
2.452830
30
0
0
VERTEX
8
PFV
62
0
70
32
10
5.245283
20
2.452830
30
0
0
VERTEX
8
PFV
62
0
70
32
10
5.264151
20
2.433962
30
0
0
VERTEX
8
PFV
62
0
70
32
10
5.245283
20
2.415094
30
0
0
VERTEX
8
PFV
62
0
70
32
10
5.207547
20
2.415094
30
0
0
SEQEND
0
POLYLINE
8
PFV
62
0
66
1
70
8
0
VERTEX
8
PFV
62
0
70
32
10
6.962264
20
2.528302
30
0
0
VERTEX
8
PFV
62
0
70
32
10
6.962264
20
2.584906
30
0
0
VERTEX
8
PFV
62
0
70
32
10
6.981132
20
2.584906
30
0
0
VERTEX
8
PFV
62
0
70
32
10
7.000000
20
2.603774
30
0
0
VERTEX
8
PFV
62
0
70
32
10
7.018868
20
2.622642
30
0
0
VERTEX
8
PFV
62
0
70
32
10
7.018868
20
2.660377
30
0
0
SEQEND
0
POLYLINE
8
PFV
62
0
66
1
70
8
0
VERTEX
8
PFV
62
0
70
32
10
3.584906
20
3.584906
30
0
0
VERTEX
8
PFV
62
0
70
32
10
3.584906
20
3.603774
30
0
0
SEQEND
0
POLYLINE
8
PFV
62
0
66
1
70
8
0
VERTEX
8
PFV
62
0
70
32
10
4.094340
20
4.056604
30
0
0
VERTEX
8
PFV
62
0
70
32
10
4.094340
20
4.094340
30
0
0
SEQEND
0
POLYLINE
8
PFV
62
0
66
1
70
8
0
VERTEX
8
PFV
62
0
70
32
10
2.962264
20
4.660377
30
0
0
VERTEX
8
PFV
62
0
70
32
10
2.943396
20
4.679245
30
0
0
VERTEX
8
PFV
62
0
70
32
10
2.905660
20
4.679245
30
0
0
SEQEND
0
POLYLINE
8
PFV
62
0
66
1
70
8
0
VERTEX
8
PFV
62
0
70
32
10
0.735849
20
4.716981
30
0
0
VERTEX
8
PFV
62
0
70
32
10
0.811321
20
4.716981
30
0
0
VERTEX
8
PFV
62
0
70
32
10
0.849057
20
4.811321
30
0
0
VERTEX
8
PFV
62
0
70
32
10
0.962264
20
4.905660
30
0
0
SEQEND
0
POLYLINE
8
PFV
62
0
66
1
70
8
0
VERTEX
8
PFV
62
0
70
32
10
3.037736
20
4.716981
30
0
0
VERTEX
8
PFV
62
0
70
32
10
3.075472
20
4.716981
30
0
0
SEQEND
0
POLYLINE
8
PFV
62
0
66
1
70
8
0
VERTEX
8
PFV
62
0
70
32
10
3.037736
20
4.716981
30
0
0
VERTEX
8
PFV
62
0
70
32
10
2.886792
20
4.792453
30
0
0
VERTEX
8
PFV
62
0
70
32
10
2.716981
20
4.792453
30
0
0
SEQEND
0
POLYLINE
8
PFV
62
0
66
1
70
8
0
VERTEX
8
PFV
62
0
70
32
10
3.169811
20
4.735849
30
0
0
VERTEX
8
PFV
62
0
70
32
10
3.150943
20
4.754717
30
0
0
SEQEND
0
POLYLINE
8
PFV
62
0
66
1
70
8
0
VERTEX
8
PFV
62
0
70
32
10
0.471698
20
4.886792
30
0
0
VERTEX
8
PFV
62
0
70
32
10
0.471698
20
4.905660
30
0
0
VERTEX
8
PFV
62
0
70
32
10
0.452830
20
4.924528
30
0
0
VERTEX
8
PFV
62
0
70
32
10
0.452830
20
4.981132
30
0
0
SEQEND
0
POLYLINE
8
PFV
62
0
66
1
70
8
0
VERTEX
8
PFV
62
0
70
32
10
0.471698
20
4.886792
30
0
0
VERTEX
8
PFV
62
0
70
32
10
0.509434
20
4.886792
30
0
0
VERTEX
8
PFV
62
0
70
32
10
0.528302
20
4.905660
30
0
0
VERTEX
8
PFV
62
0
70
32
10
0.547170
20
4.924528
30
0
0
SEQEND
0
POLYLINE
8
PFV
62
0
66
1
70
8
0
VERTEX
8
PFV
62
0
70
32
10
0.471698
20
4.886792
30
0
0
VERTEX
8
PFV
62
0
70
32
10
0.452830
20
4.905660
30
0
0
SEQEND
0
POLYLINE
8
PFV
62
0
66
1
70
8
0
VERTEX
8
PFV
62
0
70
32
10
0.415094
20
5.113208
30
0
0
VERTEX
8
PFV
62
0
70
32
10
0.415094
20
5.169811
30
0
0
VERTEX
8
PFV
62
0
70
32
10
0.396226
20
5.188679
30
0
0
VERTEX
8
PFV
62
0
70
32
10
0.396226
20
5.264151
30
0
0
SEQEND
0
POLYLINE
8
PFV
62
0
66
1
70
8
0
VERTEX
8
PFV
62
0
70
32
10
0.603774
20
5.339623
30
0
0
VERTEX
8
PFV
62
0
70
32
10
0.603774
20
5.415094
30
0
0
VERTEX
8
PFV
62
0
70
32
10
0.584906
20
5.433962
30
0
0
VERTEX
8
PFV
62
0
70
32
10
0.584906
20
5.471698
30
0
0
SEQEND
0
POLYLINE
8
PFV
62
0
66
1
70
8
0
VERTEX
8
PFV
62
0
70
32
10
0.207547
20
5.377358
30
0
0
VERTEX
8
PFV
62
0
70
32
10
0.264151
20
5.433962
30
0
0
VERTEX
8
PFV
62
0
70
32
10
0.301887
20
5.528302
30
0
0
VERTEX
8
PFV
62
0
70
32
10
0.377358
20
5.773585
30
0
0
VERTEX
8
PFV
62
0
70
32
10
0.339623
20
5.811321
30
0
0
SEQEND
0
POLYLINE
8
PFV
62
0
66
1
70
8
0
VERTEX
8
PFV
62
0
70
32
10
4.886792
20
5.754717
30
0
0
VERTEX
8
PFV
62
0
70
32
10
4.981132
20
5.792453
30
0
0
VERTEX
8
PFV
62
0
70
32
10
5.169811
20
5.905660
30
0
0
SEQEND
0
POLYLINE
8
PFV
62
0
66
1
70
8
0
VERTEX
8
PFV
62
0
70
32
10
1.056604
20
5.811321
30
0
0
VERTEX
8
PFV
62
0
70
32
10
1.132075
20
5.811321
30
0
0
VERTEX
8
PFV
62
0
70
32
10
1.150943
20
5.830189
30
0
0
SEQEND
0
POLYLINE
8
PFV
62
0
66
1
70
8
0
VERTEX
8
PFV
62
0
70
32
10
0.528302
20
5.924528
30
0
0
VERTEX
8
PFV
62
0
70
32
10
0.528302
20
6.000000
30
0
0
SEQEND
0
POLYLINE
8
PFV
62
0
66
1
70
8
0
VERTEX
8
PFV
62
0
70
32
10
0.905660
20
6.113208
30
0
0
VERTEX
8
PFV
62
0
70
32
10
0.962264
20
6.113208
30
0
0
VERTEX
8
PFV
62
0
70
32
10
0.981132
20
6.132075
30
0
0
VERTEX
8
PFV
62
0
70
32
10
0.981132
20
6.150943
30
0
0
VERTEX
8
PFV
62
0
70
32
10
0.962264
20
6.150943
30
0
0
VERTEX
8
PFV
62
0
70
32
10
0.943396
20
6.169811
30
0
0
VERTEX
8
PFV
62
0
70
32
10
0.867925
20
6.169811
30
0
0
SEQEND
0
POLYLINE
8
PFV
62
0
66
1
70
8
0
VERTEX
8
PFV
62
0
70
32
10
1.660377
20
6.811321
30
0
0
VERTEX
8
PFV
62
0
70
32
10
1.679245
20
6.830189
30
0
0
SEQEND
0
POLYLINE
8
PFV
62
0
66
1
70
8
0
VERTEX
8
PFV
62
0
70
32
10
2.150943
20
6.830189
30
0
0
VERTEX
8
PFV
62
0
70
32
10
2.169811
20
6.849057
30
0
0
VERTEX
8
PFV
62
0
70
32
10
2.188679
20
6.849057
30
0
0
SEQEND
0
POLYLINE
8
PFV
62
0
66
1
70
8
0
VERTEX
8
PFV
62
0
70
32
10
3.113208
20
7.962264
30
0
0
VERTEX
8
PFV
62
0
70
32
10
3.150943
20
7.962264
30
0
0
SEQEND
0
POLYLINE
8
PFV
62
0
66
1
70
8
0
VERTEX
8
PFV
62
0
70
32
10
5.150943
20
7.962264
30
0
0
VERTEX
8
PFV
62
0
70
32
10
5.207547
20
7.962264
30
0
0
VERTEX
8
PFV
62
0
70
32
10
5.226415
20
7.981132
30
0
0
VERTEX
8
PFV
62
0
70
32
10
5.245283
20
7.962264
30
0
0
VERTEX
8
PFV
62
0
70
32
10
5.301887
20
7.962264
30
0
0
SEQEND
0
POLYLINE
8
PFV
62
0
66
1
70
8
0
VERTEX
8
PFV
62
0
70
32
10
5.358491
20
7.962264
30
0
0
VERTEX
8
PFV
62
0
70
32
10
5.396226
20
7.962264
30
0
0
SEQEND
0
POLYLINE
8
PFV
62
0
66
1
70
8
0
VERTEX
8
PFV
62
0
70
32
10
3.622642
20
7.981132
30
0
0
VERTEX
8
PFV
62
0
70
32
10
3.622642
20
8.018868
30
0
0
VERTEX
8
PFV
62
0
70
32
10
3.660377
20
8.018868
30
0
0
VERTEX
8
PFV
62
0
70
32
10
3.660377
20
7.981132
30
0
0
VERTEX
8
PFV
62
0
70
32
10
3.622642
20
7.981132
30
0
0
VERTEX
8
PFV
62
0
70
32
10
3.603774
20
8.000000
30
0
0
SEQEND
0
POLYLINE
8
PFV
62
0
66
1
70
8
0
VERTEX
8
PFV
62
0
70
32
10
5.452830
20
8.000000
30
0
0
VERTEX
8
PFV
62
0
70
32
10
5.452830
20
8.018868
30
0
0
SEQEND
0
POLYLINE
8
PFV
62
0
66
1
70
8
0
VERTEX
8
PFV
62
0
70
32
10
5.509434
20
8.075472
30
0
0
VERTEX
8
PFV
62
0
70
32
10
5.603774
20
8.169811
30
0
0
VERTEX
8
PFV
62
0
70
32
10
5.641509
20
8.169811
30
0
0
VERTEX
8
PFV
62
0
70
32
10
5.679245
20
8.245283
30
0
0
VERTEX
8
PFV
62
0
70
32
10
5.773585
20
8.283019
30
0
0
VERTEX
8
PFV
62
0
70
32
10
5.773585
20
8.301887
30
0
0
SEQEND
0
POLYLINE
8
PFV
62
0
66
1
70
8
0
VERTEX
8
PFV
62
0
70
32
10
2.716981
20
8.113208
30
0
0
VERTEX
8
PFV
62
0
70
32
10
2.735849
20
8.132075
30
0
0
VERTEX
8
PFV
62
0
70
32
10
2.754717
20
8.150943
30
0
0
VERTEX
8
PFV
62
0
70
32
10
2.754717
20
8.207547
30
0
0
SEQEND
0
POLYLINE
8
PFV
62
0
66
1
70
8
0
VERTEX
8
PFV
62
0
70
32
10
4.981132
20
8.132075
30
0
0
VERTEX
8
PFV
62
0
70
32
10
4.981132
20
8.150943
30
0
0
SEQEND
0
POLYLINE
8
PFV
62
0
66
1
70
8
0
VERTEX
8
PFV
62
0
70
32
10
2.886792
20
8.150943
30
0
0
VERTEX
8
PFV
62
0
70
32
10
2.886792
20
8.188679
30
0
0
SEQEND
0
POLYLINE
8
PFV
62
0
66
1
70
8
0
VERTEX
8
PFV
62
0
70
32
10
3.075472
20
8.188679
30
0
0
VERTEX
8
PFV
62
0
70
32
10
3.094340
20
8.188679
30
0
0
SEQEND
0
POLYLINE
8
PFV
62
0
66
1
70
8
0
VERTEX
8
PFV
62
0
70
32
10
4.943396
20
8.320755
30
0
0
VERTEX
8
PFV
62
0
70
32
10
4.943396
20
8.490566
30
0
0
VERTEX
8
PFV
62
0
70
32
10
4.962264
20
8.509434
30
0
0
VERTEX
8
PFV
62
0
70
32
10
4.962264
20
8.584906
30
0
0
VERTEX
8
PFV
62
0
70
32
10
4.981132
20
8.603774
30
0
0
VERTEX
8
PFV
62
0
70
32
10
4.981132
20
8.622642
30
0
0
VERTEX
8
PFV
62
0
70
32
10
5.000000
20
8.641509
30
0
0
SEQEND
0
POLYLINE
8
PFV
62
0
66
1
70
8
0
VERTEX
8
PFV
62
0
70
32
10
0.905660
20
8.660377
30
0
0
VERTEX
8
PFV
62
0
70
32
10
0.924528
20
8.660377
30
0
0
VERTEX
8
PFV
62
0
70
32
10
0.924528
20
8.698113
30
0
0
VERTEX
8
PFV
62
0
70
32
10
0.905660
20
8.698113
30
0
0
VERTEX
8
PFV
62
0
70
32
10
0.886792
20
8.679245
30
0
0
VERTEX
8
PFV
62
0
70
32
10
0.905660
20
8.660377
30
0
0
SEQEND
0
POLYLINE
8
PFV
62
0
66
1
70
8
0
VERTEX
8
PFV
62
0
70
32
10
7.188679
20
8.698113
30
0
0
VERTEX
8
PFV
62
0
70
32
10
7.188679
20
8.735849
30
0
0
VERTEX
8
PFV
62
0
70
32
10
7.207547
20
8.735849
30
0
0
VERTEX
8
PFV
62
0
70
32
10
7.226415
20
8.754717
30
0
0
VERTEX
8
PFV
62
0
70
32
10
7.226415
20
8.773585
30
0
0
VERTEX
8
PFV
62
0
70
32
10
7.264151
20
8.773585
30
0
0
SEQEND
0
POLYLINE
8
PFV
62
0
66
1
70
8
0
VERTEX
8
PFV
62
0
70
32
10
5.113208
20
8.886792
30
0
0
VERTEX
8
PFV
62
0
70
32
10
5.169811
20
9.169811
30
0
0
VERTEX
8
PFV
62
0
70
32
10
5.207547
20
9.169811
30
0
0
VERTEX
8
PFV
62
0
70
32
10
5.207547
20
9.207547
30
0
0
VERTEX
8
PFV
62
0
70
32
10
5.245283
20
9.207547
30
0
0
VERTEX
8
PFV
62
0
70
32
10
5.245283
20
9.245283
30
0
0
VERTEX
8
PFV
62
0
70
32
10
5.339623
20
9.245283
30
0
0
VERTEX
8
PFV
62
0
70
32
10
5.452830
20
9.226415
30
0
0
SEQEND
0
POLYLINE
8
PFV
62
0
66
1
70
8
0
VERTEX
8
PFV
62
0
70
32
10
7.000000
20
8.886792
30
0
0
VERTEX
8
PFV
62
0
70
32
10
7.000000
20
8.943396
30
0
0
SEQEND
0
POLYLINE
8
PFV
62
0
66
1
70
8
0
VERTEX
8
PFV
62
0
70
32
10
6.981132
20
9.037736
30
0
0
VERTEX
8
PFV
62
0
70
32
10
7.037736
20
9.037736
30
0
0
SEQEND
0
POLYLINE
8
PFV
62
0
66
1
70
8
0
VERTEX
8
PFV
62
0
70
32
10
3.867925
20
9.056604
30
0
0
VERTEX
8
PFV
62
0
70
32
10
3.867925
20
9.094340
30
0
0
SEQEND
0
POLYLINE
8
PFV
62
0
66
1
70
8
0
VERTEX
8
PFV
62
0
70
32
10
4.792453
20
9.094340
30
0
0
VERTEX
8
PFV
62
0
70
32
10
4.830189
20
9.094340
30
0
0
VERTEX
8
PFV
62
0
70
32
10
4.830189
20
9.132075
30
0
0
VERTEX
8
PFV
62
0
70
32
10
4.905660
20
9.188679
30
0
0
VERTEX
8
PFV
62
0
70
32
10
4.924528
20
9.207547
30
0
0
SEQEND
0
POLYLINE
8
PFV
62
0
66
1
70
8
0
VERTEX
8
PFV
62
0
70
32
10
3.773585
20
9.188679
30
0
0
VERTEX
8
PFV
62
0
70
32
10
3.792453
20
9.188679
30
0
0
SEQEND
0
POLYLINE
8
PFV
62
0
66
1
70
8
0
VERTEX
8
PFV
62
0
70
32
10
4.773585
20
9.471698
30
0
0
VERTEX
8
PFV
62
0
70
32
10
4.811321
20
9.471698
30
0
0
VERTEX
8
PFV
62
0
70
32
10
4.830189
20
9.490566
30
0
0
VERTEX
8
PFV
62
0
70
32
10
4.830189
20
9.509434
30
0
0
VERTEX
8
PFV
62
0
70
32
10
4.849057
20
9.528302
30
0
0
SEQEND
0
POLYLINE
8
PFV
62
0
66
1
70
8
0
VERTEX
8
PFV
62
0
70
32
10
4.547170
20
9.528302
30
0
0
VERTEX
8
PFV
62
0
70
32
10
4.566038
20
9.528302
30
0
0
VERTEX
8
PFV
62
0
70
32
10
4.584906
20
9.547170
30
0
0
SEQEND
0
POLYLINE
8
PFV
62
0
66
1
70
8
0
VERTEX
8
PFV
62
0
70
32
10
4.924528
20
9.566038
30
0
0
VERTEX
8
PFV
62
0
70
32
10
4.943396
20
9.566038
30
0
0
SEQEND
0
POLYLINE
8
PFV
62
0
66
1
70
8
0
VERTEX
8
PFV
62
0
70
32
10
5.415094
20
9.698113
30
0
0
VERTEX
8
PFV
62
0
70
32
10
5.415094
20
9.716981
30
0
0
VERTEX
8
PFV
62
0
70
32
10
5.396226
20
9.735849
30
0
0
VERTEX
8
PFV
62
0
70
32
10
5.377358
20
9.754717
30
0
0
SEQEND
0
POLYLINE
8
PFV
62
0
66
1
70
8
0
VERTEX
8
PFV
62
0
70
32
10
5.415094
20
9.698113
30
0
0
VERTEX
8
PFV
62
0
70
32
10
5.452830
20
9.698113
30
0
0
SEQEND
0
POLYLINE
8
PFV
62
0
66
1
70
8
0
VERTEX
8
PFV
62
0
70
32
10
5.415094
20
9.698113
30
0
0
VERTEX
8
PFV
62
0
70
32
10
5.396226
20
9.716981
30
0
0
SEQEND
0
POLYLINE
8
PFV
62
0
66
1
70
8
0
VERTEX
8
PFV
62
0
70
32
10
5.283019
20
9.792453
30
0
0
VERTEX
8
PFV
62
0
70
32
10
5.320755
20
9.792453
30
0
0
SEQEND
0
ENDSEC
0
EOF
